<svg width="1200" height="630" viewBox="0 0 1200 630" xmlns="http://www.w3.org/2000/svg"><mask id="satori_om-id"><rect x="0" y="0" width="1200" height="630" fill="#fff"/></mask><mask id="satori_om-id-0"><rect x="0" y="0" width="1200" height="630" fill="#fff"/></mask><rect x="0" y="0" width="1200" height="630" fill="#f2f2f2"/><mask id="satori_om-id-0-0"><rect x="0" y="0" width="1200" height="441" fill="#fff"/></mask><mask id="satori_om-id-0-0-0"><rect x="40" y="136" width="1120" height="36" fill="#fff"/></mask><path fill="#8e8e8e" d="M44.8 164.4Q44.4 164.9 43.6 164.9Q42.8 164.9 42.4 164.4Q41.9 164.0 41.9 163.2L41.9 163.2L41.9 145.2Q41.9 144.4 42.4 144.0Q42.8 143.5 43.6 143.5L43.6 143.5L53.8 143.5Q54.5 143.5 55.0 143.9Q55.4 144.3 55.4 144.9Q55.4 145.6 55.0 146.0Q54.5 146.4 53.8 146.4L53.8 146.4L45.2 146.4L45.2 153.0L53.1 153.0Q53.7 153.0 54.1 153.4Q54.5 153.8 54.5 154.4Q54.5 155.1 54.1 155.4Q53.7 155.8 53.1 155.8L53.1 155.8L45.2 155.8L45.2 163.2Q45.2 164.0 44.8 164.4ZM59.2 164.9L59.2 164.9Q58.5 164.9 58.1 164.5Q57.6 164.0 57.6 163.3L57.6 163.3L57.6 150.6Q57.6 149.9 58.0 149.4Q58.5 149.0 59.1 149.0L59.1 149.0Q59.8 149.0 60.2 149.4Q60.6 149.9 60.6 150.6L60.6 150.6L60.6 151.9L60.7 151.9Q61.0 150.6 62.0 149.8Q62.9 149.0 64.1 149.0L64.1 149.0Q64.9 149.0 65.3 149.4L65.3 149.4Q65.8 149.7 65.8 150.5L65.8 150.5Q65.8 151.2 65.3 151.6L65.3 151.6Q64.8 152.0 63.8 152.0L63.8 152.0Q62.3 152.0 61.5 153.0Q60.8 153.9 60.8 155.4L60.8 155.4L60.8 163.3Q60.8 164.0 60.3 164.5Q59.9 164.9 59.2 164.9ZM70.5 146.4Q69.9 146.9 69.2 146.9Q68.4 146.9 67.9 146.4Q67.3 145.9 67.3 145.1L67.3 145.1Q67.3 144.3 67.9 143.8Q68.4 143.3 69.2 143.3L69.2 143.3Q69.9 143.3 70.5 143.8Q71.0 144.3 71.0 145.1L71.0 145.1Q71.0 145.9 70.5 146.4ZM70.3 164.5Q69.9 164.9 69.2 164.9Q68.4 164.9 68.0 164.5Q67.6 164.0 67.6 163.3L67.6 163.3L67.6 150.7Q67.6 149.9 68.0 149.4Q68.4 149.0 69.2 149.0Q69.9 149.0 70.3 149.4Q70.7 149.9 70.7 150.7L70.7 150.7L70.7 163.3Q70.7 164.0 70.3 164.5ZM79.8 164.9L79.8 164.9Q76.8 164.9 75.1 162.8Q73.3 160.6 73.3 157.0Q73.3 153.3 75.0 151.2Q76.8 149.0 79.7 149.0L79.7 149.0Q81.4 149.0 82.6 149.8Q83.9 150.5 84.6 151.8L84.6 151.8L84.6 151.8L84.6 144.9Q84.6 144.1 85.1 143.7Q85.5 143.2 86.2 143.2L86.2 143.2Q86.9 143.2 87.4 143.7Q87.8 144.2 87.8 144.9L87.8 144.9L87.8 163.4Q87.8 164.1 87.4 164.5Q86.9 164.9 86.2 164.9L86.2 164.9Q85.5 164.9 85.1 164.5Q84.6 164.1 84.6 163.4L84.6 163.4L84.6 161.9L84.6 161.9Q84.0 163.3 82.7 164.1Q81.5 164.9 79.8 164.9ZM80.6 162.2L80.6 162.2Q82.4 162.2 83.5 160.8Q84.6 159.4 84.6 157.0L84.6 157.0Q84.6 154.6 83.5 153.1Q82.4 151.7 80.6 151.7L80.6 151.7Q78.7 151.7 77.6 153.1Q76.5 154.5 76.5 157.0L76.5 157.0Q76.5 159.4 77.6 160.8Q78.7 162.2 80.6 162.2ZM95.5 164.9L95.5 164.9Q93.3 164.9 91.8 163.6Q90.4 162.3 90.4 160.3L90.4 160.3Q90.4 158.3 91.9 157.1Q93.4 155.9 96.1 155.7L96.1 155.7L100.4 155.5L100.4 154.3Q100.4 153.0 99.5 152.3Q98.7 151.6 97.3 151.6L97.3 151.6Q96.1 151.6 95.3 152.0Q94.5 152.5 93.9 153.5L93.9 153.5Q93.4 154.2 92.6 154.2L92.6 154.2Q92.0 154.2 91.6 153.8Q91.2 153.4 91.2 152.9L91.2 152.9Q91.2 152.3 91.5 151.8L91.5 151.8Q92.1 150.5 93.7 149.8Q95.3 149.0 97.4 149.0L97.4 149.0Q100.2 149.0 101.9 150.4Q103.5 151.7 103.5 154.0L103.5 154.0L103.5 163.3Q103.5 164.1 103.1 164.5Q102.7 164.9 102.0 164.9L102.0 164.9Q101.3 164.9 100.9 164.5Q100.5 164.1 100.5 163.4L100.5 163.4L100.5 162.1L100.4 162.1Q99.8 163.4 98.4 164.2Q97.1 164.9 95.5 164.9ZM96.4 162.4L96.4 162.4Q98.1 162.4 99.2 161.4Q100.4 160.4 100.4 158.9L100.4 158.9L100.4 157.7L96.6 157.9Q95.1 158.0 94.4 158.6Q93.6 159.2 93.6 160.2L93.6 160.2Q93.6 161.2 94.4 161.8Q95.2 162.4 96.4 162.4ZM108.5 170.4L108.5 170.4Q107.4 170.4 106.8 170.0Q106.2 169.6 106.2 168.9L106.2 168.9Q106.2 168.4 106.5 168.1Q106.9 167.8 107.4 167.8L107.4 167.8Q107.6 167.8 107.8 167.8Q108.1 167.8 108.3 167.8L108.3 167.8Q109.9 167.8 110.6 165.7L110.6 165.7L110.9 164.8L105.7 151.3Q105.6 150.9 105.6 150.4L105.6 150.4Q105.6 149.8 106.0 149.4Q106.5 149.0 107.2 149.0L107.2 149.0Q107.8 149.0 108.1 149.3Q108.5 149.5 108.7 150.2L108.7 150.2L112.6 161.8L112.7 161.8L116.6 150.2Q116.8 149.5 117.2 149.3Q117.5 149.0 118.1 149.0L118.1 149.0Q118.8 149.0 119.2 149.4Q119.7 149.8 119.7 150.4L119.7 150.4Q119.7 150.8 119.5 151.3L119.5 151.3L114.2 165.4Q113.1 168.2 111.9 169.3Q110.6 170.4 108.5 170.4ZM124.1 161.1L124.1 161.1Q124.8 161.1 125.2 161.5Q125.6 161.8 125.6 162.4L125.6 162.4Q125.6 162.8 125.5 163.3L125.5 163.3L124.2 168.3Q123.9 169.4 122.9 169.4L122.9 169.4Q122.3 169.4 122.0 169.1Q121.6 168.7 121.6 168.2L121.6 168.2Q121.6 168.1 121.7 167.8L121.7 167.8L122.6 162.4Q122.8 161.1 124.1 161.1Z M149.0 164.7L137.3 164.7Q136.6 164.7 136.2 164.3Q135.7 163.9 135.7 163.3L135.7 163.3Q135.7 162.8 135.9 162.5Q136.1 162.1 136.7 161.6L136.7 161.6L143.3 154.9Q145.3 152.8 146.0 151.7Q146.7 150.6 146.7 149.3L146.7 149.3Q146.7 147.8 145.6 146.8Q144.6 145.8 143.0 145.8L143.0 145.8Q139.9 145.8 138.8 149.0L138.8 149.0Q138.5 149.5 138.2 149.8Q137.9 150.0 137.3 150.0L137.3 150.0Q136.6 150.0 136.2 149.6Q135.8 149.3 135.8 148.6L135.8 148.6Q135.8 148.3 135.9 148.0L135.9 148.0Q136.1 147.1 136.6 146.3Q137.2 145.4 138.1 144.7Q138.9 144.0 140.2 143.6Q141.5 143.1 143.0 143.1L143.0 143.1Q146.1 143.1 148.0 144.8Q149.9 146.5 149.9 149.1L149.9 149.1Q149.9 150.9 148.9 152.5Q148.0 154.0 145.2 156.8L145.2 156.8L140.2 161.8L140.2 161.9L149.0 161.9Q149.6 161.9 150.0 162.3Q150.4 162.7 150.4 163.3L150.4 163.3Q150.4 163.9 150.0 164.3Q149.6 164.7 149.0 164.7L149.0 164.7ZM166.8 162.1Q164.7 165.1 160.9 165.1Q157.1 165.1 155.0 162.1Q152.8 159.2 152.8 154.1L152.8 154.1Q152.8 149.0 155.0 146.1Q157.1 143.1 160.9 143.1L160.9 143.1Q164.7 143.1 166.8 146.1Q169.0 149.0 169.0 154.1L169.0 154.1Q169.0 159.1 166.8 162.1ZM160.9 162.3L160.9 162.3Q163.2 162.3 164.4 160.1Q165.7 157.9 165.7 154.1L165.7 154.1Q165.7 150.3 164.4 148.1Q163.2 145.9 160.9 145.9Q158.7 145.9 157.4 148.1Q156.1 150.3 156.1 154.1L156.1 154.1Q156.1 157.9 157.4 160.1Q158.6 162.3 160.9 162.3Z M185.7 164.7L179.9 164.7Q179.2 164.7 178.7 164.2Q178.3 163.8 178.3 163.0L178.3 163.0L178.3 145.2Q178.3 144.4 178.7 144.0Q179.2 143.5 179.9 143.5L179.9 143.5L185.7 143.5Q190.5 143.5 193.1 146.3Q195.7 149.1 195.7 154.1L195.7 154.1Q195.7 159.1 193.1 161.9Q190.5 164.7 185.7 164.7L185.7 164.7ZM181.6 146.4L181.6 161.8L185.4 161.8Q188.8 161.8 190.6 159.8Q192.4 157.8 192.4 154.1L192.4 154.1Q192.4 150.4 190.6 148.4Q188.8 146.4 185.4 146.4L185.4 146.4L181.6 146.4ZM205.2 165.0L205.2 165.0Q201.7 165.0 199.7 162.9Q197.8 160.8 197.8 157.0L197.8 157.0Q197.8 153.4 199.7 151.2Q201.7 149.0 204.9 149.0L204.9 149.0Q208.0 149.0 209.9 151.0Q211.9 153.0 211.9 156.1L211.9 156.1Q211.9 156.9 211.5 157.3Q211.0 157.8 210.3 157.8L210.3 157.8L201.0 157.8L201.0 157.8Q201.0 159.9 202.1 161.2Q203.2 162.4 205.1 162.4L205.1 162.4Q206.4 162.4 207.3 161.9Q208.2 161.4 209.1 160.2L209.1 160.2Q209.5 159.6 210.2 159.6L210.2 159.6Q210.8 159.6 211.1 160.0Q211.5 160.3 211.5 160.9L211.5 160.9Q211.5 161.3 211.3 161.8L211.3 161.8Q210.5 163.3 208.9 164.1Q207.3 165.0 205.2 165.0ZM201.0 155.5L201.0 155.5L208.7 155.5Q208.6 153.7 207.6 152.6Q206.6 151.5 204.9 151.5L204.9 151.5Q203.3 151.5 202.2 152.6Q201.1 153.7 201.0 155.5ZM220.9 165.0L220.9 165.0Q217.6 165.0 215.6 162.8Q213.6 160.7 213.6 157.0L213.6 157.0Q213.6 153.3 215.6 151.2Q217.6 149.0 220.9 149.0L220.9 149.0Q223.1 149.0 224.8 150.0Q226.6 151.1 227.1 152.7L227.1 152.7Q227.2 153.1 227.2 153.4L227.2 153.4Q227.2 154.0 226.8 154.4Q226.5 154.7 225.9 154.7L225.9 154.7Q225.4 154.7 225.1 154.5Q224.7 154.3 224.4 153.8L224.4 153.8Q223.8 152.7 223.0 152.1Q222.2 151.6 220.9 151.6L220.9 151.6Q219.1 151.6 218.0 153.1Q216.9 154.5 216.9 157.0L216.9 157.0Q216.9 159.4 218.0 160.9Q219.1 162.3 220.9 162.3L220.9 162.3Q223.3 162.3 224.4 160.2L224.4 160.2Q224.8 159.6 225.1 159.4Q225.4 159.2 225.9 159.2L225.9 159.2Q226.5 159.2 226.9 159.6Q227.3 159.9 227.3 160.5L227.3 160.5Q227.3 160.9 227.1 161.3L227.1 161.3Q226.5 162.9 224.8 163.9Q223.0 165.0 220.9 165.0ZM236.5 165.0L236.5 165.0Q233.0 165.0 231.1 162.9Q229.1 160.8 229.1 157.0L229.1 157.0Q229.1 153.4 231.1 151.2Q233.0 149.0 236.3 149.0L236.3 149.0Q239.4 149.0 241.3 151.0Q243.2 153.0 243.2 156.1L243.2 156.1Q243.2 156.9 242.8 157.3Q242.4 157.8 241.6 157.8L241.6 157.8L232.3 157.8L232.3 157.8Q232.3 159.9 233.4 161.2Q234.5 162.4 236.4 162.4L236.4 162.4Q237.7 162.4 238.6 161.9Q239.5 161.4 240.4 160.2L240.4 160.2Q240.9 159.6 241.5 159.6L241.5 159.6Q242.1 159.6 242.5 160.0Q242.8 160.3 242.8 160.9L242.8 160.9Q242.8 161.3 242.6 161.8L242.6 161.8Q241.9 163.3 240.3 164.1Q238.6 165.0 236.5 165.0ZM232.3 155.5L232.3 155.5L240.0 155.5Q240.0 153.7 238.9 152.6Q237.9 151.5 236.3 151.5L236.3 151.5Q234.6 151.5 233.5 152.6Q232.5 153.7 232.3 155.5ZM248.4 164.5Q247.9 164.9 247.2 164.9Q246.5 164.9 246.1 164.5Q245.6 164.0 245.6 163.3L245.6 163.3L245.6 150.6Q245.6 149.9 246.1 149.4Q246.5 149.0 247.2 149.0Q247.8 149.0 248.2 149.4Q248.7 149.8 248.7 150.6L248.7 150.6L248.7 151.8L248.7 151.8Q249.3 150.5 250.4 149.8Q251.6 149.0 253.1 149.0L253.1 149.0Q254.7 149.0 255.8 149.8Q257.0 150.6 257.4 152.0L257.4 152.0L257.5 152.0Q258.1 150.6 259.4 149.8Q260.7 149.0 262.3 149.0L262.3 149.0Q264.6 149.0 266.0 150.4Q267.3 151.8 267.3 154.1L267.3 154.1L267.3 163.3Q267.3 164.0 266.9 164.5Q266.5 164.9 265.7 164.9Q265.0 164.9 264.6 164.5Q264.2 164.0 264.2 163.3L264.2 163.3L264.2 154.8Q264.2 153.3 263.4 152.5Q262.6 151.7 261.2 151.7Q259.8 151.7 258.9 152.6Q258.0 153.6 258.0 155.0L258.0 155.0L258.0 163.3Q258.0 164.0 257.6 164.5Q257.2 164.9 256.5 164.9Q255.8 164.9 255.4 164.5Q254.9 164.0 254.9 163.3L254.9 163.3L254.9 154.6Q254.9 153.3 254.1 152.5Q253.4 151.7 252.0 151.7L252.0 151.7Q250.6 151.7 249.7 152.7Q248.8 153.6 248.8 155.1L248.8 155.1L248.8 163.3Q248.8 164.0 248.4 164.5ZM272.0 164.9L272.0 164.9Q271.3 164.9 270.9 164.5Q270.5 164.1 270.5 163.4L270.5 163.4L270.5 144.9Q270.5 144.2 270.9 143.7Q271.4 143.2 272.1 143.2Q272.8 143.2 273.2 143.7Q273.7 144.2 273.7 144.9L273.7 144.9L273.7 151.9L273.7 151.9Q274.4 150.5 275.7 149.8Q277.0 149.0 278.6 149.0L278.6 149.0Q281.5 149.0 283.3 151.2Q285.0 153.3 285.0 157.0L285.0 157.0Q285.0 160.6 283.3 162.8Q281.5 164.9 278.6 164.9L278.6 164.9Q276.9 164.9 275.6 164.2Q274.4 163.4 273.6 162.0L273.6 162.0L273.6 162.0L273.6 163.4Q273.6 164.1 273.2 164.5Q272.7 164.9 272.0 164.9ZM277.7 162.2L277.7 162.2Q279.6 162.2 280.7 160.8Q281.8 159.4 281.8 157.0L281.8 157.0Q281.8 154.5 280.7 153.1Q279.6 151.7 277.7 151.7L277.7 151.7Q275.9 151.7 274.8 153.1Q273.7 154.6 273.7 157.0L273.7 157.0Q273.7 159.3 274.8 160.8Q275.9 162.2 277.7 162.2ZM294.2 165.0L294.2 165.0Q290.7 165.0 288.7 162.9Q286.8 160.8 286.8 157.0L286.8 157.0Q286.8 153.4 288.7 151.2Q290.7 149.0 293.9 149.0L293.9 149.0Q297.0 149.0 298.9 151.0Q300.9 153.0 300.9 156.1L300.9 156.1Q300.9 156.9 300.5 157.3Q300.0 157.8 299.3 157.8L299.3 157.8L290.0 157.8L290.0 157.8Q290.0 159.9 291.1 161.2Q292.2 162.4 294.1 162.4L294.1 162.4Q295.4 162.4 296.3 161.9Q297.2 161.4 298.1 160.2L298.1 160.2Q298.5 159.6 299.2 159.6L299.2 159.6Q299.8 159.6 300.1 160.0Q300.5 160.3 300.5 160.9L300.5 160.9Q300.5 161.3 300.3 161.8L300.3 161.8Q299.5 163.3 297.9 164.1Q296.3 165.0 294.2 165.0ZM290.0 155.5L290.0 155.5L297.7 155.5Q297.7 153.7 296.6 152.6Q295.6 151.5 293.9 151.5L293.9 151.5Q292.3 151.5 291.2 152.6Q290.1 153.7 290.0 155.5ZM304.9 164.9L304.9 164.9Q304.2 164.9 303.8 164.5Q303.3 164.0 303.3 163.3L303.3 163.3L303.3 150.6Q303.3 149.9 303.7 149.4Q304.2 149.0 304.8 149.0L304.8 149.0Q305.5 149.0 305.9 149.4Q306.3 149.9 306.3 150.6L306.3 150.6L306.3 151.9L306.4 151.9Q306.7 150.6 307.7 149.8Q308.6 149.0 309.8 149.0L309.8 149.0Q310.6 149.0 311.0 149.4L311.0 149.4Q311.5 149.7 311.5 150.5L311.5 150.5Q311.5 151.2 311.0 151.6L311.0 151.6Q310.5 152.0 309.5 152.0L309.5 152.0Q308.0 152.0 307.2 153.0Q306.5 153.9 306.5 155.4L306.5 155.4L306.5 163.3Q306.5 164.0 306.0 164.5Q305.6 164.9 304.9 164.9Z M332.5 164.7L320.8 164.7Q320.1 164.7 319.7 164.3Q319.3 163.9 319.3 163.3L319.3 163.3Q319.3 162.8 319.4 162.5Q319.6 162.1 320.2 161.6L320.2 161.6L326.8 154.9Q328.8 152.8 329.5 151.7Q330.2 150.6 330.2 149.3L330.2 149.3Q330.2 147.8 329.2 146.8Q328.1 145.8 326.5 145.8L326.5 145.8Q323.4 145.8 322.3 149.0L322.3 149.0Q322.0 149.5 321.7 149.8Q321.4 150.0 320.8 150.0L320.8 150.0Q320.1 150.0 319.7 149.6Q319.3 149.3 319.3 148.6L319.3 148.6Q319.3 148.3 319.4 148.0L319.4 148.0Q319.6 147.1 320.2 146.3Q320.7 145.4 321.6 144.7Q322.4 144.0 323.7 143.6Q325.0 143.1 326.5 143.1L326.5 143.1Q329.6 143.1 331.5 144.8Q333.4 146.5 333.4 149.1L333.4 149.1Q333.4 150.9 332.5 152.5Q331.5 154.0 328.8 156.8L328.8 156.8L323.7 161.8L323.7 161.9L332.5 161.9Q333.1 161.9 333.5 162.3Q333.9 162.7 333.9 163.3L333.9 163.3Q333.9 163.9 333.5 164.3Q333.1 164.7 332.5 164.7L332.5 164.7ZM350.4 162.1Q348.2 165.1 344.4 165.1Q340.6 165.1 338.5 162.1Q336.3 159.2 336.3 154.1L336.3 154.1Q336.3 149.0 338.5 146.1Q340.6 143.1 344.4 143.1L344.4 143.1Q348.2 143.1 350.3 146.1Q352.5 149.0 352.5 154.1L352.5 154.1Q352.5 159.1 350.4 162.1ZM344.4 162.3L344.4 162.3Q346.7 162.3 347.9 160.1Q349.2 157.9 349.2 154.1L349.2 154.1Q349.2 150.3 347.9 148.1Q346.7 145.9 344.4 145.9Q342.2 145.9 340.9 148.1Q339.6 150.3 339.6 154.1L339.6 154.1Q339.6 157.9 340.9 160.1Q342.1 162.3 344.4 162.3ZM368.6 164.7L356.9 164.7Q356.2 164.7 355.8 164.3Q355.4 163.9 355.4 163.3L355.4 163.3Q355.4 162.8 355.5 162.5Q355.7 162.1 356.3 161.6L356.3 161.6L362.9 154.9Q364.9 152.8 365.6 151.7Q366.3 150.6 366.3 149.3L366.3 149.3Q366.3 147.8 365.3 146.8Q364.2 145.8 362.6 145.8L362.6 145.8Q359.5 145.8 358.4 149.0L358.4 149.0Q358.1 149.5 357.8 149.8Q357.5 150.0 356.9 150.0L356.9 150.0Q356.2 150.0 355.8 149.6Q355.4 149.3 355.4 148.6L355.4 148.6Q355.4 148.3 355.5 148.0L355.5 148.0Q355.7 147.1 356.3 146.3Q356.8 145.4 357.7 144.7Q358.5 144.0 359.8 143.6Q361.1 143.1 362.6 143.1L362.6 143.1Q365.7 143.1 367.6 144.8Q369.5 146.5 369.5 149.1L369.5 149.1Q369.5 150.9 368.5 152.5Q367.6 154.0 364.8 156.8L364.8 156.8L359.8 161.8L359.8 161.9L368.6 161.9Q369.2 161.9 369.6 162.3Q370.0 162.7 370.0 163.3L370.0 163.3Q370.0 163.9 369.6 164.3Q369.2 164.7 368.6 164.7L368.6 164.7ZM384.4 164.9L384.4 164.9Q383.7 164.9 383.3 164.5Q382.8 164.0 382.8 163.3L382.8 163.3L382.8 160.5L374.1 160.5Q373.3 160.5 372.7 160.0Q372.2 159.4 372.2 158.6L372.2 158.6Q372.2 157.6 372.9 156.3L372.9 156.3Q374.8 153.0 379.8 145.7L379.8 145.7Q380.8 144.3 381.5 143.8Q382.2 143.2 383.3 143.2L383.3 143.2Q384.6 143.2 385.3 143.9Q386.0 144.5 386.0 145.7L386.0 145.7L386.0 157.7L387.7 157.7Q388.3 157.7 388.7 158.1Q389.1 158.5 389.1 159.1Q389.1 159.7 388.7 160.1Q388.3 160.5 387.7 160.5L387.7 160.5L386.0 160.5L386.0 163.3Q386.0 164.0 385.5 164.5Q385.1 164.9 384.4 164.9ZM375.3 157.8L382.9 157.8L382.9 146.1L382.8 146.1Q377.4 153.9 375.3 157.7L375.3 157.7L375.3 157.8Z "/><mask id="satori_om-id-0-0-1"><rect x="40" y="217" width="1120" height="83" fill="#fff"/></mask><path fill="#224d67" d="M47.5 280.1L47.5 280.1Q45.7 280.1 44.7 279.0Q43.7 278.0 43.7 276.2L43.7 276.2L43.7 240.7Q43.7 238.9 44.7 237.8Q45.7 236.8 47.5 236.8L47.5 236.8Q49.3 236.8 50.3 237.8Q51.3 238.9 51.3 240.7L51.3 240.7L51.3 276.2Q51.3 278.0 50.3 279.1Q49.3 280.1 47.5 280.1ZM64.3 279.2Q63.3 280.2 61.6 280.2Q60.0 280.2 59.0 279.2Q58.0 278.1 58.0 276.3L58.0 276.3L58.0 251.6Q58.0 249.9 58.9 248.9Q59.9 247.9 61.5 247.9Q63.1 247.9 64.1 248.9Q65.1 249.9 65.1 251.6L65.1 251.6L65.1 253.8L65.2 253.8Q67.9 247.9 74.9 247.9L74.9 247.9Q80.0 247.9 82.8 251.0Q85.6 254.1 85.6 259.5L85.6 259.5L85.6 276.3Q85.6 278.1 84.6 279.2Q83.7 280.2 82.0 280.2Q80.4 280.2 79.4 279.2Q78.3 278.1 78.3 276.3L78.3 276.3L78.3 261.0Q78.3 257.6 76.8 255.9Q75.2 254.1 72.1 254.1L72.1 254.1Q69.0 254.1 67.1 256.2Q65.3 258.2 65.3 261.6L65.3 261.6L65.3 276.3Q65.3 278.1 64.3 279.2ZM93.5 271.9L93.5 271.9L93.5 254.1L91.5 254.1Q90.2 254.1 89.4 253.4Q88.6 252.6 88.6 251.3L88.6 251.3Q88.6 250.0 89.4 249.3Q90.2 248.5 91.5 248.5L91.5 248.5L93.5 248.5L93.5 244.4Q93.5 242.6 94.5 241.6Q95.5 240.6 97.2 240.6L97.2 240.6Q98.8 240.6 99.8 241.6Q100.8 242.6 100.8 244.4L100.8 244.4L100.8 248.5L104.2 248.5Q105.5 248.5 106.3 249.3Q107.1 250.0 107.1 251.3L107.1 251.3Q107.1 252.6 106.3 253.4Q105.5 254.1 104.2 254.1L104.2 254.1L100.8 254.1L100.8 270.3Q100.8 272.1 101.5 272.9Q102.1 273.7 103.7 273.9L103.7 273.9L104.2 273.9Q107.2 274.2 107.2 276.6L107.2 276.6Q107.2 278.2 105.8 279.1Q104.5 279.9 102.0 279.9L102.0 279.9L101.7 279.9Q93.5 279.9 93.5 271.9ZM117.9 279.1Q116.9 280.2 115.2 280.2Q113.6 280.2 112.6 279.1Q111.6 278.1 111.6 276.3L111.6 276.3L111.6 251.6Q111.6 249.9 112.6 248.9Q113.5 247.9 115.1 247.9L115.1 247.9Q116.6 247.9 117.6 248.9Q118.5 249.9 118.5 251.6L118.5 251.6L118.5 254.0L118.7 254.0Q119.3 251.3 121.2 249.6Q123.0 248.0 125.3 248.0L125.3 248.0Q127.0 248.0 127.9 248.8L127.9 248.8Q128.9 249.6 128.9 251.4L128.9 251.4Q128.9 253.1 127.9 254.0L127.9 254.0Q126.8 254.9 124.6 255.0L124.6 255.0Q118.9 255.0 118.9 261.4L118.9 261.4L118.9 276.3Q118.9 278.1 117.9 279.1ZM156.9 275.9Q152.9 280.2 146.0 280.2Q139.1 280.2 135.0 275.9Q130.9 271.6 130.9 264.1L130.9 264.1Q130.9 256.6 135.0 252.2Q139.1 247.9 146.0 247.9L146.0 247.9Q152.8 247.9 156.9 252.2Q161.0 256.6 161.0 264.1L161.0 264.1Q161.0 271.6 156.9 275.9ZM140.4 271.7Q142.5 274.4 146.0 274.4Q149.5 274.4 151.5 271.7Q153.6 269.0 153.6 264.1L153.6 264.1Q153.6 259.2 151.5 256.4Q149.5 253.7 146.0 253.7L146.0 253.7Q142.5 253.7 140.4 256.4Q138.3 259.2 138.3 264.1L138.3 264.1Q138.3 269.0 140.4 271.7ZM177.3 280.1L177.3 280.1Q171.4 280.1 167.9 275.7Q164.4 271.4 164.4 264.0L164.4 264.0Q164.4 256.7 167.9 252.3Q171.4 248.0 177.3 248.0L177.3 248.0Q180.6 248.0 183.1 249.5Q185.6 251.1 186.9 253.7L186.9 253.7L187.1 253.7L187.1 240.6Q187.1 238.7 188.1 237.7Q189.1 236.7 190.7 236.7Q192.3 236.7 193.4 237.7Q194.4 238.7 194.4 240.6L194.4 240.6L194.4 276.5Q194.4 278.2 193.4 279.2Q192.4 280.2 190.8 280.2L190.8 280.2Q189.1 280.2 188.1 279.2Q187.1 278.2 187.1 276.5L187.1 276.5L187.1 274.1L186.9 274.1Q185.8 276.9 183.3 278.5Q180.8 280.1 177.3 280.1ZM179.5 274.1L179.5 274.1Q182.9 274.1 185.0 271.4Q187.1 268.7 187.1 264.1L187.1 264.1Q187.1 259.5 185.0 256.7Q182.9 254.0 179.5 254.0L179.5 254.0Q176.0 254.0 173.9 256.7Q171.9 259.4 171.9 264.1L171.9 264.1Q171.9 268.7 173.9 271.4Q175.9 274.1 179.5 274.1ZM211.4 280.1L211.4 280.1Q206.3 280.1 203.3 277.0Q200.3 274.0 200.3 268.6L200.3 268.6L200.3 251.7Q200.3 250.0 201.3 248.9Q202.3 247.9 204.0 247.9Q205.6 247.9 206.6 248.9Q207.6 250.0 207.6 251.8L207.6 251.8L207.6 267.1Q207.6 270.5 209.2 272.2Q210.8 274.0 213.9 274.0L213.9 274.0Q217.0 274.0 218.9 271.9Q220.7 269.9 220.7 266.5L220.7 266.5L220.7 251.7Q220.7 250.0 221.7 248.9Q222.8 247.9 224.4 247.9L224.4 247.9Q226.0 247.9 227.0 248.9Q228.0 250.0 228.0 251.8L228.0 251.8L228.0 276.5Q228.0 278.2 227.1 279.2Q226.1 280.2 224.5 280.2L224.5 280.2Q222.9 280.2 222.0 279.2Q221.0 278.2 221.0 276.5L221.0 276.5L221.0 274.2L220.8 274.2Q218.3 280.1 211.4 280.1ZM247.6 280.2L247.6 280.2Q240.8 280.2 236.7 275.9Q232.7 271.5 232.7 264.1L232.7 264.1Q232.7 256.7 236.7 252.3Q240.8 247.9 247.6 247.9L247.6 247.9Q252.1 247.9 255.7 250.0Q259.2 252.1 260.3 255.4L260.3 255.4Q260.7 256.4 260.7 257.1L260.7 257.1Q260.7 258.5 259.8 259.3Q258.9 260.1 257.6 260.1L257.6 260.1Q256.5 260.1 255.8 259.6Q255.0 259.1 254.4 258.0L254.4 258.0Q252.1 253.8 247.8 253.8L247.8 253.8Q244.3 253.8 242.2 256.6Q240.1 259.3 240.1 264.1L240.1 264.1Q240.1 268.9 242.2 271.6Q244.2 274.3 247.7 274.3L247.7 274.3Q252.1 274.3 254.4 270.3L254.4 270.3Q255.1 269.1 255.8 268.6Q256.6 268.1 257.7 268.1L257.7 268.1Q259.1 268.1 259.9 268.9Q260.8 269.7 260.8 271.1L260.8 271.1Q260.8 271.9 260.4 272.9L260.4 272.9Q259.1 276.1 255.5 278.2Q252.0 280.2 247.6 280.2ZM272.4 243.0Q271.2 244.2 269.5 244.2Q267.8 244.2 266.6 243.0Q265.5 241.8 265.5 240.2L265.5 240.2Q265.5 238.5 266.6 237.4Q267.8 236.2 269.5 236.2L269.5 236.2Q271.2 236.2 272.4 237.4Q273.6 238.5 273.6 240.2L273.6 240.2Q273.6 241.8 272.4 243.0ZM272.2 279.1Q271.2 280.2 269.5 280.2Q267.8 280.2 266.9 279.1Q265.9 278.1 265.9 276.3L265.9 276.3L265.9 251.7Q265.9 250.0 266.9 248.9Q267.8 247.9 269.5 247.9Q271.2 247.9 272.2 248.9Q273.2 250.0 273.2 251.8L273.2 251.8L273.2 276.3Q273.2 278.1 272.2 279.1ZM285.6 279.2Q284.6 280.2 282.9 280.2Q281.3 280.2 280.3 279.2Q279.3 278.1 279.3 276.3L279.3 276.3L279.3 251.6Q279.3 249.9 280.2 248.9Q281.2 247.9 282.8 247.9Q284.4 247.9 285.4 248.9Q286.4 249.9 286.4 251.6L286.4 251.6L286.4 253.8L286.5 253.8Q289.2 247.9 296.2 247.9L296.2 247.9Q301.3 247.9 304.1 251.0Q307.0 254.1 307.0 259.5L307.0 259.5L307.0 276.3Q307.0 278.1 306.0 279.2Q305.0 280.2 303.3 280.2Q301.7 280.2 300.7 279.2Q299.7 278.1 299.7 276.3L299.7 276.3L299.7 261.0Q299.7 257.6 298.1 255.9Q296.5 254.1 293.4 254.1L293.4 254.1Q290.3 254.1 288.5 256.2Q286.6 258.2 286.6 261.6L286.6 261.6L286.6 276.3Q286.6 278.1 285.6 279.2ZM326.2 291.3L326.2 291.3Q321.8 291.2 318.5 289.7Q315.2 288.2 313.6 285.6L313.6 285.6Q313.0 284.6 313.0 283.4L313.0 283.4Q313.0 282.2 313.8 281.4Q314.6 280.6 316.0 280.6L316.0 280.6Q317.4 280.6 318.7 281.8L318.7 281.8Q320.5 283.7 322.3 284.6Q324.1 285.4 326.2 285.5L326.2 285.5Q329.9 285.5 332.0 283.6Q334.1 281.7 334.1 278.6L334.1 278.6L334.1 273.7L334.0 273.7Q332.8 276.2 330.2 277.7Q327.5 279.3 324.3 279.3L324.3 279.3Q318.4 279.3 315.0 275.0Q311.5 270.8 311.5 263.7L311.5 263.7Q311.5 256.4 315.0 252.2Q318.4 248.0 324.4 248.0L324.4 248.0Q327.7 248.0 330.2 249.5Q332.7 251.1 334.1 253.8L334.1 253.8L334.2 253.8L334.2 251.6Q334.2 249.9 335.2 248.9Q336.2 247.9 337.8 247.9Q339.4 247.9 340.5 248.9Q341.5 249.9 341.5 251.6L341.5 251.6L341.5 278.6Q341.5 284.5 337.4 287.9Q333.3 291.3 326.2 291.3ZM326.5 273.6L326.5 273.6Q330.0 273.6 332.1 270.9Q334.2 268.3 334.2 263.7L334.2 263.7Q334.2 259.2 332.1 256.5Q330.0 253.8 326.5 253.8L326.5 253.8Q323.0 253.8 321.0 256.5Q319.0 259.2 319.0 263.7L319.0 263.7Q319.0 268.3 321.0 271.0Q323.0 273.6 326.5 273.6Z M362.0 280.1L362.0 280.1Q360.3 280.1 359.2 279.1Q358.2 278.2 358.2 276.6L358.2 276.6Q358.2 275.6 358.7 274.3L358.7 274.3L371.0 240.9Q371.7 238.8 373.1 237.8Q374.4 236.8 376.4 236.8L376.4 236.8Q378.5 236.8 379.9 237.8Q381.2 238.7 382.0 240.9L382.0 240.9L394.3 274.3Q394.8 275.7 394.8 276.6L394.8 276.6Q394.8 278.1 393.7 279.1Q392.6 280.1 391.0 280.1L391.0 280.1Q389.5 280.1 388.5 279.3Q387.6 278.6 387.1 276.9L387.1 276.9L384.4 268.8L368.6 268.8L365.8 276.8Q365.3 278.6 364.4 279.3Q363.5 280.1 362.0 280.1ZM376.3 244.8L370.4 262.8L382.5 262.8L376.5 244.8L376.3 244.8ZM411.5 280.2L411.5 280.2Q406.7 280.2 403.3 278.5Q400 276.8 398.9 274.0L398.9 274.0Q398.6 273.2 398.6 272.5L398.6 272.5Q398.6 271.2 399.4 270.4Q400.3 269.6 401.6 269.6L401.6 269.6Q403.4 269.6 404.8 271.4L404.8 271.4Q406.0 273.3 407.6 274.1Q409.2 274.9 411.8 274.9L411.8 274.9Q414.4 274.9 415.9 273.9Q417.4 272.8 417.4 271.1L417.4 271.1Q417.4 269.7 416.4 268.8Q415.4 268.0 413.1 267.4L413.1 267.4L408.0 266.3Q399.0 264.3 399.0 257.4L399.0 257.4Q399.0 253.1 402.4 250.5Q405.9 247.9 411.6 247.9L411.6 247.9Q416.0 247.9 419.2 249.8Q422.5 251.6 423.2 254.4L423.2 254.4Q423.3 255.0 423.3 255.5L423.3 255.5Q423.3 256.6 422.6 257.4Q421.9 258.1 420.5 258.1L420.5 258.1Q418.7 258.1 417.8 256.7L417.8 256.7Q416.6 255.0 415.1 254.1Q413.7 253.2 411.5 253.2L411.5 253.2Q409.1 253.2 407.6 254.3Q406.1 255.3 406.1 257.0L406.1 257.0Q406.1 259.8 410.6 260.8L410.6 260.8L415.6 261.9Q420.5 263.0 422.6 264.9Q424.8 266.9 424.8 270.3L424.8 270.3Q424.8 274.8 421.1 277.5Q417.5 280.2 411.5 280.2ZM431.4 271.9L431.4 271.9L431.4 254.1L429.4 254.1Q428.1 254.1 427.3 253.4Q426.5 252.6 426.5 251.3L426.5 251.3Q426.5 250.0 427.3 249.3Q428.0 248.5 429.4 248.5L429.4 248.5L431.4 248.5L431.4 244.4Q431.4 242.6 432.4 241.6Q433.3 240.6 435.0 240.6L435.0 240.6Q436.7 240.6 437.7 241.6Q438.7 242.6 438.7 244.4L438.7 244.4L438.7 248.5L442.0 248.5Q443.4 248.5 444.2 249.3Q445.0 250.0 445.0 251.3L445.0 251.3Q445.0 252.6 444.2 253.4Q443.4 254.1 442.0 254.1L442.0 254.1L438.7 254.1L438.7 270.3Q438.7 272.1 439.3 272.9Q440.0 273.7 441.6 273.9L441.6 273.9L442.1 273.9Q445.1 274.2 445.1 276.6L445.1 276.6Q445.1 278.2 443.7 279.1Q442.4 279.9 439.8 279.9L439.8 279.9L439.6 279.9Q431.4 279.9 431.4 271.9ZM455.8 279.1Q454.8 280.2 453.1 280.2Q451.4 280.2 450.5 279.1Q449.5 278.1 449.5 276.3L449.5 276.3L449.5 251.6Q449.5 249.9 450.4 248.9Q451.4 247.9 453.0 247.9L453.0 247.9Q454.5 247.9 455.5 248.9Q456.4 249.9 456.4 251.6L456.4 251.6L456.4 254.0L456.6 254.0Q457.2 251.3 459.0 249.6Q460.9 248.0 463.2 248.0L463.2 248.0Q464.9 248.0 465.8 248.8L465.8 248.8Q466.8 249.6 466.8 251.4L466.8 251.4Q466.8 253.1 465.7 254.0L465.7 254.0Q464.7 254.9 462.5 255.0L462.5 255.0Q456.8 255.0 456.8 261.4L456.8 261.4L456.8 276.3Q456.8 278.1 455.8 279.1ZM494.8 275.9Q490.7 280.2 483.8 280.2Q477.0 280.2 472.9 275.9Q468.8 271.6 468.8 264.1L468.8 264.1Q468.8 256.6 472.9 252.2Q477.0 247.9 483.8 247.9L483.8 247.9Q490.7 247.9 494.8 252.2Q498.9 256.6 498.9 264.1L498.9 264.1Q498.9 271.6 494.8 275.9ZM478.3 271.7Q480.3 274.4 483.8 274.4Q487.4 274.4 489.4 271.7Q491.5 269.0 491.5 264.1L491.5 264.1Q491.5 259.2 489.4 256.4Q487.4 253.7 483.8 253.7L483.8 253.7Q480.4 253.7 478.3 256.4Q476.2 259.2 476.2 264.1L476.2 264.1Q476.2 269.0 478.3 271.7Z M534.6 280.3L534.6 280.3Q525.4 280.3 520.2 274.4Q514.9 268.6 514.9 258.4L514.9 258.4Q514.9 248.3 520.2 242.5Q525.5 236.6 534.5 236.6L534.5 236.6Q540.3 236.6 544.8 239.2Q549.2 241.8 551.3 246.4L551.3 246.4Q552.0 247.9 552.0 249.3L552.0 249.3Q552.0 250.8 551.1 251.7Q550.1 252.6 548.6 252.6L548.6 252.6Q546.1 252.6 544.9 249.9L544.9 249.9Q543.5 246.6 540.7 244.8Q538.0 243.0 534.5 243.0L534.5 243.0Q529.1 243.0 525.8 247.2Q522.6 251.4 522.6 258.4L522.6 258.4Q522.6 265.5 525.8 269.7Q529.1 273.9 534.6 273.9L534.6 273.9Q542.2 273.9 545.0 267.3L545.0 267.3Q545.6 266.0 546.4 265.4Q547.2 264.9 548.4 264.9L548.4 264.9Q550.0 264.9 551.0 265.8Q551.9 266.7 551.9 268.2L551.9 268.2Q551.9 269.6 551.2 271.1L551.2 271.1Q549.2 275.4 544.8 277.8Q540.5 280.3 534.6 280.3ZM564.4 243.0Q563.2 244.2 561.5 244.2Q559.8 244.2 558.7 243.0Q557.5 241.8 557.5 240.2L557.5 240.2Q557.5 238.5 558.7 237.4Q559.8 236.2 561.5 236.2L561.5 236.2Q563.3 236.2 564.4 237.4Q565.6 238.5 565.6 240.2L565.6 240.2Q565.6 241.8 564.4 243.0ZM564.2 279.1Q563.2 280.2 561.5 280.2Q559.9 280.2 558.9 279.1Q557.9 278.1 557.9 276.3L557.9 276.3L557.9 251.7Q557.9 250.0 558.9 248.9Q559.9 247.9 561.5 247.9Q563.2 247.9 564.2 248.9Q565.2 250.0 565.2 251.8L565.2 251.8L565.2 276.3Q565.2 278.1 564.2 279.1ZM573.3 271.9L573.3 271.9L573.3 254.1L571.4 254.1Q570.0 254.1 569.2 253.4Q568.5 252.6 568.5 251.3L568.5 251.3Q568.5 250.0 569.2 249.3Q570.0 248.5 571.4 248.5L571.4 248.5L573.3 248.5L573.3 244.4Q573.3 242.6 574.3 241.6Q575.3 240.6 577.0 240.6L577.0 240.6Q578.7 240.6 579.7 241.6Q580.6 242.6 580.6 244.4L580.6 244.4L580.6 248.5L584.0 248.5Q585.4 248.5 586.2 249.3Q586.9 250.0 586.9 251.3L586.9 251.3Q586.9 252.6 586.2 253.4Q585.4 254.1 584.0 254.1L584.0 254.1L580.6 254.1L580.6 270.3Q580.6 272.1 581.3 272.9Q582.0 273.7 583.6 273.9L583.6 273.9L584.1 273.9Q587.0 274.2 587.0 276.6L587.0 276.6Q587.0 278.2 585.7 279.1Q584.3 279.9 581.8 279.9L581.8 279.9L581.5 279.9Q573.3 279.9 573.3 271.9ZM597.8 279.1Q596.8 280.2 595.1 280.2Q593.4 280.2 592.4 279.1Q591.5 278.1 591.5 276.3L591.5 276.3L591.5 251.6Q591.5 249.9 592.4 248.9Q593.4 247.9 594.9 247.9L594.9 247.9Q596.5 247.9 597.4 248.9Q598.4 249.9 598.4 251.6L598.4 251.6L598.4 254.0L598.5 254.0Q599.2 251.3 601.0 249.6Q602.9 248.0 605.2 248.0L605.2 248.0Q606.9 248.0 607.8 248.8L607.8 248.8Q608.8 249.6 608.8 251.4L608.8 251.4Q608.8 253.1 607.7 254.0L607.7 254.0Q606.7 254.9 604.5 255.0L604.5 255.0Q598.8 255.0 598.8 261.4L598.8 261.4L598.8 276.3Q598.8 278.1 597.8 279.1ZM622.9 280.1L622.9 280.1Q617.9 280.1 614.9 277.0Q611.9 274.0 611.9 268.6L611.9 268.6L611.9 251.7Q611.9 250.0 612.9 248.9Q613.9 247.9 615.6 247.9Q617.2 247.9 618.2 248.9Q619.2 250.0 619.2 251.8L619.2 251.8L619.2 267.1Q619.2 270.5 620.8 272.2Q622.4 274.0 625.5 274.0L625.5 274.0Q628.6 274.0 630.5 271.9Q632.3 269.9 632.3 266.5L632.3 266.5L632.3 251.7Q632.3 250.0 633.3 248.9Q634.3 247.9 636.0 247.9L636.0 247.9Q637.6 247.9 638.6 248.9Q639.6 250.0 639.6 251.8L639.6 251.8L639.6 276.5Q639.6 278.2 638.7 279.2Q637.7 280.2 636.1 280.2L636.1 280.2Q634.5 280.2 633.6 279.2Q632.6 278.2 632.6 276.5L632.6 276.5L632.6 274.2L632.4 274.2Q629.9 280.1 622.9 280.1ZM657.5 280.2L657.5 280.2Q652.7 280.2 649.4 278.5Q646.0 276.8 644.9 274.0L644.9 274.0Q644.6 273.2 644.6 272.5L644.6 272.5Q644.6 271.2 645.4 270.4Q646.3 269.6 647.6 269.6L647.6 269.6Q649.5 269.6 650.8 271.4L650.8 271.4Q652.1 273.3 653.7 274.1Q655.3 274.9 657.8 274.9L657.8 274.9Q660.4 274.9 661.9 273.9Q663.5 272.8 663.5 271.1L663.5 271.1Q663.5 269.7 662.5 268.8Q661.5 268.0 659.1 267.4L659.1 267.4L654.1 266.3Q645.0 264.3 645.0 257.4L645.0 257.4Q645.0 253.1 648.5 250.5Q651.9 247.9 657.7 247.9L657.7 247.9Q662.1 247.9 665.3 249.8Q668.5 251.6 669.2 254.4L669.2 254.4Q669.4 255.0 669.4 255.5L669.4 255.5Q669.4 256.6 668.7 257.4Q667.9 258.1 666.6 258.1L666.6 258.1Q664.7 258.1 663.8 256.7L663.8 256.7Q662.6 255.0 661.2 254.1Q659.7 253.2 657.5 253.2L657.5 253.2Q655.1 253.2 653.6 254.3Q652.1 255.3 652.1 257.0L652.1 257.0Q652.1 259.8 656.7 260.8L656.7 260.8L661.6 261.9Q666.5 263.0 668.7 264.9Q670.8 266.9 670.8 270.3L670.8 270.3Q670.8 274.8 667.1 277.5Q663.5 280.2 657.5 280.2ZM683.7 265.1Q682.9 266.0 681.3 266.0Q679.8 266.0 679.0 265.1Q678.1 264.3 678.1 262.6L678.1 262.6L677.7 241.0Q677.7 240.8 677.7 240.7Q677.7 240.5 677.7 240.4L677.7 240.4Q677.7 238.7 678.7 237.7Q679.7 236.7 681.4 236.7Q683.0 236.7 684.0 237.7Q685.0 238.7 685.0 240.4L685.0 240.4Q685.0 240.5 685.0 240.7Q685 240.8 685 241.0L685 241.0L684.6 262.6Q684.6 264.2 683.7 265.1ZM684.4 278.9Q683.1 280.2 681.3 280.2Q679.6 280.2 678.3 278.9Q677.1 277.7 677.1 276.0Q677.1 274.3 678.3 273.1Q679.6 271.9 681.3 271.9Q683.1 271.9 684.4 273.1Q685.6 274.3 685.6 276.0Q685.6 277.7 684.4 278.9Z "/><defs><clipPath id="satori_bc-id-0-1"><rect x="0" y="441" width="1200" height="189"/></clipPath></defs><mask id="satori_om-id-0-1"><rect x="0" y="442" width="1200" height="188" fill="#fff"/><path width="1200" height="189" fill="none" stroke="#000" stroke-width="2" d="M0,441 A0,0 0 0 1 0,441 h1200 A0,0 0 0 1 1200,441"/></mask><path width="1200" height="189" clip-path="url(#satori_bc-id-0-1)" fill="none" stroke="#dbdbdb" stroke-width="2" d="M0,441 A0,0 0 0 1 0,441 h1200 A0,0 0 0 1 1200,441"/><mask id="satori_om-id-0-1-0"><rect x="40" y="482" width="292" height="108" fill="#fff"/></mask><clipPath id="satori_cp-id-0-1-0-0"><rect x="40" y="504" width="64" height="64"/></clipPath><mask id="satori_om-id-0-1-0-0"><rect x="40" y="504" width="64" height="64" fill="#fff"/></mask><image x="40" y="504" width="64" height="64" href="data:image/svg+xml;utf8,%3Csvg  xmlns=%22http://www.w3.org/2000/svg%22 width=%2264%22 height=%2264%22 viewBox=%220 0 128 128%22%3E%3Cpath fill=%22%23224d67%22 d=%22M22.5 14.8c2.9 1.3 99 44 99 44c2.7 1.2 2.9 3.1 2 12.4c-1 10.5-1.9 37.8-40.2 42.9c-24.6 3.2-55.9-4.3-70.9-27.2C-6 58.8 11 23.4 14.8 17.7c2.4-3.5 4.8-4.2 7.7-2.9%22%3E%3C/path%3E%3Cpath fill=%22%23f0f4c3%22 d=%22M121.5 58.8c-.3-.2-92-40.8-98.9-43.9C9.6 31.5-3.8 76 27.9 96.2c33.6 21.5 78.7-10.2 93.6-37.4%22%3E%3C/path%3E%3Cpath fill=%22%23f0f4c3%22 d=%22M117.7 57c-.3-.2-86.7-38.4-93.2-41.3c-12.2 15.5-23.9 59.1 5.7 78c31.4 20.2 73.6-11.2 87.5-36.7%22%3E%3C/path%3E%3Cpath fill=%22%23cb2a42%22 d=%22M56.2 37.6L19.5 48.2c-2.5.8-4.4 2.8-5 5.3c-1.9 8.5.8 23.3 8.9 29.8c3.5 2.7 8.6 1.8 10.8-2.1L58.5 41c1.3-1.7.5-4.2-2.3-3.4m14.3 2.9s14.6 30.1 16 33s6.3 4.7 9.9 2.8c10.7-5.6 15.5-12.4 19.2-20.2c-8.9-3.9-42.4-18.8-42.4-18.8c-2.4-1.1-4 .6-2.7 3.2m-8.6 1.9C60.3 45.1 39.5 81 37.6 84.1c-1.9 3.2-.7 7.5 2.7 9.2c12.3 6.5 30.9.4 39.6-7c2.2-1.9 4.5-5.1 3.2-8.2S68.9 44.6 67.8 42.3c-1.2-2.7-4.1-2.8-5.9.1%22%3E%3C/path%3E%3Cpath fill=%22%23f0f4c3%22 d=%22M52.2 42.2c-1.4.4-10.1 3-11.1 3.4c-1.4.5-2.2 1.7-1.9 2.5c.3.9 1.7 1.1 3.1.6c.8-.3 7.1-3.9 9.5-5.2c-3.1 2.4-10.2 9.4-11.1 10.3c-1.4 1.5-1.7 3.4-.8 4.3c1 .9 2.9.5 4.3-1c1.2-1.3 8.5-12.8 9.1-13.9s.4-1.4-1.1-1m10.1 16.4c0-2.2 1.4-10.3 1.8-12.3c.4-1.6 1.5-1.8 1.8.5s1.7 9.7 1.7 11.8s-1.2 3.3-2.7 3.3c-1.4 0-2.6-1.1-2.6-3.3M79.9 49c-1.2-1.8-3.3-4.9-4.1-6.1c-.7-1.2.1-2.1 1.8-.9s4 2.9 5.4 4c1.6 1.3 1.9 3 .8 4s-2.7.8-3.9-1%22%3E%3C/path%3E%3Cellipse cx=%2287.3%22 cy=%22103.12%22 fill=%22%23cb2a42%22 rx=%223.4%22 ry=%222.3%22 transform=%22rotate(-27.098 87.298 103.126)%22%3E%3C/ellipse%3E%3Cellipse cx=%2298.89%22 cy=%22103.82%22 fill=%22%23cb2a42%22 rx=%223.4%22 ry=%222.3%22 transform=%22rotate(-30.642 98.887 103.818)%22%3E%3C/ellipse%3E%3Cellipse cx=%22102.02%22 cy=%2293.8%22 fill=%22%23cb2a42%22 rx=%223.4%22 ry=%222.3%22 transform=%22rotate(-37.16 102.017 93.797)%22%3E%3C/ellipse%3E%3Cpath fill=%22%23cb2a42%22 d=%22M57.6 30.3c-8.3-3.7-24.4-10.7-29.6-13c-3.6 2.2-9.7 11.4-11.2 21.2c-.6 3.6 1.7 5.9 5.3 4.9c0 0 33.7-9.3 35.3-9.7c1.6-.5 2-2.6.2-3.4%22%3E%3C/path%3E%3C/svg%3E" preserveAspectRatio="none" clip-path="url(#satori_cp-id-0-1-0-0)" mask="url(#satori_om-id-0-1-0-0)"/><mask id="satori_om-id-0-1-0-0-0"><rect x="40" y="504" width="0" height="64" fill="#fff"/></mask><mask id="satori_om-id-0-1-0-0-1"><rect x="40" y="504" width="0" height="64" fill="#fff"/></mask><mask id="satori_om-id-0-1-0-0-2"><rect x="40" y="504" width="0" height="64" fill="#fff"/></mask><mask id="satori_om-id-0-1-0-0-3"><rect x="40" y="504" width="0" height="64" fill="#fff"/></mask><mask id="satori_om-id-0-1-0-0-4"><rect x="40" y="504" width="0" height="64" fill="#fff"/></mask><mask id="satori_om-id-0-1-0-0-5"><rect x="40" y="504" width="0" height="64" fill="#fff"/></mask><mask id="satori_om-id-0-1-0-0-6"><rect x="40" y="504" width="0" height="64" fill="#fff"/></mask><mask id="satori_om-id-0-1-0-0-7"><rect x="40" y="504" width="0" height="64" fill="#fff"/></mask><mask id="satori_om-id-0-1-0-0-8"><rect x="40" y="504" width="0" height="64" fill="#fff"/></mask><mask id="satori_om-id-0-1-0-1"><rect x="116" y="512" width="216" height="48" fill="#fff"/></mask><path fill="#545454" d="M121.1 553.5L121.1 553.5Q119.4 553.5 118.4 552.6Q117.5 551.7 117.5 550.2L117.5 550.2Q117.5 549.3 117.9 547.9L117.9 547.9L127.2 522.8Q127.9 520.7 129.2 519.7Q130.5 518.8 132.5 518.8L132.5 518.8Q134.6 518.8 135.9 519.7Q137.2 520.7 137.9 522.8L137.9 522.8L147.2 547.9Q147.6 549.2 147.6 550.2L147.6 550.2Q147.6 551.6 146.6 552.6Q145.6 553.5 144.1 553.5L144.1 553.5Q142.6 553.5 141.7 552.8Q140.9 552.1 140.4 550.4L140.4 550.4L138.6 545.0L126.4 545.0L124.6 550.3Q124.2 552.0 123.3 552.8Q122.5 553.5 121.1 553.5ZM132.4 525.7L128.0 539.6L137 539.6L132.5 525.7L132.4 525.7ZM159.1 552.6Q158.2 553.6 156.6 553.6Q155.0 553.6 154.1 552.6Q153.2 551.7 153.2 550.0L153.2 550.0L153.2 533.1L151.9 533.1Q150.8 533.1 150.1 532.4Q149.4 531.7 149.4 530.6Q149.4 529.4 150.1 528.7Q150.8 528.1 151.9 528.1L151.9 528.1L153.2 528.1L153.2 526.2Q153.2 522.5 155.0 520.7Q156.7 519.0 160.3 518.9L160.3 518.9Q163.0 518.9 164.2 519.7Q165.5 520.4 165.5 521.7L165.5 521.7Q165.5 523.1 164.1 523.5L164.1 523.5Q163.5 523.7 162.8 523.7L162.8 523.7Q161.2 523.7 160.5 524.4Q159.9 525.1 159.9 526.5L159.9 526.5L159.9 528.1L162.7 528.1Q163.8 528.1 164.5 528.7Q165.2 529.4 165.2 530.6Q165.2 531.7 164.5 532.4Q163.8 533.1 162.7 533.1L162.7 533.1L160.0 533.1L160.0 550.0Q160.0 551.7 159.1 552.6ZM170.3 546.6L170.3 546.6L170.3 533.1L168.9 533.1Q167.7 533.1 167.0 532.4Q166.3 531.7 166.3 530.5Q166.3 529.3 167.0 528.6Q167.7 527.9 168.9 527.9L168.9 527.9L170.3 527.9L170.3 525.1Q170.3 523.5 171.2 522.5Q172.1 521.6 173.7 521.6Q175.3 521.6 176.2 522.5Q177.1 523.5 177.1 525.1L177.1 525.1L177.1 527.9L179.5 527.9Q180.7 527.9 181.4 528.6Q182.1 529.3 182.1 530.5Q182.1 531.7 181.4 532.4Q180.7 533.1 179.5 533.1L179.5 533.1L177.1 533.1L177.1 545.1Q177.1 546.5 177.6 547.1Q178.1 547.7 179.2 547.8L179.2 547.8L179.6 547.8Q180.9 548.0 181.6 548.5Q182.2 549.1 182.2 550.3L182.2 550.3Q182.2 551.8 180.9 552.6Q179.6 553.3 177.4 553.3L177.4 553.3L177.1 553.3Q170.3 553.3 170.3 546.6ZM197.0 553.6L197.0 553.6Q191.2 553.6 187.9 550.2Q184.6 546.7 184.6 540.6L184.6 540.6Q184.6 534.5 187.9 531.0Q191.1 527.4 196.7 527.4L196.7 527.4Q202.0 527.4 205.3 530.7Q208.6 533.9 208.6 539.1L208.6 539.1Q208.6 540.5 207.9 541.3Q207.1 542.1 205.6 542.1L205.6 542.1L191.3 542.1L191.3 542.4Q191.3 545.2 192.9 546.9Q194.4 548.5 197.0 548.5L197.0 548.5Q198.9 548.5 200.3 547.8Q201.6 547.2 203.0 545.5L203.0 545.5Q204.0 544.5 205.3 544.5L205.3 544.5Q206.4 544.5 207.2 545.2Q207.9 545.9 207.9 547.0L207.9 547.0Q207.9 547.8 207.5 548.7L207.5 548.7Q206.2 551 203.4 552.3Q200.7 553.6 197.0 553.6ZM191.4 537.9L191.4 537.9L202.0 537.9Q201.9 535.4 200.5 533.9Q199.0 532.5 196.8 532.5Q194.5 532.5 193.1 534.0Q191.6 535.5 191.4 537.9ZM215.6 553.6L215.6 553.6Q214.0 553.6 213.1 552.6Q212.1 551.7 212.1 550.0L212.1 550.0L212.1 530.9Q212.1 529.3 213.0 528.3Q213.9 527.4 215.4 527.4L215.4 527.4Q216.9 527.4 217.8 528.3Q218.7 529.3 218.7 530.9L218.7 530.9L218.7 532.5L218.8 532.5Q219.3 530.2 220.7 528.9Q222.1 527.5 224.0 527.5L224.0 527.5Q225.4 527.5 226.2 528.2L226.2 528.2Q227.2 528.9 227.2 530.7L227.2 530.7Q227.2 532.3 226.2 533.2L226.2 533.2Q225.2 534.0 223.2 534.1L223.2 534.1Q221.0 534.1 220.0 535.3Q219.0 536.5 219.0 538.8L219.0 538.8L219.0 550.0Q219.0 551.7 218.1 552.6Q217.2 553.6 215.6 553.6ZM242.6 553.6L242.6 553.6Q237.5 553.6 234.1 551.8Q230.8 550.0 229.7 547.1L229.7 547.1Q229.4 546.1 229.4 545.2L229.4 545.2Q229.4 543.8 230.2 543.0Q231.1 542.1 232.5 542.1L232.5 542.1Q233.6 542.1 234.3 542.6Q235.1 543.1 235.7 544.2L235.7 544.2Q236.5 546.1 238.4 547.0Q240.2 547.9 242.7 547.9L242.7 547.9Q245.6 547.9 247.3 546.7Q249.1 545.5 249.1 543.6L249.1 543.6Q249.1 541.9 247.8 540.9Q246.4 539.9 243.3 539.3L243.3 539.3L239.7 538.6Q229.6 536.6 229.6 528.9L229.6 528.9Q229.6 525.9 231.3 523.5Q232.9 521.2 235.9 519.9Q238.8 518.7 242.5 518.7L242.5 518.7Q247.2 518.7 250.5 520.5Q253.8 522.4 254.9 525.7L254.9 525.7Q255.1 526.4 255.1 527.2L255.1 527.2Q255.1 528.5 254.3 529.3Q253.5 530.1 252.1 530.1L252.1 530.1Q250.9 530.1 250.1 529.6Q249.4 529.1 248.8 528.0L248.8 528.0Q247.2 524.4 242.5 524.4L242.5 524.4Q239.9 524.4 238.3 525.5Q236.7 526.6 236.7 528.5L236.7 528.5Q236.7 530.1 238.1 531.1Q239.4 532.1 242.4 532.7L242.4 532.7L245.9 533.4Q251.3 534.5 253.7 536.7Q256.2 539.0 256.2 542.8L256.2 542.8Q256.2 547.8 252.5 550.7Q248.9 553.6 242.6 553.6ZM266.0 552.6Q265.0 553.6 263.5 553.6Q261.9 553.6 261.0 552.6Q260.1 551.7 260.1 550.0L260.1 550.0L260.1 522.2Q260.1 520.6 261.0 519.7Q261.9 518.7 263.4 518.7L263.4 518.7Q265.0 518.7 265.9 519.7Q266.8 520.6 266.8 522.2L266.8 522.2L266.8 532.4L266.9 532.4Q267.9 530.0 270.0 528.7Q272 527.5 274.8 527.5L274.8 527.5Q279.0 527.5 281.3 530.0Q283.6 532.5 283.6 536.9L283.6 536.9L283.6 550.0Q283.6 551.7 282.7 552.6Q281.7 553.6 280.2 553.6Q278.6 553.6 277.7 552.6Q276.8 551.7 276.8 550.0L276.8 550.0L276.8 538.3Q276.8 535.9 275.6 534.5Q274.3 533.1 272.0 533.1L272.0 533.1Q269.7 533.1 268.3 534.7Q266.9 536.2 266.9 538.7L266.9 538.7L266.9 550.0Q266.9 551.7 266.0 552.6ZM294.1 523.8Q293.0 524.8 291.5 524.8Q290.0 524.8 288.9 523.8Q287.8 522.8 287.8 521.3L287.8 521.3Q287.8 519.8 288.9 518.8Q290.0 517.7 291.5 517.7Q293.0 517.7 294.1 518.8Q295.2 519.8 295.2 521.3L295.2 521.3Q295.2 522.8 294.1 523.8ZM294.0 552.6Q293.1 553.6 291.5 553.6Q289.9 553.6 289.0 552.6Q288.1 551.7 288.1 550.0L288.1 550.0L288.1 531.0Q288.1 529.3 289.0 528.4Q289.9 527.4 291.5 527.4Q293.1 527.4 294.0 528.4Q294.9 529.3 294.9 531.0L294.9 531.0L294.9 550.0Q294.9 551.7 294.0 552.6ZM307.2 552.6Q306.3 553.6 304.7 553.6Q303.1 553.6 302.2 552.6Q301.3 551.7 301.3 550.0L301.3 550.0L301.3 533.1L300.0 533.1Q298.9 533.1 298.2 532.4Q297.5 531.7 297.5 530.6Q297.5 529.4 298.2 528.7Q298.9 528.1 300.0 528.1L300.0 528.1L301.3 528.1L301.3 526.2Q301.3 522.5 303.1 520.7Q304.9 519.0 308.5 518.9L308.5 518.9Q311.1 518.9 312.4 519.7Q313.6 520.4 313.6 521.7L313.6 521.7Q313.6 523.1 312.2 523.5L312.2 523.5Q311.6 523.7 310.9 523.7L310.9 523.7Q309.4 523.7 308.7 524.4Q308.0 525.1 308.0 526.5L308.0 526.5L308.0 528.1L310.9 528.1Q312.0 528.1 312.7 528.7Q313.4 529.4 313.4 530.6Q313.4 531.7 312.7 532.4Q312.0 533.1 310.9 533.1L310.9 533.1L308.1 533.1L308.1 550.0Q308.1 551.7 307.2 552.6ZM318.4 546.6L318.4 546.6L318.4 533.1L317.1 533.1Q315.9 533.1 315.1 532.4Q314.4 531.7 314.4 530.5Q314.4 529.3 315.1 528.6Q315.9 527.9 317.1 527.9L317.1 527.9L318.4 527.9L318.4 525.1Q318.4 523.5 319.3 522.5Q320.2 521.6 321.8 521.6Q323.4 521.6 324.3 522.5Q325.2 523.5 325.2 525.1L325.2 525.1L325.2 527.9L327.6 527.9Q328.9 527.9 329.6 528.6Q330.3 529.3 330.3 530.5Q330.3 531.7 329.6 532.4Q328.9 533.1 327.6 533.1L327.6 533.1L325.2 533.1L325.2 545.1Q325.2 546.5 325.7 547.1Q326.2 547.7 327.3 547.8L327.3 547.8L327.8 547.8Q329.1 548.0 329.7 548.5Q330.4 549.1 330.4 550.3L330.4 550.3Q330.4 551.8 329.0 552.6Q327.7 553.3 325.5 553.3L325.5 553.3L325.3 553.3Q318.4 553.3 318.4 546.6Z "/><mask id="satori_om-id-0-1-1"><rect x="924" y="524" width="236" height="36" fill="#fff"/></mask><path fill="#8e8e8e" d="M927.9 552.6Q927.5 552.9 927.0 552.9Q926.4 552.9 926.1 552.6Q925.8 552.2 925.8 551.7L925.8 551.7L925.8 532.6Q925.8 532.0 926.1 531.6Q926.5 531.3 927.1 531.3Q927.6 531.3 928.0 531.6Q928.3 532.0 928.3 532.6L928.3 532.6L928.3 540.0L928.4 540.0Q929.1 538.7 930.4 537.9Q931.7 537.2 933.3 537.2L933.3 537.2Q936.2 537.2 937.9 539.3Q939.7 541.5 939.7 545.0L939.7 545.0Q939.7 548.6 937.9 550.8Q936.2 552.9 933.2 552.9L933.2 552.9Q931.6 552.9 930.3 552.2Q929.0 551.4 928.3 550.1L928.3 550.1L928.2 550.1L928.2 551.7Q928.2 552.2 927.9 552.6ZM932.7 550.7L932.7 550.7Q934.8 550.7 935.9 549.2Q937.1 547.7 937.1 545.0L937.1 545.0Q937.1 542.5 935.9 540.9Q934.8 539.4 932.7 539.4L932.7 539.4Q930.8 539.4 929.6 541.0Q928.3 542.5 928.3 545.0L928.3 545.0Q928.3 547.6 929.6 549.1Q930.8 550.7 932.7 550.7ZM943.8 558.4L943.8 558.4Q942.9 558.4 942.4 558.0Q941.9 557.7 941.9 557.1L941.9 557.1Q941.9 556.7 942.1 556.4Q942.4 556.2 942.9 556.2L942.9 556.2Q943.1 556.2 943.3 556.2Q943.5 556.2 943.7 556.2L943.7 556.2Q945.4 556.2 946.2 553.7L946.2 553.7L946.6 552.7L941.3 539.0Q941.2 538.6 941.2 538.3L941.2 538.3Q941.2 537.8 941.6 537.5Q941.9 537.2 942.5 537.2L942.5 537.2Q943.4 537.2 943.7 538.1L943.7 538.1L947.9 550.1L948.0 550.1L952.2 538.1Q952.3 537.6 952.6 537.4Q952.9 537.2 953.4 537.2L953.4 537.2Q953.9 537.2 954.3 537.5Q954.6 537.8 954.6 538.3L954.6 538.3Q954.6 538.6 954.5 539.0L954.5 539.0L948.9 553.7Q947.9 556.4 946.8 557.4Q945.7 558.4 943.8 558.4Z M965.7 552.5Q965.3 552.9 964.7 552.9Q964.1 552.9 963.8 552.5Q963.4 552.1 963.4 551.5L963.4 551.5L963.4 532.9Q963.4 532.3 963.8 531.9Q964.1 531.5 964.7 531.5L964.7 531.5L970.9 531.5Q973.9 531.5 975.8 533.4Q977.7 535.3 977.7 538.3L977.7 538.3Q977.7 541.3 975.8 543.2Q973.9 545.1 970.9 545.1L970.9 545.1L966.0 545.1L966.0 551.5Q966.0 552.1 965.7 552.5ZM966.0 533.9L966.0 542.8L970.3 542.8Q972.5 542.8 973.8 541.6Q975.0 540.4 975.0 538.3Q975.0 536.2 973.8 535.0Q972.5 533.9 970.3 533.9L970.3 533.9L966.0 533.9ZM984.8 552.9L984.8 552.9Q982.5 552.9 981.1 551.7Q979.7 550.4 979.7 548.4L979.7 548.4Q979.7 546.4 981.2 545.2Q982.6 544.1 985.2 543.9L985.2 543.9L989.6 543.7L989.6 542.4Q989.6 541.0 988.7 540.2Q987.9 539.4 986.3 539.4L986.3 539.4Q985.0 539.4 984.1 539.9Q983.3 540.4 982.6 541.5L982.6 541.5Q982.3 542.1 981.6 542.1L981.6 542.1Q981.1 542.1 980.8 541.8Q980.5 541.5 980.5 541.0Q980.5 540.5 980.8 539.9L980.8 539.9Q981.4 538.7 982.9 537.9Q984.5 537.2 986.3 537.2L986.3 537.2Q989.0 537.2 990.6 538.5Q992.2 539.9 992.2 542.1L992.2 542.1L992.2 551.6Q992.2 552.2 991.8 552.6Q991.5 552.9 991.0 552.9L991.0 552.9Q990.4 552.9 990.1 552.6Q989.7 552.2 989.7 551.6L989.7 551.6L989.7 550.0L989.7 550.0Q989.0 551.3 987.7 552.1Q986.3 552.9 984.8 552.9ZM985.3 550.8L985.3 550.8Q987.1 550.8 988.4 549.6Q989.6 548.5 989.6 546.9L989.6 546.9L989.6 545.6L985.5 545.9Q984.0 546.0 983.1 546.6Q982.3 547.3 982.3 548.4Q982.3 549.4 983.1 550.1Q984.0 550.8 985.3 550.8ZM996.2 549.1L996.2 549.1L996.2 539.5L994.9 539.5Q994.4 539.5 994.1 539.3Q993.8 539.0 993.8 538.5L993.8 538.5Q993.8 538.0 994.1 537.7Q994.4 537.4 994.9 537.4L994.9 537.4L996.2 537.4L996.2 534.8Q996.2 534.2 996.6 533.8Q996.9 533.5 997.5 533.5Q998.0 533.5 998.4 533.8Q998.8 534.2 998.8 534.8L998.8 534.8L998.8 537.4L1000.7 537.4Q1001.3 537.4 1001.6 537.7Q1001.9 538.0 1001.9 538.5L1001.9 538.5Q1001.9 539.0 1001.6 539.3Q1001.3 539.5 1000.7 539.5L1000.7 539.5L998.8 539.5L998.8 548.6Q998.8 549.6 999.2 550.0Q999.6 550.5 1000.5 550.6L1000.5 550.6L1000.7 550.6Q1001.9 550.7 1001.9 551.6L1001.9 551.6Q1001.9 552.2 1001.5 552.5Q1001.1 552.8 1000.1 552.8L1000.1 552.8L999.9 552.8Q996.2 552.8 996.2 549.1ZM1006.6 552.5Q1006.3 552.9 1005.7 552.9Q1005.2 552.9 1004.8 552.5Q1004.4 552.2 1004.4 551.6L1004.4 551.6L1004.4 538.5Q1004.4 537.9 1004.8 537.5Q1005.1 537.2 1005.6 537.2Q1006.2 537.2 1006.5 537.5Q1006.8 537.9 1006.8 538.5L1006.8 538.5L1006.8 539.9L1006.9 539.9Q1007.2 538.7 1008.2 537.9Q1009.2 537.2 1010.4 537.2L1010.4 537.2Q1011.2 537.2 1011.6 537.5L1011.6 537.5Q1011.9 537.8 1011.9 538.4L1011.9 538.4Q1011.9 539.0 1011.5 539.3L1011.5 539.3Q1011.1 539.6 1010.3 539.6L1010.3 539.6Q1008.6 539.6 1007.8 540.6Q1007.0 541.6 1007.0 543.2L1007.0 543.2L1007.0 551.6Q1007.0 552.2 1006.6 552.5ZM1015.1 534.9L1015.1 534.9Q1014.4 534.9 1014.0 534.4Q1013.5 533.9 1013.5 533.3L1013.5 533.3Q1013.5 532.6 1014.0 532.2Q1014.4 531.7 1015.1 531.7L1015.1 531.7Q1015.7 531.7 1016.2 532.2Q1016.7 532.6 1016.7 533.3L1016.7 533.3Q1016.7 533.9 1016.2 534.4Q1015.7 534.9 1015.1 534.9ZM1016.0 552.5Q1015.6 552.9 1015.1 552.9Q1014.5 552.9 1014.2 552.5Q1013.8 552.2 1013.8 551.6L1013.8 551.6L1013.8 538.5Q1013.8 537.9 1014.2 537.5Q1014.5 537.2 1015.1 537.2Q1015.6 537.2 1016.0 537.5Q1016.4 537.9 1016.4 538.5L1016.4 538.5L1016.4 551.6Q1016.4 552.2 1016.0 552.5ZM1026.1 552.9L1026.1 552.9Q1022.9 552.9 1021.0 550.8Q1019.1 548.7 1019.1 545.1Q1019.1 541.5 1021.0 539.3Q1022.9 537.2 1026.1 537.2L1026.1 537.2Q1028.2 537.2 1029.9 538.2Q1031.6 539.3 1032.0 540.9L1032.0 540.9Q1032.1 541.2 1032.1 541.4L1032.1 541.4Q1032.1 542.0 1031.8 542.3Q1031.5 542.6 1031.0 542.6L1031.0 542.6Q1030.6 542.6 1030.3 542.4Q1030.1 542.2 1029.8 541.7L1029.8 541.7Q1028.6 539.4 1026.1 539.4L1026.1 539.4Q1024.1 539.4 1022.9 541.0Q1021.6 542.5 1021.6 545.0L1021.6 545.0Q1021.6 547.6 1022.9 549.2Q1024.1 550.7 1026.1 550.7L1026.1 550.7Q1027.4 550.7 1028.3 550.1Q1029.2 549.6 1029.8 548.4L1029.8 548.4Q1030.1 547.9 1030.3 547.7Q1030.6 547.5 1031.0 547.5L1031.0 547.5Q1031.5 547.5 1031.8 547.8Q1032.1 548.2 1032.1 548.7L1032.1 548.7Q1032.1 548.9 1032.0 549.3L1032.0 549.3Q1031.4 550.9 1029.8 551.9Q1028.2 552.9 1026.1 552.9ZM1041.2 552.9L1041.2 552.9Q1037.8 552.9 1036.0 550.9Q1034.1 548.8 1034.1 545.1L1034.1 545.1Q1034.1 541.5 1036.0 539.3Q1037.8 537.2 1041.0 537.2L1041.0 537.2Q1043.9 537.2 1045.8 539.1Q1047.6 541.1 1047.6 544.3L1047.6 544.3Q1047.6 544.9 1047.3 545.3Q1046.9 545.7 1046.2 545.7L1046.2 545.7L1036.7 545.7Q1036.7 548.0 1037.9 549.4Q1039.1 550.7 1041.1 550.7L1041.1 550.7Q1042.5 550.7 1043.4 550.2Q1044.3 549.6 1045.2 548.3L1045.2 548.3Q1045.6 547.8 1046.2 547.8L1046.2 547.8Q1046.7 547.8 1047.0 548.1Q1047.3 548.4 1047.3 548.9L1047.3 548.9Q1047.3 549.2 1047.1 549.7L1047.1 549.7Q1046.4 551.2 1044.8 552.1Q1043.3 552.9 1041.2 552.9ZM1036.7 543.7L1036.7 543.7L1045.0 543.7Q1045.0 541.8 1043.8 540.6Q1042.7 539.4 1041.0 539.4L1041.0 539.4Q1039.2 539.4 1038.0 540.6Q1036.8 541.8 1036.7 543.7Z M1059.0 552.5Q1058.7 552.9 1058.1 552.9Q1057.5 552.9 1057.1 552.5Q1056.7 552.1 1056.7 551.5L1056.7 551.5L1056.7 532.7Q1056.7 532.1 1057.1 531.7Q1057.5 531.3 1058.1 531.3Q1058.7 531.3 1059.0 531.7Q1059.4 532.1 1059.4 532.7L1059.4 532.7L1059.4 541.8L1059.5 541.8L1068.9 531.8Q1069.4 531.3 1070.0 531.3L1070.0 531.3Q1070.5 531.3 1070.9 531.7Q1071.2 532.0 1071.2 532.5L1071.2 532.5Q1071.2 533.0 1070.9 533.3L1070.9 533.3L1063.6 540.9L1071.7 550.6Q1072.1 551.1 1072.1 551.6L1072.1 551.6Q1072.1 552.2 1071.7 552.5Q1071.3 552.9 1070.8 552.9L1070.8 552.9Q1070.1 552.9 1069.6 552.2L1069.6 552.2L1061.7 542.8L1059.4 545.3L1059.4 551.5Q1059.4 552.1 1059.0 552.5ZM1081.2 552.9L1081.2 552.9Q1077.8 552.9 1075.9 550.9Q1074.1 548.8 1074.1 545.1L1074.1 545.1Q1074.1 541.5 1075.9 539.3Q1077.8 537.2 1081.0 537.2L1081.0 537.2Q1083.9 537.2 1085.8 539.1Q1087.6 541.1 1087.6 544.3L1087.6 544.3Q1087.6 544.9 1087.2 545.3Q1086.9 545.7 1086.2 545.7L1086.2 545.7L1076.7 545.7Q1076.7 548.0 1077.9 549.4Q1079.1 550.7 1081.1 550.7L1081.1 550.7Q1082.5 550.7 1083.4 550.2Q1084.3 549.6 1085.2 548.3L1085.2 548.3Q1085.6 547.8 1086.2 547.8L1086.2 547.8Q1086.7 547.8 1087.0 548.1Q1087.3 548.4 1087.3 548.9L1087.3 548.9Q1087.3 549.2 1087.1 549.7L1087.1 549.7Q1086.4 551.2 1084.8 552.1Q1083.3 552.9 1081.2 552.9ZM1076.7 543.7L1076.7 543.7L1085.0 543.7Q1084.9 541.8 1083.8 540.6Q1082.7 539.4 1080.9 539.4L1080.9 539.4Q1079.1 539.4 1078.0 540.6Q1076.8 541.8 1076.7 543.7ZM1092.4 552.5Q1092.0 552.9 1091.4 552.9Q1090.9 552.9 1090.5 552.5Q1090.2 552.2 1090.2 551.6L1090.2 551.6L1090.2 538.5Q1090.2 537.9 1090.5 537.5Q1090.8 537.2 1091.4 537.2Q1091.9 537.2 1092.2 537.5Q1092.6 537.9 1092.6 538.5L1092.6 538.5L1092.6 539.9L1092.6 539.9Q1093.3 538.6 1094.5 537.9Q1095.8 537.2 1097.5 537.2L1097.5 537.2Q1100.0 537.2 1101.3 538.7Q1102.7 540.2 1102.7 542.8L1102.7 542.8L1102.7 551.6Q1102.7 552.2 1102.4 552.5Q1102.0 552.9 1101.5 552.9Q1100.9 552.9 1100.6 552.5Q1100.2 552.2 1100.2 551.6L1100.2 551.6L1100.2 543.2Q1100.2 541.4 1099.3 540.4Q1098.4 539.4 1096.7 539.4L1096.7 539.4Q1094.9 539.4 1093.8 540.6Q1092.7 541.8 1092.7 543.7L1092.7 543.7L1092.7 551.6Q1092.7 552.2 1092.4 552.5ZM1108.2 552.5Q1107.8 552.9 1107.3 552.9Q1106.7 552.9 1106.3 552.5Q1106.0 552.2 1106.0 551.6L1106.0 551.6L1106.0 538.5Q1106.0 537.9 1106.3 537.5Q1106.7 537.2 1107.2 537.2Q1107.7 537.2 1108.0 537.5Q1108.4 537.9 1108.4 538.5L1108.4 538.5L1108.4 539.9L1108.4 539.9Q1109.0 538.6 1110.1 537.9Q1111.3 537.2 1112.8 537.2L1112.8 537.2Q1114.3 537.2 1115.4 537.9Q1116.5 538.7 1117.0 540.1L1117.0 540.1L1117.1 540.1Q1117.7 538.7 1119.0 537.9Q1120.3 537.2 1121.9 537.2L1121.9 537.2Q1124.1 537.2 1125.5 538.5Q1126.8 539.9 1126.8 542.1L1126.8 542.1L1126.8 551.6Q1126.8 552.2 1126.5 552.5Q1126.1 552.9 1125.6 552.9Q1125.0 552.9 1124.6 552.5Q1124.3 552.2 1124.3 551.6L1124.3 551.6L1124.3 542.7Q1124.3 541.2 1123.5 540.3Q1122.6 539.4 1121.1 539.4Q1119.6 539.4 1118.6 540.4Q1117.7 541.4 1117.7 543.0L1117.7 543.0L1117.7 551.6Q1117.7 552.2 1117.3 552.5Q1117.0 552.9 1116.4 552.9Q1115.8 552.9 1115.5 552.5Q1115.1 552.2 1115.1 551.6L1115.1 551.6L1115.1 542.5Q1115.1 541.1 1114.3 540.2Q1113.4 539.4 1112.0 539.4L1112.0 539.4Q1110.5 539.4 1109.5 540.5Q1108.5 541.5 1108.5 543.1L1108.5 543.1L1108.5 551.6Q1108.5 552.2 1108.2 552.5ZM1136.4 552.9L1136.4 552.9Q1133.2 552.9 1131.3 550.8Q1129.3 548.7 1129.3 545.0Q1129.3 541.4 1131.3 539.3Q1133.2 537.2 1136.4 537.2L1136.4 537.2Q1139.6 537.2 1141.5 539.3Q1143.4 541.4 1143.4 545.0L1143.4 545.0Q1143.4 548.7 1141.5 550.8Q1139.6 552.9 1136.4 552.9ZM1133.1 549.2Q1134.3 550.7 1136.4 550.7Q1138.4 550.7 1139.6 549.2Q1140.8 547.7 1140.8 545.0Q1140.8 542.4 1139.6 540.9Q1138.4 539.4 1136.4 539.4Q1134.3 539.4 1133.1 540.9Q1131.9 542.4 1131.9 545.0Q1131.9 547.7 1133.1 549.2ZM1152.5 535.6L1152.5 535.6Q1152.1 535.6 1151.9 535.4Q1151.6 535.2 1151.6 534.8Q1151.6 534.5 1151.8 534.2L1151.8 534.2L1154.0 531.1Q1154.3 530.6 1154.6 530.5Q1154.8 530.3 1155.1 530.3L1155.1 530.3Q1155.6 530.3 1155.9 530.6Q1156.2 530.9 1156.2 531.3L1156.2 531.3Q1156.2 531.7 1155.9 532.1L1155.9 532.1L1153.4 535.1Q1153.0 535.6 1152.5 535.6ZM1152.4 552.9L1152.4 552.9Q1149.0 552.9 1147.1 550.9Q1145.3 548.8 1145.3 545.1L1145.3 545.1Q1145.3 541.5 1147.1 539.3Q1149.0 537.2 1152.2 537.2L1152.2 537.2Q1155.1 537.2 1156.9 539.1Q1158.8 541.1 1158.8 544.3L1158.8 544.3Q1158.8 544.9 1158.4 545.3Q1158.1 545.7 1157.4 545.7L1157.4 545.7L1147.9 545.7Q1147.9 548.0 1149.1 549.4Q1150.2 550.7 1152.3 550.7L1152.3 550.7Q1153.6 550.7 1154.6 550.2Q1155.5 549.6 1156.4 548.3L1156.4 548.3Q1156.8 547.8 1157.3 547.8L1157.3 547.8Q1157.9 547.8 1158.2 548.1Q1158.5 548.4 1158.5 548.9L1158.5 548.9Q1158.5 549.2 1158.3 549.7L1158.3 549.7Q1157.6 551.2 1156.0 552.1Q1154.5 552.9 1152.4 552.9ZM1147.9 543.7L1147.9 543.7L1156.2 543.7Q1156.1 541.8 1155.0 540.6Q1153.9 539.4 1152.1 539.4L1152.1 539.4Q1150.3 539.4 1149.2 540.6Q1148.0 541.8 1147.9 543.7Z "/></svg>