<svg width="1200" height="630" viewBox="0 0 1200 630" xmlns="http://www.w3.org/2000/svg"><mask id="satori_om-id"><rect x="0" y="0" width="1200" height="630" fill="#fff"/></mask><mask id="satori_om-id-0"><rect x="0" y="0" width="1200" height="630" fill="#fff"/></mask><rect x="0" y="0" width="1200" height="630" fill="#f2f2f2"/><mask id="satori_om-id-0-0"><rect x="0" y="0" width="1200" height="441" fill="#fff"/></mask><mask id="satori_om-id-0-0-0"><rect x="40" y="136" width="1120" height="36" fill="#fff"/></mask><path fill="#8e8e8e" d="M44.5 164.5Q44.1 164.9 43.4 164.9Q42.7 164.9 42.3 164.5Q41.9 164.1 41.9 163.3L41.9 163.3L41.9 145.4Q41.9 144.4 42.5 143.9Q43.1 143.3 44.1 143.3L44.1 143.3Q44.9 143.3 45.4 143.7Q46.0 144.1 46.3 145.0L46.3 145.0L52.6 160.2L52.7 160.2L58.9 145.0Q59.3 144.1 59.9 143.7Q60.4 143.3 61.3 143.3L61.3 143.3Q62.2 143.3 62.8 143.8Q63.3 144.4 63.3 145.4L63.3 145.4L63.3 163.3Q63.3 164.1 62.9 164.5Q62.5 164.9 61.8 164.9L61.8 164.9Q61.1 164.9 60.7 164.5Q60.3 164.1 60.3 163.3L60.3 163.3L60.3 149.1L60.2 149.1L54.3 163.3Q53.8 164.5 52.6 164.5L52.6 164.5Q51.4 164.5 50.9 163.3L50.9 163.3L45.0 149.1L44.9 149.1L44.9 163.3Q44.9 164.1 44.5 164.5ZM78.8 162.8Q76.8 165.0 73.5 165.0Q70.1 165.0 68.2 162.8Q66.2 160.7 66.2 157.0L66.2 157.0Q66.2 153.3 68.2 151.1Q70.1 149.0 73.5 149.0Q76.8 149.0 78.8 151.1Q80.8 153.3 80.8 157.0L80.8 157.0Q80.8 160.7 78.8 162.8ZM73.5 162.3L73.5 162.3Q75.4 162.3 76.5 160.9Q77.6 159.5 77.6 157.0L77.6 157.0Q77.6 154.4 76.5 153.0Q75.3 151.6 73.5 151.6Q71.6 151.6 70.5 153.0Q69.4 154.4 69.4 157.0L69.4 157.0Q69.4 159.5 70.5 160.9Q71.6 162.3 73.5 162.3ZM84.8 164.9L84.8 164.9Q84.1 164.9 83.7 164.5Q83.2 164.0 83.2 163.3L83.2 163.3L83.2 150.6Q83.2 149.8 83.6 149.4Q84.0 149.0 84.7 149.0Q85.4 149.0 85.8 149.4Q86.3 149.9 86.3 150.6L86.3 150.6L86.3 151.8L86.3 151.8Q87.7 149.0 91.2 149.0L91.2 149.0Q93.7 149.0 95.1 150.5Q96.5 152.0 96.5 154.7L96.5 154.7L96.5 163.3Q96.5 164.0 96.1 164.5Q95.6 164.9 94.9 164.9L94.9 164.9Q94.2 164.9 93.8 164.5Q93.3 164.0 93.3 163.3L93.3 163.3L93.3 155.3Q93.3 153.5 92.5 152.6Q91.7 151.7 90.1 151.7L90.1 151.7Q88.4 151.7 87.4 152.8Q86.4 153.9 86.4 155.7L86.4 155.7L86.4 163.3Q86.4 164.0 86.0 164.5Q85.5 164.9 84.8 164.9ZM105.3 164.9L105.3 164.9Q102.4 164.9 100.6 162.8Q98.9 160.6 98.9 157.0Q98.9 153.3 100.6 151.2Q102.4 149.0 105.3 149.0L105.3 149.0Q106.9 149.0 108.2 149.8Q109.5 150.5 110.2 151.8L110.2 151.8L110.2 151.8L110.2 144.9Q110.2 144.1 110.6 143.7Q111.1 143.2 111.8 143.2L111.8 143.2Q112.5 143.2 112.9 143.7Q113.4 144.2 113.4 144.9L113.4 144.9L113.4 163.4Q113.4 164.1 113.0 164.5Q112.5 164.9 111.8 164.9L111.8 164.9Q111.1 164.9 110.7 164.5Q110.2 164.1 110.2 163.4L110.2 163.4L110.2 161.9L110.2 161.9Q109.6 163.3 108.3 164.1Q107.1 164.9 105.3 164.9ZM106.2 162.2L106.2 162.2Q108.0 162.2 109.1 160.8Q110.2 159.4 110.2 157.0L110.2 157.0Q110.2 154.6 109.1 153.1Q108.0 151.7 106.2 151.7L106.2 151.7Q104.3 151.7 103.2 153.1Q102.1 154.5 102.1 157.0L102.1 157.0Q102.1 159.4 103.2 160.8Q104.3 162.2 106.2 162.2ZM121.1 164.9L121.1 164.9Q118.9 164.9 117.4 163.6Q116.0 162.3 116.0 160.3L116.0 160.3Q116.0 158.3 117.5 157.1Q119.0 155.9 121.7 155.7L121.7 155.7L126.0 155.5L126.0 154.3Q126.0 153.0 125.1 152.3Q124.3 151.6 122.9 151.6L122.9 151.6Q121.7 151.6 120.9 152.0Q120.1 152.5 119.5 153.5L119.5 153.5Q119.0 154.2 118.2 154.2L118.2 154.2Q117.6 154.2 117.2 153.8Q116.8 153.4 116.8 152.9L116.8 152.9Q116.8 152.3 117.1 151.8L117.1 151.8Q117.7 150.5 119.3 149.8Q120.9 149.0 123.0 149.0L123.0 149.0Q125.8 149.0 127.4 150.4Q129.1 151.7 129.1 154.0L129.1 154.0L129.1 163.3Q129.1 164.1 128.7 164.5Q128.3 164.9 127.6 164.9L127.6 164.9Q126.9 164.9 126.5 164.5Q126.1 164.1 126.1 163.4L126.1 163.4L126.1 162.1L126.0 162.1Q125.3 163.4 124.0 164.2Q122.7 164.9 121.1 164.9ZM122.0 162.4L122.0 162.4Q123.7 162.4 124.8 161.4Q126.0 160.4 126.0 158.9L126.0 158.9L126.0 157.7L122.1 157.9Q120.7 158.0 120.0 158.6Q119.2 159.2 119.2 160.2L119.2 160.2Q119.2 161.2 120.0 161.8Q120.7 162.4 122.0 162.4ZM134.1 170.4L134.1 170.4Q133.0 170.4 132.4 170.0Q131.8 169.6 131.8 168.9L131.8 168.9Q131.8 168.4 132.1 168.1Q132.5 167.8 133.0 167.8L133.0 167.8Q133.2 167.8 133.4 167.8Q133.7 167.8 133.9 167.8L133.9 167.8Q135.4 167.8 136.2 165.7L136.2 165.7L136.5 164.8L131.3 151.3Q131.2 150.9 131.2 150.4L131.2 150.4Q131.2 149.8 131.6 149.4Q132.1 149.0 132.8 149.0L132.8 149.0Q133.4 149.0 133.7 149.3Q134.1 149.5 134.3 150.2L134.3 150.2L138.2 161.8L138.3 161.8L142.2 150.2Q142.4 149.5 142.8 149.3Q143.1 149.0 143.7 149.0L143.7 149.0Q144.4 149.0 144.8 149.4Q145.2 149.8 145.2 150.4L145.2 150.4Q145.2 150.8 145.1 151.3L145.1 151.3L139.7 165.4Q138.7 168.2 137.5 169.3Q136.2 170.4 134.1 170.4ZM149.7 161.1L149.7 161.1Q150.4 161.1 150.8 161.5Q151.2 161.8 151.2 162.4L151.2 162.4Q151.2 162.8 151.1 163.3L151.1 163.3L149.8 168.3Q149.5 169.4 148.5 169.4L148.5 169.4Q147.9 169.4 147.6 169.1Q147.2 168.7 147.2 168.2L147.2 168.2Q147.2 168.1 147.3 167.8L147.3 167.8L148.2 162.4Q148.4 161.1 149.7 161.1Z M168.8 165.1L168.8 165.1Q166.2 165.1 164.5 164.1Q162.7 163.2 161.8 161.6L161.8 161.6Q161.3 160.8 161.3 160.0L161.3 160.0Q161.3 159.3 161.7 158.9Q162.1 158.5 162.8 158.5L162.8 158.5Q163.4 158.5 163.7 158.8Q164.0 159.1 164.3 159.6L164.3 159.6Q165.4 162.3 168.8 162.3L168.8 162.3Q170.7 162.3 171.9 161.3Q173.1 160.4 173.1 158.8L173.1 158.8Q173.1 157.0 171.9 156.0Q170.7 155.0 168.5 155.0L168.5 155.0L167.1 155.0Q166.5 155.0 166.1 154.7Q165.8 154.3 165.8 153.8Q165.8 153.2 166.1 152.8Q166.5 152.5 167.1 152.5L167.1 152.5L168.5 152.5Q170.3 152.5 171.4 151.5Q172.5 150.6 172.5 149.1L172.5 149.1Q172.5 147.6 171.5 146.7Q170.6 145.8 168.7 145.8L168.7 145.8Q167.2 145.8 166.2 146.5Q165.2 147.1 164.7 148.5L164.7 148.5Q164.4 149.1 164.1 149.4Q163.8 149.6 163.2 149.6L163.2 149.6Q162.5 149.6 162.1 149.3Q161.8 148.9 161.8 148.2L161.8 148.2Q161.8 147.4 162.2 146.6L162.2 146.6Q163.0 145.0 164.7 144.1Q166.4 143.1 168.7 143.1L168.7 143.1Q171.9 143.1 173.8 144.7Q175.7 146.2 175.7 148.6L175.7 148.6Q175.7 150.6 174.5 151.9Q173.3 153.2 171.3 153.6L171.3 153.6L171.3 153.7Q173.6 153.9 175.0 155.3Q176.4 156.6 176.4 158.8L176.4 158.8Q176.4 161.6 174.3 163.3Q172.1 165.1 168.8 165.1Z M188.8 164.4Q188.3 164.9 187.6 164.9Q186.8 164.9 186.4 164.4Q185.9 164.0 185.9 163.2L185.9 163.2L185.9 145.2Q185.9 144.4 186.4 144.0Q186.8 143.5 187.6 143.5L187.6 143.5L197.8 143.5Q198.5 143.5 199.0 143.9Q199.4 144.3 199.4 144.9Q199.4 145.6 199.0 146.0Q198.5 146.4 197.8 146.4L197.8 146.4L189.2 146.4L189.2 153.0L197.1 153.0Q197.7 153.0 198.1 153.4Q198.5 153.8 198.5 154.4Q198.5 155.1 198.1 155.4Q197.7 155.8 197.1 155.8L197.1 155.8L189.2 155.8L189.2 163.2Q189.2 164.0 188.8 164.4ZM208.3 165.0L208.3 165.0Q204.8 165.0 202.9 162.9Q200.9 160.8 200.9 157.0L200.9 157.0Q200.9 153.4 202.9 151.2Q204.8 149.0 208.1 149.0L208.1 149.0Q211.2 149.0 213.1 151.0Q215.0 153.0 215.0 156.1L215.0 156.1Q215.0 156.9 214.6 157.3Q214.2 157.8 213.4 157.8L213.4 157.8L204.1 157.8L204.1 157.8Q204.1 159.9 205.2 161.2Q206.3 162.4 208.2 162.4L208.2 162.4Q209.5 162.4 210.4 161.9Q211.3 161.4 212.2 160.2L212.2 160.2Q212.7 159.6 213.3 159.6L213.3 159.6Q213.9 159.6 214.3 160.0Q214.6 160.3 214.6 160.9L214.6 160.9Q214.6 161.3 214.4 161.8L214.4 161.8Q213.7 163.3 212.1 164.1Q210.4 165.0 208.3 165.0ZM204.1 155.5L204.1 155.5L211.8 155.5Q211.8 153.7 210.7 152.6Q209.7 151.5 208.1 151.5L208.1 151.5Q206.4 151.5 205.3 152.6Q204.3 153.7 204.1 155.5ZM219.1 164.9L219.1 164.9Q218.4 164.9 218.0 164.5Q217.6 164.1 217.6 163.4L217.6 163.4L217.6 144.9Q217.6 144.2 218.0 143.7Q218.4 143.2 219.2 143.2Q219.9 143.2 220.3 143.7Q220.7 144.2 220.7 144.9L220.7 144.9L220.7 151.9L220.8 151.9Q221.5 150.5 222.8 149.8Q224.1 149.0 225.7 149.0L225.7 149.0Q228.6 149.0 230.3 151.2Q232.1 153.3 232.1 157.0L232.1 157.0Q232.1 160.6 230.3 162.8Q228.6 164.9 225.7 164.9L225.7 164.9Q224.0 164.9 222.7 164.2Q221.4 163.4 220.7 162.0L220.7 162.0L220.6 162.0L220.6 163.4Q220.6 164.1 220.2 164.5Q219.8 164.9 219.1 164.9ZM224.8 162.2L224.8 162.2Q226.7 162.2 227.8 160.8Q228.8 159.4 228.8 157.0L228.8 157.0Q228.8 154.5 227.8 153.1Q226.7 151.7 224.8 151.7L224.8 151.7Q223.0 151.7 221.9 153.1Q220.7 154.6 220.7 157.0L220.7 157.0Q220.7 159.3 221.9 160.8Q223.0 162.2 224.8 162.2ZM236.1 164.9L236.1 164.9Q235.4 164.9 235.0 164.5Q234.5 164.0 234.5 163.3L234.5 163.3L234.5 150.6Q234.5 149.9 235.0 149.4Q235.4 149.0 236.1 149.0L236.1 149.0Q236.7 149.0 237.1 149.4Q237.5 149.9 237.5 150.6L237.5 150.6L237.5 151.9L237.6 151.9Q237.9 150.6 238.9 149.8Q239.8 149.0 241.0 149.0L241.0 149.0Q241.8 149.0 242.3 149.4L242.3 149.4Q242.7 149.7 242.7 150.5L242.7 150.5Q242.7 151.2 242.2 151.6L242.2 151.6Q241.7 152.0 240.8 152.0L240.8 152.0Q239.2 152.0 238.5 153.0Q237.7 153.9 237.7 155.4L237.7 155.4L237.7 163.3Q237.7 164.0 237.3 164.5Q236.8 164.9 236.1 164.9ZM249.7 164.9L249.7 164.9Q247.2 164.9 245.8 163.4Q244.3 161.9 244.3 159.2L244.3 159.2L244.3 150.7Q244.3 149.9 244.7 149.4Q245.2 149.0 245.9 149.0L245.9 149.0Q246.6 149.0 247.0 149.4Q247.5 149.9 247.5 150.7L247.5 150.7L247.5 158.6Q247.5 160.4 248.3 161.3Q249.2 162.2 250.8 162.2L250.8 162.2Q252.5 162.2 253.5 161.1Q254.4 160.0 254.4 158.2L254.4 158.2L254.4 150.7Q254.4 149.9 254.9 149.4Q255.3 149.0 256.0 149.0L256.0 149.0Q256.7 149.0 257.2 149.4Q257.6 149.9 257.6 150.7L257.6 150.7L257.6 163.3Q257.6 164.1 257.2 164.5Q256.8 164.9 256.1 164.9Q255.4 164.9 255.0 164.5Q254.6 164.1 254.6 163.3L254.6 163.3L254.6 162.1L254.5 162.1Q253.2 164.9 249.7 164.9ZM265.2 164.9L265.2 164.9Q263.0 164.9 261.5 163.6Q260.1 162.3 260.1 160.3L260.1 160.3Q260.1 158.3 261.6 157.1Q263.1 155.9 265.8 155.7L265.8 155.7L270.1 155.5L270.1 154.3Q270.1 153.0 269.2 152.3Q268.4 151.6 267.0 151.6L267.0 151.6Q265.8 151.6 265.0 152.0Q264.2 152.5 263.5 153.5L263.5 153.5Q263.1 154.2 262.3 154.2L262.3 154.2Q261.7 154.2 261.3 153.8Q260.9 153.4 260.9 152.9L260.9 152.9Q260.9 152.3 261.2 151.8L261.2 151.8Q261.8 150.5 263.4 149.8Q265 149.0 267.1 149.0L267.1 149.0Q269.9 149.0 271.5 150.4Q273.2 151.7 273.2 154.0L273.2 154.0L273.2 163.3Q273.2 164.1 272.8 164.5Q272.4 164.9 271.7 164.9L271.7 164.9Q271.0 164.9 270.6 164.5Q270.2 164.1 270.2 163.4L270.2 163.4L270.2 162.1L270.1 162.1Q269.4 163.4 268.1 164.2Q266.8 164.9 265.2 164.9ZM266.1 162.4L266.1 162.4Q267.8 162.4 268.9 161.4Q270.1 160.4 270.1 158.9L270.1 158.9L270.1 157.7L266.2 157.9Q264.8 158.0 264.1 158.6Q263.3 159.2 263.3 160.2L263.3 160.2Q263.3 161.2 264.1 161.8Q264.8 162.4 266.1 162.4ZM277.8 164.9L277.8 164.9Q277.1 164.9 276.7 164.5Q276.3 164.0 276.3 163.3L276.3 163.3L276.3 150.6Q276.3 149.9 276.7 149.4Q277.1 149.0 277.8 149.0L277.8 149.0Q278.4 149.0 278.9 149.4Q279.3 149.9 279.3 150.6L279.3 150.6L279.3 151.9L279.3 151.9Q279.7 150.6 280.6 149.8Q281.6 149.0 282.7 149.0L282.7 149.0Q283.6 149.0 284.0 149.4L284.0 149.4Q284.4 149.7 284.4 150.5L284.4 150.5Q284.4 151.2 283.9 151.6L283.9 151.6Q283.5 152.0 282.5 152.0L282.5 152.0Q280.9 152.0 280.2 153.0Q279.4 153.9 279.4 155.4L279.4 155.4L279.4 163.3Q279.4 164.0 279.0 164.5Q278.5 164.9 277.8 164.9ZM288.0 170.4L288.0 170.4Q286.9 170.4 286.3 170.0Q285.7 169.6 285.7 168.9L285.7 168.9Q285.7 168.4 286.1 168.1Q286.4 167.8 287.0 167.8L287.0 167.8Q287.1 167.8 287.4 167.8Q287.6 167.8 287.8 167.8L287.8 167.8Q289.4 167.8 290.1 165.7L290.1 165.7L290.4 164.8L285.3 151.3Q285.1 150.9 285.1 150.4L285.1 150.4Q285.1 149.8 285.6 149.4Q286.0 149.0 286.7 149.0L286.7 149.0Q287.3 149.0 287.7 149.3Q288.0 149.5 288.2 150.2L288.2 150.2L292.2 161.8L292.2 161.8L296.1 150.2Q296.3 149.5 296.7 149.3Q297.1 149.0 297.7 149.0L297.7 149.0Q298.3 149.0 298.8 149.4Q299.2 149.8 299.2 150.4L299.2 150.4Q299.2 150.8 299.0 151.3L299.0 151.3L293.7 165.4Q292.7 168.2 291.4 169.3Q290.2 170.4 288.0 170.4Z M320.6 164.7L308.9 164.7Q308.2 164.7 307.8 164.3Q307.4 163.9 307.4 163.3L307.4 163.3Q307.4 162.8 307.6 162.5Q307.8 162.1 308.3 161.6L308.3 161.6L314.9 154.9Q317.0 152.8 317.7 151.7Q318.3 150.6 318.3 149.3L318.3 149.3Q318.3 147.8 317.3 146.8Q316.3 145.8 314.7 145.8L314.7 145.8Q311.5 145.8 310.4 149.0L310.4 149.0Q310.2 149.5 309.8 149.8Q309.5 150.0 308.9 150.0L308.9 150.0Q308.3 150.0 307.9 149.6Q307.5 149.3 307.5 148.6L307.5 148.6Q307.5 148.3 307.6 148.0L307.6 148.0Q307.7 147.1 308.3 146.3Q308.8 145.4 309.7 144.7Q310.6 144.0 311.9 143.6Q313.2 143.1 314.7 143.1L314.7 143.1Q317.7 143.1 319.6 144.8Q321.6 146.5 321.6 149.1L321.6 149.1Q321.6 150.9 320.6 152.5Q319.6 154.0 316.9 156.8L316.9 156.8L311.8 161.8L311.8 161.9L320.6 161.9Q321.3 161.9 321.7 162.3Q322.1 162.7 322.1 163.3L322.1 163.3Q322.1 163.9 321.7 164.3Q321.3 164.7 320.6 164.7L320.6 164.7ZM338.5 162.1Q336.4 165.1 332.6 165.1Q328.8 165.1 326.6 162.1Q324.5 159.2 324.5 154.1L324.5 154.1Q324.5 149.0 326.6 146.1Q328.8 143.1 332.6 143.1L332.6 143.1Q336.3 143.1 338.5 146.1Q340.6 149.0 340.6 154.1L340.6 154.1Q340.6 159.1 338.5 162.1ZM332.6 162.3L332.6 162.3Q334.8 162.3 336.1 160.1Q337.3 157.9 337.3 154.1L337.3 154.1Q337.3 150.3 336.1 148.1Q334.8 145.9 332.6 145.9Q330.3 145.9 329.0 148.1Q327.8 150.3 327.8 154.1L327.8 154.1Q327.8 157.9 329.0 160.1Q330.3 162.3 332.6 162.3ZM356.7 164.7L345.0 164.7Q344.3 164.7 343.9 164.3Q343.5 163.9 343.5 163.3L343.5 163.3Q343.5 162.8 343.7 162.5Q343.9 162.1 344.4 161.6L344.4 161.6L351.0 154.9Q353.1 152.8 353.7 151.7Q354.4 150.6 354.4 149.3L354.4 149.3Q354.4 147.8 353.4 146.8Q352.3 145.8 350.8 145.8L350.8 145.8Q347.6 145.8 346.5 149.0L346.5 149.0Q346.3 149.5 345.9 149.8Q345.6 150.0 345.0 150.0L345.0 150.0Q344.4 150.0 344.0 149.6Q343.6 149.3 343.6 148.6L343.6 148.6Q343.6 148.3 343.7 148.0L343.7 148.0Q343.8 147.1 344.4 146.3Q344.9 145.4 345.8 144.7Q346.7 144.0 348.0 143.6Q349.3 143.1 350.8 143.1L350.8 143.1Q353.8 143.1 355.7 144.8Q357.7 146.5 357.7 149.1L357.7 149.1Q357.7 150.9 356.7 152.5Q355.7 154.0 353.0 156.8L353.0 156.8L347.9 161.8L347.9 161.9L356.7 161.9Q357.4 161.9 357.8 162.3Q358.2 162.7 358.2 163.3L358.2 163.3Q358.2 163.9 357.8 164.3Q357.4 164.7 356.7 164.7L356.7 164.7ZM368.5 165.1L368.5 165.1Q366.1 165.1 364.2 164.0Q362.3 162.9 361.6 161.2L361.6 161.2Q361.2 160.5 361.2 159.8L361.2 159.8Q361.2 159.1 361.6 158.7Q362.0 158.3 362.7 158.3L362.7 158.3Q363.2 158.3 363.6 158.6Q363.9 158.8 364.2 159.4L364.2 159.4Q364.7 160.8 365.8 161.5Q366.9 162.3 368.5 162.3L368.5 162.3Q370.5 162.3 371.8 161.0Q373.0 159.8 373.0 157.8L373.0 157.8Q373.0 155.8 371.8 154.6Q370.5 153.4 368.5 153.4L368.5 153.4Q366.4 153.4 365.1 154.7L365.1 154.7Q364.4 155.5 364.0 155.6Q363.7 155.8 363.1 155.8L363.1 155.8Q362.3 155.8 361.9 155.4Q361.5 154.9 361.5 154.2L361.5 154.2L361.5 153.9L362.2 145.8Q362.3 144.6 362.9 144.0Q363.5 143.5 364.7 143.5L364.7 143.5L373.7 143.5Q374.4 143.5 374.8 143.9Q375.2 144.3 375.2 144.9Q375.2 145.5 374.8 145.9Q374.4 146.3 373.7 146.3L373.7 146.3L365.1 146.3L364.5 152.9L364.5 152.9Q365.2 151.9 366.5 151.3Q367.7 150.8 369.3 150.8L369.3 150.8Q372.3 150.8 374.3 152.7Q376.2 154.6 376.2 157.7L376.2 157.7Q376.2 161.0 374.1 163.0Q371.9 165.1 368.5 165.1Z "/><mask id="satori_om-id-0-0-1"><rect x="40" y="217" width="1120" height="83" fill="#fff"/></mask><path fill="#224d67" d="M62.4 280.3L62.4 280.3Q53.1 280.3 47.7 274.4Q42.3 268.5 42.3 258.5Q42.3 248.4 47.7 242.5Q53.1 236.6 62.4 236.6L62.4 236.6Q71.6 236.6 77.0 242.5Q82.4 248.4 82.4 258.5Q82.4 268.5 77.0 274.4Q71.6 280.3 62.4 280.3ZM53.4 269.7Q56.7 273.8 62.4 273.8Q68.0 273.8 71.3 269.7Q74.7 265.5 74.7 258.5Q74.7 251.4 71.3 247.2Q68.0 243.0 62.4 243.0Q56.7 243.0 53.4 247.2Q50.0 251.4 50.0 258.5L50.0 258.5Q50.0 265.5 53.4 269.7ZM106.1 279.6L92.2 279.6Q90.4 279.6 89.4 278.5Q88.4 277.5 88.4 275.7L88.4 275.7L88.4 241.2Q88.4 239.4 89.4 238.3Q90.4 237.3 92.2 237.3L92.2 237.3L105.9 237.3Q111.7 237.3 115.1 240.2Q118.6 243.0 118.6 247.8L118.6 247.8Q118.6 251.2 116.3 253.9Q114.1 256.5 110.9 257.0L110.9 257.0L110.9 257.3Q115.2 257.7 117.9 260.5Q120.6 263.4 120.6 267.6L120.6 267.6Q120.6 273.2 116.8 276.4Q112.9 279.6 106.1 279.6L106.1 279.6ZM96.0 243.2L96.0 255.1L102.9 255.1Q106.8 255.1 109.0 253.5Q111.1 251.9 111.1 249.0L111.1 249.0Q111.1 246.2 109.3 244.7Q107.4 243.2 104.0 243.2L104.0 243.2L96.0 243.2ZM96.0 260.5L96.0 273.7L104.4 273.7Q108.6 273.7 110.7 272.0Q112.9 270.3 112.9 267.0L112.9 267.0Q112.9 263.8 110.7 262.1Q108.4 260.5 104.1 260.5L104.1 260.5L96.0 260.5ZM142.5 279.1Q141.4 280.2 139.8 280.2Q138.1 280.2 137.1 279.1Q136.1 278.1 136.1 276.4L136.1 276.4L136.1 244.6L135.9 244.6L129.1 249.4Q128.1 250.1 127.0 250.1L127.0 250.1Q125.8 250.1 125.0 249.3Q124.2 248.6 124.2 247.3L124.2 247.3Q124.2 245.6 126.0 244.4L126.0 244.4L134.6 238.3Q135.9 237.4 137.0 237.0Q138.0 236.7 139.2 236.7L139.2 236.7Q141.2 236.7 142.4 237.8Q143.5 239.0 143.5 240.9L143.5 240.9L143.5 276.4Q143.5 278.1 142.5 279.1Z "/><defs><clipPath id="satori_bc-id-0-1"><rect x="0" y="441" width="1200" height="189"/></clipPath></defs><mask id="satori_om-id-0-1"><rect x="0" y="442" width="1200" height="188" fill="#fff"/><path width="1200" height="189" fill="none" stroke="#000" stroke-width="2" d="M0,441 A0,0 0 0 1 0,441 h1200 A0,0 0 0 1 1200,441"/></mask><path width="1200" height="189" clip-path="url(#satori_bc-id-0-1)" fill="none" stroke="#dbdbdb" stroke-width="2" d="M0,441 A0,0 0 0 1 0,441 h1200 A0,0 0 0 1 1200,441"/><mask id="satori_om-id-0-1-0"><rect x="40" y="482" width="292" height="108" fill="#fff"/></mask><clipPath id="satori_cp-id-0-1-0-0"><rect x="40" y="504" width="64" height="64"/></clipPath><mask id="satori_om-id-0-1-0-0"><rect x="40" y="504" width="64" height="64" fill="#fff"/></mask><image x="40" y="504" width="64" height="64" href="data:image/svg+xml;utf8,%3Csvg  xmlns=%22http://www.w3.org/2000/svg%22 width=%2264%22 height=%2264%22 viewBox=%220 0 128 128%22%3E%3Cpath fill=%22%23224d67%22 d=%22M22.5 14.8c2.9 1.3 99 44 99 44c2.7 1.2 2.9 3.1 2 12.4c-1 10.5-1.9 37.8-40.2 42.9c-24.6 3.2-55.9-4.3-70.9-27.2C-6 58.8 11 23.4 14.8 17.7c2.4-3.5 4.8-4.2 7.7-2.9%22%3E%3C/path%3E%3Cpath fill=%22%23f0f4c3%22 d=%22M121.5 58.8c-.3-.2-92-40.8-98.9-43.9C9.6 31.5-3.8 76 27.9 96.2c33.6 21.5 78.7-10.2 93.6-37.4%22%3E%3C/path%3E%3Cpath fill=%22%23f0f4c3%22 d=%22M117.7 57c-.3-.2-86.7-38.4-93.2-41.3c-12.2 15.5-23.9 59.1 5.7 78c31.4 20.2 73.6-11.2 87.5-36.7%22%3E%3C/path%3E%3Cpath fill=%22%23cb2a42%22 d=%22M56.2 37.6L19.5 48.2c-2.5.8-4.4 2.8-5 5.3c-1.9 8.5.8 23.3 8.9 29.8c3.5 2.7 8.6 1.8 10.8-2.1L58.5 41c1.3-1.7.5-4.2-2.3-3.4m14.3 2.9s14.6 30.1 16 33s6.3 4.7 9.9 2.8c10.7-5.6 15.5-12.4 19.2-20.2c-8.9-3.9-42.4-18.8-42.4-18.8c-2.4-1.1-4 .6-2.7 3.2m-8.6 1.9C60.3 45.1 39.5 81 37.6 84.1c-1.9 3.2-.7 7.5 2.7 9.2c12.3 6.5 30.9.4 39.6-7c2.2-1.9 4.5-5.1 3.2-8.2S68.9 44.6 67.8 42.3c-1.2-2.7-4.1-2.8-5.9.1%22%3E%3C/path%3E%3Cpath fill=%22%23f0f4c3%22 d=%22M52.2 42.2c-1.4.4-10.1 3-11.1 3.4c-1.4.5-2.2 1.7-1.9 2.5c.3.9 1.7 1.1 3.1.6c.8-.3 7.1-3.9 9.5-5.2c-3.1 2.4-10.2 9.4-11.1 10.3c-1.4 1.5-1.7 3.4-.8 4.3c1 .9 2.9.5 4.3-1c1.2-1.3 8.5-12.8 9.1-13.9s.4-1.4-1.1-1m10.1 16.4c0-2.2 1.4-10.3 1.8-12.3c.4-1.6 1.5-1.8 1.8.5s1.7 9.7 1.7 11.8s-1.2 3.3-2.7 3.3c-1.4 0-2.6-1.1-2.6-3.3M79.9 49c-1.2-1.8-3.3-4.9-4.1-6.1c-.7-1.2.1-2.1 1.8-.9s4 2.9 5.4 4c1.6 1.3 1.9 3 .8 4s-2.7.8-3.9-1%22%3E%3C/path%3E%3Cellipse cx=%2287.3%22 cy=%22103.12%22 fill=%22%23cb2a42%22 rx=%223.4%22 ry=%222.3%22 transform=%22rotate(-27.098 87.298 103.126)%22%3E%3C/ellipse%3E%3Cellipse cx=%2298.89%22 cy=%22103.82%22 fill=%22%23cb2a42%22 rx=%223.4%22 ry=%222.3%22 transform=%22rotate(-30.642 98.887 103.818)%22%3E%3C/ellipse%3E%3Cellipse cx=%22102.02%22 cy=%2293.8%22 fill=%22%23cb2a42%22 rx=%223.4%22 ry=%222.3%22 transform=%22rotate(-37.16 102.017 93.797)%22%3E%3C/ellipse%3E%3Cpath fill=%22%23cb2a42%22 d=%22M57.6 30.3c-8.3-3.7-24.4-10.7-29.6-13c-3.6 2.2-9.7 11.4-11.2 21.2c-.6 3.6 1.7 5.9 5.3 4.9c0 0 33.7-9.3 35.3-9.7c1.6-.5 2-2.6.2-3.4%22%3E%3C/path%3E%3C/svg%3E" preserveAspectRatio="none" clip-path="url(#satori_cp-id-0-1-0-0)" mask="url(#satori_om-id-0-1-0-0)"/><mask id="satori_om-id-0-1-0-0-0"><rect x="40" y="504" width="0" height="64" fill="#fff"/></mask><mask id="satori_om-id-0-1-0-0-1"><rect x="40" y="504" width="0" height="64" fill="#fff"/></mask><mask id="satori_om-id-0-1-0-0-2"><rect x="40" y="504" width="0" height="64" fill="#fff"/></mask><mask id="satori_om-id-0-1-0-0-3"><rect x="40" y="504" width="0" height="64" fill="#fff"/></mask><mask id="satori_om-id-0-1-0-0-4"><rect x="40" y="504" width="0" height="64" fill="#fff"/></mask><mask id="satori_om-id-0-1-0-0-5"><rect x="40" y="504" width="0" height="64" fill="#fff"/></mask><mask id="satori_om-id-0-1-0-0-6"><rect x="40" y="504" width="0" height="64" fill="#fff"/></mask><mask id="satori_om-id-0-1-0-0-7"><rect x="40" y="504" width="0" height="64" fill="#fff"/></mask><mask id="satori_om-id-0-1-0-0-8"><rect x="40" y="504" width="0" height="64" fill="#fff"/></mask><mask id="satori_om-id-0-1-0-1"><rect x="116" y="512" width="216" height="48" fill="#fff"/></mask><path fill="#545454" d="M121.1 553.5L121.1 553.5Q119.4 553.5 118.4 552.6Q117.5 551.7 117.5 550.2L117.5 550.2Q117.5 549.3 117.9 547.9L117.9 547.9L127.2 522.8Q127.9 520.7 129.2 519.7Q130.5 518.8 132.5 518.8L132.5 518.8Q134.6 518.8 135.9 519.7Q137.2 520.7 137.9 522.8L137.9 522.8L147.2 547.9Q147.6 549.2 147.6 550.2L147.6 550.2Q147.6 551.6 146.6 552.6Q145.6 553.5 144.1 553.5L144.1 553.5Q142.6 553.5 141.7 552.8Q140.9 552.1 140.4 550.4L140.4 550.4L138.6 545.0L126.4 545.0L124.6 550.3Q124.2 552.0 123.3 552.8Q122.5 553.5 121.1 553.5ZM132.4 525.7L128.0 539.6L137 539.6L132.5 525.7L132.4 525.7ZM159.1 552.6Q158.2 553.6 156.6 553.6Q155.0 553.6 154.1 552.6Q153.2 551.7 153.2 550.0L153.2 550.0L153.2 533.1L151.9 533.1Q150.8 533.1 150.1 532.4Q149.4 531.7 149.4 530.6Q149.4 529.4 150.1 528.7Q150.8 528.1 151.9 528.1L151.9 528.1L153.2 528.1L153.2 526.2Q153.2 522.5 155.0 520.7Q156.7 519.0 160.3 518.9L160.3 518.9Q163.0 518.9 164.2 519.7Q165.5 520.4 165.5 521.7L165.5 521.7Q165.5 523.1 164.1 523.5L164.1 523.5Q163.5 523.7 162.8 523.7L162.8 523.7Q161.2 523.7 160.5 524.4Q159.9 525.1 159.9 526.5L159.9 526.5L159.9 528.1L162.7 528.1Q163.8 528.1 164.5 528.7Q165.2 529.4 165.2 530.6Q165.2 531.7 164.5 532.4Q163.8 533.1 162.7 533.1L162.7 533.1L160.0 533.1L160.0 550.0Q160.0 551.7 159.1 552.6ZM170.3 546.6L170.3 546.6L170.3 533.1L168.9 533.1Q167.7 533.1 167.0 532.4Q166.3 531.7 166.3 530.5Q166.3 529.3 167.0 528.6Q167.7 527.9 168.9 527.9L168.9 527.9L170.3 527.9L170.3 525.1Q170.3 523.5 171.2 522.5Q172.1 521.6 173.7 521.6Q175.3 521.6 176.2 522.5Q177.1 523.5 177.1 525.1L177.1 525.1L177.1 527.9L179.5 527.9Q180.7 527.9 181.4 528.6Q182.1 529.3 182.1 530.5Q182.1 531.7 181.4 532.4Q180.7 533.1 179.5 533.1L179.5 533.1L177.1 533.1L177.1 545.1Q177.1 546.5 177.6 547.1Q178.1 547.7 179.2 547.8L179.2 547.8L179.6 547.8Q180.9 548.0 181.6 548.5Q182.2 549.1 182.2 550.3L182.2 550.3Q182.2 551.8 180.9 552.6Q179.6 553.3 177.4 553.3L177.4 553.3L177.1 553.3Q170.3 553.3 170.3 546.6ZM197.0 553.6L197.0 553.6Q191.2 553.6 187.9 550.2Q184.6 546.7 184.6 540.6L184.6 540.6Q184.6 534.5 187.9 531.0Q191.1 527.4 196.7 527.4L196.7 527.4Q202.0 527.4 205.3 530.7Q208.6 533.9 208.6 539.1L208.6 539.1Q208.6 540.5 207.9 541.3Q207.1 542.1 205.6 542.1L205.6 542.1L191.3 542.1L191.3 542.4Q191.3 545.2 192.9 546.9Q194.4 548.5 197.0 548.5L197.0 548.5Q198.9 548.5 200.3 547.8Q201.6 547.2 203.0 545.5L203.0 545.5Q204.0 544.5 205.3 544.5L205.3 544.5Q206.4 544.5 207.2 545.2Q207.9 545.9 207.9 547.0L207.9 547.0Q207.9 547.8 207.5 548.7L207.5 548.7Q206.2 551 203.4 552.3Q200.7 553.6 197.0 553.6ZM191.4 537.9L191.4 537.9L202.0 537.9Q201.9 535.4 200.5 533.9Q199.0 532.5 196.8 532.5Q194.5 532.5 193.1 534.0Q191.6 535.5 191.4 537.9ZM215.6 553.6L215.6 553.6Q214.0 553.6 213.1 552.6Q212.1 551.7 212.1 550.0L212.1 550.0L212.1 530.9Q212.1 529.3 213.0 528.3Q213.9 527.4 215.4 527.4L215.4 527.4Q216.9 527.4 217.8 528.3Q218.7 529.3 218.7 530.9L218.7 530.9L218.7 532.5L218.8 532.5Q219.3 530.2 220.7 528.9Q222.1 527.5 224.0 527.5L224.0 527.5Q225.4 527.5 226.2 528.2L226.2 528.2Q227.2 528.9 227.2 530.7L227.2 530.7Q227.2 532.3 226.2 533.2L226.2 533.2Q225.2 534.0 223.2 534.1L223.2 534.1Q221.0 534.1 220.0 535.3Q219.0 536.5 219.0 538.8L219.0 538.8L219.0 550.0Q219.0 551.7 218.1 552.6Q217.2 553.6 215.6 553.6ZM242.6 553.6L242.6 553.6Q237.5 553.6 234.1 551.8Q230.8 550.0 229.7 547.1L229.7 547.1Q229.4 546.1 229.4 545.2L229.4 545.2Q229.4 543.8 230.2 543.0Q231.1 542.1 232.5 542.1L232.5 542.1Q233.6 542.1 234.3 542.6Q235.1 543.1 235.7 544.2L235.7 544.2Q236.5 546.1 238.4 547.0Q240.2 547.9 242.7 547.9L242.7 547.9Q245.6 547.9 247.3 546.7Q249.1 545.5 249.1 543.6L249.1 543.6Q249.1 541.9 247.8 540.9Q246.4 539.9 243.3 539.3L243.3 539.3L239.7 538.6Q229.6 536.6 229.6 528.9L229.6 528.9Q229.6 525.9 231.3 523.5Q232.9 521.2 235.9 519.9Q238.8 518.7 242.5 518.7L242.5 518.7Q247.2 518.7 250.5 520.5Q253.8 522.4 254.9 525.7L254.9 525.7Q255.1 526.4 255.1 527.2L255.1 527.2Q255.1 528.5 254.3 529.3Q253.5 530.1 252.1 530.1L252.1 530.1Q250.9 530.1 250.1 529.6Q249.4 529.1 248.8 528.0L248.8 528.0Q247.2 524.4 242.5 524.4L242.5 524.4Q239.9 524.4 238.3 525.5Q236.7 526.6 236.7 528.5L236.7 528.5Q236.7 530.1 238.1 531.1Q239.4 532.1 242.4 532.7L242.4 532.7L245.9 533.4Q251.3 534.5 253.7 536.7Q256.2 539.0 256.2 542.8L256.2 542.8Q256.2 547.8 252.5 550.7Q248.9 553.6 242.6 553.6ZM266.0 552.6Q265.0 553.6 263.5 553.6Q261.9 553.6 261.0 552.6Q260.1 551.7 260.1 550.0L260.1 550.0L260.1 522.2Q260.1 520.6 261.0 519.7Q261.9 518.7 263.4 518.7L263.4 518.7Q265.0 518.7 265.9 519.7Q266.8 520.6 266.8 522.2L266.8 522.2L266.8 532.4L266.9 532.4Q267.9 530.0 270.0 528.7Q272 527.5 274.8 527.5L274.8 527.5Q279.0 527.5 281.3 530.0Q283.6 532.5 283.6 536.9L283.6 536.9L283.6 550.0Q283.6 551.7 282.7 552.6Q281.7 553.6 280.2 553.6Q278.6 553.6 277.7 552.6Q276.8 551.7 276.8 550.0L276.8 550.0L276.8 538.3Q276.8 535.9 275.6 534.5Q274.3 533.1 272.0 533.1L272.0 533.1Q269.7 533.1 268.3 534.7Q266.9 536.2 266.9 538.7L266.9 538.7L266.9 550.0Q266.9 551.7 266.0 552.6ZM294.1 523.8Q293.0 524.8 291.5 524.8Q290.0 524.8 288.9 523.8Q287.8 522.8 287.8 521.3L287.8 521.3Q287.8 519.8 288.9 518.8Q290.0 517.7 291.5 517.7Q293.0 517.7 294.1 518.8Q295.2 519.8 295.2 521.3L295.2 521.3Q295.2 522.8 294.1 523.8ZM294.0 552.6Q293.1 553.6 291.5 553.6Q289.9 553.6 289.0 552.6Q288.1 551.7 288.1 550.0L288.1 550.0L288.1 531.0Q288.1 529.3 289.0 528.4Q289.9 527.4 291.5 527.4Q293.1 527.4 294.0 528.4Q294.9 529.3 294.9 531.0L294.9 531.0L294.9 550.0Q294.9 551.7 294.0 552.6ZM307.2 552.6Q306.3 553.6 304.7 553.6Q303.1 553.6 302.2 552.6Q301.3 551.7 301.3 550.0L301.3 550.0L301.3 533.1L300.0 533.1Q298.9 533.1 298.2 532.4Q297.5 531.7 297.5 530.6Q297.5 529.4 298.2 528.7Q298.9 528.1 300.0 528.1L300.0 528.1L301.3 528.1L301.3 526.2Q301.3 522.5 303.1 520.7Q304.9 519.0 308.5 518.9L308.5 518.9Q311.1 518.9 312.4 519.7Q313.6 520.4 313.6 521.7L313.6 521.7Q313.6 523.1 312.2 523.5L312.2 523.5Q311.6 523.7 310.9 523.7L310.9 523.7Q309.4 523.7 308.7 524.4Q308.0 525.1 308.0 526.5L308.0 526.5L308.0 528.1L310.9 528.1Q312.0 528.1 312.7 528.7Q313.4 529.4 313.4 530.6Q313.4 531.7 312.7 532.4Q312.0 533.1 310.9 533.1L310.9 533.1L308.1 533.1L308.1 550.0Q308.1 551.7 307.2 552.6ZM318.4 546.6L318.4 546.6L318.4 533.1L317.1 533.1Q315.9 533.1 315.1 532.4Q314.4 531.7 314.4 530.5Q314.4 529.3 315.1 528.6Q315.9 527.9 317.1 527.9L317.1 527.9L318.4 527.9L318.4 525.1Q318.4 523.5 319.3 522.5Q320.2 521.6 321.8 521.6Q323.4 521.6 324.3 522.5Q325.2 523.5 325.2 525.1L325.2 525.1L325.2 527.9L327.6 527.9Q328.9 527.9 329.6 528.6Q330.3 529.3 330.3 530.5Q330.3 531.7 329.6 532.4Q328.9 533.1 327.6 533.1L327.6 533.1L325.2 533.1L325.2 545.1Q325.2 546.5 325.7 547.1Q326.2 547.7 327.3 547.8L327.3 547.8L327.8 547.8Q329.1 548.0 329.7 548.5Q330.4 549.1 330.4 550.3L330.4 550.3Q330.4 551.8 329.0 552.6Q327.7 553.3 325.5 553.3L325.5 553.3L325.3 553.3Q318.4 553.3 318.4 546.6Z "/><mask id="satori_om-id-0-1-1"><rect x="924" y="524" width="236" height="36" fill="#fff"/></mask><path fill="#8e8e8e" d="M927.9 552.6Q927.5 552.9 927.0 552.9Q926.4 552.9 926.1 552.6Q925.8 552.2 925.8 551.7L925.8 551.7L925.8 532.6Q925.8 532.0 926.1 531.6Q926.5 531.3 927.1 531.3Q927.6 531.3 928.0 531.6Q928.3 532.0 928.3 532.6L928.3 532.6L928.3 540.0L928.4 540.0Q929.1 538.7 930.4 537.9Q931.7 537.2 933.3 537.2L933.3 537.2Q936.2 537.2 937.9 539.3Q939.7 541.5 939.7 545.0L939.7 545.0Q939.7 548.6 937.9 550.8Q936.2 552.9 933.2 552.9L933.2 552.9Q931.6 552.9 930.3 552.2Q929.0 551.4 928.3 550.1L928.3 550.1L928.2 550.1L928.2 551.7Q928.2 552.2 927.9 552.6ZM932.7 550.7L932.7 550.7Q934.8 550.7 935.9 549.2Q937.1 547.7 937.1 545.0L937.1 545.0Q937.1 542.5 935.9 540.9Q934.8 539.4 932.7 539.4L932.7 539.4Q930.8 539.4 929.6 541.0Q928.3 542.5 928.3 545.0L928.3 545.0Q928.3 547.6 929.6 549.1Q930.8 550.7 932.7 550.7ZM943.8 558.4L943.8 558.4Q942.9 558.4 942.4 558.0Q941.9 557.7 941.9 557.1L941.9 557.1Q941.9 556.7 942.1 556.4Q942.4 556.2 942.9 556.2L942.9 556.2Q943.1 556.2 943.3 556.2Q943.5 556.2 943.7 556.2L943.7 556.2Q945.4 556.2 946.2 553.7L946.2 553.7L946.6 552.7L941.3 539.0Q941.2 538.6 941.2 538.3L941.2 538.3Q941.2 537.8 941.6 537.5Q941.9 537.2 942.5 537.2L942.5 537.2Q943.4 537.2 943.7 538.1L943.7 538.1L947.9 550.1L948.0 550.1L952.2 538.1Q952.3 537.6 952.6 537.4Q952.9 537.2 953.4 537.2L953.4 537.2Q953.9 537.2 954.3 537.5Q954.6 537.8 954.6 538.3L954.6 538.3Q954.6 538.6 954.5 539.0L954.5 539.0L948.9 553.7Q947.9 556.4 946.8 557.4Q945.7 558.4 943.8 558.4Z M965.7 552.5Q965.3 552.9 964.7 552.9Q964.1 552.9 963.8 552.5Q963.4 552.1 963.4 551.5L963.4 551.5L963.4 532.9Q963.4 532.3 963.8 531.9Q964.1 531.5 964.7 531.5L964.7 531.5L970.9 531.5Q973.9 531.5 975.8 533.4Q977.7 535.3 977.7 538.3L977.7 538.3Q977.7 541.3 975.8 543.2Q973.9 545.1 970.9 545.1L970.9 545.1L966.0 545.1L966.0 551.5Q966.0 552.1 965.7 552.5ZM966.0 533.9L966.0 542.8L970.3 542.8Q972.5 542.8 973.8 541.6Q975.0 540.4 975.0 538.3Q975.0 536.2 973.8 535.0Q972.5 533.9 970.3 533.9L970.3 533.9L966.0 533.9ZM984.8 552.9L984.8 552.9Q982.5 552.9 981.1 551.7Q979.7 550.4 979.7 548.4L979.7 548.4Q979.7 546.4 981.2 545.2Q982.6 544.1 985.2 543.9L985.2 543.9L989.6 543.7L989.6 542.4Q989.6 541.0 988.7 540.2Q987.9 539.4 986.3 539.4L986.3 539.4Q985.0 539.4 984.1 539.9Q983.3 540.4 982.6 541.5L982.6 541.5Q982.3 542.1 981.6 542.1L981.6 542.1Q981.1 542.1 980.8 541.8Q980.5 541.5 980.5 541.0Q980.5 540.5 980.8 539.9L980.8 539.9Q981.4 538.7 982.9 537.9Q984.5 537.2 986.3 537.2L986.3 537.2Q989.0 537.2 990.6 538.5Q992.2 539.9 992.2 542.1L992.2 542.1L992.2 551.6Q992.2 552.2 991.8 552.6Q991.5 552.9 991.0 552.9L991.0 552.9Q990.4 552.9 990.1 552.6Q989.7 552.2 989.7 551.6L989.7 551.6L989.7 550.0L989.7 550.0Q989.0 551.3 987.7 552.1Q986.3 552.9 984.8 552.9ZM985.3 550.8L985.3 550.8Q987.1 550.8 988.4 549.6Q989.6 548.5 989.6 546.9L989.6 546.9L989.6 545.6L985.5 545.9Q984.0 546.0 983.1 546.6Q982.3 547.3 982.3 548.4Q982.3 549.4 983.1 550.1Q984.0 550.8 985.3 550.8ZM996.2 549.1L996.2 549.1L996.2 539.5L994.9 539.5Q994.4 539.5 994.1 539.3Q993.8 539.0 993.8 538.5L993.8 538.5Q993.8 538.0 994.1 537.7Q994.4 537.4 994.9 537.4L994.9 537.4L996.2 537.4L996.2 534.8Q996.2 534.2 996.6 533.8Q996.9 533.5 997.5 533.5Q998.0 533.5 998.4 533.8Q998.8 534.2 998.8 534.8L998.8 534.8L998.8 537.4L1000.7 537.4Q1001.3 537.4 1001.6 537.7Q1001.9 538.0 1001.9 538.5L1001.9 538.5Q1001.9 539.0 1001.6 539.3Q1001.3 539.5 1000.7 539.5L1000.7 539.5L998.8 539.5L998.8 548.6Q998.8 549.6 999.2 550.0Q999.6 550.5 1000.5 550.6L1000.5 550.6L1000.7 550.6Q1001.9 550.7 1001.9 551.6L1001.9 551.6Q1001.9 552.2 1001.5 552.5Q1001.1 552.8 1000.1 552.8L1000.1 552.8L999.9 552.8Q996.2 552.8 996.2 549.1ZM1006.6 552.5Q1006.3 552.9 1005.7 552.9Q1005.2 552.9 1004.8 552.5Q1004.4 552.2 1004.4 551.6L1004.4 551.6L1004.4 538.5Q1004.4 537.9 1004.8 537.5Q1005.1 537.2 1005.6 537.2Q1006.2 537.2 1006.5 537.5Q1006.8 537.9 1006.8 538.5L1006.8 538.5L1006.8 539.9L1006.9 539.9Q1007.2 538.7 1008.2 537.9Q1009.2 537.2 1010.4 537.2L1010.4 537.2Q1011.2 537.2 1011.6 537.5L1011.6 537.5Q1011.9 537.8 1011.9 538.4L1011.9 538.4Q1011.9 539.0 1011.5 539.3L1011.5 539.3Q1011.1 539.6 1010.3 539.6L1010.3 539.6Q1008.6 539.6 1007.8 540.6Q1007.0 541.6 1007.0 543.2L1007.0 543.2L1007.0 551.6Q1007.0 552.2 1006.6 552.5ZM1015.1 534.9L1015.1 534.9Q1014.4 534.9 1014.0 534.4Q1013.5 533.9 1013.5 533.3L1013.5 533.3Q1013.5 532.6 1014.0 532.2Q1014.4 531.7 1015.1 531.7L1015.1 531.7Q1015.7 531.7 1016.2 532.2Q1016.7 532.6 1016.7 533.3L1016.7 533.3Q1016.7 533.9 1016.2 534.4Q1015.7 534.9 1015.1 534.9ZM1016.0 552.5Q1015.6 552.9 1015.1 552.9Q1014.5 552.9 1014.2 552.5Q1013.8 552.2 1013.8 551.6L1013.8 551.6L1013.8 538.5Q1013.8 537.9 1014.2 537.5Q1014.5 537.2 1015.1 537.2Q1015.6 537.2 1016.0 537.5Q1016.4 537.9 1016.4 538.5L1016.4 538.5L1016.4 551.6Q1016.4 552.2 1016.0 552.5ZM1026.1 552.9L1026.1 552.9Q1022.9 552.9 1021.0 550.8Q1019.1 548.7 1019.1 545.1Q1019.1 541.5 1021.0 539.3Q1022.9 537.2 1026.1 537.2L1026.1 537.2Q1028.2 537.2 1029.9 538.2Q1031.6 539.3 1032.0 540.9L1032.0 540.9Q1032.1 541.2 1032.1 541.4L1032.1 541.4Q1032.1 542.0 1031.8 542.3Q1031.5 542.6 1031.0 542.6L1031.0 542.6Q1030.6 542.6 1030.3 542.4Q1030.1 542.2 1029.8 541.7L1029.8 541.7Q1028.6 539.4 1026.1 539.4L1026.1 539.4Q1024.1 539.4 1022.9 541.0Q1021.6 542.5 1021.6 545.0L1021.6 545.0Q1021.6 547.6 1022.9 549.2Q1024.1 550.7 1026.1 550.7L1026.1 550.7Q1027.4 550.7 1028.3 550.1Q1029.2 549.6 1029.8 548.4L1029.8 548.4Q1030.1 547.9 1030.3 547.7Q1030.6 547.5 1031.0 547.5L1031.0 547.5Q1031.5 547.5 1031.8 547.8Q1032.1 548.2 1032.1 548.7L1032.1 548.7Q1032.1 548.9 1032.0 549.3L1032.0 549.3Q1031.4 550.9 1029.8 551.9Q1028.2 552.9 1026.1 552.9ZM1041.2 552.9L1041.2 552.9Q1037.8 552.9 1036.0 550.9Q1034.1 548.8 1034.1 545.1L1034.1 545.1Q1034.1 541.5 1036.0 539.3Q1037.8 537.2 1041.0 537.2L1041.0 537.2Q1043.9 537.2 1045.8 539.1Q1047.6 541.1 1047.6 544.3L1047.6 544.3Q1047.6 544.9 1047.3 545.3Q1046.9 545.7 1046.2 545.7L1046.2 545.7L1036.7 545.7Q1036.7 548.0 1037.9 549.4Q1039.1 550.7 1041.1 550.7L1041.1 550.7Q1042.5 550.7 1043.4 550.2Q1044.3 549.6 1045.2 548.3L1045.2 548.3Q1045.6 547.8 1046.2 547.8L1046.2 547.8Q1046.7 547.8 1047.0 548.1Q1047.3 548.4 1047.3 548.9L1047.3 548.9Q1047.3 549.2 1047.1 549.7L1047.1 549.7Q1046.4 551.2 1044.8 552.1Q1043.3 552.9 1041.2 552.9ZM1036.7 543.7L1036.7 543.7L1045.0 543.7Q1045.0 541.8 1043.8 540.6Q1042.7 539.4 1041.0 539.4L1041.0 539.4Q1039.2 539.4 1038.0 540.6Q1036.8 541.8 1036.7 543.7Z M1059.0 552.5Q1058.7 552.9 1058.1 552.9Q1057.5 552.9 1057.1 552.5Q1056.7 552.1 1056.7 551.5L1056.7 551.5L1056.7 532.7Q1056.7 532.1 1057.1 531.7Q1057.5 531.3 1058.1 531.3Q1058.7 531.3 1059.0 531.7Q1059.4 532.1 1059.4 532.7L1059.4 532.7L1059.4 541.8L1059.5 541.8L1068.9 531.8Q1069.4 531.3 1070.0 531.3L1070.0 531.3Q1070.5 531.3 1070.9 531.7Q1071.2 532.0 1071.2 532.5L1071.2 532.5Q1071.2 533.0 1070.9 533.3L1070.9 533.3L1063.6 540.9L1071.7 550.6Q1072.1 551.1 1072.1 551.6L1072.1 551.6Q1072.1 552.2 1071.7 552.5Q1071.3 552.9 1070.8 552.9L1070.8 552.9Q1070.1 552.9 1069.6 552.2L1069.6 552.2L1061.7 542.8L1059.4 545.3L1059.4 551.5Q1059.4 552.1 1059.0 552.5ZM1081.2 552.9L1081.2 552.9Q1077.8 552.9 1075.9 550.9Q1074.1 548.8 1074.1 545.1L1074.1 545.1Q1074.1 541.5 1075.9 539.3Q1077.8 537.2 1081.0 537.2L1081.0 537.2Q1083.9 537.2 1085.8 539.1Q1087.6 541.1 1087.6 544.3L1087.6 544.3Q1087.6 544.9 1087.2 545.3Q1086.9 545.7 1086.2 545.7L1086.2 545.7L1076.7 545.7Q1076.7 548.0 1077.9 549.4Q1079.1 550.7 1081.1 550.7L1081.1 550.7Q1082.5 550.7 1083.4 550.2Q1084.3 549.6 1085.2 548.3L1085.2 548.3Q1085.6 547.8 1086.2 547.8L1086.2 547.8Q1086.7 547.8 1087.0 548.1Q1087.3 548.4 1087.3 548.9L1087.3 548.9Q1087.3 549.2 1087.1 549.7L1087.1 549.7Q1086.4 551.2 1084.8 552.1Q1083.3 552.9 1081.2 552.9ZM1076.7 543.7L1076.7 543.7L1085.0 543.7Q1084.9 541.8 1083.8 540.6Q1082.7 539.4 1080.9 539.4L1080.9 539.4Q1079.1 539.4 1078.0 540.6Q1076.8 541.8 1076.7 543.7ZM1092.4 552.5Q1092.0 552.9 1091.4 552.9Q1090.9 552.9 1090.5 552.5Q1090.2 552.2 1090.2 551.6L1090.2 551.6L1090.2 538.5Q1090.2 537.9 1090.5 537.5Q1090.8 537.2 1091.4 537.2Q1091.9 537.2 1092.2 537.5Q1092.6 537.9 1092.6 538.5L1092.6 538.5L1092.6 539.9L1092.6 539.9Q1093.3 538.6 1094.5 537.9Q1095.8 537.2 1097.5 537.2L1097.5 537.2Q1100.0 537.2 1101.3 538.7Q1102.7 540.2 1102.7 542.8L1102.7 542.8L1102.7 551.6Q1102.7 552.2 1102.4 552.5Q1102.0 552.9 1101.5 552.9Q1100.9 552.9 1100.6 552.5Q1100.2 552.2 1100.2 551.6L1100.2 551.6L1100.2 543.2Q1100.2 541.4 1099.3 540.4Q1098.4 539.4 1096.7 539.4L1096.7 539.4Q1094.9 539.4 1093.8 540.6Q1092.7 541.8 1092.7 543.7L1092.7 543.7L1092.7 551.6Q1092.7 552.2 1092.4 552.5ZM1108.2 552.5Q1107.8 552.9 1107.3 552.9Q1106.7 552.9 1106.3 552.5Q1106.0 552.2 1106.0 551.6L1106.0 551.6L1106.0 538.5Q1106.0 537.9 1106.3 537.5Q1106.7 537.2 1107.2 537.2Q1107.7 537.2 1108.0 537.5Q1108.4 537.9 1108.4 538.5L1108.4 538.5L1108.4 539.9L1108.4 539.9Q1109.0 538.6 1110.1 537.9Q1111.3 537.2 1112.8 537.2L1112.8 537.2Q1114.3 537.2 1115.4 537.9Q1116.5 538.7 1117.0 540.1L1117.0 540.1L1117.1 540.1Q1117.7 538.7 1119.0 537.9Q1120.3 537.2 1121.9 537.2L1121.9 537.2Q1124.1 537.2 1125.5 538.5Q1126.8 539.9 1126.8 542.1L1126.8 542.1L1126.8 551.6Q1126.8 552.2 1126.5 552.5Q1126.1 552.9 1125.6 552.9Q1125.0 552.9 1124.6 552.5Q1124.3 552.2 1124.3 551.6L1124.3 551.6L1124.3 542.7Q1124.3 541.2 1123.5 540.3Q1122.6 539.4 1121.1 539.4Q1119.6 539.4 1118.6 540.4Q1117.7 541.4 1117.7 543.0L1117.7 543.0L1117.7 551.6Q1117.7 552.2 1117.3 552.5Q1117.0 552.9 1116.4 552.9Q1115.8 552.9 1115.5 552.5Q1115.1 552.2 1115.1 551.6L1115.1 551.6L1115.1 542.5Q1115.1 541.1 1114.3 540.2Q1113.4 539.4 1112.0 539.4L1112.0 539.4Q1110.5 539.4 1109.5 540.5Q1108.5 541.5 1108.5 543.1L1108.5 543.1L1108.5 551.6Q1108.5 552.2 1108.2 552.5ZM1136.4 552.9L1136.4 552.9Q1133.2 552.9 1131.3 550.8Q1129.3 548.7 1129.3 545.0Q1129.3 541.4 1131.3 539.3Q1133.2 537.2 1136.4 537.2L1136.4 537.2Q1139.6 537.2 1141.5 539.3Q1143.4 541.4 1143.4 545.0L1143.4 545.0Q1143.4 548.7 1141.5 550.8Q1139.6 552.9 1136.4 552.9ZM1133.1 549.2Q1134.3 550.7 1136.4 550.7Q1138.4 550.7 1139.6 549.2Q1140.8 547.7 1140.8 545.0Q1140.8 542.4 1139.6 540.9Q1138.4 539.4 1136.4 539.4Q1134.3 539.4 1133.1 540.9Q1131.9 542.4 1131.9 545.0Q1131.9 547.7 1133.1 549.2ZM1152.5 535.6L1152.5 535.6Q1152.1 535.6 1151.9 535.4Q1151.6 535.2 1151.6 534.8Q1151.6 534.5 1151.8 534.2L1151.8 534.2L1154.0 531.1Q1154.3 530.6 1154.6 530.5Q1154.8 530.3 1155.1 530.3L1155.1 530.3Q1155.6 530.3 1155.9 530.6Q1156.2 530.9 1156.2 531.3L1156.2 531.3Q1156.2 531.7 1155.9 532.1L1155.9 532.1L1153.4 535.1Q1153.0 535.6 1152.5 535.6ZM1152.4 552.9L1152.4 552.9Q1149.0 552.9 1147.1 550.9Q1145.3 548.8 1145.3 545.1L1145.3 545.1Q1145.3 541.5 1147.1 539.3Q1149.0 537.2 1152.2 537.2L1152.2 537.2Q1155.1 537.2 1156.9 539.1Q1158.8 541.1 1158.8 544.3L1158.8 544.3Q1158.8 544.9 1158.4 545.3Q1158.1 545.7 1157.4 545.7L1157.4 545.7L1147.9 545.7Q1147.9 548.0 1149.1 549.4Q1150.2 550.7 1152.3 550.7L1152.3 550.7Q1153.6 550.7 1154.6 550.2Q1155.5 549.6 1156.4 548.3L1156.4 548.3Q1156.8 547.8 1157.3 547.8L1157.3 547.8Q1157.9 547.8 1158.2 548.1Q1158.5 548.4 1158.5 548.9L1158.5 548.9Q1158.5 549.2 1158.3 549.7L1158.3 549.7Q1157.6 551.2 1156.0 552.1Q1154.5 552.9 1152.4 552.9ZM1147.9 543.7L1147.9 543.7L1156.2 543.7Q1156.1 541.8 1155.0 540.6Q1153.9 539.4 1152.1 539.4L1152.1 539.4Q1150.3 539.4 1149.2 540.6Q1148.0 541.8 1147.9 543.7Z "/></svg>