<svg width="1200" height="630" viewBox="0 0 1200 630" xmlns="http://www.w3.org/2000/svg"><mask id="satori_om-id"><rect x="0" y="0" width="1200" height="630" fill="#fff"/></mask><mask id="satori_om-id-0"><rect x="0" y="0" width="1200" height="630" fill="#fff"/></mask><rect x="0" y="0" width="1200" height="630" fill="#f2f2f2"/><mask id="satori_om-id-0-0"><rect x="0" y="0" width="1200" height="441" fill="#fff"/></mask><mask id="satori_om-id-0-0-0"><rect x="40" y="136" width="1120" height="36" fill="#fff"/></mask><path fill="#8e8e8e" d="M49.2 165.0L49.2 165.0Q46.2 165.0 44.1 163.9Q42.1 162.7 41.4 160.8L41.4 160.8Q41.2 160.2 41.2 159.8L41.2 159.8Q41.2 159.0 41.6 158.6Q42.1 158.2 42.7 158.2L42.7 158.2Q43.8 158.2 44.3 159.3L44.3 159.3Q44.8 160.8 46.1 161.5Q47.4 162.2 49.3 162.2L49.3 162.2Q51.3 162.2 52.6 161.3Q53.9 160.4 53.9 159.0L53.9 159.0Q53.9 157.7 53.0 156.9Q52.1 156.1 50.0 155.7L50.0 155.7L47.6 155.2Q44.5 154.5 43.0 153.1Q41.5 151.6 41.5 149.3L41.5 149.3Q41.5 146.6 43.7 144.9Q45.8 143.2 49.2 143.2L49.2 143.2Q51.9 143.2 53.9 144.4Q55.9 145.6 56.5 147.7L56.5 147.7Q56.6 148.0 56.6 148.5L56.6 148.5Q56.6 149.1 56.2 149.5Q55.8 149.9 55.2 149.9L55.2 149.9Q54.1 149.9 53.6 148.8L53.6 148.8Q52.6 146.0 49.1 146.0L49.1 146.0Q47.3 146.0 46.0 146.8Q44.8 147.7 44.8 149.1L44.8 149.1Q44.8 150.3 45.7 151.1Q46.7 151.8 48.7 152.3L48.7 152.3L51.0 152.7Q54.3 153.4 55.8 154.8Q57.2 156.2 57.2 158.5L57.2 158.5Q57.2 161.5 55.0 163.3Q52.9 165.0 49.2 165.0ZM65.1 164.9L65.1 164.9Q62.6 164.9 61.2 163.4Q59.7 161.9 59.7 159.2L59.7 159.2L59.7 150.7Q59.7 149.9 60.1 149.4Q60.6 149.0 61.3 149.0L61.3 149.0Q62.0 149.0 62.4 149.4Q62.9 149.9 62.9 150.7L62.9 150.7L62.9 158.6Q62.9 160.4 63.7 161.3Q64.6 162.2 66.2 162.2L66.2 162.2Q67.9 162.2 68.9 161.1Q69.8 160.0 69.8 158.2L69.8 158.2L69.8 150.7Q69.8 149.9 70.3 149.4Q70.7 149.0 71.4 149.0L71.4 149.0Q72.1 149.0 72.6 149.4Q73.0 149.9 73.0 150.7L73.0 150.7L73.0 163.3Q73.0 164.1 72.6 164.5Q72.2 164.9 71.5 164.9Q70.8 164.9 70.4 164.5Q70.0 164.1 70.0 163.3L70.0 163.3L70.0 162.1L69.9 162.1Q68.6 164.9 65.1 164.9ZM77.7 164.9L77.7 164.9Q77.0 164.9 76.6 164.5Q76.1 164.0 76.1 163.3L76.1 163.3L76.1 150.6Q76.1 149.8 76.5 149.4Q76.9 149.0 77.6 149.0Q78.3 149.0 78.7 149.4Q79.2 149.9 79.2 150.6L79.2 150.6L79.2 151.8L79.2 151.8Q80.6 149.0 84.1 149.0L84.1 149.0Q86.6 149.0 88.0 150.5Q89.4 152.0 89.4 154.7L89.4 154.7L89.4 163.3Q89.4 164.0 89.0 164.5Q88.5 164.9 87.8 164.9L87.8 164.9Q87.1 164.9 86.7 164.5Q86.2 164.0 86.2 163.3L86.2 163.3L86.2 155.3Q86.2 153.5 85.4 152.6Q84.6 151.7 82.9 151.7L82.9 151.7Q81.3 151.7 80.3 152.8Q79.3 153.9 79.3 155.7L79.3 155.7L79.3 163.3Q79.3 164.0 78.8 164.5Q78.4 164.9 77.7 164.9ZM98.2 164.9L98.2 164.9Q95.3 164.9 93.5 162.8Q91.8 160.6 91.8 157.0Q91.8 153.3 93.5 151.2Q95.3 149.0 98.2 149.0L98.2 149.0Q99.8 149.0 101.1 149.8Q102.4 150.5 103.0 151.8L103.0 151.8L103.1 151.8L103.1 144.9Q103.1 144.1 103.5 143.7Q104.0 143.2 104.7 143.2L104.7 143.2Q105.4 143.2 105.8 143.7Q106.3 144.2 106.3 144.9L106.3 144.9L106.3 163.4Q106.3 164.1 105.9 164.5Q105.4 164.9 104.7 164.9L104.7 164.9Q104.0 164.9 103.6 164.5Q103.1 164.1 103.1 163.4L103.1 163.4L103.1 161.9L103.1 161.9Q102.4 163.3 101.2 164.1Q100.0 164.9 98.2 164.9ZM99.1 162.2L99.1 162.2Q100.9 162.2 102.0 160.8Q103.1 159.4 103.1 157.0L103.1 157.0Q103.1 154.6 102.0 153.1Q100.9 151.7 99.1 151.7L99.1 151.7Q97.2 151.7 96.1 153.1Q95.0 154.5 95.0 157.0L95.0 157.0Q95.0 159.4 96.1 160.8Q97.2 162.2 99.1 162.2ZM114.0 164.9L114.0 164.9Q111.8 164.9 110.3 163.6Q108.9 162.3 108.9 160.3L108.9 160.3Q108.9 158.3 110.4 157.1Q111.9 155.9 114.6 155.7L114.6 155.7L118.9 155.5L118.9 154.3Q118.9 153.0 118.0 152.3Q117.2 151.6 115.8 151.6L115.8 151.6Q114.6 151.6 113.8 152.0Q113.0 152.5 112.3 153.5L112.3 153.5Q111.9 154.2 111.1 154.2L111.1 154.2Q110.5 154.2 110.1 153.8Q109.7 153.4 109.7 152.9L109.7 152.9Q109.7 152.3 110.0 151.8L110.0 151.8Q110.6 150.5 112.2 149.8Q113.8 149.0 115.9 149.0L115.9 149.0Q118.7 149.0 120.3 150.4Q122.0 151.7 122.0 154.0L122.0 154.0L122.0 163.3Q122.0 164.1 121.6 164.5Q121.2 164.9 120.5 164.9L120.5 164.9Q119.8 164.9 119.4 164.5Q119.0 164.1 119.0 163.4L119.0 163.4L119.0 162.1L118.9 162.1Q118.2 163.4 116.9 164.2Q115.6 164.9 114.0 164.9ZM114.9 162.4L114.9 162.4Q116.6 162.4 117.7 161.4Q118.9 160.4 118.9 158.9L118.9 158.9L118.9 157.7L115.0 157.9Q113.6 158.0 112.9 158.6Q112.1 159.2 112.1 160.2L112.1 160.2Q112.1 161.2 112.9 161.8Q113.6 162.4 114.9 162.4ZM127.0 170.4L127.0 170.4Q125.9 170.4 125.3 170.0Q124.7 169.6 124.7 168.9L124.7 168.9Q124.7 168.4 125.0 168.1Q125.4 167.8 125.9 167.8L125.9 167.8Q126.1 167.8 126.3 167.8Q126.6 167.8 126.7 167.8L126.7 167.8Q128.3 167.8 129.1 165.7L129.1 165.7L129.4 164.8L124.2 151.3Q124.1 150.9 124.1 150.4L124.1 150.4Q124.1 149.8 124.5 149.4Q125.0 149.0 125.7 149.0L125.7 149.0Q126.3 149.0 126.6 149.3Q127.0 149.5 127.2 150.2L127.2 150.2L131.1 161.8L131.2 161.8L135.1 150.2Q135.3 149.5 135.6 149.3Q136.0 149.0 136.6 149.0L136.6 149.0Q137.3 149.0 137.7 149.4Q138.1 149.8 138.1 150.4L138.1 150.4Q138.1 150.8 138.0 151.3L138.0 151.3L132.6 165.4Q131.6 168.2 130.4 169.3Q129.1 170.4 127.0 170.4ZM142.6 161.1L142.6 161.1Q143.3 161.1 143.7 161.5Q144.1 161.8 144.1 162.4L144.1 162.4Q144.1 162.8 144.0 163.3L144.0 163.3L142.7 168.3Q142.4 169.4 141.4 169.4L141.4 169.4Q140.8 169.4 140.5 169.1Q140.1 168.7 140.1 168.2L140.1 168.2Q140.1 168.1 140.2 167.8L140.2 167.8L141.1 162.4Q141.3 161.1 142.6 161.1Z M167.5 164.7L155.8 164.7Q155.0 164.7 154.6 164.3Q154.2 163.9 154.2 163.3L154.2 163.3Q154.2 162.8 154.4 162.5Q154.6 162.1 155.1 161.6L155.1 161.6L161.7 154.9Q163.8 152.8 164.5 151.7Q165.2 150.6 165.2 149.3L165.2 149.3Q165.2 147.8 164.1 146.8Q163.1 145.8 161.5 145.8L161.5 145.8Q158.4 145.8 157.2 149.0L157.2 149.0Q157.0 149.5 156.7 149.8Q156.3 150.0 155.8 150.0L155.8 150.0Q155.1 150.0 154.7 149.6Q154.3 149.3 154.3 148.6L154.3 148.6Q154.3 148.3 154.4 148.0L154.4 148.0Q154.6 147.1 155.1 146.3Q155.7 145.4 156.5 144.7Q157.4 144.0 158.7 143.6Q160 143.1 161.5 143.1L161.5 143.1Q164.5 143.1 166.5 144.8Q168.4 146.5 168.4 149.1L168.4 149.1Q168.4 150.9 167.4 152.5Q166.4 154.0 163.7 156.8L163.7 156.8L158.7 161.8L158.7 161.9L167.5 161.9Q168.1 161.9 168.5 162.3Q168.9 162.7 168.9 163.3L168.9 163.3Q168.9 163.9 168.5 164.3Q168.1 164.7 167.5 164.7L167.5 164.7ZM184.8 164.7L173.2 164.7Q172.4 164.7 172.0 164.3Q171.6 163.9 171.6 163.3L171.6 163.3Q171.6 162.8 171.8 162.5Q172.0 162.1 172.5 161.6L172.5 161.6L179.1 154.9Q181.2 152.8 181.9 151.7Q182.5 150.6 182.5 149.3L182.5 149.3Q182.5 147.8 181.5 146.8Q180.5 145.8 178.9 145.8L178.9 145.8Q175.7 145.8 174.6 149.0L174.6 149.0Q174.4 149.5 174.0 149.8Q173.7 150.0 173.1 150.0L173.1 150.0Q172.5 150.0 172.1 149.6Q171.7 149.3 171.7 148.6L171.7 148.6Q171.7 148.3 171.8 148.0L171.8 148.0Q172.0 147.1 172.5 146.3Q173.1 145.4 173.9 144.7Q174.8 144.0 176.1 143.6Q177.4 143.1 178.9 143.1L178.9 143.1Q181.9 143.1 183.8 144.8Q185.8 146.5 185.8 149.1L185.8 149.1Q185.8 150.9 184.8 152.5Q183.8 154.0 181.1 156.8L181.1 156.8L176.1 161.8L176.1 161.9L184.8 161.9Q185.5 161.9 185.9 162.3Q186.3 162.7 186.3 163.3L186.3 163.3Q186.3 163.9 185.9 164.3Q185.5 164.7 184.8 164.7L184.8 164.7Z M202.9 164.7L197.1 164.7Q196.3 164.7 195.9 164.2Q195.4 163.8 195.4 163.0L195.4 163.0L195.4 145.2Q195.4 144.4 195.9 144.0Q196.3 143.5 197.1 143.5L197.1 143.5L202.9 143.5Q207.6 143.5 210.2 146.3Q212.9 149.1 212.9 154.1L212.9 154.1Q212.9 159.1 210.2 161.9Q207.6 164.7 202.9 164.7L202.9 164.7ZM198.7 146.4L198.7 161.8L202.6 161.8Q205.9 161.8 207.7 159.8Q209.5 157.8 209.5 154.1L209.5 154.1Q209.5 150.4 207.7 148.4Q205.9 146.4 202.6 146.4L202.6 146.4L198.7 146.4ZM222.3 165.0L222.3 165.0Q218.8 165.0 216.9 162.9Q214.9 160.8 214.9 157.0L214.9 157.0Q214.9 153.4 216.9 151.2Q218.8 149.0 222.1 149.0L222.1 149.0Q225.2 149.0 227.1 151.0Q229.0 153.0 229.0 156.1L229.0 156.1Q229.0 156.9 228.6 157.3Q228.2 157.8 227.4 157.8L227.4 157.8L218.1 157.8L218.1 157.8Q218.1 159.9 219.2 161.2Q220.3 162.4 222.2 162.4L222.2 162.4Q223.5 162.4 224.4 161.9Q225.3 161.4 226.2 160.2L226.2 160.2Q226.7 159.6 227.3 159.6L227.3 159.6Q227.9 159.6 228.3 160.0Q228.6 160.3 228.6 160.9L228.6 160.9Q228.6 161.3 228.4 161.8L228.4 161.8Q227.7 163.3 226.1 164.1Q224.5 165.0 222.3 165.0ZM218.1 155.5L218.1 155.5L225.8 155.5Q225.8 153.7 224.8 152.6Q223.7 151.5 222.1 151.5L222.1 151.5Q220.4 151.5 219.3 152.6Q218.3 153.7 218.1 155.5ZM238.0 165.0L238.0 165.0Q234.7 165.0 232.7 162.8Q230.8 160.7 230.8 157.0L230.8 157.0Q230.8 153.3 232.7 151.2Q234.7 149.0 238.0 149.0L238.0 149.0Q240.2 149.0 242.0 150.0Q243.7 151.1 244.2 152.7L244.2 152.7Q244.4 153.1 244.4 153.4L244.4 153.4Q244.4 154.0 244.0 154.4Q243.6 154.7 243.0 154.7L243.0 154.7Q242.5 154.7 242.2 154.5Q241.9 154.3 241.6 153.8L241.6 153.8Q241.0 152.7 240.1 152.1Q239.3 151.6 238.1 151.6L238.1 151.6Q236.2 151.6 235.1 153.1Q234.0 154.5 234.0 157.0L234.0 157.0Q234.0 159.4 235.1 160.9Q236.2 162.3 238.1 162.3L238.1 162.3Q240.4 162.3 241.6 160.2L241.6 160.2Q241.9 159.6 242.2 159.4Q242.5 159.2 243.0 159.2L243.0 159.2Q243.6 159.2 244.0 159.6Q244.4 159.9 244.4 160.5L244.4 160.5Q244.4 160.9 244.2 161.3L244.2 161.3Q243.6 162.9 241.9 163.9Q240.2 165.0 238.0 165.0ZM253.6 165.0L253.6 165.0Q250.1 165.0 248.2 162.9Q246.3 160.8 246.3 157.0L246.3 157.0Q246.3 153.4 248.2 151.2Q250.1 149.0 253.4 149.0L253.4 149.0Q256.5 149.0 258.4 151.0Q260.3 153.0 260.3 156.1L260.3 156.1Q260.3 156.9 259.9 157.3Q259.5 157.8 258.8 157.8L258.8 157.8L249.5 157.8L249.5 157.8Q249.5 159.9 250.6 161.2Q251.7 162.4 253.6 162.4L253.6 162.4Q254.8 162.4 255.8 161.9Q256.7 161.4 257.5 160.2L257.5 160.2Q258.0 159.6 258.7 159.6L258.7 159.6Q259.2 159.6 259.6 160.0Q260.0 160.3 260.0 160.9L260.0 160.9Q260.0 161.3 259.8 161.8L259.8 161.8Q259.0 163.3 257.4 164.1Q255.8 165.0 253.6 165.0ZM249.5 155.5L249.5 155.5L257.2 155.5Q257.1 153.7 256.1 152.6Q255.1 151.5 253.4 151.5L253.4 151.5Q251.8 151.5 250.7 152.6Q249.6 153.7 249.5 155.5ZM265.5 164.5Q265.1 164.9 264.4 164.9Q263.7 164.9 263.2 164.5Q262.8 164.0 262.8 163.3L262.8 163.3L262.8 150.6Q262.8 149.9 263.2 149.4Q263.6 149.0 264.3 149.0Q265.0 149.0 265.4 149.4Q265.8 149.8 265.8 150.6L265.8 150.6L265.8 151.8L265.9 151.8Q266.4 150.5 267.6 149.8Q268.7 149.0 270.3 149.0L270.3 149.0Q271.9 149.0 273.0 149.8Q274.1 150.6 274.6 152.0L274.6 152.0L274.6 152.0Q275.2 150.6 276.5 149.8Q277.8 149.0 279.4 149.0L279.4 149.0Q281.7 149.0 283.1 150.4Q284.5 151.8 284.5 154.1L284.5 154.1L284.5 163.3Q284.5 164.0 284.0 164.5Q283.6 164.9 282.9 164.9Q282.2 164.9 281.7 164.5Q281.3 164.0 281.3 163.3L281.3 163.3L281.3 154.8Q281.3 153.3 280.5 152.5Q279.8 151.7 278.4 151.7Q277.0 151.7 276.1 152.6Q275.2 153.6 275.2 155.0L275.2 155.0L275.2 163.3Q275.2 164.0 274.8 164.5Q274.3 164.9 273.6 164.9Q272.9 164.9 272.5 164.5Q272.1 164.0 272.1 163.3L272.1 163.3L272.1 154.6Q272.1 153.3 271.3 152.5Q270.5 151.7 269.2 151.7L269.2 151.7Q267.8 151.7 266.9 152.7Q266.0 153.6 266.0 155.1L266.0 155.1L266.0 163.3Q266.0 164.0 265.5 164.5ZM289.2 164.9L289.2 164.9Q288.5 164.9 288.1 164.5Q287.6 164.1 287.6 163.4L287.6 163.4L287.6 144.9Q287.6 144.2 288.1 143.7Q288.5 143.2 289.2 143.2Q289.9 143.2 290.4 143.7Q290.8 144.2 290.8 144.9L290.8 144.9L290.8 151.9L290.9 151.9Q291.6 150.5 292.9 149.8Q294.1 149.0 295.8 149.0L295.8 149.0Q298.7 149.0 300.4 151.2Q302.2 153.3 302.2 157.0L302.2 157.0Q302.2 160.6 300.4 162.8Q298.7 164.9 295.7 164.9L295.7 164.9Q294.1 164.9 292.8 164.2Q291.5 163.4 290.8 162.0L290.8 162.0L290.7 162.0L290.7 163.4Q290.7 164.1 290.3 164.5Q289.9 164.9 289.2 164.9ZM294.9 162.2L294.9 162.2Q296.8 162.2 297.8 160.8Q298.9 159.4 298.9 157.0L298.9 157.0Q298.9 154.5 297.8 153.1Q296.7 151.7 294.9 151.7L294.9 151.7Q293.1 151.7 291.9 153.1Q290.8 154.6 290.8 157.0L290.8 157.0Q290.8 159.3 291.9 160.8Q293.1 162.2 294.9 162.2ZM311.3 165.0L311.3 165.0Q307.8 165.0 305.9 162.9Q303.9 160.8 303.9 157.0L303.9 157.0Q303.9 153.4 305.9 151.2Q307.8 149.0 311.1 149.0L311.1 149.0Q314.2 149.0 316.1 151.0Q318.0 153.0 318.0 156.1L318.0 156.1Q318.0 156.9 317.6 157.3Q317.2 157.8 316.4 157.8L316.4 157.8L307.1 157.8L307.1 157.8Q307.1 159.9 308.2 161.2Q309.3 162.4 311.2 162.4L311.2 162.4Q312.5 162.4 313.4 161.9Q314.3 161.4 315.2 160.2L315.2 160.2Q315.7 159.6 316.3 159.6L316.3 159.6Q316.9 159.6 317.3 160.0Q317.6 160.3 317.6 160.9L317.6 160.9Q317.6 161.3 317.4 161.8L317.4 161.8Q316.7 163.3 315.1 164.1Q313.5 165.0 311.3 165.0ZM307.1 155.5L307.1 155.5L314.8 155.5Q314.8 153.7 313.8 152.6Q312.7 151.5 311.1 151.5L311.1 151.5Q309.4 151.5 308.3 152.6Q307.3 153.7 307.1 155.5ZM322.0 164.9L322.0 164.9Q321.3 164.9 320.9 164.5Q320.5 164.0 320.5 163.3L320.5 163.3L320.5 150.6Q320.5 149.9 320.9 149.4Q321.3 149.0 322.0 149.0L322.0 149.0Q322.6 149.0 323.0 149.4Q323.5 149.9 323.5 150.6L323.5 150.6L323.5 151.9L323.5 151.9Q323.9 150.6 324.8 149.8Q325.7 149.0 326.9 149.0L326.9 149.0Q327.8 149.0 328.2 149.4L328.2 149.4Q328.6 149.7 328.6 150.5L328.6 150.5Q328.6 151.2 328.1 151.6L328.1 151.6Q327.7 152.0 326.7 152.0L326.7 152.0Q325.1 152.0 324.4 153.0Q323.6 153.9 323.6 155.4L323.6 155.4L323.6 163.3Q323.6 164.0 323.2 164.5Q322.7 164.9 322.0 164.9Z M349.6 164.7L337.9 164.7Q337.2 164.7 336.8 164.3Q336.4 163.9 336.4 163.3L336.4 163.3Q336.4 162.8 336.6 162.5Q336.8 162.1 337.3 161.6L337.3 161.6L343.9 154.9Q346.0 152.8 346.7 151.7Q347.3 150.6 347.3 149.3L347.3 149.3Q347.3 147.8 346.3 146.8Q345.3 145.8 343.7 145.8L343.7 145.8Q340.5 145.8 339.4 149.0L339.4 149.0Q339.2 149.5 338.8 149.8Q338.5 150.0 337.9 150.0L337.9 150.0Q337.3 150.0 336.9 149.6Q336.5 149.3 336.5 148.6L336.5 148.6Q336.5 148.3 336.6 148.0L336.6 148.0Q336.7 147.1 337.3 146.3Q337.8 145.4 338.7 144.7Q339.6 144.0 340.9 143.6Q342.2 143.1 343.7 143.1L343.7 143.1Q346.7 143.1 348.6 144.8Q350.6 146.5 350.6 149.1L350.6 149.1Q350.6 150.9 349.6 152.5Q348.6 154.0 345.9 156.8L345.9 156.8L340.8 161.8L340.8 161.9L349.6 161.9Q350.3 161.9 350.7 162.3Q351.1 162.7 351.1 163.3L351.1 163.3Q351.1 163.9 350.7 164.3Q350.3 164.7 349.6 164.7L349.6 164.7ZM367.5 162.1Q365.4 165.1 361.6 165.1Q357.8 165.1 355.6 162.1Q353.5 159.2 353.5 154.1L353.5 154.1Q353.5 149.0 355.6 146.1Q357.8 143.1 361.6 143.1L361.6 143.1Q365.3 143.1 367.5 146.1Q369.6 149.0 369.6 154.1L369.6 154.1Q369.6 159.1 367.5 162.1ZM361.6 162.3L361.6 162.3Q363.8 162.3 365.1 160.1Q366.3 157.9 366.3 154.1L366.3 154.1Q366.3 150.3 365.1 148.1Q363.8 145.9 361.6 145.9Q359.3 145.9 358.0 148.1Q356.8 150.3 356.8 154.1L356.8 154.1Q356.8 157.9 358.0 160.1Q359.3 162.3 361.6 162.3ZM385.7 164.7L374.0 164.7Q373.3 164.7 372.9 164.3Q372.5 163.9 372.5 163.3L372.5 163.3Q372.5 162.8 372.7 162.5Q372.9 162.1 373.4 161.6L373.4 161.6L380.0 154.9Q382.1 152.8 382.8 151.7Q383.4 150.6 383.4 149.3L383.4 149.3Q383.4 147.8 382.4 146.8Q381.4 145.8 379.8 145.8L379.8 145.8Q376.6 145.8 375.5 149.0L375.5 149.0Q375.3 149.5 374.9 149.8Q374.6 150.0 374.0 150.0L374.0 150.0Q373.4 150.0 373.0 149.6Q372.6 149.3 372.6 148.6L372.6 148.6Q372.6 148.3 372.7 148.0L372.7 148.0Q372.8 147.1 373.4 146.3Q373.9 145.4 374.8 144.7Q375.7 144.0 377.0 143.6Q378.3 143.1 379.8 143.1L379.8 143.1Q382.8 143.1 384.7 144.8Q386.7 146.5 386.7 149.1L386.7 149.1Q386.7 150.9 385.7 152.5Q384.7 154.0 382.0 156.8L382.0 156.8L376.9 161.8L376.9 161.9L385.7 161.9Q386.4 161.9 386.8 162.3Q387.2 162.7 387.2 163.3L387.2 163.3Q387.2 163.9 386.8 164.3Q386.4 164.7 385.7 164.7L385.7 164.7ZM401.5 164.9L401.5 164.9Q400.8 164.9 400.4 164.5Q400.0 164.0 400.0 163.3L400.0 163.3L400.0 160.5L391.3 160.5Q390.4 160.5 389.9 160.0Q389.4 159.4 389.4 158.6L389.4 158.6Q389.4 157.6 390.1 156.3L390.1 156.3Q391.9 153.0 396.9 145.7L396.9 145.7Q397.9 144.3 398.6 143.8Q399.4 143.2 400.4 143.2L400.4 143.2Q401.7 143.2 402.4 143.9Q403.1 144.5 403.1 145.7L403.1 145.7L403.1 157.7L404.8 157.7Q405.4 157.7 405.8 158.1Q406.2 158.5 406.2 159.1Q406.2 159.7 405.8 160.1Q405.4 160.5 404.8 160.5L404.8 160.5L403.1 160.5L403.1 163.3Q403.1 164.0 402.7 164.5Q402.2 164.9 401.5 164.9ZM392.4 157.8L400 157.8L400 146.1L399.9 146.1Q394.5 153.9 392.4 157.7L392.4 157.7L392.4 157.8Z "/><mask id="satori_om-id-0-0-1"><rect x="40" y="217" width="1120" height="83" fill="#fff"/></mask><path fill="#224d67" d="M58.6 280.3L58.6 280.3Q52.5 280.3 48.3 278.0Q44.2 275.7 42.9 272.0L42.9 272.0Q42.5 270.9 42.5 269.8L42.5 269.8Q42.5 268.2 43.4 267.3Q44.3 266.3 45.8 266.3L45.8 266.3Q47.1 266.3 47.9 266.9Q48.8 267.4 49.4 268.7L49.4 268.7Q50.3 271.4 52.8 272.7Q55.3 274.0 58.8 274.0L58.8 274.0Q62.6 274.0 65.1 272.3Q67.5 270.6 67.5 268.0L67.5 268.0Q67.5 265.7 65.7 264.2Q64.0 262.8 59.9 261.9L59.9 261.9L55.4 261.0Q42.9 258.4 42.9 249.1L42.9 249.1Q42.9 243.5 47.3 240.1Q51.7 236.6 58.6 236.6L58.6 236.6Q64.3 236.6 68.3 239.0Q72.3 241.4 73.6 245.5L73.6 245.5Q73.9 246.2 73.9 247.3L73.9 247.3Q73.9 248.6 73.0 249.5Q72.1 250.4 70.6 250.4L70.6 250.4Q68.2 250.4 67.0 248.0L67.0 248.0Q64.9 242.9 58.6 242.9L58.6 242.9Q55.0 242.9 52.8 244.4Q50.5 246.0 50.5 248.6L50.5 248.6Q50.5 250.8 52.3 252.2Q54.0 253.7 57.9 254.5L57.9 254.5L62.5 255.4Q69.1 256.8 72.1 259.6Q75.1 262.4 75.1 267.1L75.1 267.1Q75.1 273.2 70.7 276.7Q66.2 280.3 58.6 280.3ZM93.8 280.2L93.8 280.2Q86.7 280.2 82.7 276.0Q78.8 271.7 78.8 264.2L78.8 264.2Q78.8 256.7 82.7 252.3Q86.7 247.9 93.4 247.9L93.4 247.9Q99.8 247.9 103.8 251.9Q107.7 256.0 107.7 262.4L107.7 262.4Q107.7 264.0 106.8 264.9Q105.9 265.8 104.3 265.8L104.3 265.8L86.0 265.8L86.0 266.0Q86.0 269.9 88.1 272.3Q90.2 274.6 93.8 274.6L93.8 274.6Q96.3 274.6 98.0 273.6Q99.8 272.7 101.6 270.4L101.6 270.4Q102.6 269.3 104.0 269.3L104.0 269.3Q105.3 269.3 106.1 270.0Q106.9 270.8 106.9 272.1L106.9 272.1Q106.9 272.9 106.4 273.9L106.4 273.9Q104.9 276.9 101.6 278.5Q98.3 280.2 93.8 280.2ZM86.1 261.0L86.1 261.0L100.6 261.0Q100.5 257.6 98.5 255.6Q96.5 253.5 93.5 253.5Q90.4 253.5 88.3 255.6Q86.3 257.7 86.1 261.0ZM114.4 271.9L114.4 271.9L114.4 254.1L112.5 254.1Q111.1 254.1 110.3 253.4Q109.6 252.6 109.6 251.3L109.6 251.3Q109.6 250.0 110.3 249.3Q111.1 248.5 112.5 248.5L112.5 248.5L114.4 248.5L114.4 244.4Q114.4 242.6 115.4 241.6Q116.4 240.6 118.1 240.6L118.1 240.6Q119.8 240.6 120.8 241.6Q121.7 242.6 121.7 244.4L121.7 244.4L121.7 248.5L125.1 248.5Q126.5 248.5 127.3 249.3Q128.0 250.0 128.0 251.3L128.0 251.3Q128.0 252.6 127.2 253.4Q126.5 254.1 125.1 254.1L125.1 254.1L121.7 254.1L121.7 270.3Q121.7 272.1 122.4 272.9Q123.1 273.7 124.7 273.9L124.7 273.9L125.2 273.9Q128.1 274.2 128.1 276.6L128.1 276.6Q128.1 278.2 126.8 279.1Q125.4 279.9 122.9 279.9L122.9 279.9L122.6 279.9Q114.4 279.9 114.4 271.9ZM143.4 280.1L143.4 280.1Q138.3 280.1 135.4 277.0Q132.4 274.0 132.4 268.6L132.4 268.6L132.4 251.7Q132.4 250.0 133.4 248.9Q134.4 247.9 136.0 247.9Q137.7 247.9 138.7 248.9Q139.7 250.0 139.7 251.8L139.7 251.8L139.7 267.1Q139.7 270.5 141.3 272.2Q142.9 274.0 146.0 274.0L146.0 274.0Q149.1 274.0 150.9 271.9Q152.8 269.9 152.8 266.5L152.8 266.5L152.8 251.7Q152.8 250.0 153.8 248.9Q154.8 247.9 156.5 247.9L156.5 247.9Q158.1 247.9 159.1 248.9Q160.1 250.0 160.1 251.8L160.1 251.8L160.1 276.5Q160.1 278.2 159.1 279.2Q158.2 280.2 156.6 280.2L156.6 280.2Q155.0 280.2 154.0 279.2Q153.1 278.2 153.1 276.5L153.1 276.5L153.1 274.2L152.9 274.2Q150.3 280.1 143.4 280.1ZM172.3 289.6Q171.3 290.6 169.7 290.6Q168.0 290.6 167.0 289.6Q166.0 288.6 166.0 286.8L166.0 286.8L166.0 251.7Q166.0 249.9 167.0 248.9Q168.0 247.9 169.6 247.9L169.6 247.9Q171.2 247.9 172.2 248.9Q173.2 249.9 173.2 251.7L173.2 251.7L173.2 253.9L173.3 253.9Q174.6 251.1 177.2 249.6Q179.7 248.0 183.1 248.0L183.1 248.0Q189.0 248.0 192.5 252.3Q196.0 256.6 196.0 264.1L196.0 264.1Q196.0 271.5 192.5 275.8Q189.1 280.1 183.2 280.1L183.2 280.1Q179.9 280.1 177.3 278.6Q174.8 277.1 173.5 274.4L173.5 274.4L173.3 274.4L173.3 286.8Q173.3 288.6 172.3 289.6ZM180.9 274.1L180.9 274.1Q184.4 274.1 186.5 271.4Q188.5 268.7 188.5 264.1L188.5 264.1Q188.5 259.5 186.4 256.7Q184.4 254.0 180.9 254.0L180.9 254.0Q177.5 254.0 175.4 256.8Q173.3 259.5 173.3 264.1L173.3 264.1Q173.3 268.6 175.4 271.4Q177.5 274.1 180.9 274.1Z M231.7 280.3L231.7 280.3Q222.5 280.3 217.3 274.4Q212.0 268.6 212.0 258.4L212.0 258.4Q212.0 248.3 217.3 242.5Q222.6 236.6 231.6 236.6L231.6 236.6Q237.4 236.6 241.9 239.2Q246.3 241.8 248.4 246.4L248.4 246.4Q249.1 247.9 249.1 249.3L249.1 249.3Q249.1 250.8 248.2 251.7Q247.2 252.6 245.7 252.6L245.7 252.6Q243.2 252.6 242.0 249.9L242.0 249.9Q240.6 246.6 237.8 244.8Q235.1 243.0 231.6 243.0L231.6 243.0Q226.2 243.0 222.9 247.2Q219.7 251.4 219.7 258.4L219.7 258.4Q219.7 265.5 222.9 269.7Q226.2 273.9 231.7 273.9L231.7 273.9Q239.3 273.9 242.1 267.3L242.1 267.3Q242.7 266.0 243.5 265.4Q244.3 264.9 245.5 264.9L245.5 264.9Q247.1 264.9 248.1 265.8Q249.0 266.7 249.0 268.2L249.0 268.2Q249.0 269.6 248.3 271.1L248.3 271.1Q246.3 275.4 241.9 277.8Q237.6 280.3 231.7 280.3ZM261.5 243.0Q260.3 244.2 258.6 244.2Q256.9 244.2 255.8 243.0Q254.6 241.8 254.6 240.2L254.6 240.2Q254.6 238.5 255.8 237.4Q256.9 236.2 258.6 236.2L258.6 236.2Q260.4 236.2 261.5 237.4Q262.7 238.5 262.7 240.2L262.7 240.2Q262.7 241.8 261.5 243.0ZM261.3 279.1Q260.3 280.2 258.6 280.2Q257.0 280.2 256.0 279.1Q255.0 278.1 255.0 276.3L255.0 276.3L255.0 251.7Q255.0 250.0 256.0 248.9Q257.0 247.9 258.6 247.9Q260.3 247.9 261.3 248.9Q262.3 250.0 262.3 251.8L262.3 251.8L262.3 276.3Q262.3 278.1 261.3 279.1ZM270.4 271.9L270.4 271.9L270.4 254.1L268.5 254.1Q267.1 254.1 266.3 253.4Q265.6 252.6 265.6 251.3L265.6 251.3Q265.6 250.0 266.3 249.3Q267.1 248.5 268.5 248.5L268.5 248.5L270.4 248.5L270.4 244.4Q270.4 242.6 271.4 241.6Q272.4 240.6 274.1 240.6L274.1 240.6Q275.8 240.6 276.8 241.6Q277.7 242.6 277.7 244.4L277.7 244.4L277.7 248.5L281.1 248.5Q282.5 248.5 283.3 249.3Q284.0 250.0 284.0 251.3L284.0 251.3Q284.0 252.6 283.3 253.4Q282.5 254.1 281.1 254.1L281.1 254.1L277.7 254.1L277.7 270.3Q277.7 272.1 278.4 272.9Q279.1 273.7 280.7 273.9L280.7 273.9L281.2 273.9Q284.1 274.2 284.1 276.6L284.1 276.6Q284.1 278.2 282.8 279.1Q281.4 279.9 278.9 279.9L278.9 279.9L278.6 279.9Q270.4 279.9 270.4 271.9ZM294.9 279.1Q293.9 280.2 292.2 280.2Q290.5 280.2 289.5 279.1Q288.6 278.1 288.6 276.3L288.6 276.3L288.6 251.6Q288.6 249.9 289.5 248.9Q290.5 247.9 292.0 247.9L292.0 247.9Q293.6 247.9 294.5 248.9Q295.5 249.9 295.5 251.6L295.5 251.6L295.5 254.0L295.6 254.0Q296.3 251.3 298.1 249.6Q300.0 248.0 302.3 248.0L302.3 248.0Q304.0 248.0 304.9 248.8L304.9 248.8Q305.9 249.6 305.9 251.4L305.9 251.4Q305.9 253.1 304.8 254.0L304.8 254.0Q303.8 254.9 301.6 255.0L301.6 255.0Q295.8 255.0 295.8 261.4L295.8 261.4L295.8 276.3Q295.8 278.1 294.9 279.1ZM320.0 280.1L320.0 280.1Q315.0 280.1 312.0 277.0Q309.0 274.0 309.0 268.6L309.0 268.6L309.0 251.7Q309.0 250.0 310.0 248.9Q311.0 247.9 312.7 247.9Q314.3 247.9 315.3 248.9Q316.3 250.0 316.3 251.8L316.3 251.8L316.3 267.1Q316.3 270.5 317.9 272.2Q319.5 274.0 322.6 274.0L322.6 274.0Q325.7 274.0 327.6 271.9Q329.4 269.9 329.4 266.5L329.4 266.5L329.4 251.7Q329.4 250.0 330.4 248.9Q331.4 247.9 333.1 247.9L333.1 247.9Q334.7 247.9 335.7 248.9Q336.7 250.0 336.7 251.8L336.7 251.8L336.7 276.5Q336.7 278.2 335.8 279.2Q334.8 280.2 333.2 280.2L333.2 280.2Q331.6 280.2 330.7 279.2Q329.7 278.2 329.7 276.5L329.7 276.5L329.7 274.2L329.5 274.2Q327.0 280.1 320.0 280.1ZM354.6 280.2L354.6 280.2Q349.8 280.2 346.5 278.5Q343.1 276.8 342.0 274.0L342.0 274.0Q341.7 273.2 341.7 272.5L341.7 272.5Q341.7 271.2 342.5 270.4Q343.4 269.6 344.7 269.6L344.7 269.6Q346.6 269.6 347.9 271.4L347.9 271.4Q349.2 273.3 350.8 274.1Q352.4 274.9 354.9 274.9L354.9 274.9Q357.5 274.9 359.0 273.9Q360.6 272.8 360.6 271.1L360.6 271.1Q360.6 269.7 359.6 268.8Q358.6 268.0 356.2 267.4L356.2 267.4L351.2 266.3Q342.1 264.3 342.1 257.4L342.1 257.4Q342.1 253.1 345.6 250.5Q349.0 247.9 354.8 247.9L354.8 247.9Q359.2 247.9 362.4 249.8Q365.6 251.6 366.3 254.4L366.3 254.4Q366.5 255.0 366.5 255.5L366.5 255.5Q366.5 256.6 365.8 257.4Q365.0 258.1 363.7 258.1L363.7 258.1Q361.8 258.1 360.9 256.7L360.9 256.7Q359.7 255.0 358.3 254.1Q356.8 253.2 354.6 253.2L354.6 253.2Q352.2 253.2 350.7 254.3Q349.2 255.3 349.2 257.0L349.2 257.0Q349.2 259.8 353.8 260.8L353.8 260.8L358.7 261.9Q363.6 263.0 365.8 264.9Q367.9 266.9 367.9 270.3L367.9 270.3Q367.9 274.8 364.2 277.5Q360.6 280.2 354.6 280.2Z "/><defs><clipPath id="satori_bc-id-0-1"><rect x="0" y="441" width="1200" height="189"/></clipPath></defs><mask id="satori_om-id-0-1"><rect x="0" y="442" width="1200" height="188" fill="#fff"/><path width="1200" height="189" fill="none" stroke="#000" stroke-width="2" d="M0,441 A0,0 0 0 1 0,441 h1200 A0,0 0 0 1 1200,441"/></mask><path width="1200" height="189" clip-path="url(#satori_bc-id-0-1)" fill="none" stroke="#dbdbdb" stroke-width="2" d="M0,441 A0,0 0 0 1 0,441 h1200 A0,0 0 0 1 1200,441"/><mask id="satori_om-id-0-1-0"><rect x="40" y="482" width="292" height="108" fill="#fff"/></mask><clipPath id="satori_cp-id-0-1-0-0"><rect x="40" y="504" width="64" height="64"/></clipPath><mask id="satori_om-id-0-1-0-0"><rect x="40" y="504" width="64" height="64" fill="#fff"/></mask><image x="40" y="504" width="64" height="64" href="data:image/svg+xml;utf8,%3Csvg  xmlns=%22http://www.w3.org/2000/svg%22 width=%2264%22 height=%2264%22 viewBox=%220 0 128 128%22%3E%3Cpath fill=%22%23224d67%22 d=%22M22.5 14.8c2.9 1.3 99 44 99 44c2.7 1.2 2.9 3.1 2 12.4c-1 10.5-1.9 37.8-40.2 42.9c-24.6 3.2-55.9-4.3-70.9-27.2C-6 58.8 11 23.4 14.8 17.7c2.4-3.5 4.8-4.2 7.7-2.9%22%3E%3C/path%3E%3Cpath fill=%22%23f0f4c3%22 d=%22M121.5 58.8c-.3-.2-92-40.8-98.9-43.9C9.6 31.5-3.8 76 27.9 96.2c33.6 21.5 78.7-10.2 93.6-37.4%22%3E%3C/path%3E%3Cpath fill=%22%23f0f4c3%22 d=%22M117.7 57c-.3-.2-86.7-38.4-93.2-41.3c-12.2 15.5-23.9 59.1 5.7 78c31.4 20.2 73.6-11.2 87.5-36.7%22%3E%3C/path%3E%3Cpath fill=%22%23cb2a42%22 d=%22M56.2 37.6L19.5 48.2c-2.5.8-4.4 2.8-5 5.3c-1.9 8.5.8 23.3 8.9 29.8c3.5 2.7 8.6 1.8 10.8-2.1L58.5 41c1.3-1.7.5-4.2-2.3-3.4m14.3 2.9s14.6 30.1 16 33s6.3 4.7 9.9 2.8c10.7-5.6 15.5-12.4 19.2-20.2c-8.9-3.9-42.4-18.8-42.4-18.8c-2.4-1.1-4 .6-2.7 3.2m-8.6 1.9C60.3 45.1 39.5 81 37.6 84.1c-1.9 3.2-.7 7.5 2.7 9.2c12.3 6.5 30.9.4 39.6-7c2.2-1.9 4.5-5.1 3.2-8.2S68.9 44.6 67.8 42.3c-1.2-2.7-4.1-2.8-5.9.1%22%3E%3C/path%3E%3Cpath fill=%22%23f0f4c3%22 d=%22M52.2 42.2c-1.4.4-10.1 3-11.1 3.4c-1.4.5-2.2 1.7-1.9 2.5c.3.9 1.7 1.1 3.1.6c.8-.3 7.1-3.9 9.5-5.2c-3.1 2.4-10.2 9.4-11.1 10.3c-1.4 1.5-1.7 3.4-.8 4.3c1 .9 2.9.5 4.3-1c1.2-1.3 8.5-12.8 9.1-13.9s.4-1.4-1.1-1m10.1 16.4c0-2.2 1.4-10.3 1.8-12.3c.4-1.6 1.5-1.8 1.8.5s1.7 9.7 1.7 11.8s-1.2 3.3-2.7 3.3c-1.4 0-2.6-1.1-2.6-3.3M79.9 49c-1.2-1.8-3.3-4.9-4.1-6.1c-.7-1.2.1-2.1 1.8-.9s4 2.9 5.4 4c1.6 1.3 1.9 3 .8 4s-2.7.8-3.9-1%22%3E%3C/path%3E%3Cellipse cx=%2287.3%22 cy=%22103.12%22 fill=%22%23cb2a42%22 rx=%223.4%22 ry=%222.3%22 transform=%22rotate(-27.098 87.298 103.126)%22%3E%3C/ellipse%3E%3Cellipse cx=%2298.89%22 cy=%22103.82%22 fill=%22%23cb2a42%22 rx=%223.4%22 ry=%222.3%22 transform=%22rotate(-30.642 98.887 103.818)%22%3E%3C/ellipse%3E%3Cellipse cx=%22102.02%22 cy=%2293.8%22 fill=%22%23cb2a42%22 rx=%223.4%22 ry=%222.3%22 transform=%22rotate(-37.16 102.017 93.797)%22%3E%3C/ellipse%3E%3Cpath fill=%22%23cb2a42%22 d=%22M57.6 30.3c-8.3-3.7-24.4-10.7-29.6-13c-3.6 2.2-9.7 11.4-11.2 21.2c-.6 3.6 1.7 5.9 5.3 4.9c0 0 33.7-9.3 35.3-9.7c1.6-.5 2-2.6.2-3.4%22%3E%3C/path%3E%3C/svg%3E" preserveAspectRatio="none" clip-path="url(#satori_cp-id-0-1-0-0)" mask="url(#satori_om-id-0-1-0-0)"/><mask id="satori_om-id-0-1-0-0-0"><rect x="40" y="504" width="0" height="64" fill="#fff"/></mask><mask id="satori_om-id-0-1-0-0-1"><rect x="40" y="504" width="0" height="64" fill="#fff"/></mask><mask id="satori_om-id-0-1-0-0-2"><rect x="40" y="504" width="0" height="64" fill="#fff"/></mask><mask id="satori_om-id-0-1-0-0-3"><rect x="40" y="504" width="0" height="64" fill="#fff"/></mask><mask id="satori_om-id-0-1-0-0-4"><rect x="40" y="504" width="0" height="64" fill="#fff"/></mask><mask id="satori_om-id-0-1-0-0-5"><rect x="40" y="504" width="0" height="64" fill="#fff"/></mask><mask id="satori_om-id-0-1-0-0-6"><rect x="40" y="504" width="0" height="64" fill="#fff"/></mask><mask id="satori_om-id-0-1-0-0-7"><rect x="40" y="504" width="0" height="64" fill="#fff"/></mask><mask id="satori_om-id-0-1-0-0-8"><rect x="40" y="504" width="0" height="64" fill="#fff"/></mask><mask id="satori_om-id-0-1-0-1"><rect x="116" y="512" width="216" height="48" fill="#fff"/></mask><path fill="#545454" d="M121.1 553.5L121.1 553.5Q119.4 553.5 118.4 552.6Q117.5 551.7 117.5 550.2L117.5 550.2Q117.5 549.3 117.9 547.9L117.9 547.9L127.2 522.8Q127.9 520.7 129.2 519.7Q130.5 518.8 132.5 518.8L132.5 518.8Q134.6 518.8 135.9 519.7Q137.2 520.7 137.9 522.8L137.9 522.8L147.2 547.9Q147.6 549.2 147.6 550.2L147.6 550.2Q147.6 551.6 146.6 552.6Q145.6 553.5 144.1 553.5L144.1 553.5Q142.6 553.5 141.7 552.8Q140.9 552.1 140.4 550.4L140.4 550.4L138.6 545.0L126.4 545.0L124.6 550.3Q124.2 552.0 123.3 552.8Q122.5 553.5 121.1 553.5ZM132.4 525.7L128.0 539.6L137 539.6L132.5 525.7L132.4 525.7ZM159.1 552.6Q158.2 553.6 156.6 553.6Q155.0 553.6 154.1 552.6Q153.2 551.7 153.2 550.0L153.2 550.0L153.2 533.1L151.9 533.1Q150.8 533.1 150.1 532.4Q149.4 531.7 149.4 530.6Q149.4 529.4 150.1 528.7Q150.8 528.1 151.9 528.1L151.9 528.1L153.2 528.1L153.2 526.2Q153.2 522.5 155.0 520.7Q156.7 519.0 160.3 518.9L160.3 518.9Q163.0 518.9 164.2 519.7Q165.5 520.4 165.5 521.7L165.5 521.7Q165.5 523.1 164.1 523.5L164.1 523.5Q163.5 523.7 162.8 523.7L162.8 523.7Q161.2 523.7 160.5 524.4Q159.9 525.1 159.9 526.5L159.9 526.5L159.9 528.1L162.7 528.1Q163.8 528.1 164.5 528.7Q165.2 529.4 165.2 530.6Q165.2 531.7 164.5 532.4Q163.8 533.1 162.7 533.1L162.7 533.1L160.0 533.1L160.0 550.0Q160.0 551.7 159.1 552.6ZM170.3 546.6L170.3 546.6L170.3 533.1L168.9 533.1Q167.7 533.1 167.0 532.4Q166.3 531.7 166.3 530.5Q166.3 529.3 167.0 528.6Q167.7 527.9 168.9 527.9L168.9 527.9L170.3 527.9L170.3 525.1Q170.3 523.5 171.2 522.5Q172.1 521.6 173.7 521.6Q175.3 521.6 176.2 522.5Q177.1 523.5 177.1 525.1L177.1 525.1L177.1 527.9L179.5 527.9Q180.7 527.9 181.4 528.6Q182.1 529.3 182.1 530.5Q182.1 531.7 181.4 532.4Q180.7 533.1 179.5 533.1L179.5 533.1L177.1 533.1L177.1 545.1Q177.1 546.5 177.6 547.1Q178.1 547.7 179.2 547.8L179.2 547.8L179.6 547.8Q180.9 548.0 181.6 548.5Q182.2 549.1 182.2 550.3L182.2 550.3Q182.2 551.8 180.9 552.6Q179.6 553.3 177.4 553.3L177.4 553.3L177.1 553.3Q170.3 553.3 170.3 546.6ZM197.0 553.6L197.0 553.6Q191.2 553.6 187.9 550.2Q184.6 546.7 184.6 540.6L184.6 540.6Q184.6 534.5 187.9 531.0Q191.1 527.4 196.7 527.4L196.7 527.4Q202.0 527.4 205.3 530.7Q208.6 533.9 208.6 539.1L208.6 539.1Q208.6 540.5 207.9 541.3Q207.1 542.1 205.6 542.1L205.6 542.1L191.3 542.1L191.3 542.4Q191.3 545.2 192.9 546.9Q194.4 548.5 197.0 548.5L197.0 548.5Q198.9 548.5 200.3 547.8Q201.6 547.2 203.0 545.5L203.0 545.5Q204.0 544.5 205.3 544.5L205.3 544.5Q206.4 544.5 207.2 545.2Q207.9 545.9 207.9 547.0L207.9 547.0Q207.9 547.8 207.5 548.7L207.5 548.7Q206.2 551 203.4 552.3Q200.7 553.6 197.0 553.6ZM191.4 537.9L191.4 537.9L202.0 537.9Q201.9 535.4 200.5 533.9Q199.0 532.5 196.8 532.5Q194.5 532.5 193.1 534.0Q191.6 535.5 191.4 537.9ZM215.6 553.6L215.6 553.6Q214.0 553.6 213.1 552.6Q212.1 551.7 212.1 550.0L212.1 550.0L212.1 530.9Q212.1 529.3 213.0 528.3Q213.9 527.4 215.4 527.4L215.4 527.4Q216.9 527.4 217.8 528.3Q218.7 529.3 218.7 530.9L218.7 530.9L218.7 532.5L218.8 532.5Q219.3 530.2 220.7 528.9Q222.1 527.5 224.0 527.5L224.0 527.5Q225.4 527.5 226.2 528.2L226.2 528.2Q227.2 528.9 227.2 530.7L227.2 530.7Q227.2 532.3 226.2 533.2L226.2 533.2Q225.2 534.0 223.2 534.1L223.2 534.1Q221.0 534.1 220.0 535.3Q219.0 536.5 219.0 538.8L219.0 538.8L219.0 550.0Q219.0 551.7 218.1 552.6Q217.2 553.6 215.6 553.6ZM242.6 553.6L242.6 553.6Q237.5 553.6 234.1 551.8Q230.8 550.0 229.7 547.1L229.7 547.1Q229.4 546.1 229.4 545.2L229.4 545.2Q229.4 543.8 230.2 543.0Q231.1 542.1 232.5 542.1L232.5 542.1Q233.6 542.1 234.3 542.6Q235.1 543.1 235.7 544.2L235.7 544.2Q236.5 546.1 238.4 547.0Q240.2 547.9 242.7 547.9L242.7 547.9Q245.6 547.9 247.3 546.7Q249.1 545.5 249.1 543.6L249.1 543.6Q249.1 541.9 247.8 540.9Q246.4 539.9 243.3 539.3L243.3 539.3L239.7 538.6Q229.6 536.6 229.6 528.9L229.6 528.9Q229.6 525.9 231.3 523.5Q232.9 521.2 235.9 519.9Q238.8 518.7 242.5 518.7L242.5 518.7Q247.2 518.7 250.5 520.5Q253.8 522.4 254.9 525.7L254.9 525.7Q255.1 526.4 255.1 527.2L255.1 527.2Q255.1 528.5 254.3 529.3Q253.5 530.1 252.1 530.1L252.1 530.1Q250.9 530.1 250.1 529.6Q249.4 529.1 248.8 528.0L248.8 528.0Q247.2 524.4 242.5 524.4L242.5 524.4Q239.9 524.4 238.3 525.5Q236.7 526.6 236.7 528.5L236.7 528.5Q236.7 530.1 238.1 531.1Q239.4 532.1 242.4 532.7L242.4 532.7L245.9 533.4Q251.3 534.5 253.7 536.7Q256.2 539.0 256.2 542.8L256.2 542.8Q256.2 547.8 252.5 550.7Q248.9 553.6 242.6 553.6ZM266.0 552.6Q265.0 553.6 263.5 553.6Q261.9 553.6 261.0 552.6Q260.1 551.7 260.1 550.0L260.1 550.0L260.1 522.2Q260.1 520.6 261.0 519.7Q261.9 518.7 263.4 518.7L263.4 518.7Q265.0 518.7 265.9 519.7Q266.8 520.6 266.8 522.2L266.8 522.2L266.8 532.4L266.9 532.4Q267.9 530.0 270.0 528.7Q272 527.5 274.8 527.5L274.8 527.5Q279.0 527.5 281.3 530.0Q283.6 532.5 283.6 536.9L283.6 536.9L283.6 550.0Q283.6 551.7 282.7 552.6Q281.7 553.6 280.2 553.6Q278.6 553.6 277.7 552.6Q276.8 551.7 276.8 550.0L276.8 550.0L276.8 538.3Q276.8 535.9 275.6 534.5Q274.3 533.1 272.0 533.1L272.0 533.1Q269.7 533.1 268.3 534.7Q266.9 536.2 266.9 538.7L266.9 538.7L266.9 550.0Q266.9 551.7 266.0 552.6ZM294.1 523.8Q293.0 524.8 291.5 524.8Q290.0 524.8 288.9 523.8Q287.8 522.8 287.8 521.3L287.8 521.3Q287.8 519.8 288.9 518.8Q290.0 517.7 291.5 517.7Q293.0 517.7 294.1 518.8Q295.2 519.8 295.2 521.3L295.2 521.3Q295.2 522.8 294.1 523.8ZM294.0 552.6Q293.1 553.6 291.5 553.6Q289.9 553.6 289.0 552.6Q288.1 551.7 288.1 550.0L288.1 550.0L288.1 531.0Q288.1 529.3 289.0 528.4Q289.9 527.4 291.5 527.4Q293.1 527.4 294.0 528.4Q294.9 529.3 294.9 531.0L294.9 531.0L294.9 550.0Q294.9 551.7 294.0 552.6ZM307.2 552.6Q306.3 553.6 304.7 553.6Q303.1 553.6 302.2 552.6Q301.3 551.7 301.3 550.0L301.3 550.0L301.3 533.1L300.0 533.1Q298.9 533.1 298.2 532.4Q297.5 531.7 297.5 530.6Q297.5 529.4 298.2 528.7Q298.9 528.1 300.0 528.1L300.0 528.1L301.3 528.1L301.3 526.2Q301.3 522.5 303.1 520.7Q304.9 519.0 308.5 518.9L308.5 518.9Q311.1 518.9 312.4 519.7Q313.6 520.4 313.6 521.7L313.6 521.7Q313.6 523.1 312.2 523.5L312.2 523.5Q311.6 523.7 310.9 523.7L310.9 523.7Q309.4 523.7 308.7 524.4Q308.0 525.1 308.0 526.5L308.0 526.5L308.0 528.1L310.9 528.1Q312.0 528.1 312.7 528.7Q313.4 529.4 313.4 530.6Q313.4 531.7 312.7 532.4Q312.0 533.1 310.9 533.1L310.9 533.1L308.1 533.1L308.1 550.0Q308.1 551.7 307.2 552.6ZM318.4 546.6L318.4 546.6L318.4 533.1L317.1 533.1Q315.9 533.1 315.1 532.4Q314.4 531.7 314.4 530.5Q314.4 529.3 315.1 528.6Q315.9 527.9 317.1 527.9L317.1 527.9L318.4 527.9L318.4 525.1Q318.4 523.5 319.3 522.5Q320.2 521.6 321.8 521.6Q323.4 521.6 324.3 522.5Q325.2 523.5 325.2 525.1L325.2 525.1L325.2 527.9L327.6 527.9Q328.9 527.9 329.6 528.6Q330.3 529.3 330.3 530.5Q330.3 531.7 329.6 532.4Q328.9 533.1 327.6 533.1L327.6 533.1L325.2 533.1L325.2 545.1Q325.2 546.5 325.7 547.1Q326.2 547.7 327.3 547.8L327.3 547.8L327.8 547.8Q329.1 548.0 329.7 548.5Q330.4 549.1 330.4 550.3L330.4 550.3Q330.4 551.8 329.0 552.6Q327.7 553.3 325.5 553.3L325.5 553.3L325.3 553.3Q318.4 553.3 318.4 546.6Z "/><mask id="satori_om-id-0-1-1"><rect x="924" y="524" width="236" height="36" fill="#fff"/></mask><path fill="#8e8e8e" d="M927.9 552.6Q927.5 552.9 927.0 552.9Q926.4 552.9 926.1 552.6Q925.8 552.2 925.8 551.7L925.8 551.7L925.8 532.6Q925.8 532.0 926.1 531.6Q926.5 531.3 927.1 531.3Q927.6 531.3 928.0 531.6Q928.3 532.0 928.3 532.6L928.3 532.6L928.3 540.0L928.4 540.0Q929.1 538.7 930.4 537.9Q931.7 537.2 933.3 537.2L933.3 537.2Q936.2 537.2 937.9 539.3Q939.7 541.5 939.7 545.0L939.7 545.0Q939.7 548.6 937.9 550.8Q936.2 552.9 933.2 552.9L933.2 552.9Q931.6 552.9 930.3 552.2Q929.0 551.4 928.3 550.1L928.3 550.1L928.2 550.1L928.2 551.7Q928.2 552.2 927.9 552.6ZM932.7 550.7L932.7 550.7Q934.8 550.7 935.9 549.2Q937.1 547.7 937.1 545.0L937.1 545.0Q937.1 542.5 935.9 540.9Q934.8 539.4 932.7 539.4L932.7 539.4Q930.8 539.4 929.6 541.0Q928.3 542.5 928.3 545.0L928.3 545.0Q928.3 547.6 929.6 549.1Q930.8 550.7 932.7 550.7ZM943.8 558.4L943.8 558.4Q942.9 558.4 942.4 558.0Q941.9 557.7 941.9 557.1L941.9 557.1Q941.9 556.7 942.1 556.4Q942.4 556.2 942.9 556.2L942.9 556.2Q943.1 556.2 943.3 556.2Q943.5 556.2 943.7 556.2L943.7 556.2Q945.4 556.2 946.2 553.7L946.2 553.7L946.6 552.7L941.3 539.0Q941.2 538.6 941.2 538.3L941.2 538.3Q941.2 537.8 941.6 537.5Q941.9 537.2 942.5 537.2L942.5 537.2Q943.4 537.2 943.7 538.1L943.7 538.1L947.9 550.1L948.0 550.1L952.2 538.1Q952.3 537.6 952.6 537.4Q952.9 537.2 953.4 537.2L953.4 537.2Q953.9 537.2 954.3 537.5Q954.6 537.8 954.6 538.3L954.6 538.3Q954.6 538.6 954.5 539.0L954.5 539.0L948.9 553.7Q947.9 556.4 946.8 557.4Q945.7 558.4 943.8 558.4Z M965.7 552.5Q965.3 552.9 964.7 552.9Q964.1 552.9 963.8 552.5Q963.4 552.1 963.4 551.5L963.4 551.5L963.4 532.9Q963.4 532.3 963.8 531.9Q964.1 531.5 964.7 531.5L964.7 531.5L970.9 531.5Q973.9 531.5 975.8 533.4Q977.7 535.3 977.7 538.3L977.7 538.3Q977.7 541.3 975.8 543.2Q973.9 545.1 970.9 545.1L970.9 545.1L966.0 545.1L966.0 551.5Q966.0 552.1 965.7 552.5ZM966.0 533.9L966.0 542.8L970.3 542.8Q972.5 542.8 973.8 541.6Q975.0 540.4 975.0 538.3Q975.0 536.2 973.8 535.0Q972.5 533.9 970.3 533.9L970.3 533.9L966.0 533.9ZM984.8 552.9L984.8 552.9Q982.5 552.9 981.1 551.7Q979.7 550.4 979.7 548.4L979.7 548.4Q979.7 546.4 981.2 545.2Q982.6 544.1 985.2 543.9L985.2 543.9L989.6 543.7L989.6 542.4Q989.6 541.0 988.7 540.2Q987.9 539.4 986.3 539.4L986.3 539.4Q985.0 539.4 984.1 539.9Q983.3 540.4 982.6 541.5L982.6 541.5Q982.3 542.1 981.6 542.1L981.6 542.1Q981.1 542.1 980.8 541.8Q980.5 541.5 980.5 541.0Q980.5 540.5 980.8 539.9L980.8 539.9Q981.4 538.7 982.9 537.9Q984.5 537.2 986.3 537.2L986.3 537.2Q989.0 537.2 990.6 538.5Q992.2 539.9 992.2 542.1L992.2 542.1L992.2 551.6Q992.2 552.2 991.8 552.6Q991.5 552.9 991.0 552.9L991.0 552.9Q990.4 552.9 990.1 552.6Q989.7 552.2 989.7 551.6L989.7 551.6L989.7 550.0L989.7 550.0Q989.0 551.3 987.7 552.1Q986.3 552.9 984.8 552.9ZM985.3 550.8L985.3 550.8Q987.1 550.8 988.4 549.6Q989.6 548.5 989.6 546.9L989.6 546.9L989.6 545.6L985.5 545.9Q984.0 546.0 983.1 546.6Q982.3 547.3 982.3 548.4Q982.3 549.4 983.1 550.1Q984.0 550.8 985.3 550.8ZM996.2 549.1L996.2 549.1L996.2 539.5L994.9 539.5Q994.4 539.5 994.1 539.3Q993.8 539.0 993.8 538.5L993.8 538.5Q993.8 538.0 994.1 537.7Q994.4 537.4 994.9 537.4L994.9 537.4L996.2 537.4L996.2 534.8Q996.2 534.2 996.6 533.8Q996.9 533.5 997.5 533.5Q998.0 533.5 998.4 533.8Q998.8 534.2 998.8 534.8L998.8 534.8L998.8 537.4L1000.7 537.4Q1001.3 537.4 1001.6 537.7Q1001.9 538.0 1001.9 538.5L1001.9 538.5Q1001.9 539.0 1001.6 539.3Q1001.3 539.5 1000.7 539.5L1000.7 539.5L998.8 539.5L998.8 548.6Q998.8 549.6 999.2 550.0Q999.6 550.5 1000.5 550.6L1000.5 550.6L1000.7 550.6Q1001.9 550.7 1001.9 551.6L1001.9 551.6Q1001.9 552.2 1001.5 552.5Q1001.1 552.8 1000.1 552.8L1000.1 552.8L999.9 552.8Q996.2 552.8 996.2 549.1ZM1006.6 552.5Q1006.3 552.9 1005.7 552.9Q1005.2 552.9 1004.8 552.5Q1004.4 552.2 1004.4 551.6L1004.4 551.6L1004.4 538.5Q1004.4 537.9 1004.8 537.5Q1005.1 537.2 1005.6 537.2Q1006.2 537.2 1006.5 537.5Q1006.8 537.9 1006.8 538.5L1006.8 538.5L1006.8 539.9L1006.9 539.9Q1007.2 538.7 1008.2 537.9Q1009.2 537.2 1010.4 537.2L1010.4 537.2Q1011.2 537.2 1011.6 537.5L1011.6 537.5Q1011.9 537.8 1011.9 538.4L1011.9 538.4Q1011.9 539.0 1011.5 539.3L1011.5 539.3Q1011.1 539.6 1010.3 539.6L1010.3 539.6Q1008.6 539.6 1007.8 540.6Q1007.0 541.6 1007.0 543.2L1007.0 543.2L1007.0 551.6Q1007.0 552.2 1006.6 552.5ZM1015.1 534.9L1015.1 534.9Q1014.4 534.9 1014.0 534.4Q1013.5 533.9 1013.5 533.3L1013.5 533.3Q1013.5 532.6 1014.0 532.2Q1014.4 531.7 1015.1 531.7L1015.1 531.7Q1015.7 531.7 1016.2 532.2Q1016.7 532.6 1016.7 533.3L1016.7 533.3Q1016.7 533.9 1016.2 534.4Q1015.7 534.9 1015.1 534.9ZM1016.0 552.5Q1015.6 552.9 1015.1 552.9Q1014.5 552.9 1014.2 552.5Q1013.8 552.2 1013.8 551.6L1013.8 551.6L1013.8 538.5Q1013.8 537.9 1014.2 537.5Q1014.5 537.2 1015.1 537.2Q1015.6 537.2 1016.0 537.5Q1016.4 537.9 1016.4 538.5L1016.4 538.5L1016.4 551.6Q1016.4 552.2 1016.0 552.5ZM1026.1 552.9L1026.1 552.9Q1022.9 552.9 1021.0 550.8Q1019.1 548.7 1019.1 545.1Q1019.1 541.5 1021.0 539.3Q1022.9 537.2 1026.1 537.2L1026.1 537.2Q1028.2 537.2 1029.9 538.2Q1031.6 539.3 1032.0 540.9L1032.0 540.9Q1032.1 541.2 1032.1 541.4L1032.1 541.4Q1032.1 542.0 1031.8 542.3Q1031.5 542.6 1031.0 542.6L1031.0 542.6Q1030.6 542.6 1030.3 542.4Q1030.1 542.2 1029.8 541.7L1029.8 541.7Q1028.6 539.4 1026.1 539.4L1026.1 539.4Q1024.1 539.4 1022.9 541.0Q1021.6 542.5 1021.6 545.0L1021.6 545.0Q1021.6 547.6 1022.9 549.2Q1024.1 550.7 1026.1 550.7L1026.1 550.7Q1027.4 550.7 1028.3 550.1Q1029.2 549.6 1029.8 548.4L1029.8 548.4Q1030.1 547.9 1030.3 547.7Q1030.6 547.5 1031.0 547.5L1031.0 547.5Q1031.5 547.5 1031.8 547.8Q1032.1 548.2 1032.1 548.7L1032.1 548.7Q1032.1 548.9 1032.0 549.3L1032.0 549.3Q1031.4 550.9 1029.8 551.9Q1028.2 552.9 1026.1 552.9ZM1041.2 552.9L1041.2 552.9Q1037.8 552.9 1036.0 550.9Q1034.1 548.8 1034.1 545.1L1034.1 545.1Q1034.1 541.5 1036.0 539.3Q1037.8 537.2 1041.0 537.2L1041.0 537.2Q1043.9 537.2 1045.8 539.1Q1047.6 541.1 1047.6 544.3L1047.6 544.3Q1047.6 544.9 1047.3 545.3Q1046.9 545.7 1046.2 545.7L1046.2 545.7L1036.7 545.7Q1036.7 548.0 1037.9 549.4Q1039.1 550.7 1041.1 550.7L1041.1 550.7Q1042.5 550.7 1043.4 550.2Q1044.3 549.6 1045.2 548.3L1045.2 548.3Q1045.6 547.8 1046.2 547.8L1046.2 547.8Q1046.7 547.8 1047.0 548.1Q1047.3 548.4 1047.3 548.9L1047.3 548.9Q1047.3 549.2 1047.1 549.7L1047.1 549.7Q1046.4 551.2 1044.8 552.1Q1043.3 552.9 1041.2 552.9ZM1036.7 543.7L1036.7 543.7L1045.0 543.7Q1045.0 541.8 1043.8 540.6Q1042.7 539.4 1041.0 539.4L1041.0 539.4Q1039.2 539.4 1038.0 540.6Q1036.8 541.8 1036.7 543.7Z M1059.0 552.5Q1058.7 552.9 1058.1 552.9Q1057.5 552.9 1057.1 552.5Q1056.7 552.1 1056.7 551.5L1056.7 551.5L1056.7 532.7Q1056.7 532.1 1057.1 531.7Q1057.5 531.3 1058.1 531.3Q1058.7 531.3 1059.0 531.7Q1059.4 532.1 1059.4 532.7L1059.4 532.7L1059.4 541.8L1059.5 541.8L1068.9 531.8Q1069.4 531.3 1070.0 531.3L1070.0 531.3Q1070.5 531.3 1070.9 531.7Q1071.2 532.0 1071.2 532.5L1071.2 532.5Q1071.2 533.0 1070.9 533.3L1070.9 533.3L1063.6 540.9L1071.7 550.6Q1072.1 551.1 1072.1 551.6L1072.1 551.6Q1072.1 552.2 1071.7 552.5Q1071.3 552.9 1070.8 552.9L1070.8 552.9Q1070.1 552.9 1069.6 552.2L1069.6 552.2L1061.7 542.8L1059.4 545.3L1059.4 551.5Q1059.4 552.1 1059.0 552.5ZM1081.2 552.9L1081.2 552.9Q1077.8 552.9 1075.9 550.9Q1074.1 548.8 1074.1 545.1L1074.1 545.1Q1074.1 541.5 1075.9 539.3Q1077.8 537.2 1081.0 537.2L1081.0 537.2Q1083.9 537.2 1085.8 539.1Q1087.6 541.1 1087.6 544.3L1087.6 544.3Q1087.6 544.9 1087.2 545.3Q1086.9 545.7 1086.2 545.7L1086.2 545.7L1076.7 545.7Q1076.7 548.0 1077.9 549.4Q1079.1 550.7 1081.1 550.7L1081.1 550.7Q1082.5 550.7 1083.4 550.2Q1084.3 549.6 1085.2 548.3L1085.2 548.3Q1085.6 547.8 1086.2 547.8L1086.2 547.8Q1086.7 547.8 1087.0 548.1Q1087.3 548.4 1087.3 548.9L1087.3 548.9Q1087.3 549.2 1087.1 549.7L1087.1 549.7Q1086.4 551.2 1084.8 552.1Q1083.3 552.9 1081.2 552.9ZM1076.7 543.7L1076.7 543.7L1085.0 543.7Q1084.9 541.8 1083.8 540.6Q1082.7 539.4 1080.9 539.4L1080.9 539.4Q1079.1 539.4 1078.0 540.6Q1076.8 541.8 1076.7 543.7ZM1092.4 552.5Q1092.0 552.9 1091.4 552.9Q1090.9 552.9 1090.5 552.5Q1090.2 552.2 1090.2 551.6L1090.2 551.6L1090.2 538.5Q1090.2 537.9 1090.5 537.5Q1090.8 537.2 1091.4 537.2Q1091.9 537.2 1092.2 537.5Q1092.6 537.9 1092.6 538.5L1092.6 538.5L1092.6 539.9L1092.6 539.9Q1093.3 538.6 1094.5 537.9Q1095.8 537.2 1097.5 537.2L1097.5 537.2Q1100.0 537.2 1101.3 538.7Q1102.7 540.2 1102.7 542.8L1102.7 542.8L1102.7 551.6Q1102.7 552.2 1102.4 552.5Q1102.0 552.9 1101.5 552.9Q1100.9 552.9 1100.6 552.5Q1100.2 552.2 1100.2 551.6L1100.2 551.6L1100.2 543.2Q1100.2 541.4 1099.3 540.4Q1098.4 539.4 1096.7 539.4L1096.7 539.4Q1094.9 539.4 1093.8 540.6Q1092.7 541.8 1092.7 543.7L1092.7 543.7L1092.7 551.6Q1092.7 552.2 1092.4 552.5ZM1108.2 552.5Q1107.8 552.9 1107.3 552.9Q1106.7 552.9 1106.3 552.5Q1106.0 552.2 1106.0 551.6L1106.0 551.6L1106.0 538.5Q1106.0 537.9 1106.3 537.5Q1106.7 537.2 1107.2 537.2Q1107.7 537.2 1108.0 537.5Q1108.4 537.9 1108.4 538.5L1108.4 538.5L1108.4 539.9L1108.4 539.9Q1109.0 538.6 1110.1 537.9Q1111.3 537.2 1112.8 537.2L1112.8 537.2Q1114.3 537.2 1115.4 537.9Q1116.5 538.7 1117.0 540.1L1117.0 540.1L1117.1 540.1Q1117.7 538.7 1119.0 537.9Q1120.3 537.2 1121.9 537.2L1121.9 537.2Q1124.1 537.2 1125.5 538.5Q1126.8 539.9 1126.8 542.1L1126.8 542.1L1126.8 551.6Q1126.8 552.2 1126.5 552.5Q1126.1 552.9 1125.6 552.9Q1125.0 552.9 1124.6 552.5Q1124.3 552.2 1124.3 551.6L1124.3 551.6L1124.3 542.7Q1124.3 541.2 1123.5 540.3Q1122.6 539.4 1121.1 539.4Q1119.6 539.4 1118.6 540.4Q1117.7 541.4 1117.7 543.0L1117.7 543.0L1117.7 551.6Q1117.7 552.2 1117.3 552.5Q1117.0 552.9 1116.4 552.9Q1115.8 552.9 1115.5 552.5Q1115.1 552.2 1115.1 551.6L1115.1 551.6L1115.1 542.5Q1115.1 541.1 1114.3 540.2Q1113.4 539.4 1112.0 539.4L1112.0 539.4Q1110.5 539.4 1109.5 540.5Q1108.5 541.5 1108.5 543.1L1108.5 543.1L1108.5 551.6Q1108.5 552.2 1108.2 552.5ZM1136.4 552.9L1136.4 552.9Q1133.2 552.9 1131.3 550.8Q1129.3 548.7 1129.3 545.0Q1129.3 541.4 1131.3 539.3Q1133.2 537.2 1136.4 537.2L1136.4 537.2Q1139.6 537.2 1141.5 539.3Q1143.4 541.4 1143.4 545.0L1143.4 545.0Q1143.4 548.7 1141.5 550.8Q1139.6 552.9 1136.4 552.9ZM1133.1 549.2Q1134.3 550.7 1136.4 550.7Q1138.4 550.7 1139.6 549.2Q1140.8 547.7 1140.8 545.0Q1140.8 542.4 1139.6 540.9Q1138.4 539.4 1136.4 539.4Q1134.3 539.4 1133.1 540.9Q1131.9 542.4 1131.9 545.0Q1131.9 547.7 1133.1 549.2ZM1152.5 535.6L1152.5 535.6Q1152.1 535.6 1151.9 535.4Q1151.6 535.2 1151.6 534.8Q1151.6 534.5 1151.8 534.2L1151.8 534.2L1154.0 531.1Q1154.3 530.6 1154.6 530.5Q1154.8 530.3 1155.1 530.3L1155.1 530.3Q1155.6 530.3 1155.9 530.6Q1156.2 530.9 1156.2 531.3L1156.2 531.3Q1156.2 531.7 1155.9 532.1L1155.9 532.1L1153.4 535.1Q1153.0 535.6 1152.5 535.6ZM1152.4 552.9L1152.4 552.9Q1149.0 552.9 1147.1 550.9Q1145.3 548.8 1145.3 545.1L1145.3 545.1Q1145.3 541.5 1147.1 539.3Q1149.0 537.2 1152.2 537.2L1152.2 537.2Q1155.1 537.2 1156.9 539.1Q1158.8 541.1 1158.8 544.3L1158.8 544.3Q1158.8 544.9 1158.4 545.3Q1158.1 545.7 1157.4 545.7L1157.4 545.7L1147.9 545.7Q1147.9 548.0 1149.1 549.4Q1150.2 550.7 1152.3 550.7L1152.3 550.7Q1153.6 550.7 1154.6 550.2Q1155.5 549.6 1156.4 548.3L1156.4 548.3Q1156.8 547.8 1157.3 547.8L1157.3 547.8Q1157.9 547.8 1158.2 548.1Q1158.5 548.4 1158.5 548.9L1158.5 548.9Q1158.5 549.2 1158.3 549.7L1158.3 549.7Q1157.6 551.2 1156.0 552.1Q1154.5 552.9 1152.4 552.9ZM1147.9 543.7L1147.9 543.7L1156.2 543.7Q1156.1 541.8 1155.0 540.6Q1153.9 539.4 1152.1 539.4L1152.1 539.4Q1150.3 539.4 1149.2 540.6Q1148.0 541.8 1147.9 543.7Z "/></svg>