<svg width="1200" height="630" viewBox="0 0 1200 630" xmlns="http://www.w3.org/2000/svg"><mask id="satori_om-id"><rect x="0" y="0" width="1200" height="630" fill="#fff"/></mask><mask id="satori_om-id-0"><rect x="0" y="0" width="1200" height="630" fill="#fff"/></mask><rect x="0" y="0" width="1200" height="630" fill="#f2f2f2"/><mask id="satori_om-id-0-0"><rect x="0" y="0" width="1200" height="441" fill="#fff"/></mask><mask id="satori_om-id-0-0-0"><rect x="40" y="136" width="1120" height="36" fill="#fff"/></mask><path fill="#8e8e8e" d="M44.5 164.5Q44.1 164.9 43.4 164.9Q42.7 164.9 42.3 164.5Q41.9 164.1 41.9 163.3L41.9 163.3L41.9 145.4Q41.9 144.4 42.5 143.9Q43.1 143.3 44.1 143.3L44.1 143.3Q44.9 143.3 45.4 143.7Q46.0 144.1 46.3 145.0L46.3 145.0L52.6 160.2L52.7 160.2L58.9 145.0Q59.3 144.1 59.9 143.7Q60.4 143.3 61.3 143.3L61.3 143.3Q62.2 143.3 62.8 143.8Q63.3 144.4 63.3 145.4L63.3 145.4L63.3 163.3Q63.3 164.1 62.9 164.5Q62.5 164.9 61.8 164.9L61.8 164.9Q61.1 164.9 60.7 164.5Q60.3 164.1 60.3 163.3L60.3 163.3L60.3 149.1L60.2 149.1L54.3 163.3Q53.8 164.5 52.6 164.5L52.6 164.5Q51.4 164.5 50.9 163.3L50.9 163.3L45.0 149.1L44.9 149.1L44.9 163.3Q44.9 164.1 44.5 164.5ZM78.8 162.8Q76.8 165.0 73.5 165.0Q70.1 165.0 68.2 162.8Q66.2 160.7 66.2 157.0L66.2 157.0Q66.2 153.3 68.2 151.1Q70.1 149.0 73.5 149.0Q76.8 149.0 78.8 151.1Q80.8 153.3 80.8 157.0L80.8 157.0Q80.8 160.7 78.8 162.8ZM73.5 162.3L73.5 162.3Q75.4 162.3 76.5 160.9Q77.6 159.5 77.6 157.0L77.6 157.0Q77.6 154.4 76.5 153.0Q75.3 151.6 73.5 151.6Q71.6 151.6 70.5 153.0Q69.4 154.4 69.4 157.0L69.4 157.0Q69.4 159.5 70.5 160.9Q71.6 162.3 73.5 162.3ZM84.8 164.9L84.8 164.9Q84.1 164.9 83.7 164.5Q83.2 164.0 83.2 163.3L83.2 163.3L83.2 150.6Q83.2 149.8 83.6 149.4Q84.0 149.0 84.7 149.0Q85.4 149.0 85.8 149.4Q86.3 149.9 86.3 150.6L86.3 150.6L86.3 151.8L86.3 151.8Q87.7 149.0 91.2 149.0L91.2 149.0Q93.7 149.0 95.1 150.5Q96.5 152.0 96.5 154.7L96.5 154.7L96.5 163.3Q96.5 164.0 96.1 164.5Q95.6 164.9 94.9 164.9L94.9 164.9Q94.2 164.9 93.8 164.5Q93.3 164.0 93.3 163.3L93.3 163.3L93.3 155.3Q93.3 153.5 92.5 152.6Q91.7 151.7 90.1 151.7L90.1 151.7Q88.4 151.7 87.4 152.8Q86.4 153.9 86.4 155.7L86.4 155.7L86.4 163.3Q86.4 164.0 86.0 164.5Q85.5 164.9 84.8 164.9ZM105.3 164.9L105.3 164.9Q102.4 164.9 100.6 162.8Q98.9 160.6 98.9 157.0Q98.9 153.3 100.6 151.2Q102.4 149.0 105.3 149.0L105.3 149.0Q106.9 149.0 108.2 149.8Q109.5 150.5 110.2 151.8L110.2 151.8L110.2 151.8L110.2 144.9Q110.2 144.1 110.6 143.7Q111.1 143.2 111.8 143.2L111.8 143.2Q112.5 143.2 112.9 143.7Q113.4 144.2 113.4 144.9L113.4 144.9L113.4 163.4Q113.4 164.1 113.0 164.5Q112.5 164.9 111.8 164.9L111.8 164.9Q111.1 164.9 110.7 164.5Q110.2 164.1 110.2 163.4L110.2 163.4L110.2 161.9L110.2 161.9Q109.6 163.3 108.3 164.1Q107.1 164.9 105.3 164.9ZM106.2 162.2L106.2 162.2Q108.0 162.2 109.1 160.8Q110.2 159.4 110.2 157.0L110.2 157.0Q110.2 154.6 109.1 153.1Q108.0 151.7 106.2 151.7L106.2 151.7Q104.3 151.7 103.2 153.1Q102.1 154.5 102.1 157.0L102.1 157.0Q102.1 159.4 103.2 160.8Q104.3 162.2 106.2 162.2ZM121.1 164.9L121.1 164.9Q118.9 164.9 117.4 163.6Q116.0 162.3 116.0 160.3L116.0 160.3Q116.0 158.3 117.5 157.1Q119.0 155.9 121.7 155.7L121.7 155.7L126.0 155.5L126.0 154.3Q126.0 153.0 125.1 152.3Q124.3 151.6 122.9 151.6L122.9 151.6Q121.7 151.6 120.9 152.0Q120.1 152.5 119.5 153.5L119.5 153.5Q119.0 154.2 118.2 154.2L118.2 154.2Q117.6 154.2 117.2 153.8Q116.8 153.4 116.8 152.9L116.8 152.9Q116.8 152.3 117.1 151.8L117.1 151.8Q117.7 150.5 119.3 149.8Q120.9 149.0 123.0 149.0L123.0 149.0Q125.8 149.0 127.4 150.4Q129.1 151.7 129.1 154.0L129.1 154.0L129.1 163.3Q129.1 164.1 128.7 164.5Q128.3 164.9 127.6 164.9L127.6 164.9Q126.9 164.9 126.5 164.5Q126.1 164.1 126.1 163.4L126.1 163.4L126.1 162.1L126.0 162.1Q125.3 163.4 124.0 164.2Q122.7 164.9 121.1 164.9ZM122.0 162.4L122.0 162.4Q123.7 162.4 124.8 161.4Q126.0 160.4 126.0 158.9L126.0 158.9L126.0 157.7L122.1 157.9Q120.7 158.0 120.0 158.6Q119.2 159.2 119.2 160.2L119.2 160.2Q119.2 161.2 120.0 161.8Q120.7 162.4 122.0 162.4ZM134.1 170.4L134.1 170.4Q133.0 170.4 132.4 170.0Q131.8 169.6 131.8 168.9L131.8 168.9Q131.8 168.4 132.1 168.1Q132.5 167.8 133.0 167.8L133.0 167.8Q133.2 167.8 133.4 167.8Q133.7 167.8 133.9 167.8L133.9 167.8Q135.4 167.8 136.2 165.7L136.2 165.7L136.5 164.8L131.3 151.3Q131.2 150.9 131.2 150.4L131.2 150.4Q131.2 149.8 131.6 149.4Q132.1 149.0 132.8 149.0L132.8 149.0Q133.4 149.0 133.7 149.3Q134.1 149.5 134.3 150.2L134.3 150.2L138.2 161.8L138.3 161.8L142.2 150.2Q142.4 149.5 142.8 149.3Q143.1 149.0 143.7 149.0L143.7 149.0Q144.4 149.0 144.8 149.4Q145.2 149.8 145.2 150.4L145.2 150.4Q145.2 150.8 145.1 151.3L145.1 151.3L139.7 165.4Q138.7 168.2 137.5 169.3Q136.2 170.4 134.1 170.4ZM149.7 161.1L149.7 161.1Q150.4 161.1 150.8 161.5Q151.2 161.8 151.2 162.4L151.2 162.4Q151.2 162.8 151.1 163.3L151.1 163.3L149.8 168.3Q149.5 169.4 148.5 169.4L148.5 169.4Q147.9 169.4 147.6 169.1Q147.2 168.7 147.2 168.2L147.2 168.2Q147.2 168.1 147.3 167.8L147.3 167.8L148.2 162.4Q148.4 161.1 149.7 161.1Z M168.8 165.1L168.8 165.1Q166.2 165.1 164.5 164.1Q162.7 163.2 161.8 161.6L161.8 161.6Q161.3 160.8 161.3 160.0L161.3 160.0Q161.3 159.3 161.7 158.9Q162.1 158.5 162.8 158.5L162.8 158.5Q163.4 158.5 163.7 158.8Q164.0 159.1 164.3 159.6L164.3 159.6Q165.4 162.3 168.8 162.3L168.8 162.3Q170.7 162.3 171.9 161.3Q173.1 160.4 173.1 158.8L173.1 158.8Q173.1 157.0 171.9 156.0Q170.7 155.0 168.5 155.0L168.5 155.0L167.1 155.0Q166.5 155.0 166.1 154.7Q165.8 154.3 165.8 153.8Q165.8 153.2 166.1 152.8Q166.5 152.5 167.1 152.5L167.1 152.5L168.5 152.5Q170.3 152.5 171.4 151.5Q172.5 150.6 172.5 149.1L172.5 149.1Q172.5 147.6 171.5 146.7Q170.6 145.8 168.7 145.8L168.7 145.8Q167.2 145.8 166.2 146.5Q165.2 147.1 164.7 148.5L164.7 148.5Q164.4 149.1 164.1 149.4Q163.8 149.6 163.2 149.6L163.2 149.6Q162.5 149.6 162.1 149.3Q161.8 148.9 161.8 148.2L161.8 148.2Q161.8 147.4 162.2 146.6L162.2 146.6Q163.0 145.0 164.7 144.1Q166.4 143.1 168.7 143.1L168.7 143.1Q171.9 143.1 173.8 144.7Q175.7 146.2 175.7 148.6L175.7 148.6Q175.7 150.6 174.5 151.9Q173.3 153.2 171.3 153.6L171.3 153.6L171.3 153.7Q173.6 153.9 175.0 155.3Q176.4 156.6 176.4 158.8L176.4 158.8Q176.4 161.6 174.3 163.3Q172.1 165.1 168.8 165.1Z M188.8 164.4Q188.3 164.9 187.6 164.9Q186.8 164.9 186.4 164.4Q185.9 164.0 185.9 163.2L185.9 163.2L185.9 145.2Q185.9 144.4 186.4 144.0Q186.8 143.5 187.6 143.5L187.6 143.5L197.8 143.5Q198.5 143.5 199.0 143.9Q199.4 144.3 199.4 144.9Q199.4 145.6 199.0 146.0Q198.5 146.4 197.8 146.4L197.8 146.4L189.2 146.4L189.2 153.0L197.1 153.0Q197.7 153.0 198.1 153.4Q198.5 153.8 198.5 154.4Q198.5 155.1 198.1 155.4Q197.7 155.8 197.1 155.8L197.1 155.8L189.2 155.8L189.2 163.2Q189.2 164.0 188.8 164.4ZM208.3 165.0L208.3 165.0Q204.8 165.0 202.9 162.9Q200.9 160.8 200.9 157.0L200.9 157.0Q200.9 153.4 202.9 151.2Q204.8 149.0 208.1 149.0L208.1 149.0Q211.2 149.0 213.1 151.0Q215.0 153.0 215.0 156.1L215.0 156.1Q215.0 156.9 214.6 157.3Q214.2 157.8 213.4 157.8L213.4 157.8L204.1 157.8L204.1 157.8Q204.1 159.9 205.2 161.2Q206.3 162.4 208.2 162.4L208.2 162.4Q209.5 162.4 210.4 161.9Q211.3 161.4 212.2 160.2L212.2 160.2Q212.7 159.6 213.3 159.6L213.3 159.6Q213.9 159.6 214.3 160.0Q214.6 160.3 214.6 160.9L214.6 160.9Q214.6 161.3 214.4 161.8L214.4 161.8Q213.7 163.3 212.1 164.1Q210.4 165.0 208.3 165.0ZM204.1 155.5L204.1 155.5L211.8 155.5Q211.8 153.7 210.7 152.6Q209.7 151.5 208.1 151.5L208.1 151.5Q206.4 151.5 205.3 152.6Q204.3 153.7 204.1 155.5ZM219.1 164.9L219.1 164.9Q218.4 164.9 218.0 164.5Q217.6 164.1 217.6 163.4L217.6 163.4L217.6 144.9Q217.6 144.2 218.0 143.7Q218.4 143.2 219.2 143.2Q219.9 143.2 220.3 143.7Q220.7 144.2 220.7 144.9L220.7 144.9L220.7 151.9L220.8 151.9Q221.5 150.5 222.8 149.8Q224.1 149.0 225.7 149.0L225.7 149.0Q228.6 149.0 230.3 151.2Q232.1 153.3 232.1 157.0L232.1 157.0Q232.1 160.6 230.3 162.8Q228.6 164.9 225.7 164.9L225.7 164.9Q224.0 164.9 222.7 164.2Q221.4 163.4 220.7 162.0L220.7 162.0L220.6 162.0L220.6 163.4Q220.6 164.1 220.2 164.5Q219.8 164.9 219.1 164.9ZM224.8 162.2L224.8 162.2Q226.7 162.2 227.8 160.8Q228.8 159.4 228.8 157.0L228.8 157.0Q228.8 154.5 227.8 153.1Q226.7 151.7 224.8 151.7L224.8 151.7Q223.0 151.7 221.9 153.1Q220.7 154.6 220.7 157.0L220.7 157.0Q220.7 159.3 221.9 160.8Q223.0 162.2 224.8 162.2ZM236.1 164.9L236.1 164.9Q235.4 164.9 235.0 164.5Q234.5 164.0 234.5 163.3L234.5 163.3L234.5 150.6Q234.5 149.9 235.0 149.4Q235.4 149.0 236.1 149.0L236.1 149.0Q236.7 149.0 237.1 149.4Q237.5 149.9 237.5 150.6L237.5 150.6L237.5 151.9L237.6 151.9Q237.9 150.6 238.9 149.8Q239.8 149.0 241.0 149.0L241.0 149.0Q241.8 149.0 242.3 149.4L242.3 149.4Q242.7 149.7 242.7 150.5L242.7 150.5Q242.7 151.2 242.2 151.6L242.2 151.6Q241.7 152.0 240.8 152.0L240.8 152.0Q239.2 152.0 238.5 153.0Q237.7 153.9 237.7 155.4L237.7 155.4L237.7 163.3Q237.7 164.0 237.3 164.5Q236.8 164.9 236.1 164.9ZM249.7 164.9L249.7 164.9Q247.2 164.9 245.8 163.4Q244.3 161.9 244.3 159.2L244.3 159.2L244.3 150.7Q244.3 149.9 244.7 149.4Q245.2 149.0 245.9 149.0L245.9 149.0Q246.6 149.0 247.0 149.4Q247.5 149.9 247.5 150.7L247.5 150.7L247.5 158.6Q247.5 160.4 248.3 161.3Q249.2 162.2 250.8 162.2L250.8 162.2Q252.5 162.2 253.5 161.1Q254.4 160.0 254.4 158.2L254.4 158.2L254.4 150.7Q254.4 149.9 254.9 149.4Q255.3 149.0 256.0 149.0L256.0 149.0Q256.7 149.0 257.2 149.4Q257.6 149.9 257.6 150.7L257.6 150.7L257.6 163.3Q257.6 164.1 257.2 164.5Q256.8 164.9 256.1 164.9Q255.4 164.9 255.0 164.5Q254.6 164.1 254.6 163.3L254.6 163.3L254.6 162.1L254.5 162.1Q253.2 164.9 249.7 164.9ZM265.2 164.9L265.2 164.9Q263.0 164.9 261.5 163.6Q260.1 162.3 260.1 160.3L260.1 160.3Q260.1 158.3 261.6 157.1Q263.1 155.9 265.8 155.7L265.8 155.7L270.1 155.5L270.1 154.3Q270.1 153.0 269.2 152.3Q268.4 151.6 267.0 151.6L267.0 151.6Q265.8 151.6 265.0 152.0Q264.2 152.5 263.5 153.5L263.5 153.5Q263.1 154.2 262.3 154.2L262.3 154.2Q261.7 154.2 261.3 153.8Q260.9 153.4 260.9 152.9L260.9 152.9Q260.9 152.3 261.2 151.8L261.2 151.8Q261.8 150.5 263.4 149.8Q265 149.0 267.1 149.0L267.1 149.0Q269.9 149.0 271.5 150.4Q273.2 151.7 273.2 154.0L273.2 154.0L273.2 163.3Q273.2 164.1 272.8 164.5Q272.4 164.9 271.7 164.9L271.7 164.9Q271.0 164.9 270.6 164.5Q270.2 164.1 270.2 163.4L270.2 163.4L270.2 162.1L270.1 162.1Q269.4 163.4 268.1 164.2Q266.8 164.9 265.2 164.9ZM266.1 162.4L266.1 162.4Q267.8 162.4 268.9 161.4Q270.1 160.4 270.1 158.9L270.1 158.9L270.1 157.7L266.2 157.9Q264.8 158.0 264.1 158.6Q263.3 159.2 263.3 160.2L263.3 160.2Q263.3 161.2 264.1 161.8Q264.8 162.4 266.1 162.4ZM277.8 164.9L277.8 164.9Q277.1 164.9 276.7 164.5Q276.3 164.0 276.3 163.3L276.3 163.3L276.3 150.6Q276.3 149.9 276.7 149.4Q277.1 149.0 277.8 149.0L277.8 149.0Q278.4 149.0 278.9 149.4Q279.3 149.9 279.3 150.6L279.3 150.6L279.3 151.9L279.3 151.9Q279.7 150.6 280.6 149.8Q281.6 149.0 282.7 149.0L282.7 149.0Q283.6 149.0 284.0 149.4L284.0 149.4Q284.4 149.7 284.4 150.5L284.4 150.5Q284.4 151.2 283.9 151.6L283.9 151.6Q283.5 152.0 282.5 152.0L282.5 152.0Q280.9 152.0 280.2 153.0Q279.4 153.9 279.4 155.4L279.4 155.4L279.4 163.3Q279.4 164.0 279.0 164.5Q278.5 164.9 277.8 164.9ZM288.0 170.4L288.0 170.4Q286.9 170.4 286.3 170.0Q285.7 169.6 285.7 168.9L285.7 168.9Q285.7 168.4 286.1 168.1Q286.4 167.8 287.0 167.8L287.0 167.8Q287.1 167.8 287.4 167.8Q287.6 167.8 287.8 167.8L287.8 167.8Q289.4 167.8 290.1 165.7L290.1 165.7L290.4 164.8L285.3 151.3Q285.1 150.9 285.1 150.4L285.1 150.4Q285.1 149.8 285.6 149.4Q286.0 149.0 286.7 149.0L286.7 149.0Q287.3 149.0 287.7 149.3Q288.0 149.5 288.2 150.2L288.2 150.2L292.2 161.8L292.2 161.8L296.1 150.2Q296.3 149.5 296.7 149.3Q297.1 149.0 297.7 149.0L297.7 149.0Q298.3 149.0 298.8 149.4Q299.2 149.8 299.2 150.4L299.2 150.4Q299.2 150.8 299.0 151.3L299.0 151.3L293.7 165.4Q292.7 168.2 291.4 169.3Q290.2 170.4 288.0 170.4Z M320.6 164.7L308.9 164.7Q308.2 164.7 307.8 164.3Q307.4 163.9 307.4 163.3L307.4 163.3Q307.4 162.8 307.6 162.5Q307.8 162.1 308.3 161.6L308.3 161.6L314.9 154.9Q317.0 152.8 317.7 151.7Q318.3 150.6 318.3 149.3L318.3 149.3Q318.3 147.8 317.3 146.8Q316.3 145.8 314.7 145.8L314.7 145.8Q311.5 145.8 310.4 149.0L310.4 149.0Q310.2 149.5 309.8 149.8Q309.5 150.0 308.9 150.0L308.9 150.0Q308.3 150.0 307.9 149.6Q307.5 149.3 307.5 148.6L307.5 148.6Q307.5 148.3 307.6 148.0L307.6 148.0Q307.7 147.1 308.3 146.3Q308.8 145.4 309.7 144.7Q310.6 144.0 311.9 143.6Q313.2 143.1 314.7 143.1L314.7 143.1Q317.7 143.1 319.6 144.8Q321.6 146.5 321.6 149.1L321.6 149.1Q321.6 150.9 320.6 152.5Q319.6 154.0 316.9 156.8L316.9 156.8L311.8 161.8L311.8 161.9L320.6 161.9Q321.3 161.9 321.7 162.3Q322.1 162.7 322.1 163.3L322.1 163.3Q322.1 163.9 321.7 164.3Q321.3 164.7 320.6 164.7L320.6 164.7ZM338.5 162.1Q336.4 165.1 332.6 165.1Q328.8 165.1 326.6 162.1Q324.5 159.2 324.5 154.1L324.5 154.1Q324.5 149.0 326.6 146.1Q328.8 143.1 332.6 143.1L332.6 143.1Q336.3 143.1 338.5 146.1Q340.6 149.0 340.6 154.1L340.6 154.1Q340.6 159.1 338.5 162.1ZM332.6 162.3L332.6 162.3Q334.8 162.3 336.1 160.1Q337.3 157.9 337.3 154.1L337.3 154.1Q337.3 150.3 336.1 148.1Q334.8 145.9 332.6 145.9Q330.3 145.9 329.0 148.1Q327.8 150.3 327.8 154.1L327.8 154.1Q327.8 157.9 329.0 160.1Q330.3 162.3 332.6 162.3ZM356.7 164.7L345.0 164.7Q344.3 164.7 343.9 164.3Q343.5 163.9 343.5 163.3L343.5 163.3Q343.5 162.8 343.7 162.5Q343.9 162.1 344.4 161.6L344.4 161.6L351.0 154.9Q353.1 152.8 353.7 151.7Q354.4 150.6 354.4 149.3L354.4 149.3Q354.4 147.8 353.4 146.8Q352.3 145.8 350.8 145.8L350.8 145.8Q347.6 145.8 346.5 149.0L346.5 149.0Q346.3 149.5 345.9 149.8Q345.6 150.0 345.0 150.0L345.0 150.0Q344.4 150.0 344.0 149.6Q343.6 149.3 343.6 148.6L343.6 148.6Q343.6 148.3 343.7 148.0L343.7 148.0Q343.8 147.1 344.4 146.3Q344.9 145.4 345.8 144.7Q346.7 144.0 348.0 143.6Q349.3 143.1 350.8 143.1L350.8 143.1Q353.8 143.1 355.7 144.8Q357.7 146.5 357.7 149.1L357.7 149.1Q357.7 150.9 356.7 152.5Q355.7 154.0 353.0 156.8L353.0 156.8L347.9 161.8L347.9 161.9L356.7 161.9Q357.4 161.9 357.8 162.3Q358.2 162.7 358.2 163.3L358.2 163.3Q358.2 163.9 357.8 164.3Q357.4 164.7 356.7 164.7L356.7 164.7ZM368.5 165.1L368.5 165.1Q366.1 165.1 364.2 164.0Q362.3 162.9 361.6 161.2L361.6 161.2Q361.2 160.5 361.2 159.8L361.2 159.8Q361.2 159.1 361.6 158.7Q362.0 158.3 362.7 158.3L362.7 158.3Q363.2 158.3 363.6 158.6Q363.9 158.8 364.2 159.4L364.2 159.4Q364.7 160.8 365.8 161.5Q366.9 162.3 368.5 162.3L368.5 162.3Q370.5 162.3 371.8 161.0Q373.0 159.8 373.0 157.8L373.0 157.8Q373.0 155.8 371.8 154.6Q370.5 153.4 368.5 153.4L368.5 153.4Q366.4 153.4 365.1 154.7L365.1 154.7Q364.4 155.5 364.0 155.6Q363.7 155.8 363.1 155.8L363.1 155.8Q362.3 155.8 361.9 155.4Q361.5 154.9 361.5 154.2L361.5 154.2L361.5 153.9L362.2 145.8Q362.3 144.6 362.9 144.0Q363.5 143.5 364.7 143.5L364.7 143.5L373.7 143.5Q374.4 143.5 374.8 143.9Q375.2 144.3 375.2 144.9Q375.2 145.5 374.8 145.9Q374.4 146.3 373.7 146.3L373.7 146.3L365.1 146.3L364.5 152.9L364.5 152.9Q365.2 151.9 366.5 151.3Q367.7 150.8 369.3 150.8L369.3 150.8Q372.3 150.8 374.3 152.7Q376.2 154.6 376.2 157.7L376.2 157.7Q376.2 161.0 374.1 163.0Q371.9 165.1 368.5 165.1Z "/><mask id="satori_om-id-0-0-1"><rect x="40" y="217" width="1120" height="83" fill="#fff"/></mask><path fill="#224d67" d="M47.5 280.1L47.5 280.1Q45.7 280.1 44.7 279.0Q43.7 278.0 43.7 276.2L43.7 276.2L43.7 241.2Q43.7 239.4 44.7 238.3Q45.7 237.3 47.5 237.3L47.5 237.3L67.7 237.3Q69.3 237.3 70.2 238.2Q71.2 239.0 71.2 240.5Q71.2 242.0 70.2 242.8Q69.3 243.7 67.7 243.7L67.7 243.7L51.3 243.7L51.3 256.2L66.2 256.2Q67.7 256.2 68.6 257.0Q69.5 257.8 69.5 259.2Q69.5 260.7 68.6 261.5Q67.7 262.3 66.2 262.3L66.2 262.3L51.3 262.3L51.3 276.2Q51.3 278.0 50.3 279.1Q49.3 280.1 47.5 280.1ZM81.9 279.2Q80.9 280.2 79.3 280.2Q77.6 280.2 76.6 279.2Q75.6 278.1 75.6 276.3L75.6 276.3L75.6 240.6Q75.6 238.7 76.6 237.7Q77.6 236.7 79.3 236.7Q80.9 236.7 81.9 237.7Q82.9 238.7 82.9 240.6L82.9 240.6L82.9 276.3Q82.9 278.1 81.9 279.2ZM102.9 280.2L102.9 280.2Q95.8 280.2 91.8 276.0Q87.8 271.7 87.8 264.2L87.8 264.2Q87.8 256.7 91.8 252.3Q95.8 247.9 102.5 247.9L102.5 247.9Q108.9 247.9 112.8 251.9Q116.8 256.0 116.8 262.4L116.8 262.4Q116.8 264.0 115.9 264.9Q115.0 265.8 113.4 265.8L113.4 265.8L95.1 265.8L95.1 266.0Q95.1 269.9 97.2 272.3Q99.3 274.6 102.9 274.6L102.9 274.6Q105.3 274.6 107.1 273.6Q108.9 272.7 110.6 270.4L110.6 270.4Q111.7 269.3 113.1 269.3L113.1 269.3Q114.4 269.3 115.2 270.0Q116.0 270.8 116.0 272.1L116.0 272.1Q116.0 272.9 115.5 273.9L115.5 273.9Q114.0 276.9 110.7 278.5Q107.4 280.2 102.9 280.2ZM95.2 261.0L95.2 261.0L109.7 261.0Q109.6 257.6 107.6 255.6Q105.6 253.5 102.5 253.5Q99.5 253.5 97.4 255.6Q95.4 257.7 95.2 261.0ZM123.9 280.2L123.9 280.2Q122.4 280.2 121.5 279.3Q120.5 278.5 120.5 277.1L120.5 277.1Q120.5 276.0 121.4 274.7L121.4 274.7L129.3 264.1L121.5 253.4Q120.7 252.3 120.7 251.1L120.7 251.1Q120.7 249.7 121.8 248.8Q122.8 247.9 124.3 247.9L124.3 247.9Q125.3 247.9 126.0 248.3Q126.7 248.8 127.4 249.9L127.4 249.9L133.8 259.4L134.0 259.4L140.3 249.9Q141.0 248.8 141.7 248.4Q142.4 247.9 143.3 247.9L143.3 247.9Q144.9 247.9 145.8 248.8Q146.8 249.6 146.8 251.0L146.8 251.0Q146.8 252.2 145.9 253.4L145.9 253.4L138.2 263.9L145.9 274.7Q146.7 275.9 146.7 276.9L146.7 276.9Q146.7 278.4 145.7 279.3Q144.7 280.2 143.2 280.2L143.2 280.2Q141.5 280.2 140.3 278.4L140.3 278.4L133.6 268.4L133.5 268.4L126.8 278.3Q126.1 279.3 125.5 279.8Q124.8 280.2 123.9 280.2ZM158.6 243.0Q157.4 244.2 155.7 244.2Q154.0 244.2 152.8 243.0Q151.7 241.8 151.7 240.2L151.7 240.2Q151.7 238.5 152.8 237.4Q154.0 236.2 155.7 236.2L155.7 236.2Q157.4 236.2 158.6 237.4Q159.8 238.5 159.8 240.2L159.8 240.2Q159.8 241.8 158.6 243.0ZM158.4 279.1Q157.4 280.2 155.7 280.2Q154.0 280.2 153.0 279.1Q152.1 278.1 152.1 276.3L152.1 276.3L152.1 251.7Q152.1 250.0 153.0 248.9Q154.0 247.9 155.7 247.9Q157.4 247.9 158.4 248.9Q159.4 250.0 159.4 251.8L159.4 251.8L159.4 276.3Q159.4 278.1 158.4 279.1ZM171.8 279.2Q170.8 280.2 169.2 280.2Q167.6 280.2 166.7 279.2Q165.7 278.3 165.7 276.5L165.7 276.5L165.7 240.6Q165.7 238.7 166.7 237.7Q167.7 236.7 169.3 236.7Q171.0 236.7 172.0 237.7Q173.0 238.7 173.0 240.6L173.0 240.6L173.0 253.9L173.2 253.9Q174.5 251.1 177.1 249.5Q179.6 248.0 182.9 248.0L182.9 248.0Q188.8 248.0 192.2 252.3Q195.7 256.6 195.7 264.1L195.7 264.1Q195.7 271.5 192.2 275.8Q188.8 280.1 182.9 280.1L182.9 280.1Q179.5 280.1 176.9 278.6Q174.4 277.0 173.0 274.3L173.0 274.3L172.8 274.3L172.8 276.5Q172.8 278.2 171.8 279.2ZM180.6 274.1L180.6 274.1Q184.1 274.1 186.2 271.4Q188.2 268.7 188.2 264.1Q188.2 259.4 186.2 256.7Q184.1 254.0 180.6 254.0L180.6 254.0Q177.2 254.0 175.1 256.8Q172.9 259.5 172.9 264.1L172.9 264.1Q172.9 268.6 175.1 271.3Q177.2 274.1 180.6 274.1ZM206.9 279.2Q205.9 280.2 204.2 280.2Q202.6 280.2 201.6 279.2Q200.6 278.1 200.6 276.3L200.6 276.3L200.6 240.6Q200.6 238.7 201.6 237.7Q202.6 236.7 204.2 236.7Q205.9 236.7 206.9 237.7Q207.9 238.7 207.9 240.6L207.9 240.6L207.9 276.3Q207.9 278.1 206.9 279.2ZM227.9 280.2L227.9 280.2Q220.8 280.2 216.8 276.0Q212.8 271.7 212.8 264.2L212.8 264.2Q212.8 256.7 216.8 252.3Q220.8 247.9 227.5 247.9L227.5 247.9Q233.8 247.9 237.8 251.9Q241.8 256.0 241.8 262.4L241.8 262.4Q241.8 264.0 240.9 264.9Q240.0 265.8 238.4 265.8L238.4 265.8L220.1 265.8L220.1 266.0Q220.1 269.9 222.2 272.3Q224.3 274.6 227.8 274.6L227.8 274.6Q230.3 274.6 232.1 273.6Q233.8 272.7 235.6 270.4L235.6 270.4Q236.6 269.3 238.0 269.3L238.0 269.3Q239.3 269.3 240.1 270.0Q241.0 270.8 241.0 272.1L241.0 272.1Q241.0 272.9 240.5 273.9L240.5 273.9Q238.9 276.9 235.6 278.5Q232.3 280.2 227.9 280.2ZM220.1 261.0L220.1 261.0L234.6 261.0Q234.5 257.6 232.5 255.6Q230.6 253.5 227.5 253.5Q224.4 253.5 222.4 255.6Q220.3 257.7 220.1 261.0Z M273.3 280.1L273.3 280.1Q271.5 280.1 270.5 279.1Q269.5 278.0 269.5 276.2L269.5 276.2L269.5 243.7L259.9 243.7Q258.3 243.7 257.4 242.8Q256.4 242.0 256.4 240.5Q256.4 239.0 257.4 238.2Q258.3 237.3 259.9 237.3L259.9 237.3L286.7 237.3Q288.3 237.3 289.3 238.2Q290.2 239.0 290.2 240.5Q290.2 242.0 289.2 242.8Q288.3 243.7 286.7 243.7L286.7 243.7L277.1 243.7L277.1 276.2Q277.1 278.0 276.1 279.1Q275.1 280.1 273.3 280.1ZM300.6 279.2Q299.6 280.2 298.0 280.2Q296.3 280.2 295.3 279.2Q294.3 278.1 294.3 276.3L294.3 276.3L294.3 240.5Q294.3 238.7 295.3 237.7Q296.3 236.7 297.9 236.7L297.9 236.7Q299.6 236.7 300.6 237.7Q301.5 238.7 301.5 240.5L301.5 240.5L301.5 253.9L301.7 253.9Q302.9 251.0 305.5 249.5Q308.0 247.9 311.5 247.9L311.5 247.9Q316.6 247.9 319.5 251.1Q322.4 254.2 322.4 259.6L322.4 259.6L322.4 276.3Q322.4 278.1 321.4 279.2Q320.3 280.2 318.7 280.2Q317.1 280.2 316.1 279.2Q315.1 278.1 315.1 276.3L315.1 276.3L315.1 261.1Q315.1 257.8 313.4 255.9Q311.8 254.1 308.7 254.1L308.7 254.1Q305.4 254.1 303.5 256.2Q301.6 258.3 301.6 261.7L301.6 261.7L301.6 276.3Q301.6 278.1 300.6 279.2ZM342.0 280.2L342.0 280.2Q334.9 280.2 330.9 276.0Q326.9 271.7 326.9 264.2L326.9 264.2Q326.9 256.7 330.9 252.3Q334.9 247.9 341.6 247.9L341.6 247.9Q347.9 247.9 351.9 251.9Q355.9 256.0 355.9 262.4L355.9 262.4Q355.9 264.0 355.0 264.9Q354.1 265.8 352.5 265.8L352.5 265.8L334.2 265.8L334.2 266.0Q334.2 269.9 336.3 272.3Q338.4 274.6 341.9 274.6L341.9 274.6Q344.4 274.6 346.2 273.6Q347.9 272.7 349.7 270.4L349.7 270.4Q350.8 269.3 352.2 269.3L352.2 269.3Q353.4 269.3 354.3 270.0Q355.1 270.8 355.1 272.1L355.1 272.1Q355.1 272.9 354.6 273.9L354.6 273.9Q353.0 276.9 349.7 278.5Q346.4 280.2 342.0 280.2ZM334.2 261.0L334.2 261.0L348.7 261.0Q348.6 257.6 346.7 255.6Q344.7 253.5 341.6 253.5Q338.5 253.5 336.5 255.6Q334.4 257.7 334.2 261.0ZM364.2 280.2L364.2 280.2Q362.5 280.2 361.5 279.2Q360.6 278.1 360.6 276.3L360.6 276.3L360.6 251.6Q360.6 249.9 361.5 248.9Q362.5 247.9 364.1 247.9Q365.6 247.9 366.6 248.9Q367.6 249.9 367.6 251.6L367.6 251.6L367.6 253.9L367.7 253.9Q368.7 251.2 371.1 249.5Q373.4 247.9 376.6 247.9L376.6 247.9Q379.8 247.9 382.1 249.6Q384.4 251.2 385.2 254.2L385.2 254.2L385.4 254.2Q386.5 251.3 389.1 249.6Q391.7 247.9 395.1 247.9L395.1 247.9Q399.7 247.9 402.4 250.8Q405.2 253.6 405.2 258.3L405.2 258.3L405.2 276.3Q405.2 278.1 404.2 279.1Q403.2 280.2 401.6 280.2L401.6 280.2Q399.9 280.2 398.9 279.1Q397.9 278.1 397.9 276.3L397.9 276.3L397.9 260.1Q397.9 257.2 396.5 255.6Q395.0 254.1 392.4 254.1L392.4 254.1Q389.7 254.1 388.1 255.8Q386.4 257.6 386.4 260.4L386.4 260.4L386.4 276.3Q386.4 278.1 385.5 279.2Q384.5 280.2 382.9 280.2L382.9 280.2Q381.2 280.2 380.3 279.2Q379.3 278.1 379.3 276.3L379.3 276.3L379.3 259.7Q379.3 257.1 377.9 255.6Q376.4 254.1 373.8 254.1L373.8 254.1Q371.2 254.1 369.5 255.9Q367.9 257.8 367.9 260.6L367.9 260.6L367.9 276.3Q367.9 278.1 366.9 279.1Q365.8 280.2 364.2 280.2ZM417.7 243.0Q416.6 244.2 414.9 244.2Q413.2 244.2 412.0 243.0Q410.8 241.8 410.8 240.2L410.8 240.2Q410.8 238.5 412.0 237.4Q413.2 236.2 414.9 236.2L414.9 236.2Q416.6 236.2 417.8 237.4Q418.9 238.5 418.9 240.2L418.9 240.2Q418.9 241.8 417.7 243.0ZM417.5 279.1Q416.5 280.2 414.9 280.2Q413.2 280.2 412.2 279.1Q411.2 278.1 411.2 276.3L411.2 276.3L411.2 251.7Q411.2 250.0 412.2 248.9Q413.2 247.9 414.9 247.9Q416.5 247.9 417.5 248.9Q418.5 250.0 418.5 251.8L418.5 251.8L418.5 276.3Q418.5 278.1 417.5 279.1ZM430.9 279.2Q429.9 280.2 428.3 280.2Q426.6 280.2 425.6 279.2Q424.6 278.1 424.6 276.3L424.6 276.3L424.6 251.6Q424.6 249.9 425.6 248.9Q426.5 247.9 428.1 247.9Q429.7 247.9 430.7 248.9Q431.7 249.9 431.7 251.6L431.7 251.6L431.7 253.8L431.9 253.8Q434.5 247.9 441.5 247.9L441.5 247.9Q446.6 247.9 449.5 251.0Q452.3 254.1 452.3 259.5L452.3 259.5L452.3 276.3Q452.3 278.1 451.3 279.2Q450.3 280.2 448.7 280.2Q447.0 280.2 446.0 279.2Q445 278.1 445 276.3L445 276.3L445 261.0Q445 257.6 443.4 255.9Q441.9 254.1 438.8 254.1L438.8 254.1Q435.7 254.1 433.8 256.2Q431.9 258.2 431.9 261.6L431.9 261.6L431.9 276.3Q431.9 278.1 430.9 279.2ZM471.5 291.3L471.5 291.3Q467.1 291.2 463.8 289.7Q460.5 288.2 458.9 285.6L458.9 285.6Q458.3 284.6 458.3 283.4L458.3 283.4Q458.3 282.2 459.1 281.4Q460.0 280.6 461.3 280.6L461.3 280.6Q462.8 280.6 464.0 281.8L464.0 281.8Q465.9 283.7 467.6 284.6Q469.4 285.4 471.6 285.5L471.6 285.5Q475.2 285.5 477.4 283.6Q479.5 281.7 479.5 278.6L479.5 278.6L479.5 273.7L479.3 273.7Q478.1 276.2 475.5 277.7Q472.9 279.3 469.6 279.3L469.6 279.3Q463.8 279.3 460.3 275.0Q456.8 270.8 456.8 263.7L456.8 263.7Q456.8 256.4 460.3 252.2Q463.8 248.0 469.8 248.0L469.8 248.0Q473.0 248.0 475.5 249.5Q478.0 251.1 479.4 253.8L479.4 253.8L479.5 253.8L479.5 251.6Q479.5 249.9 480.5 248.9Q481.6 247.9 483.2 247.9Q484.8 247.9 485.8 248.9Q486.8 249.9 486.8 251.6L486.8 251.6L486.8 278.6Q486.8 284.5 482.7 287.9Q478.7 291.3 471.5 291.3ZM471.8 273.6L471.8 273.6Q475.4 273.6 477.4 270.9Q479.5 268.3 479.5 263.7L479.5 263.7Q479.5 259.2 477.4 256.5Q475.3 253.8 471.8 253.8L471.8 253.8Q468.4 253.8 466.3 256.5Q464.3 259.2 464.3 263.7L464.3 263.7Q464.3 268.3 466.3 271.0Q468.4 273.6 471.8 273.6Z M520.4 280.3L520.4 280.3Q514.2 280.3 510.1 278.0Q505.9 275.7 504.7 272.0L504.7 272.0Q504.3 270.9 504.3 269.8L504.3 269.8Q504.3 268.2 505.2 267.3Q506.1 266.3 507.6 266.3L507.6 266.3Q508.9 266.3 509.7 266.9Q510.5 267.4 511.2 268.7L511.2 268.7Q512.1 271.4 514.6 272.7Q517.1 274.0 520.6 274.0L520.6 274.0Q524.4 274.0 526.9 272.3Q529.3 270.6 529.3 268.0L529.3 268.0Q529.3 265.7 527.5 264.2Q525.7 262.8 521.7 261.9L521.7 261.9L517.1 261.0Q504.7 258.4 504.7 249.1L504.7 249.1Q504.7 243.5 509.1 240.1Q513.5 236.6 520.4 236.6L520.4 236.6Q526.0 236.6 530.1 239.0Q534.1 241.4 535.4 245.5L535.4 245.5Q535.7 246.2 535.7 247.3L535.7 247.3Q535.7 248.6 534.8 249.5Q533.9 250.4 532.4 250.4L532.4 250.4Q529.9 250.4 528.8 248.0L528.8 248.0Q526.7 242.9 520.4 242.9L520.4 242.9Q516.8 242.9 514.6 244.4Q512.3 246.0 512.3 248.6L512.3 248.6Q512.3 250.8 514.1 252.2Q515.8 253.7 519.7 254.5L519.7 254.5L524.2 255.4Q530.9 256.8 533.9 259.6Q536.9 262.4 536.9 267.1L536.9 267.1Q536.9 273.2 532.5 276.7Q528.0 280.3 520.4 280.3ZM546.3 291.1L546.3 291.1Q543.8 291.1 542.5 290.2Q541.2 289.3 541.2 287.7L541.2 287.7Q541.2 286.6 542.0 285.9Q542.7 285.2 544.0 285.2L544.0 285.2Q544.3 285.2 544.7 285.2Q545.2 285.2 545.5 285.2L545.5 285.2Q548.5 285.2 550.0 281.7L550.0 281.7L550.5 280.1L540.3 253.4Q539.9 252.2 539.9 251.3L539.9 251.3Q539.9 249.8 541.0 248.9Q542.1 247.9 543.7 247.9L543.7 247.9Q545.0 247.9 545.9 248.6Q546.7 249.3 547.2 250.8L547.2 250.8L554.6 273.4L554.7 273.4L562.1 250.8Q562.6 249.3 563.4 248.6Q564.2 247.9 565.6 247.9L565.6 247.9Q567.2 247.9 568.2 248.8Q569.2 249.8 569.2 251.2L569.2 251.2Q569.2 252.2 568.8 253.3L568.8 253.3L558.5 280.7Q556.4 286.5 553.7 288.8Q550.9 291.1 546.3 291.1ZM585.1 280.2L585.1 280.2Q580.3 280.2 577.0 278.5Q573.6 276.8 572.5 274.0L572.5 274.0Q572.2 273.2 572.2 272.5L572.2 272.5Q572.2 271.2 573.0 270.4Q573.9 269.6 575.2 269.6L575.2 269.6Q577.0 269.6 578.4 271.4L578.4 271.4Q579.6 273.3 581.2 274.1Q582.8 274.9 585.4 274.9L585.4 274.9Q588.0 274.9 589.5 273.9Q591.0 272.8 591.0 271.1L591.0 271.1Q591.0 269.7 590.0 268.8Q589.1 268.0 586.7 267.4L586.7 267.4L581.6 266.3Q572.6 264.3 572.6 257.4L572.6 257.4Q572.6 253.1 576.0 250.5Q579.5 247.9 585.2 247.9L585.2 247.9Q589.6 247.9 592.9 249.8Q596.1 251.6 596.8 254.4L596.8 254.4Q597.0 255.0 597.0 255.5L597.0 255.5Q597.0 256.6 596.2 257.4Q595.5 258.1 594.2 258.1L594.2 258.1Q592.3 258.1 591.4 256.7L591.4 256.7Q590.2 255.0 588.7 254.1Q587.3 253.2 585.1 253.2L585.1 253.2Q582.7 253.2 581.2 254.3Q579.7 255.3 579.7 257.0L579.7 257.0Q579.7 259.8 584.2 260.8L584.2 260.8L589.2 261.9Q594.1 263.0 596.2 264.9Q598.4 266.9 598.4 270.3L598.4 270.3Q598.4 274.8 594.7 277.5Q591.1 280.2 585.1 280.2ZM605.0 271.9L605.0 271.9L605.0 254.1L603.0 254.1Q601.7 254.1 600.9 253.4Q600.1 252.6 600.1 251.3L600.1 251.3Q600.1 250.0 600.9 249.3Q601.7 248.5 603.0 248.5L603.0 248.5L605.0 248.5L605.0 244.4Q605.0 242.6 606.0 241.6Q607.0 240.6 608.7 240.6L608.7 240.6Q610.3 240.6 611.3 241.6Q612.3 242.6 612.3 244.4L612.3 244.4L612.3 248.5L615.7 248.5Q617.0 248.5 617.8 249.3Q618.6 250.0 618.6 251.3L618.6 251.3Q618.6 252.6 617.8 253.4Q617.0 254.1 615.7 254.1L615.7 254.1L612.3 254.1L612.3 270.3Q612.3 272.1 613.0 272.9Q613.6 273.7 615.2 273.9L615.2 273.9L615.7 273.9Q618.7 274.2 618.7 276.6L618.7 276.6Q618.7 278.2 617.3 279.1Q616.0 279.9 613.5 279.9L613.5 279.9L613.2 279.9Q605.0 279.9 605.0 271.9ZM636.9 280.2L636.9 280.2Q629.8 280.2 625.8 276.0Q621.8 271.7 621.8 264.2L621.8 264.2Q621.8 256.7 625.8 252.3Q629.8 247.9 636.5 247.9L636.5 247.9Q642.8 247.9 646.8 251.9Q650.8 256.0 650.8 262.4L650.8 262.4Q650.8 264.0 649.9 264.9Q649.0 265.8 647.4 265.8L647.4 265.8L629.1 265.8L629.1 266.0Q629.1 269.9 631.2 272.3Q633.3 274.6 636.8 274.6L636.8 274.6Q639.3 274.6 641.1 273.6Q642.8 272.7 644.6 270.4L644.6 270.4Q645.7 269.3 647.1 269.3L647.1 269.3Q648.3 269.3 649.2 270.0Q650.0 270.8 650.0 272.1L650.0 272.1Q650.0 272.9 649.5 273.9L649.5 273.9Q647.9 276.9 644.6 278.5Q641.3 280.2 636.9 280.2ZM629.1 261.0L629.1 261.0L643.6 261.0Q643.5 257.6 641.6 255.6Q639.6 253.5 636.5 253.5Q633.4 253.5 631.4 255.6Q629.3 257.7 629.1 261.0ZM659.1 280.2L659.1 280.2Q657.4 280.2 656.5 279.2Q655.5 278.1 655.5 276.3L655.5 276.3L655.5 251.6Q655.5 249.9 656.4 248.9Q657.4 247.9 659.0 247.9Q660.5 247.9 661.5 248.9Q662.5 249.9 662.5 251.6L662.5 251.6L662.5 253.9L662.6 253.9Q663.6 251.2 666.0 249.5Q668.3 247.9 671.5 247.9L671.5 247.9Q674.7 247.9 677.0 249.6Q679.3 251.2 680.1 254.2L680.1 254.2L680.3 254.2Q681.4 251.3 684.0 249.6Q686.6 247.9 690.0 247.9L690.0 247.9Q694.6 247.9 697.3 250.8Q700.1 253.6 700.1 258.3L700.1 258.3L700.1 276.3Q700.1 278.1 699.1 279.1Q698.1 280.2 696.5 280.2L696.5 280.2Q694.8 280.2 693.8 279.1Q692.8 278.1 692.8 276.3L692.8 276.3L692.8 260.1Q692.8 257.2 691.4 255.6Q689.9 254.1 687.3 254.1L687.3 254.1Q684.6 254.1 683.0 255.8Q681.3 257.6 681.3 260.4L681.3 260.4L681.3 276.3Q681.3 278.1 680.4 279.2Q679.4 280.2 677.8 280.2L677.8 280.2Q676.1 280.2 675.2 279.2Q674.2 278.1 674.2 276.3L674.2 276.3L674.2 259.7Q674.2 257.1 672.8 255.6Q671.3 254.1 668.7 254.1L668.7 254.1Q666.1 254.1 664.4 255.9Q662.8 257.8 662.8 260.6L662.8 260.6L662.8 276.3Q662.8 278.1 661.8 279.1Q660.7 280.2 659.1 280.2Z "/><defs><clipPath id="satori_bc-id-0-1"><rect x="0" y="441" width="1200" height="189"/></clipPath></defs><mask id="satori_om-id-0-1"><rect x="0" y="442" width="1200" height="188" fill="#fff"/><path width="1200" height="189" fill="none" stroke="#000" stroke-width="2" d="M0,441 A0,0 0 0 1 0,441 h1200 A0,0 0 0 1 1200,441"/></mask><path width="1200" height="189" clip-path="url(#satori_bc-id-0-1)" fill="none" stroke="#dbdbdb" stroke-width="2" d="M0,441 A0,0 0 0 1 0,441 h1200 A0,0 0 0 1 1200,441"/><mask id="satori_om-id-0-1-0"><rect x="40" y="482" width="292" height="108" fill="#fff"/></mask><clipPath id="satori_cp-id-0-1-0-0"><rect x="40" y="504" width="64" height="64"/></clipPath><mask id="satori_om-id-0-1-0-0"><rect x="40" y="504" width="64" height="64" fill="#fff"/></mask><image x="40" y="504" width="64" height="64" href="data:image/svg+xml;utf8,%3Csvg  xmlns=%22http://www.w3.org/2000/svg%22 width=%2264%22 height=%2264%22 viewBox=%220 0 128 128%22%3E%3Cpath fill=%22%23224d67%22 d=%22M22.5 14.8c2.9 1.3 99 44 99 44c2.7 1.2 2.9 3.1 2 12.4c-1 10.5-1.9 37.8-40.2 42.9c-24.6 3.2-55.9-4.3-70.9-27.2C-6 58.8 11 23.4 14.8 17.7c2.4-3.5 4.8-4.2 7.7-2.9%22%3E%3C/path%3E%3Cpath fill=%22%23f0f4c3%22 d=%22M121.5 58.8c-.3-.2-92-40.8-98.9-43.9C9.6 31.5-3.8 76 27.9 96.2c33.6 21.5 78.7-10.2 93.6-37.4%22%3E%3C/path%3E%3Cpath fill=%22%23f0f4c3%22 d=%22M117.7 57c-.3-.2-86.7-38.4-93.2-41.3c-12.2 15.5-23.9 59.1 5.7 78c31.4 20.2 73.6-11.2 87.5-36.7%22%3E%3C/path%3E%3Cpath fill=%22%23cb2a42%22 d=%22M56.2 37.6L19.5 48.2c-2.5.8-4.4 2.8-5 5.3c-1.9 8.5.8 23.3 8.9 29.8c3.5 2.7 8.6 1.8 10.8-2.1L58.5 41c1.3-1.7.5-4.2-2.3-3.4m14.3 2.9s14.6 30.1 16 33s6.3 4.7 9.9 2.8c10.7-5.6 15.5-12.4 19.2-20.2c-8.9-3.9-42.4-18.8-42.4-18.8c-2.4-1.1-4 .6-2.7 3.2m-8.6 1.9C60.3 45.1 39.5 81 37.6 84.1c-1.9 3.2-.7 7.5 2.7 9.2c12.3 6.5 30.9.4 39.6-7c2.2-1.9 4.5-5.1 3.2-8.2S68.9 44.6 67.8 42.3c-1.2-2.7-4.1-2.8-5.9.1%22%3E%3C/path%3E%3Cpath fill=%22%23f0f4c3%22 d=%22M52.2 42.2c-1.4.4-10.1 3-11.1 3.4c-1.4.5-2.2 1.7-1.9 2.5c.3.9 1.7 1.1 3.1.6c.8-.3 7.1-3.9 9.5-5.2c-3.1 2.4-10.2 9.4-11.1 10.3c-1.4 1.5-1.7 3.4-.8 4.3c1 .9 2.9.5 4.3-1c1.2-1.3 8.5-12.8 9.1-13.9s.4-1.4-1.1-1m10.1 16.4c0-2.2 1.4-10.3 1.8-12.3c.4-1.6 1.5-1.8 1.8.5s1.7 9.7 1.7 11.8s-1.2 3.3-2.7 3.3c-1.4 0-2.6-1.1-2.6-3.3M79.9 49c-1.2-1.8-3.3-4.9-4.1-6.1c-.7-1.2.1-2.1 1.8-.9s4 2.9 5.4 4c1.6 1.3 1.9 3 .8 4s-2.7.8-3.9-1%22%3E%3C/path%3E%3Cellipse cx=%2287.3%22 cy=%22103.12%22 fill=%22%23cb2a42%22 rx=%223.4%22 ry=%222.3%22 transform=%22rotate(-27.098 87.298 103.126)%22%3E%3C/ellipse%3E%3Cellipse cx=%2298.89%22 cy=%22103.82%22 fill=%22%23cb2a42%22 rx=%223.4%22 ry=%222.3%22 transform=%22rotate(-30.642 98.887 103.818)%22%3E%3C/ellipse%3E%3Cellipse cx=%22102.02%22 cy=%2293.8%22 fill=%22%23cb2a42%22 rx=%223.4%22 ry=%222.3%22 transform=%22rotate(-37.16 102.017 93.797)%22%3E%3C/ellipse%3E%3Cpath fill=%22%23cb2a42%22 d=%22M57.6 30.3c-8.3-3.7-24.4-10.7-29.6-13c-3.6 2.2-9.7 11.4-11.2 21.2c-.6 3.6 1.7 5.9 5.3 4.9c0 0 33.7-9.3 35.3-9.7c1.6-.5 2-2.6.2-3.4%22%3E%3C/path%3E%3C/svg%3E" preserveAspectRatio="none" clip-path="url(#satori_cp-id-0-1-0-0)" mask="url(#satori_om-id-0-1-0-0)"/><mask id="satori_om-id-0-1-0-0-0"><rect x="40" y="504" width="0" height="64" fill="#fff"/></mask><mask id="satori_om-id-0-1-0-0-1"><rect x="40" y="504" width="0" height="64" fill="#fff"/></mask><mask id="satori_om-id-0-1-0-0-2"><rect x="40" y="504" width="0" height="64" fill="#fff"/></mask><mask id="satori_om-id-0-1-0-0-3"><rect x="40" y="504" width="0" height="64" fill="#fff"/></mask><mask id="satori_om-id-0-1-0-0-4"><rect x="40" y="504" width="0" height="64" fill="#fff"/></mask><mask id="satori_om-id-0-1-0-0-5"><rect x="40" y="504" width="0" height="64" fill="#fff"/></mask><mask id="satori_om-id-0-1-0-0-6"><rect x="40" y="504" width="0" height="64" fill="#fff"/></mask><mask id="satori_om-id-0-1-0-0-7"><rect x="40" y="504" width="0" height="64" fill="#fff"/></mask><mask id="satori_om-id-0-1-0-0-8"><rect x="40" y="504" width="0" height="64" fill="#fff"/></mask><mask id="satori_om-id-0-1-0-1"><rect x="116" y="512" width="216" height="48" fill="#fff"/></mask><path fill="#545454" d="M121.1 553.5L121.1 553.5Q119.4 553.5 118.4 552.6Q117.5 551.7 117.5 550.2L117.5 550.2Q117.5 549.3 117.9 547.9L117.9 547.9L127.2 522.8Q127.9 520.7 129.2 519.7Q130.5 518.8 132.5 518.8L132.5 518.8Q134.6 518.8 135.9 519.7Q137.2 520.7 137.9 522.8L137.9 522.8L147.2 547.9Q147.6 549.2 147.6 550.2L147.6 550.2Q147.6 551.6 146.6 552.6Q145.6 553.5 144.1 553.5L144.1 553.5Q142.6 553.5 141.7 552.8Q140.9 552.1 140.4 550.4L140.4 550.4L138.6 545.0L126.4 545.0L124.6 550.3Q124.2 552.0 123.3 552.8Q122.5 553.5 121.1 553.5ZM132.4 525.7L128.0 539.6L137 539.6L132.5 525.7L132.4 525.7ZM159.1 552.6Q158.2 553.6 156.6 553.6Q155.0 553.6 154.1 552.6Q153.2 551.7 153.2 550.0L153.2 550.0L153.2 533.1L151.9 533.1Q150.8 533.1 150.1 532.4Q149.4 531.7 149.4 530.6Q149.4 529.4 150.1 528.7Q150.8 528.1 151.9 528.1L151.9 528.1L153.2 528.1L153.2 526.2Q153.2 522.5 155.0 520.7Q156.7 519.0 160.3 518.9L160.3 518.9Q163.0 518.9 164.2 519.7Q165.5 520.4 165.5 521.7L165.5 521.7Q165.5 523.1 164.1 523.5L164.1 523.5Q163.5 523.7 162.8 523.7L162.8 523.7Q161.2 523.7 160.5 524.4Q159.9 525.1 159.9 526.5L159.9 526.5L159.9 528.1L162.7 528.1Q163.8 528.1 164.5 528.7Q165.2 529.4 165.2 530.6Q165.2 531.7 164.5 532.4Q163.8 533.1 162.7 533.1L162.7 533.1L160.0 533.1L160.0 550.0Q160.0 551.7 159.1 552.6ZM170.3 546.6L170.3 546.6L170.3 533.1L168.9 533.1Q167.7 533.1 167.0 532.4Q166.3 531.7 166.3 530.5Q166.3 529.3 167.0 528.6Q167.7 527.9 168.9 527.9L168.9 527.9L170.3 527.9L170.3 525.1Q170.3 523.5 171.2 522.5Q172.1 521.6 173.7 521.6Q175.3 521.6 176.2 522.5Q177.1 523.5 177.1 525.1L177.1 525.1L177.1 527.9L179.5 527.9Q180.7 527.9 181.4 528.6Q182.1 529.3 182.1 530.5Q182.1 531.7 181.4 532.4Q180.7 533.1 179.5 533.1L179.5 533.1L177.1 533.1L177.1 545.1Q177.1 546.5 177.6 547.1Q178.1 547.7 179.2 547.8L179.2 547.8L179.6 547.8Q180.9 548.0 181.6 548.5Q182.2 549.1 182.2 550.3L182.2 550.3Q182.2 551.8 180.9 552.6Q179.6 553.3 177.4 553.3L177.4 553.3L177.1 553.3Q170.3 553.3 170.3 546.6ZM197.0 553.6L197.0 553.6Q191.2 553.6 187.9 550.2Q184.6 546.7 184.6 540.6L184.6 540.6Q184.6 534.5 187.9 531.0Q191.1 527.4 196.7 527.4L196.7 527.4Q202.0 527.4 205.3 530.7Q208.6 533.9 208.6 539.1L208.6 539.1Q208.6 540.5 207.9 541.3Q207.1 542.1 205.6 542.1L205.6 542.1L191.3 542.1L191.3 542.4Q191.3 545.2 192.9 546.9Q194.4 548.5 197.0 548.5L197.0 548.5Q198.9 548.5 200.3 547.8Q201.6 547.2 203.0 545.5L203.0 545.5Q204.0 544.5 205.3 544.5L205.3 544.5Q206.4 544.5 207.2 545.2Q207.9 545.9 207.9 547.0L207.9 547.0Q207.9 547.8 207.5 548.7L207.5 548.7Q206.2 551 203.4 552.3Q200.7 553.6 197.0 553.6ZM191.4 537.9L191.4 537.9L202.0 537.9Q201.9 535.4 200.5 533.9Q199.0 532.5 196.8 532.5Q194.5 532.5 193.1 534.0Q191.6 535.5 191.4 537.9ZM215.6 553.6L215.6 553.6Q214.0 553.6 213.1 552.6Q212.1 551.7 212.1 550.0L212.1 550.0L212.1 530.9Q212.1 529.3 213.0 528.3Q213.9 527.4 215.4 527.4L215.4 527.4Q216.9 527.4 217.8 528.3Q218.7 529.3 218.7 530.9L218.7 530.9L218.7 532.5L218.8 532.5Q219.3 530.2 220.7 528.9Q222.1 527.5 224.0 527.5L224.0 527.5Q225.4 527.5 226.2 528.2L226.2 528.2Q227.2 528.9 227.2 530.7L227.2 530.7Q227.2 532.3 226.2 533.2L226.2 533.2Q225.2 534.0 223.2 534.1L223.2 534.1Q221.0 534.1 220.0 535.3Q219.0 536.5 219.0 538.8L219.0 538.8L219.0 550.0Q219.0 551.7 218.1 552.6Q217.2 553.6 215.6 553.6ZM242.6 553.6L242.6 553.6Q237.5 553.6 234.1 551.8Q230.8 550.0 229.7 547.1L229.7 547.1Q229.4 546.1 229.4 545.2L229.4 545.2Q229.4 543.8 230.2 543.0Q231.1 542.1 232.5 542.1L232.5 542.1Q233.6 542.1 234.3 542.6Q235.1 543.1 235.7 544.2L235.7 544.2Q236.5 546.1 238.4 547.0Q240.2 547.9 242.7 547.9L242.7 547.9Q245.6 547.9 247.3 546.7Q249.1 545.5 249.1 543.6L249.1 543.6Q249.1 541.9 247.8 540.9Q246.4 539.9 243.3 539.3L243.3 539.3L239.7 538.6Q229.6 536.6 229.6 528.9L229.6 528.9Q229.6 525.9 231.3 523.5Q232.9 521.2 235.9 519.9Q238.8 518.7 242.5 518.7L242.5 518.7Q247.2 518.7 250.5 520.5Q253.8 522.4 254.9 525.7L254.9 525.7Q255.1 526.4 255.1 527.2L255.1 527.2Q255.1 528.5 254.3 529.3Q253.5 530.1 252.1 530.1L252.1 530.1Q250.9 530.1 250.1 529.6Q249.4 529.1 248.8 528.0L248.8 528.0Q247.2 524.4 242.5 524.4L242.5 524.4Q239.9 524.4 238.3 525.5Q236.7 526.6 236.7 528.5L236.7 528.5Q236.7 530.1 238.1 531.1Q239.4 532.1 242.4 532.7L242.4 532.7L245.9 533.4Q251.3 534.5 253.7 536.7Q256.2 539.0 256.2 542.8L256.2 542.8Q256.2 547.8 252.5 550.7Q248.9 553.6 242.6 553.6ZM266.0 552.6Q265.0 553.6 263.5 553.6Q261.9 553.6 261.0 552.6Q260.1 551.7 260.1 550.0L260.1 550.0L260.1 522.2Q260.1 520.6 261.0 519.7Q261.9 518.7 263.4 518.7L263.4 518.7Q265.0 518.7 265.9 519.7Q266.8 520.6 266.8 522.2L266.8 522.2L266.8 532.4L266.9 532.4Q267.9 530.0 270.0 528.7Q272 527.5 274.8 527.5L274.8 527.5Q279.0 527.5 281.3 530.0Q283.6 532.5 283.6 536.9L283.6 536.9L283.6 550.0Q283.6 551.7 282.7 552.6Q281.7 553.6 280.2 553.6Q278.6 553.6 277.7 552.6Q276.8 551.7 276.8 550.0L276.8 550.0L276.8 538.3Q276.8 535.9 275.6 534.5Q274.3 533.1 272.0 533.1L272.0 533.1Q269.7 533.1 268.3 534.7Q266.9 536.2 266.9 538.7L266.9 538.7L266.9 550.0Q266.9 551.7 266.0 552.6ZM294.1 523.8Q293.0 524.8 291.5 524.8Q290.0 524.8 288.9 523.8Q287.8 522.8 287.8 521.3L287.8 521.3Q287.8 519.8 288.9 518.8Q290.0 517.7 291.5 517.7Q293.0 517.7 294.1 518.8Q295.2 519.8 295.2 521.3L295.2 521.3Q295.2 522.8 294.1 523.8ZM294.0 552.6Q293.1 553.6 291.5 553.6Q289.9 553.6 289.0 552.6Q288.1 551.7 288.1 550.0L288.1 550.0L288.1 531.0Q288.1 529.3 289.0 528.4Q289.9 527.4 291.5 527.4Q293.1 527.4 294.0 528.4Q294.9 529.3 294.9 531.0L294.9 531.0L294.9 550.0Q294.9 551.7 294.0 552.6ZM307.2 552.6Q306.3 553.6 304.7 553.6Q303.1 553.6 302.2 552.6Q301.3 551.7 301.3 550.0L301.3 550.0L301.3 533.1L300.0 533.1Q298.9 533.1 298.2 532.4Q297.5 531.7 297.5 530.6Q297.5 529.4 298.2 528.7Q298.9 528.1 300.0 528.1L300.0 528.1L301.3 528.1L301.3 526.2Q301.3 522.5 303.1 520.7Q304.9 519.0 308.5 518.9L308.5 518.9Q311.1 518.9 312.4 519.7Q313.6 520.4 313.6 521.7L313.6 521.7Q313.6 523.1 312.2 523.5L312.2 523.5Q311.6 523.7 310.9 523.7L310.9 523.7Q309.4 523.7 308.7 524.4Q308.0 525.1 308.0 526.5L308.0 526.5L308.0 528.1L310.9 528.1Q312.0 528.1 312.7 528.7Q313.4 529.4 313.4 530.6Q313.4 531.7 312.7 532.4Q312.0 533.1 310.9 533.1L310.9 533.1L308.1 533.1L308.1 550.0Q308.1 551.7 307.2 552.6ZM318.4 546.6L318.4 546.6L318.4 533.1L317.1 533.1Q315.9 533.1 315.1 532.4Q314.4 531.7 314.4 530.5Q314.4 529.3 315.1 528.6Q315.9 527.9 317.1 527.9L317.1 527.9L318.4 527.9L318.4 525.1Q318.4 523.5 319.3 522.5Q320.2 521.6 321.8 521.6Q323.4 521.6 324.3 522.5Q325.2 523.5 325.2 525.1L325.2 525.1L325.2 527.9L327.6 527.9Q328.9 527.9 329.6 528.6Q330.3 529.3 330.3 530.5Q330.3 531.7 329.6 532.4Q328.9 533.1 327.6 533.1L327.6 533.1L325.2 533.1L325.2 545.1Q325.2 546.5 325.7 547.1Q326.2 547.7 327.3 547.8L327.3 547.8L327.8 547.8Q329.1 548.0 329.7 548.5Q330.4 549.1 330.4 550.3L330.4 550.3Q330.4 551.8 329.0 552.6Q327.7 553.3 325.5 553.3L325.5 553.3L325.3 553.3Q318.4 553.3 318.4 546.6Z "/><mask id="satori_om-id-0-1-1"><rect x="924" y="524" width="236" height="36" fill="#fff"/></mask><path fill="#8e8e8e" d="M927.9 552.6Q927.5 552.9 927.0 552.9Q926.4 552.9 926.1 552.6Q925.8 552.2 925.8 551.7L925.8 551.7L925.8 532.6Q925.8 532.0 926.1 531.6Q926.5 531.3 927.1 531.3Q927.6 531.3 928.0 531.6Q928.3 532.0 928.3 532.6L928.3 532.6L928.3 540.0L928.4 540.0Q929.1 538.7 930.4 537.9Q931.7 537.2 933.3 537.2L933.3 537.2Q936.2 537.2 937.9 539.3Q939.7 541.5 939.7 545.0L939.7 545.0Q939.7 548.6 937.9 550.8Q936.2 552.9 933.2 552.9L933.2 552.9Q931.6 552.9 930.3 552.2Q929.0 551.4 928.3 550.1L928.3 550.1L928.2 550.1L928.2 551.7Q928.2 552.2 927.9 552.6ZM932.7 550.7L932.7 550.7Q934.8 550.7 935.9 549.2Q937.1 547.7 937.1 545.0L937.1 545.0Q937.1 542.5 935.9 540.9Q934.8 539.4 932.7 539.4L932.7 539.4Q930.8 539.4 929.6 541.0Q928.3 542.5 928.3 545.0L928.3 545.0Q928.3 547.6 929.6 549.1Q930.8 550.7 932.7 550.7ZM943.8 558.4L943.8 558.4Q942.9 558.4 942.4 558.0Q941.9 557.7 941.9 557.1L941.9 557.1Q941.9 556.7 942.1 556.4Q942.4 556.2 942.9 556.2L942.9 556.2Q943.1 556.2 943.3 556.2Q943.5 556.2 943.7 556.2L943.7 556.2Q945.4 556.2 946.2 553.7L946.2 553.7L946.6 552.7L941.3 539.0Q941.2 538.6 941.2 538.3L941.2 538.3Q941.2 537.8 941.6 537.5Q941.9 537.2 942.5 537.2L942.5 537.2Q943.4 537.2 943.7 538.1L943.7 538.1L947.9 550.1L948.0 550.1L952.2 538.1Q952.3 537.6 952.6 537.4Q952.9 537.2 953.4 537.2L953.4 537.2Q953.9 537.2 954.3 537.5Q954.6 537.8 954.6 538.3L954.6 538.3Q954.6 538.6 954.5 539.0L954.5 539.0L948.9 553.7Q947.9 556.4 946.8 557.4Q945.7 558.4 943.8 558.4Z M965.7 552.5Q965.3 552.9 964.7 552.9Q964.1 552.9 963.8 552.5Q963.4 552.1 963.4 551.5L963.4 551.5L963.4 532.9Q963.4 532.3 963.8 531.9Q964.1 531.5 964.7 531.5L964.7 531.5L970.9 531.5Q973.9 531.5 975.8 533.4Q977.7 535.3 977.7 538.3L977.7 538.3Q977.7 541.3 975.8 543.2Q973.9 545.1 970.9 545.1L970.9 545.1L966.0 545.1L966.0 551.5Q966.0 552.1 965.7 552.5ZM966.0 533.9L966.0 542.8L970.3 542.8Q972.5 542.8 973.8 541.6Q975.0 540.4 975.0 538.3Q975.0 536.2 973.8 535.0Q972.5 533.9 970.3 533.9L970.3 533.9L966.0 533.9ZM984.8 552.9L984.8 552.9Q982.5 552.9 981.1 551.7Q979.7 550.4 979.7 548.4L979.7 548.4Q979.7 546.4 981.2 545.2Q982.6 544.1 985.2 543.9L985.2 543.9L989.6 543.7L989.6 542.4Q989.6 541.0 988.7 540.2Q987.9 539.4 986.3 539.4L986.3 539.4Q985.0 539.4 984.1 539.9Q983.3 540.4 982.6 541.5L982.6 541.5Q982.3 542.1 981.6 542.1L981.6 542.1Q981.1 542.1 980.8 541.8Q980.5 541.5 980.5 541.0Q980.5 540.5 980.8 539.9L980.8 539.9Q981.4 538.7 982.9 537.9Q984.5 537.2 986.3 537.2L986.3 537.2Q989.0 537.2 990.6 538.5Q992.2 539.9 992.2 542.1L992.2 542.1L992.2 551.6Q992.2 552.2 991.8 552.6Q991.5 552.9 991.0 552.9L991.0 552.9Q990.4 552.9 990.1 552.6Q989.7 552.2 989.7 551.6L989.7 551.6L989.7 550.0L989.7 550.0Q989.0 551.3 987.7 552.1Q986.3 552.9 984.8 552.9ZM985.3 550.8L985.3 550.8Q987.1 550.8 988.4 549.6Q989.6 548.5 989.6 546.9L989.6 546.9L989.6 545.6L985.5 545.9Q984.0 546.0 983.1 546.6Q982.3 547.3 982.3 548.4Q982.3 549.4 983.1 550.1Q984.0 550.8 985.3 550.8ZM996.2 549.1L996.2 549.1L996.2 539.5L994.9 539.5Q994.4 539.5 994.1 539.3Q993.8 539.0 993.8 538.5L993.8 538.5Q993.8 538.0 994.1 537.7Q994.4 537.4 994.9 537.4L994.9 537.4L996.2 537.4L996.2 534.8Q996.2 534.2 996.6 533.8Q996.9 533.5 997.5 533.5Q998.0 533.5 998.4 533.8Q998.8 534.2 998.8 534.8L998.8 534.8L998.8 537.4L1000.7 537.4Q1001.3 537.4 1001.6 537.7Q1001.9 538.0 1001.9 538.5L1001.9 538.5Q1001.9 539.0 1001.6 539.3Q1001.3 539.5 1000.7 539.5L1000.7 539.5L998.8 539.5L998.8 548.6Q998.8 549.6 999.2 550.0Q999.6 550.5 1000.5 550.6L1000.5 550.6L1000.7 550.6Q1001.9 550.7 1001.9 551.6L1001.9 551.6Q1001.9 552.2 1001.5 552.5Q1001.1 552.8 1000.1 552.8L1000.1 552.8L999.9 552.8Q996.2 552.8 996.2 549.1ZM1006.6 552.5Q1006.3 552.9 1005.7 552.9Q1005.2 552.9 1004.8 552.5Q1004.4 552.2 1004.4 551.6L1004.4 551.6L1004.4 538.5Q1004.4 537.9 1004.8 537.5Q1005.1 537.2 1005.6 537.2Q1006.2 537.2 1006.5 537.5Q1006.8 537.9 1006.8 538.5L1006.8 538.5L1006.8 539.9L1006.9 539.9Q1007.2 538.7 1008.2 537.9Q1009.2 537.2 1010.4 537.2L1010.4 537.2Q1011.2 537.2 1011.6 537.5L1011.6 537.5Q1011.9 537.8 1011.9 538.4L1011.9 538.4Q1011.9 539.0 1011.5 539.3L1011.5 539.3Q1011.1 539.6 1010.3 539.6L1010.3 539.6Q1008.6 539.6 1007.8 540.6Q1007.0 541.6 1007.0 543.2L1007.0 543.2L1007.0 551.6Q1007.0 552.2 1006.6 552.5ZM1015.1 534.9L1015.1 534.9Q1014.4 534.9 1014.0 534.4Q1013.5 533.9 1013.5 533.3L1013.5 533.3Q1013.5 532.6 1014.0 532.2Q1014.4 531.7 1015.1 531.7L1015.1 531.7Q1015.7 531.7 1016.2 532.2Q1016.7 532.6 1016.7 533.3L1016.7 533.3Q1016.7 533.9 1016.2 534.4Q1015.7 534.9 1015.1 534.9ZM1016.0 552.5Q1015.6 552.9 1015.1 552.9Q1014.5 552.9 1014.2 552.5Q1013.8 552.2 1013.8 551.6L1013.8 551.6L1013.8 538.5Q1013.8 537.9 1014.2 537.5Q1014.5 537.2 1015.1 537.2Q1015.6 537.2 1016.0 537.5Q1016.4 537.9 1016.4 538.5L1016.4 538.5L1016.4 551.6Q1016.4 552.2 1016.0 552.5ZM1026.1 552.9L1026.1 552.9Q1022.9 552.9 1021.0 550.8Q1019.1 548.7 1019.1 545.1Q1019.1 541.5 1021.0 539.3Q1022.9 537.2 1026.1 537.2L1026.1 537.2Q1028.2 537.2 1029.9 538.2Q1031.6 539.3 1032.0 540.9L1032.0 540.9Q1032.1 541.2 1032.1 541.4L1032.1 541.4Q1032.1 542.0 1031.8 542.3Q1031.5 542.6 1031.0 542.6L1031.0 542.6Q1030.6 542.6 1030.3 542.4Q1030.1 542.2 1029.8 541.7L1029.8 541.7Q1028.6 539.4 1026.1 539.4L1026.1 539.4Q1024.1 539.4 1022.9 541.0Q1021.6 542.5 1021.6 545.0L1021.6 545.0Q1021.6 547.6 1022.9 549.2Q1024.1 550.7 1026.1 550.7L1026.1 550.7Q1027.4 550.7 1028.3 550.1Q1029.2 549.6 1029.8 548.4L1029.8 548.4Q1030.1 547.9 1030.3 547.7Q1030.6 547.5 1031.0 547.5L1031.0 547.5Q1031.5 547.5 1031.8 547.8Q1032.1 548.2 1032.1 548.7L1032.1 548.7Q1032.1 548.9 1032.0 549.3L1032.0 549.3Q1031.4 550.9 1029.8 551.9Q1028.2 552.9 1026.1 552.9ZM1041.2 552.9L1041.2 552.9Q1037.8 552.9 1036.0 550.9Q1034.1 548.8 1034.1 545.1L1034.1 545.1Q1034.1 541.5 1036.0 539.3Q1037.8 537.2 1041.0 537.2L1041.0 537.2Q1043.9 537.2 1045.8 539.1Q1047.6 541.1 1047.6 544.3L1047.6 544.3Q1047.6 544.9 1047.3 545.3Q1046.9 545.7 1046.2 545.7L1046.2 545.7L1036.7 545.7Q1036.7 548.0 1037.9 549.4Q1039.1 550.7 1041.1 550.7L1041.1 550.7Q1042.5 550.7 1043.4 550.2Q1044.3 549.6 1045.2 548.3L1045.2 548.3Q1045.6 547.8 1046.2 547.8L1046.2 547.8Q1046.7 547.8 1047.0 548.1Q1047.3 548.4 1047.3 548.9L1047.3 548.9Q1047.3 549.2 1047.1 549.7L1047.1 549.7Q1046.4 551.2 1044.8 552.1Q1043.3 552.9 1041.2 552.9ZM1036.7 543.7L1036.7 543.7L1045.0 543.7Q1045.0 541.8 1043.8 540.6Q1042.7 539.4 1041.0 539.4L1041.0 539.4Q1039.2 539.4 1038.0 540.6Q1036.8 541.8 1036.7 543.7Z M1059.0 552.5Q1058.7 552.9 1058.1 552.9Q1057.5 552.9 1057.1 552.5Q1056.7 552.1 1056.7 551.5L1056.7 551.5L1056.7 532.7Q1056.7 532.1 1057.1 531.7Q1057.5 531.3 1058.1 531.3Q1058.7 531.3 1059.0 531.7Q1059.4 532.1 1059.4 532.7L1059.4 532.7L1059.4 541.8L1059.5 541.8L1068.9 531.8Q1069.4 531.3 1070.0 531.3L1070.0 531.3Q1070.5 531.3 1070.9 531.7Q1071.2 532.0 1071.2 532.5L1071.2 532.5Q1071.2 533.0 1070.9 533.3L1070.9 533.3L1063.6 540.9L1071.7 550.6Q1072.1 551.1 1072.1 551.6L1072.1 551.6Q1072.1 552.2 1071.7 552.5Q1071.3 552.9 1070.8 552.9L1070.8 552.9Q1070.1 552.9 1069.6 552.2L1069.6 552.2L1061.7 542.8L1059.4 545.3L1059.4 551.5Q1059.4 552.1 1059.0 552.5ZM1081.2 552.9L1081.2 552.9Q1077.8 552.9 1075.9 550.9Q1074.1 548.8 1074.1 545.1L1074.1 545.1Q1074.1 541.5 1075.9 539.3Q1077.8 537.2 1081.0 537.2L1081.0 537.2Q1083.9 537.2 1085.8 539.1Q1087.6 541.1 1087.6 544.3L1087.6 544.3Q1087.6 544.9 1087.2 545.3Q1086.9 545.7 1086.2 545.7L1086.2 545.7L1076.7 545.7Q1076.7 548.0 1077.9 549.4Q1079.1 550.7 1081.1 550.7L1081.1 550.7Q1082.5 550.7 1083.4 550.2Q1084.3 549.6 1085.2 548.3L1085.2 548.3Q1085.6 547.8 1086.2 547.8L1086.2 547.8Q1086.7 547.8 1087.0 548.1Q1087.3 548.4 1087.3 548.9L1087.3 548.9Q1087.3 549.2 1087.1 549.7L1087.1 549.7Q1086.4 551.2 1084.8 552.1Q1083.3 552.9 1081.2 552.9ZM1076.7 543.7L1076.7 543.7L1085.0 543.7Q1084.9 541.8 1083.8 540.6Q1082.7 539.4 1080.9 539.4L1080.9 539.4Q1079.1 539.4 1078.0 540.6Q1076.8 541.8 1076.7 543.7ZM1092.4 552.5Q1092.0 552.9 1091.4 552.9Q1090.9 552.9 1090.5 552.5Q1090.2 552.2 1090.2 551.6L1090.2 551.6L1090.2 538.5Q1090.2 537.9 1090.5 537.5Q1090.8 537.2 1091.4 537.2Q1091.9 537.2 1092.2 537.5Q1092.6 537.9 1092.6 538.5L1092.6 538.5L1092.6 539.9L1092.6 539.9Q1093.3 538.6 1094.5 537.9Q1095.8 537.2 1097.5 537.2L1097.5 537.2Q1100.0 537.2 1101.3 538.7Q1102.7 540.2 1102.7 542.8L1102.7 542.8L1102.7 551.6Q1102.7 552.2 1102.4 552.5Q1102.0 552.9 1101.5 552.9Q1100.9 552.9 1100.6 552.5Q1100.2 552.2 1100.2 551.6L1100.2 551.6L1100.2 543.2Q1100.2 541.4 1099.3 540.4Q1098.4 539.4 1096.7 539.4L1096.7 539.4Q1094.9 539.4 1093.8 540.6Q1092.7 541.8 1092.7 543.7L1092.7 543.7L1092.7 551.6Q1092.7 552.2 1092.4 552.5ZM1108.2 552.5Q1107.8 552.9 1107.3 552.9Q1106.7 552.9 1106.3 552.5Q1106.0 552.2 1106.0 551.6L1106.0 551.6L1106.0 538.5Q1106.0 537.9 1106.3 537.5Q1106.7 537.2 1107.2 537.2Q1107.7 537.2 1108.0 537.5Q1108.4 537.9 1108.4 538.5L1108.4 538.5L1108.4 539.9L1108.4 539.9Q1109.0 538.6 1110.1 537.9Q1111.3 537.2 1112.8 537.2L1112.8 537.2Q1114.3 537.2 1115.4 537.9Q1116.5 538.7 1117.0 540.1L1117.0 540.1L1117.1 540.1Q1117.7 538.7 1119.0 537.9Q1120.3 537.2 1121.9 537.2L1121.9 537.2Q1124.1 537.2 1125.5 538.5Q1126.8 539.9 1126.8 542.1L1126.8 542.1L1126.8 551.6Q1126.8 552.2 1126.5 552.5Q1126.1 552.9 1125.6 552.9Q1125.0 552.9 1124.6 552.5Q1124.3 552.2 1124.3 551.6L1124.3 551.6L1124.3 542.7Q1124.3 541.2 1123.5 540.3Q1122.6 539.4 1121.1 539.4Q1119.6 539.4 1118.6 540.4Q1117.7 541.4 1117.7 543.0L1117.7 543.0L1117.7 551.6Q1117.7 552.2 1117.3 552.5Q1117.0 552.9 1116.4 552.9Q1115.8 552.9 1115.5 552.5Q1115.1 552.2 1115.1 551.6L1115.1 551.6L1115.1 542.5Q1115.1 541.1 1114.3 540.2Q1113.4 539.4 1112.0 539.4L1112.0 539.4Q1110.5 539.4 1109.5 540.5Q1108.5 541.5 1108.5 543.1L1108.5 543.1L1108.5 551.6Q1108.5 552.2 1108.2 552.5ZM1136.4 552.9L1136.4 552.9Q1133.2 552.9 1131.3 550.8Q1129.3 548.7 1129.3 545.0Q1129.3 541.4 1131.3 539.3Q1133.2 537.2 1136.4 537.2L1136.4 537.2Q1139.6 537.2 1141.5 539.3Q1143.4 541.4 1143.4 545.0L1143.4 545.0Q1143.4 548.7 1141.5 550.8Q1139.6 552.9 1136.4 552.9ZM1133.1 549.2Q1134.3 550.7 1136.4 550.7Q1138.4 550.7 1139.6 549.2Q1140.8 547.7 1140.8 545.0Q1140.8 542.4 1139.6 540.9Q1138.4 539.4 1136.4 539.4Q1134.3 539.4 1133.1 540.9Q1131.9 542.4 1131.9 545.0Q1131.9 547.7 1133.1 549.2ZM1152.5 535.6L1152.5 535.6Q1152.1 535.6 1151.9 535.4Q1151.6 535.2 1151.6 534.8Q1151.6 534.5 1151.8 534.2L1151.8 534.2L1154.0 531.1Q1154.3 530.6 1154.6 530.5Q1154.8 530.3 1155.1 530.3L1155.1 530.3Q1155.6 530.3 1155.9 530.6Q1156.2 530.9 1156.2 531.3L1156.2 531.3Q1156.2 531.7 1155.9 532.1L1155.9 532.1L1153.4 535.1Q1153.0 535.6 1152.5 535.6ZM1152.4 552.9L1152.4 552.9Q1149.0 552.9 1147.1 550.9Q1145.3 548.8 1145.3 545.1L1145.3 545.1Q1145.3 541.5 1147.1 539.3Q1149.0 537.2 1152.2 537.2L1152.2 537.2Q1155.1 537.2 1156.9 539.1Q1158.8 541.1 1158.8 544.3L1158.8 544.3Q1158.8 544.9 1158.4 545.3Q1158.1 545.7 1157.4 545.7L1157.4 545.7L1147.9 545.7Q1147.9 548.0 1149.1 549.4Q1150.2 550.7 1152.3 550.7L1152.3 550.7Q1153.6 550.7 1154.6 550.2Q1155.5 549.6 1156.4 548.3L1156.4 548.3Q1156.8 547.8 1157.3 547.8L1157.3 547.8Q1157.9 547.8 1158.2 548.1Q1158.5 548.4 1158.5 548.9L1158.5 548.9Q1158.5 549.2 1158.3 549.7L1158.3 549.7Q1157.6 551.2 1156.0 552.1Q1154.5 552.9 1152.4 552.9ZM1147.9 543.7L1147.9 543.7L1156.2 543.7Q1156.1 541.8 1155.0 540.6Q1153.9 539.4 1152.1 539.4L1152.1 539.4Q1150.3 539.4 1149.2 540.6Q1148.0 541.8 1147.9 543.7Z "/></svg>