<svg width="1200" height="630" viewBox="0 0 1200 630" xmlns="http://www.w3.org/2000/svg"><mask id="satori_om-id"><rect x="0" y="0" width="1200" height="630" fill="#fff"/></mask><mask id="satori_om-id-0"><rect x="0" y="0" width="1200" height="630" fill="#fff"/></mask><rect x="0" y="0" width="1200" height="630" fill="#f2f2f2"/><mask id="satori_om-id-0-0"><rect x="0" y="0" width="1200" height="441" fill="#fff"/></mask><mask id="satori_om-id-0-0-0"><rect x="40" y="136" width="1120" height="36" fill="#fff"/></mask><path fill="#8e8e8e" d="M49.2 165.0L49.2 165.0Q46.2 165.0 44.1 163.9Q42.1 162.7 41.4 160.8L41.4 160.8Q41.2 160.2 41.2 159.8L41.2 159.8Q41.2 159.0 41.6 158.6Q42.1 158.2 42.7 158.2L42.7 158.2Q43.8 158.2 44.3 159.3L44.3 159.3Q44.8 160.8 46.1 161.5Q47.4 162.2 49.3 162.2L49.3 162.2Q51.3 162.2 52.6 161.3Q53.9 160.4 53.9 159.0L53.9 159.0Q53.9 157.7 53.0 156.9Q52.1 156.1 50.0 155.7L50.0 155.7L47.6 155.2Q44.5 154.5 43.0 153.1Q41.5 151.6 41.5 149.3L41.5 149.3Q41.5 146.6 43.7 144.9Q45.8 143.2 49.2 143.2L49.2 143.2Q51.9 143.2 53.9 144.4Q55.9 145.6 56.5 147.7L56.5 147.7Q56.6 148.0 56.6 148.5L56.6 148.5Q56.6 149.1 56.2 149.5Q55.8 149.9 55.2 149.9L55.2 149.9Q54.1 149.9 53.6 148.8L53.6 148.8Q52.6 146.0 49.1 146.0L49.1 146.0Q47.3 146.0 46.0 146.8Q44.8 147.7 44.8 149.1L44.8 149.1Q44.8 150.3 45.7 151.1Q46.7 151.8 48.7 152.3L48.7 152.3L51.0 152.7Q54.3 153.4 55.8 154.8Q57.2 156.2 57.2 158.5L57.2 158.5Q57.2 161.5 55.0 163.3Q52.9 165.0 49.2 165.0ZM65.1 164.9L65.1 164.9Q62.6 164.9 61.2 163.4Q59.7 161.9 59.7 159.2L59.7 159.2L59.7 150.7Q59.7 149.9 60.1 149.4Q60.6 149.0 61.3 149.0L61.3 149.0Q62.0 149.0 62.4 149.4Q62.9 149.9 62.9 150.7L62.9 150.7L62.9 158.6Q62.9 160.4 63.7 161.3Q64.6 162.2 66.2 162.2L66.2 162.2Q67.9 162.2 68.9 161.1Q69.8 160.0 69.8 158.2L69.8 158.2L69.8 150.7Q69.8 149.9 70.3 149.4Q70.7 149.0 71.4 149.0L71.4 149.0Q72.1 149.0 72.6 149.4Q73.0 149.9 73.0 150.7L73.0 150.7L73.0 163.3Q73.0 164.1 72.6 164.5Q72.2 164.9 71.5 164.9Q70.8 164.9 70.4 164.5Q70.0 164.1 70.0 163.3L70.0 163.3L70.0 162.1L69.9 162.1Q68.6 164.9 65.1 164.9ZM77.7 164.9L77.7 164.9Q77.0 164.9 76.6 164.5Q76.1 164.0 76.1 163.3L76.1 163.3L76.1 150.6Q76.1 149.8 76.5 149.4Q76.9 149.0 77.6 149.0Q78.3 149.0 78.7 149.4Q79.2 149.9 79.2 150.6L79.2 150.6L79.2 151.8L79.2 151.8Q80.6 149.0 84.1 149.0L84.1 149.0Q86.6 149.0 88.0 150.5Q89.4 152.0 89.4 154.7L89.4 154.7L89.4 163.3Q89.4 164.0 89.0 164.5Q88.5 164.9 87.8 164.9L87.8 164.9Q87.1 164.9 86.7 164.5Q86.2 164.0 86.2 163.3L86.2 163.3L86.2 155.3Q86.2 153.5 85.4 152.6Q84.6 151.7 82.9 151.7L82.9 151.7Q81.3 151.7 80.3 152.8Q79.3 153.9 79.3 155.7L79.3 155.7L79.3 163.3Q79.3 164.0 78.8 164.5Q78.4 164.9 77.7 164.9ZM98.2 164.9L98.2 164.9Q95.3 164.9 93.5 162.8Q91.8 160.6 91.8 157.0Q91.8 153.3 93.5 151.2Q95.3 149.0 98.2 149.0L98.2 149.0Q99.8 149.0 101.1 149.8Q102.4 150.5 103.0 151.8L103.0 151.8L103.1 151.8L103.1 144.9Q103.1 144.1 103.5 143.7Q104.0 143.2 104.7 143.2L104.7 143.2Q105.4 143.2 105.8 143.7Q106.3 144.2 106.3 144.9L106.3 144.9L106.3 163.4Q106.3 164.1 105.9 164.5Q105.4 164.9 104.7 164.9L104.7 164.9Q104.0 164.9 103.6 164.5Q103.1 164.1 103.1 163.4L103.1 163.4L103.1 161.9L103.1 161.9Q102.4 163.3 101.2 164.1Q100.0 164.9 98.2 164.9ZM99.1 162.2L99.1 162.2Q100.9 162.2 102.0 160.8Q103.1 159.4 103.1 157.0L103.1 157.0Q103.1 154.6 102.0 153.1Q100.9 151.7 99.1 151.7L99.1 151.7Q97.2 151.7 96.1 153.1Q95.0 154.5 95.0 157.0L95.0 157.0Q95.0 159.4 96.1 160.8Q97.2 162.2 99.1 162.2ZM114.0 164.9L114.0 164.9Q111.8 164.9 110.3 163.6Q108.9 162.3 108.9 160.3L108.9 160.3Q108.9 158.3 110.4 157.1Q111.9 155.9 114.6 155.7L114.6 155.7L118.9 155.5L118.9 154.3Q118.9 153.0 118.0 152.3Q117.2 151.6 115.8 151.6L115.8 151.6Q114.6 151.6 113.8 152.0Q113.0 152.5 112.3 153.5L112.3 153.5Q111.9 154.2 111.1 154.2L111.1 154.2Q110.5 154.2 110.1 153.8Q109.7 153.4 109.7 152.9L109.7 152.9Q109.7 152.3 110.0 151.8L110.0 151.8Q110.6 150.5 112.2 149.8Q113.8 149.0 115.9 149.0L115.9 149.0Q118.7 149.0 120.3 150.4Q122.0 151.7 122.0 154.0L122.0 154.0L122.0 163.3Q122.0 164.1 121.6 164.5Q121.2 164.9 120.5 164.9L120.5 164.9Q119.8 164.9 119.4 164.5Q119.0 164.1 119.0 163.4L119.0 163.4L119.0 162.1L118.9 162.1Q118.2 163.4 116.9 164.2Q115.6 164.9 114.0 164.9ZM114.9 162.4L114.9 162.4Q116.6 162.4 117.7 161.4Q118.9 160.4 118.9 158.9L118.9 158.9L118.9 157.7L115.0 157.9Q113.6 158.0 112.9 158.6Q112.1 159.2 112.1 160.2L112.1 160.2Q112.1 161.2 112.9 161.8Q113.6 162.4 114.9 162.4ZM127.0 170.4L127.0 170.4Q125.9 170.4 125.3 170.0Q124.7 169.6 124.7 168.9L124.7 168.9Q124.7 168.4 125.0 168.1Q125.4 167.8 125.9 167.8L125.9 167.8Q126.1 167.8 126.3 167.8Q126.6 167.8 126.7 167.8L126.7 167.8Q128.3 167.8 129.1 165.7L129.1 165.7L129.4 164.8L124.2 151.3Q124.1 150.9 124.1 150.4L124.1 150.4Q124.1 149.8 124.5 149.4Q125.0 149.0 125.7 149.0L125.7 149.0Q126.3 149.0 126.6 149.3Q127.0 149.5 127.2 150.2L127.2 150.2L131.1 161.8L131.2 161.8L135.1 150.2Q135.3 149.5 135.6 149.3Q136.0 149.0 136.6 149.0L136.6 149.0Q137.3 149.0 137.7 149.4Q138.1 149.8 138.1 150.4L138.1 150.4Q138.1 150.8 138.0 151.3L138.0 151.3L132.6 165.4Q131.6 168.2 130.4 169.3Q129.1 170.4 127.0 170.4ZM142.6 161.1L142.6 161.1Q143.3 161.1 143.7 161.5Q144.1 161.8 144.1 162.4L144.1 162.4Q144.1 162.8 144.0 163.3L144.0 163.3L142.7 168.3Q142.4 169.4 141.4 169.4L141.4 169.4Q140.8 169.4 140.5 169.1Q140.1 168.7 140.1 168.2L140.1 168.2Q140.1 168.1 140.2 167.8L140.2 167.8L141.1 162.4Q141.3 161.1 142.6 161.1Z M167.5 164.7L155.8 164.7Q155.0 164.7 154.6 164.3Q154.2 163.9 154.2 163.3L154.2 163.3Q154.2 162.8 154.4 162.5Q154.6 162.1 155.1 161.6L155.1 161.6L161.7 154.9Q163.8 152.8 164.5 151.7Q165.2 150.6 165.2 149.3L165.2 149.3Q165.2 147.8 164.1 146.8Q163.1 145.8 161.5 145.8L161.5 145.8Q158.4 145.8 157.2 149.0L157.2 149.0Q157.0 149.5 156.7 149.8Q156.3 150.0 155.8 150.0L155.8 150.0Q155.1 150.0 154.7 149.6Q154.3 149.3 154.3 148.6L154.3 148.6Q154.3 148.3 154.4 148.0L154.4 148.0Q154.6 147.1 155.1 146.3Q155.7 145.4 156.5 144.7Q157.4 144.0 158.7 143.6Q160 143.1 161.5 143.1L161.5 143.1Q164.5 143.1 166.5 144.8Q168.4 146.5 168.4 149.1L168.4 149.1Q168.4 150.9 167.4 152.5Q166.4 154.0 163.7 156.8L163.7 156.8L158.7 161.8L158.7 161.9L167.5 161.9Q168.1 161.9 168.5 162.3Q168.9 162.7 168.9 163.3L168.9 163.3Q168.9 163.9 168.5 164.3Q168.1 164.7 167.5 164.7L167.5 164.7ZM179.2 165.1L179.2 165.1Q176.8 165.1 175.0 164.0Q173.1 162.9 172.3 161.2L172.3 161.2Q172.0 160.5 172.0 159.8L172.0 159.8Q172.0 159.1 172.4 158.7Q172.8 158.3 173.4 158.3L173.4 158.3Q174.0 158.3 174.3 158.6Q174.7 158.8 174.9 159.4L174.9 159.4Q175.4 160.8 176.6 161.5Q177.7 162.3 179.3 162.3L179.3 162.3Q181.3 162.3 182.5 161.0Q183.8 159.8 183.8 157.8L183.8 157.8Q183.8 155.8 182.5 154.6Q181.2 153.4 179.3 153.4L179.3 153.4Q177.2 153.4 175.8 154.7L175.8 154.7Q175.1 155.5 174.8 155.6Q174.4 155.8 173.8 155.8L173.8 155.8Q173.1 155.8 172.6 155.4Q172.2 154.9 172.3 154.2L172.3 154.2L172.3 153.9L173.0 145.8Q173.1 144.6 173.7 144.0Q174.3 143.5 175.5 143.5L175.5 143.5L184.5 143.5Q185.1 143.5 185.5 143.9Q185.9 144.3 185.9 144.9Q185.9 145.5 185.5 145.9Q185.1 146.3 184.5 146.3L184.5 146.3L175.8 146.3L175.2 152.9L175.3 152.9Q176.0 151.9 177.2 151.3Q178.5 150.8 180.0 150.8L180.0 150.8Q183.1 150.8 185.0 152.7Q187.0 154.6 187.0 157.7L187.0 157.7Q187.0 161.0 184.8 163.0Q182.6 165.1 179.2 165.1Z M196.6 164.9L196.6 164.9Q195.8 164.9 195.4 164.5Q194.9 164.1 194.9 163.4L194.9 163.4Q194.9 163.0 195.1 162.4L195.1 162.4L201.6 145.0Q202.2 143.3 203.9 143.3L203.9 143.3Q204.7 143.3 205.3 143.7Q205.8 144.1 206.2 145.0L206.2 145.0L212.6 162.4Q212.8 163.0 212.8 163.4L212.8 163.4Q212.8 164.0 212.3 164.5Q211.9 164.9 211.2 164.9L211.2 164.9Q210.5 164.9 210.1 164.6Q209.7 164.3 209.5 163.6L209.5 163.6L207.9 159.0L199.8 159.0L198.2 163.5Q198.0 164.3 197.6 164.6Q197.2 164.9 196.6 164.9ZM203.8 147.0L200.6 156.3L207.1 156.3L203.9 147.0L203.8 147.0ZM220.6 164.9L220.6 164.9Q218.0 164.9 216.6 163.4Q215.2 161.9 215.2 159.2L215.2 159.2L215.2 150.7Q215.2 149.9 215.6 149.4Q216.0 149.0 216.7 149.0L216.7 149.0Q217.4 149.0 217.9 149.4Q218.3 149.9 218.3 150.7L218.3 150.7L218.3 158.6Q218.3 160.4 219.2 161.3Q220.0 162.2 221.6 162.2L221.6 162.2Q223.3 162.2 224.3 161.1Q225.3 160.0 225.3 158.2L225.3 158.2L225.3 150.7Q225.3 149.9 225.7 149.4Q226.2 149.0 226.9 149.0L226.9 149.0Q227.6 149.0 228.0 149.4Q228.4 149.9 228.4 150.7L228.4 150.7L228.4 163.3Q228.4 164.1 228.0 164.5Q227.6 164.9 226.9 164.9Q226.2 164.9 225.8 164.5Q225.4 164.1 225.4 163.3L225.4 163.3L225.4 162.1L225.3 162.1Q224.0 164.9 220.6 164.9ZM238.0 170.5L238.0 170.5Q236.0 170.5 234.4 169.7Q232.8 169.0 232.0 167.7L232.0 167.7Q231.7 167.2 231.7 166.6L231.7 166.6Q231.7 166.1 232.0 165.7Q232.4 165.4 233.0 165.4L233.0 165.4Q233.6 165.4 234.2 166.0L234.2 166.0Q235.2 167.0 236.1 167.4Q237.0 167.9 238.1 167.9L238.1 167.9Q240.0 167.9 241.1 166.9Q242.2 165.9 242.2 164.3L242.2 164.3L242.2 161.9L242.1 161.9Q241.5 163.1 240.2 163.9Q238.9 164.6 237.3 164.6L237.3 164.6Q234.4 164.6 232.6 162.5Q230.9 160.4 230.9 156.8L230.9 156.8Q230.9 153.2 232.6 151.1Q234.4 149.0 237.3 149.0L237.3 149.0Q239.0 149.0 240.2 149.8Q241.4 150.5 242.2 151.8L242.2 151.8L242.2 151.8L242.2 150.6Q242.2 149.9 242.7 149.4Q243.1 149.0 243.8 149.0Q244.5 149.0 245.0 149.4Q245.4 149.9 245.4 150.6L245.4 150.6L245.4 164.2Q245.4 167.1 243.4 168.8Q241.4 170.5 238.0 170.5ZM238.1 162.0L238.1 162.0Q240.0 162.0 241.1 160.6Q242.2 159.2 242.2 156.9L242.2 156.9Q242.2 154.5 241.1 153.0Q240.0 151.6 238.1 151.6L238.1 151.6Q236.3 151.6 235.2 153.0Q234.1 154.4 234.1 156.8Q234.1 159.2 235.2 160.6Q236.3 162.0 238.1 162.0ZM253.8 164.9L253.8 164.9Q251.3 164.9 249.9 163.4Q248.4 161.9 248.4 159.2L248.4 159.2L248.4 150.7Q248.4 149.9 248.9 149.4Q249.3 149.0 250.0 149.0L250.0 149.0Q250.7 149.0 251.2 149.4Q251.6 149.9 251.6 150.7L251.6 150.7L251.6 158.6Q251.6 160.4 252.4 161.3Q253.3 162.2 254.9 162.2L254.9 162.2Q256.6 162.2 257.6 161.1Q258.6 160.0 258.6 158.2L258.6 158.2L258.6 150.7Q258.6 149.9 259.0 149.4Q259.4 149.0 260.1 149.0L260.1 149.0Q260.9 149.0 261.3 149.4Q261.7 149.9 261.7 150.7L261.7 150.7L261.7 163.3Q261.7 164.1 261.3 164.5Q260.9 164.9 260.2 164.9Q259.5 164.9 259.1 164.5Q258.7 164.1 258.7 163.3L258.7 163.3L258.7 162.1L258.6 162.1Q257.3 164.9 253.8 164.9ZM270.5 165.0L270.5 165.0Q268.3 165.0 266.7 164.1Q265.1 163.3 264.5 161.8L264.5 161.8Q264.4 161.5 264.4 161.2L264.4 161.2Q264.4 160.6 264.8 160.2Q265.2 159.9 265.8 159.9L265.8 159.9Q266.6 159.9 267.1 160.7L267.1 160.7Q267.8 161.7 268.5 162.1Q269.3 162.5 270.7 162.5L270.7 162.5Q272.0 162.5 272.9 162.0Q273.7 161.4 273.7 160.5L273.7 160.5Q273.7 159.7 273.2 159.3Q272.7 158.8 271.4 158.5L271.4 158.5L269.0 158.0Q264.6 156.9 264.6 153.6L264.6 153.6Q264.6 151.5 266.2 150.2Q267.9 149.0 270.6 149.0L270.6 149.0Q272.7 149.0 274.3 149.9Q275.8 150.8 276.1 152.2L276.1 152.2Q276.2 152.6 276.2 152.7L276.2 152.7Q276.2 153.2 275.9 153.5Q275.6 153.9 275.0 153.9L275.0 153.9Q274.1 153.9 273.7 153.2L273.7 153.2Q273.2 152.3 272.4 151.8Q271.7 151.4 270.5 151.4L270.5 151.4Q269.2 151.4 268.4 152.0Q267.7 152.5 267.7 153.4L267.7 153.4Q267.7 154.9 270.0 155.5L270.0 155.5L272.4 156.0Q274.8 156.6 275.9 157.5Q276.9 158.5 276.9 160.2L276.9 160.2Q276.9 162.3 275.1 163.6Q273.4 165.0 270.5 165.0ZM280.3 161.0L280.3 161.0L280.3 151.8L279.2 151.8Q278.5 151.8 278.2 151.4Q277.8 151.1 277.8 150.5Q277.8 149.9 278.2 149.6Q278.5 149.3 279.2 149.3L279.2 149.3L280.3 149.3L280.3 147.0Q280.3 146.2 280.7 145.7Q281.1 145.3 281.9 145.3Q282.6 145.3 283.0 145.7Q283.4 146.2 283.4 147.0L283.4 147.0L283.4 149.3L285.2 149.3Q285.9 149.3 286.2 149.6Q286.6 149.9 286.6 150.5Q286.6 151.1 286.2 151.4Q285.9 151.8 285.2 151.8L285.2 151.8L283.4 151.8L283.4 160.3Q283.4 161.2 283.8 161.6Q284.2 162.1 285.0 162.1L285.0 162.1L285.3 162.2Q286.6 162.3 286.6 163.4L286.6 163.4Q286.6 164.8 284.3 164.8L284.3 164.8L284.2 164.8Q280.3 164.8 280.3 161.0Z M308.3 164.7L296.6 164.7Q295.9 164.7 295.5 164.3Q295.1 163.9 295.1 163.3L295.1 163.3Q295.1 162.8 295.2 162.5Q295.4 162.1 296.0 161.6L296.0 161.6L302.6 154.9Q304.6 152.8 305.3 151.7Q306.0 150.6 306.0 149.3L306.0 149.3Q306.0 147.8 305.0 146.8Q303.9 145.8 302.3 145.8L302.3 145.8Q299.2 145.8 298.1 149.0L298.1 149.0Q297.8 149.5 297.5 149.8Q297.2 150.0 296.6 150.0L296.6 150.0Q295.9 150.0 295.5 149.6Q295.1 149.3 295.1 148.6L295.1 148.6Q295.1 148.3 295.2 148.0L295.2 148.0Q295.4 147.1 296.0 146.3Q296.5 145.4 297.4 144.7Q298.2 144.0 299.5 143.6Q300.8 143.1 302.3 143.1L302.3 143.1Q305.4 143.1 307.3 144.8Q309.2 146.5 309.2 149.1L309.2 149.1Q309.2 150.9 308.3 152.5Q307.3 154.0 304.6 156.8L304.6 156.8L299.5 161.8L299.5 161.9L308.3 161.9Q308.9 161.9 309.3 162.3Q309.7 162.7 309.7 163.3L309.7 163.3Q309.7 163.9 309.3 164.3Q308.9 164.7 308.3 164.7L308.3 164.7ZM326.2 162.1Q324.0 165.1 320.2 165.1Q316.4 165.1 314.3 162.1Q312.1 159.2 312.1 154.1L312.1 154.1Q312.1 149.0 314.3 146.1Q316.4 143.1 320.2 143.1L320.2 143.1Q324.0 143.1 326.1 146.1Q328.3 149.0 328.3 154.1L328.3 154.1Q328.3 159.1 326.2 162.1ZM320.2 162.3L320.2 162.3Q322.5 162.3 323.7 160.1Q325.0 157.9 325.0 154.1L325.0 154.1Q325.0 150.3 323.7 148.1Q322.5 145.9 320.2 145.9Q318.0 145.9 316.7 148.1Q315.4 150.3 315.4 154.1L315.4 154.1Q315.4 157.9 316.7 160.1Q317.9 162.3 320.2 162.3ZM344.4 164.7L332.7 164.7Q332.0 164.7 331.6 164.3Q331.2 163.9 331.2 163.3L331.2 163.3Q331.2 162.8 331.3 162.5Q331.5 162.1 332.1 161.6L332.1 161.6L338.7 154.9Q340.7 152.8 341.4 151.7Q342.1 150.6 342.1 149.3L342.1 149.3Q342.1 147.8 341.1 146.8Q340.0 145.8 338.4 145.8L338.4 145.8Q335.3 145.8 334.2 149.0L334.2 149.0Q333.9 149.5 333.6 149.8Q333.3 150.0 332.7 150.0L332.7 150.0Q332.0 150.0 331.6 149.6Q331.2 149.3 331.2 148.6L331.2 148.6Q331.2 148.3 331.3 148.0L331.3 148.0Q331.5 147.1 332.1 146.3Q332.6 145.4 333.5 144.7Q334.3 144.0 335.6 143.6Q336.9 143.1 338.4 143.1L338.4 143.1Q341.5 143.1 343.4 144.8Q345.3 146.5 345.3 149.1L345.3 149.1Q345.3 150.9 344.4 152.5Q343.4 154.0 340.6 156.8L340.6 156.8L335.6 161.8L335.6 161.9L344.4 161.9Q345.0 161.9 345.4 162.3Q345.8 162.7 345.8 163.3L345.8 163.3Q345.8 163.9 345.4 164.3Q345.0 164.7 344.4 164.7L344.4 164.7ZM360.2 164.9L360.2 164.9Q359.5 164.9 359.1 164.5Q358.6 164.0 358.6 163.3L358.6 163.3L358.6 160.5L349.9 160.5Q349.1 160.5 348.5 160.0Q348.0 159.4 348.0 158.6L348.0 158.6Q348.0 157.6 348.7 156.3L348.7 156.3Q350.6 153.0 355.6 145.7L355.6 145.7Q356.6 144.3 357.3 143.8Q358.0 143.2 359.1 143.2L359.1 143.2Q360.4 143.2 361.1 143.9Q361.8 144.5 361.8 145.7L361.8 145.7L361.8 157.7L363.5 157.7Q364.1 157.7 364.5 158.1Q364.9 158.5 364.9 159.1Q364.9 159.7 364.5 160.1Q364.1 160.5 363.5 160.5L363.5 160.5L361.8 160.5L361.8 163.3Q361.8 164.0 361.3 164.5Q360.9 164.9 360.2 164.9ZM351.1 157.8L358.7 157.8L358.7 146.1L358.6 146.1Q353.2 153.9 351.1 157.7L351.1 157.7L351.1 157.8Z "/><mask id="satori_om-id-0-0-1"><rect x="40" y="217" width="1120" height="83" fill="#fff"/></mask><path fill="#224d67" d="M49.6 279.1Q48.7 280.1 47.1 280.1Q45.5 280.1 44.6 279.1Q43.7 278.2 43.7 276.5L43.7 276.5L43.7 241.6Q43.7 239.4 45.0 238.1Q46.3 236.8 48.6 236.8L48.6 236.8Q50.5 236.8 51.8 237.7Q53.0 238.6 53.8 240.7L53.8 240.7L65.4 269.2L65.7 269.2L77.3 240.7Q78.1 238.7 79.3 237.7Q80.6 236.8 82.5 236.8L82.5 236.8Q84.8 236.8 86.1 238.1Q87.3 239.4 87.3 241.6L87.3 241.6L87.3 276.5Q87.3 278.2 86.5 279.1Q85.6 280.1 83.9 280.1Q82.3 280.1 81.4 279.1Q80.5 278.2 80.5 276.5L80.5 276.5L80.5 249.6L80.3 249.6L69.1 276.8Q68.1 279.3 65.5 279.3L65.5 279.3Q63.0 279.3 62.0 276.8L62.0 276.8L50.8 249.6L50.5 249.6L50.5 276.5Q50.5 278.2 49.6 279.1ZM103.2 280.1L103.2 280.1Q98.7 280.1 95.7 277.5Q92.8 274.9 92.8 270.7L92.8 270.7Q92.8 266.6 95.9 264.2Q98.9 261.8 104.6 261.4L104.6 261.4L112.9 260.9L112.9 258.7Q112.9 256.3 111.3 254.9Q109.8 253.6 107.1 253.6L107.1 253.6Q104.9 253.6 103.4 254.4Q101.9 255.2 100.6 257.2L100.6 257.2Q99.4 258.7 97.6 258.7L97.6 258.7Q96.3 258.7 95.4 257.9Q94.5 257.1 94.5 255.8L94.5 255.8Q94.5 254.8 95.0 253.8L95.0 253.8Q96.2 251.1 99.5 249.5Q102.9 247.9 107.4 247.9L107.4 247.9Q113.1 247.9 116.6 250.7Q120.1 253.5 120.1 258.2L120.1 258.2L120.1 276.5Q120.1 278.2 119.1 279.2Q118.1 280.2 116.5 280.2L116.5 280.2Q115 280.2 114.1 279.3Q113.1 278.4 113.0 276.8L113.0 276.8L113.0 274.6L112.9 274.6Q111.6 277.1 108.9 278.6Q106.2 280.1 103.2 280.1ZM105.4 274.6L105.4 274.6Q108.5 274.6 110.7 272.7Q112.9 270.8 112.9 268.1L112.9 268.1L112.9 265.7L105.7 266.1Q103.0 266.3 101.6 267.4Q100.1 268.6 100.1 270.4L100.1 270.4Q100.1 272.3 101.6 273.4Q103.0 274.6 105.4 274.6ZM132.2 279.1Q131.2 280.2 129.6 280.2Q127.9 280.2 126.9 279.1Q125.9 278.1 125.9 276.3L125.9 276.3L125.9 251.6Q125.9 249.9 126.9 248.9Q127.8 247.9 129.4 247.9L129.4 247.9Q130.9 247.9 131.9 248.9Q132.9 249.9 132.9 251.6L132.9 251.6L132.9 254.0L133.0 254.0Q133.7 251.3 135.5 249.6Q137.3 248.0 139.7 248.0L139.7 248.0Q141.4 248.0 142.2 248.8L142.2 248.8Q143.3 249.6 143.3 251.4L143.3 251.4Q143.3 253.1 142.2 254.0L142.2 254.0Q141.1 254.9 139.0 255.0L139.0 255.0Q133.2 255.0 133.2 261.4L133.2 261.4L133.2 276.3Q133.2 278.1 132.2 279.1ZM153.1 279.2Q152.1 280.2 150.4 280.2Q148.8 280.2 147.8 279.2Q146.8 278.1 146.8 276.3L146.8 276.3L146.8 240.6Q146.8 238.7 147.8 237.7Q148.8 236.7 150.4 236.7Q152.1 236.7 153.1 237.7Q154.1 238.7 154.1 240.6L154.1 240.6L154.1 261.4L154.1 261.4L166.3 249.3Q167.6 247.9 169.2 247.9L169.2 247.9Q170.5 247.9 171.4 248.8Q172.4 249.7 172.4 251.0L172.4 251.0Q172.4 252.5 171.0 253.7L171.0 253.7L162.2 262.1L171.9 274.3Q172.9 275.7 172.9 276.9L172.9 276.9Q172.9 278.3 172.0 279.3Q171.0 280.2 169.5 280.2L169.5 280.2Q168.4 280.2 167.6 279.7Q166.9 279.3 166.1 278.1L166.1 278.1L156.8 266.3L154.1 268.9L154.1 276.3Q154.1 278.1 153.1 279.2ZM189.3 280.1L189.3 280.1Q183.4 280.1 179.9 275.7Q176.4 271.4 176.4 264.0L176.4 264.0Q176.4 256.7 179.9 252.3Q183.4 248.0 189.3 248.0L189.3 248.0Q192.5 248.0 195.1 249.5Q197.6 251.1 198.9 253.7L198.9 253.7L199.1 253.7L199.1 240.6Q199.1 238.7 200.0 237.7Q201.0 236.7 202.7 236.7Q204.3 236.7 205.3 237.7Q206.3 238.7 206.3 240.6L206.3 240.6L206.3 276.5Q206.3 278.2 205.4 279.2Q204.4 280.2 202.7 280.2L202.7 280.2Q201.1 280.2 200.1 279.2Q199.1 278.2 199.1 276.5L199.1 276.5L199.1 274.1L198.9 274.1Q197.7 276.9 195.3 278.5Q192.8 280.1 189.3 280.1ZM191.5 274.1L191.5 274.1Q194.9 274.1 197.0 271.4Q199.1 268.7 199.1 264.1L199.1 264.1Q199.1 259.5 197.0 256.7Q194.9 254.0 191.5 254.0L191.5 254.0Q187.9 254.0 185.9 256.7Q183.8 259.4 183.8 264.1L183.8 264.1Q183.8 268.7 185.9 271.4Q187.9 274.1 191.5 274.1ZM237.2 275.9Q233.1 280.2 226.2 280.2Q219.3 280.2 215.3 275.9Q211.2 271.6 211.2 264.1L211.2 264.1Q211.2 256.6 215.3 252.2Q219.4 247.9 226.2 247.9L226.2 247.9Q233.1 247.9 237.2 252.2Q241.2 256.6 241.2 264.1L241.2 264.1Q241.2 271.6 237.2 275.9ZM220.6 271.7Q222.7 274.4 226.2 274.4Q229.7 274.4 231.8 271.7Q233.8 269.0 233.8 264.1L233.8 264.1Q233.8 259.2 231.8 256.4Q229.7 253.7 226.2 253.7L226.2 253.7Q222.7 253.7 220.7 256.4Q218.6 259.2 218.6 264.1L218.6 264.1Q218.6 269.0 220.6 271.7ZM255.7 280.2L255.7 280.2Q253.9 280.2 252.8 279.3Q251.8 278.4 251.2 276.4L251.2 276.4L244.4 253.2Q244.1 251.9 244.1 251.0L244.1 251.0Q244.1 249.7 245.1 248.8Q246.0 247.9 247.6 247.9L247.6 247.9Q250.3 247.9 251.0 251.0L251.0 251.0L256.2 272.4L256.3 272.4L261.7 251.2Q262.5 247.9 265.9 247.9L265.9 247.9Q269.2 247.9 270.0 251.2L270.0 251.2L275.4 272.4L275.6 272.4L280.8 251.0Q281.4 247.9 284.1 247.9L284.1 247.9Q285.7 247.9 286.6 248.8Q287.6 249.6 287.6 251.0L287.6 251.0Q287.6 251.9 287.2 253.2L287.2 253.2L280.5 276.4Q279.9 278.3 278.8 279.3Q277.7 280.2 275.9 280.2L275.9 280.2Q273.9 280.2 272.8 279.3Q271.7 278.4 271.2 276.4L271.2 276.4L265.8 256.9L265.7 256.9L260.4 276.4Q259.5 280.2 255.7 280.2ZM298.0 279.2Q297.0 280.2 295.3 280.2Q293.7 280.2 292.7 279.2Q291.7 278.1 291.7 276.3L291.7 276.3L291.7 251.6Q291.7 249.9 292.6 248.9Q293.6 247.9 295.2 247.9Q296.8 247.9 297.8 248.9Q298.8 249.9 298.8 251.6L298.8 251.6L298.8 253.8L298.9 253.8Q301.6 247.9 308.6 247.9L308.6 247.9Q313.7 247.9 316.5 251.0Q319.3 254.1 319.3 259.5L319.3 259.5L319.3 276.3Q319.3 278.1 318.3 279.2Q317.4 280.2 315.7 280.2Q314.1 280.2 313.1 279.2Q312.1 278.1 312.1 276.3L312.1 276.3L312.1 261.0Q312.1 257.6 310.5 255.9Q308.9 254.1 305.8 254.1L305.8 254.1Q302.7 254.1 300.8 256.2Q299.0 258.2 299.0 261.6L299.0 261.6L299.0 276.3Q299.0 278.1 298.0 279.2Z M339.8 280.1L339.8 280.1Q338.0 280.1 337.0 279.1Q336.0 278.2 336.0 276.6L336.0 276.6Q336.0 275.6 336.5 274.3L336.5 274.3L348.7 240.9Q349.5 238.8 350.8 237.8Q352.2 236.8 354.2 236.8L354.2 236.8Q356.3 236.8 357.6 237.8Q359.0 238.7 359.7 240.9L359.7 240.9L372.1 274.3Q372.5 275.7 372.5 276.6L372.5 276.6Q372.5 278.1 371.5 279.1Q370.4 280.1 368.8 280.1L368.8 280.1Q367.2 280.1 366.3 279.3Q365.4 278.6 364.9 276.9L364.9 276.9L362.1 268.8L346.3 268.8L343.5 276.8Q343.0 278.6 342.1 279.3Q341.2 280.1 339.8 280.1ZM354.1 244.8L348.1 262.8L360.3 262.8L354.3 244.8L354.1 244.8ZM388.9 280.1L388.9 280.1Q383.0 280.1 379.5 275.7Q376.0 271.4 376.0 264.0L376.0 264.0Q376.0 256.7 379.5 252.3Q383.0 248.0 388.9 248.0L388.9 248.0Q392.2 248.0 394.7 249.5Q397.2 251.1 398.5 253.7L398.5 253.7L398.7 253.7L398.7 240.6Q398.7 238.7 399.7 237.7Q400.7 236.7 402.3 236.7Q404.0 236.7 405.0 237.7Q406.0 238.7 406.0 240.6L406.0 240.6L406.0 276.5Q406.0 278.2 405.0 279.2Q404.0 280.2 402.4 280.2L402.4 280.2Q400.7 280.2 399.7 279.2Q398.7 278.2 398.7 276.5L398.7 276.5L398.7 274.1L398.5 274.1Q397.4 276.9 394.9 278.5Q392.4 280.1 388.9 280.1ZM391.1 274.1L391.1 274.1Q394.6 274.1 396.6 271.4Q398.7 268.7 398.7 264.1L398.7 264.1Q398.7 259.5 396.6 256.7Q394.6 254.0 391.1 254.0L391.1 254.0Q387.6 254.0 385.5 256.7Q383.5 259.4 383.5 264.1L383.5 264.1Q383.5 268.7 385.5 271.4Q387.5 274.1 391.1 274.1ZM415.7 280.2L415.7 280.2Q414.1 280.2 413.1 279.2Q412.1 278.1 412.1 276.3L412.1 276.3L412.1 251.6Q412.1 249.9 413.1 248.9Q414.0 247.9 415.6 247.9Q417.2 247.9 418.1 248.9Q419.1 249.9 419.1 251.6L419.1 251.6L419.1 253.9L419.2 253.9Q420.3 251.2 422.6 249.5Q425.0 247.9 428.1 247.9L428.1 247.9Q431.4 247.9 433.6 249.6Q435.9 251.2 436.8 254.2L436.8 254.2L436.9 254.2Q438.1 251.3 440.6 249.6Q443.2 247.9 446.6 247.9L446.6 247.9Q451.2 247.9 454.0 250.8Q456.7 253.6 456.7 258.3L456.7 258.3L456.7 276.3Q456.7 278.1 455.8 279.1Q454.8 280.2 453.1 280.2L453.1 280.2Q451.4 280.2 450.4 279.1Q449.5 278.1 449.5 276.3L449.5 276.3L449.5 260.1Q449.5 257.2 448.0 255.6Q446.6 254.1 443.9 254.1L443.9 254.1Q441.3 254.1 439.6 255.8Q438.0 257.6 438.0 260.4L438.0 260.4L438.0 276.3Q438.0 278.1 437.0 279.2Q436.1 280.2 434.4 280.2L434.4 280.2Q432.8 280.2 431.8 279.2Q430.9 278.1 430.9 276.3L430.9 276.3L430.9 259.7Q430.9 257.1 429.4 255.6Q427.9 254.1 425.4 254.1L425.4 254.1Q422.7 254.1 421.1 255.9Q419.4 257.8 419.4 260.6L419.4 260.6L419.4 276.3Q419.4 278.1 418.4 279.1Q417.4 280.2 415.7 280.2ZM487.3 275.9Q483.2 280.2 476.3 280.2Q469.4 280.2 465.4 275.9Q461.3 271.6 461.3 264.1L461.3 264.1Q461.3 256.6 465.4 252.2Q469.5 247.9 476.3 247.9L476.3 247.9Q483.2 247.9 487.3 252.2Q491.3 256.6 491.3 264.1L491.3 264.1Q491.3 271.6 487.3 275.9ZM470.8 271.7Q472.8 274.4 476.3 274.4Q479.8 274.4 481.9 271.7Q483.9 269.0 483.9 264.1L483.9 264.1Q483.9 259.2 481.9 256.4Q479.8 253.7 476.3 253.7L476.3 253.7Q472.8 253.7 470.8 256.4Q468.7 259.2 468.7 264.1L468.7 264.1Q468.7 269.0 470.8 271.7ZM502.3 279.2Q501.3 280.2 499.7 280.2Q498.0 280.2 497.0 279.2Q496.0 278.1 496.0 276.3L496.0 276.3L496.0 251.6Q496.0 249.9 497.0 248.9Q497.9 247.9 499.5 247.9Q501.1 247.9 502.1 248.9Q503.1 249.9 503.1 251.6L503.1 251.6L503.1 253.8L503.3 253.8Q505.9 247.9 512.9 247.9L512.9 247.9Q518.0 247.9 520.9 251.0Q523.7 254.1 523.7 259.5L523.7 259.5L523.7 276.3Q523.7 278.1 522.7 279.2Q521.7 280.2 520.1 280.2Q518.4 280.2 517.4 279.2Q516.4 278.1 516.4 276.3L516.4 276.3L516.4 261.0Q516.4 257.6 514.8 255.9Q513.3 254.1 510.2 254.1L510.2 254.1Q507.1 254.1 505.2 256.2Q503.3 258.2 503.3 261.6L503.3 261.6L503.3 276.3Q503.3 278.1 502.3 279.2ZM536.2 243.0Q535.0 244.2 533.3 244.2Q531.6 244.2 530.5 243.0Q529.3 241.8 529.3 240.2L529.3 240.2Q529.3 238.5 530.5 237.4Q531.6 236.2 533.3 236.2L533.3 236.2Q535.1 236.2 536.2 237.4Q537.4 238.5 537.4 240.2L537.4 240.2Q537.4 241.8 536.2 243.0ZM536.0 279.1Q535 280.2 533.3 280.2Q531.7 280.2 530.7 279.1Q529.7 278.1 529.7 276.3L529.7 276.3L529.7 251.7Q529.7 250.0 530.7 248.9Q531.7 247.9 533.3 247.9Q535 247.9 536.0 248.9Q537.0 250.0 537.0 251.8L537.0 251.8L537.0 276.3Q537.0 278.1 536.0 279.1ZM545.1 271.9L545.1 271.9L545.1 254.1L543.2 254.1Q541.8 254.1 541.0 253.4Q540.2 252.6 540.2 251.3L540.2 251.3Q540.2 250.0 541.0 249.3Q541.8 248.5 543.2 248.5L543.2 248.5L545.1 248.5L545.1 244.4Q545.1 242.6 546.1 241.6Q547.1 240.6 548.8 240.6L548.8 240.6Q550.5 240.6 551.5 241.6Q552.4 242.6 552.4 244.4L552.4 244.4L552.4 248.5L555.8 248.5Q557.2 248.5 558.0 249.3Q558.7 250.0 558.7 251.3L558.7 251.3Q558.7 252.6 557.9 253.4Q557.1 254.1 555.8 254.1L555.8 254.1L552.4 254.1L552.4 270.3Q552.4 272.1 553.1 272.9Q553.8 273.7 555.4 273.9L555.4 273.9L555.9 273.9Q558.8 274.2 558.8 276.6L558.8 276.6Q558.8 278.2 557.5 279.1Q556.1 279.9 553.6 279.9L553.6 279.9L553.3 279.9Q545.1 279.9 545.1 271.9ZM569.9 243.0Q568.8 244.2 567.1 244.2Q565.4 244.2 564.2 243.0Q563.0 241.8 563.0 240.2L563.0 240.2Q563.0 238.5 564.2 237.4Q565.4 236.2 567.1 236.2L567.1 236.2Q568.8 236.2 570.0 237.4Q571.1 238.5 571.1 240.2L571.1 240.2Q571.1 241.8 569.9 243.0ZM569.7 279.1Q568.7 280.2 567.1 280.2Q565.4 280.2 564.4 279.1Q563.4 278.1 563.4 276.3L563.4 276.3L563.4 251.7Q563.4 250.0 564.4 248.9Q565.4 247.9 567.1 247.9Q568.7 247.9 569.7 248.9Q570.7 250.0 570.7 251.8L570.7 251.8L570.7 276.3Q570.7 278.1 569.7 279.1ZM601.5 275.9Q597.5 280.2 590.6 280.2Q583.7 280.2 579.6 275.9Q575.5 271.6 575.5 264.1L575.5 264.1Q575.5 256.6 579.6 252.2Q583.8 247.9 590.6 247.9L590.6 247.9Q597.4 247.9 601.5 252.2Q605.6 256.6 605.6 264.1L605.6 264.1Q605.6 271.6 601.5 275.9ZM585.0 271.7Q587.1 274.4 590.6 274.4Q594.1 274.4 596.1 271.7Q598.2 269.0 598.2 264.1L598.2 264.1Q598.2 259.2 596.1 256.4Q594.1 253.7 590.6 253.7L590.6 253.7Q587.1 253.7 585.0 256.4Q583.0 259.2 583.0 264.1L583.0 264.1Q583.0 269.0 585.0 271.7ZM616.6 279.2Q615.6 280.2 613.9 280.2Q612.3 280.2 611.3 279.2Q610.3 278.1 610.3 276.3L610.3 276.3L610.3 251.6Q610.3 249.9 611.2 248.9Q612.2 247.9 613.8 247.9Q615.4 247.9 616.4 248.9Q617.4 249.9 617.4 251.6L617.4 251.6L617.4 253.8L617.5 253.8Q620.2 247.9 627.2 247.9L627.2 247.9Q632.3 247.9 635.1 251.0Q637.9 254.1 637.9 259.5L637.9 259.5L637.9 276.3Q637.9 278.1 637.0 279.2Q636.0 280.2 634.3 280.2Q632.7 280.2 631.7 279.2Q630.7 278.1 630.7 276.3L630.7 276.3L630.7 261.0Q630.7 257.6 629.1 255.9Q627.5 254.1 624.4 254.1L624.4 254.1Q621.3 254.1 619.4 256.2Q617.6 258.2 617.6 261.6L617.6 261.6L617.6 276.3Q617.6 278.1 616.6 279.2ZM655.8 280.2L655.8 280.2Q650.9 280.2 647.6 278.5Q644.2 276.8 643.1 274.0L643.1 274.0Q642.8 273.2 642.8 272.5L642.8 272.5Q642.8 271.2 643.7 270.4Q644.5 269.6 645.9 269.6L645.9 269.6Q647.7 269.6 649.0 271.4L649.0 271.4Q650.3 273.3 651.9 274.1Q653.5 274.9 656.0 274.9L656.0 274.9Q658.6 274.9 660.1 273.9Q661.7 272.8 661.7 271.1L661.7 271.1Q661.7 269.7 660.7 268.8Q659.7 268.0 657.3 267.4L657.3 267.4L652.3 266.3Q643.2 264.3 643.2 257.4L643.2 257.4Q643.2 253.1 646.7 250.5Q650.1 247.9 655.9 247.9L655.9 247.9Q660.3 247.9 663.5 249.8Q666.7 251.6 667.5 254.4L667.5 254.4Q667.6 255.0 667.6 255.5L667.6 255.5Q667.6 256.6 666.9 257.4Q666.1 258.1 664.8 258.1L664.8 258.1Q662.9 258.1 662.0 256.7L662.0 256.7Q660.9 255.0 659.4 254.1Q657.9 253.2 655.7 253.2L655.7 253.2Q653.3 253.2 651.8 254.3Q650.3 255.3 650.3 257.0L650.3 257.0Q650.3 259.8 654.9 260.8L654.9 260.8L659.8 261.9Q664.8 263.0 666.9 264.9Q669.0 266.9 669.0 270.3L669.0 270.3Q669.0 274.8 665.4 277.5Q661.7 280.2 655.8 280.2Z "/><defs><clipPath id="satori_bc-id-0-1"><rect x="0" y="441" width="1200" height="189"/></clipPath></defs><mask id="satori_om-id-0-1"><rect x="0" y="442" width="1200" height="188" fill="#fff"/><path width="1200" height="189" fill="none" stroke="#000" stroke-width="2" d="M0,441 A0,0 0 0 1 0,441 h1200 A0,0 0 0 1 1200,441"/></mask><path width="1200" height="189" clip-path="url(#satori_bc-id-0-1)" fill="none" stroke="#dbdbdb" stroke-width="2" d="M0,441 A0,0 0 0 1 0,441 h1200 A0,0 0 0 1 1200,441"/><mask id="satori_om-id-0-1-0"><rect x="40" y="482" width="292" height="108" fill="#fff"/></mask><clipPath id="satori_cp-id-0-1-0-0"><rect x="40" y="504" width="64" height="64"/></clipPath><mask id="satori_om-id-0-1-0-0"><rect x="40" y="504" width="64" height="64" fill="#fff"/></mask><image x="40" y="504" width="64" height="64" href="data:image/svg+xml;utf8,%3Csvg  xmlns=%22http://www.w3.org/2000/svg%22 width=%2264%22 height=%2264%22 viewBox=%220 0 128 128%22%3E%3Cpath fill=%22%23224d67%22 d=%22M22.5 14.8c2.9 1.3 99 44 99 44c2.7 1.2 2.9 3.1 2 12.4c-1 10.5-1.9 37.8-40.2 42.9c-24.6 3.2-55.9-4.3-70.9-27.2C-6 58.8 11 23.4 14.8 17.7c2.4-3.5 4.8-4.2 7.7-2.9%22%3E%3C/path%3E%3Cpath fill=%22%23f0f4c3%22 d=%22M121.5 58.8c-.3-.2-92-40.8-98.9-43.9C9.6 31.5-3.8 76 27.9 96.2c33.6 21.5 78.7-10.2 93.6-37.4%22%3E%3C/path%3E%3Cpath fill=%22%23f0f4c3%22 d=%22M117.7 57c-.3-.2-86.7-38.4-93.2-41.3c-12.2 15.5-23.9 59.1 5.7 78c31.4 20.2 73.6-11.2 87.5-36.7%22%3E%3C/path%3E%3Cpath fill=%22%23cb2a42%22 d=%22M56.2 37.6L19.5 48.2c-2.5.8-4.4 2.8-5 5.3c-1.9 8.5.8 23.3 8.9 29.8c3.5 2.7 8.6 1.8 10.8-2.1L58.5 41c1.3-1.7.5-4.2-2.3-3.4m14.3 2.9s14.6 30.1 16 33s6.3 4.7 9.9 2.8c10.7-5.6 15.5-12.4 19.2-20.2c-8.9-3.9-42.4-18.8-42.4-18.8c-2.4-1.1-4 .6-2.7 3.2m-8.6 1.9C60.3 45.1 39.5 81 37.6 84.1c-1.9 3.2-.7 7.5 2.7 9.2c12.3 6.5 30.9.4 39.6-7c2.2-1.9 4.5-5.1 3.2-8.2S68.9 44.6 67.8 42.3c-1.2-2.7-4.1-2.8-5.9.1%22%3E%3C/path%3E%3Cpath fill=%22%23f0f4c3%22 d=%22M52.2 42.2c-1.4.4-10.1 3-11.1 3.4c-1.4.5-2.2 1.7-1.9 2.5c.3.9 1.7 1.1 3.1.6c.8-.3 7.1-3.9 9.5-5.2c-3.1 2.4-10.2 9.4-11.1 10.3c-1.4 1.5-1.7 3.4-.8 4.3c1 .9 2.9.5 4.3-1c1.2-1.3 8.5-12.8 9.1-13.9s.4-1.4-1.1-1m10.1 16.4c0-2.2 1.4-10.3 1.8-12.3c.4-1.6 1.5-1.8 1.8.5s1.7 9.7 1.7 11.8s-1.2 3.3-2.7 3.3c-1.4 0-2.6-1.1-2.6-3.3M79.9 49c-1.2-1.8-3.3-4.9-4.1-6.1c-.7-1.2.1-2.1 1.8-.9s4 2.9 5.4 4c1.6 1.3 1.9 3 .8 4s-2.7.8-3.9-1%22%3E%3C/path%3E%3Cellipse cx=%2287.3%22 cy=%22103.12%22 fill=%22%23cb2a42%22 rx=%223.4%22 ry=%222.3%22 transform=%22rotate(-27.098 87.298 103.126)%22%3E%3C/ellipse%3E%3Cellipse cx=%2298.89%22 cy=%22103.82%22 fill=%22%23cb2a42%22 rx=%223.4%22 ry=%222.3%22 transform=%22rotate(-30.642 98.887 103.818)%22%3E%3C/ellipse%3E%3Cellipse cx=%22102.02%22 cy=%2293.8%22 fill=%22%23cb2a42%22 rx=%223.4%22 ry=%222.3%22 transform=%22rotate(-37.16 102.017 93.797)%22%3E%3C/ellipse%3E%3Cpath fill=%22%23cb2a42%22 d=%22M57.6 30.3c-8.3-3.7-24.4-10.7-29.6-13c-3.6 2.2-9.7 11.4-11.2 21.2c-.6 3.6 1.7 5.9 5.3 4.9c0 0 33.7-9.3 35.3-9.7c1.6-.5 2-2.6.2-3.4%22%3E%3C/path%3E%3C/svg%3E" preserveAspectRatio="none" clip-path="url(#satori_cp-id-0-1-0-0)" mask="url(#satori_om-id-0-1-0-0)"/><mask id="satori_om-id-0-1-0-0-0"><rect x="40" y="504" width="0" height="64" fill="#fff"/></mask><mask id="satori_om-id-0-1-0-0-1"><rect x="40" y="504" width="0" height="64" fill="#fff"/></mask><mask id="satori_om-id-0-1-0-0-2"><rect x="40" y="504" width="0" height="64" fill="#fff"/></mask><mask id="satori_om-id-0-1-0-0-3"><rect x="40" y="504" width="0" height="64" fill="#fff"/></mask><mask id="satori_om-id-0-1-0-0-4"><rect x="40" y="504" width="0" height="64" fill="#fff"/></mask><mask id="satori_om-id-0-1-0-0-5"><rect x="40" y="504" width="0" height="64" fill="#fff"/></mask><mask id="satori_om-id-0-1-0-0-6"><rect x="40" y="504" width="0" height="64" fill="#fff"/></mask><mask id="satori_om-id-0-1-0-0-7"><rect x="40" y="504" width="0" height="64" fill="#fff"/></mask><mask id="satori_om-id-0-1-0-0-8"><rect x="40" y="504" width="0" height="64" fill="#fff"/></mask><mask id="satori_om-id-0-1-0-1"><rect x="116" y="512" width="216" height="48" fill="#fff"/></mask><path fill="#545454" d="M121.1 553.5L121.1 553.5Q119.4 553.5 118.4 552.6Q117.5 551.7 117.5 550.2L117.5 550.2Q117.5 549.3 117.9 547.9L117.9 547.9L127.2 522.8Q127.9 520.7 129.2 519.7Q130.5 518.8 132.5 518.8L132.5 518.8Q134.6 518.8 135.9 519.7Q137.2 520.7 137.9 522.8L137.9 522.8L147.2 547.9Q147.6 549.2 147.6 550.2L147.6 550.2Q147.6 551.6 146.6 552.6Q145.6 553.5 144.1 553.5L144.1 553.5Q142.6 553.5 141.7 552.8Q140.9 552.1 140.4 550.4L140.4 550.4L138.6 545.0L126.4 545.0L124.6 550.3Q124.2 552.0 123.3 552.8Q122.5 553.5 121.1 553.5ZM132.4 525.7L128.0 539.6L137 539.6L132.5 525.7L132.4 525.7ZM159.1 552.6Q158.2 553.6 156.6 553.6Q155.0 553.6 154.1 552.6Q153.2 551.7 153.2 550.0L153.2 550.0L153.2 533.1L151.9 533.1Q150.8 533.1 150.1 532.4Q149.4 531.7 149.4 530.6Q149.4 529.4 150.1 528.7Q150.8 528.1 151.9 528.1L151.9 528.1L153.2 528.1L153.2 526.2Q153.2 522.5 155.0 520.7Q156.7 519.0 160.3 518.9L160.3 518.9Q163.0 518.9 164.2 519.7Q165.5 520.4 165.5 521.7L165.5 521.7Q165.5 523.1 164.1 523.5L164.1 523.5Q163.5 523.7 162.8 523.7L162.8 523.7Q161.2 523.7 160.5 524.4Q159.9 525.1 159.9 526.5L159.9 526.5L159.9 528.1L162.7 528.1Q163.8 528.1 164.5 528.7Q165.2 529.4 165.2 530.6Q165.2 531.7 164.5 532.4Q163.8 533.1 162.7 533.1L162.7 533.1L160.0 533.1L160.0 550.0Q160.0 551.7 159.1 552.6ZM170.3 546.6L170.3 546.6L170.3 533.1L168.9 533.1Q167.7 533.1 167.0 532.4Q166.3 531.7 166.3 530.5Q166.3 529.3 167.0 528.6Q167.7 527.9 168.9 527.9L168.9 527.9L170.3 527.9L170.3 525.1Q170.3 523.5 171.2 522.5Q172.1 521.6 173.7 521.6Q175.3 521.6 176.2 522.5Q177.1 523.5 177.1 525.1L177.1 525.1L177.1 527.9L179.5 527.9Q180.7 527.9 181.4 528.6Q182.1 529.3 182.1 530.5Q182.1 531.7 181.4 532.4Q180.7 533.1 179.5 533.1L179.5 533.1L177.1 533.1L177.1 545.1Q177.1 546.5 177.6 547.1Q178.1 547.7 179.2 547.8L179.2 547.8L179.6 547.8Q180.9 548.0 181.6 548.5Q182.2 549.1 182.2 550.3L182.2 550.3Q182.2 551.8 180.9 552.6Q179.6 553.3 177.4 553.3L177.4 553.3L177.1 553.3Q170.3 553.3 170.3 546.6ZM197.0 553.6L197.0 553.6Q191.2 553.6 187.9 550.2Q184.6 546.7 184.6 540.6L184.6 540.6Q184.6 534.5 187.9 531.0Q191.1 527.4 196.7 527.4L196.7 527.4Q202.0 527.4 205.3 530.7Q208.6 533.9 208.6 539.1L208.6 539.1Q208.6 540.5 207.9 541.3Q207.1 542.1 205.6 542.1L205.6 542.1L191.3 542.1L191.3 542.4Q191.3 545.2 192.9 546.9Q194.4 548.5 197.0 548.5L197.0 548.5Q198.9 548.5 200.3 547.8Q201.6 547.2 203.0 545.5L203.0 545.5Q204.0 544.5 205.3 544.5L205.3 544.5Q206.4 544.5 207.2 545.2Q207.9 545.9 207.9 547.0L207.9 547.0Q207.9 547.8 207.5 548.7L207.5 548.7Q206.2 551 203.4 552.3Q200.7 553.6 197.0 553.6ZM191.4 537.9L191.4 537.9L202.0 537.9Q201.9 535.4 200.5 533.9Q199.0 532.5 196.8 532.5Q194.5 532.5 193.1 534.0Q191.6 535.5 191.4 537.9ZM215.6 553.6L215.6 553.6Q214.0 553.6 213.1 552.6Q212.1 551.7 212.1 550.0L212.1 550.0L212.1 530.9Q212.1 529.3 213.0 528.3Q213.9 527.4 215.4 527.4L215.4 527.4Q216.9 527.4 217.8 528.3Q218.7 529.3 218.7 530.9L218.7 530.9L218.7 532.5L218.8 532.5Q219.3 530.2 220.7 528.9Q222.1 527.5 224.0 527.5L224.0 527.5Q225.4 527.5 226.2 528.2L226.2 528.2Q227.2 528.9 227.2 530.7L227.2 530.7Q227.2 532.3 226.2 533.2L226.2 533.2Q225.2 534.0 223.2 534.1L223.2 534.1Q221.0 534.1 220.0 535.3Q219.0 536.5 219.0 538.8L219.0 538.8L219.0 550.0Q219.0 551.7 218.1 552.6Q217.2 553.6 215.6 553.6ZM242.6 553.6L242.6 553.6Q237.5 553.6 234.1 551.8Q230.8 550.0 229.7 547.1L229.7 547.1Q229.4 546.1 229.4 545.2L229.4 545.2Q229.4 543.8 230.2 543.0Q231.1 542.1 232.5 542.1L232.5 542.1Q233.6 542.1 234.3 542.6Q235.1 543.1 235.7 544.2L235.7 544.2Q236.5 546.1 238.4 547.0Q240.2 547.9 242.7 547.9L242.7 547.9Q245.6 547.9 247.3 546.7Q249.1 545.5 249.1 543.6L249.1 543.6Q249.1 541.9 247.8 540.9Q246.4 539.9 243.3 539.3L243.3 539.3L239.7 538.6Q229.6 536.6 229.6 528.9L229.6 528.9Q229.6 525.9 231.3 523.5Q232.9 521.2 235.9 519.9Q238.8 518.7 242.5 518.7L242.5 518.7Q247.2 518.7 250.5 520.5Q253.8 522.4 254.9 525.7L254.9 525.7Q255.1 526.4 255.1 527.2L255.1 527.2Q255.1 528.5 254.3 529.3Q253.5 530.1 252.1 530.1L252.1 530.1Q250.9 530.1 250.1 529.6Q249.4 529.1 248.8 528.0L248.8 528.0Q247.2 524.4 242.5 524.4L242.5 524.4Q239.9 524.4 238.3 525.5Q236.7 526.6 236.7 528.5L236.7 528.5Q236.7 530.1 238.1 531.1Q239.4 532.1 242.4 532.7L242.4 532.7L245.9 533.4Q251.3 534.5 253.7 536.7Q256.2 539.0 256.2 542.8L256.2 542.8Q256.2 547.8 252.5 550.7Q248.9 553.6 242.6 553.6ZM266.0 552.6Q265.0 553.6 263.5 553.6Q261.9 553.6 261.0 552.6Q260.1 551.7 260.1 550.0L260.1 550.0L260.1 522.2Q260.1 520.6 261.0 519.7Q261.9 518.7 263.4 518.7L263.4 518.7Q265.0 518.7 265.9 519.7Q266.8 520.6 266.8 522.2L266.8 522.2L266.8 532.4L266.9 532.4Q267.9 530.0 270.0 528.7Q272 527.5 274.8 527.5L274.8 527.5Q279.0 527.5 281.3 530.0Q283.6 532.5 283.6 536.9L283.6 536.9L283.6 550.0Q283.6 551.7 282.7 552.6Q281.7 553.6 280.2 553.6Q278.6 553.6 277.7 552.6Q276.8 551.7 276.8 550.0L276.8 550.0L276.8 538.3Q276.8 535.9 275.6 534.5Q274.3 533.1 272.0 533.1L272.0 533.1Q269.7 533.1 268.3 534.7Q266.9 536.2 266.9 538.7L266.9 538.7L266.9 550.0Q266.9 551.7 266.0 552.6ZM294.1 523.8Q293.0 524.8 291.5 524.8Q290.0 524.8 288.9 523.8Q287.8 522.8 287.8 521.3L287.8 521.3Q287.8 519.8 288.9 518.8Q290.0 517.7 291.5 517.7Q293.0 517.7 294.1 518.8Q295.2 519.8 295.2 521.3L295.2 521.3Q295.2 522.8 294.1 523.8ZM294.0 552.6Q293.1 553.6 291.5 553.6Q289.9 553.6 289.0 552.6Q288.1 551.7 288.1 550.0L288.1 550.0L288.1 531.0Q288.1 529.3 289.0 528.4Q289.9 527.4 291.5 527.4Q293.1 527.4 294.0 528.4Q294.9 529.3 294.9 531.0L294.9 531.0L294.9 550.0Q294.9 551.7 294.0 552.6ZM307.2 552.6Q306.3 553.6 304.7 553.6Q303.1 553.6 302.2 552.6Q301.3 551.7 301.3 550.0L301.3 550.0L301.3 533.1L300.0 533.1Q298.9 533.1 298.2 532.4Q297.5 531.7 297.5 530.6Q297.5 529.4 298.2 528.7Q298.9 528.1 300.0 528.1L300.0 528.1L301.3 528.1L301.3 526.2Q301.3 522.5 303.1 520.7Q304.9 519.0 308.5 518.9L308.5 518.9Q311.1 518.9 312.4 519.7Q313.6 520.4 313.6 521.7L313.6 521.7Q313.6 523.1 312.2 523.5L312.2 523.5Q311.6 523.7 310.9 523.7L310.9 523.7Q309.4 523.7 308.7 524.4Q308.0 525.1 308.0 526.5L308.0 526.5L308.0 528.1L310.9 528.1Q312.0 528.1 312.7 528.7Q313.4 529.4 313.4 530.6Q313.4 531.7 312.7 532.4Q312.0 533.1 310.9 533.1L310.9 533.1L308.1 533.1L308.1 550.0Q308.1 551.7 307.2 552.6ZM318.4 546.6L318.4 546.6L318.4 533.1L317.1 533.1Q315.9 533.1 315.1 532.4Q314.4 531.7 314.4 530.5Q314.4 529.3 315.1 528.6Q315.9 527.9 317.1 527.9L317.1 527.9L318.4 527.9L318.4 525.1Q318.4 523.5 319.3 522.5Q320.2 521.6 321.8 521.6Q323.4 521.6 324.3 522.5Q325.2 523.5 325.2 525.1L325.2 525.1L325.2 527.9L327.6 527.9Q328.9 527.9 329.6 528.6Q330.3 529.3 330.3 530.5Q330.3 531.7 329.6 532.4Q328.9 533.1 327.6 533.1L327.6 533.1L325.2 533.1L325.2 545.1Q325.2 546.5 325.7 547.1Q326.2 547.7 327.3 547.8L327.3 547.8L327.8 547.8Q329.1 548.0 329.7 548.5Q330.4 549.1 330.4 550.3L330.4 550.3Q330.4 551.8 329.0 552.6Q327.7 553.3 325.5 553.3L325.5 553.3L325.3 553.3Q318.4 553.3 318.4 546.6Z "/><mask id="satori_om-id-0-1-1"><rect x="924" y="524" width="236" height="36" fill="#fff"/></mask><path fill="#8e8e8e" d="M927.9 552.6Q927.5 552.9 927.0 552.9Q926.4 552.9 926.1 552.6Q925.8 552.2 925.8 551.7L925.8 551.7L925.8 532.6Q925.8 532.0 926.1 531.6Q926.5 531.3 927.1 531.3Q927.6 531.3 928.0 531.6Q928.3 532.0 928.3 532.6L928.3 532.6L928.3 540.0L928.4 540.0Q929.1 538.7 930.4 537.9Q931.7 537.2 933.3 537.2L933.3 537.2Q936.2 537.2 937.9 539.3Q939.7 541.5 939.7 545.0L939.7 545.0Q939.7 548.6 937.9 550.8Q936.2 552.9 933.2 552.9L933.2 552.9Q931.6 552.9 930.3 552.2Q929.0 551.4 928.3 550.1L928.3 550.1L928.2 550.1L928.2 551.7Q928.2 552.2 927.9 552.6ZM932.7 550.7L932.7 550.7Q934.8 550.7 935.9 549.2Q937.1 547.7 937.1 545.0L937.1 545.0Q937.1 542.5 935.9 540.9Q934.8 539.4 932.7 539.4L932.7 539.4Q930.8 539.4 929.6 541.0Q928.3 542.5 928.3 545.0L928.3 545.0Q928.3 547.6 929.6 549.1Q930.8 550.7 932.7 550.7ZM943.8 558.4L943.8 558.4Q942.9 558.4 942.4 558.0Q941.9 557.7 941.9 557.1L941.9 557.1Q941.9 556.7 942.1 556.4Q942.4 556.2 942.9 556.2L942.9 556.2Q943.1 556.2 943.3 556.2Q943.5 556.2 943.7 556.2L943.7 556.2Q945.4 556.2 946.2 553.7L946.2 553.7L946.6 552.7L941.3 539.0Q941.2 538.6 941.2 538.3L941.2 538.3Q941.2 537.8 941.6 537.5Q941.9 537.2 942.5 537.2L942.5 537.2Q943.4 537.2 943.7 538.1L943.7 538.1L947.9 550.1L948.0 550.1L952.2 538.1Q952.3 537.6 952.6 537.4Q952.9 537.2 953.4 537.2L953.4 537.2Q953.9 537.2 954.3 537.5Q954.6 537.8 954.6 538.3L954.6 538.3Q954.6 538.6 954.5 539.0L954.5 539.0L948.9 553.7Q947.9 556.4 946.8 557.4Q945.7 558.4 943.8 558.4Z M965.7 552.5Q965.3 552.9 964.7 552.9Q964.1 552.9 963.8 552.5Q963.4 552.1 963.4 551.5L963.4 551.5L963.4 532.9Q963.4 532.3 963.8 531.9Q964.1 531.5 964.7 531.5L964.7 531.5L970.9 531.5Q973.9 531.5 975.8 533.4Q977.7 535.3 977.7 538.3L977.7 538.3Q977.7 541.3 975.8 543.2Q973.9 545.1 970.9 545.1L970.9 545.1L966.0 545.1L966.0 551.5Q966.0 552.1 965.7 552.5ZM966.0 533.9L966.0 542.8L970.3 542.8Q972.5 542.8 973.8 541.6Q975.0 540.4 975.0 538.3Q975.0 536.2 973.8 535.0Q972.5 533.9 970.3 533.9L970.3 533.9L966.0 533.9ZM984.8 552.9L984.8 552.9Q982.5 552.9 981.1 551.7Q979.7 550.4 979.7 548.4L979.7 548.4Q979.7 546.4 981.2 545.2Q982.6 544.1 985.2 543.9L985.2 543.9L989.6 543.7L989.6 542.4Q989.6 541.0 988.7 540.2Q987.9 539.4 986.3 539.4L986.3 539.4Q985.0 539.4 984.1 539.9Q983.3 540.4 982.6 541.5L982.6 541.5Q982.3 542.1 981.6 542.1L981.6 542.1Q981.1 542.1 980.8 541.8Q980.5 541.5 980.5 541.0Q980.5 540.5 980.8 539.9L980.8 539.9Q981.4 538.7 982.9 537.9Q984.5 537.2 986.3 537.2L986.3 537.2Q989.0 537.2 990.6 538.5Q992.2 539.9 992.2 542.1L992.2 542.1L992.2 551.6Q992.2 552.2 991.8 552.6Q991.5 552.9 991.0 552.9L991.0 552.9Q990.4 552.9 990.1 552.6Q989.7 552.2 989.7 551.6L989.7 551.6L989.7 550.0L989.7 550.0Q989.0 551.3 987.7 552.1Q986.3 552.9 984.8 552.9ZM985.3 550.8L985.3 550.8Q987.1 550.8 988.4 549.6Q989.6 548.5 989.6 546.9L989.6 546.9L989.6 545.6L985.5 545.9Q984.0 546.0 983.1 546.6Q982.3 547.3 982.3 548.4Q982.3 549.4 983.1 550.1Q984.0 550.8 985.3 550.8ZM996.2 549.1L996.2 549.1L996.2 539.5L994.9 539.5Q994.4 539.5 994.1 539.3Q993.8 539.0 993.8 538.5L993.8 538.5Q993.8 538.0 994.1 537.7Q994.4 537.4 994.9 537.4L994.9 537.4L996.2 537.4L996.2 534.8Q996.2 534.2 996.6 533.8Q996.9 533.5 997.5 533.5Q998.0 533.5 998.4 533.8Q998.8 534.2 998.8 534.8L998.8 534.8L998.8 537.4L1000.7 537.4Q1001.3 537.4 1001.6 537.7Q1001.9 538.0 1001.9 538.5L1001.9 538.5Q1001.9 539.0 1001.6 539.3Q1001.3 539.5 1000.7 539.5L1000.7 539.5L998.8 539.5L998.8 548.6Q998.8 549.6 999.2 550.0Q999.6 550.5 1000.5 550.6L1000.5 550.6L1000.7 550.6Q1001.9 550.7 1001.9 551.6L1001.9 551.6Q1001.9 552.2 1001.5 552.5Q1001.1 552.8 1000.1 552.8L1000.1 552.8L999.9 552.8Q996.2 552.8 996.2 549.1ZM1006.6 552.5Q1006.3 552.9 1005.7 552.9Q1005.2 552.9 1004.8 552.5Q1004.4 552.2 1004.4 551.6L1004.4 551.6L1004.4 538.5Q1004.4 537.9 1004.8 537.5Q1005.1 537.2 1005.6 537.2Q1006.2 537.2 1006.5 537.5Q1006.8 537.9 1006.8 538.5L1006.8 538.5L1006.8 539.9L1006.9 539.9Q1007.2 538.7 1008.2 537.9Q1009.2 537.2 1010.4 537.2L1010.4 537.2Q1011.2 537.2 1011.6 537.5L1011.6 537.5Q1011.9 537.8 1011.9 538.4L1011.9 538.4Q1011.9 539.0 1011.5 539.3L1011.5 539.3Q1011.1 539.6 1010.3 539.6L1010.3 539.6Q1008.6 539.6 1007.8 540.6Q1007.0 541.6 1007.0 543.2L1007.0 543.2L1007.0 551.6Q1007.0 552.2 1006.6 552.5ZM1015.1 534.9L1015.1 534.9Q1014.4 534.9 1014.0 534.4Q1013.5 533.9 1013.5 533.3L1013.5 533.3Q1013.5 532.6 1014.0 532.2Q1014.4 531.7 1015.1 531.7L1015.1 531.7Q1015.7 531.7 1016.2 532.2Q1016.7 532.6 1016.7 533.3L1016.7 533.3Q1016.7 533.9 1016.2 534.4Q1015.7 534.9 1015.1 534.9ZM1016.0 552.5Q1015.6 552.9 1015.1 552.9Q1014.5 552.9 1014.2 552.5Q1013.8 552.2 1013.8 551.6L1013.8 551.6L1013.8 538.5Q1013.8 537.9 1014.2 537.5Q1014.5 537.2 1015.1 537.2Q1015.6 537.2 1016.0 537.5Q1016.4 537.9 1016.4 538.5L1016.4 538.5L1016.4 551.6Q1016.4 552.2 1016.0 552.5ZM1026.1 552.9L1026.1 552.9Q1022.9 552.9 1021.0 550.8Q1019.1 548.7 1019.1 545.1Q1019.1 541.5 1021.0 539.3Q1022.9 537.2 1026.1 537.2L1026.1 537.2Q1028.2 537.2 1029.9 538.2Q1031.6 539.3 1032.0 540.9L1032.0 540.9Q1032.1 541.2 1032.1 541.4L1032.1 541.4Q1032.1 542.0 1031.8 542.3Q1031.5 542.6 1031.0 542.6L1031.0 542.6Q1030.6 542.6 1030.3 542.4Q1030.1 542.2 1029.8 541.7L1029.8 541.7Q1028.6 539.4 1026.1 539.4L1026.1 539.4Q1024.1 539.4 1022.9 541.0Q1021.6 542.5 1021.6 545.0L1021.6 545.0Q1021.6 547.6 1022.9 549.2Q1024.1 550.7 1026.1 550.7L1026.1 550.7Q1027.4 550.7 1028.3 550.1Q1029.2 549.6 1029.8 548.4L1029.8 548.4Q1030.1 547.9 1030.3 547.7Q1030.6 547.5 1031.0 547.5L1031.0 547.5Q1031.5 547.5 1031.8 547.8Q1032.1 548.2 1032.1 548.7L1032.1 548.7Q1032.1 548.9 1032.0 549.3L1032.0 549.3Q1031.4 550.9 1029.8 551.9Q1028.2 552.9 1026.1 552.9ZM1041.2 552.9L1041.2 552.9Q1037.8 552.9 1036.0 550.9Q1034.1 548.8 1034.1 545.1L1034.1 545.1Q1034.1 541.5 1036.0 539.3Q1037.8 537.2 1041.0 537.2L1041.0 537.2Q1043.9 537.2 1045.8 539.1Q1047.6 541.1 1047.6 544.3L1047.6 544.3Q1047.6 544.9 1047.3 545.3Q1046.9 545.7 1046.2 545.7L1046.2 545.7L1036.7 545.7Q1036.7 548.0 1037.9 549.4Q1039.1 550.7 1041.1 550.7L1041.1 550.7Q1042.5 550.7 1043.4 550.2Q1044.3 549.6 1045.2 548.3L1045.2 548.3Q1045.6 547.8 1046.2 547.8L1046.2 547.8Q1046.7 547.8 1047.0 548.1Q1047.3 548.4 1047.3 548.9L1047.3 548.9Q1047.3 549.2 1047.1 549.7L1047.1 549.7Q1046.4 551.2 1044.8 552.1Q1043.3 552.9 1041.2 552.9ZM1036.7 543.7L1036.7 543.7L1045.0 543.7Q1045.0 541.8 1043.8 540.6Q1042.7 539.4 1041.0 539.4L1041.0 539.4Q1039.2 539.4 1038.0 540.6Q1036.8 541.8 1036.7 543.7Z M1059.0 552.5Q1058.7 552.9 1058.1 552.9Q1057.5 552.9 1057.1 552.5Q1056.7 552.1 1056.7 551.5L1056.7 551.5L1056.7 532.7Q1056.7 532.1 1057.1 531.7Q1057.5 531.3 1058.1 531.3Q1058.7 531.3 1059.0 531.7Q1059.4 532.1 1059.4 532.7L1059.4 532.7L1059.4 541.8L1059.5 541.8L1068.9 531.8Q1069.4 531.3 1070.0 531.3L1070.0 531.3Q1070.5 531.3 1070.9 531.7Q1071.2 532.0 1071.2 532.5L1071.2 532.5Q1071.2 533.0 1070.9 533.3L1070.9 533.3L1063.6 540.9L1071.7 550.6Q1072.1 551.1 1072.1 551.6L1072.1 551.6Q1072.1 552.2 1071.7 552.5Q1071.3 552.9 1070.8 552.9L1070.8 552.9Q1070.1 552.9 1069.6 552.2L1069.6 552.2L1061.7 542.8L1059.4 545.3L1059.4 551.5Q1059.4 552.1 1059.0 552.5ZM1081.2 552.9L1081.2 552.9Q1077.8 552.9 1075.9 550.9Q1074.1 548.8 1074.1 545.1L1074.1 545.1Q1074.1 541.5 1075.9 539.3Q1077.8 537.2 1081.0 537.2L1081.0 537.2Q1083.9 537.2 1085.8 539.1Q1087.6 541.1 1087.6 544.3L1087.6 544.3Q1087.6 544.9 1087.2 545.3Q1086.9 545.7 1086.2 545.7L1086.2 545.7L1076.7 545.7Q1076.7 548.0 1077.9 549.4Q1079.1 550.7 1081.1 550.7L1081.1 550.7Q1082.5 550.7 1083.4 550.2Q1084.3 549.6 1085.2 548.3L1085.2 548.3Q1085.6 547.8 1086.2 547.8L1086.2 547.8Q1086.7 547.8 1087.0 548.1Q1087.3 548.4 1087.3 548.9L1087.3 548.9Q1087.3 549.2 1087.1 549.7L1087.1 549.7Q1086.4 551.2 1084.8 552.1Q1083.3 552.9 1081.2 552.9ZM1076.7 543.7L1076.7 543.7L1085.0 543.7Q1084.9 541.8 1083.8 540.6Q1082.7 539.4 1080.9 539.4L1080.9 539.4Q1079.1 539.4 1078.0 540.6Q1076.8 541.8 1076.7 543.7ZM1092.4 552.5Q1092.0 552.9 1091.4 552.9Q1090.9 552.9 1090.5 552.5Q1090.2 552.2 1090.2 551.6L1090.2 551.6L1090.2 538.5Q1090.2 537.9 1090.5 537.5Q1090.8 537.2 1091.4 537.2Q1091.9 537.2 1092.2 537.5Q1092.6 537.9 1092.6 538.5L1092.6 538.5L1092.6 539.9L1092.6 539.9Q1093.3 538.6 1094.5 537.9Q1095.8 537.2 1097.5 537.2L1097.5 537.2Q1100.0 537.2 1101.3 538.7Q1102.7 540.2 1102.7 542.8L1102.7 542.8L1102.7 551.6Q1102.7 552.2 1102.4 552.5Q1102.0 552.9 1101.5 552.9Q1100.9 552.9 1100.6 552.5Q1100.2 552.2 1100.2 551.6L1100.2 551.6L1100.2 543.2Q1100.2 541.4 1099.3 540.4Q1098.4 539.4 1096.7 539.4L1096.7 539.4Q1094.9 539.4 1093.8 540.6Q1092.7 541.8 1092.7 543.7L1092.7 543.7L1092.7 551.6Q1092.7 552.2 1092.4 552.5ZM1108.2 552.5Q1107.8 552.9 1107.3 552.9Q1106.7 552.9 1106.3 552.5Q1106.0 552.2 1106.0 551.6L1106.0 551.6L1106.0 538.5Q1106.0 537.9 1106.3 537.5Q1106.7 537.2 1107.2 537.2Q1107.7 537.2 1108.0 537.5Q1108.4 537.9 1108.4 538.5L1108.4 538.5L1108.4 539.9L1108.4 539.9Q1109.0 538.6 1110.1 537.9Q1111.3 537.2 1112.8 537.2L1112.8 537.2Q1114.3 537.2 1115.4 537.9Q1116.5 538.7 1117.0 540.1L1117.0 540.1L1117.1 540.1Q1117.7 538.7 1119.0 537.9Q1120.3 537.2 1121.9 537.2L1121.9 537.2Q1124.1 537.2 1125.5 538.5Q1126.8 539.9 1126.8 542.1L1126.8 542.1L1126.8 551.6Q1126.8 552.2 1126.5 552.5Q1126.1 552.9 1125.6 552.9Q1125.0 552.9 1124.6 552.5Q1124.3 552.2 1124.3 551.6L1124.3 551.6L1124.3 542.7Q1124.3 541.2 1123.5 540.3Q1122.6 539.4 1121.1 539.4Q1119.6 539.4 1118.6 540.4Q1117.7 541.4 1117.7 543.0L1117.7 543.0L1117.7 551.6Q1117.7 552.2 1117.3 552.5Q1117.0 552.9 1116.4 552.9Q1115.8 552.9 1115.5 552.5Q1115.1 552.2 1115.1 551.6L1115.1 551.6L1115.1 542.5Q1115.1 541.1 1114.3 540.2Q1113.4 539.4 1112.0 539.4L1112.0 539.4Q1110.5 539.4 1109.5 540.5Q1108.5 541.5 1108.5 543.1L1108.5 543.1L1108.5 551.6Q1108.5 552.2 1108.2 552.5ZM1136.4 552.9L1136.4 552.9Q1133.2 552.9 1131.3 550.8Q1129.3 548.7 1129.3 545.0Q1129.3 541.4 1131.3 539.3Q1133.2 537.2 1136.4 537.2L1136.4 537.2Q1139.6 537.2 1141.5 539.3Q1143.4 541.4 1143.4 545.0L1143.4 545.0Q1143.4 548.7 1141.5 550.8Q1139.6 552.9 1136.4 552.9ZM1133.1 549.2Q1134.3 550.7 1136.4 550.7Q1138.4 550.7 1139.6 549.2Q1140.8 547.7 1140.8 545.0Q1140.8 542.4 1139.6 540.9Q1138.4 539.4 1136.4 539.4Q1134.3 539.4 1133.1 540.9Q1131.9 542.4 1131.9 545.0Q1131.9 547.7 1133.1 549.2ZM1152.5 535.6L1152.5 535.6Q1152.1 535.6 1151.9 535.4Q1151.6 535.2 1151.6 534.8Q1151.6 534.5 1151.8 534.2L1151.8 534.2L1154.0 531.1Q1154.3 530.6 1154.6 530.5Q1154.8 530.3 1155.1 530.3L1155.1 530.3Q1155.6 530.3 1155.9 530.6Q1156.2 530.9 1156.2 531.3L1156.2 531.3Q1156.2 531.7 1155.9 532.1L1155.9 532.1L1153.4 535.1Q1153.0 535.6 1152.5 535.6ZM1152.4 552.9L1152.4 552.9Q1149.0 552.9 1147.1 550.9Q1145.3 548.8 1145.3 545.1L1145.3 545.1Q1145.3 541.5 1147.1 539.3Q1149.0 537.2 1152.2 537.2L1152.2 537.2Q1155.1 537.2 1156.9 539.1Q1158.8 541.1 1158.8 544.3L1158.8 544.3Q1158.8 544.9 1158.4 545.3Q1158.1 545.7 1157.4 545.7L1157.4 545.7L1147.9 545.7Q1147.9 548.0 1149.1 549.4Q1150.2 550.7 1152.3 550.7L1152.3 550.7Q1153.6 550.7 1154.6 550.2Q1155.5 549.6 1156.4 548.3L1156.4 548.3Q1156.8 547.8 1157.3 547.8L1157.3 547.8Q1157.9 547.8 1158.2 548.1Q1158.5 548.4 1158.5 548.9L1158.5 548.9Q1158.5 549.2 1158.3 549.7L1158.3 549.7Q1157.6 551.2 1156.0 552.1Q1154.5 552.9 1152.4 552.9ZM1147.9 543.7L1147.9 543.7L1156.2 543.7Q1156.1 541.8 1155.0 540.6Q1153.9 539.4 1152.1 539.4L1152.1 539.4Q1150.3 539.4 1149.2 540.6Q1148.0 541.8 1147.9 543.7Z "/></svg>