<svg width="1200" height="630" viewBox="0 0 1200 630" xmlns="http://www.w3.org/2000/svg"><mask id="satori_om-id"><rect x="0" y="0" width="1200" height="630" fill="#fff"/></mask><mask id="satori_om-id-0"><rect x="0" y="0" width="1200" height="630" fill="#fff"/></mask><rect x="0" y="0" width="1200" height="630" fill="#f2f2f2"/><mask id="satori_om-id-0-0"><rect x="0" y="0" width="1200" height="441" fill="#fff"/></mask><mask id="satori_om-id-0-0-0"><rect x="40" y="136" width="1120" height="36" fill="#fff"/></mask><path fill="#8e8e8e" d="M50.0 164.4Q49.6 164.9 48.8 164.9Q48.1 164.9 47.6 164.4Q47.2 164.0 47.2 163.2L47.2 163.2L47.2 146.4L42.0 146.4Q41.3 146.4 40.9 146.0Q40.5 145.6 40.5 144.9Q40.5 144.3 40.9 143.9Q41.3 143.5 42.0 143.5L42.0 143.5L55.6 143.5Q56.3 143.5 56.8 143.9Q57.2 144.3 57.2 144.9Q57.2 145.6 56.8 146.0Q56.3 146.4 55.6 146.4L55.6 146.4L50.5 146.4L50.5 163.2Q50.5 164.0 50.0 164.4ZM62.1 164.5Q61.6 164.9 60.9 164.9Q60.2 164.9 59.8 164.5Q59.3 164.0 59.3 163.3L59.3 163.3L59.3 144.9Q59.3 144.1 59.8 143.7Q60.2 143.2 60.9 143.2L60.9 143.2Q61.6 143.2 62.1 143.7Q62.5 144.1 62.5 144.9L62.5 144.9L62.5 151.8L62.5 151.8Q63.2 150.5 64.4 149.7Q65.7 149.0 67.4 149.0L67.4 149.0Q69.9 149.0 71.4 150.5Q72.8 152.1 72.8 154.7L72.8 154.7L72.8 163.3Q72.8 164.0 72.4 164.5Q71.9 164.9 71.2 164.9L71.2 164.9Q70.5 164.9 70.1 164.5Q69.6 164.0 69.6 163.3L69.6 163.3L69.6 155.3Q69.6 153.6 68.8 152.7Q67.9 151.7 66.3 151.7L66.3 151.7Q64.5 151.7 63.5 152.8Q62.5 153.9 62.5 155.8L62.5 155.8L62.5 163.3Q62.5 164.0 62.1 164.5ZM81.2 164.9L81.2 164.9Q78.7 164.9 77.2 163.4Q75.8 161.9 75.8 159.2L75.8 159.2L75.8 150.7Q75.8 149.9 76.2 149.4Q76.7 149.0 77.4 149.0L77.4 149.0Q78.1 149.0 78.5 149.4Q79.0 149.9 79.0 150.7L79.0 150.7L79.0 158.6Q79.0 160.4 79.8 161.3Q80.6 162.2 82.3 162.2L82.3 162.2Q84.0 162.2 84.9 161.1Q85.9 160.0 85.9 158.2L85.9 158.2L85.9 150.7Q85.9 149.9 86.4 149.4Q86.8 149.0 87.5 149.0L87.5 149.0Q88.2 149.0 88.7 149.4Q89.1 149.9 89.1 150.7L89.1 150.7L89.1 163.3Q89.1 164.1 88.7 164.5Q88.3 164.9 87.6 164.9Q86.9 164.9 86.5 164.5Q86.1 164.1 86.1 163.3L86.1 163.3L86.1 162.1L86.0 162.1Q84.6 164.9 81.2 164.9ZM93.8 164.9L93.8 164.9Q93.1 164.9 92.6 164.5Q92.2 164.0 92.2 163.3L92.2 163.3L92.2 150.6Q92.2 149.9 92.6 149.4Q93.0 149.0 93.7 149.0L93.7 149.0Q94.4 149.0 94.8 149.4Q95.2 149.9 95.2 150.6L95.2 150.6L95.2 151.9L95.3 151.9Q95.6 150.6 96.6 149.8Q97.5 149.0 98.7 149.0L98.7 149.0Q99.5 149.0 99.9 149.4L99.9 149.4Q100.3 149.7 100.3 150.5L100.3 150.5Q100.3 151.2 99.9 151.6L99.9 151.6Q99.4 152.0 98.4 152.0L98.4 152.0Q96.9 152.0 96.1 153.0Q95.4 153.9 95.4 155.4L95.4 155.4L95.4 163.3Q95.4 164.0 94.9 164.5Q94.5 164.9 93.8 164.9ZM107.7 165.0L107.7 165.0Q105.5 165.0 103.9 164.1Q102.3 163.3 101.7 161.8L101.7 161.8Q101.6 161.5 101.6 161.2L101.6 161.2Q101.6 160.6 102.0 160.2Q102.4 159.9 103.0 159.9L103.0 159.9Q103.8 159.9 104.4 160.7L104.4 160.7Q105.0 161.7 105.8 162.1Q106.5 162.5 107.9 162.5L107.9 162.5Q109.3 162.5 110.1 162.0Q110.9 161.4 110.9 160.5L110.9 160.5Q110.9 159.7 110.4 159.3Q109.9 158.8 108.7 158.5L108.7 158.5L106.2 158.0Q101.8 156.9 101.8 153.6L101.8 153.6Q101.8 151.5 103.4 150.2Q105.1 149.0 107.9 149.0L107.9 149.0Q109.9 149.0 111.5 149.9Q113.0 150.8 113.4 152.2L113.4 152.2Q113.4 152.6 113.4 152.7L113.4 152.7Q113.4 153.2 113.1 153.5Q112.8 153.9 112.2 153.9L112.2 153.9Q111.3 153.9 110.9 153.2L110.9 153.2Q110.4 152.3 109.6 151.8Q108.9 151.4 107.7 151.4L107.7 151.4Q106.5 151.4 105.7 152.0Q104.9 152.5 104.9 153.4L104.9 153.4Q104.9 154.9 107.2 155.5L107.2 155.5L109.6 156.0Q112.1 156.6 113.1 157.5Q114.1 158.5 114.1 160.2L114.1 160.2Q114.1 162.3 112.3 163.6Q110.6 165.0 107.7 165.0ZM122.3 164.9L122.3 164.9Q119.4 164.9 117.6 162.8Q115.9 160.6 115.9 157.0Q115.9 153.3 117.6 151.2Q119.4 149.0 122.3 149.0L122.3 149.0Q123.9 149.0 125.2 149.8Q126.5 150.5 127.1 151.8L127.1 151.8L127.2 151.8L127.2 144.9Q127.2 144.1 127.6 143.7Q128.1 143.2 128.8 143.2L128.8 143.2Q129.5 143.2 129.9 143.7Q130.4 144.2 130.4 144.9L130.4 144.9L130.4 163.4Q130.4 164.1 129.9 164.5Q129.5 164.9 128.8 164.9L128.8 164.9Q128.1 164.9 127.7 164.5Q127.2 164.1 127.2 163.4L127.2 163.4L127.2 161.9L127.2 161.9Q126.5 163.3 125.3 164.1Q124.1 164.9 122.3 164.9ZM123.2 162.2L123.2 162.2Q125.0 162.2 126.1 160.8Q127.2 159.4 127.2 157.0L127.2 157.0Q127.2 154.6 126.1 153.1Q125.0 151.7 123.2 151.7L123.2 151.7Q121.3 151.7 120.2 153.1Q119.1 154.5 119.1 157.0L119.1 157.0Q119.1 159.4 120.2 160.8Q121.3 162.2 123.2 162.2ZM138.1 164.9L138.1 164.9Q135.9 164.9 134.4 163.6Q133.0 162.3 133.0 160.3L133.0 160.3Q133.0 158.3 134.5 157.1Q136.0 155.9 138.7 155.7L138.7 155.7L142.9 155.5L142.9 154.3Q142.9 153.0 142.1 152.3Q141.3 151.6 139.9 151.6L139.9 151.6Q138.7 151.6 137.9 152.0Q137.1 152.5 136.4 153.5L136.4 153.5Q136.0 154.2 135.2 154.2L135.2 154.2Q134.6 154.2 134.2 153.8Q133.8 153.4 133.8 152.9L133.8 152.9Q133.8 152.3 134.1 151.8L134.1 151.8Q134.7 150.5 136.3 149.8Q137.9 149.0 140.0 149.0L140.0 149.0Q142.8 149.0 144.4 150.4Q146.1 151.7 146.1 154.0L146.1 154.0L146.1 163.3Q146.1 164.1 145.7 164.5Q145.2 164.9 144.6 164.9L144.6 164.9Q143.9 164.9 143.5 164.5Q143.1 164.1 143.1 163.4L143.1 163.4L143.1 162.1L143.0 162.1Q142.3 163.4 141.0 164.2Q139.7 164.9 138.1 164.9ZM139.0 162.4L139.0 162.4Q140.7 162.4 141.8 161.4Q142.9 160.4 142.9 158.9L142.9 158.9L142.9 157.7L139.1 157.9Q137.7 158.0 137.0 158.6Q136.2 159.2 136.2 160.2L136.2 160.2Q136.2 161.2 137.0 161.8Q137.7 162.4 139.0 162.4ZM151.1 170.4L151.1 170.4Q150.0 170.4 149.4 170.0Q148.8 169.6 148.8 168.9L148.8 168.9Q148.8 168.4 149.1 168.1Q149.5 167.8 150.0 167.8L150.0 167.8Q150.2 167.8 150.4 167.8Q150.7 167.8 150.8 167.8L150.8 167.8Q152.4 167.8 153.2 165.7L153.2 165.7L153.5 164.8L148.3 151.3Q148.1 150.9 148.1 150.4L148.1 150.4Q148.1 149.8 148.6 149.4Q149.1 149.0 149.8 149.0L149.8 149.0Q150.4 149.0 150.7 149.3Q151.1 149.5 151.3 150.2L151.3 150.2L155.2 161.8L155.3 161.8L159.2 150.2Q159.4 149.5 159.7 149.3Q160.1 149.0 160.7 149.0L160.7 149.0Q161.4 149.0 161.8 149.4Q162.2 149.8 162.2 150.4L162.2 150.4Q162.2 150.8 162.1 151.3L162.1 151.3L156.7 165.4Q155.7 168.2 154.5 169.3Q153.2 170.4 151.1 170.4ZM166.7 161.1L166.7 161.1Q167.4 161.1 167.8 161.5Q168.2 161.8 168.2 162.4L168.2 162.4Q168.2 162.8 168.1 163.3L168.1 163.3L166.8 168.3Q166.5 169.4 165.4 169.4L165.4 169.4Q164.9 169.4 164.5 169.1Q164.2 168.7 164.2 168.2L164.2 168.2Q164.2 168.1 164.3 167.8L164.3 167.8L165.2 162.4Q165.4 161.1 166.7 161.1Z M185.3 164.9L185.3 164.9Q184.6 164.9 184.2 164.5Q183.7 164.0 183.7 163.3L183.7 163.3L183.7 146.9L183.6 146.9L180.0 149.4Q179.5 149.7 179.0 149.7L179.0 149.7Q178.5 149.7 178.1 149.4Q177.8 149.0 177.8 148.5L177.8 148.5Q177.8 147.7 178.6 147.1L178.6 147.1L183.0 144.0Q183.6 143.6 184.1 143.4Q184.5 143.2 185.1 143.2L185.1 143.2Q185.9 143.2 186.4 143.7Q186.9 144.2 186.9 145.1L186.9 145.1L186.9 163.3Q186.9 164.0 186.5 164.5Q186.0 164.9 185.3 164.9ZM195.4 164.9L195.4 164.9Q194.7 164.9 194.3 164.6Q193.9 164.2 193.9 163.6L193.9 163.6Q193.9 163.1 194.2 162.6L194.2 162.6L202.7 146.4L202.7 146.3L192.8 146.3Q192.2 146.3 191.8 145.9Q191.3 145.5 191.3 144.9L191.3 144.9Q191.3 144.3 191.8 143.9Q192.2 143.5 192.8 143.5L192.8 143.5L204.0 143.5Q204.9 143.5 205.5 144.0Q206.0 144.5 206.0 145.4L206.0 145.4Q206.0 146.1 205.4 147.4L205.4 147.4L196.9 164.0Q196.6 164.5 196.3 164.7Q195.9 164.9 195.4 164.9Z M215.7 164.9L215.7 164.9Q215.0 164.9 214.5 164.5Q214.1 164.1 214.1 163.4L214.1 163.4Q214.1 163.0 214.3 162.4L214.3 162.4L220.7 145.0Q221.3 143.3 223.0 143.3L223.0 143.3Q223.8 143.3 224.4 143.7Q224.9 144.1 225.3 145.0L225.3 145.0L231.7 162.4Q231.9 163.0 231.9 163.4L231.9 163.4Q231.9 164.0 231.5 164.5Q231.0 164.9 230.3 164.9L230.3 164.9Q229.6 164.9 229.2 164.6Q228.8 164.3 228.6 163.6L228.6 163.6L227.0 159.0L218.9 159.0L217.3 163.5Q217.1 164.3 216.7 164.6Q216.3 164.9 215.7 164.9ZM222.9 147.0L219.8 156.3L226.2 156.3L223.0 147.0L222.9 147.0ZM237.1 169.7Q236.6 170.1 235.9 170.1Q235.2 170.1 234.8 169.7Q234.3 169.2 234.3 168.4L234.3 168.4L234.3 150.6Q234.3 149.9 234.8 149.4Q235.2 149.0 235.9 149.0L235.9 149.0Q236.6 149.0 237.0 149.4Q237.4 149.9 237.4 150.6L237.4 150.6L237.4 151.9L237.5 151.9Q238.1 150.6 239.4 149.8Q240.7 149.0 242.4 149.0L242.4 149.0Q245.3 149.0 247.1 151.2Q248.9 153.3 248.9 157.0Q248.9 160.6 247.1 162.8Q245.3 164.9 242.4 164.9L242.4 164.9Q240.8 164.9 239.5 164.2Q238.3 163.4 237.6 162.1L237.6 162.1L237.5 162.1L237.5 168.4Q237.5 169.2 237.1 169.7ZM241.5 162.2L241.5 162.2Q243.4 162.2 244.5 160.8Q245.6 159.4 245.6 157.0L245.6 157.0Q245.6 154.5 244.5 153.1Q243.4 151.7 241.5 151.7L241.5 151.7Q239.7 151.7 238.6 153.1Q237.5 154.6 237.5 157.0L237.5 157.0Q237.5 159.4 238.6 160.8Q239.7 162.2 241.5 162.2ZM252.9 164.9L252.9 164.9Q252.2 164.9 251.7 164.5Q251.3 164.0 251.3 163.3L251.3 163.3L251.3 150.6Q251.3 149.9 251.7 149.4Q252.1 149.0 252.8 149.0L252.8 149.0Q253.5 149.0 253.9 149.4Q254.3 149.9 254.3 150.6L254.3 150.6L254.3 151.9L254.4 151.9Q254.7 150.6 255.6 149.8Q256.6 149.0 257.7 149.0L257.7 149.0Q258.6 149.0 259.0 149.4L259.0 149.4Q259.4 149.7 259.4 150.5L259.4 150.5Q259.4 151.2 259.0 151.6L259.0 151.6Q258.5 152.0 257.5 152.0L257.5 152.0Q255.9 152.0 255.2 153.0Q254.5 153.9 254.5 155.4L254.5 155.4L254.5 163.3Q254.5 164.0 254.0 164.5Q253.6 164.9 252.9 164.9ZM264.1 146.4Q263.6 146.9 262.8 146.9Q262.1 146.9 261.5 146.4Q261.0 145.9 261.0 145.1L261.0 145.1Q261.0 144.3 261.5 143.8Q262.1 143.3 262.8 143.3L262.8 143.3Q263.6 143.3 264.1 143.8Q264.7 144.3 264.7 145.1L264.7 145.1Q264.7 145.9 264.1 146.4ZM264.0 164.5Q263.5 164.9 262.8 164.9Q262.1 164.9 261.7 164.5Q261.2 164.0 261.2 163.3L261.2 163.3L261.2 150.7Q261.2 149.9 261.7 149.4Q262.1 149.0 262.8 149.0Q263.5 149.0 264.0 149.4Q264.4 149.9 264.4 150.7L264.4 150.7L264.4 163.3Q264.4 164.0 264.0 164.5ZM270.5 164.5Q270.0 164.9 269.3 164.9Q268.6 164.9 268.2 164.5Q267.8 164.0 267.8 163.3L267.8 163.3L267.8 144.9Q267.8 144.2 268.2 143.7Q268.6 143.2 269.3 143.2Q270.0 143.2 270.5 143.7Q270.9 144.2 270.9 144.9L270.9 144.9L270.9 163.3Q270.9 164.0 270.5 164.5Z M293.5 164.7L281.8 164.7Q281.1 164.7 280.7 164.3Q280.3 163.9 280.3 163.3L280.3 163.3Q280.3 162.8 280.4 162.5Q280.6 162.1 281.2 161.6L281.2 161.6L287.8 154.9Q289.8 152.8 290.5 151.7Q291.2 150.6 291.2 149.3L291.2 149.3Q291.2 147.8 290.2 146.8Q289.1 145.8 287.5 145.8L287.5 145.8Q284.4 145.8 283.3 149.0L283.3 149.0Q283.0 149.5 282.7 149.8Q282.4 150.0 281.8 150.0L281.8 150.0Q281.1 150.0 280.7 149.6Q280.4 149.3 280.4 148.6L280.4 148.6Q280.4 148.3 280.4 148.0L280.4 148.0Q280.6 147.1 281.2 146.3Q281.7 145.4 282.6 144.7Q283.4 144.0 284.7 143.6Q286.0 143.1 287.5 143.1L287.5 143.1Q290.6 143.1 292.5 144.8Q294.4 146.5 294.4 149.1L294.4 149.1Q294.4 150.9 293.5 152.5Q292.5 154.0 289.8 156.8L289.8 156.8L284.7 161.8L284.7 161.9L293.5 161.9Q294.2 161.9 294.5 162.3Q294.9 162.7 294.9 163.3L294.9 163.3Q294.9 163.9 294.5 164.3Q294.2 164.7 293.5 164.7L293.5 164.7ZM311.4 162.1Q309.2 165.1 305.4 165.1Q301.6 165.1 299.5 162.1Q297.3 159.2 297.3 154.1L297.3 154.1Q297.3 149.0 299.5 146.1Q301.7 143.1 305.4 143.1L305.4 143.1Q309.2 143.1 311.3 146.1Q313.5 149.0 313.5 154.1L313.5 154.1Q313.5 159.1 311.4 162.1ZM305.4 162.3L305.4 162.3Q307.7 162.3 308.9 160.1Q310.2 157.9 310.2 154.1L310.2 154.1Q310.2 150.3 308.9 148.1Q307.7 145.9 305.4 145.9Q303.2 145.9 301.9 148.1Q300.7 150.3 300.7 154.1L300.7 154.1Q300.7 157.9 301.9 160.1Q303.1 162.3 305.4 162.3ZM329.6 164.7L317.9 164.7Q317.2 164.7 316.8 164.3Q316.4 163.9 316.4 163.3L316.4 163.3Q316.4 162.8 316.5 162.5Q316.7 162.1 317.3 161.6L317.3 161.6L323.9 154.9Q325.9 152.8 326.6 151.7Q327.3 150.6 327.3 149.3L327.3 149.3Q327.3 147.8 326.3 146.8Q325.2 145.8 323.6 145.8L323.6 145.8Q320.5 145.8 319.4 149.0L319.4 149.0Q319.1 149.5 318.8 149.8Q318.5 150.0 317.9 150.0L317.9 150.0Q317.2 150.0 316.8 149.6Q316.4 149.3 316.4 148.6L316.4 148.6Q316.4 148.3 316.5 148.0L316.5 148.0Q316.7 147.1 317.3 146.3Q317.8 145.4 318.7 144.7Q319.5 144.0 320.8 143.6Q322.1 143.1 323.6 143.1L323.6 143.1Q326.7 143.1 328.6 144.8Q330.5 146.5 330.5 149.1L330.5 149.1Q330.5 150.9 329.6 152.5Q328.6 154.0 325.8 156.8L325.8 156.8L320.8 161.8L320.8 161.9L329.6 161.9Q330.2 161.9 330.6 162.3Q331.0 162.7 331.0 163.3L331.0 163.3Q331.0 163.9 330.6 164.3Q330.2 164.7 329.6 164.7L329.6 164.7ZM341.3 165.1L341.3 165.1Q339.0 165.1 337.1 164.0Q335.2 162.9 334.4 161.2L334.4 161.2Q334.1 160.5 334.1 159.8L334.1 159.8Q334.1 159.1 334.5 158.7Q334.9 158.3 335.6 158.3L335.6 158.3Q336.1 158.3 336.4 158.6Q336.8 158.8 337.0 159.4L337.0 159.4Q337.6 160.8 338.7 161.5Q339.8 162.3 341.4 162.3L341.4 162.3Q343.4 162.3 344.6 161.0Q345.9 159.8 345.9 157.8L345.9 157.8Q345.9 155.8 344.6 154.6Q343.4 153.4 341.4 153.4L341.4 153.4Q339.3 153.4 337.9 154.7L337.9 154.7Q337.3 155.5 336.9 155.6Q336.5 155.8 335.9 155.8L335.9 155.8Q335.2 155.8 334.8 155.4Q334.4 154.9 334.4 154.2L334.4 154.2L334.4 153.9L335.1 145.8Q335.2 144.6 335.8 144.0Q336.4 143.5 337.6 143.5L337.6 143.5L346.6 143.5Q347.3 143.5 347.7 143.9Q348.1 144.3 348.1 144.9Q348.1 145.5 347.7 145.9Q347.3 146.3 346.6 146.3L346.6 146.3L337.9 146.3L337.3 152.9L337.4 152.9Q338.1 151.9 339.3 151.3Q340.6 150.8 342.2 150.8L342.2 150.8Q345.2 150.8 347.2 152.7Q349.1 154.6 349.1 157.7L349.1 157.7Q349.1 161.0 346.9 163.0Q344.8 165.1 341.3 165.1Z "/><mask id="satori_om-id-0-0-1"><rect x="40" y="217" width="1120" height="83" fill="#fff"/></mask><path fill="#224d67" d="M67.5 279.6L47.5 279.6Q45.7 279.6 44.7 278.5Q43.7 277.5 43.7 275.7L43.7 275.7L43.7 240.7Q43.7 238.9 44.7 237.8Q45.7 236.8 47.5 236.8L47.5 236.8Q49.3 236.8 50.3 237.8Q51.3 238.9 51.3 240.7L51.3 240.7L51.3 273.2L67.5 273.2Q69.0 273.2 70.0 274.1Q70.9 274.9 70.9 276.4Q70.9 277.8 70 278.7Q69.1 279.6 67.5 279.6L67.5 279.6ZM89.0 280.2L89.0 280.2Q81.8 280.2 77.9 276.0Q73.9 271.7 73.9 264.2L73.9 264.2Q73.9 256.7 77.9 252.3Q81.8 247.9 88.5 247.9L88.5 247.9Q94.9 247.9 98.9 251.9Q102.8 256.0 102.8 262.4L102.8 262.4Q102.8 264.0 101.9 264.9Q101.1 265.8 99.4 265.8L99.4 265.8L81.1 265.8L81.1 266.0Q81.1 269.9 83.2 272.3Q85.4 274.6 88.9 274.6L88.9 274.6Q91.4 274.6 93.1 273.6Q94.9 272.7 96.7 270.4L96.7 270.4Q97.7 269.3 99.1 269.3L99.1 269.3Q100.4 269.3 101.2 270.0Q102.1 270.8 102.1 272.1L102.1 272.1Q102.1 272.9 101.6 273.9L101.6 273.9Q100 276.9 96.7 278.5Q93.4 280.2 89.0 280.2ZM81.2 261.0L81.2 261.0L95.7 261.0Q95.6 257.6 93.6 255.6Q91.7 253.5 88.6 253.5Q85.5 253.5 83.4 255.6Q81.4 257.7 81.2 261.0ZM120.9 291.3L120.9 291.3Q116.6 291.2 113.2 289.7Q109.9 288.2 108.3 285.6L108.3 285.6Q107.7 284.6 107.7 283.4L107.7 283.4Q107.7 282.2 108.5 281.4Q109.4 280.6 110.8 280.6L110.8 280.6Q112.2 280.6 113.4 281.8L113.4 281.8Q115.3 283.7 117.1 284.6Q118.8 285.4 121.0 285.5L121.0 285.5Q124.6 285.5 126.8 283.6Q128.9 281.7 128.9 278.6L128.9 278.6L128.9 273.7L128.7 273.7Q127.5 276.2 124.9 277.7Q122.3 279.3 119.0 279.3L119.0 279.3Q113.2 279.3 109.7 275.0Q106.2 270.8 106.2 263.7L106.2 263.7Q106.2 256.4 109.7 252.2Q113.2 248.0 119.2 248.0L119.2 248.0Q122.4 248.0 124.9 249.5Q127.4 251.1 128.8 253.8L128.8 253.8L128.9 253.8L128.9 251.6Q128.9 249.9 129.9 248.9Q131.0 247.9 132.6 247.9Q134.2 247.9 135.2 248.9Q136.2 249.9 136.2 251.6L136.2 251.6L136.2 278.6Q136.2 284.5 132.1 287.9Q128.1 291.3 120.9 291.3ZM121.2 273.6L121.2 273.6Q124.8 273.6 126.9 270.9Q128.9 268.3 128.9 263.7L128.9 263.7Q128.9 259.2 126.8 256.5Q124.7 253.8 121.2 253.8L121.2 253.8Q117.8 253.8 115.7 256.5Q113.7 259.2 113.7 263.7L113.7 263.7Q113.7 268.3 115.7 271.0Q117.8 273.6 121.2 273.6ZM151.3 280.1L151.3 280.1Q146.7 280.1 143.8 277.5Q140.9 274.9 140.9 270.7L140.9 270.7Q140.9 266.6 144.0 264.2Q147.0 261.8 152.7 261.4L152.7 261.4L160.9 260.9L160.9 258.7Q160.9 256.3 159.4 254.9Q157.9 253.6 155.1 253.6L155.1 253.6Q153.0 253.6 151.5 254.4Q150.0 255.2 148.6 257.2L148.6 257.2Q147.5 258.7 145.7 258.7L145.7 258.7Q144.3 258.7 143.5 257.9Q142.6 257.1 142.6 255.8L142.6 255.8Q142.6 254.8 143.1 253.8L143.1 253.8Q144.3 251.1 147.6 249.5Q151.0 247.9 155.4 247.9L155.4 247.9Q161.2 247.9 164.7 250.7Q168.1 253.5 168.1 258.2L168.1 258.2L168.1 276.5Q168.1 278.2 167.2 279.2Q166.2 280.2 164.6 280.2L164.6 280.2Q163.1 280.2 162.1 279.3Q161.2 278.4 161.1 276.8L161.1 276.8L161.1 274.6L161.0 274.6Q159.6 277.1 157.0 278.6Q154.3 280.1 151.3 280.1ZM153.5 274.6L153.5 274.6Q156.6 274.6 158.8 272.7Q160.9 270.8 160.9 268.1L160.9 268.1L160.9 265.7L153.7 266.1Q151.1 266.3 149.6 267.4Q148.2 268.6 148.2 270.4L148.2 270.4Q148.2 272.3 149.6 273.4Q151.1 274.6 153.5 274.6ZM180.5 279.2Q179.5 280.2 177.9 280.2Q176.2 280.2 175.2 279.2Q174.2 278.1 174.2 276.3L174.2 276.3L174.2 240.6Q174.2 238.7 175.2 237.7Q176.2 236.7 177.9 236.7Q179.5 236.7 180.5 237.7Q181.5 238.7 181.5 240.6L181.5 240.6L181.5 276.3Q181.5 278.1 180.5 279.2Z "/><defs><clipPath id="satori_bc-id-0-1"><rect x="0" y="441" width="1200" height="189"/></clipPath></defs><mask id="satori_om-id-0-1"><rect x="0" y="442" width="1200" height="188" fill="#fff"/><path width="1200" height="189" fill="none" stroke="#000" stroke-width="2" d="M0,441 A0,0 0 0 1 0,441 h1200 A0,0 0 0 1 1200,441"/></mask><path width="1200" height="189" clip-path="url(#satori_bc-id-0-1)" fill="none" stroke="#dbdbdb" stroke-width="2" d="M0,441 A0,0 0 0 1 0,441 h1200 A0,0 0 0 1 1200,441"/><mask id="satori_om-id-0-1-0"><rect x="40" y="482" width="292" height="108" fill="#fff"/></mask><clipPath id="satori_cp-id-0-1-0-0"><rect x="40" y="504" width="64" height="64"/></clipPath><mask id="satori_om-id-0-1-0-0"><rect x="40" y="504" width="64" height="64" fill="#fff"/></mask><image x="40" y="504" width="64" height="64" href="data:image/svg+xml;utf8,%3Csvg  xmlns=%22http://www.w3.org/2000/svg%22 width=%2264%22 height=%2264%22 viewBox=%220 0 128 128%22%3E%3Cpath fill=%22%23224d67%22 d=%22M22.5 14.8c2.9 1.3 99 44 99 44c2.7 1.2 2.9 3.1 2 12.4c-1 10.5-1.9 37.8-40.2 42.9c-24.6 3.2-55.9-4.3-70.9-27.2C-6 58.8 11 23.4 14.8 17.7c2.4-3.5 4.8-4.2 7.7-2.9%22%3E%3C/path%3E%3Cpath fill=%22%23f0f4c3%22 d=%22M121.5 58.8c-.3-.2-92-40.8-98.9-43.9C9.6 31.5-3.8 76 27.9 96.2c33.6 21.5 78.7-10.2 93.6-37.4%22%3E%3C/path%3E%3Cpath fill=%22%23f0f4c3%22 d=%22M117.7 57c-.3-.2-86.7-38.4-93.2-41.3c-12.2 15.5-23.9 59.1 5.7 78c31.4 20.2 73.6-11.2 87.5-36.7%22%3E%3C/path%3E%3Cpath fill=%22%23cb2a42%22 d=%22M56.2 37.6L19.5 48.2c-2.5.8-4.4 2.8-5 5.3c-1.9 8.5.8 23.3 8.9 29.8c3.5 2.7 8.6 1.8 10.8-2.1L58.5 41c1.3-1.7.5-4.2-2.3-3.4m14.3 2.9s14.6 30.1 16 33s6.3 4.7 9.9 2.8c10.7-5.6 15.5-12.4 19.2-20.2c-8.9-3.9-42.4-18.8-42.4-18.8c-2.4-1.1-4 .6-2.7 3.2m-8.6 1.9C60.3 45.1 39.5 81 37.6 84.1c-1.9 3.2-.7 7.5 2.7 9.2c12.3 6.5 30.9.4 39.6-7c2.2-1.9 4.5-5.1 3.2-8.2S68.9 44.6 67.8 42.3c-1.2-2.7-4.1-2.8-5.9.1%22%3E%3C/path%3E%3Cpath fill=%22%23f0f4c3%22 d=%22M52.2 42.2c-1.4.4-10.1 3-11.1 3.4c-1.4.5-2.2 1.7-1.9 2.5c.3.9 1.7 1.1 3.1.6c.8-.3 7.1-3.9 9.5-5.2c-3.1 2.4-10.2 9.4-11.1 10.3c-1.4 1.5-1.7 3.4-.8 4.3c1 .9 2.9.5 4.3-1c1.2-1.3 8.5-12.8 9.1-13.9s.4-1.4-1.1-1m10.1 16.4c0-2.2 1.4-10.3 1.8-12.3c.4-1.6 1.5-1.8 1.8.5s1.7 9.7 1.7 11.8s-1.2 3.3-2.7 3.3c-1.4 0-2.6-1.1-2.6-3.3M79.9 49c-1.2-1.8-3.3-4.9-4.1-6.1c-.7-1.2.1-2.1 1.8-.9s4 2.9 5.4 4c1.6 1.3 1.9 3 .8 4s-2.7.8-3.9-1%22%3E%3C/path%3E%3Cellipse cx=%2287.3%22 cy=%22103.12%22 fill=%22%23cb2a42%22 rx=%223.4%22 ry=%222.3%22 transform=%22rotate(-27.098 87.298 103.126)%22%3E%3C/ellipse%3E%3Cellipse cx=%2298.89%22 cy=%22103.82%22 fill=%22%23cb2a42%22 rx=%223.4%22 ry=%222.3%22 transform=%22rotate(-30.642 98.887 103.818)%22%3E%3C/ellipse%3E%3Cellipse cx=%22102.02%22 cy=%2293.8%22 fill=%22%23cb2a42%22 rx=%223.4%22 ry=%222.3%22 transform=%22rotate(-37.16 102.017 93.797)%22%3E%3C/ellipse%3E%3Cpath fill=%22%23cb2a42%22 d=%22M57.6 30.3c-8.3-3.7-24.4-10.7-29.6-13c-3.6 2.2-9.7 11.4-11.2 21.2c-.6 3.6 1.7 5.9 5.3 4.9c0 0 33.7-9.3 35.3-9.7c1.6-.5 2-2.6.2-3.4%22%3E%3C/path%3E%3C/svg%3E" preserveAspectRatio="none" clip-path="url(#satori_cp-id-0-1-0-0)" mask="url(#satori_om-id-0-1-0-0)"/><mask id="satori_om-id-0-1-0-0-0"><rect x="40" y="504" width="0" height="64" fill="#fff"/></mask><mask id="satori_om-id-0-1-0-0-1"><rect x="40" y="504" width="0" height="64" fill="#fff"/></mask><mask id="satori_om-id-0-1-0-0-2"><rect x="40" y="504" width="0" height="64" fill="#fff"/></mask><mask id="satori_om-id-0-1-0-0-3"><rect x="40" y="504" width="0" height="64" fill="#fff"/></mask><mask id="satori_om-id-0-1-0-0-4"><rect x="40" y="504" width="0" height="64" fill="#fff"/></mask><mask id="satori_om-id-0-1-0-0-5"><rect x="40" y="504" width="0" height="64" fill="#fff"/></mask><mask id="satori_om-id-0-1-0-0-6"><rect x="40" y="504" width="0" height="64" fill="#fff"/></mask><mask id="satori_om-id-0-1-0-0-7"><rect x="40" y="504" width="0" height="64" fill="#fff"/></mask><mask id="satori_om-id-0-1-0-0-8"><rect x="40" y="504" width="0" height="64" fill="#fff"/></mask><mask id="satori_om-id-0-1-0-1"><rect x="116" y="512" width="216" height="48" fill="#fff"/></mask><path fill="#545454" d="M121.1 553.5L121.1 553.5Q119.4 553.5 118.4 552.6Q117.5 551.7 117.5 550.2L117.5 550.2Q117.5 549.3 117.9 547.9L117.9 547.9L127.2 522.8Q127.9 520.7 129.2 519.7Q130.5 518.8 132.5 518.8L132.5 518.8Q134.6 518.8 135.9 519.7Q137.2 520.7 137.9 522.8L137.9 522.8L147.2 547.9Q147.6 549.2 147.6 550.2L147.6 550.2Q147.6 551.6 146.6 552.6Q145.6 553.5 144.1 553.5L144.1 553.5Q142.6 553.5 141.7 552.8Q140.9 552.1 140.4 550.4L140.4 550.4L138.6 545.0L126.4 545.0L124.6 550.3Q124.2 552.0 123.3 552.8Q122.5 553.5 121.1 553.5ZM132.4 525.7L128.0 539.6L137 539.6L132.5 525.7L132.4 525.7ZM159.1 552.6Q158.2 553.6 156.6 553.6Q155.0 553.6 154.1 552.6Q153.2 551.7 153.2 550.0L153.2 550.0L153.2 533.1L151.9 533.1Q150.8 533.1 150.1 532.4Q149.4 531.7 149.4 530.6Q149.4 529.4 150.1 528.7Q150.8 528.1 151.9 528.1L151.9 528.1L153.2 528.1L153.2 526.2Q153.2 522.5 155.0 520.7Q156.7 519.0 160.3 518.9L160.3 518.9Q163.0 518.9 164.2 519.7Q165.5 520.4 165.5 521.7L165.5 521.7Q165.5 523.1 164.1 523.5L164.1 523.5Q163.5 523.7 162.8 523.7L162.8 523.7Q161.2 523.7 160.5 524.4Q159.9 525.1 159.9 526.5L159.9 526.5L159.9 528.1L162.7 528.1Q163.8 528.1 164.5 528.7Q165.2 529.4 165.2 530.6Q165.2 531.7 164.5 532.4Q163.8 533.1 162.7 533.1L162.7 533.1L160.0 533.1L160.0 550.0Q160.0 551.7 159.1 552.6ZM170.3 546.6L170.3 546.6L170.3 533.1L168.9 533.1Q167.7 533.1 167.0 532.4Q166.3 531.7 166.3 530.5Q166.3 529.3 167.0 528.6Q167.7 527.9 168.9 527.9L168.9 527.9L170.3 527.9L170.3 525.1Q170.3 523.5 171.2 522.5Q172.1 521.6 173.7 521.6Q175.3 521.6 176.2 522.5Q177.1 523.5 177.1 525.1L177.1 525.1L177.1 527.9L179.5 527.9Q180.7 527.9 181.4 528.6Q182.1 529.3 182.1 530.5Q182.1 531.7 181.4 532.4Q180.7 533.1 179.5 533.1L179.5 533.1L177.1 533.1L177.1 545.1Q177.1 546.5 177.6 547.1Q178.1 547.7 179.2 547.8L179.2 547.8L179.6 547.8Q180.9 548.0 181.6 548.5Q182.2 549.1 182.2 550.3L182.2 550.3Q182.2 551.8 180.9 552.6Q179.6 553.3 177.4 553.3L177.4 553.3L177.1 553.3Q170.3 553.3 170.3 546.6ZM197.0 553.6L197.0 553.6Q191.2 553.6 187.9 550.2Q184.6 546.7 184.6 540.6L184.6 540.6Q184.6 534.5 187.9 531.0Q191.1 527.4 196.7 527.4L196.7 527.4Q202.0 527.4 205.3 530.7Q208.6 533.9 208.6 539.1L208.6 539.1Q208.6 540.5 207.9 541.3Q207.1 542.1 205.6 542.1L205.6 542.1L191.3 542.1L191.3 542.4Q191.3 545.2 192.9 546.9Q194.4 548.5 197.0 548.5L197.0 548.5Q198.9 548.5 200.3 547.8Q201.6 547.2 203.0 545.5L203.0 545.5Q204.0 544.5 205.3 544.5L205.3 544.5Q206.4 544.5 207.2 545.2Q207.9 545.9 207.9 547.0L207.9 547.0Q207.9 547.8 207.5 548.7L207.5 548.7Q206.2 551 203.4 552.3Q200.7 553.6 197.0 553.6ZM191.4 537.9L191.4 537.9L202.0 537.9Q201.9 535.4 200.5 533.9Q199.0 532.5 196.8 532.5Q194.5 532.5 193.1 534.0Q191.6 535.5 191.4 537.9ZM215.6 553.6L215.6 553.6Q214.0 553.6 213.1 552.6Q212.1 551.7 212.1 550.0L212.1 550.0L212.1 530.9Q212.1 529.3 213.0 528.3Q213.9 527.4 215.4 527.4L215.4 527.4Q216.9 527.4 217.8 528.3Q218.7 529.3 218.7 530.9L218.7 530.9L218.7 532.5L218.8 532.5Q219.3 530.2 220.7 528.9Q222.1 527.5 224.0 527.5L224.0 527.5Q225.4 527.5 226.2 528.2L226.2 528.2Q227.2 528.9 227.2 530.7L227.2 530.7Q227.2 532.3 226.2 533.2L226.2 533.2Q225.2 534.0 223.2 534.1L223.2 534.1Q221.0 534.1 220.0 535.3Q219.0 536.5 219.0 538.8L219.0 538.8L219.0 550.0Q219.0 551.7 218.1 552.6Q217.2 553.6 215.6 553.6ZM242.6 553.6L242.6 553.6Q237.5 553.6 234.1 551.8Q230.8 550.0 229.7 547.1L229.7 547.1Q229.4 546.1 229.4 545.2L229.4 545.2Q229.4 543.8 230.2 543.0Q231.1 542.1 232.5 542.1L232.5 542.1Q233.6 542.1 234.3 542.6Q235.1 543.1 235.7 544.2L235.7 544.2Q236.5 546.1 238.4 547.0Q240.2 547.9 242.7 547.9L242.7 547.9Q245.6 547.9 247.3 546.7Q249.1 545.5 249.1 543.6L249.1 543.6Q249.1 541.9 247.8 540.9Q246.4 539.9 243.3 539.3L243.3 539.3L239.7 538.6Q229.6 536.6 229.6 528.9L229.6 528.9Q229.6 525.9 231.3 523.5Q232.9 521.2 235.9 519.9Q238.8 518.7 242.5 518.7L242.5 518.7Q247.2 518.7 250.5 520.5Q253.8 522.4 254.9 525.7L254.9 525.7Q255.1 526.4 255.1 527.2L255.1 527.2Q255.1 528.5 254.3 529.3Q253.5 530.1 252.1 530.1L252.1 530.1Q250.9 530.1 250.1 529.6Q249.4 529.1 248.8 528.0L248.8 528.0Q247.2 524.4 242.5 524.4L242.5 524.4Q239.9 524.4 238.3 525.5Q236.7 526.6 236.7 528.5L236.7 528.5Q236.7 530.1 238.1 531.1Q239.4 532.1 242.4 532.7L242.4 532.7L245.9 533.4Q251.3 534.5 253.7 536.7Q256.2 539.0 256.2 542.8L256.2 542.8Q256.2 547.8 252.5 550.7Q248.9 553.6 242.6 553.6ZM266.0 552.6Q265.0 553.6 263.5 553.6Q261.9 553.6 261.0 552.6Q260.1 551.7 260.1 550.0L260.1 550.0L260.1 522.2Q260.1 520.6 261.0 519.7Q261.9 518.7 263.4 518.7L263.4 518.7Q265.0 518.7 265.9 519.7Q266.8 520.6 266.8 522.2L266.8 522.2L266.8 532.4L266.9 532.4Q267.9 530.0 270.0 528.7Q272 527.5 274.8 527.5L274.8 527.5Q279.0 527.5 281.3 530.0Q283.6 532.5 283.6 536.9L283.6 536.9L283.6 550.0Q283.6 551.7 282.7 552.6Q281.7 553.6 280.2 553.6Q278.6 553.6 277.7 552.6Q276.8 551.7 276.8 550.0L276.8 550.0L276.8 538.3Q276.8 535.9 275.6 534.5Q274.3 533.1 272.0 533.1L272.0 533.1Q269.7 533.1 268.3 534.7Q266.9 536.2 266.9 538.7L266.9 538.7L266.9 550.0Q266.9 551.7 266.0 552.6ZM294.1 523.8Q293.0 524.8 291.5 524.8Q290.0 524.8 288.9 523.8Q287.8 522.8 287.8 521.3L287.8 521.3Q287.8 519.8 288.9 518.8Q290.0 517.7 291.5 517.7Q293.0 517.7 294.1 518.8Q295.2 519.8 295.2 521.3L295.2 521.3Q295.2 522.8 294.1 523.8ZM294.0 552.6Q293.1 553.6 291.5 553.6Q289.9 553.6 289.0 552.6Q288.1 551.7 288.1 550.0L288.1 550.0L288.1 531.0Q288.1 529.3 289.0 528.4Q289.9 527.4 291.5 527.4Q293.1 527.4 294.0 528.4Q294.9 529.3 294.9 531.0L294.9 531.0L294.9 550.0Q294.9 551.7 294.0 552.6ZM307.2 552.6Q306.3 553.6 304.7 553.6Q303.1 553.6 302.2 552.6Q301.3 551.7 301.3 550.0L301.3 550.0L301.3 533.1L300.0 533.1Q298.9 533.1 298.2 532.4Q297.5 531.7 297.5 530.6Q297.5 529.4 298.2 528.7Q298.9 528.1 300.0 528.1L300.0 528.1L301.3 528.1L301.3 526.2Q301.3 522.5 303.1 520.7Q304.9 519.0 308.5 518.9L308.5 518.9Q311.1 518.9 312.4 519.7Q313.6 520.4 313.6 521.7L313.6 521.7Q313.6 523.1 312.2 523.5L312.2 523.5Q311.6 523.7 310.9 523.7L310.9 523.7Q309.4 523.7 308.7 524.4Q308.0 525.1 308.0 526.5L308.0 526.5L308.0 528.1L310.9 528.1Q312.0 528.1 312.7 528.7Q313.4 529.4 313.4 530.6Q313.4 531.7 312.7 532.4Q312.0 533.1 310.9 533.1L310.9 533.1L308.1 533.1L308.1 550.0Q308.1 551.7 307.2 552.6ZM318.4 546.6L318.4 546.6L318.4 533.1L317.1 533.1Q315.9 533.1 315.1 532.4Q314.4 531.7 314.4 530.5Q314.4 529.3 315.1 528.6Q315.9 527.9 317.1 527.9L317.1 527.9L318.4 527.9L318.4 525.1Q318.4 523.5 319.3 522.5Q320.2 521.6 321.8 521.6Q323.4 521.6 324.3 522.5Q325.2 523.5 325.2 525.1L325.2 525.1L325.2 527.9L327.6 527.9Q328.9 527.9 329.6 528.6Q330.3 529.3 330.3 530.5Q330.3 531.7 329.6 532.4Q328.9 533.1 327.6 533.1L327.6 533.1L325.2 533.1L325.2 545.1Q325.2 546.5 325.7 547.1Q326.2 547.7 327.3 547.8L327.3 547.8L327.8 547.8Q329.1 548.0 329.7 548.5Q330.4 549.1 330.4 550.3L330.4 550.3Q330.4 551.8 329.0 552.6Q327.7 553.3 325.5 553.3L325.5 553.3L325.3 553.3Q318.4 553.3 318.4 546.6Z "/><mask id="satori_om-id-0-1-1"><rect x="924" y="524" width="236" height="36" fill="#fff"/></mask><path fill="#8e8e8e" d="M927.9 552.6Q927.5 552.9 927.0 552.9Q926.4 552.9 926.1 552.6Q925.8 552.2 925.8 551.7L925.8 551.7L925.8 532.6Q925.8 532.0 926.1 531.6Q926.5 531.3 927.1 531.3Q927.6 531.3 928.0 531.6Q928.3 532.0 928.3 532.6L928.3 532.6L928.3 540.0L928.4 540.0Q929.1 538.7 930.4 537.9Q931.7 537.2 933.3 537.2L933.3 537.2Q936.2 537.2 937.9 539.3Q939.7 541.5 939.7 545.0L939.7 545.0Q939.7 548.6 937.9 550.8Q936.2 552.9 933.2 552.9L933.2 552.9Q931.6 552.9 930.3 552.2Q929.0 551.4 928.3 550.1L928.3 550.1L928.2 550.1L928.2 551.7Q928.2 552.2 927.9 552.6ZM932.7 550.7L932.7 550.7Q934.8 550.7 935.9 549.2Q937.1 547.7 937.1 545.0L937.1 545.0Q937.1 542.5 935.9 540.9Q934.8 539.4 932.7 539.4L932.7 539.4Q930.8 539.4 929.6 541.0Q928.3 542.5 928.3 545.0L928.3 545.0Q928.3 547.6 929.6 549.1Q930.8 550.7 932.7 550.7ZM943.8 558.4L943.8 558.4Q942.9 558.4 942.4 558.0Q941.9 557.7 941.9 557.1L941.9 557.1Q941.9 556.7 942.1 556.4Q942.4 556.2 942.9 556.2L942.9 556.2Q943.1 556.2 943.3 556.2Q943.5 556.2 943.7 556.2L943.7 556.2Q945.4 556.2 946.2 553.7L946.2 553.7L946.6 552.7L941.3 539.0Q941.2 538.6 941.2 538.3L941.2 538.3Q941.2 537.8 941.6 537.5Q941.9 537.2 942.5 537.2L942.5 537.2Q943.4 537.2 943.7 538.1L943.7 538.1L947.9 550.1L948.0 550.1L952.2 538.1Q952.3 537.6 952.6 537.4Q952.9 537.2 953.4 537.2L953.4 537.2Q953.9 537.2 954.3 537.5Q954.6 537.8 954.6 538.3L954.6 538.3Q954.6 538.6 954.5 539.0L954.5 539.0L948.9 553.7Q947.9 556.4 946.8 557.4Q945.7 558.4 943.8 558.4Z M965.7 552.5Q965.3 552.9 964.7 552.9Q964.1 552.9 963.8 552.5Q963.4 552.1 963.4 551.5L963.4 551.5L963.4 532.9Q963.4 532.3 963.8 531.9Q964.1 531.5 964.7 531.5L964.7 531.5L970.9 531.5Q973.9 531.5 975.8 533.4Q977.7 535.3 977.7 538.3L977.7 538.3Q977.7 541.3 975.8 543.2Q973.9 545.1 970.9 545.1L970.9 545.1L966.0 545.1L966.0 551.5Q966.0 552.1 965.7 552.5ZM966.0 533.9L966.0 542.8L970.3 542.8Q972.5 542.8 973.8 541.6Q975.0 540.4 975.0 538.3Q975.0 536.2 973.8 535.0Q972.5 533.9 970.3 533.9L970.3 533.9L966.0 533.9ZM984.8 552.9L984.8 552.9Q982.5 552.9 981.1 551.7Q979.7 550.4 979.7 548.4L979.7 548.4Q979.7 546.4 981.2 545.2Q982.6 544.1 985.2 543.9L985.2 543.9L989.6 543.7L989.6 542.4Q989.6 541.0 988.7 540.2Q987.9 539.4 986.3 539.4L986.3 539.4Q985.0 539.4 984.1 539.9Q983.3 540.4 982.6 541.5L982.6 541.5Q982.3 542.1 981.6 542.1L981.6 542.1Q981.1 542.1 980.8 541.8Q980.5 541.5 980.5 541.0Q980.5 540.5 980.8 539.9L980.8 539.9Q981.4 538.7 982.9 537.9Q984.5 537.2 986.3 537.2L986.3 537.2Q989.0 537.2 990.6 538.5Q992.2 539.9 992.2 542.1L992.2 542.1L992.2 551.6Q992.2 552.2 991.8 552.6Q991.5 552.9 991.0 552.9L991.0 552.9Q990.4 552.9 990.1 552.6Q989.7 552.2 989.7 551.6L989.7 551.6L989.7 550.0L989.7 550.0Q989.0 551.3 987.7 552.1Q986.3 552.9 984.8 552.9ZM985.3 550.8L985.3 550.8Q987.1 550.8 988.4 549.6Q989.6 548.5 989.6 546.9L989.6 546.9L989.6 545.6L985.5 545.9Q984.0 546.0 983.1 546.6Q982.3 547.3 982.3 548.4Q982.3 549.4 983.1 550.1Q984.0 550.8 985.3 550.8ZM996.2 549.1L996.2 549.1L996.2 539.5L994.9 539.5Q994.4 539.5 994.1 539.3Q993.8 539.0 993.8 538.5L993.8 538.5Q993.8 538.0 994.1 537.7Q994.4 537.4 994.9 537.4L994.9 537.4L996.2 537.4L996.2 534.8Q996.2 534.2 996.6 533.8Q996.9 533.5 997.5 533.5Q998.0 533.5 998.4 533.8Q998.8 534.2 998.8 534.8L998.8 534.8L998.8 537.4L1000.7 537.4Q1001.3 537.4 1001.6 537.7Q1001.9 538.0 1001.9 538.5L1001.9 538.5Q1001.9 539.0 1001.6 539.3Q1001.3 539.5 1000.7 539.5L1000.7 539.5L998.8 539.5L998.8 548.6Q998.8 549.6 999.2 550.0Q999.6 550.5 1000.5 550.6L1000.5 550.6L1000.7 550.6Q1001.9 550.7 1001.9 551.6L1001.9 551.6Q1001.9 552.2 1001.5 552.5Q1001.1 552.8 1000.1 552.8L1000.1 552.8L999.9 552.8Q996.2 552.8 996.2 549.1ZM1006.6 552.5Q1006.3 552.9 1005.7 552.9Q1005.2 552.9 1004.8 552.5Q1004.4 552.2 1004.4 551.6L1004.4 551.6L1004.4 538.5Q1004.4 537.9 1004.8 537.5Q1005.1 537.2 1005.6 537.2Q1006.2 537.2 1006.5 537.5Q1006.8 537.9 1006.8 538.5L1006.8 538.5L1006.8 539.9L1006.9 539.9Q1007.2 538.7 1008.2 537.9Q1009.2 537.2 1010.4 537.2L1010.4 537.2Q1011.2 537.2 1011.6 537.5L1011.6 537.5Q1011.9 537.8 1011.9 538.4L1011.9 538.4Q1011.9 539.0 1011.5 539.3L1011.5 539.3Q1011.1 539.6 1010.3 539.6L1010.3 539.6Q1008.6 539.6 1007.8 540.6Q1007.0 541.6 1007.0 543.2L1007.0 543.2L1007.0 551.6Q1007.0 552.2 1006.6 552.5ZM1015.1 534.9L1015.1 534.9Q1014.4 534.9 1014.0 534.4Q1013.5 533.9 1013.5 533.3L1013.5 533.3Q1013.5 532.6 1014.0 532.2Q1014.4 531.7 1015.1 531.7L1015.1 531.7Q1015.7 531.7 1016.2 532.2Q1016.7 532.6 1016.7 533.3L1016.7 533.3Q1016.7 533.9 1016.2 534.4Q1015.7 534.9 1015.1 534.9ZM1016.0 552.5Q1015.6 552.9 1015.1 552.9Q1014.5 552.9 1014.2 552.5Q1013.8 552.2 1013.8 551.6L1013.8 551.6L1013.8 538.5Q1013.8 537.9 1014.2 537.5Q1014.5 537.2 1015.1 537.2Q1015.6 537.2 1016.0 537.5Q1016.4 537.9 1016.4 538.5L1016.4 538.5L1016.4 551.6Q1016.4 552.2 1016.0 552.5ZM1026.1 552.9L1026.1 552.9Q1022.9 552.9 1021.0 550.8Q1019.1 548.7 1019.1 545.1Q1019.1 541.5 1021.0 539.3Q1022.9 537.2 1026.1 537.2L1026.1 537.2Q1028.2 537.2 1029.9 538.2Q1031.6 539.3 1032.0 540.9L1032.0 540.9Q1032.1 541.2 1032.1 541.4L1032.1 541.4Q1032.1 542.0 1031.8 542.3Q1031.5 542.6 1031.0 542.6L1031.0 542.6Q1030.6 542.6 1030.3 542.4Q1030.1 542.2 1029.8 541.7L1029.8 541.7Q1028.6 539.4 1026.1 539.4L1026.1 539.4Q1024.1 539.4 1022.9 541.0Q1021.6 542.5 1021.6 545.0L1021.6 545.0Q1021.6 547.6 1022.9 549.2Q1024.1 550.7 1026.1 550.7L1026.1 550.7Q1027.4 550.7 1028.3 550.1Q1029.2 549.6 1029.8 548.4L1029.8 548.4Q1030.1 547.9 1030.3 547.7Q1030.6 547.5 1031.0 547.5L1031.0 547.5Q1031.5 547.5 1031.8 547.8Q1032.1 548.2 1032.1 548.7L1032.1 548.7Q1032.1 548.9 1032.0 549.3L1032.0 549.3Q1031.4 550.9 1029.8 551.9Q1028.2 552.9 1026.1 552.9ZM1041.2 552.9L1041.2 552.9Q1037.8 552.9 1036.0 550.9Q1034.1 548.8 1034.1 545.1L1034.1 545.1Q1034.1 541.5 1036.0 539.3Q1037.8 537.2 1041.0 537.2L1041.0 537.2Q1043.9 537.2 1045.8 539.1Q1047.6 541.1 1047.6 544.3L1047.6 544.3Q1047.6 544.9 1047.3 545.3Q1046.9 545.7 1046.2 545.7L1046.2 545.7L1036.7 545.7Q1036.7 548.0 1037.9 549.4Q1039.1 550.7 1041.1 550.7L1041.1 550.7Q1042.5 550.7 1043.4 550.2Q1044.3 549.6 1045.2 548.3L1045.2 548.3Q1045.6 547.8 1046.2 547.8L1046.2 547.8Q1046.7 547.8 1047.0 548.1Q1047.3 548.4 1047.3 548.9L1047.3 548.9Q1047.3 549.2 1047.1 549.7L1047.1 549.7Q1046.4 551.2 1044.8 552.1Q1043.3 552.9 1041.2 552.9ZM1036.7 543.7L1036.7 543.7L1045.0 543.7Q1045.0 541.8 1043.8 540.6Q1042.7 539.4 1041.0 539.4L1041.0 539.4Q1039.2 539.4 1038.0 540.6Q1036.8 541.8 1036.7 543.7Z M1059.0 552.5Q1058.7 552.9 1058.1 552.9Q1057.5 552.9 1057.1 552.5Q1056.7 552.1 1056.7 551.5L1056.7 551.5L1056.7 532.7Q1056.7 532.1 1057.1 531.7Q1057.5 531.3 1058.1 531.3Q1058.7 531.3 1059.0 531.7Q1059.4 532.1 1059.4 532.7L1059.4 532.7L1059.4 541.8L1059.5 541.8L1068.9 531.8Q1069.4 531.3 1070.0 531.3L1070.0 531.3Q1070.5 531.3 1070.9 531.7Q1071.2 532.0 1071.2 532.5L1071.2 532.5Q1071.2 533.0 1070.9 533.3L1070.9 533.3L1063.6 540.9L1071.7 550.6Q1072.1 551.1 1072.1 551.6L1072.1 551.6Q1072.1 552.2 1071.7 552.5Q1071.3 552.9 1070.8 552.9L1070.8 552.9Q1070.1 552.9 1069.6 552.2L1069.6 552.2L1061.7 542.8L1059.4 545.3L1059.4 551.5Q1059.4 552.1 1059.0 552.5ZM1081.2 552.9L1081.2 552.9Q1077.8 552.9 1075.9 550.9Q1074.1 548.8 1074.1 545.1L1074.1 545.1Q1074.1 541.5 1075.9 539.3Q1077.8 537.2 1081.0 537.2L1081.0 537.2Q1083.9 537.2 1085.8 539.1Q1087.6 541.1 1087.6 544.3L1087.6 544.3Q1087.6 544.9 1087.2 545.3Q1086.9 545.7 1086.2 545.7L1086.2 545.7L1076.7 545.7Q1076.7 548.0 1077.9 549.4Q1079.1 550.7 1081.1 550.7L1081.1 550.7Q1082.5 550.7 1083.4 550.2Q1084.3 549.6 1085.2 548.3L1085.2 548.3Q1085.6 547.8 1086.2 547.8L1086.2 547.8Q1086.7 547.8 1087.0 548.1Q1087.3 548.4 1087.3 548.9L1087.3 548.9Q1087.3 549.2 1087.1 549.7L1087.1 549.7Q1086.4 551.2 1084.8 552.1Q1083.3 552.9 1081.2 552.9ZM1076.7 543.7L1076.7 543.7L1085.0 543.7Q1084.9 541.8 1083.8 540.6Q1082.7 539.4 1080.9 539.4L1080.9 539.4Q1079.1 539.4 1078.0 540.6Q1076.8 541.8 1076.7 543.7ZM1092.4 552.5Q1092.0 552.9 1091.4 552.9Q1090.9 552.9 1090.5 552.5Q1090.2 552.2 1090.2 551.6L1090.2 551.6L1090.2 538.5Q1090.2 537.9 1090.5 537.5Q1090.8 537.2 1091.4 537.2Q1091.9 537.2 1092.2 537.5Q1092.6 537.9 1092.6 538.5L1092.6 538.5L1092.6 539.9L1092.6 539.9Q1093.3 538.6 1094.5 537.9Q1095.8 537.2 1097.5 537.2L1097.5 537.2Q1100.0 537.2 1101.3 538.7Q1102.7 540.2 1102.7 542.8L1102.7 542.8L1102.7 551.6Q1102.7 552.2 1102.4 552.5Q1102.0 552.9 1101.5 552.9Q1100.9 552.9 1100.6 552.5Q1100.2 552.2 1100.2 551.6L1100.2 551.6L1100.2 543.2Q1100.2 541.4 1099.3 540.4Q1098.4 539.4 1096.7 539.4L1096.7 539.4Q1094.9 539.4 1093.8 540.6Q1092.7 541.8 1092.7 543.7L1092.7 543.7L1092.7 551.6Q1092.7 552.2 1092.4 552.5ZM1108.2 552.5Q1107.8 552.9 1107.3 552.9Q1106.7 552.9 1106.3 552.5Q1106.0 552.2 1106.0 551.6L1106.0 551.6L1106.0 538.5Q1106.0 537.9 1106.3 537.5Q1106.7 537.2 1107.2 537.2Q1107.7 537.2 1108.0 537.5Q1108.4 537.9 1108.4 538.5L1108.4 538.5L1108.4 539.9L1108.4 539.9Q1109.0 538.6 1110.1 537.9Q1111.3 537.2 1112.8 537.2L1112.8 537.2Q1114.3 537.2 1115.4 537.9Q1116.5 538.7 1117.0 540.1L1117.0 540.1L1117.1 540.1Q1117.7 538.7 1119.0 537.9Q1120.3 537.2 1121.9 537.2L1121.9 537.2Q1124.1 537.2 1125.5 538.5Q1126.8 539.9 1126.8 542.1L1126.8 542.1L1126.8 551.6Q1126.8 552.2 1126.5 552.5Q1126.1 552.9 1125.6 552.9Q1125.0 552.9 1124.6 552.5Q1124.3 552.2 1124.3 551.6L1124.3 551.6L1124.3 542.7Q1124.3 541.2 1123.5 540.3Q1122.6 539.4 1121.1 539.4Q1119.6 539.4 1118.6 540.4Q1117.7 541.4 1117.7 543.0L1117.7 543.0L1117.7 551.6Q1117.7 552.2 1117.3 552.5Q1117.0 552.9 1116.4 552.9Q1115.8 552.9 1115.5 552.5Q1115.1 552.2 1115.1 551.6L1115.1 551.6L1115.1 542.5Q1115.1 541.1 1114.3 540.2Q1113.4 539.4 1112.0 539.4L1112.0 539.4Q1110.5 539.4 1109.5 540.5Q1108.5 541.5 1108.5 543.1L1108.5 543.1L1108.5 551.6Q1108.5 552.2 1108.2 552.5ZM1136.4 552.9L1136.4 552.9Q1133.2 552.9 1131.3 550.8Q1129.3 548.7 1129.3 545.0Q1129.3 541.4 1131.3 539.3Q1133.2 537.2 1136.4 537.2L1136.4 537.2Q1139.6 537.2 1141.5 539.3Q1143.4 541.4 1143.4 545.0L1143.4 545.0Q1143.4 548.7 1141.5 550.8Q1139.6 552.9 1136.4 552.9ZM1133.1 549.2Q1134.3 550.7 1136.4 550.7Q1138.4 550.7 1139.6 549.2Q1140.8 547.7 1140.8 545.0Q1140.8 542.4 1139.6 540.9Q1138.4 539.4 1136.4 539.4Q1134.3 539.4 1133.1 540.9Q1131.9 542.4 1131.9 545.0Q1131.9 547.7 1133.1 549.2ZM1152.5 535.6L1152.5 535.6Q1152.1 535.6 1151.9 535.4Q1151.6 535.2 1151.6 534.8Q1151.6 534.5 1151.8 534.2L1151.8 534.2L1154.0 531.1Q1154.3 530.6 1154.6 530.5Q1154.8 530.3 1155.1 530.3L1155.1 530.3Q1155.6 530.3 1155.9 530.6Q1156.2 530.9 1156.2 531.3L1156.2 531.3Q1156.2 531.7 1155.9 532.1L1155.9 532.1L1153.4 535.1Q1153.0 535.6 1152.5 535.6ZM1152.4 552.9L1152.4 552.9Q1149.0 552.9 1147.1 550.9Q1145.3 548.8 1145.3 545.1L1145.3 545.1Q1145.3 541.5 1147.1 539.3Q1149.0 537.2 1152.2 537.2L1152.2 537.2Q1155.1 537.2 1156.9 539.1Q1158.8 541.1 1158.8 544.3L1158.8 544.3Q1158.8 544.9 1158.4 545.3Q1158.1 545.7 1157.4 545.7L1157.4 545.7L1147.9 545.7Q1147.9 548.0 1149.1 549.4Q1150.2 550.7 1152.3 550.7L1152.3 550.7Q1153.6 550.7 1154.6 550.2Q1155.5 549.6 1156.4 548.3L1156.4 548.3Q1156.8 547.8 1157.3 547.8L1157.3 547.8Q1157.9 547.8 1158.2 548.1Q1158.5 548.4 1158.5 548.9L1158.5 548.9Q1158.5 549.2 1158.3 549.7L1158.3 549.7Q1157.6 551.2 1156.0 552.1Q1154.5 552.9 1152.4 552.9ZM1147.9 543.7L1147.9 543.7L1156.2 543.7Q1156.1 541.8 1155.0 540.6Q1153.9 539.4 1152.1 539.4L1152.1 539.4Q1150.3 539.4 1149.2 540.6Q1148.0 541.8 1147.9 543.7Z "/></svg>