<svg width="1200" height="630" viewBox="0 0 1200 630" xmlns="http://www.w3.org/2000/svg"><mask id="satori_om-id"><rect x="0" y="0" width="1200" height="630" fill="#fff"/></mask><mask id="satori_om-id-0"><rect x="0" y="0" width="1200" height="630" fill="#fff"/></mask><rect x="0" y="0" width="1200" height="630" fill="#f2f2f2"/><mask id="satori_om-id-0-0"><rect x="0" y="0" width="1200" height="441" fill="#fff"/></mask><mask id="satori_om-id-0-0-0"><rect x="40" y="95" width="1120" height="36" fill="#fff"/></mask><path fill="#8e8e8e" d="M49.2 124.0L49.2 124.0Q46.2 124.0 44.1 122.9Q42.1 121.7 41.4 119.8L41.4 119.8Q41.2 119.2 41.2 118.8L41.2 118.8Q41.2 118.0 41.6 117.6Q42.1 117.2 42.7 117.2L42.7 117.2Q43.8 117.2 44.3 118.3L44.3 118.3Q44.8 119.8 46.1 120.5Q47.4 121.2 49.3 121.2L49.3 121.2Q51.3 121.2 52.6 120.3Q53.9 119.4 53.9 118.0L53.9 118.0Q53.9 116.7 53.0 115.9Q52.1 115.1 50.0 114.7L50.0 114.7L47.6 114.2Q44.5 113.5 43.0 112.1Q41.5 110.6 41.5 108.3L41.5 108.3Q41.5 105.6 43.7 103.9Q45.8 102.2 49.2 102.2L49.2 102.2Q51.9 102.2 53.9 103.4Q55.9 104.6 56.5 106.7L56.5 106.7Q56.6 107.0 56.6 107.5L56.6 107.5Q56.6 108.1 56.2 108.5Q55.8 108.9 55.2 108.9L55.2 108.9Q54.1 108.9 53.6 107.8L53.6 107.8Q52.6 105.0 49.1 105.0L49.1 105.0Q47.3 105.0 46.0 105.8Q44.8 106.7 44.8 108.1L44.8 108.1Q44.8 109.3 45.7 110.1Q46.7 110.8 48.7 111.3L48.7 111.3L51.0 111.7Q54.3 112.4 55.8 113.8Q57.2 115.2 57.2 117.5L57.2 117.5Q57.2 120.5 55.0 122.3Q52.9 124.0 49.2 124.0ZM64.3 123.9L64.3 123.9Q62.0 123.9 60.6 122.6Q59.2 121.3 59.2 119.3L59.2 119.3Q59.2 117.3 60.7 116.1Q62.1 114.9 64.9 114.7L64.9 114.7L69.1 114.5L69.1 113.3Q69.1 112.0 68.3 111.3Q67.5 110.6 66.0 110.6L66.0 110.6Q64.9 110.6 64.1 111.0Q63.3 111.5 62.6 112.5L62.6 112.5Q62.1 113.2 61.3 113.2L61.3 113.2Q60.7 113.2 60.3 112.8Q60.0 112.4 60.0 111.9L60.0 111.9Q60.0 111.3 60.2 110.8L60.2 110.8Q60.8 109.5 62.5 108.8Q64.1 108.0 66.1 108.0L66.1 108.0Q68.9 108.0 70.6 109.4Q72.3 110.7 72.3 113.0L72.3 113.0L72.3 122.3Q72.3 123.1 71.8 123.5Q71.4 123.9 70.7 123.9L70.7 123.9Q70.1 123.9 69.7 123.5Q69.3 123.1 69.2 122.4L69.2 122.4L69.2 121.1L69.2 121.1Q68.5 122.4 67.2 123.2Q65.8 123.9 64.3 123.9ZM65.2 121.4L65.2 121.4Q66.8 121.4 68.0 120.4Q69.1 119.4 69.1 117.9L69.1 117.9L69.1 116.7L65.3 116.9Q63.9 117.0 63.1 117.6Q62.4 118.2 62.4 119.2L62.4 119.2Q62.4 120.2 63.1 120.8Q63.9 121.4 65.2 121.4ZM76.3 120.0L76.3 120.0L76.3 110.8L75.1 110.8Q74.5 110.8 74.2 110.4Q73.8 110.1 73.8 109.5Q73.8 108.9 74.2 108.6Q74.5 108.3 75.1 108.3L75.1 108.3L76.3 108.3L76.3 106.0Q76.3 105.2 76.7 104.7Q77.1 104.3 77.9 104.3Q78.6 104.3 79.0 104.7Q79.4 105.2 79.4 106.0L79.4 106.0L79.4 108.3L81.2 108.3Q81.9 108.3 82.2 108.6Q82.6 108.9 82.6 109.5Q82.6 110.1 82.2 110.4Q81.9 110.8 81.2 110.8L81.2 110.8L79.4 110.8L79.4 119.3Q79.4 120.2 79.8 120.6Q80.2 121.1 81.0 121.1L81.0 121.1L81.3 121.2Q82.6 121.3 82.6 122.4L82.6 122.4Q82.6 123.8 80.3 123.8L80.3 123.8L80.2 123.8Q76.3 123.8 76.3 120.0ZM90.3 123.9L90.3 123.9Q87.8 123.9 86.3 122.4Q84.9 120.9 84.9 118.2L84.9 118.2L84.9 109.7Q84.9 108.9 85.3 108.4Q85.7 108.0 86.5 108.0L86.5 108.0Q87.2 108.0 87.6 108.4Q88.0 108.9 88.0 109.7L88.0 109.7L88.0 117.6Q88.0 119.4 88.9 120.3Q89.7 121.2 91.3 121.2L91.3 121.2Q93.0 121.2 94.0 120.1Q95.0 119.0 95.0 117.2L95.0 117.2L95.0 109.7Q95.0 108.9 95.4 108.4Q95.9 108.0 96.6 108.0L96.6 108.0Q97.3 108.0 97.7 108.4Q98.2 108.9 98.2 109.7L98.2 109.7L98.2 122.3Q98.2 123.1 97.8 123.5Q97.3 123.9 96.7 123.9Q96.0 123.9 95.6 123.5Q95.1 123.1 95.1 122.3L95.1 122.3L95.1 121.1L95.1 121.1Q93.7 123.9 90.3 123.9ZM102.9 123.9L102.9 123.9Q102.2 123.9 101.7 123.5Q101.3 123.0 101.3 122.3L101.3 122.3L101.3 109.6Q101.3 108.9 101.7 108.4Q102.1 108.0 102.8 108.0L102.8 108.0Q103.5 108.0 103.9 108.4Q104.3 108.9 104.3 109.6L104.3 109.6L104.3 110.9L104.4 110.9Q104.7 109.6 105.6 108.8Q106.6 108.0 107.7 108.0L107.7 108.0Q108.6 108.0 109.0 108.4L109.0 108.4Q109.4 108.7 109.4 109.5L109.4 109.5Q109.4 110.2 109.0 110.6L109.0 110.6Q108.5 111.0 107.5 111.0L107.5 111.0Q105.9 111.0 105.2 112.0Q104.5 112.9 104.5 114.4L104.5 114.4L104.5 122.3Q104.5 123.0 104.0 123.5Q103.6 123.9 102.9 123.9ZM116.9 123.9L116.9 123.9Q114.0 123.9 112.2 121.8Q110.4 119.6 110.4 116.0Q110.4 112.3 112.2 110.2Q114.0 108.0 116.9 108.0L116.9 108.0Q118.5 108.0 119.8 108.8Q121.1 109.5 121.7 110.8L121.7 110.8L121.8 110.8L121.8 103.9Q121.8 103.1 122.2 102.7Q122.7 102.2 123.4 102.2L123.4 102.2Q124.1 102.2 124.5 102.7Q125.0 103.2 125.0 103.9L125.0 103.9L125.0 122.4Q125.0 123.1 124.5 123.5Q124.1 123.9 123.4 123.9L123.4 123.9Q122.7 123.9 122.2 123.5Q121.8 123.1 121.8 122.4L121.8 122.4L121.8 120.9L121.7 120.9Q121.1 122.3 119.9 123.1Q118.7 123.9 116.9 123.9ZM117.8 121.2L117.8 121.2Q119.6 121.2 120.7 119.8Q121.8 118.4 121.8 116.0L121.8 116.0Q121.8 113.6 120.7 112.1Q119.6 110.7 117.8 110.7L117.8 110.7Q115.9 110.7 114.8 112.1Q113.7 113.5 113.7 116.0L113.7 116.0Q113.7 118.4 114.8 119.8Q115.9 121.2 117.8 121.2ZM132.7 123.9L132.7 123.9Q130.4 123.9 129.0 122.6Q127.6 121.3 127.6 119.3L127.6 119.3Q127.6 117.3 129.1 116.1Q130.6 114.9 133.3 114.7L133.3 114.7L137.5 114.5L137.5 113.3Q137.5 112.0 136.7 111.3Q135.9 110.6 134.4 110.6L134.4 110.6Q133.3 110.6 132.5 111.0Q131.7 111.5 131.0 112.5L131.0 112.5Q130.6 113.2 129.7 113.2L129.7 113.2Q129.1 113.2 128.8 112.8Q128.4 112.4 128.4 111.9L128.4 111.9Q128.4 111.3 128.7 110.8L128.7 110.8Q129.3 109.5 130.9 108.8Q132.5 108.0 134.6 108.0L134.6 108.0Q137.4 108.0 139.0 109.4Q140.7 110.7 140.7 113.0L140.7 113.0L140.7 122.3Q140.7 123.1 140.3 123.5Q139.8 123.9 139.2 123.9L139.2 123.9Q138.5 123.9 138.1 123.5Q137.7 123.1 137.6 122.4L137.6 122.4L137.6 121.1L137.6 121.1Q136.9 122.4 135.6 123.2Q134.2 123.9 132.7 123.9ZM133.6 121.4L133.6 121.4Q135.2 121.4 136.4 120.4Q137.5 119.4 137.5 117.9L137.5 117.9L137.5 116.7L133.7 116.9Q132.3 117.0 131.5 117.6Q130.8 118.2 130.8 119.2L130.8 119.2Q130.8 120.2 131.5 120.8Q132.3 121.4 133.6 121.4ZM145.6 129.4L145.6 129.4Q144.5 129.4 144.0 129.0Q143.4 128.6 143.4 127.9L143.4 127.9Q143.4 127.4 143.7 127.1Q144.0 126.8 144.6 126.8L144.6 126.8Q144.8 126.8 145 126.8Q145.2 126.8 145.4 126.8L145.4 126.8Q147.0 126.8 147.8 124.7L147.8 124.7L148.1 123.8L142.9 110.3Q142.7 109.9 142.7 109.4L142.7 109.4Q142.7 108.8 143.2 108.4Q143.6 108.0 144.3 108.0L144.3 108.0Q144.9 108.0 145.3 108.3Q145.7 108.5 145.9 109.2L145.9 109.2L149.8 120.8L149.8 120.8L153.8 109.2Q154.0 108.5 154.3 108.3Q154.7 108.0 155.3 108.0L155.3 108.0Q156.0 108.0 156.4 108.4Q156.8 108.8 156.8 109.4L156.8 109.4Q156.8 109.8 156.7 110.3L156.7 110.3L151.3 124.4Q150.3 127.2 149.0 128.3Q147.8 129.4 145.6 129.4ZM161.3 120.1L161.3 120.1Q162.0 120.1 162.4 120.5Q162.8 120.8 162.8 121.4L162.8 121.4Q162.8 121.8 162.7 122.3L162.7 122.3L161.4 127.3Q161.1 128.4 160.0 128.4L160.0 128.4Q159.5 128.4 159.1 128.1Q158.8 127.7 158.8 127.2L158.8 127.2Q158.8 127.1 158.8 126.8L158.8 126.8L159.8 121.4Q160 120.1 161.3 120.1Z M186.1 123.7L174.5 123.7Q173.7 123.7 173.3 123.3Q172.9 122.9 172.9 122.3L172.9 122.3Q172.9 121.8 173.1 121.5Q173.3 121.1 173.8 120.6L173.8 120.6L180.4 113.9Q182.5 111.8 183.2 110.7Q183.8 109.6 183.8 108.3L183.8 108.3Q183.8 106.8 182.8 105.8Q181.8 104.8 180.2 104.8L180.2 104.8Q177.0 104.8 175.9 108.0L175.9 108.0Q175.7 108.5 175.4 108.8Q175.0 109.0 174.4 109.0L174.4 109.0Q173.8 109.0 173.4 108.6Q173.0 108.3 173.0 107.6L173.0 107.6Q173.0 107.3 173.1 107.0L173.1 107.0Q173.3 106.1 173.8 105.3Q174.4 104.4 175.2 103.7Q176.1 103.0 177.4 102.6Q178.7 102.1 180.2 102.1L180.2 102.1Q183.2 102.1 185.2 103.8Q187.1 105.5 187.1 108.1L187.1 108.1Q187.1 109.9 186.1 111.5Q185.1 113.0 182.4 115.8L182.4 115.8L177.4 120.8L177.4 120.9L186.1 120.9Q186.8 120.9 187.2 121.3Q187.6 121.7 187.6 122.3L187.6 122.3Q187.6 122.9 187.2 123.3Q186.8 123.7 186.1 123.7L186.1 123.7ZM202.0 123.9L202.0 123.9Q201.3 123.9 200.8 123.5Q200.4 123.0 200.4 122.3L200.4 122.3L200.4 119.5L191.7 119.5Q190.8 119.5 190.3 119.0Q189.8 118.4 189.8 117.6L189.8 117.6Q189.8 116.6 190.5 115.3L190.5 115.3Q192.3 112.0 197.3 104.7L197.3 104.7Q198.3 103.3 199.1 102.8Q199.8 102.2 200.8 102.2L200.8 102.2Q202.1 102.2 202.8 102.9Q203.5 103.5 203.5 104.7L203.5 104.7L203.5 116.7L205.2 116.7Q205.8 116.7 206.2 117.1Q206.6 117.5 206.6 118.1Q206.6 118.7 206.2 119.1Q205.8 119.5 205.2 119.5L205.2 119.5L203.5 119.5L203.5 122.3Q203.5 123.0 203.1 123.5Q202.7 123.9 202.0 123.9ZM192.8 116.8L200.4 116.8L200.4 105.1L200.4 105.1Q195.0 112.9 192.8 116.7L192.8 116.7L192.8 116.8Z M217.9 123.5Q217.5 123.9 216.8 123.9Q216.1 123.9 215.7 123.5Q215.3 123.1 215.3 122.3L215.3 122.3L215.3 104.4Q215.3 103.4 215.9 102.9Q216.5 102.3 217.4 102.3L217.4 102.3Q218.3 102.3 218.8 102.7Q219.3 103.1 219.7 104.0L219.7 104.0L226.0 119.2L226.1 119.2L232.3 104.0Q232.7 103.1 233.2 102.7Q233.8 102.3 234.6 102.3L234.6 102.3Q235.6 102.3 236.1 102.8Q236.7 103.4 236.7 104.4L236.7 104.4L236.7 122.3Q236.7 123.1 236.3 123.5Q235.9 123.9 235.2 123.9L235.2 123.9Q234.5 123.9 234.1 123.5Q233.7 123.1 233.7 122.3L233.7 122.3L233.7 108.1L233.6 108.1L227.7 122.3Q227.2 123.5 226.0 123.5L226.0 123.5Q224.8 123.5 224.3 122.3L224.3 122.3L218.4 108.1L218.3 108.1L218.3 122.3Q218.3 123.1 217.9 123.5ZM244.7 123.9L244.7 123.9Q242.5 123.9 241.0 122.6Q239.6 121.3 239.6 119.3L239.6 119.3Q239.6 117.3 241.1 116.1Q242.6 114.9 245.3 114.7L245.3 114.7L249.6 114.5L249.6 113.3Q249.6 112.0 248.7 111.3Q247.9 110.6 246.5 110.6L246.5 110.6Q245.3 110.6 244.5 111.0Q243.7 111.5 243.1 112.5L243.1 112.5Q242.6 113.2 241.8 113.2L241.8 113.2Q241.2 113.2 240.8 112.8Q240.4 112.4 240.4 111.9L240.4 111.9Q240.4 111.3 240.7 110.8L240.7 110.8Q241.3 109.5 242.9 108.8Q244.5 108.0 246.6 108.0L246.6 108.0Q249.4 108.0 251.0 109.4Q252.7 110.7 252.7 113.0L252.7 113.0L252.7 122.3Q252.7 123.1 252.3 123.5Q251.9 123.9 251.2 123.9L251.2 123.9Q250.5 123.9 250.1 123.5Q249.7 123.1 249.7 122.4L249.7 122.4L249.7 121.1L249.6 121.1Q248.9 122.4 247.6 123.2Q246.3 123.9 244.7 123.9ZM245.6 121.4L245.6 121.4Q247.3 121.4 248.4 120.4Q249.6 119.4 249.6 117.9L249.6 117.9L249.6 116.7L245.8 116.9Q244.3 117.0 243.6 117.6Q242.8 118.2 242.8 119.2L242.8 119.2Q242.8 120.2 243.6 120.8Q244.3 121.4 245.6 121.4ZM257.7 129.4L257.7 129.4Q256.6 129.4 256.0 129.0Q255.4 128.6 255.4 127.9L255.4 127.9Q255.4 127.4 255.7 127.1Q256.1 126.8 256.6 126.8L256.6 126.8Q256.8 126.8 257.0 126.8Q257.3 126.8 257.5 126.8L257.5 126.8Q259.1 126.8 259.8 124.7L259.8 124.7L260.1 123.8L254.9 110.3Q254.8 109.9 254.8 109.4L254.8 109.4Q254.8 108.8 255.2 108.4Q255.7 108.0 256.4 108.0L256.4 108.0Q257.0 108.0 257.3 108.3Q257.7 108.5 257.9 109.2L257.9 109.2L261.8 120.8L261.9 120.8L265.8 109.2Q266.0 108.5 266.4 108.3Q266.7 108.0 267.3 108.0L267.3 108.0Q268.0 108.0 268.4 108.4Q268.9 108.8 268.9 109.4L268.9 109.4Q268.9 109.8 268.7 110.3L268.7 110.3L263.3 124.4Q262.3 127.2 261.1 128.3Q259.8 129.4 257.7 129.4Z M290.3 123.7L278.6 123.7Q277.9 123.7 277.5 123.3Q277.1 122.9 277.1 122.3L277.1 122.3Q277.1 121.8 277.2 121.5Q277.4 121.1 278.0 120.6L278.0 120.6L284.6 113.9Q286.6 111.8 287.3 110.7Q288.0 109.6 288.0 108.3L288.0 108.3Q288.0 106.8 287.0 105.8Q285.9 104.8 284.3 104.8L284.3 104.8Q281.2 104.8 280.1 108.0L280.1 108.0Q279.8 108.5 279.5 108.8Q279.2 109.0 278.6 109.0L278.6 109.0Q277.9 109.0 277.5 108.6Q277.1 108.3 277.1 107.6L277.1 107.6Q277.1 107.3 277.2 107.0L277.2 107.0Q277.4 106.1 278.0 105.3Q278.5 104.4 279.4 103.7Q280.2 103.0 281.5 102.6Q282.8 102.1 284.3 102.1L284.3 102.1Q287.4 102.1 289.3 103.8Q291.2 105.5 291.2 108.1L291.2 108.1Q291.2 109.9 290.3 111.5Q289.3 113.0 286.5 115.8L286.5 115.8L281.5 120.8L281.5 120.9L290.3 120.9Q290.9 120.9 291.3 121.3Q291.7 121.7 291.7 122.3L291.7 122.3Q291.7 122.9 291.3 123.3Q290.9 123.7 290.3 123.7L290.3 123.7ZM308.2 121.1Q306.0 124.1 302.2 124.1Q298.4 124.1 296.3 121.1Q294.1 118.2 294.1 113.1L294.1 113.1Q294.1 108.0 296.3 105.1Q298.4 102.1 302.2 102.1L302.2 102.1Q306.0 102.1 308.1 105.1Q310.3 108.0 310.3 113.1L310.3 113.1Q310.3 118.1 308.2 121.1ZM302.2 121.3L302.2 121.3Q304.5 121.3 305.7 119.1Q307.0 116.9 307.0 113.1L307.0 113.1Q307.0 109.3 305.7 107.1Q304.5 104.9 302.2 104.9Q300.0 104.9 298.7 107.1Q297.4 109.3 297.4 113.1L297.4 113.1Q297.4 116.9 298.7 119.1Q299.9 121.3 302.2 121.3ZM326.4 123.7L314.7 123.7Q314.0 123.7 313.6 123.3Q313.1 122.9 313.1 122.3L313.1 122.3Q313.1 121.8 313.3 121.5Q313.5 121.1 314.1 120.6L314.1 120.6L320.7 113.9Q322.7 111.8 323.4 110.7Q324.1 109.6 324.1 108.3L324.1 108.3Q324.1 106.8 323.1 105.8Q322.0 104.8 320.4 104.8L320.4 104.8Q317.3 104.8 316.2 108.0L316.2 108.0Q315.9 108.5 315.6 108.8Q315.3 109.0 314.7 109.0L314.7 109.0Q314.0 109.0 313.6 108.6Q313.2 108.3 313.2 107.6L313.2 107.6Q313.2 107.3 313.3 107.0L313.3 107.0Q313.5 106.1 314.1 105.3Q314.6 104.4 315.5 103.7Q316.3 103.0 317.6 102.6Q318.9 102.1 320.4 102.1L320.4 102.1Q323.5 102.1 325.4 103.8Q327.3 105.5 327.3 108.1L327.3 108.1Q327.3 109.9 326.3 111.5Q325.4 113.0 322.6 115.8L322.6 115.8L317.6 120.8L317.6 120.9L326.4 120.9Q327.0 120.9 327.4 121.3Q327.8 121.7 327.8 122.3L327.8 122.3Q327.8 122.9 327.4 123.3Q327.0 123.7 326.4 123.7L326.4 123.7ZM338.1 124.1L338.1 124.1Q335.8 124.1 333.9 123.0Q332.0 121.9 331.2 120.2L331.2 120.2Q330.9 119.5 330.9 118.8L330.9 118.8Q330.9 118.1 331.3 117.7Q331.7 117.3 332.4 117.3L332.4 117.3Q332.9 117.3 333.2 117.6Q333.6 117.8 333.8 118.4L333.8 118.4Q334.4 119.8 335.5 120.5Q336.6 121.3 338.2 121.3L338.2 121.3Q340.2 121.3 341.4 120.0Q342.7 118.8 342.7 116.8L342.7 116.8Q342.7 114.8 341.4 113.6Q340.2 112.4 338.2 112.4L338.2 112.4Q336.1 112.4 334.7 113.7L334.7 113.7Q334.1 114.5 333.7 114.6Q333.3 114.8 332.7 114.8L332.7 114.8Q332.0 114.8 331.6 114.4Q331.2 113.9 331.2 113.2L331.2 113.2L331.2 112.9L331.9 104.8Q332.0 103.6 332.6 103.0Q333.2 102.5 334.4 102.5L334.4 102.5L343.4 102.5Q344.1 102.5 344.5 102.9Q344.8 103.3 344.8 103.9Q344.8 104.5 344.5 104.9Q344.1 105.3 343.4 105.3L343.4 105.3L334.7 105.3L334.1 111.9L334.2 111.9Q334.9 110.9 336.1 110.3Q337.4 109.8 338.9 109.8L338.9 109.8Q342.0 109.8 344.0 111.7Q345.9 113.6 345.9 116.7L345.9 116.7Q345.9 120.0 343.7 122.0Q341.6 124.1 338.1 124.1Z "/><mask id="satori_om-id-0-0-1"><rect x="40" y="176" width="1120" height="165" fill="#fff"/></mask><path fill="#224d67" d="M45.6 239.1L45.6 239.1Q43.8 239.1 42.8 238.1Q41.8 237.2 41.8 235.6L41.8 235.6Q41.8 234.6 42.3 233.3L42.3 233.3L54.5 199.9Q55.3 197.8 56.6 196.8Q58.0 195.8 60.0 195.8L60.0 195.8Q62.1 195.8 63.4 196.8Q64.8 197.7 65.5 199.9L65.5 199.9L77.9 233.3Q78.3 234.7 78.3 235.6L78.3 235.6Q78.3 237.1 77.3 238.1Q76.2 239.1 74.6 239.1L74.6 239.1Q73.0 239.1 72.1 238.3Q71.2 237.6 70.7 235.9L70.7 235.9L67.9 227.8L52.1 227.8L49.3 235.8Q48.8 237.6 47.9 238.3Q47.0 239.1 45.6 239.1ZM59.9 203.8L53.9 221.8L66.1 221.8L60.1 203.8L59.9 203.8ZM89.6 238.2Q88.6 239.2 87.0 239.2Q85.3 239.2 84.3 238.2Q83.3 237.1 83.3 235.3L83.3 235.3L83.3 199.6Q83.3 197.7 84.3 196.7Q85.3 195.7 87.0 195.7Q88.6 195.7 89.6 196.7Q90.6 197.7 90.6 199.6L90.6 199.6L90.6 235.3Q90.6 237.1 89.6 238.2ZM103.3 238.2Q102.3 239.2 100.7 239.2Q99.0 239.2 98.0 238.2Q97.0 237.1 97.0 235.3L97.0 235.3L97.0 199.6Q97.0 197.7 98.0 196.7Q99.0 195.7 100.7 195.7Q102.3 195.7 103.3 196.7Q104.3 197.7 104.3 199.6L104.3 199.6L104.3 235.3Q104.3 237.1 103.3 238.2Z M147.0 238.6L127.0 238.6Q125.3 238.6 124.3 237.5Q123.3 236.5 123.3 234.7L123.3 234.7L123.3 199.7Q123.3 197.9 124.3 196.8Q125.3 195.8 127.0 195.8L127.0 195.8Q128.8 195.8 129.8 196.8Q130.8 197.9 130.8 199.7L130.8 199.7L130.8 232.2L147.0 232.2Q148.6 232.2 149.5 233.1Q150.5 233.9 150.5 235.4Q150.5 236.8 149.5 237.7Q148.6 238.6 147.0 238.6L147.0 238.6ZM168.5 239.2L168.5 239.2Q161.4 239.2 157.4 235.0Q153.4 230.7 153.4 223.2L153.4 223.2Q153.4 215.7 157.4 211.3Q161.4 206.9 168.1 206.9L168.1 206.9Q174.4 206.9 178.4 210.9Q182.4 215.0 182.4 221.4L182.4 221.4Q182.4 223.0 181.5 223.9Q180.6 224.8 179.0 224.8L179.0 224.8L160.7 224.8L160.7 225.0Q160.7 228.9 162.8 231.3Q164.9 233.6 168.4 233.6L168.4 233.6Q170.9 233.6 172.7 232.6Q174.4 231.7 176.2 229.4L176.2 229.4Q177.3 228.3 178.7 228.3L178.7 228.3Q179.9 228.3 180.8 229.0Q181.6 229.8 181.6 231.1L181.6 231.1Q181.6 231.9 181.1 232.9L181.1 232.9Q179.5 235.9 176.2 237.5Q172.9 239.2 168.5 239.2ZM160.7 220.0L160.7 220.0L175.2 220.0Q175.1 216.6 173.2 214.6Q171.2 212.5 168.1 212.5Q165.0 212.5 163.0 214.6Q160.9 216.7 160.7 220.0ZM200.5 250.3L200.5 250.3Q196.1 250.2 192.8 248.7Q189.5 247.2 187.9 244.6L187.9 244.6Q187.2 243.6 187.2 242.4L187.2 242.4Q187.2 241.2 188.1 240.4Q188.9 239.6 190.3 239.6L190.3 239.6Q191.7 239.6 193.0 240.8L193.0 240.8Q194.8 242.7 196.6 243.6Q198.3 244.4 200.5 244.5L200.5 244.5Q204.2 244.5 206.3 242.6Q208.4 240.7 208.4 237.6L208.4 237.6L208.4 232.7L208.3 232.7Q207.1 235.2 204.4 236.7Q201.8 238.3 198.6 238.3L198.6 238.3Q192.7 238.3 189.2 234.0Q185.8 229.8 185.8 222.7L185.8 222.7Q185.8 215.4 189.2 211.2Q192.7 207.0 198.7 207.0L198.7 207.0Q202.0 207.0 204.5 208.5Q207.0 210.1 208.3 212.8L208.3 212.8L208.5 212.8L208.5 210.6Q208.5 208.9 209.5 207.9Q210.5 206.9 212.1 206.9Q213.7 206.9 214.7 207.9Q215.8 208.9 215.8 210.6L215.8 210.6L215.8 237.6Q215.8 243.5 211.7 246.9Q207.6 250.3 200.5 250.3ZM200.8 232.6L200.8 232.6Q204.3 232.6 206.4 229.9Q208.5 227.3 208.5 222.7L208.5 222.7Q208.5 218.2 206.4 215.5Q204.3 212.8 200.8 212.8L200.8 212.8Q197.3 212.8 195.3 215.5Q193.3 218.2 193.3 222.7L193.3 222.7Q193.3 227.3 195.3 230.0Q197.3 232.6 200.8 232.6ZM230.8 239.1L230.8 239.1Q226.3 239.1 223.4 236.5Q220.4 233.9 220.4 229.7L220.4 229.7Q220.4 225.6 223.5 223.2Q226.6 220.8 232.2 220.4L232.2 220.4L240.5 219.9L240.5 217.7Q240.5 215.3 238.9 213.9Q237.4 212.6 234.7 212.6L234.7 212.6Q232.5 212.6 231.0 213.4Q229.5 214.2 228.2 216.2L228.2 216.2Q227.1 217.7 225.2 217.7L225.2 217.7Q223.9 217.7 223.0 216.9Q222.1 216.1 222.1 214.8L222.1 214.8Q222.1 213.8 222.6 212.8L222.6 212.8Q223.8 210.1 227.2 208.5Q230.5 206.9 235.0 206.9L235.0 206.9Q240.7 206.9 244.2 209.7Q247.7 212.5 247.7 217.2L247.7 217.2L247.7 235.5Q247.7 237.2 246.7 238.2Q245.7 239.2 244.1 239.2L244.1 239.2Q242.6 239.2 241.7 238.3Q240.7 237.4 240.7 235.8L240.7 235.8L240.7 233.6L240.5 233.6Q239.2 236.1 236.5 237.6Q233.9 239.1 230.8 239.1ZM233.0 233.6L233.0 233.6Q236.1 233.6 238.3 231.7Q240.5 229.8 240.5 227.1L240.5 227.1L240.5 224.7L233.3 225.1Q230.6 225.3 229.2 226.4Q227.7 227.6 227.7 229.4L227.7 229.4Q227.7 231.3 229.2 232.4Q230.6 233.6 233.0 233.6ZM260.0 238.2Q259.1 239.2 257.4 239.2Q255.8 239.2 254.8 238.2Q253.8 237.1 253.8 235.3L253.8 235.3L253.8 199.6Q253.8 197.7 254.8 196.7Q255.8 195.7 257.4 195.7Q259.1 195.7 260.0 196.7Q261.0 197.7 261.0 199.6L261.0 199.6L261.0 235.3Q261.0 237.1 260.0 238.2Z M294.1 239.1L294.1 239.1Q292.3 239.1 291.3 238.1Q290.3 237.0 290.3 235.2L290.3 235.2L290.3 202.7L280.7 202.7Q279.1 202.7 278.2 201.8Q277.2 201.0 277.2 199.5Q277.2 198.0 278.2 197.2Q279.1 196.3 280.7 196.3L280.7 196.3L307.5 196.3Q309.1 196.3 310.1 197.2Q311.0 198.0 311.0 199.5Q311.0 201.0 310.0 201.8Q309.1 202.7 307.5 202.7L307.5 202.7L297.9 202.7L297.9 235.2Q297.9 237.0 296.9 238.1Q295.9 239.1 294.1 239.1ZM321.4 238.2Q320.4 239.2 318.8 239.2Q317.1 239.2 316.1 238.2Q315.1 237.1 315.1 235.3L315.1 235.3L315.1 199.5Q315.1 197.7 316.1 196.7Q317.1 195.7 318.7 195.7L318.7 195.7Q320.4 195.7 321.4 196.7Q322.3 197.7 322.3 199.5L322.3 199.5L322.3 212.9L322.5 212.9Q323.7 210.0 326.3 208.5Q328.8 206.9 332.3 206.9L332.3 206.9Q337.4 206.9 340.3 210.1Q343.2 213.2 343.2 218.6L343.2 218.6L343.2 235.3Q343.2 237.1 342.2 238.2Q341.1 239.2 339.5 239.2Q337.9 239.2 336.9 238.2Q335.9 237.1 335.9 235.3L335.9 235.3L335.9 220.1Q335.9 216.8 334.2 214.9Q332.6 213.1 329.5 213.1L329.5 213.1Q326.2 213.1 324.3 215.2Q322.4 217.3 322.4 220.7L322.4 220.7L322.4 235.3Q322.4 237.1 321.4 238.2ZM355.3 238.1Q354.3 239.2 352.6 239.2Q351.0 239.2 350.0 238.1Q349.0 237.1 349.0 235.3L349.0 235.3L349.0 210.6Q349.0 208.9 349.9 207.9Q350.9 206.9 352.5 206.9L352.5 206.9Q354.0 206.9 355.0 207.9Q355.9 208.9 355.9 210.6L355.9 210.6L355.9 213.0L356.1 213.0Q356.7 210.3 358.6 208.6Q360.4 207.0 362.7 207.0L362.7 207.0Q364.4 207.0 365.3 207.8L365.3 207.8Q366.3 208.6 366.3 210.4L366.3 210.4Q366.3 212.1 365.3 213.0L365.3 213.0Q364.2 213.9 362.0 214.0L362.0 214.0Q356.3 214.0 356.3 220.4L356.3 220.4L356.3 235.3Q356.3 237.1 355.3 238.1ZM383.4 239.2L383.4 239.2Q376.3 239.2 372.3 235.0Q368.3 230.7 368.3 223.2L368.3 223.2Q368.3 215.7 372.3 211.3Q376.3 206.9 383.0 206.9L383.0 206.9Q389.4 206.9 393.3 210.9Q397.3 215.0 397.3 221.4L397.3 221.4Q397.3 223.0 396.4 223.9Q395.5 224.8 393.9 224.8L393.9 224.8L375.6 224.8L375.6 225.0Q375.6 228.9 377.7 231.3Q379.8 233.6 383.4 233.6L383.4 233.6Q385.8 233.6 387.6 232.6Q389.4 231.7 391.1 229.4L391.1 229.4Q392.2 228.3 393.6 228.3L393.6 228.3Q394.8 228.3 395.7 229.0Q396.5 229.8 396.5 231.1L396.5 231.1Q396.5 231.9 396.0 232.9L396.0 232.9Q394.5 235.9 391.2 237.5Q387.8 239.2 383.4 239.2ZM375.7 220.0L375.7 220.0L390.2 220.0Q390.0 216.6 388.1 214.6Q386.1 212.5 383.0 212.5Q380.0 212.5 377.9 214.6Q375.9 216.7 375.7 220.0ZM411.1 239.1L411.1 239.1Q406.6 239.1 403.6 236.5Q400.7 233.9 400.7 229.7L400.7 229.7Q400.7 225.6 403.8 223.2Q406.9 220.8 412.5 220.4L412.5 220.4L420.8 219.9L420.8 217.7Q420.8 215.3 419.2 213.9Q417.7 212.6 415.0 212.6L415.0 212.6Q412.8 212.6 411.3 213.4Q409.8 214.2 408.5 216.2L408.5 216.2Q407.4 217.7 405.5 217.7L405.5 217.7Q404.2 217.7 403.3 216.9Q402.4 216.1 402.4 214.8L402.4 214.8Q402.4 213.8 402.9 212.8L402.9 212.8Q404.1 210.1 407.5 208.5Q410.8 206.9 415.3 206.9L415.3 206.9Q421.0 206.9 424.5 209.7Q428.0 212.5 428.0 217.2L428.0 217.2L428.0 235.5Q428.0 237.2 427.0 238.2Q426.0 239.2 424.4 239.2L424.4 239.2Q422.9 239.2 422.0 238.3Q421.0 237.4 420.9 235.8L420.9 235.8L420.9 233.6L420.8 233.6Q419.5 236.1 416.8 237.6Q414.2 239.1 411.1 239.1ZM413.3 233.6L413.3 233.6Q416.4 233.6 418.6 231.7Q420.8 229.8 420.8 227.1L420.8 227.1L420.8 224.7L413.6 225.1Q410.9 225.3 409.5 226.4Q408.0 227.6 408.0 229.4L408.0 229.4Q408.0 231.3 409.5 232.4Q410.9 233.6 413.3 233.6ZM435.9 230.9L435.9 230.9L435.9 213.1L433.9 213.1Q432.5 213.1 431.8 212.4Q431.0 211.6 431.0 210.3L431.0 210.3Q431.0 209.0 431.7 208.3Q432.5 207.5 433.9 207.5L433.9 207.5L435.9 207.5L435.9 203.4Q435.9 201.6 436.8 200.6Q437.8 199.6 439.5 199.6L439.5 199.6Q441.2 199.6 442.2 200.6Q443.2 201.6 443.2 203.4L443.2 203.4L443.2 207.5L446.5 207.5Q447.9 207.5 448.7 208.3Q449.5 209.0 449.5 210.3L449.5 210.3Q449.5 211.6 448.7 212.4Q447.9 213.1 446.5 213.1L446.5 213.1L443.2 213.1L443.2 229.3Q443.2 231.1 443.8 231.9Q444.5 232.7 446.1 232.9L446.1 232.9L446.6 232.9Q449.5 233.2 449.5 235.6L449.5 235.6Q449.5 237.2 448.2 238.1Q446.8 238.9 444.3 238.9L444.3 238.9L444.0 238.9Q435.9 238.9 435.9 230.9ZM465.9 239.2L465.9 239.2Q461.1 239.2 457.8 237.5Q454.4 235.8 453.3 233.0L453.3 233.0Q453.0 232.2 453.0 231.5L453.0 231.5Q453.0 230.2 453.8 229.4Q454.7 228.6 456.0 228.6L456.0 228.6Q457.9 228.6 459.2 230.4L459.2 230.4Q460.5 232.3 462.1 233.1Q463.7 233.9 466.2 233.9L466.2 233.9Q468.8 233.9 470.3 232.9Q471.9 231.8 471.9 230.1L471.9 230.1Q471.9 228.7 470.9 227.8Q469.9 227.0 467.5 226.4L467.5 226.4L462.5 225.3Q453.4 223.3 453.4 216.4L453.4 216.4Q453.4 212.1 456.9 209.5Q460.3 206.9 466.1 206.9L466.1 206.9Q470.5 206.9 473.7 208.8Q476.9 210.6 477.6 213.4L477.6 213.4Q477.8 214.0 477.8 214.5L477.8 214.5Q477.8 215.6 477.1 216.4Q476.3 217.1 475.0 217.1L475.0 217.1Q473.1 217.1 472.2 215.7L472.2 215.7Q471.0 214.0 469.6 213.1Q468.1 212.2 465.9 212.2L465.9 212.2Q463.5 212.2 462.0 213.3Q460.5 214.3 460.5 216.0L460.5 216.0Q460.5 218.8 465.1 219.8L465.1 219.8L470.0 220.9Q474.9 222.0 477.1 223.9Q479.2 225.9 479.2 229.3L479.2 229.3Q479.2 233.8 475.5 236.5Q471.9 239.2 465.9 239.2Z M498.4 239.1L498.4 239.1Q496.7 239.1 495.6 238.1Q494.6 237.2 494.6 235.6L494.6 235.6Q494.6 234.6 495.1 233.3L495.1 233.3L507.3 199.9Q508.1 197.8 509.4 196.8Q510.8 195.8 512.8 195.8L512.8 195.8Q514.9 195.8 516.2 196.8Q517.6 197.7 518.4 199.9L518.4 199.9L530.7 233.3Q531.2 234.7 531.2 235.6L531.2 235.6Q531.2 237.1 530.1 238.1Q529.0 239.1 527.4 239.1L527.4 239.1Q525.8 239.1 524.9 238.3Q524.0 237.6 523.5 235.9L523.5 235.9L520.7 227.8L504.9 227.8L502.2 235.8Q501.6 237.6 500.7 238.3Q499.8 239.1 498.4 239.1ZM512.7 203.8L506.7 221.8L518.9 221.8L512.9 203.8L512.7 203.8ZM542.2 238.1Q541.2 239.2 539.5 239.2Q537.9 239.2 536.9 238.1Q535.9 237.1 535.9 235.3L535.9 235.3L535.9 210.6Q535.9 208.9 536.9 207.9Q537.8 206.9 539.4 206.9L539.4 206.9Q540.9 206.9 541.9 207.9Q542.9 208.9 542.9 210.6L542.9 210.6L542.9 213.0L543.0 213.0Q543.6 210.3 545.5 208.6Q547.3 207.0 549.6 207.0L549.6 207.0Q551.3 207.0 552.2 207.8L552.2 207.8Q553.3 208.6 553.3 210.4L553.3 210.4Q553.3 212.1 552.2 213.0L552.2 213.0Q551.1 213.9 548.9 214.0L548.9 214.0Q543.2 214.0 543.2 220.4L543.2 220.4L543.2 235.3Q543.2 237.1 542.2 238.1ZM570.3 239.2L570.3 239.2Q563.2 239.2 559.2 235.0Q555.2 230.7 555.2 223.2L555.2 223.2Q555.2 215.7 559.2 211.3Q563.2 206.9 569.9 206.9L569.9 206.9Q576.3 206.9 580.2 210.9Q584.2 215.0 584.2 221.4L584.2 221.4Q584.2 223.0 583.3 223.9Q582.4 224.8 580.8 224.8L580.8 224.8L562.5 224.8L562.5 225.0Q562.5 228.9 564.6 231.3Q566.7 233.6 570.3 233.6L570.3 233.6Q572.7 233.6 574.5 232.6Q576.3 231.7 578.0 229.4L578.0 229.4Q579.1 228.3 580.5 228.3L580.5 228.3Q581.8 228.3 582.6 229.0Q583.4 229.8 583.4 231.1L583.4 231.1Q583.4 231.9 582.9 232.9L582.9 232.9Q581.4 235.9 578.1 237.5Q574.8 239.2 570.3 239.2ZM562.6 220.0L562.6 220.0L577.1 220.0Q577.0 216.6 575.0 214.6Q573.0 212.5 570.0 212.5Q566.9 212.5 564.8 214.6Q562.8 216.7 562.6 220.0Z M619.0 239.3L619.0 239.3Q611.1 239.3 606.4 235.0Q601.7 230.7 601.7 223.7L601.7 223.7L601.7 199.7Q601.7 197.9 602.7 196.8Q603.7 195.8 605.4 195.8L605.4 195.8Q607.2 195.8 608.2 196.8Q609.2 197.9 609.2 199.7L609.2 199.7L609.2 223.0Q609.2 227.4 611.8 230.0Q614.4 232.7 619.0 232.7Q623.7 232.7 626.3 230.0Q628.9 227.4 628.9 223.0L628.9 223.0L628.9 199.7Q628.9 197.9 629.9 196.8Q630.9 195.8 632.6 195.8L632.6 195.8Q634.4 195.8 635.4 196.8Q636.4 197.9 636.4 199.7L636.4 199.7L636.4 223.7Q636.4 230.7 631.7 235.0Q627.0 239.3 619.0 239.3ZM655.1 239.2L655.1 239.2Q650.3 239.2 646.9 237.5Q643.6 235.8 642.5 233.0L642.5 233.0Q642.2 232.2 642.2 231.5L642.2 231.5Q642.2 230.2 643.0 229.4Q643.9 228.6 645.2 228.6L645.2 228.6Q647.0 228.6 648.4 230.4L648.4 230.4Q649.6 232.3 651.2 233.1Q652.8 233.9 655.4 233.9L655.4 233.9Q658.0 233.9 659.5 232.9Q661.0 231.8 661.0 230.1L661.0 230.1Q661.0 228.7 660.0 227.8Q659.0 227.0 656.7 226.4L656.7 226.4L651.6 225.3Q642.6 223.3 642.6 216.4L642.6 216.4Q642.6 212.1 646.0 209.5Q649.5 206.9 655.2 206.9L655.2 206.9Q659.6 206.9 662.9 208.8Q666.1 210.6 666.8 213.4L666.8 213.4Q667.0 214.0 667.0 214.5L667.0 214.5Q667.0 215.6 666.2 216.4Q665.5 217.1 664.1 217.1L664.1 217.1Q662.3 217.1 661.4 215.7L661.4 215.7Q660.2 214.0 658.7 213.1Q657.3 212.2 655.1 212.2L655.1 212.2Q652.7 212.2 651.2 213.3Q649.7 214.3 649.7 216.0L649.7 216.0Q649.7 218.8 654.2 219.8L654.2 219.8L659.2 220.9Q664.1 222.0 666.2 223.9Q668.4 225.9 668.4 229.3L668.4 229.3Q668.4 233.8 664.7 236.5Q661.1 239.2 655.1 239.2ZM686.8 239.2L686.8 239.2Q679.6 239.2 675.7 235.0Q671.7 230.7 671.7 223.2L671.7 223.2Q671.7 215.7 675.7 211.3Q679.6 206.9 686.3 206.9L686.3 206.9Q692.7 206.9 696.7 210.9Q700.6 215.0 700.6 221.4L700.6 221.4Q700.6 223.0 699.8 223.9Q698.9 224.8 697.2 224.8L697.2 224.8L678.9 224.8L678.9 225.0Q678.9 228.9 681.0 231.3Q683.2 233.6 686.7 233.6L686.7 233.6Q689.2 233.6 690.9 232.6Q692.7 231.7 694.5 229.4L694.5 229.4Q695.5 228.3 696.9 228.3L696.9 228.3Q698.2 228.3 699.0 229.0Q699.9 229.8 699.9 231.1L699.9 231.1Q699.9 231.9 699.4 232.9L699.4 232.9Q697.8 235.9 694.5 237.5Q691.2 239.2 686.8 239.2ZM679.0 220.0L679.0 220.0L693.5 220.0Q693.4 216.6 691.4 214.6Q689.5 212.5 686.4 212.5Q683.3 212.5 681.3 214.6Q679.2 216.7 679.0 220.0ZM716.9 239.1L716.9 239.1Q711.0 239.1 707.5 234.7Q704.0 230.4 704.0 223.0L704.0 223.0Q704.0 215.7 707.5 211.3Q711.0 207.0 716.9 207.0L716.9 207.0Q720.2 207.0 722.7 208.5Q725.3 210.1 726.5 212.7L726.5 212.7L726.7 212.7L726.7 199.6Q726.7 197.7 727.7 196.7Q728.7 195.7 730.4 195.7Q732.0 195.7 733.0 196.7Q734.0 197.7 734.0 199.6L734.0 199.6L734.0 235.5Q734.0 237.2 733.0 238.2Q732.0 239.2 730.4 239.2L730.4 239.2Q728.8 239.2 727.7 238.2Q726.7 237.2 726.7 235.5L726.7 235.5L726.7 233.1L726.6 233.1Q725.4 235.9 722.9 237.5Q720.4 239.1 716.9 239.1ZM719.1 233.1L719.1 233.1Q722.6 233.1 724.7 230.4Q726.7 227.7 726.7 223.1L726.7 223.1Q726.7 218.5 724.7 215.7Q722.6 213.0 719.1 213.0L719.1 213.0Q715.6 213.0 713.6 215.7Q711.5 218.4 711.5 223.1L711.5 223.1Q711.5 227.7 713.5 230.4Q715.6 233.1 719.1 233.1Z M754.2 230.9L754.2 230.9L754.2 213.1L752.2 213.1Q750.9 213.1 750.1 212.4Q749.3 211.6 749.3 210.3L749.3 210.3Q749.3 209.0 750.1 208.3Q750.8 207.5 752.2 207.5L752.2 207.5L754.2 207.5L754.2 203.4Q754.2 201.6 755.2 200.6Q756.1 199.6 757.8 199.6L757.8 199.6Q759.5 199.6 760.5 200.6Q761.5 201.6 761.5 203.4L761.5 203.4L761.5 207.5L764.8 207.5Q766.2 207.5 767.0 208.3Q767.8 209.0 767.8 210.3L767.8 210.3Q767.8 211.6 767.0 212.4Q766.2 213.1 764.8 213.1L764.8 213.1L761.5 213.1L761.5 229.3Q761.5 231.1 762.1 231.9Q762.8 232.7 764.4 232.9L764.4 232.9L764.9 232.9Q767.9 233.2 767.9 235.6L767.9 235.6Q767.9 237.2 766.5 238.1Q765.2 238.9 762.6 238.9L762.6 238.9L762.3 238.9Q754.2 238.9 754.2 230.9ZM797.0 234.9Q792.9 239.2 786.0 239.2Q779.1 239.2 775.1 234.9Q771.0 230.6 771.0 223.1L771.0 223.1Q771.0 215.6 775.1 211.2Q779.2 206.9 786.0 206.9L786.0 206.9Q792.9 206.9 797.0 211.2Q801.0 215.6 801.0 223.1L801.0 223.1Q801.0 230.6 797.0 234.9ZM780.4 230.7Q782.5 233.4 786.0 233.4Q789.5 233.4 791.6 230.7Q793.6 228.0 793.6 223.1L793.6 223.1Q793.6 218.2 791.6 215.4Q789.5 212.7 786.0 212.7L786.0 212.7Q782.5 212.7 780.5 215.4Q778.4 218.2 778.4 223.1L778.4 223.1Q778.4 228.0 780.4 230.7Z M833.4 239.3L833.4 239.3Q827.2 239.3 823.1 237.0Q818.9 234.7 817.7 231.0L817.7 231.0Q817.2 229.9 817.2 228.8L817.2 228.8Q817.2 227.2 818.2 226.3Q819.1 225.3 820.6 225.3L820.6 225.3Q821.8 225.3 822.7 225.9Q823.5 226.4 824.1 227.7L824.1 227.7Q825.1 230.4 827.6 231.7Q830.1 233.0 833.6 233.0L833.6 233.0Q837.4 233.0 839.8 231.3Q842.3 229.6 842.3 227.0L842.3 227.0Q842.3 224.7 840.5 223.2Q838.7 221.8 834.6 220.9L834.6 220.9L830.1 220.0Q817.7 217.4 817.7 208.1L817.7 208.1Q817.7 202.5 822.1 199.1Q826.5 195.6 833.4 195.6L833.4 195.6Q839.0 195.6 843.1 198.0Q847.1 200.4 848.4 204.5L848.4 204.5Q848.7 205.2 848.7 206.3L848.7 206.3Q848.7 207.6 847.7 208.5Q846.8 209.4 845.4 209.4L845.4 209.4Q842.9 209.4 841.7 207.0L841.7 207.0Q839.7 201.9 833.3 201.9L833.3 201.9Q829.8 201.9 827.5 203.4Q825.3 205.0 825.3 207.6L825.3 207.6Q825.3 209.8 827.0 211.2Q828.8 212.7 832.7 213.5L832.7 213.5L837.2 214.4Q843.9 215.8 846.9 218.6Q849.9 221.4 849.9 226.1L849.9 226.1Q849.9 232.2 845.4 235.7Q841.0 239.3 833.4 239.3ZM861.5 202.0Q860.3 203.2 858.6 203.2Q856.9 203.2 855.7 202.0Q854.6 200.8 854.6 199.2L854.6 199.2Q854.6 197.5 855.7 196.4Q856.9 195.2 858.6 195.2L858.6 195.2Q860.3 195.2 861.5 196.4Q862.7 197.5 862.7 199.2L862.7 199.2Q862.7 200.8 861.5 202.0ZM861.3 238.1Q860.3 239.2 858.6 239.2Q856.9 239.2 856.0 238.1Q855.0 237.1 855.0 235.3L855.0 235.3L855.0 210.7Q855.0 209.0 856.0 207.9Q856.9 206.9 858.6 206.9Q860.3 206.9 861.3 207.9Q862.3 209.0 862.3 210.8L862.3 210.8L862.3 235.3Q862.3 237.1 861.3 238.1ZM874.9 238.2Q873.9 239.2 872.3 239.2Q870.6 239.2 869.6 238.2Q868.6 237.1 868.6 235.3L868.6 235.3L868.6 199.6Q868.6 197.7 869.6 196.7Q870.6 195.7 872.3 195.7Q873.9 195.7 874.9 196.7Q875.9 197.7 875.9 199.6L875.9 199.6L875.9 235.3Q875.9 237.1 874.9 238.2ZM895.9 239.2L895.9 239.2Q888.8 239.2 884.8 235.0Q880.8 230.7 880.8 223.2L880.8 223.2Q880.8 215.7 884.8 211.3Q888.8 206.9 895.5 206.9L895.5 206.9Q901.9 206.9 905.8 210.9Q909.8 215.0 909.8 221.4L909.8 221.4Q909.8 223.0 908.9 223.9Q908.0 224.8 906.4 224.8L906.4 224.8L888.1 224.8L888.1 225.0Q888.1 228.9 890.2 231.3Q892.3 233.6 895.8 233.6L895.8 233.6Q898.3 233.6 900.1 232.6Q901.9 231.7 903.6 229.4L903.6 229.4Q904.7 228.3 906.1 228.3L906.1 228.3Q907.3 228.3 908.2 229.0Q909.0 229.8 909.0 231.1L909.0 231.1Q909.0 231.9 908.5 232.9L908.5 232.9Q907.0 235.9 903.6 237.5Q900.3 239.2 895.9 239.2ZM888.1 220.0L888.1 220.0L902.6 220.0Q902.5 216.6 900.6 214.6Q898.6 212.5 895.5 212.5Q892.5 212.5 890.4 214.6Q888.3 216.7 888.1 220.0ZM920.8 238.2Q919.8 239.2 918.1 239.2Q916.5 239.2 915.5 238.2Q914.5 237.1 914.5 235.3L914.5 235.3L914.5 210.6Q914.5 208.9 915.4 207.9Q916.4 206.9 918.0 206.9Q919.6 206.9 920.6 207.9Q921.6 208.9 921.6 210.6L921.6 210.6L921.6 212.8L921.7 212.8Q924.4 206.9 931.4 206.9L931.4 206.9Q936.5 206.9 939.3 210.0Q942.1 213.1 942.1 218.5L942.1 218.5L942.1 235.3Q942.1 237.1 941.1 238.2Q940.1 239.2 938.5 239.2Q936.9 239.2 935.9 238.2Q934.8 237.1 934.8 235.3L934.8 235.3L934.8 220.0Q934.8 216.6 933.3 214.9Q931.7 213.1 928.6 213.1L928.6 213.1Q925.5 213.1 923.6 215.2Q921.8 217.2 921.8 220.6L921.8 220.6L921.8 235.3Q921.8 237.1 920.8 238.2ZM961.6 239.2L961.6 239.2Q954.8 239.2 950.7 234.9Q946.7 230.5 946.7 223.1L946.7 223.1Q946.7 215.7 950.7 211.3Q954.8 206.9 961.6 206.9L961.6 206.9Q966.1 206.9 969.7 209.0Q973.2 211.1 974.3 214.4L974.3 214.4Q974.7 215.4 974.7 216.1L974.7 216.1Q974.7 217.5 973.8 218.3Q972.9 219.1 971.6 219.1L971.6 219.1Q970.5 219.1 969.8 218.6Q969.0 218.1 968.4 217.0L968.4 217.0Q966.1 212.8 961.8 212.8L961.8 212.8Q958.3 212.8 956.2 215.6Q954.1 218.3 954.1 223.1L954.1 223.1Q954.1 227.9 956.2 230.6Q958.2 233.3 961.7 233.3L961.7 233.3Q966.1 233.3 968.4 229.3L968.4 229.3Q969.1 228.1 969.8 227.6Q970.6 227.1 971.7 227.1L971.7 227.1Q973.0 227.1 973.9 227.9Q974.8 228.7 974.8 230.1L974.8 230.1Q974.8 230.9 974.4 231.9L974.4 231.9Q973.0 235.1 969.5 237.2Q966.0 239.2 961.6 239.2ZM993.5 239.2L993.5 239.2Q986.4 239.2 982.4 235.0Q978.4 230.7 978.4 223.2L978.4 223.2Q978.4 215.7 982.4 211.3Q986.4 206.9 993.1 206.9L993.1 206.9Q999.4 206.9 1003.4 210.9Q1007.4 215.0 1007.4 221.4L1007.4 221.4Q1007.4 223.0 1006.5 223.9Q1005.6 224.8 1004.0 224.8L1004.0 224.8L985.7 224.8L985.7 225.0Q985.7 228.9 987.8 231.3Q989.9 233.6 993.4 233.6L993.4 233.6Q995.9 233.6 997.7 232.6Q999.4 231.7 1001.2 229.4L1001.2 229.4Q1002.3 228.3 1003.7 228.3L1003.7 228.3Q1004.9 228.3 1005.8 229.0Q1006.6 229.8 1006.6 231.1L1006.6 231.1Q1006.6 231.9 1006.1 232.9L1006.1 232.9Q1004.5 235.9 1001.2 237.5Q997.9 239.2 993.5 239.2ZM985.7 220.0L985.7 220.0L1000.2 220.0Q1000.1 216.6 998.2 214.6Q996.2 212.5 993.1 212.5Q990.0 212.5 988.0 214.6Q985.9 216.7 985.7 220.0Z M56.1 321.6L56.1 321.6Q54.4 321.6 53.3 320.7Q52.3 319.8 51.7 317.8L51.7 317.8L42.4 284.1Q42.0 282.8 42.0 281.7L42.0 281.7Q42.0 280.2 43.0 279.2Q44.0 278.3 45.7 278.3L45.7 278.3Q48.7 278.3 49.4 281.5L49.4 281.5L56.4 310.8L56.7 310.8L64.4 281.9Q64.9 280.0 65.9 279.2Q66.9 278.3 68.5 278.3L68.5 278.3Q71.6 278.3 72.6 281.8L72.6 281.8L80.3 310.8L80.6 310.8L87.6 281.5Q88.3 278.3 91.3 278.3L91.3 278.3Q93.0 278.3 94.0 279.2Q95.0 280.2 95.0 281.7L95.0 281.7Q95.0 282.7 94.6 284.1L94.6 284.1L85.2 317.8Q84.7 319.8 83.7 320.7Q82.7 321.6 80.9 321.6L80.9 321.6Q79.1 321.6 78.1 320.7Q77.0 319.8 76.5 317.8L76.5 317.8L68.7 290.5L68.4 290.5L60.5 317.8Q60.0 319.8 59.0 320.7Q57.9 321.6 56.1 321.6ZM124.7 317.4Q120.6 321.7 113.7 321.7Q106.9 321.7 102.8 317.4Q98.7 313.1 98.7 305.6L98.7 305.6Q98.7 298.1 102.8 293.7Q106.9 289.4 113.7 289.4L113.7 289.4Q120.6 289.4 124.7 293.7Q128.8 298.1 128.8 305.6L128.8 305.6Q128.8 313.1 124.7 317.4ZM108.2 313.2Q110.2 315.9 113.7 315.9Q117.3 315.9 119.3 313.2Q121.4 310.5 121.4 305.6L121.4 305.6Q121.4 300.7 119.3 297.9Q117.3 295.2 113.7 295.2L113.7 295.2Q110.3 295.2 108.2 297.9Q106.1 300.7 106.1 305.6L106.1 305.6Q106.1 310.5 108.2 313.2ZM139.8 320.6Q138.8 321.7 137.1 321.7Q135.4 321.7 134.4 320.6Q133.5 319.6 133.5 317.8L133.5 317.8L133.5 293.1Q133.5 291.4 134.4 290.4Q135.4 289.4 136.9 289.4L136.9 289.4Q138.5 289.4 139.4 290.4Q140.4 291.4 140.4 293.1L140.4 293.1L140.4 295.5L140.5 295.5Q141.2 292.8 143.0 291.1Q144.9 289.5 147.2 289.5L147.2 289.5Q148.9 289.5 149.8 290.3L149.8 290.3Q150.8 291.1 150.8 292.9L150.8 292.9Q150.8 294.6 149.7 295.5L149.7 295.5Q148.7 296.4 146.5 296.5L146.5 296.5Q140.8 296.5 140.8 302.9L140.8 302.9L140.8 317.8Q140.8 319.6 139.8 320.6ZM160.6 320.7Q159.6 321.7 157.9 321.7Q156.3 321.7 155.3 320.7Q154.3 319.6 154.3 317.8L154.3 317.8L154.3 282.1Q154.3 280.2 155.3 279.2Q156.3 278.2 157.9 278.2Q159.6 278.2 160.6 279.2Q161.6 280.2 161.6 282.1L161.6 282.1L161.6 302.9L161.7 302.9L173.9 290.8Q175.2 289.4 176.7 289.4L176.7 289.4Q178.0 289.4 179.0 290.3Q179.9 291.2 179.9 292.5L179.9 292.5Q179.9 294.0 178.6 295.2L178.6 295.2L169.7 303.6L179.5 315.8Q180.4 317.2 180.4 318.4L180.4 318.4Q180.4 319.8 179.5 320.8Q178.5 321.7 177.0 321.7L177.0 321.7Q175.9 321.7 175.2 321.2Q174.4 320.8 173.7 319.6L173.7 319.6L164.3 307.8L161.6 310.4L161.6 317.8Q161.6 319.6 160.6 320.7ZM199.0 321.7L199.0 321.7Q191.9 321.7 187.9 317.5Q183.9 313.2 183.9 305.7L183.9 305.7Q183.9 298.2 187.9 293.8Q191.9 289.4 198.6 289.4L198.6 289.4Q204.9 289.4 208.9 293.4Q212.9 297.5 212.9 303.9L212.9 303.9Q212.9 305.5 212.0 306.4Q211.1 307.3 209.5 307.3L209.5 307.3L191.2 307.3L191.2 307.5Q191.2 311.4 193.3 313.8Q195.4 316.1 198.9 316.1L198.9 316.1Q201.4 316.1 203.2 315.1Q204.9 314.2 206.7 311.9L206.7 311.9Q207.8 310.8 209.2 310.8L209.2 310.8Q210.4 310.8 211.3 311.5Q212.1 312.3 212.1 313.6L212.1 313.6Q212.1 314.4 211.6 315.4L211.6 315.4Q210.0 318.4 206.7 320.0Q203.4 321.7 199.0 321.7ZM191.2 302.5L191.2 302.5L205.7 302.5Q205.6 299.1 203.7 297.1Q201.7 295.0 198.6 295.0Q195.5 295.0 193.5 297.1Q191.4 299.2 191.2 302.5ZM223.9 320.6Q222.9 321.7 221.2 321.7Q219.5 321.7 218.5 320.6Q217.6 319.6 217.6 317.8L217.6 317.8L217.6 293.1Q217.6 291.4 218.5 290.4Q219.5 289.4 221.1 289.4L221.1 289.4Q222.6 289.4 223.5 290.4Q224.5 291.4 224.5 293.1L224.5 293.1L224.5 295.5L224.7 295.5Q225.3 292.8 227.1 291.1Q229.0 289.5 231.3 289.5L231.3 289.5Q233.0 289.5 233.9 290.3L233.9 290.3Q234.9 291.1 234.9 292.9L234.9 292.9Q234.9 294.6 233.8 295.5L233.8 295.5Q232.8 296.4 230.6 296.5L230.6 296.5Q224.9 296.5 224.9 302.9L224.9 302.9L224.9 317.8Q224.9 319.6 223.9 320.6ZM250.2 321.7L250.2 321.7Q245.3 321.7 242.0 320.0Q238.7 318.3 237.5 315.5L237.5 315.5Q237.2 314.7 237.2 314.0L237.2 314.0Q237.2 312.7 238.1 311.9Q238.9 311.1 240.3 311.1L240.3 311.1Q242.1 311.1 243.4 312.9L243.4 312.9Q244.7 314.8 246.3 315.6Q247.9 316.4 250.4 316.4L250.4 316.4Q253.0 316.4 254.6 315.4Q256.1 314.3 256.1 312.6L256.1 312.6Q256.1 311.2 255.1 310.3Q254.1 309.5 251.7 308.9L251.7 308.9L246.7 307.8Q237.6 305.8 237.6 298.9L237.6 298.9Q237.6 294.6 241.1 292.0Q244.6 289.4 250.3 289.4L250.3 289.4Q254.7 289.4 257.9 291.3Q261.1 293.1 261.9 295.9L261.9 295.9Q262.0 296.5 262.0 297.0L262.0 297.0Q262.0 298.1 261.3 298.9Q260.5 299.6 259.2 299.6L259.2 299.6Q257.4 299.6 256.4 298.2L256.4 298.2Q255.3 296.5 253.8 295.6Q252.3 294.7 250.1 294.7L250.1 294.7Q247.7 294.7 246.2 295.8Q244.7 296.8 244.7 298.5L244.7 298.5Q244.7 301.3 249.3 302.3L249.3 302.3L254.2 303.4Q259.2 304.5 261.3 306.4Q263.4 308.4 263.4 311.8L263.4 311.8Q263.4 316.3 259.8 319.0Q256.1 321.7 250.2 321.7Z "/><defs><clipPath id="satori_bc-id-0-1"><rect x="0" y="441" width="1200" height="189"/></clipPath></defs><mask id="satori_om-id-0-1"><rect x="0" y="442" width="1200" height="188" fill="#fff"/><path width="1200" height="189" fill="none" stroke="#000" stroke-width="2" d="M0,441 A0,0 0 0 1 0,441 h1200 A0,0 0 0 1 1200,441"/></mask><path width="1200" height="189" clip-path="url(#satori_bc-id-0-1)" fill="none" stroke="#dbdbdb" stroke-width="2" d="M0,441 A0,0 0 0 1 0,441 h1200 A0,0 0 0 1 1200,441"/><mask id="satori_om-id-0-1-0"><rect x="40" y="482" width="292" height="108" fill="#fff"/></mask><clipPath id="satori_cp-id-0-1-0-0"><rect x="40" y="504" width="64" height="64"/></clipPath><mask id="satori_om-id-0-1-0-0"><rect x="40" y="504" width="64" height="64" fill="#fff"/></mask><image x="40" y="504" width="64" height="64" href="data:image/svg+xml;utf8,%3Csvg  xmlns=%22http://www.w3.org/2000/svg%22 width=%2264%22 height=%2264%22 viewBox=%220 0 128 128%22%3E%3Cpath fill=%22%23224d67%22 d=%22M22.5 14.8c2.9 1.3 99 44 99 44c2.7 1.2 2.9 3.1 2 12.4c-1 10.5-1.9 37.8-40.2 42.9c-24.6 3.2-55.9-4.3-70.9-27.2C-6 58.8 11 23.4 14.8 17.7c2.4-3.5 4.8-4.2 7.7-2.9%22%3E%3C/path%3E%3Cpath fill=%22%23f0f4c3%22 d=%22M121.5 58.8c-.3-.2-92-40.8-98.9-43.9C9.6 31.5-3.8 76 27.9 96.2c33.6 21.5 78.7-10.2 93.6-37.4%22%3E%3C/path%3E%3Cpath fill=%22%23f0f4c3%22 d=%22M117.7 57c-.3-.2-86.7-38.4-93.2-41.3c-12.2 15.5-23.9 59.1 5.7 78c31.4 20.2 73.6-11.2 87.5-36.7%22%3E%3C/path%3E%3Cpath fill=%22%23cb2a42%22 d=%22M56.2 37.6L19.5 48.2c-2.5.8-4.4 2.8-5 5.3c-1.9 8.5.8 23.3 8.9 29.8c3.5 2.7 8.6 1.8 10.8-2.1L58.5 41c1.3-1.7.5-4.2-2.3-3.4m14.3 2.9s14.6 30.1 16 33s6.3 4.7 9.9 2.8c10.7-5.6 15.5-12.4 19.2-20.2c-8.9-3.9-42.4-18.8-42.4-18.8c-2.4-1.1-4 .6-2.7 3.2m-8.6 1.9C60.3 45.1 39.5 81 37.6 84.1c-1.9 3.2-.7 7.5 2.7 9.2c12.3 6.5 30.9.4 39.6-7c2.2-1.9 4.5-5.1 3.2-8.2S68.9 44.6 67.8 42.3c-1.2-2.7-4.1-2.8-5.9.1%22%3E%3C/path%3E%3Cpath fill=%22%23f0f4c3%22 d=%22M52.2 42.2c-1.4.4-10.1 3-11.1 3.4c-1.4.5-2.2 1.7-1.9 2.5c.3.9 1.7 1.1 3.1.6c.8-.3 7.1-3.9 9.5-5.2c-3.1 2.4-10.2 9.4-11.1 10.3c-1.4 1.5-1.7 3.4-.8 4.3c1 .9 2.9.5 4.3-1c1.2-1.3 8.5-12.8 9.1-13.9s.4-1.4-1.1-1m10.1 16.4c0-2.2 1.4-10.3 1.8-12.3c.4-1.6 1.5-1.8 1.8.5s1.7 9.7 1.7 11.8s-1.2 3.3-2.7 3.3c-1.4 0-2.6-1.1-2.6-3.3M79.9 49c-1.2-1.8-3.3-4.9-4.1-6.1c-.7-1.2.1-2.1 1.8-.9s4 2.9 5.4 4c1.6 1.3 1.9 3 .8 4s-2.7.8-3.9-1%22%3E%3C/path%3E%3Cellipse cx=%2287.3%22 cy=%22103.12%22 fill=%22%23cb2a42%22 rx=%223.4%22 ry=%222.3%22 transform=%22rotate(-27.098 87.298 103.126)%22%3E%3C/ellipse%3E%3Cellipse cx=%2298.89%22 cy=%22103.82%22 fill=%22%23cb2a42%22 rx=%223.4%22 ry=%222.3%22 transform=%22rotate(-30.642 98.887 103.818)%22%3E%3C/ellipse%3E%3Cellipse cx=%22102.02%22 cy=%2293.8%22 fill=%22%23cb2a42%22 rx=%223.4%22 ry=%222.3%22 transform=%22rotate(-37.16 102.017 93.797)%22%3E%3C/ellipse%3E%3Cpath fill=%22%23cb2a42%22 d=%22M57.6 30.3c-8.3-3.7-24.4-10.7-29.6-13c-3.6 2.2-9.7 11.4-11.2 21.2c-.6 3.6 1.7 5.9 5.3 4.9c0 0 33.7-9.3 35.3-9.7c1.6-.5 2-2.6.2-3.4%22%3E%3C/path%3E%3C/svg%3E" preserveAspectRatio="none" clip-path="url(#satori_cp-id-0-1-0-0)" mask="url(#satori_om-id-0-1-0-0)"/><mask id="satori_om-id-0-1-0-0-0"><rect x="40" y="504" width="0" height="64" fill="#fff"/></mask><mask id="satori_om-id-0-1-0-0-1"><rect x="40" y="504" width="0" height="64" fill="#fff"/></mask><mask id="satori_om-id-0-1-0-0-2"><rect x="40" y="504" width="0" height="64" fill="#fff"/></mask><mask id="satori_om-id-0-1-0-0-3"><rect x="40" y="504" width="0" height="64" fill="#fff"/></mask><mask id="satori_om-id-0-1-0-0-4"><rect x="40" y="504" width="0" height="64" fill="#fff"/></mask><mask id="satori_om-id-0-1-0-0-5"><rect x="40" y="504" width="0" height="64" fill="#fff"/></mask><mask id="satori_om-id-0-1-0-0-6"><rect x="40" y="504" width="0" height="64" fill="#fff"/></mask><mask id="satori_om-id-0-1-0-0-7"><rect x="40" y="504" width="0" height="64" fill="#fff"/></mask><mask id="satori_om-id-0-1-0-0-8"><rect x="40" y="504" width="0" height="64" fill="#fff"/></mask><mask id="satori_om-id-0-1-0-1"><rect x="116" y="512" width="216" height="48" fill="#fff"/></mask><path fill="#545454" d="M121.1 553.5L121.1 553.5Q119.4 553.5 118.4 552.6Q117.5 551.7 117.5 550.2L117.5 550.2Q117.5 549.3 117.9 547.9L117.9 547.9L127.2 522.8Q127.9 520.7 129.2 519.7Q130.5 518.8 132.5 518.8L132.5 518.8Q134.6 518.8 135.9 519.7Q137.2 520.7 137.9 522.8L137.9 522.8L147.2 547.9Q147.6 549.2 147.6 550.2L147.6 550.2Q147.6 551.6 146.6 552.6Q145.6 553.5 144.1 553.5L144.1 553.5Q142.6 553.5 141.7 552.8Q140.9 552.1 140.4 550.4L140.4 550.4L138.6 545.0L126.4 545.0L124.6 550.3Q124.2 552.0 123.3 552.8Q122.5 553.5 121.1 553.5ZM132.4 525.7L128.0 539.6L137 539.6L132.5 525.7L132.4 525.7ZM159.1 552.6Q158.2 553.6 156.6 553.6Q155.0 553.6 154.1 552.6Q153.2 551.7 153.2 550.0L153.2 550.0L153.2 533.1L151.9 533.1Q150.8 533.1 150.1 532.4Q149.4 531.7 149.4 530.6Q149.4 529.4 150.1 528.7Q150.8 528.1 151.9 528.1L151.9 528.1L153.2 528.1L153.2 526.2Q153.2 522.5 155.0 520.7Q156.7 519.0 160.3 518.9L160.3 518.9Q163.0 518.9 164.2 519.7Q165.5 520.4 165.5 521.7L165.5 521.7Q165.5 523.1 164.1 523.5L164.1 523.5Q163.5 523.7 162.8 523.7L162.8 523.7Q161.2 523.7 160.5 524.4Q159.9 525.1 159.9 526.5L159.9 526.5L159.9 528.1L162.7 528.1Q163.8 528.1 164.5 528.7Q165.2 529.4 165.2 530.6Q165.2 531.7 164.5 532.4Q163.8 533.1 162.7 533.1L162.7 533.1L160.0 533.1L160.0 550.0Q160.0 551.7 159.1 552.6ZM170.3 546.6L170.3 546.6L170.3 533.1L168.9 533.1Q167.7 533.1 167.0 532.4Q166.3 531.7 166.3 530.5Q166.3 529.3 167.0 528.6Q167.7 527.9 168.9 527.9L168.9 527.9L170.3 527.9L170.3 525.1Q170.3 523.5 171.2 522.5Q172.1 521.6 173.7 521.6Q175.3 521.6 176.2 522.5Q177.1 523.5 177.1 525.1L177.1 525.1L177.1 527.9L179.5 527.9Q180.7 527.9 181.4 528.6Q182.1 529.3 182.1 530.5Q182.1 531.7 181.4 532.4Q180.7 533.1 179.5 533.1L179.5 533.1L177.1 533.1L177.1 545.1Q177.1 546.5 177.6 547.1Q178.1 547.7 179.2 547.8L179.2 547.8L179.6 547.8Q180.9 548.0 181.6 548.5Q182.2 549.1 182.2 550.3L182.2 550.3Q182.2 551.8 180.9 552.6Q179.6 553.3 177.4 553.3L177.4 553.3L177.1 553.3Q170.3 553.3 170.3 546.6ZM197.0 553.6L197.0 553.6Q191.2 553.6 187.9 550.2Q184.6 546.7 184.6 540.6L184.6 540.6Q184.6 534.5 187.9 531.0Q191.1 527.4 196.7 527.4L196.7 527.4Q202.0 527.4 205.3 530.7Q208.6 533.9 208.6 539.1L208.6 539.1Q208.6 540.5 207.9 541.3Q207.1 542.1 205.6 542.1L205.6 542.1L191.3 542.1L191.3 542.4Q191.3 545.2 192.9 546.9Q194.4 548.5 197.0 548.5L197.0 548.5Q198.9 548.5 200.3 547.8Q201.6 547.2 203.0 545.5L203.0 545.5Q204.0 544.5 205.3 544.5L205.3 544.5Q206.4 544.5 207.2 545.2Q207.9 545.9 207.9 547.0L207.9 547.0Q207.9 547.8 207.5 548.7L207.5 548.7Q206.2 551 203.4 552.3Q200.7 553.6 197.0 553.6ZM191.4 537.9L191.4 537.9L202.0 537.9Q201.9 535.4 200.5 533.9Q199.0 532.5 196.8 532.5Q194.5 532.5 193.1 534.0Q191.6 535.5 191.4 537.9ZM215.6 553.6L215.6 553.6Q214.0 553.6 213.1 552.6Q212.1 551.7 212.1 550.0L212.1 550.0L212.1 530.9Q212.1 529.3 213.0 528.3Q213.9 527.4 215.4 527.4L215.4 527.4Q216.9 527.4 217.8 528.3Q218.7 529.3 218.7 530.9L218.7 530.9L218.7 532.5L218.8 532.5Q219.3 530.2 220.7 528.9Q222.1 527.5 224.0 527.5L224.0 527.5Q225.4 527.5 226.2 528.2L226.2 528.2Q227.2 528.9 227.2 530.7L227.2 530.7Q227.2 532.3 226.2 533.2L226.2 533.2Q225.2 534.0 223.2 534.1L223.2 534.1Q221.0 534.1 220.0 535.3Q219.0 536.5 219.0 538.8L219.0 538.8L219.0 550.0Q219.0 551.7 218.1 552.6Q217.2 553.6 215.6 553.6ZM242.6 553.6L242.6 553.6Q237.5 553.6 234.1 551.8Q230.8 550.0 229.7 547.1L229.7 547.1Q229.4 546.1 229.4 545.2L229.4 545.2Q229.4 543.8 230.2 543.0Q231.1 542.1 232.5 542.1L232.5 542.1Q233.6 542.1 234.3 542.6Q235.1 543.1 235.7 544.2L235.7 544.2Q236.5 546.1 238.4 547.0Q240.2 547.9 242.7 547.9L242.7 547.9Q245.6 547.9 247.3 546.7Q249.1 545.5 249.1 543.6L249.1 543.6Q249.1 541.9 247.8 540.9Q246.4 539.9 243.3 539.3L243.3 539.3L239.7 538.6Q229.6 536.6 229.6 528.9L229.6 528.9Q229.6 525.9 231.3 523.5Q232.9 521.2 235.9 519.9Q238.8 518.7 242.5 518.7L242.5 518.7Q247.2 518.7 250.5 520.5Q253.8 522.4 254.9 525.7L254.9 525.7Q255.1 526.4 255.1 527.2L255.1 527.2Q255.1 528.5 254.3 529.3Q253.5 530.1 252.1 530.1L252.1 530.1Q250.9 530.1 250.1 529.6Q249.4 529.1 248.8 528.0L248.8 528.0Q247.2 524.4 242.5 524.4L242.5 524.4Q239.9 524.4 238.3 525.5Q236.7 526.6 236.7 528.5L236.7 528.5Q236.7 530.1 238.1 531.1Q239.4 532.1 242.4 532.7L242.4 532.7L245.9 533.4Q251.3 534.5 253.7 536.7Q256.2 539.0 256.2 542.8L256.2 542.8Q256.2 547.8 252.5 550.7Q248.9 553.6 242.6 553.6ZM266.0 552.6Q265.0 553.6 263.5 553.6Q261.9 553.6 261.0 552.6Q260.1 551.7 260.1 550.0L260.1 550.0L260.1 522.2Q260.1 520.6 261.0 519.7Q261.9 518.7 263.4 518.7L263.4 518.7Q265.0 518.7 265.9 519.7Q266.8 520.6 266.8 522.2L266.8 522.2L266.8 532.4L266.9 532.4Q267.9 530.0 270.0 528.7Q272 527.5 274.8 527.5L274.8 527.5Q279.0 527.5 281.3 530.0Q283.6 532.5 283.6 536.9L283.6 536.9L283.6 550.0Q283.6 551.7 282.7 552.6Q281.7 553.6 280.2 553.6Q278.6 553.6 277.7 552.6Q276.8 551.7 276.8 550.0L276.8 550.0L276.8 538.3Q276.8 535.9 275.6 534.5Q274.3 533.1 272.0 533.1L272.0 533.1Q269.7 533.1 268.3 534.7Q266.9 536.2 266.9 538.7L266.9 538.7L266.9 550.0Q266.9 551.7 266.0 552.6ZM294.1 523.8Q293.0 524.8 291.5 524.8Q290.0 524.8 288.9 523.8Q287.8 522.8 287.8 521.3L287.8 521.3Q287.8 519.8 288.9 518.8Q290.0 517.7 291.5 517.7Q293.0 517.7 294.1 518.8Q295.2 519.8 295.2 521.3L295.2 521.3Q295.2 522.8 294.1 523.8ZM294.0 552.6Q293.1 553.6 291.5 553.6Q289.9 553.6 289.0 552.6Q288.1 551.7 288.1 550.0L288.1 550.0L288.1 531.0Q288.1 529.3 289.0 528.4Q289.9 527.4 291.5 527.4Q293.1 527.4 294.0 528.4Q294.9 529.3 294.9 531.0L294.9 531.0L294.9 550.0Q294.9 551.7 294.0 552.6ZM307.2 552.6Q306.3 553.6 304.7 553.6Q303.1 553.6 302.2 552.6Q301.3 551.7 301.3 550.0L301.3 550.0L301.3 533.1L300.0 533.1Q298.9 533.1 298.2 532.4Q297.5 531.7 297.5 530.6Q297.5 529.4 298.2 528.7Q298.9 528.1 300.0 528.1L300.0 528.1L301.3 528.1L301.3 526.2Q301.3 522.5 303.1 520.7Q304.9 519.0 308.5 518.9L308.5 518.9Q311.1 518.9 312.4 519.7Q313.6 520.4 313.6 521.7L313.6 521.7Q313.6 523.1 312.2 523.5L312.2 523.5Q311.6 523.7 310.9 523.7L310.9 523.7Q309.4 523.7 308.7 524.4Q308.0 525.1 308.0 526.5L308.0 526.5L308.0 528.1L310.9 528.1Q312.0 528.1 312.7 528.7Q313.4 529.4 313.4 530.6Q313.4 531.7 312.7 532.4Q312.0 533.1 310.9 533.1L310.9 533.1L308.1 533.1L308.1 550.0Q308.1 551.7 307.2 552.6ZM318.4 546.6L318.4 546.6L318.4 533.1L317.1 533.1Q315.9 533.1 315.1 532.4Q314.4 531.7 314.4 530.5Q314.4 529.3 315.1 528.6Q315.9 527.9 317.1 527.9L317.1 527.9L318.4 527.9L318.4 525.1Q318.4 523.5 319.3 522.5Q320.2 521.6 321.8 521.6Q323.4 521.6 324.3 522.5Q325.2 523.5 325.2 525.1L325.2 525.1L325.2 527.9L327.6 527.9Q328.9 527.9 329.6 528.6Q330.3 529.3 330.3 530.5Q330.3 531.7 329.6 532.4Q328.9 533.1 327.6 533.1L327.6 533.1L325.2 533.1L325.2 545.1Q325.2 546.5 325.7 547.1Q326.2 547.7 327.3 547.8L327.3 547.8L327.8 547.8Q329.1 548.0 329.7 548.5Q330.4 549.1 330.4 550.3L330.4 550.3Q330.4 551.8 329.0 552.6Q327.7 553.3 325.5 553.3L325.5 553.3L325.3 553.3Q318.4 553.3 318.4 546.6Z "/><mask id="satori_om-id-0-1-1"><rect x="924" y="524" width="236" height="36" fill="#fff"/></mask><path fill="#8e8e8e" d="M927.9 552.6Q927.5 552.9 927.0 552.9Q926.4 552.9 926.1 552.6Q925.8 552.2 925.8 551.7L925.8 551.7L925.8 532.6Q925.8 532.0 926.1 531.6Q926.5 531.3 927.1 531.3Q927.6 531.3 928.0 531.6Q928.3 532.0 928.3 532.6L928.3 532.6L928.3 540.0L928.4 540.0Q929.1 538.7 930.4 537.9Q931.7 537.2 933.3 537.2L933.3 537.2Q936.2 537.2 937.9 539.3Q939.7 541.5 939.7 545.0L939.7 545.0Q939.7 548.6 937.9 550.8Q936.2 552.9 933.2 552.9L933.2 552.9Q931.6 552.9 930.3 552.2Q929.0 551.4 928.3 550.1L928.3 550.1L928.2 550.1L928.2 551.7Q928.2 552.2 927.9 552.6ZM932.7 550.7L932.7 550.7Q934.8 550.7 935.9 549.2Q937.1 547.7 937.1 545.0L937.1 545.0Q937.1 542.5 935.9 540.9Q934.8 539.4 932.7 539.4L932.7 539.4Q930.8 539.4 929.6 541.0Q928.3 542.5 928.3 545.0L928.3 545.0Q928.3 547.6 929.6 549.1Q930.8 550.7 932.7 550.7ZM943.8 558.4L943.8 558.4Q942.9 558.4 942.4 558.0Q941.9 557.7 941.9 557.1L941.9 557.1Q941.9 556.7 942.1 556.4Q942.4 556.2 942.9 556.2L942.9 556.2Q943.1 556.2 943.3 556.2Q943.5 556.2 943.7 556.2L943.7 556.2Q945.4 556.2 946.2 553.7L946.2 553.7L946.6 552.7L941.3 539.0Q941.2 538.6 941.2 538.3L941.2 538.3Q941.2 537.8 941.6 537.5Q941.9 537.2 942.5 537.2L942.5 537.2Q943.4 537.2 943.7 538.1L943.7 538.1L947.9 550.1L948.0 550.1L952.2 538.1Q952.3 537.6 952.6 537.4Q952.9 537.2 953.4 537.2L953.4 537.2Q953.9 537.2 954.3 537.5Q954.6 537.8 954.6 538.3L954.6 538.3Q954.6 538.6 954.5 539.0L954.5 539.0L948.9 553.7Q947.9 556.4 946.8 557.4Q945.7 558.4 943.8 558.4Z M965.7 552.5Q965.3 552.9 964.7 552.9Q964.1 552.9 963.8 552.5Q963.4 552.1 963.4 551.5L963.4 551.5L963.4 532.9Q963.4 532.3 963.8 531.9Q964.1 531.5 964.7 531.5L964.7 531.5L970.9 531.5Q973.9 531.5 975.8 533.4Q977.7 535.3 977.7 538.3L977.7 538.3Q977.7 541.3 975.8 543.2Q973.9 545.1 970.9 545.1L970.9 545.1L966.0 545.1L966.0 551.5Q966.0 552.1 965.7 552.5ZM966.0 533.9L966.0 542.8L970.3 542.8Q972.5 542.8 973.8 541.6Q975.0 540.4 975.0 538.3Q975.0 536.2 973.8 535.0Q972.5 533.9 970.3 533.9L970.3 533.9L966.0 533.9ZM984.8 552.9L984.8 552.9Q982.5 552.9 981.1 551.7Q979.7 550.4 979.7 548.4L979.7 548.4Q979.7 546.4 981.2 545.2Q982.6 544.1 985.2 543.9L985.2 543.9L989.6 543.7L989.6 542.4Q989.6 541.0 988.7 540.2Q987.9 539.4 986.3 539.4L986.3 539.4Q985.0 539.4 984.1 539.9Q983.3 540.4 982.6 541.5L982.6 541.5Q982.3 542.1 981.6 542.1L981.6 542.1Q981.1 542.1 980.8 541.8Q980.5 541.5 980.5 541.0Q980.5 540.5 980.8 539.9L980.8 539.9Q981.4 538.7 982.9 537.9Q984.5 537.2 986.3 537.2L986.3 537.2Q989.0 537.2 990.6 538.5Q992.2 539.9 992.2 542.1L992.2 542.1L992.2 551.6Q992.2 552.2 991.8 552.6Q991.5 552.9 991.0 552.9L991.0 552.9Q990.4 552.9 990.1 552.6Q989.7 552.2 989.7 551.6L989.7 551.6L989.7 550.0L989.7 550.0Q989.0 551.3 987.7 552.1Q986.3 552.9 984.8 552.9ZM985.3 550.8L985.3 550.8Q987.1 550.8 988.4 549.6Q989.6 548.5 989.6 546.9L989.6 546.9L989.6 545.6L985.5 545.9Q984.0 546.0 983.1 546.6Q982.3 547.3 982.3 548.4Q982.3 549.4 983.1 550.1Q984.0 550.8 985.3 550.8ZM996.2 549.1L996.2 549.1L996.2 539.5L994.9 539.5Q994.4 539.5 994.1 539.3Q993.8 539.0 993.8 538.5L993.8 538.5Q993.8 538.0 994.1 537.7Q994.4 537.4 994.9 537.4L994.9 537.4L996.2 537.4L996.2 534.8Q996.2 534.2 996.6 533.8Q996.9 533.5 997.5 533.5Q998.0 533.5 998.4 533.8Q998.8 534.2 998.8 534.8L998.8 534.8L998.8 537.4L1000.7 537.4Q1001.3 537.4 1001.6 537.7Q1001.9 538.0 1001.9 538.5L1001.9 538.5Q1001.9 539.0 1001.6 539.3Q1001.3 539.5 1000.7 539.5L1000.7 539.5L998.8 539.5L998.8 548.6Q998.8 549.6 999.2 550.0Q999.6 550.5 1000.5 550.6L1000.5 550.6L1000.7 550.6Q1001.9 550.7 1001.9 551.6L1001.9 551.6Q1001.9 552.2 1001.5 552.5Q1001.1 552.8 1000.1 552.8L1000.1 552.8L999.9 552.8Q996.2 552.8 996.2 549.1ZM1006.6 552.5Q1006.3 552.9 1005.7 552.9Q1005.2 552.9 1004.8 552.5Q1004.4 552.2 1004.4 551.6L1004.4 551.6L1004.4 538.5Q1004.4 537.9 1004.8 537.5Q1005.1 537.2 1005.6 537.2Q1006.2 537.2 1006.5 537.5Q1006.8 537.9 1006.8 538.5L1006.8 538.5L1006.8 539.9L1006.9 539.9Q1007.2 538.7 1008.2 537.9Q1009.2 537.2 1010.4 537.2L1010.4 537.2Q1011.2 537.2 1011.6 537.5L1011.6 537.5Q1011.9 537.8 1011.9 538.4L1011.9 538.4Q1011.9 539.0 1011.5 539.3L1011.5 539.3Q1011.1 539.6 1010.3 539.6L1010.3 539.6Q1008.6 539.6 1007.8 540.6Q1007.0 541.6 1007.0 543.2L1007.0 543.2L1007.0 551.6Q1007.0 552.2 1006.6 552.5ZM1015.1 534.9L1015.1 534.9Q1014.4 534.9 1014.0 534.4Q1013.5 533.9 1013.5 533.3L1013.5 533.3Q1013.5 532.6 1014.0 532.2Q1014.4 531.7 1015.1 531.7L1015.1 531.7Q1015.7 531.7 1016.2 532.2Q1016.7 532.6 1016.7 533.3L1016.7 533.3Q1016.7 533.9 1016.2 534.4Q1015.7 534.9 1015.1 534.9ZM1016.0 552.5Q1015.6 552.9 1015.1 552.9Q1014.5 552.9 1014.2 552.5Q1013.8 552.2 1013.8 551.6L1013.8 551.6L1013.8 538.5Q1013.8 537.9 1014.2 537.5Q1014.5 537.2 1015.1 537.2Q1015.6 537.2 1016.0 537.5Q1016.4 537.9 1016.4 538.5L1016.4 538.5L1016.4 551.6Q1016.4 552.2 1016.0 552.5ZM1026.1 552.9L1026.1 552.9Q1022.9 552.9 1021.0 550.8Q1019.1 548.7 1019.1 545.1Q1019.1 541.5 1021.0 539.3Q1022.9 537.2 1026.1 537.2L1026.1 537.2Q1028.2 537.2 1029.9 538.2Q1031.6 539.3 1032.0 540.9L1032.0 540.9Q1032.1 541.2 1032.1 541.4L1032.1 541.4Q1032.1 542.0 1031.8 542.3Q1031.5 542.6 1031.0 542.6L1031.0 542.6Q1030.6 542.6 1030.3 542.4Q1030.1 542.2 1029.8 541.7L1029.8 541.7Q1028.6 539.4 1026.1 539.4L1026.1 539.4Q1024.1 539.4 1022.9 541.0Q1021.6 542.5 1021.6 545.0L1021.6 545.0Q1021.6 547.6 1022.9 549.2Q1024.1 550.7 1026.1 550.7L1026.1 550.7Q1027.4 550.7 1028.3 550.1Q1029.2 549.6 1029.8 548.4L1029.8 548.4Q1030.1 547.9 1030.3 547.7Q1030.6 547.5 1031.0 547.5L1031.0 547.5Q1031.5 547.5 1031.8 547.8Q1032.1 548.2 1032.1 548.7L1032.1 548.7Q1032.1 548.9 1032.0 549.3L1032.0 549.3Q1031.4 550.9 1029.8 551.9Q1028.2 552.9 1026.1 552.9ZM1041.2 552.9L1041.2 552.9Q1037.8 552.9 1036.0 550.9Q1034.1 548.8 1034.1 545.1L1034.1 545.1Q1034.1 541.5 1036.0 539.3Q1037.8 537.2 1041.0 537.2L1041.0 537.2Q1043.9 537.2 1045.8 539.1Q1047.6 541.1 1047.6 544.3L1047.6 544.3Q1047.6 544.9 1047.3 545.3Q1046.9 545.7 1046.2 545.7L1046.2 545.7L1036.7 545.7Q1036.7 548.0 1037.9 549.4Q1039.1 550.7 1041.1 550.7L1041.1 550.7Q1042.5 550.7 1043.4 550.2Q1044.3 549.6 1045.2 548.3L1045.2 548.3Q1045.6 547.8 1046.2 547.8L1046.2 547.8Q1046.7 547.8 1047.0 548.1Q1047.3 548.4 1047.3 548.9L1047.3 548.9Q1047.3 549.2 1047.1 549.7L1047.1 549.7Q1046.4 551.2 1044.8 552.1Q1043.3 552.9 1041.2 552.9ZM1036.7 543.7L1036.7 543.7L1045.0 543.7Q1045.0 541.8 1043.8 540.6Q1042.7 539.4 1041.0 539.4L1041.0 539.4Q1039.2 539.4 1038.0 540.6Q1036.8 541.8 1036.7 543.7Z M1059.0 552.5Q1058.7 552.9 1058.1 552.9Q1057.5 552.9 1057.1 552.5Q1056.7 552.1 1056.7 551.5L1056.7 551.5L1056.7 532.7Q1056.7 532.1 1057.1 531.7Q1057.5 531.3 1058.1 531.3Q1058.7 531.3 1059.0 531.7Q1059.4 532.1 1059.4 532.7L1059.4 532.7L1059.4 541.8L1059.5 541.8L1068.9 531.8Q1069.4 531.3 1070.0 531.3L1070.0 531.3Q1070.5 531.3 1070.9 531.7Q1071.2 532.0 1071.2 532.5L1071.2 532.5Q1071.2 533.0 1070.9 533.3L1070.9 533.3L1063.6 540.9L1071.7 550.6Q1072.1 551.1 1072.1 551.6L1072.1 551.6Q1072.1 552.2 1071.7 552.5Q1071.3 552.9 1070.8 552.9L1070.8 552.9Q1070.1 552.9 1069.6 552.2L1069.6 552.2L1061.7 542.8L1059.4 545.3L1059.4 551.5Q1059.4 552.1 1059.0 552.5ZM1081.2 552.9L1081.2 552.9Q1077.8 552.9 1075.9 550.9Q1074.1 548.8 1074.1 545.1L1074.1 545.1Q1074.1 541.5 1075.9 539.3Q1077.8 537.2 1081.0 537.2L1081.0 537.2Q1083.9 537.2 1085.8 539.1Q1087.6 541.1 1087.6 544.3L1087.6 544.3Q1087.6 544.9 1087.2 545.3Q1086.9 545.7 1086.2 545.7L1086.2 545.7L1076.7 545.7Q1076.7 548.0 1077.9 549.4Q1079.1 550.7 1081.1 550.7L1081.1 550.7Q1082.5 550.7 1083.4 550.2Q1084.3 549.6 1085.2 548.3L1085.2 548.3Q1085.6 547.8 1086.2 547.8L1086.2 547.8Q1086.7 547.8 1087.0 548.1Q1087.3 548.4 1087.3 548.9L1087.3 548.9Q1087.3 549.2 1087.1 549.7L1087.1 549.7Q1086.4 551.2 1084.8 552.1Q1083.3 552.9 1081.2 552.9ZM1076.7 543.7L1076.7 543.7L1085.0 543.7Q1084.9 541.8 1083.8 540.6Q1082.7 539.4 1080.9 539.4L1080.9 539.4Q1079.1 539.4 1078.0 540.6Q1076.8 541.8 1076.7 543.7ZM1092.4 552.5Q1092.0 552.9 1091.4 552.9Q1090.9 552.9 1090.5 552.5Q1090.2 552.2 1090.2 551.6L1090.2 551.6L1090.2 538.5Q1090.2 537.9 1090.5 537.5Q1090.8 537.2 1091.4 537.2Q1091.9 537.2 1092.2 537.5Q1092.6 537.9 1092.6 538.5L1092.6 538.5L1092.6 539.9L1092.6 539.9Q1093.3 538.6 1094.5 537.9Q1095.8 537.2 1097.5 537.2L1097.5 537.2Q1100.0 537.2 1101.3 538.7Q1102.7 540.2 1102.7 542.8L1102.7 542.8L1102.7 551.6Q1102.7 552.2 1102.4 552.5Q1102.0 552.9 1101.5 552.9Q1100.9 552.9 1100.6 552.5Q1100.2 552.2 1100.2 551.6L1100.2 551.6L1100.2 543.2Q1100.2 541.4 1099.3 540.4Q1098.4 539.4 1096.7 539.4L1096.7 539.4Q1094.9 539.4 1093.8 540.6Q1092.7 541.8 1092.7 543.7L1092.7 543.7L1092.7 551.6Q1092.7 552.2 1092.4 552.5ZM1108.2 552.5Q1107.8 552.9 1107.3 552.9Q1106.7 552.9 1106.3 552.5Q1106.0 552.2 1106.0 551.6L1106.0 551.6L1106.0 538.5Q1106.0 537.9 1106.3 537.5Q1106.7 537.2 1107.2 537.2Q1107.7 537.2 1108.0 537.5Q1108.4 537.9 1108.4 538.5L1108.4 538.5L1108.4 539.9L1108.4 539.9Q1109.0 538.6 1110.1 537.9Q1111.3 537.2 1112.8 537.2L1112.8 537.2Q1114.3 537.2 1115.4 537.9Q1116.5 538.7 1117.0 540.1L1117.0 540.1L1117.1 540.1Q1117.7 538.7 1119.0 537.9Q1120.3 537.2 1121.9 537.2L1121.9 537.2Q1124.1 537.2 1125.5 538.5Q1126.8 539.9 1126.8 542.1L1126.8 542.1L1126.8 551.6Q1126.8 552.2 1126.5 552.5Q1126.1 552.9 1125.6 552.9Q1125.0 552.9 1124.6 552.5Q1124.3 552.2 1124.3 551.6L1124.3 551.6L1124.3 542.7Q1124.3 541.2 1123.5 540.3Q1122.6 539.4 1121.1 539.4Q1119.6 539.4 1118.6 540.4Q1117.7 541.4 1117.7 543.0L1117.7 543.0L1117.7 551.6Q1117.7 552.2 1117.3 552.5Q1117.0 552.9 1116.4 552.9Q1115.8 552.9 1115.5 552.5Q1115.1 552.2 1115.1 551.6L1115.1 551.6L1115.1 542.5Q1115.1 541.1 1114.3 540.2Q1113.4 539.4 1112.0 539.4L1112.0 539.4Q1110.5 539.4 1109.5 540.5Q1108.5 541.5 1108.5 543.1L1108.5 543.1L1108.5 551.6Q1108.5 552.2 1108.2 552.5ZM1136.4 552.9L1136.4 552.9Q1133.2 552.9 1131.3 550.8Q1129.3 548.7 1129.3 545.0Q1129.3 541.4 1131.3 539.3Q1133.2 537.2 1136.4 537.2L1136.4 537.2Q1139.6 537.2 1141.5 539.3Q1143.4 541.4 1143.4 545.0L1143.4 545.0Q1143.4 548.7 1141.5 550.8Q1139.6 552.9 1136.4 552.9ZM1133.1 549.2Q1134.3 550.7 1136.4 550.7Q1138.4 550.7 1139.6 549.2Q1140.8 547.7 1140.8 545.0Q1140.8 542.4 1139.6 540.9Q1138.4 539.4 1136.4 539.4Q1134.3 539.4 1133.1 540.9Q1131.9 542.4 1131.9 545.0Q1131.9 547.7 1133.1 549.2ZM1152.5 535.6L1152.5 535.6Q1152.1 535.6 1151.9 535.4Q1151.6 535.2 1151.6 534.8Q1151.6 534.5 1151.8 534.2L1151.8 534.2L1154.0 531.1Q1154.3 530.6 1154.6 530.5Q1154.8 530.3 1155.1 530.3L1155.1 530.3Q1155.6 530.3 1155.9 530.6Q1156.2 530.9 1156.2 531.3L1156.2 531.3Q1156.2 531.7 1155.9 532.1L1155.9 532.1L1153.4 535.1Q1153.0 535.6 1152.5 535.6ZM1152.4 552.9L1152.4 552.9Q1149.0 552.9 1147.1 550.9Q1145.3 548.8 1145.3 545.1L1145.3 545.1Q1145.3 541.5 1147.1 539.3Q1149.0 537.2 1152.2 537.2L1152.2 537.2Q1155.1 537.2 1156.9 539.1Q1158.8 541.1 1158.8 544.3L1158.8 544.3Q1158.8 544.9 1158.4 545.3Q1158.1 545.7 1157.4 545.7L1157.4 545.7L1147.9 545.7Q1147.9 548.0 1149.1 549.4Q1150.2 550.7 1152.3 550.7L1152.3 550.7Q1153.6 550.7 1154.6 550.2Q1155.5 549.6 1156.4 548.3L1156.4 548.3Q1156.8 547.8 1157.3 547.8L1157.3 547.8Q1157.9 547.8 1158.2 548.1Q1158.5 548.4 1158.5 548.9L1158.5 548.9Q1158.5 549.2 1158.3 549.7L1158.3 549.7Q1157.6 551.2 1156.0 552.1Q1154.5 552.9 1152.4 552.9ZM1147.9 543.7L1147.9 543.7L1156.2 543.7Q1156.1 541.8 1155.0 540.6Q1153.9 539.4 1152.1 539.4L1152.1 539.4Q1150.3 539.4 1149.2 540.6Q1148.0 541.8 1147.9 543.7Z "/></svg>