<svg width="1200" height="630" viewBox="0 0 1200 630" xmlns="http://www.w3.org/2000/svg"><mask id="satori_om-id"><rect x="0" y="0" width="1200" height="630" fill="#fff"/></mask><mask id="satori_om-id-0"><rect x="0" y="0" width="1200" height="630" fill="#fff"/></mask><rect x="0" y="0" width="1200" height="630" fill="#f2f2f2"/><mask id="satori_om-id-0-0"><rect x="0" y="0" width="1200" height="441" fill="#fff"/></mask><mask id="satori_om-id-0-0-0"><rect x="40" y="95" width="1120" height="36" fill="#fff"/></mask><path fill="#8e8e8e" d="M50.0 123.4Q49.6 123.9 48.8 123.9Q48.1 123.9 47.6 123.4Q47.2 123.0 47.2 122.2L47.2 122.2L47.2 105.4L42.0 105.4Q41.3 105.4 40.9 105.0Q40.5 104.6 40.5 103.9Q40.5 103.3 40.9 102.9Q41.3 102.5 42.0 102.5L42.0 102.5L55.6 102.5Q56.3 102.5 56.8 102.9Q57.2 103.3 57.2 103.9Q57.2 104.6 56.8 105.0Q56.3 105.4 55.6 105.4L55.6 105.4L50.5 105.4L50.5 122.2Q50.5 123.0 50.0 123.4ZM62.1 123.5Q61.6 123.9 60.9 123.9Q60.2 123.9 59.8 123.5Q59.3 123.0 59.3 122.3L59.3 122.3L59.3 103.9Q59.3 103.1 59.8 102.7Q60.2 102.2 60.9 102.2L60.9 102.2Q61.6 102.2 62.1 102.7Q62.5 103.1 62.5 103.9L62.5 103.9L62.5 110.8L62.5 110.8Q63.2 109.5 64.4 108.7Q65.7 108.0 67.4 108.0L67.4 108.0Q69.9 108.0 71.4 109.5Q72.8 111.1 72.8 113.7L72.8 113.7L72.8 122.3Q72.8 123.0 72.4 123.5Q71.9 123.9 71.2 123.9L71.2 123.9Q70.5 123.9 70.1 123.5Q69.6 123.0 69.6 122.3L69.6 122.3L69.6 114.3Q69.6 112.6 68.8 111.7Q67.9 110.7 66.3 110.7L66.3 110.7Q64.5 110.7 63.5 111.8Q62.5 112.9 62.5 114.8L62.5 114.8L62.5 122.3Q62.5 123.0 62.1 123.5ZM81.2 123.9L81.2 123.9Q78.7 123.9 77.2 122.4Q75.8 120.9 75.8 118.2L75.8 118.2L75.8 109.7Q75.8 108.9 76.2 108.4Q76.7 108.0 77.4 108.0L77.4 108.0Q78.1 108.0 78.5 108.4Q79.0 108.9 79.0 109.7L79.0 109.7L79.0 117.6Q79.0 119.4 79.8 120.3Q80.6 121.2 82.3 121.2L82.3 121.2Q84.0 121.2 84.9 120.1Q85.9 119.0 85.9 117.2L85.9 117.2L85.9 109.7Q85.9 108.9 86.4 108.4Q86.8 108.0 87.5 108.0L87.5 108.0Q88.2 108.0 88.7 108.4Q89.1 108.9 89.1 109.7L89.1 109.7L89.1 122.3Q89.1 123.1 88.7 123.5Q88.3 123.9 87.6 123.9Q86.9 123.9 86.5 123.5Q86.1 123.1 86.1 122.3L86.1 122.3L86.1 121.1L86.0 121.1Q84.6 123.9 81.2 123.9ZM93.8 123.9L93.8 123.9Q93.1 123.9 92.6 123.5Q92.2 123.0 92.2 122.3L92.2 122.3L92.2 109.6Q92.2 108.9 92.6 108.4Q93.0 108.0 93.7 108.0L93.7 108.0Q94.4 108.0 94.8 108.4Q95.2 108.9 95.2 109.6L95.2 109.6L95.2 110.9L95.3 110.9Q95.6 109.6 96.6 108.8Q97.5 108.0 98.7 108.0L98.7 108.0Q99.5 108.0 99.9 108.4L99.9 108.4Q100.3 108.7 100.3 109.5L100.3 109.5Q100.3 110.2 99.9 110.6L99.9 110.6Q99.4 111.0 98.4 111.0L98.4 111.0Q96.9 111.0 96.1 112.0Q95.4 112.9 95.4 114.4L95.4 114.4L95.4 122.3Q95.4 123.0 94.9 123.5Q94.5 123.9 93.8 123.9ZM107.7 124.0L107.7 124.0Q105.5 124.0 103.9 123.1Q102.3 122.3 101.7 120.8L101.7 120.8Q101.6 120.5 101.6 120.2L101.6 120.2Q101.6 119.6 102.0 119.2Q102.4 118.9 103.0 118.9L103.0 118.9Q103.8 118.9 104.4 119.7L104.4 119.7Q105.0 120.7 105.8 121.1Q106.5 121.5 107.9 121.5L107.9 121.5Q109.3 121.5 110.1 121.0Q110.9 120.4 110.9 119.5L110.9 119.5Q110.9 118.7 110.4 118.3Q109.9 117.8 108.7 117.5L108.7 117.5L106.2 117.0Q101.8 115.9 101.8 112.6L101.8 112.6Q101.8 110.5 103.4 109.2Q105.1 108.0 107.9 108.0L107.9 108.0Q109.9 108.0 111.5 108.9Q113.0 109.8 113.4 111.2L113.4 111.2Q113.4 111.6 113.4 111.7L113.4 111.7Q113.4 112.2 113.1 112.5Q112.8 112.9 112.2 112.9L112.2 112.9Q111.3 112.9 110.9 112.2L110.9 112.2Q110.4 111.3 109.6 110.8Q108.9 110.4 107.7 110.4L107.7 110.4Q106.5 110.4 105.7 111.0Q104.9 111.5 104.9 112.4L104.9 112.4Q104.9 113.9 107.2 114.5L107.2 114.5L109.6 115.0Q112.1 115.6 113.1 116.5Q114.1 117.5 114.1 119.2L114.1 119.2Q114.1 121.3 112.3 122.6Q110.6 124.0 107.7 124.0ZM122.3 123.9L122.3 123.9Q119.4 123.9 117.6 121.8Q115.9 119.6 115.9 116.0Q115.9 112.3 117.6 110.2Q119.4 108.0 122.3 108.0L122.3 108.0Q123.9 108.0 125.2 108.8Q126.5 109.5 127.1 110.8L127.1 110.8L127.2 110.8L127.2 103.9Q127.2 103.1 127.6 102.7Q128.1 102.2 128.8 102.2L128.8 102.2Q129.5 102.2 129.9 102.7Q130.4 103.2 130.4 103.9L130.4 103.9L130.4 122.4Q130.4 123.1 129.9 123.5Q129.5 123.9 128.8 123.9L128.8 123.9Q128.1 123.9 127.7 123.5Q127.2 123.1 127.2 122.4L127.2 122.4L127.2 120.9L127.2 120.9Q126.5 122.3 125.3 123.1Q124.1 123.9 122.3 123.9ZM123.2 121.2L123.2 121.2Q125.0 121.2 126.1 119.8Q127.2 118.4 127.2 116.0L127.2 116.0Q127.2 113.6 126.1 112.1Q125.0 110.7 123.2 110.7L123.2 110.7Q121.3 110.7 120.2 112.1Q119.1 113.5 119.1 116.0L119.1 116.0Q119.1 118.4 120.2 119.8Q121.3 121.2 123.2 121.2ZM138.1 123.9L138.1 123.9Q135.9 123.9 134.4 122.6Q133.0 121.3 133.0 119.3L133.0 119.3Q133.0 117.3 134.5 116.1Q136.0 114.9 138.7 114.7L138.7 114.7L142.9 114.5L142.9 113.3Q142.9 112.0 142.1 111.3Q141.3 110.6 139.9 110.6L139.9 110.6Q138.7 110.6 137.9 111.0Q137.1 111.5 136.4 112.5L136.4 112.5Q136.0 113.2 135.2 113.2L135.2 113.2Q134.6 113.2 134.2 112.8Q133.8 112.4 133.8 111.9L133.8 111.9Q133.8 111.3 134.1 110.8L134.1 110.8Q134.7 109.5 136.3 108.8Q137.9 108.0 140.0 108.0L140.0 108.0Q142.8 108.0 144.4 109.4Q146.1 110.7 146.1 113.0L146.1 113.0L146.1 122.3Q146.1 123.1 145.7 123.5Q145.2 123.9 144.6 123.9L144.6 123.9Q143.9 123.9 143.5 123.5Q143.1 123.1 143.1 122.4L143.1 122.4L143.1 121.1L143.0 121.1Q142.3 122.4 141.0 123.2Q139.7 123.9 138.1 123.9ZM139.0 121.4L139.0 121.4Q140.7 121.4 141.8 120.4Q142.9 119.4 142.9 117.9L142.9 117.9L142.9 116.7L139.1 116.9Q137.7 117.0 137.0 117.6Q136.2 118.2 136.2 119.2L136.2 119.2Q136.2 120.2 137.0 120.8Q137.7 121.4 139.0 121.4ZM151.1 129.4L151.1 129.4Q150.0 129.4 149.4 129.0Q148.8 128.6 148.8 127.9L148.8 127.9Q148.8 127.4 149.1 127.1Q149.5 126.8 150.0 126.8L150.0 126.8Q150.2 126.8 150.4 126.8Q150.7 126.8 150.8 126.8L150.8 126.8Q152.4 126.8 153.2 124.7L153.2 124.7L153.5 123.8L148.3 110.3Q148.1 109.9 148.1 109.4L148.1 109.4Q148.1 108.8 148.6 108.4Q149.1 108.0 149.8 108.0L149.8 108.0Q150.4 108.0 150.7 108.3Q151.1 108.5 151.3 109.2L151.3 109.2L155.2 120.8L155.3 120.8L159.2 109.2Q159.4 108.5 159.7 108.3Q160.1 108.0 160.7 108.0L160.7 108.0Q161.4 108.0 161.8 108.4Q162.2 108.8 162.2 109.4L162.2 109.4Q162.2 109.8 162.1 110.3L162.1 110.3L156.7 124.4Q155.7 127.2 154.5 128.3Q153.2 129.4 151.1 129.4ZM166.7 120.1L166.7 120.1Q167.4 120.1 167.8 120.5Q168.2 120.8 168.2 121.4L168.2 121.4Q168.2 121.8 168.1 122.3L168.1 122.3L166.8 127.3Q166.5 128.4 165.4 128.4L165.4 128.4Q164.9 128.4 164.5 128.1Q164.2 127.7 164.2 127.2L164.2 127.2Q164.2 127.1 164.3 126.8L164.3 126.8L165.2 121.4Q165.4 120.1 166.7 120.1Z M186.0 124.1L186.0 124.1Q182.5 124.1 180.3 122.3Q178.0 120.6 178.0 118.0L178.0 118.0Q178.0 115.9 179.3 114.5Q180.6 113.0 182.7 112.5L182.7 112.5L182.7 112.5Q180.9 111.9 179.8 110.7Q178.8 109.4 178.8 107.7L178.8 107.7Q178.8 105.3 180.8 103.7Q182.9 102.1 186.0 102.1L186.0 102.1Q189.2 102.1 191.2 103.7Q193.2 105.3 193.2 107.8L193.2 107.8Q193.2 109.4 192.2 110.7Q191.1 111.9 189.3 112.5L189.3 112.5L189.3 112.5Q191.4 113 192.7 114.5Q194.0 116.0 194.0 118.0L194.0 118.0Q194.0 119.7 193.0 121.1Q192.0 122.5 190.2 123.3Q188.3 124.1 186.0 124.1ZM186.0 111.4L186.0 111.4Q187.8 111.4 188.9 110.4Q190.0 109.5 190.0 108.0L190.0 108.0Q190.0 106.6 188.9 105.7Q187.8 104.7 186.0 104.7L186.0 104.7Q184.3 104.7 183.2 105.7Q182.0 106.6 182.0 108.0L182.0 108.0Q182.0 109.5 183.2 110.4Q184.3 111.4 186.0 111.4ZM182.7 120.4Q184.0 121.4 186.0 121.4Q188.0 121.4 189.3 120.4Q190.6 119.3 190.6 117.7L190.6 117.7Q190.6 116.1 189.3 115.0Q188.0 114.0 186.0 114.0Q184.0 114.0 182.7 115.0Q181.4 116.1 181.4 117.7L181.4 117.7Q181.4 119.3 182.7 120.4Z M205.9 123.5Q205.5 123.9 204.8 123.9Q204.1 123.9 203.7 123.5Q203.3 123.1 203.3 122.3L203.3 122.3L203.3 104.4Q203.3 103.4 203.9 102.9Q204.4 102.3 205.4 102.3L205.4 102.3Q206.3 102.3 206.8 102.7Q207.3 103.1 207.7 104.0L207.7 104.0L214.0 119.2L214.1 119.2L220.3 104.0Q220.7 103.1 221.2 102.7Q221.8 102.3 222.6 102.3L222.6 102.3Q223.6 102.3 224.1 102.8Q224.7 103.4 224.7 104.4L224.7 104.4L224.7 122.3Q224.7 123.1 224.3 123.5Q223.9 123.9 223.2 123.9L223.2 123.9Q222.5 123.9 222.1 123.5Q221.7 123.1 221.7 122.3L221.7 122.3L221.7 108.1L221.6 108.1L215.7 122.3Q215.2 123.5 214.0 123.5L214.0 123.5Q212.8 123.5 212.3 122.3L212.3 122.3L206.4 108.1L206.3 108.1L206.3 122.3Q206.3 123.1 205.9 123.5ZM232.7 123.9L232.7 123.9Q230.5 123.9 229.0 122.6Q227.6 121.3 227.6 119.3L227.6 119.3Q227.6 117.3 229.1 116.1Q230.6 114.9 233.3 114.7L233.3 114.7L237.5 114.5L237.5 113.3Q237.5 112.0 236.7 111.3Q235.9 110.6 234.5 110.6L234.5 110.6Q233.3 110.6 232.5 111.0Q231.7 111.5 231.0 112.5L231.0 112.5Q230.6 113.2 229.8 113.2L229.8 113.2Q229.2 113.2 228.8 112.8Q228.4 112.4 228.4 111.9L228.4 111.9Q228.4 111.3 228.7 110.8L228.7 110.8Q229.3 109.5 230.9 108.8Q232.5 108.0 234.6 108.0L234.6 108.0Q237.4 108.0 239.0 109.4Q240.7 110.7 240.7 113.0L240.7 113.0L240.7 122.3Q240.7 123.1 240.3 123.5Q239.8 123.9 239.2 123.9L239.2 123.9Q238.5 123.9 238.1 123.5Q237.7 123.1 237.7 122.4L237.7 122.4L237.7 121.1L237.6 121.1Q236.9 122.4 235.6 123.2Q234.3 123.9 232.7 123.9ZM233.6 121.4L233.6 121.4Q235.3 121.4 236.4 120.4Q237.5 119.4 237.5 117.9L237.5 117.9L237.5 116.7L233.7 116.9Q232.3 117.0 231.6 117.6Q230.8 118.2 230.8 119.2L230.8 119.2Q230.8 120.2 231.6 120.8Q232.3 121.4 233.6 121.4ZM245.7 129.4L245.7 129.4Q244.6 129.4 244.0 129.0Q243.4 128.6 243.4 127.9L243.4 127.9Q243.4 127.4 243.7 127.1Q244.1 126.8 244.6 126.8L244.6 126.8Q244.8 126.8 245.0 126.8Q245.3 126.8 245.4 126.8L245.4 126.8Q247.0 126.8 247.8 124.7L247.8 124.7L248.1 123.8L242.9 110.3Q242.7 109.9 242.7 109.4L242.7 109.4Q242.7 108.8 243.2 108.4Q243.7 108.0 244.4 108.0L244.4 108.0Q245.0 108.0 245.3 108.3Q245.7 108.5 245.9 109.2L245.9 109.2L249.8 120.8L249.9 120.8L253.8 109.2Q254.0 108.5 254.3 108.3Q254.7 108.0 255.3 108.0L255.3 108.0Q256.0 108.0 256.4 108.4Q256.8 108.8 256.8 109.4L256.8 109.4Q256.8 109.8 256.7 110.3L256.7 110.3L251.3 124.4Q250.3 127.2 249.1 128.3Q247.8 129.4 245.7 129.4Z M278.3 123.7L266.6 123.7Q265.9 123.7 265.5 123.3Q265.0 122.9 265.0 122.3L265.0 122.3Q265.0 121.8 265.2 121.5Q265.4 121.1 266.0 120.6L266.0 120.6L272.6 113.9Q274.6 111.8 275.3 110.7Q276.0 109.6 276.0 108.3L276.0 108.3Q276.0 106.8 274.9 105.8Q273.9 104.8 272.3 104.8L272.3 104.8Q269.2 104.8 268.1 108.0L268.1 108.0Q267.8 108.5 267.5 108.8Q267.2 109.0 266.6 109.0L266.6 109.0Q265.9 109.0 265.5 108.6Q265.1 108.3 265.1 107.6L265.1 107.6Q265.1 107.3 265.2 107.0L265.2 107.0Q265.4 106.1 265.9 105.3Q266.5 104.4 267.4 103.7Q268.2 103.0 269.5 102.6Q270.8 102.1 272.3 102.1L272.3 102.1Q275.4 102.1 277.3 103.8Q279.2 105.5 279.2 108.1L279.2 108.1Q279.2 109.9 278.2 111.5Q277.3 113.0 274.5 115.8L274.5 115.8L269.5 120.8L269.5 120.9L278.3 120.9Q278.9 120.9 279.3 121.3Q279.7 121.7 279.7 122.3L279.7 122.3Q279.7 122.9 279.3 123.3Q278.9 123.7 278.3 123.7L278.3 123.7ZM296.1 121.1Q294.0 124.1 290.2 124.1Q286.4 124.1 284.3 121.1Q282.1 118.2 282.1 113.1L282.1 113.1Q282.1 108.0 284.3 105.1Q286.4 102.1 290.2 102.1L290.2 102.1Q294.0 102.1 296.1 105.1Q298.3 108.0 298.3 113.1L298.3 113.1Q298.3 118.1 296.1 121.1ZM290.2 121.3L290.2 121.3Q292.5 121.3 293.7 119.1Q295.0 116.9 295.0 113.1L295.0 113.1Q295.0 109.3 293.7 107.1Q292.5 104.9 290.2 104.9Q288.0 104.9 286.7 107.1Q285.4 109.3 285.4 113.1L285.4 113.1Q285.4 116.9 286.7 119.1Q287.9 121.3 290.2 121.3ZM314.4 123.7L302.7 123.7Q302.0 123.7 301.5 123.3Q301.1 122.9 301.1 122.3L301.1 122.3Q301.1 121.8 301.3 121.5Q301.5 121.1 302.0 120.6L302.0 120.6L308.7 113.9Q310.7 111.8 311.4 110.7Q312.1 109.6 312.1 108.3L312.1 108.3Q312.1 106.8 311.0 105.8Q310 104.8 308.4 104.8L308.4 104.8Q305.3 104.8 304.2 108.0L304.2 108.0Q303.9 108.5 303.6 108.8Q303.2 109.0 302.7 109.0L302.7 109.0Q302.0 109.0 301.6 108.6Q301.2 108.3 301.2 107.6L301.2 107.6Q301.2 107.3 301.3 107.0L301.3 107.0Q301.5 106.1 302.0 105.3Q302.6 104.4 303.5 103.7Q304.3 103.0 305.6 102.6Q306.9 102.1 308.4 102.1L308.4 102.1Q311.5 102.1 313.4 103.8Q315.3 105.5 315.3 108.1L315.3 108.1Q315.3 109.9 314.3 111.5Q313.4 113.0 310.6 115.8L310.6 115.8L305.6 120.8L305.6 120.9L314.4 120.9Q315.0 120.9 315.4 121.3Q315.8 121.7 315.8 122.3L315.8 122.3Q315.8 122.9 315.4 123.3Q315.0 123.7 314.4 123.7L314.4 123.7ZM326.1 124.1L326.1 124.1Q323.8 124.1 321.9 123.0Q320.0 121.9 319.2 120.2L319.2 120.2Q318.9 119.5 318.9 118.8L318.9 118.8Q318.9 118.1 319.3 117.7Q319.7 117.3 320.3 117.3L320.3 117.3Q320.9 117.3 321.2 117.6Q321.6 117.8 321.8 118.4L321.8 118.4Q322.3 119.8 323.5 120.5Q324.6 121.3 326.2 121.3L326.2 121.3Q328.2 121.3 329.4 120.0Q330.7 118.8 330.7 116.8L330.7 116.8Q330.7 114.8 329.4 113.6Q328.1 112.4 326.2 112.4L326.2 112.4Q324.1 112.4 322.7 113.7L322.7 113.7Q322.0 114.5 321.7 114.6Q321.3 114.8 320.7 114.8L320.7 114.8Q320.0 114.8 319.6 114.4Q319.1 113.9 319.2 113.2L319.2 113.2L319.2 112.9L319.9 104.8Q320.0 103.6 320.6 103.0Q321.2 102.5 322.4 102.5L322.4 102.5L331.4 102.5Q332.0 102.5 332.4 102.9Q332.8 103.3 332.8 103.9Q332.8 104.5 332.4 104.9Q332.0 105.3 331.4 105.3L331.4 105.3L322.7 105.3L322.1 111.9L322.2 111.9Q322.9 110.9 324.1 110.3Q325.4 109.8 326.9 109.8L326.9 109.8Q330.0 109.8 331.9 111.7Q333.9 113.6 333.9 116.7L333.9 116.7Q333.9 120.0 331.7 122.0Q329.6 124.1 326.1 124.1Z "/><mask id="satori_om-id-0-0-1"><rect x="40" y="176" width="1120" height="165" fill="#fff"/></mask><path fill="#224d67" d="M62.0 239.3L62.0 239.3Q52.9 239.3 47.6 233.4Q42.3 227.6 42.3 217.4L42.3 217.4Q42.3 207.3 47.6 201.5Q52.9 195.6 61.9 195.6L61.9 195.6Q67.7 195.6 72.2 198.2Q76.6 200.8 78.7 205.4L78.7 205.4Q79.4 206.9 79.4 208.3L79.4 208.3Q79.4 209.8 78.5 210.7Q77.6 211.6 76.0 211.6L76.0 211.6Q73.5 211.6 72.3 208.9L72.3 208.9Q70.9 205.6 68.2 203.8Q65.4 202.0 61.9 202.0L61.9 202.0Q56.5 202.0 53.3 206.2Q50.0 210.4 50.0 217.4L50.0 217.4Q50.0 224.5 53.2 228.7Q56.5 232.9 62.0 232.9L62.0 232.9Q69.6 232.9 72.5 226.3L72.5 226.3Q73.0 225.0 73.8 224.4Q74.6 223.9 75.8 223.9L75.8 223.9Q77.4 223.9 78.4 224.8Q79.3 225.7 79.3 227.2L79.3 227.2Q79.3 228.6 78.6 230.1L78.6 230.1Q76.6 234.4 72.3 236.8Q67.9 239.3 62.0 239.3ZM91.7 238.2Q90.7 239.2 89.0 239.2Q87.4 239.2 86.4 238.2Q85.4 237.1 85.4 235.3L85.4 235.3L85.4 199.5Q85.4 197.7 86.3 196.7Q87.3 195.7 89.0 195.7L89.0 195.7Q90.7 195.7 91.6 196.7Q92.6 197.7 92.6 199.5L92.6 199.5L92.6 212.9L92.7 212.9Q94.0 210.0 96.5 208.5Q99.0 206.9 102.5 206.9L102.5 206.9Q107.6 206.9 110.5 210.1Q113.4 213.2 113.4 218.6L113.4 218.6L113.4 235.3Q113.4 237.1 112.4 238.2Q111.4 239.2 109.7 239.2Q108.1 239.2 107.1 238.2Q106.1 237.1 106.1 235.3L106.1 235.3L106.1 220.1Q106.1 216.8 104.5 214.9Q102.8 213.1 99.7 213.1L99.7 213.1Q96.4 213.1 94.5 215.2Q92.6 217.3 92.6 220.7L92.6 220.7L92.6 235.3Q92.6 237.1 91.7 238.2ZM133.0 239.2L133.0 239.2Q125.9 239.2 121.9 235.0Q117.9 230.7 117.9 223.2L117.9 223.2Q117.9 215.7 121.9 211.3Q125.9 206.9 132.6 206.9L132.6 206.9Q139.0 206.9 142.9 210.9Q146.9 215.0 146.9 221.4L146.9 221.4Q146.9 223.0 146.0 223.9Q145.1 224.8 143.5 224.8L143.5 224.8L125.2 224.8L125.2 225.0Q125.2 228.9 127.3 231.3Q129.4 233.6 133.0 233.6L133.0 233.6Q135.4 233.6 137.2 232.6Q139.0 231.7 140.7 229.4L140.7 229.4Q141.8 228.3 143.2 228.3L143.2 228.3Q144.4 228.3 145.3 229.0Q146.1 229.8 146.1 231.1L146.1 231.1Q146.1 231.9 145.6 232.9L145.6 232.9Q144.1 235.9 140.8 237.5Q137.4 239.2 133.0 239.2ZM125.3 220.0L125.3 220.0L139.8 220.0Q139.6 216.6 137.7 214.6Q135.7 212.5 132.6 212.5Q129.6 212.5 127.5 214.6Q125.5 216.7 125.3 220.0ZM163.1 239.1L163.1 239.1Q157.2 239.1 153.8 234.7Q150.3 230.4 150.3 223.0Q150.3 215.6 153.8 211.3Q157.3 207.0 163.2 207.0L163.2 207.0Q166.5 207.0 169.1 208.6Q171.6 210.2 173.0 212.9L173.0 212.9L173.1 212.9L173.1 210.7Q173.1 208.9 174.1 207.9Q175.0 206.9 176.7 206.9Q178.4 206.9 179.3 207.9Q180.3 208.9 180.3 210.7L180.3 210.7L180.3 245.8Q180.3 247.6 179.3 248.6Q178.3 249.6 176.6 249.6Q175.0 249.6 174.0 248.6Q173.0 247.6 173.0 245.8L173.0 245.8L173.0 233.3L172.8 233.3Q171.6 236.0 169.0 237.5Q166.4 239.1 163.1 239.1ZM165.3 233.1L165.3 233.1Q168.8 233.1 170.9 230.4Q173.0 227.6 173.0 223.1Q173.0 218.5 170.9 215.7Q168.8 213.0 165.3 213.0L165.3 213.0Q161.8 213.0 159.8 215.7Q157.8 218.4 157.8 223.1Q157.8 227.7 159.8 230.4Q161.8 233.1 165.3 233.1ZM197.1 239.1L197.1 239.1Q192.0 239.1 189.0 236.0Q186.1 233.0 186.1 227.6L186.1 227.6L186.1 210.7Q186.1 209.0 187.1 207.9Q188.1 206.9 189.7 206.9Q191.3 206.9 192.4 207.9Q193.4 209.0 193.4 210.8L193.4 210.8L193.4 226.1Q193.4 229.5 195.0 231.2Q196.6 233.0 199.6 233.0L199.6 233.0Q202.8 233.0 204.6 230.9Q206.5 228.9 206.5 225.5L206.5 225.5L206.5 210.7Q206.5 209.0 207.5 207.9Q208.5 206.9 210.1 206.9L210.1 206.9Q211.7 206.9 212.7 207.9Q213.8 209.0 213.8 210.8L213.8 210.8L213.8 235.5Q213.8 237.2 212.8 238.2Q211.9 239.2 210.3 239.2L210.3 239.2Q208.7 239.2 207.7 238.2Q206.7 237.2 206.7 235.5L206.7 235.5L206.7 233.2L206.6 233.2Q204.0 239.1 197.1 239.1ZM233.5 239.2L233.5 239.2Q226.4 239.2 222.4 235.0Q218.4 230.7 218.4 223.2L218.4 223.2Q218.4 215.7 222.4 211.3Q226.4 206.9 233.1 206.9L233.1 206.9Q239.5 206.9 243.4 210.9Q247.4 215.0 247.4 221.4L247.4 221.4Q247.4 223.0 246.5 223.9Q245.6 224.8 244.0 224.8L244.0 224.8L225.7 224.8L225.7 225.0Q225.7 228.9 227.8 231.3Q229.9 233.6 233.4 233.6L233.4 233.6Q235.9 233.6 237.7 232.6Q239.5 231.7 241.2 229.4L241.2 229.4Q242.3 228.3 243.7 228.3L243.7 228.3Q244.9 228.3 245.8 229.0Q246.6 229.8 246.6 231.1L246.6 231.1Q246.6 231.9 246.1 232.9L246.1 232.9Q244.6 235.9 241.2 237.5Q237.9 239.2 233.5 239.2ZM225.7 220.0L225.7 220.0L240.2 220.0Q240.1 216.6 238.2 214.6Q236.2 212.5 233.1 212.5Q230.0 212.5 228.0 214.6Q225.9 216.7 225.7 220.0Z M268.6 239.1L268.6 239.1Q266.8 239.1 265.8 238.0Q264.8 237.0 264.8 235.2L264.8 235.2L264.8 200.2Q264.8 198.4 265.8 197.3Q266.8 196.3 268.6 196.3L268.6 196.3L281.3 196.3Q287.6 196.3 291.5 200.2Q295.5 204.1 295.5 210.5L295.5 210.5Q295.5 216.8 291.4 220.7Q287.4 224.6 280.9 224.6L280.9 224.6L272.4 224.6L272.4 235.2Q272.4 237.0 271.4 238.1Q270.4 239.1 268.6 239.1ZM272.4 202.5L272.4 218.5L279.2 218.5Q283.3 218.5 285.6 216.4Q287.8 214.3 287.8 210.5L287.8 210.5Q287.8 206.6 285.6 204.6Q283.3 202.5 279.3 202.5L279.3 202.5L272.4 202.5ZM309.4 239.1L309.4 239.1Q304.8 239.1 301.9 236.5Q299.0 233.9 299.0 229.7L299.0 229.7Q299.0 225.6 302.1 223.2Q305.1 220.8 310.8 220.4L310.8 220.4L319.1 219.9L319.1 217.7Q319.1 215.3 317.5 213.9Q316.0 212.6 313.3 212.6L313.3 212.6Q311.1 212.6 309.6 213.4Q308.1 214.2 306.7 216.2L306.7 216.2Q305.6 217.7 303.8 217.7L303.8 217.7Q302.4 217.7 301.6 216.9Q300.7 216.1 300.7 214.8L300.7 214.8Q300.7 213.8 301.2 212.8L301.2 212.8Q302.4 210.1 305.7 208.5Q309.1 206.9 313.5 206.9L313.5 206.9Q319.3 206.9 322.8 209.7Q326.3 212.5 326.3 217.2L326.3 217.2L326.3 235.5Q326.3 237.2 325.3 238.2Q324.3 239.2 322.7 239.2L322.7 239.2Q321.2 239.2 320.3 238.3Q319.3 237.4 319.2 235.8L319.2 235.8L319.2 233.6L319.1 233.6Q317.8 236.1 315.1 237.6Q312.4 239.1 309.4 239.1ZM311.6 233.6L311.6 233.6Q314.7 233.6 316.9 231.7Q319.1 229.8 319.1 227.1L319.1 227.1L319.1 224.7L311.8 225.1Q309.2 225.3 307.8 226.4Q306.3 227.6 306.3 229.4L306.3 229.4Q306.3 231.3 307.8 232.4Q309.2 233.6 311.6 233.6ZM336.6 250.1L336.6 250.1Q334.1 250.1 332.8 249.2Q331.5 248.3 331.5 246.7L331.5 246.7Q331.5 245.6 332.3 244.9Q333.0 244.2 334.3 244.2L334.3 244.2Q334.6 244.2 335.0 244.2Q335.5 244.2 335.8 244.2L335.8 244.2Q338.8 244.2 340.3 240.7L340.3 240.7L340.8 239.1L330.6 212.4Q330.2 211.2 330.2 210.3L330.2 210.3Q330.2 208.8 331.3 207.9Q332.4 206.9 334.0 206.9L334.0 206.9Q335.3 206.9 336.2 207.6Q337.0 208.3 337.5 209.8L337.5 209.8L344.9 232.4L345.0 232.4L352.4 209.8Q352.9 208.3 353.7 207.6Q354.5 206.9 355.9 206.9L355.9 206.9Q357.5 206.9 358.5 207.8Q359.5 208.8 359.5 210.2L359.5 210.2Q359.5 211.2 359.0 212.3L359.0 212.3L348.8 239.7Q346.7 245.5 344.0 247.8Q341.2 250.1 336.6 250.1ZM367.1 239.2L367.1 239.2Q365.4 239.2 364.4 238.2Q363.4 237.1 363.4 235.3L363.4 235.3L363.4 210.6Q363.4 208.9 364.4 207.9Q365.3 206.9 366.9 206.9Q368.5 206.9 369.5 207.9Q370.4 208.9 370.4 210.6L370.4 210.6L370.4 212.9L370.6 212.9Q371.6 210.2 374.0 208.5Q376.3 206.9 379.4 206.9L379.4 206.9Q382.7 206.9 385.0 208.6Q387.3 210.2 388.1 213.2L388.1 213.2L388.3 213.2Q389.4 210.3 392.0 208.6Q394.6 206.9 397.9 206.9L397.9 206.9Q402.5 206.9 405.3 209.8Q408.1 212.6 408.1 217.3L408.1 217.3L408.1 235.3Q408.1 237.1 407.1 238.1Q406.1 239.2 404.5 239.2L404.5 239.2Q402.8 239.2 401.8 238.1Q400.8 237.1 400.8 235.3L400.8 235.3L400.8 219.1Q400.8 216.2 399.3 214.6Q397.9 213.1 395.2 213.1L395.2 213.1Q392.6 213.1 390.9 214.8Q389.3 216.6 389.3 219.4L389.3 219.4L389.3 235.3Q389.3 237.1 388.4 238.2Q387.4 239.2 385.8 239.2L385.8 239.2Q384.1 239.2 383.2 238.2Q382.2 237.1 382.2 235.3L382.2 235.3L382.2 218.7Q382.2 216.1 380.7 214.6Q379.3 213.1 376.7 213.1L376.7 213.1Q374.1 213.1 372.4 214.9Q370.7 216.8 370.7 219.6L370.7 219.6L370.7 235.3Q370.7 237.1 369.7 238.1Q368.7 239.2 367.1 239.2ZM427.7 239.2L427.7 239.2Q420.6 239.2 416.6 235.0Q412.6 230.7 412.6 223.2L412.6 223.2Q412.6 215.7 416.6 211.3Q420.6 206.9 427.3 206.9L427.3 206.9Q433.7 206.9 437.6 210.9Q441.6 215.0 441.6 221.4L441.6 221.4Q441.6 223.0 440.7 223.9Q439.8 224.8 438.2 224.8L438.2 224.8L419.9 224.8L419.9 225.0Q419.9 228.9 422.0 231.3Q424.1 233.6 427.7 233.6L427.7 233.6Q430.1 233.6 431.9 232.6Q433.7 231.7 435.4 229.4L435.4 229.4Q436.5 228.3 437.9 228.3L437.9 228.3Q439.1 228.3 440.0 229.0Q440.8 229.8 440.8 231.1L440.8 231.1Q440.8 231.9 440.3 232.9L440.3 232.9Q438.8 235.9 435.4 237.5Q432.1 239.2 427.7 239.2ZM420.0 220.0L420.0 220.0L434.5 220.0Q434.3 216.6 432.4 214.6Q430.4 212.5 427.3 212.5Q424.3 212.5 422.2 214.6Q420.2 216.7 420.0 220.0ZM452.6 238.2Q451.6 239.2 449.9 239.2Q448.3 239.2 447.3 238.2Q446.3 237.1 446.3 235.3L446.3 235.3L446.3 210.6Q446.3 208.9 447.2 207.9Q448.2 206.9 449.8 206.9Q451.4 206.9 452.4 207.9Q453.4 208.9 453.4 210.6L453.4 210.6L453.4 212.8L453.5 212.8Q456.2 206.9 463.2 206.9L463.2 206.9Q468.3 206.9 471.1 210.0Q473.9 213.1 473.9 218.5L473.9 218.5L473.9 235.3Q473.9 237.1 472.9 238.2Q472.0 239.2 470.3 239.2Q468.7 239.2 467.7 238.2Q466.7 237.1 466.7 235.3L466.7 235.3L466.7 220.0Q466.7 216.6 465.1 214.9Q463.5 213.1 460.4 213.1L460.4 213.1Q457.3 213.1 455.4 215.2Q453.6 217.2 453.6 220.6L453.6 220.6L453.6 235.3Q453.6 237.1 452.6 238.2ZM481.8 230.9L481.8 230.9L481.8 213.1L479.8 213.1Q478.5 213.1 477.7 212.4Q476.9 211.6 476.9 210.3L476.9 210.3Q476.9 209.0 477.7 208.3Q478.5 207.5 479.8 207.5L479.8 207.5L481.8 207.5L481.8 203.4Q481.8 201.6 482.8 200.6Q483.8 199.6 485.5 199.6L485.5 199.6Q487.1 199.6 488.1 200.6Q489.1 201.6 489.1 203.4L489.1 203.4L489.1 207.5L492.5 207.5Q493.8 207.5 494.6 208.3Q495.4 209.0 495.4 210.3L495.4 210.3Q495.4 211.6 494.6 212.4Q493.8 213.1 492.5 213.1L492.5 213.1L489.1 213.1L489.1 229.3Q489.1 231.1 489.8 231.9Q490.4 232.7 492.0 232.9L492.0 232.9L492.5 232.9Q495.5 233.2 495.5 235.6L495.5 235.6Q495.5 237.2 494.1 238.1Q492.8 238.9 490.3 238.9L490.3 238.9L490.0 238.9Q481.8 238.9 481.8 230.9Z M519.2 238.1Q518.2 239.2 516.4 239.2Q514.7 239.2 513.7 238.1Q512.6 237.1 512.6 235.2L512.6 235.2L512.6 200.2Q512.6 198.4 513.7 197.3Q514.7 196.3 516.4 196.3L516.4 196.3L529.4 196.3Q536.3 196.3 540.2 199.8Q544.1 203.4 544.1 209.5L544.1 209.5Q544.1 213.6 542.0 216.8Q540.0 220.0 536.3 221.4L536.3 221.4L543.0 233.1Q543.8 234.5 543.8 235.7L543.8 235.7Q543.8 237.2 542.8 238.2Q541.7 239.2 540.0 239.2L540.0 239.2Q538.7 239.2 537.9 238.6Q537.1 238.0 536.2 236.4L536.2 236.4L528.7 222.7L520.2 222.7L520.2 235.2Q520.2 237.1 519.2 238.1ZM520.2 202.4L520.2 216.9L528.7 216.9Q532.3 216.9 534.3 215.0Q536.3 213.1 536.3 209.6L536.3 209.6Q536.3 206.3 534.2 204.4Q532.2 202.4 528.6 202.4L528.6 202.4L520.2 202.4ZM563.2 239.2L563.2 239.2Q556.1 239.2 552.1 235.0Q548.1 230.7 548.1 223.2L548.1 223.2Q548.1 215.7 552.1 211.3Q556.1 206.9 562.8 206.9L562.8 206.9Q569.2 206.9 573.1 210.9Q577.1 215.0 577.1 221.4L577.1 221.4Q577.1 223.0 576.2 223.9Q575.3 224.8 573.7 224.8L573.7 224.8L555.4 224.8L555.4 225.0Q555.4 228.9 557.5 231.3Q559.6 233.6 563.2 233.6L563.2 233.6Q565.6 233.6 567.4 232.6Q569.2 231.7 570.9 229.4L570.9 229.4Q572.0 228.3 573.4 228.3L573.4 228.3Q574.6 228.3 575.5 229.0Q576.3 229.8 576.3 231.1L576.3 231.1Q576.3 231.9 575.8 232.9L575.8 232.9Q574.3 235.9 570.9 237.5Q567.6 239.2 563.2 239.2ZM555.4 220.0L555.4 220.0L570.0 220.0Q569.8 216.6 567.9 214.6Q565.9 212.5 562.8 212.5Q559.8 212.5 557.7 214.6Q555.7 216.7 555.4 220.0ZM590.1 238.2Q589.1 239.2 587.5 239.2Q585.8 239.2 584.8 238.2Q583.8 237.2 583.8 235.4L583.8 235.4L583.8 213.1L581.9 213.1Q580.6 213.1 579.8 212.4Q579.1 211.7 579.1 210.4L579.1 210.4Q579.1 209.1 579.8 208.4Q580.6 207.6 581.9 207.6L581.9 207.6L583.8 207.6L583.8 204.9Q583.8 196.0 592.4 196.0L592.4 196.0Q595.2 196.0 596.6 196.8Q598.0 197.6 598.0 199.0L598.0 199.0Q598.0 200.7 596.3 201.1L596.3 201.1Q595.7 201.3 594.7 201.3L594.7 201.3Q592.7 201.4 591.9 202.3Q591.0 203.2 591.0 205.2L591.0 205.2L591.0 207.6L594.9 207.6Q596.1 207.6 596.9 208.4Q597.7 209.1 597.7 210.4L597.7 210.4Q597.7 211.7 596.9 212.4Q596.1 213.1 594.9 213.1L594.9 213.1L591.1 213.1L591.1 235.4Q591.1 237.2 590.1 238.2ZM612.9 239.1L612.9 239.1Q607.8 239.1 604.8 236.0Q601.9 233.0 601.9 227.6L601.9 227.6L601.9 210.7Q601.9 209.0 602.9 207.9Q603.8 206.9 605.5 206.9Q607.1 206.9 608.1 207.9Q609.2 209.0 609.2 210.8L609.2 210.8L609.2 226.1Q609.2 229.5 610.7 231.2Q612.3 233.0 615.4 233.0L615.4 233.0Q618.6 233.0 620.4 230.9Q622.2 228.9 622.2 225.5L622.2 225.5L622.2 210.7Q622.2 209.0 623.3 207.9Q624.3 206.9 625.9 206.9L625.9 206.9Q627.5 206.9 628.5 207.9Q629.5 209.0 629.5 210.8L629.5 210.8L629.5 235.5Q629.5 237.2 628.6 238.2Q627.6 239.2 626.1 239.2L626.1 239.2Q624.4 239.2 623.5 238.2Q622.5 237.2 622.5 235.5L622.5 235.5L622.5 233.2L622.4 233.2Q619.8 239.1 612.9 239.1ZM647.5 239.2L647.5 239.2Q642.6 239.2 639.3 237.5Q636.0 235.8 634.8 233.0L634.8 233.0Q634.5 232.2 634.5 231.5L634.5 231.5Q634.5 230.2 635.4 229.4Q636.2 228.6 637.6 228.6L637.6 228.6Q639.4 228.6 640.7 230.4L640.7 230.4Q642.0 232.3 643.6 233.1Q645.2 233.9 647.7 233.9L647.7 233.9Q650.3 233.9 651.9 232.9Q653.4 231.8 653.4 230.1L653.4 230.1Q653.4 228.7 652.4 227.8Q651.4 227.0 649.0 226.4L649.0 226.4L644.0 225.3Q634.9 223.3 634.9 216.4L634.9 216.4Q634.9 212.1 638.4 209.5Q641.8 206.9 647.6 206.9L647.6 206.9Q652.0 206.9 655.2 208.8Q658.4 210.6 659.2 213.4L659.2 213.4Q659.3 214.0 659.3 214.5L659.3 214.5Q659.3 215.6 658.6 216.4Q657.8 217.1 656.5 217.1L656.5 217.1Q654.6 217.1 653.7 215.7L653.7 215.7Q652.6 214.0 651.1 213.1Q649.6 212.2 647.4 212.2L647.4 212.2Q645.0 212.2 643.5 213.3Q642.0 214.3 642.0 216.0L642.0 216.0Q642.0 218.8 646.6 219.8L646.6 219.8L651.5 220.9Q656.5 222.0 658.6 223.9Q660.7 225.9 660.7 229.3L660.7 229.3Q660.7 233.8 657.1 236.5Q653.4 239.2 647.5 239.2ZM679.1 239.2L679.1 239.2Q672.0 239.2 668.0 235.0Q664.0 230.7 664.0 223.2L664.0 223.2Q664.0 215.7 668.0 211.3Q672.0 206.9 678.7 206.9L678.7 206.9Q685.1 206.9 689.0 210.9Q693.0 215.0 693.0 221.4L693.0 221.4Q693.0 223.0 692.1 223.9Q691.2 224.8 689.6 224.8L689.6 224.8L671.3 224.8L671.3 225.0Q671.3 228.9 673.4 231.3Q675.5 233.6 679.1 233.6L679.1 233.6Q681.5 233.6 683.3 232.6Q685.1 231.7 686.8 229.4L686.8 229.4Q687.9 228.3 689.3 228.3L689.3 228.3Q690.5 228.3 691.4 229.0Q692.2 229.8 692.2 231.1L692.2 231.1Q692.2 231.9 691.7 232.9L691.7 232.9Q690.2 235.9 686.8 237.5Q683.5 239.2 679.1 239.2ZM671.3 220.0L671.3 220.0L685.8 220.0Q685.7 216.6 683.8 214.6Q681.8 212.5 678.7 212.5Q675.7 212.5 673.6 214.6Q671.6 216.7 671.3 220.0ZM709.3 239.1L709.3 239.1Q703.4 239.1 699.9 234.7Q696.4 230.4 696.4 223.0L696.4 223.0Q696.4 215.7 699.9 211.3Q703.4 207.0 709.3 207.0L709.3 207.0Q712.6 207.0 715.1 208.5Q717.6 210.1 718.9 212.7L718.9 212.7L719.1 212.7L719.1 199.6Q719.1 197.7 720.1 196.7Q721.1 195.7 722.7 195.7Q724.3 195.7 725.4 196.7Q726.4 197.7 726.4 199.6L726.4 199.6L726.4 235.5Q726.4 237.2 725.4 238.2Q724.4 239.2 722.8 239.2L722.8 239.2Q721.1 239.2 720.1 238.2Q719.1 237.2 719.1 235.5L719.1 235.5L719.1 233.1L718.9 233.1Q717.8 235.9 715.3 237.5Q712.8 239.1 709.3 239.1ZM711.5 233.1L711.5 233.1Q714.9 233.1 717.0 230.4Q719.1 227.7 719.1 223.1L719.1 223.1Q719.1 218.5 717.0 215.7Q714.9 213.0 711.5 213.0L711.5 213.0Q708.0 213.0 705.9 215.7Q703.9 218.4 703.9 223.1L703.9 223.1Q703.9 227.7 705.9 230.4Q707.9 233.1 711.5 233.1Z M752.8 238.2Q751.9 239.2 750.2 239.2Q748.5 239.2 747.5 238.2Q746.5 237.2 746.5 235.4L746.5 235.4L746.5 213.1L744.6 213.1Q743.3 213.1 742.6 212.4Q741.8 211.7 741.8 210.4L741.8 210.4Q741.8 209.1 742.6 208.4Q743.3 207.6 744.6 207.6L744.6 207.6L746.5 207.6L746.5 204.9Q746.5 196.0 755.1 196.0L755.1 196.0Q757.9 196.0 759.3 196.8Q760.7 197.6 760.7 199.0L760.7 199.0Q760.7 200.7 759.1 201.1L759.1 201.1Q758.4 201.3 757.5 201.3L757.5 201.3Q755.5 201.4 754.6 202.3Q753.7 203.2 753.7 205.2L753.7 205.2L753.7 207.6L757.6 207.6Q758.9 207.6 759.6 208.4Q760.4 209.1 760.4 210.4L760.4 210.4Q760.4 211.7 759.6 212.4Q758.9 213.1 757.6 213.1L757.6 213.1L753.8 213.1L753.8 235.4Q753.8 237.2 752.8 238.2ZM789.4 234.9Q785.3 239.2 778.5 239.2Q771.6 239.2 767.5 234.9Q763.4 230.6 763.4 223.1L763.4 223.1Q763.4 215.6 767.5 211.2Q771.6 206.9 778.5 206.9L778.5 206.9Q785.3 206.9 789.4 211.2Q793.5 215.6 793.5 223.1L793.5 223.1Q793.5 230.6 789.4 234.9ZM772.9 230.7Q774.9 233.4 778.5 233.4Q782.0 233.4 784.0 230.7Q786.1 228.0 786.1 223.1L786.1 223.1Q786.1 218.2 784.0 215.4Q782.0 212.7 778.5 212.7L778.5 212.7Q775.0 212.7 772.9 215.4Q770.8 218.2 770.8 223.1L770.8 223.1Q770.8 228.0 772.9 230.7ZM804.5 238.1Q803.5 239.2 801.8 239.2Q800.1 239.2 799.2 238.1Q798.2 237.1 798.2 235.3L798.2 235.3L798.2 210.6Q798.2 208.9 799.1 207.9Q800.1 206.9 801.7 206.9L801.7 206.9Q803.2 206.9 804.2 207.9Q805.1 208.9 805.1 210.6L805.1 210.6L805.1 213.0L805.3 213.0Q805.9 210.3 807.7 208.6Q809.6 207.0 811.9 207.0L811.9 207.0Q813.6 207.0 814.5 207.8L814.5 207.8Q815.5 208.6 815.5 210.4L815.5 210.4Q815.5 212.1 814.4 213.0L814.4 213.0Q813.4 213.9 811.2 214.0L811.2 214.0Q805.5 214.0 805.5 220.4L805.5 220.4L805.5 235.3Q805.5 237.1 804.5 238.1Z M835.3 239.1L835.3 239.1Q833.6 239.1 832.6 238.0Q831.5 237.0 831.5 235.2L831.5 235.2L831.5 200.2Q831.5 198.4 832.6 197.3Q833.6 196.3 835.3 196.3L835.3 196.3L848.0 196.3Q854.3 196.3 858.3 200.2Q862.2 204.1 862.2 210.5L862.2 210.5Q862.2 216.8 858.2 220.7Q854.1 224.6 847.7 224.6L847.7 224.6L839.1 224.6L839.1 235.2Q839.1 237.0 838.1 238.1Q837.1 239.1 835.3 239.1ZM839.1 202.5L839.1 218.5L846.0 218.5Q850.0 218.5 852.3 216.4Q854.5 214.3 854.5 210.5L854.5 210.5Q854.5 206.6 852.3 204.6Q850.1 202.5 846.0 202.5L846.0 202.5L839.1 202.5ZM880.8 239.2L880.8 239.2Q873.7 239.2 869.7 235.0Q865.7 230.7 865.7 223.2L865.7 223.2Q865.7 215.7 869.7 211.3Q873.7 206.9 880.4 206.9L880.4 206.9Q886.7 206.9 890.7 210.9Q894.7 215.0 894.7 221.4L894.7 221.4Q894.7 223.0 893.8 223.9Q892.9 224.8 891.3 224.8L891.3 224.8L873.0 224.8L873.0 225.0Q873.0 228.9 875.1 231.3Q877.2 233.6 880.7 233.6L880.7 233.6Q883.2 233.6 885.0 232.6Q886.7 231.7 888.5 229.4L888.5 229.4Q889.6 228.3 891.0 228.3L891.0 228.3Q892.2 228.3 893.1 229.0Q893.9 229.8 893.9 231.1L893.9 231.1Q893.9 231.9 893.4 232.9L893.4 232.9Q891.8 235.9 888.5 237.5Q885.2 239.2 880.8 239.2ZM873.0 220.0L873.0 220.0L887.5 220.0Q887.4 216.6 885.4 214.6Q883.5 212.5 880.4 212.5Q877.3 212.5 875.3 214.6Q873.2 216.7 873.0 220.0ZM905.7 238.1Q904.7 239.2 903.0 239.2Q901.3 239.2 900.3 238.1Q899.4 237.1 899.4 235.3L899.4 235.3L899.4 210.6Q899.4 208.9 900.3 207.9Q901.3 206.9 902.9 206.9L902.9 206.9Q904.4 206.9 905.3 207.9Q906.3 208.9 906.3 210.6L906.3 210.6L906.3 213.0L906.5 213.0Q907.1 210.3 908.9 208.6Q910.8 207.0 913.1 207.0L913.1 207.0Q914.8 207.0 915.7 207.8L915.7 207.8Q916.7 208.6 916.7 210.4L916.7 210.4Q916.7 212.1 915.6 213.0L915.6 213.0Q914.6 213.9 912.4 214.0L912.4 214.0Q906.7 214.0 906.7 220.4L906.7 220.4L906.7 235.3Q906.7 237.1 905.7 238.1ZM932.0 239.2L932.0 239.2Q927.1 239.2 923.8 237.5Q920.5 235.8 919.3 233.0L919.3 233.0Q919.0 232.2 919.0 231.5L919.0 231.5Q919.0 230.2 919.9 229.4Q920.7 228.6 922.1 228.6L922.1 228.6Q923.9 228.6 925.2 230.4L925.2 230.4Q926.5 232.3 928.1 233.1Q929.7 233.9 932.2 233.9L932.2 233.9Q934.8 233.9 936.4 232.9Q937.9 231.8 937.9 230.1L937.9 230.1Q937.9 228.7 936.9 227.8Q935.9 227.0 933.5 226.4L933.5 226.4L928.5 225.3Q919.4 223.3 919.4 216.4L919.4 216.4Q919.4 212.1 922.9 209.5Q926.3 206.9 932.1 206.9L932.1 206.9Q936.5 206.9 939.7 208.8Q942.9 210.6 943.7 213.4L943.7 213.4Q943.8 214.0 943.8 214.5L943.8 214.5Q943.8 215.6 943.1 216.4Q942.3 217.1 941.0 217.1L941.0 217.1Q939.2 217.1 938.2 215.7L938.2 215.7Q937.1 214.0 935.6 213.1Q934.1 212.2 931.9 212.2L931.9 212.2Q929.5 212.2 928.0 213.3Q926.5 214.3 926.5 216.0L926.5 216.0Q926.5 218.8 931.1 219.8L931.1 219.8L936.0 220.9Q941.0 222.0 943.1 223.9Q945.2 225.9 945.2 229.3L945.2 229.3Q945.2 233.8 941.6 236.5Q937.9 239.2 932.0 239.2ZM974.5 234.9Q970.4 239.2 963.6 239.2Q956.7 239.2 952.6 234.9Q948.5 230.6 948.5 223.1L948.5 223.1Q948.5 215.6 952.6 211.2Q956.7 206.9 963.6 206.9L963.6 206.9Q970.4 206.9 974.5 211.2Q978.6 215.6 978.6 223.1L978.6 223.1Q978.6 230.6 974.5 234.9ZM958.0 230.7Q960.0 233.4 963.6 233.4Q967.1 233.4 969.1 230.7Q971.2 228.0 971.2 223.1L971.2 223.1Q971.2 218.2 969.1 215.4Q967.1 212.7 963.6 212.7L963.6 212.7Q960.1 212.7 958.0 215.4Q955.9 218.2 955.9 223.1L955.9 223.1Q955.9 228.0 958.0 230.7ZM989.6 238.2Q988.5 239.2 986.9 239.2Q985.3 239.2 984.3 238.2Q983.3 237.1 983.3 235.3L983.3 235.3L983.3 210.6Q983.3 208.9 984.2 207.9Q985.1 206.9 986.8 206.9Q988.4 206.9 989.4 207.9Q990.4 208.9 990.4 210.6L990.4 210.6L990.4 212.8L990.5 212.8Q993.1 206.9 1000.2 206.9L1000.2 206.9Q1005.3 206.9 1008.1 210.0Q1010.9 213.1 1010.9 218.5L1010.9 218.5L1010.9 235.3Q1010.9 237.1 1009.9 238.2Q1008.9 239.2 1007.3 239.2Q1005.7 239.2 1004.6 238.2Q1003.6 237.1 1003.6 235.3L1003.6 235.3L1003.6 220.0Q1003.6 216.6 1002.1 214.9Q1000.5 213.1 997.4 213.1L997.4 213.1Q994.3 213.1 992.4 215.2Q990.6 217.2 990.6 220.6L990.6 220.6L990.6 235.3Q990.6 237.1 989.6 238.2ZM1025.9 239.1L1025.9 239.1Q1021.3 239.1 1018.4 236.5Q1015.5 233.9 1015.5 229.7L1015.5 229.7Q1015.5 225.6 1018.6 223.2Q1021.6 220.8 1027.3 220.4L1027.3 220.4L1035.5 219.9L1035.5 217.7Q1035.5 215.3 1034.0 213.9Q1032.5 212.6 1029.7 212.6L1029.7 212.6Q1027.6 212.6 1026.1 213.4Q1024.6 214.2 1023.2 216.2L1023.2 216.2Q1022.1 217.7 1020.3 217.7L1020.3 217.7Q1018.9 217.7 1018.1 216.9Q1017.2 216.1 1017.2 214.8L1017.2 214.8Q1017.2 213.8 1017.7 212.8L1017.7 212.8Q1018.9 210.1 1022.2 208.5Q1025.6 206.9 1030.0 206.9L1030.0 206.9Q1035.8 206.9 1039.3 209.7Q1042.7 212.5 1042.7 217.2L1042.7 217.2L1042.7 235.5Q1042.7 237.2 1041.8 238.2Q1040.8 239.2 1039.2 239.2L1039.2 239.2Q1037.7 239.2 1036.7 238.3Q1035.8 237.4 1035.7 235.8L1035.7 235.8L1035.7 233.6L1035.6 233.6Q1034.2 236.1 1031.6 237.6Q1028.9 239.1 1025.9 239.1ZM1028.1 233.6L1028.1 233.6Q1031.2 233.6 1033.4 231.7Q1035.5 229.8 1035.5 227.1L1035.5 227.1L1035.5 224.7L1028.3 225.1Q1025.7 225.3 1024.2 226.4Q1022.8 227.6 1022.8 229.4L1022.8 229.4Q1022.8 231.3 1024.2 232.4Q1025.7 233.6 1028.1 233.6ZM1055.1 238.2Q1054.1 239.2 1052.5 239.2Q1050.8 239.2 1049.8 238.2Q1048.8 237.1 1048.8 235.3L1048.8 235.3L1048.8 199.6Q1048.8 197.7 1049.8 196.7Q1050.8 195.7 1052.5 195.7Q1054.1 195.7 1055.1 196.7Q1056.1 197.7 1056.1 199.6L1056.1 199.6L1056.1 235.3Q1056.1 237.1 1055.1 238.2Z M61.4 321.1L47.5 321.1Q45.7 321.1 44.7 320.0Q43.7 319.0 43.7 317.2L43.7 317.2L43.7 282.7Q43.7 280.9 44.7 279.8Q45.7 278.8 47.5 278.8L47.5 278.8L61.3 278.8Q67.0 278.8 70.5 281.7Q73.9 284.5 73.9 289.3L73.9 289.3Q73.9 292.7 71.7 295.4Q69.4 298.0 66.2 298.5L66.2 298.5L66.2 298.8Q70.5 299.2 73.2 302.0Q75.9 304.9 75.9 309.1L75.9 309.1Q75.9 314.7 72.1 317.9Q68.2 321.1 61.4 321.1L61.4 321.1ZM51.3 284.7L51.3 296.6L58.2 296.6Q62.1 296.6 64.3 295.0Q66.4 293.4 66.4 290.5L66.4 290.5Q66.4 287.7 64.6 286.2Q62.8 284.7 59.4 284.7L59.4 284.7L51.3 284.7ZM51.3 302.0L51.3 315.2L59.7 315.2Q63.9 315.2 66.1 313.5Q68.2 311.8 68.2 308.5L68.2 308.5Q68.2 305.3 66.0 303.6Q63.8 302.0 59.4 302.0L59.4 302.0L51.3 302.0ZM89.7 321.6L89.7 321.6Q85.2 321.6 82.3 319.0Q79.3 316.4 79.3 312.2L79.3 312.2Q79.3 308.1 82.4 305.7Q85.5 303.3 91.2 302.9L91.2 302.9L99.4 302.4L99.4 300.2Q99.4 297.8 97.8 296.4Q96.3 295.1 93.6 295.1L93.6 295.1Q91.4 295.1 89.9 295.9Q88.4 296.7 87.1 298.7L87.1 298.7Q86.0 300.2 84.1 300.2L84.1 300.2Q82.8 300.2 81.9 299.4Q81.0 298.6 81.0 297.3L81.0 297.3Q81.0 296.3 81.5 295.3L81.5 295.3Q82.7 292.6 86.1 291.0Q89.4 289.4 93.9 289.4L93.9 289.4Q99.6 289.4 103.1 292.2Q106.6 295.0 106.6 299.7L106.6 299.7L106.6 318.0Q106.6 319.7 105.6 320.7Q104.6 321.7 103.0 321.7L103.0 321.7Q101.5 321.7 100.6 320.8Q99.6 319.9 99.6 318.3L99.6 318.3L99.6 316.1L99.4 316.1Q98.1 318.6 95.4 320.1Q92.8 321.6 89.7 321.6ZM91.9 316.1L91.9 316.1Q95.0 316.1 97.2 314.2Q99.4 312.3 99.4 309.6L99.4 309.6L99.4 307.2L92.2 307.6Q89.5 307.8 88.1 308.9Q86.6 310.1 86.6 311.9L86.6 311.9Q86.6 313.8 88.1 314.9Q89.5 316.1 91.9 316.1ZM118.7 320.7Q117.7 321.7 116.1 321.7Q114.4 321.7 113.4 320.7Q112.5 319.6 112.5 317.8L112.5 317.8L112.5 293.1Q112.5 291.4 113.4 290.4Q114.3 289.4 115.9 289.4Q117.5 289.4 118.5 290.4Q119.5 291.4 119.5 293.1L119.5 293.1L119.5 295.3L119.7 295.3Q122.3 289.4 129.4 289.4L129.4 289.4Q134.5 289.4 137.3 292.5Q140.1 295.6 140.1 301.0L140.1 301.0L140.1 317.8Q140.1 319.6 139.1 320.7Q138.1 321.7 136.5 321.7Q134.8 321.7 133.8 320.7Q132.8 319.6 132.8 317.8L132.8 317.8L132.8 302.5Q132.8 299.1 131.2 297.4Q129.7 295.6 126.6 295.6L126.6 295.6Q123.5 295.6 121.6 297.7Q119.7 299.7 119.7 303.1L119.7 303.1L119.7 317.8Q119.7 319.6 118.7 320.7ZM152.4 320.7Q151.4 321.7 149.8 321.7Q148.2 321.7 147.2 320.7Q146.1 319.6 146.1 317.8L146.1 317.8L146.1 282.1Q146.1 280.2 147.2 279.2Q148.2 278.2 149.8 278.2Q151.4 278.2 152.4 279.2Q153.4 280.2 153.4 282.1L153.4 282.1L153.4 302.9L153.5 302.9L165.7 290.8Q167.0 289.4 168.6 289.4L168.6 289.4Q169.9 289.4 170.8 290.3Q171.7 291.2 171.7 292.5L171.7 292.5Q171.7 294.0 170.4 295.2L170.4 295.2L161.6 303.6L171.3 315.8Q172.3 317.2 172.3 318.4L172.3 318.4Q172.3 319.8 171.3 320.8Q170.4 321.7 168.8 321.7L168.8 321.7Q167.8 321.7 167.0 321.2Q166.3 320.8 165.5 319.6L165.5 319.6L156.2 307.8L153.4 310.4L153.4 317.8Q153.4 319.6 152.4 320.7ZM183.7 284.5Q182.6 285.7 180.9 285.7Q179.2 285.7 178.0 284.5Q176.8 283.3 176.8 281.7L176.8 281.7Q176.8 280.0 178.0 278.9Q179.2 277.7 180.9 277.7L180.9 277.7Q182.6 277.7 183.8 278.9Q184.9 280.0 184.9 281.7L184.9 281.7Q184.9 283.3 183.7 284.5ZM183.5 320.6Q182.5 321.7 180.9 321.7Q179.2 321.7 178.2 320.6Q177.2 319.6 177.2 317.8L177.2 317.8L177.2 293.2Q177.2 291.5 178.2 290.4Q179.2 289.4 180.9 289.4Q182.5 289.4 183.5 290.4Q184.5 291.5 184.5 293.3L184.5 293.3L184.5 317.8Q184.5 319.6 183.5 320.6ZM196.9 320.7Q195.9 321.7 194.3 321.7Q192.6 321.7 191.6 320.7Q190.6 319.6 190.6 317.8L190.6 317.8L190.6 293.1Q190.6 291.4 191.6 290.4Q192.5 289.4 194.1 289.4Q195.7 289.4 196.7 290.4Q197.7 291.4 197.7 293.1L197.7 293.1L197.7 295.3L197.9 295.3Q200.5 289.4 207.5 289.4L207.5 289.4Q212.6 289.4 215.5 292.5Q218.3 295.6 218.3 301.0L218.3 301.0L218.3 317.8Q218.3 319.6 217.3 320.7Q216.3 321.7 214.7 321.7Q213.0 321.7 212.0 320.7Q211.0 319.6 211.0 317.8L211.0 317.8L211.0 302.5Q211.0 299.1 209.4 297.4Q207.9 295.6 204.8 295.6L204.8 295.6Q201.7 295.6 199.8 297.7Q197.9 299.7 197.9 303.1L197.9 303.1L197.9 317.8Q197.9 319.6 196.9 320.7ZM237.5 332.8L237.5 332.8Q233.2 332.7 229.8 331.2Q226.5 329.7 224.9 327.1L224.9 327.1Q224.3 326.1 224.3 324.9L224.3 324.9Q224.3 323.7 225.1 322.9Q226.0 322.1 227.4 322.1L227.4 322.1Q228.8 322.1 230.0 323.3L230.0 323.3Q231.9 325.2 233.7 326.1Q235.4 326.9 237.6 327.0L237.6 327.0Q241.2 327.0 243.4 325.1Q245.5 323.2 245.5 320.1L245.5 320.1L245.5 315.2L245.3 315.2Q244.1 317.7 241.5 319.2Q238.9 320.8 235.6 320.8L235.6 320.8Q229.8 320.8 226.3 316.5Q222.8 312.3 222.8 305.2L222.8 305.2Q222.8 297.9 226.3 293.7Q229.8 289.5 235.8 289.5L235.8 289.5Q239.0 289.5 241.5 291.0Q244.0 292.6 245.4 295.3L245.4 295.3L245.5 295.3L245.5 293.1Q245.5 291.4 246.5 290.4Q247.6 289.4 249.2 289.4Q250.8 289.4 251.8 290.4Q252.8 291.4 252.8 293.1L252.8 293.1L252.8 320.1Q252.8 326.0 248.7 329.4Q244.7 332.8 237.5 332.8ZM237.8 315.1L237.8 315.1Q241.4 315.1 243.5 312.4Q245.5 309.8 245.5 305.2L245.5 305.2Q245.5 300.7 243.4 298.0Q241.3 295.3 237.8 295.3L237.8 295.3Q234.4 295.3 232.3 298.0Q230.3 300.7 230.3 305.2L230.3 305.2Q230.3 309.8 232.3 312.5Q234.4 315.1 237.8 315.1Z M278.1 320.6Q277.0 321.7 275.3 321.7Q273.5 321.7 272.5 320.6Q271.5 319.6 271.5 317.7L271.5 317.7L271.5 282.7Q271.5 280.9 272.5 279.8Q273.5 278.8 275.3 278.8L275.3 278.8L288.3 278.8Q295.1 278.8 299.0 282.3Q302.9 285.9 302.9 292.0L302.9 292.0Q302.9 296.1 300.9 299.3Q298.8 302.5 295.2 303.9L295.2 303.9L301.9 315.6Q302.7 317.0 302.7 318.2L302.7 318.2Q302.7 319.7 301.6 320.7Q300.5 321.7 298.9 321.7L298.9 321.7Q297.5 321.7 296.7 321.1Q295.9 320.5 295.1 318.9L295.1 318.9L287.5 305.2L279.1 305.2L279.1 317.7Q279.1 319.6 278.1 320.6ZM279.1 284.9L279.1 299.4L287.6 299.4Q291.2 299.4 293.2 297.5Q295.2 295.6 295.2 292.1L295.2 292.1Q295.2 288.8 293.1 286.9Q291.0 284.9 287.4 284.9L287.4 284.9L279.1 284.9ZM322.1 321.7L322.1 321.7Q315.0 321.7 311.0 317.5Q307.0 313.2 307.0 305.7L307.0 305.7Q307.0 298.2 311.0 293.8Q315.0 289.4 321.7 289.4L321.7 289.4Q328.0 289.4 332.0 293.4Q336.0 297.5 336.0 303.9L336.0 303.9Q336.0 305.5 335.1 306.4Q334.2 307.3 332.6 307.3L332.6 307.3L314.2 307.3L314.2 307.5Q314.2 311.4 316.4 313.8Q318.5 316.1 322.0 316.1L322.0 316.1Q324.5 316.1 326.2 315.1Q328.0 314.2 329.8 311.9L329.8 311.9Q330.8 310.8 332.2 310.8L332.2 310.8Q333.5 310.8 334.3 311.5Q335.2 312.3 335.2 313.6L335.2 313.6Q335.2 314.4 334.7 315.4L334.7 315.4Q333.1 318.4 329.8 320.0Q326.5 321.7 322.1 321.7ZM314.3 302.5L314.3 302.5L328.8 302.5Q328.7 299.1 326.7 297.1Q324.8 295.0 321.7 295.0Q318.6 295.0 316.6 297.1Q314.5 299.2 314.3 302.5ZM349.8 321.6L349.8 321.6Q345.2 321.6 342.3 319.0Q339.4 316.4 339.4 312.2L339.4 312.2Q339.4 308.1 342.4 305.7Q345.5 303.3 351.2 302.9L351.2 302.9L359.4 302.4L359.4 300.2Q359.4 297.8 357.9 296.4Q356.3 295.1 353.6 295.1L353.6 295.1Q351.5 295.1 350.0 295.9Q348.5 296.7 347.1 298.7L347.1 298.7Q346.0 300.2 344.2 300.2L344.2 300.2Q342.8 300.2 341.9 299.4Q341.1 298.6 341.1 297.3L341.1 297.3Q341.1 296.3 341.6 295.3L341.6 295.3Q342.8 292.6 346.1 291.0Q349.5 289.4 353.9 289.4L353.9 289.4Q359.7 289.4 363.2 292.2Q366.6 295.0 366.6 299.7L366.6 299.7L366.6 318.0Q366.6 319.7 365.6 320.7Q364.7 321.7 363.1 321.7L363.1 321.7Q361.6 321.7 360.6 320.8Q359.7 319.9 359.6 318.3L359.6 318.3L359.6 316.1L359.5 316.1Q358.1 318.6 355.5 320.1Q352.8 321.6 349.8 321.6ZM352.0 316.1L352.0 316.1Q355.1 316.1 357.3 314.2Q359.4 312.3 359.4 309.6L359.4 309.6L359.4 307.2L352.2 307.6Q349.6 307.8 348.1 308.9Q346.7 310.1 346.7 311.9L346.7 311.9Q346.7 313.8 348.1 314.9Q349.6 316.1 352.0 316.1ZM384.5 321.7L384.5 321.7Q379.6 321.7 376.3 320.0Q373.0 318.3 371.8 315.5L371.8 315.5Q371.5 314.7 371.5 314.0L371.5 314.0Q371.5 312.7 372.4 311.9Q373.2 311.1 374.6 311.1L374.6 311.1Q376.4 311.1 377.7 312.9L377.7 312.9Q379.0 314.8 380.6 315.6Q382.2 316.4 384.7 316.4L384.7 316.4Q387.3 316.4 388.9 315.4Q390.4 314.3 390.4 312.6L390.4 312.6Q390.4 311.2 389.4 310.3Q388.4 309.5 386.0 308.9L386.0 308.9L381.0 307.8Q371.9 305.8 371.9 298.9L371.9 298.9Q371.9 294.6 375.4 292.0Q378.8 289.4 384.6 289.4L384.6 289.4Q389.0 289.4 392.2 291.3Q395.4 293.1 396.2 295.9L396.2 295.9Q396.3 296.5 396.3 297.0L396.3 297.0Q396.3 298.1 395.6 298.9Q394.8 299.6 393.5 299.6L393.5 299.6Q391.7 299.6 390.7 298.2L390.7 298.2Q389.6 296.5 388.1 295.6Q386.6 294.7 384.4 294.7L384.4 294.7Q382.0 294.7 380.5 295.8Q379.0 296.8 379.0 298.5L379.0 298.5Q379.0 301.3 383.6 302.3L383.6 302.3L388.5 303.4Q393.5 304.5 395.6 306.4Q397.7 308.4 397.7 311.8L397.7 311.8Q397.7 316.3 394.1 319.0Q390.4 321.7 384.5 321.7ZM427.0 317.4Q422.9 321.7 416.1 321.7Q409.2 321.7 405.1 317.4Q401.0 313.1 401.0 305.6L401.0 305.6Q401.0 298.1 405.1 293.7Q409.2 289.4 416.1 289.4L416.1 289.4Q422.9 289.4 427.0 293.7Q431.1 298.1 431.1 305.6L431.1 305.6Q431.1 313.1 427.0 317.4ZM410.5 313.2Q412.5 315.9 416.1 315.9Q419.6 315.9 421.6 313.2Q423.7 310.5 423.7 305.6L423.7 305.6Q423.7 300.7 421.6 297.9Q419.6 295.2 416.1 295.2L416.1 295.2Q412.6 295.2 410.5 297.9Q408.4 300.7 408.4 305.6L408.4 305.6Q408.4 310.5 410.5 313.2ZM442.1 320.7Q441.0 321.7 439.4 321.7Q437.8 321.7 436.8 320.7Q435.8 319.6 435.8 317.8L435.8 317.8L435.8 293.1Q435.8 291.4 436.7 290.4Q437.6 289.4 439.3 289.4Q440.9 289.4 441.9 290.4Q442.9 291.4 442.9 293.1L442.9 293.1L442.9 295.3L443.0 295.3Q445.6 289.4 452.7 289.4L452.7 289.4Q457.8 289.4 460.6 292.5Q463.4 295.6 463.4 301.0L463.4 301.0L463.4 317.8Q463.4 319.6 462.4 320.7Q461.4 321.7 459.8 321.7Q458.2 321.7 457.1 320.7Q456.1 319.6 456.1 317.8L456.1 317.8L456.1 302.5Q456.1 299.1 454.6 297.4Q453.0 295.6 449.9 295.6L449.9 295.6Q446.8 295.6 444.9 297.7Q443.1 299.7 443.1 303.1L443.1 303.1L443.1 317.8Q443.1 319.6 442.1 320.7ZM481.2 321.7L481.2 321.7Q476.4 321.7 473.1 320.0Q469.7 318.3 468.6 315.5L468.6 315.5Q468.3 314.7 468.3 314.0L468.3 314.0Q468.3 312.7 469.1 311.9Q470.0 311.1 471.3 311.1L471.3 311.1Q473.2 311.1 474.5 312.9L474.5 312.9Q475.8 314.8 477.4 315.6Q479.0 316.4 481.5 316.4L481.5 316.4Q484.1 316.4 485.6 315.4Q487.2 314.3 487.2 312.6L487.2 312.6Q487.2 311.2 486.2 310.3Q485.2 309.5 482.8 308.9L482.8 308.9L477.8 307.8Q468.7 305.8 468.7 298.9L468.7 298.9Q468.7 294.6 472.2 292.0Q475.6 289.4 481.4 289.4L481.4 289.4Q485.8 289.4 489.0 291.3Q492.2 293.1 492.9 295.9L492.9 295.9Q493.1 296.5 493.1 297.0L493.1 297.0Q493.1 298.1 492.3 298.9Q491.6 299.6 490.3 299.6L490.3 299.6Q488.4 299.6 487.5 298.2L487.5 298.2Q486.3 296.5 484.9 295.6Q483.4 294.7 481.2 294.7L481.2 294.7Q478.8 294.7 477.3 295.8Q475.8 296.8 475.8 298.5L475.8 298.5Q475.8 301.3 480.4 302.3L480.4 302.3L485.3 303.4Q490.2 304.5 492.4 306.4Q494.5 308.4 494.5 311.8L494.5 311.8Q494.5 316.3 490.8 319.0Q487.2 321.7 481.2 321.7Z "/><defs><clipPath id="satori_bc-id-0-1"><rect x="0" y="441" width="1200" height="189"/></clipPath></defs><mask id="satori_om-id-0-1"><rect x="0" y="442" width="1200" height="188" fill="#fff"/><path width="1200" height="189" fill="none" stroke="#000" stroke-width="2" d="M0,441 A0,0 0 0 1 0,441 h1200 A0,0 0 0 1 1200,441"/></mask><path width="1200" height="189" clip-path="url(#satori_bc-id-0-1)" fill="none" stroke="#dbdbdb" stroke-width="2" d="M0,441 A0,0 0 0 1 0,441 h1200 A0,0 0 0 1 1200,441"/><mask id="satori_om-id-0-1-0"><rect x="40" y="482" width="292" height="108" fill="#fff"/></mask><clipPath id="satori_cp-id-0-1-0-0"><rect x="40" y="504" width="64" height="64"/></clipPath><mask id="satori_om-id-0-1-0-0"><rect x="40" y="504" width="64" height="64" fill="#fff"/></mask><image x="40" y="504" width="64" height="64" href="data:image/svg+xml;utf8,%3Csvg  xmlns=%22http://www.w3.org/2000/svg%22 width=%2264%22 height=%2264%22 viewBox=%220 0 128 128%22%3E%3Cpath fill=%22%23224d67%22 d=%22M22.5 14.8c2.9 1.3 99 44 99 44c2.7 1.2 2.9 3.1 2 12.4c-1 10.5-1.9 37.8-40.2 42.9c-24.6 3.2-55.9-4.3-70.9-27.2C-6 58.8 11 23.4 14.8 17.7c2.4-3.5 4.8-4.2 7.7-2.9%22%3E%3C/path%3E%3Cpath fill=%22%23f0f4c3%22 d=%22M121.5 58.8c-.3-.2-92-40.8-98.9-43.9C9.6 31.5-3.8 76 27.9 96.2c33.6 21.5 78.7-10.2 93.6-37.4%22%3E%3C/path%3E%3Cpath fill=%22%23f0f4c3%22 d=%22M117.7 57c-.3-.2-86.7-38.4-93.2-41.3c-12.2 15.5-23.9 59.1 5.7 78c31.4 20.2 73.6-11.2 87.5-36.7%22%3E%3C/path%3E%3Cpath fill=%22%23cb2a42%22 d=%22M56.2 37.6L19.5 48.2c-2.5.8-4.4 2.8-5 5.3c-1.9 8.5.8 23.3 8.9 29.8c3.5 2.7 8.6 1.8 10.8-2.1L58.5 41c1.3-1.7.5-4.2-2.3-3.4m14.3 2.9s14.6 30.1 16 33s6.3 4.7 9.9 2.8c10.7-5.6 15.5-12.4 19.2-20.2c-8.9-3.9-42.4-18.8-42.4-18.8c-2.4-1.1-4 .6-2.7 3.2m-8.6 1.9C60.3 45.1 39.5 81 37.6 84.1c-1.9 3.2-.7 7.5 2.7 9.2c12.3 6.5 30.9.4 39.6-7c2.2-1.9 4.5-5.1 3.2-8.2S68.9 44.6 67.8 42.3c-1.2-2.7-4.1-2.8-5.9.1%22%3E%3C/path%3E%3Cpath fill=%22%23f0f4c3%22 d=%22M52.2 42.2c-1.4.4-10.1 3-11.1 3.4c-1.4.5-2.2 1.7-1.9 2.5c.3.9 1.7 1.1 3.1.6c.8-.3 7.1-3.9 9.5-5.2c-3.1 2.4-10.2 9.4-11.1 10.3c-1.4 1.5-1.7 3.4-.8 4.3c1 .9 2.9.5 4.3-1c1.2-1.3 8.5-12.8 9.1-13.9s.4-1.4-1.1-1m10.1 16.4c0-2.2 1.4-10.3 1.8-12.3c.4-1.6 1.5-1.8 1.8.5s1.7 9.7 1.7 11.8s-1.2 3.3-2.7 3.3c-1.4 0-2.6-1.1-2.6-3.3M79.9 49c-1.2-1.8-3.3-4.9-4.1-6.1c-.7-1.2.1-2.1 1.8-.9s4 2.9 5.4 4c1.6 1.3 1.9 3 .8 4s-2.7.8-3.9-1%22%3E%3C/path%3E%3Cellipse cx=%2287.3%22 cy=%22103.12%22 fill=%22%23cb2a42%22 rx=%223.4%22 ry=%222.3%22 transform=%22rotate(-27.098 87.298 103.126)%22%3E%3C/ellipse%3E%3Cellipse cx=%2298.89%22 cy=%22103.82%22 fill=%22%23cb2a42%22 rx=%223.4%22 ry=%222.3%22 transform=%22rotate(-30.642 98.887 103.818)%22%3E%3C/ellipse%3E%3Cellipse cx=%22102.02%22 cy=%2293.8%22 fill=%22%23cb2a42%22 rx=%223.4%22 ry=%222.3%22 transform=%22rotate(-37.16 102.017 93.797)%22%3E%3C/ellipse%3E%3Cpath fill=%22%23cb2a42%22 d=%22M57.6 30.3c-8.3-3.7-24.4-10.7-29.6-13c-3.6 2.2-9.7 11.4-11.2 21.2c-.6 3.6 1.7 5.9 5.3 4.9c0 0 33.7-9.3 35.3-9.7c1.6-.5 2-2.6.2-3.4%22%3E%3C/path%3E%3C/svg%3E" preserveAspectRatio="none" clip-path="url(#satori_cp-id-0-1-0-0)" mask="url(#satori_om-id-0-1-0-0)"/><mask id="satori_om-id-0-1-0-0-0"><rect x="40" y="504" width="0" height="64" fill="#fff"/></mask><mask id="satori_om-id-0-1-0-0-1"><rect x="40" y="504" width="0" height="64" fill="#fff"/></mask><mask id="satori_om-id-0-1-0-0-2"><rect x="40" y="504" width="0" height="64" fill="#fff"/></mask><mask id="satori_om-id-0-1-0-0-3"><rect x="40" y="504" width="0" height="64" fill="#fff"/></mask><mask id="satori_om-id-0-1-0-0-4"><rect x="40" y="504" width="0" height="64" fill="#fff"/></mask><mask id="satori_om-id-0-1-0-0-5"><rect x="40" y="504" width="0" height="64" fill="#fff"/></mask><mask id="satori_om-id-0-1-0-0-6"><rect x="40" y="504" width="0" height="64" fill="#fff"/></mask><mask id="satori_om-id-0-1-0-0-7"><rect x="40" y="504" width="0" height="64" fill="#fff"/></mask><mask id="satori_om-id-0-1-0-0-8"><rect x="40" y="504" width="0" height="64" fill="#fff"/></mask><mask id="satori_om-id-0-1-0-1"><rect x="116" y="512" width="216" height="48" fill="#fff"/></mask><path fill="#545454" d="M121.1 553.5L121.1 553.5Q119.4 553.5 118.4 552.6Q117.5 551.7 117.5 550.2L117.5 550.2Q117.5 549.3 117.9 547.9L117.9 547.9L127.2 522.8Q127.9 520.7 129.2 519.7Q130.5 518.8 132.5 518.8L132.5 518.8Q134.6 518.8 135.9 519.7Q137.2 520.7 137.9 522.8L137.9 522.8L147.2 547.9Q147.6 549.2 147.6 550.2L147.6 550.2Q147.6 551.6 146.6 552.6Q145.6 553.5 144.1 553.5L144.1 553.5Q142.6 553.5 141.7 552.8Q140.9 552.1 140.4 550.4L140.4 550.4L138.6 545.0L126.4 545.0L124.6 550.3Q124.2 552.0 123.3 552.8Q122.5 553.5 121.1 553.5ZM132.4 525.7L128.0 539.6L137 539.6L132.5 525.7L132.4 525.7ZM159.1 552.6Q158.2 553.6 156.6 553.6Q155.0 553.6 154.1 552.6Q153.2 551.7 153.2 550.0L153.2 550.0L153.2 533.1L151.9 533.1Q150.8 533.1 150.1 532.4Q149.4 531.7 149.4 530.6Q149.4 529.4 150.1 528.7Q150.8 528.1 151.9 528.1L151.9 528.1L153.2 528.1L153.2 526.2Q153.2 522.5 155.0 520.7Q156.7 519.0 160.3 518.9L160.3 518.9Q163.0 518.9 164.2 519.7Q165.5 520.4 165.5 521.7L165.5 521.7Q165.5 523.1 164.1 523.5L164.1 523.5Q163.5 523.7 162.8 523.7L162.8 523.7Q161.2 523.7 160.5 524.4Q159.9 525.1 159.9 526.5L159.9 526.5L159.9 528.1L162.7 528.1Q163.8 528.1 164.5 528.7Q165.2 529.4 165.2 530.6Q165.2 531.7 164.5 532.4Q163.8 533.1 162.7 533.1L162.7 533.1L160.0 533.1L160.0 550.0Q160.0 551.7 159.1 552.6ZM170.3 546.6L170.3 546.6L170.3 533.1L168.9 533.1Q167.7 533.1 167.0 532.4Q166.3 531.7 166.3 530.5Q166.3 529.3 167.0 528.6Q167.7 527.9 168.9 527.9L168.9 527.9L170.3 527.9L170.3 525.1Q170.3 523.5 171.2 522.5Q172.1 521.6 173.7 521.6Q175.3 521.6 176.2 522.5Q177.1 523.5 177.1 525.1L177.1 525.1L177.1 527.9L179.5 527.9Q180.7 527.9 181.4 528.6Q182.1 529.3 182.1 530.5Q182.1 531.7 181.4 532.4Q180.7 533.1 179.5 533.1L179.5 533.1L177.1 533.1L177.1 545.1Q177.1 546.5 177.6 547.1Q178.1 547.7 179.2 547.8L179.2 547.8L179.6 547.8Q180.9 548.0 181.6 548.5Q182.2 549.1 182.2 550.3L182.2 550.3Q182.2 551.8 180.9 552.6Q179.6 553.3 177.4 553.3L177.4 553.3L177.1 553.3Q170.3 553.3 170.3 546.6ZM197.0 553.6L197.0 553.6Q191.2 553.6 187.9 550.2Q184.6 546.7 184.6 540.6L184.6 540.6Q184.6 534.5 187.9 531.0Q191.1 527.4 196.7 527.4L196.7 527.4Q202.0 527.4 205.3 530.7Q208.6 533.9 208.6 539.1L208.6 539.1Q208.6 540.5 207.9 541.3Q207.1 542.1 205.6 542.1L205.6 542.1L191.3 542.1L191.3 542.4Q191.3 545.2 192.9 546.9Q194.4 548.5 197.0 548.5L197.0 548.5Q198.9 548.5 200.3 547.8Q201.6 547.2 203.0 545.5L203.0 545.5Q204.0 544.5 205.3 544.5L205.3 544.5Q206.4 544.5 207.2 545.2Q207.9 545.9 207.9 547.0L207.9 547.0Q207.9 547.8 207.5 548.7L207.5 548.7Q206.2 551 203.4 552.3Q200.7 553.6 197.0 553.6ZM191.4 537.9L191.4 537.9L202.0 537.9Q201.9 535.4 200.5 533.9Q199.0 532.5 196.8 532.5Q194.5 532.5 193.1 534.0Q191.6 535.5 191.4 537.9ZM215.6 553.6L215.6 553.6Q214.0 553.6 213.1 552.6Q212.1 551.7 212.1 550.0L212.1 550.0L212.1 530.9Q212.1 529.3 213.0 528.3Q213.9 527.4 215.4 527.4L215.4 527.4Q216.9 527.4 217.8 528.3Q218.7 529.3 218.7 530.9L218.7 530.9L218.7 532.5L218.8 532.5Q219.3 530.2 220.7 528.9Q222.1 527.5 224.0 527.5L224.0 527.5Q225.4 527.5 226.2 528.2L226.2 528.2Q227.2 528.9 227.2 530.7L227.2 530.7Q227.2 532.3 226.2 533.2L226.2 533.2Q225.2 534.0 223.2 534.1L223.2 534.1Q221.0 534.1 220.0 535.3Q219.0 536.5 219.0 538.8L219.0 538.8L219.0 550.0Q219.0 551.7 218.1 552.6Q217.2 553.6 215.6 553.6ZM242.6 553.6L242.6 553.6Q237.5 553.6 234.1 551.8Q230.8 550.0 229.7 547.1L229.7 547.1Q229.4 546.1 229.4 545.2L229.4 545.2Q229.4 543.8 230.2 543.0Q231.1 542.1 232.5 542.1L232.5 542.1Q233.6 542.1 234.3 542.6Q235.1 543.1 235.7 544.2L235.7 544.2Q236.5 546.1 238.4 547.0Q240.2 547.9 242.7 547.9L242.7 547.9Q245.6 547.9 247.3 546.7Q249.1 545.5 249.1 543.6L249.1 543.6Q249.1 541.9 247.8 540.9Q246.4 539.9 243.3 539.3L243.3 539.3L239.7 538.6Q229.6 536.6 229.6 528.9L229.6 528.9Q229.6 525.9 231.3 523.5Q232.9 521.2 235.9 519.9Q238.8 518.7 242.5 518.7L242.5 518.7Q247.2 518.7 250.5 520.5Q253.8 522.4 254.9 525.7L254.9 525.7Q255.1 526.4 255.1 527.2L255.1 527.2Q255.1 528.5 254.3 529.3Q253.5 530.1 252.1 530.1L252.1 530.1Q250.9 530.1 250.1 529.6Q249.4 529.1 248.8 528.0L248.8 528.0Q247.2 524.4 242.5 524.4L242.5 524.4Q239.9 524.4 238.3 525.5Q236.7 526.6 236.7 528.5L236.7 528.5Q236.7 530.1 238.1 531.1Q239.4 532.1 242.4 532.7L242.4 532.7L245.9 533.4Q251.3 534.5 253.7 536.7Q256.2 539.0 256.2 542.8L256.2 542.8Q256.2 547.8 252.5 550.7Q248.9 553.6 242.6 553.6ZM266.0 552.6Q265.0 553.6 263.5 553.6Q261.9 553.6 261.0 552.6Q260.1 551.7 260.1 550.0L260.1 550.0L260.1 522.2Q260.1 520.6 261.0 519.7Q261.9 518.7 263.4 518.7L263.4 518.7Q265.0 518.7 265.9 519.7Q266.8 520.6 266.8 522.2L266.8 522.2L266.8 532.4L266.9 532.4Q267.9 530.0 270.0 528.7Q272 527.5 274.8 527.5L274.8 527.5Q279.0 527.5 281.3 530.0Q283.6 532.5 283.6 536.9L283.6 536.9L283.6 550.0Q283.6 551.7 282.7 552.6Q281.7 553.6 280.2 553.6Q278.6 553.6 277.7 552.6Q276.8 551.7 276.8 550.0L276.8 550.0L276.8 538.3Q276.8 535.9 275.6 534.5Q274.3 533.1 272.0 533.1L272.0 533.1Q269.7 533.1 268.3 534.7Q266.9 536.2 266.9 538.7L266.9 538.7L266.9 550.0Q266.9 551.7 266.0 552.6ZM294.1 523.8Q293.0 524.8 291.5 524.8Q290.0 524.8 288.9 523.8Q287.8 522.8 287.8 521.3L287.8 521.3Q287.8 519.8 288.9 518.8Q290.0 517.7 291.5 517.7Q293.0 517.7 294.1 518.8Q295.2 519.8 295.2 521.3L295.2 521.3Q295.2 522.8 294.1 523.8ZM294.0 552.6Q293.1 553.6 291.5 553.6Q289.9 553.6 289.0 552.6Q288.1 551.7 288.1 550.0L288.1 550.0L288.1 531.0Q288.1 529.3 289.0 528.4Q289.9 527.4 291.5 527.4Q293.1 527.4 294.0 528.4Q294.9 529.3 294.9 531.0L294.9 531.0L294.9 550.0Q294.9 551.7 294.0 552.6ZM307.2 552.6Q306.3 553.6 304.7 553.6Q303.1 553.6 302.2 552.6Q301.3 551.7 301.3 550.0L301.3 550.0L301.3 533.1L300.0 533.1Q298.9 533.1 298.2 532.4Q297.5 531.7 297.5 530.6Q297.5 529.4 298.2 528.7Q298.9 528.1 300.0 528.1L300.0 528.1L301.3 528.1L301.3 526.2Q301.3 522.5 303.1 520.7Q304.9 519.0 308.5 518.9L308.5 518.9Q311.1 518.9 312.4 519.7Q313.6 520.4 313.6 521.7L313.6 521.7Q313.6 523.1 312.2 523.5L312.2 523.5Q311.6 523.7 310.9 523.7L310.9 523.7Q309.4 523.7 308.7 524.4Q308.0 525.1 308.0 526.5L308.0 526.5L308.0 528.1L310.9 528.1Q312.0 528.1 312.7 528.7Q313.4 529.4 313.4 530.6Q313.4 531.7 312.7 532.4Q312.0 533.1 310.9 533.1L310.9 533.1L308.1 533.1L308.1 550.0Q308.1 551.7 307.2 552.6ZM318.4 546.6L318.4 546.6L318.4 533.1L317.1 533.1Q315.9 533.1 315.1 532.4Q314.4 531.7 314.4 530.5Q314.4 529.3 315.1 528.6Q315.9 527.9 317.1 527.9L317.1 527.9L318.4 527.9L318.4 525.1Q318.4 523.5 319.3 522.5Q320.2 521.6 321.8 521.6Q323.4 521.6 324.3 522.5Q325.2 523.5 325.2 525.1L325.2 525.1L325.2 527.9L327.6 527.9Q328.9 527.9 329.6 528.6Q330.3 529.3 330.3 530.5Q330.3 531.7 329.6 532.4Q328.9 533.1 327.6 533.1L327.6 533.1L325.2 533.1L325.2 545.1Q325.2 546.5 325.7 547.1Q326.2 547.7 327.3 547.8L327.3 547.8L327.8 547.8Q329.1 548.0 329.7 548.5Q330.4 549.1 330.4 550.3L330.4 550.3Q330.4 551.8 329.0 552.6Q327.7 553.3 325.5 553.3L325.5 553.3L325.3 553.3Q318.4 553.3 318.4 546.6Z "/><mask id="satori_om-id-0-1-1"><rect x="924" y="524" width="236" height="36" fill="#fff"/></mask><path fill="#8e8e8e" d="M927.9 552.6Q927.5 552.9 927.0 552.9Q926.4 552.9 926.1 552.6Q925.8 552.2 925.8 551.7L925.8 551.7L925.8 532.6Q925.8 532.0 926.1 531.6Q926.5 531.3 927.1 531.3Q927.6 531.3 928.0 531.6Q928.3 532.0 928.3 532.6L928.3 532.6L928.3 540.0L928.4 540.0Q929.1 538.7 930.4 537.9Q931.7 537.2 933.3 537.2L933.3 537.2Q936.2 537.2 937.9 539.3Q939.7 541.5 939.7 545.0L939.7 545.0Q939.7 548.6 937.9 550.8Q936.2 552.9 933.2 552.9L933.2 552.9Q931.6 552.9 930.3 552.2Q929.0 551.4 928.3 550.1L928.3 550.1L928.2 550.1L928.2 551.7Q928.2 552.2 927.9 552.6ZM932.7 550.7L932.7 550.7Q934.8 550.7 935.9 549.2Q937.1 547.7 937.1 545.0L937.1 545.0Q937.1 542.5 935.9 540.9Q934.8 539.4 932.7 539.4L932.7 539.4Q930.8 539.4 929.6 541.0Q928.3 542.5 928.3 545.0L928.3 545.0Q928.3 547.6 929.6 549.1Q930.8 550.7 932.7 550.7ZM943.8 558.4L943.8 558.4Q942.9 558.4 942.4 558.0Q941.9 557.7 941.9 557.1L941.9 557.1Q941.9 556.7 942.1 556.4Q942.4 556.2 942.9 556.2L942.9 556.2Q943.1 556.2 943.3 556.2Q943.5 556.2 943.7 556.2L943.7 556.2Q945.4 556.2 946.2 553.7L946.2 553.7L946.6 552.7L941.3 539.0Q941.2 538.6 941.2 538.3L941.2 538.3Q941.2 537.8 941.6 537.5Q941.9 537.2 942.5 537.2L942.5 537.2Q943.4 537.2 943.7 538.1L943.7 538.1L947.9 550.1L948.0 550.1L952.2 538.1Q952.3 537.6 952.6 537.4Q952.9 537.2 953.4 537.2L953.4 537.2Q953.9 537.2 954.3 537.5Q954.6 537.8 954.6 538.3L954.6 538.3Q954.6 538.6 954.5 539.0L954.5 539.0L948.9 553.7Q947.9 556.4 946.8 557.4Q945.7 558.4 943.8 558.4Z M965.7 552.5Q965.3 552.9 964.7 552.9Q964.1 552.9 963.8 552.5Q963.4 552.1 963.4 551.5L963.4 551.5L963.4 532.9Q963.4 532.3 963.8 531.9Q964.1 531.5 964.7 531.5L964.7 531.5L970.9 531.5Q973.9 531.5 975.8 533.4Q977.7 535.3 977.7 538.3L977.7 538.3Q977.7 541.3 975.8 543.2Q973.9 545.1 970.9 545.1L970.9 545.1L966.0 545.1L966.0 551.5Q966.0 552.1 965.7 552.5ZM966.0 533.9L966.0 542.8L970.3 542.8Q972.5 542.8 973.8 541.6Q975.0 540.4 975.0 538.3Q975.0 536.2 973.8 535.0Q972.5 533.9 970.3 533.9L970.3 533.9L966.0 533.9ZM984.8 552.9L984.8 552.9Q982.5 552.9 981.1 551.7Q979.7 550.4 979.7 548.4L979.7 548.4Q979.7 546.4 981.2 545.2Q982.6 544.1 985.2 543.9L985.2 543.9L989.6 543.7L989.6 542.4Q989.6 541.0 988.7 540.2Q987.9 539.4 986.3 539.4L986.3 539.4Q985.0 539.4 984.1 539.9Q983.3 540.4 982.6 541.5L982.6 541.5Q982.3 542.1 981.6 542.1L981.6 542.1Q981.1 542.1 980.8 541.8Q980.5 541.5 980.5 541.0Q980.5 540.5 980.8 539.9L980.8 539.9Q981.4 538.7 982.9 537.9Q984.5 537.2 986.3 537.2L986.3 537.2Q989.0 537.2 990.6 538.5Q992.2 539.9 992.2 542.1L992.2 542.1L992.2 551.6Q992.2 552.2 991.8 552.6Q991.5 552.9 991.0 552.9L991.0 552.9Q990.4 552.9 990.1 552.6Q989.7 552.2 989.7 551.6L989.7 551.6L989.7 550.0L989.7 550.0Q989.0 551.3 987.7 552.1Q986.3 552.9 984.8 552.9ZM985.3 550.8L985.3 550.8Q987.1 550.8 988.4 549.6Q989.6 548.5 989.6 546.9L989.6 546.9L989.6 545.6L985.5 545.9Q984.0 546.0 983.1 546.6Q982.3 547.3 982.3 548.4Q982.3 549.4 983.1 550.1Q984.0 550.8 985.3 550.8ZM996.2 549.1L996.2 549.1L996.2 539.5L994.9 539.5Q994.4 539.5 994.1 539.3Q993.8 539.0 993.8 538.5L993.8 538.5Q993.8 538.0 994.1 537.7Q994.4 537.4 994.9 537.4L994.9 537.4L996.2 537.4L996.2 534.8Q996.2 534.2 996.6 533.8Q996.9 533.5 997.5 533.5Q998.0 533.5 998.4 533.8Q998.8 534.2 998.8 534.8L998.8 534.8L998.8 537.4L1000.7 537.4Q1001.3 537.4 1001.6 537.7Q1001.9 538.0 1001.9 538.5L1001.9 538.5Q1001.9 539.0 1001.6 539.3Q1001.3 539.5 1000.7 539.5L1000.7 539.5L998.8 539.5L998.8 548.6Q998.8 549.6 999.2 550.0Q999.6 550.5 1000.5 550.6L1000.5 550.6L1000.7 550.6Q1001.9 550.7 1001.9 551.6L1001.9 551.6Q1001.9 552.2 1001.5 552.5Q1001.1 552.8 1000.1 552.8L1000.1 552.8L999.9 552.8Q996.2 552.8 996.2 549.1ZM1006.6 552.5Q1006.3 552.9 1005.7 552.9Q1005.2 552.9 1004.8 552.5Q1004.4 552.2 1004.4 551.6L1004.4 551.6L1004.4 538.5Q1004.4 537.9 1004.8 537.5Q1005.1 537.2 1005.6 537.2Q1006.2 537.2 1006.5 537.5Q1006.8 537.9 1006.8 538.5L1006.8 538.5L1006.8 539.9L1006.9 539.9Q1007.2 538.7 1008.2 537.9Q1009.2 537.2 1010.4 537.2L1010.4 537.2Q1011.2 537.2 1011.6 537.5L1011.6 537.5Q1011.9 537.8 1011.9 538.4L1011.9 538.4Q1011.9 539.0 1011.5 539.3L1011.5 539.3Q1011.1 539.6 1010.3 539.6L1010.3 539.6Q1008.6 539.6 1007.8 540.6Q1007.0 541.6 1007.0 543.2L1007.0 543.2L1007.0 551.6Q1007.0 552.2 1006.6 552.5ZM1015.1 534.9L1015.1 534.9Q1014.4 534.9 1014.0 534.4Q1013.5 533.9 1013.5 533.3L1013.5 533.3Q1013.5 532.6 1014.0 532.2Q1014.4 531.7 1015.1 531.7L1015.1 531.7Q1015.7 531.7 1016.2 532.2Q1016.7 532.6 1016.7 533.3L1016.7 533.3Q1016.7 533.9 1016.2 534.4Q1015.7 534.9 1015.1 534.9ZM1016.0 552.5Q1015.6 552.9 1015.1 552.9Q1014.5 552.9 1014.2 552.5Q1013.8 552.2 1013.8 551.6L1013.8 551.6L1013.8 538.5Q1013.8 537.9 1014.2 537.5Q1014.5 537.2 1015.1 537.2Q1015.6 537.2 1016.0 537.5Q1016.4 537.9 1016.4 538.5L1016.4 538.5L1016.4 551.6Q1016.4 552.2 1016.0 552.5ZM1026.1 552.9L1026.1 552.9Q1022.9 552.9 1021.0 550.8Q1019.1 548.7 1019.1 545.1Q1019.1 541.5 1021.0 539.3Q1022.9 537.2 1026.1 537.2L1026.1 537.2Q1028.2 537.2 1029.9 538.2Q1031.6 539.3 1032.0 540.9L1032.0 540.9Q1032.1 541.2 1032.1 541.4L1032.1 541.4Q1032.1 542.0 1031.8 542.3Q1031.5 542.6 1031.0 542.6L1031.0 542.6Q1030.6 542.6 1030.3 542.4Q1030.1 542.2 1029.8 541.7L1029.8 541.7Q1028.6 539.4 1026.1 539.4L1026.1 539.4Q1024.1 539.4 1022.9 541.0Q1021.6 542.5 1021.6 545.0L1021.6 545.0Q1021.6 547.6 1022.9 549.2Q1024.1 550.7 1026.1 550.7L1026.1 550.7Q1027.4 550.7 1028.3 550.1Q1029.2 549.6 1029.8 548.4L1029.8 548.4Q1030.1 547.9 1030.3 547.7Q1030.6 547.5 1031.0 547.5L1031.0 547.5Q1031.5 547.5 1031.8 547.8Q1032.1 548.2 1032.1 548.7L1032.1 548.7Q1032.1 548.9 1032.0 549.3L1032.0 549.3Q1031.4 550.9 1029.8 551.9Q1028.2 552.9 1026.1 552.9ZM1041.2 552.9L1041.2 552.9Q1037.8 552.9 1036.0 550.9Q1034.1 548.8 1034.1 545.1L1034.1 545.1Q1034.1 541.5 1036.0 539.3Q1037.8 537.2 1041.0 537.2L1041.0 537.2Q1043.9 537.2 1045.8 539.1Q1047.6 541.1 1047.6 544.3L1047.6 544.3Q1047.6 544.9 1047.3 545.3Q1046.9 545.7 1046.2 545.7L1046.2 545.7L1036.7 545.7Q1036.7 548.0 1037.9 549.4Q1039.1 550.7 1041.1 550.7L1041.1 550.7Q1042.5 550.7 1043.4 550.2Q1044.3 549.6 1045.2 548.3L1045.2 548.3Q1045.6 547.8 1046.2 547.8L1046.2 547.8Q1046.7 547.8 1047.0 548.1Q1047.3 548.4 1047.3 548.9L1047.3 548.9Q1047.3 549.2 1047.1 549.7L1047.1 549.7Q1046.4 551.2 1044.8 552.1Q1043.3 552.9 1041.2 552.9ZM1036.7 543.7L1036.7 543.7L1045.0 543.7Q1045.0 541.8 1043.8 540.6Q1042.7 539.4 1041.0 539.4L1041.0 539.4Q1039.2 539.4 1038.0 540.6Q1036.8 541.8 1036.7 543.7Z M1059.0 552.5Q1058.7 552.9 1058.1 552.9Q1057.5 552.9 1057.1 552.5Q1056.7 552.1 1056.7 551.5L1056.7 551.5L1056.7 532.7Q1056.7 532.1 1057.1 531.7Q1057.5 531.3 1058.1 531.3Q1058.7 531.3 1059.0 531.7Q1059.4 532.1 1059.4 532.7L1059.4 532.7L1059.4 541.8L1059.5 541.8L1068.9 531.8Q1069.4 531.3 1070.0 531.3L1070.0 531.3Q1070.5 531.3 1070.9 531.7Q1071.2 532.0 1071.2 532.5L1071.2 532.5Q1071.2 533.0 1070.9 533.3L1070.9 533.3L1063.6 540.9L1071.7 550.6Q1072.1 551.1 1072.1 551.6L1072.1 551.6Q1072.1 552.2 1071.7 552.5Q1071.3 552.9 1070.8 552.9L1070.8 552.9Q1070.1 552.9 1069.6 552.2L1069.6 552.2L1061.7 542.8L1059.4 545.3L1059.4 551.5Q1059.4 552.1 1059.0 552.5ZM1081.2 552.9L1081.2 552.9Q1077.8 552.9 1075.9 550.9Q1074.1 548.8 1074.1 545.1L1074.1 545.1Q1074.1 541.5 1075.9 539.3Q1077.8 537.2 1081.0 537.2L1081.0 537.2Q1083.9 537.2 1085.8 539.1Q1087.6 541.1 1087.6 544.3L1087.6 544.3Q1087.6 544.9 1087.2 545.3Q1086.9 545.7 1086.2 545.7L1086.2 545.7L1076.7 545.7Q1076.7 548.0 1077.9 549.4Q1079.1 550.7 1081.1 550.7L1081.1 550.7Q1082.5 550.7 1083.4 550.2Q1084.3 549.6 1085.2 548.3L1085.2 548.3Q1085.6 547.8 1086.2 547.8L1086.2 547.8Q1086.7 547.8 1087.0 548.1Q1087.3 548.4 1087.3 548.9L1087.3 548.9Q1087.3 549.2 1087.1 549.7L1087.1 549.7Q1086.4 551.2 1084.8 552.1Q1083.3 552.9 1081.2 552.9ZM1076.7 543.7L1076.7 543.7L1085.0 543.7Q1084.9 541.8 1083.8 540.6Q1082.7 539.4 1080.9 539.4L1080.9 539.4Q1079.1 539.4 1078.0 540.6Q1076.8 541.8 1076.7 543.7ZM1092.4 552.5Q1092.0 552.9 1091.4 552.9Q1090.9 552.9 1090.5 552.5Q1090.2 552.2 1090.2 551.6L1090.2 551.6L1090.2 538.5Q1090.2 537.9 1090.5 537.5Q1090.8 537.2 1091.4 537.2Q1091.9 537.2 1092.2 537.5Q1092.6 537.9 1092.6 538.5L1092.6 538.5L1092.6 539.9L1092.6 539.9Q1093.3 538.6 1094.5 537.9Q1095.8 537.2 1097.5 537.2L1097.5 537.2Q1100.0 537.2 1101.3 538.7Q1102.7 540.2 1102.7 542.8L1102.7 542.8L1102.7 551.6Q1102.7 552.2 1102.4 552.5Q1102.0 552.9 1101.5 552.9Q1100.9 552.9 1100.6 552.5Q1100.2 552.2 1100.2 551.6L1100.2 551.6L1100.2 543.2Q1100.2 541.4 1099.3 540.4Q1098.4 539.4 1096.7 539.4L1096.7 539.4Q1094.9 539.4 1093.8 540.6Q1092.7 541.8 1092.7 543.7L1092.7 543.7L1092.7 551.6Q1092.7 552.2 1092.4 552.5ZM1108.2 552.5Q1107.8 552.9 1107.3 552.9Q1106.7 552.9 1106.3 552.5Q1106.0 552.2 1106.0 551.6L1106.0 551.6L1106.0 538.5Q1106.0 537.9 1106.3 537.5Q1106.7 537.2 1107.2 537.2Q1107.7 537.2 1108.0 537.5Q1108.4 537.9 1108.4 538.5L1108.4 538.5L1108.4 539.9L1108.4 539.9Q1109.0 538.6 1110.1 537.9Q1111.3 537.2 1112.8 537.2L1112.8 537.2Q1114.3 537.2 1115.4 537.9Q1116.5 538.7 1117.0 540.1L1117.0 540.1L1117.1 540.1Q1117.7 538.7 1119.0 537.9Q1120.3 537.2 1121.9 537.2L1121.9 537.2Q1124.1 537.2 1125.5 538.5Q1126.8 539.9 1126.8 542.1L1126.8 542.1L1126.8 551.6Q1126.8 552.2 1126.5 552.5Q1126.1 552.9 1125.6 552.9Q1125.0 552.9 1124.6 552.5Q1124.3 552.2 1124.3 551.6L1124.3 551.6L1124.3 542.7Q1124.3 541.2 1123.5 540.3Q1122.6 539.4 1121.1 539.4Q1119.6 539.4 1118.6 540.4Q1117.7 541.4 1117.7 543.0L1117.7 543.0L1117.7 551.6Q1117.7 552.2 1117.3 552.5Q1117.0 552.9 1116.4 552.9Q1115.8 552.9 1115.5 552.5Q1115.1 552.2 1115.1 551.6L1115.1 551.6L1115.1 542.5Q1115.1 541.1 1114.3 540.2Q1113.4 539.4 1112.0 539.4L1112.0 539.4Q1110.5 539.4 1109.5 540.5Q1108.5 541.5 1108.5 543.1L1108.5 543.1L1108.5 551.6Q1108.5 552.2 1108.2 552.5ZM1136.4 552.9L1136.4 552.9Q1133.2 552.9 1131.3 550.8Q1129.3 548.7 1129.3 545.0Q1129.3 541.4 1131.3 539.3Q1133.2 537.2 1136.4 537.2L1136.4 537.2Q1139.6 537.2 1141.5 539.3Q1143.4 541.4 1143.4 545.0L1143.4 545.0Q1143.4 548.7 1141.5 550.8Q1139.6 552.9 1136.4 552.9ZM1133.1 549.2Q1134.3 550.7 1136.4 550.7Q1138.4 550.7 1139.6 549.2Q1140.8 547.7 1140.8 545.0Q1140.8 542.4 1139.6 540.9Q1138.4 539.4 1136.4 539.4Q1134.3 539.4 1133.1 540.9Q1131.9 542.4 1131.9 545.0Q1131.9 547.7 1133.1 549.2ZM1152.5 535.6L1152.5 535.6Q1152.1 535.6 1151.9 535.4Q1151.6 535.2 1151.6 534.8Q1151.6 534.5 1151.8 534.2L1151.8 534.2L1154.0 531.1Q1154.3 530.6 1154.6 530.5Q1154.8 530.3 1155.1 530.3L1155.1 530.3Q1155.6 530.3 1155.9 530.6Q1156.2 530.9 1156.2 531.3L1156.2 531.3Q1156.2 531.7 1155.9 532.1L1155.9 532.1L1153.4 535.1Q1153.0 535.6 1152.5 535.6ZM1152.4 552.9L1152.4 552.9Q1149.0 552.9 1147.1 550.9Q1145.3 548.8 1145.3 545.1L1145.3 545.1Q1145.3 541.5 1147.1 539.3Q1149.0 537.2 1152.2 537.2L1152.2 537.2Q1155.1 537.2 1156.9 539.1Q1158.8 541.1 1158.8 544.3L1158.8 544.3Q1158.8 544.9 1158.4 545.3Q1158.1 545.7 1157.4 545.7L1157.4 545.7L1147.9 545.7Q1147.9 548.0 1149.1 549.4Q1150.2 550.7 1152.3 550.7L1152.3 550.7Q1153.6 550.7 1154.6 550.2Q1155.5 549.6 1156.4 548.3L1156.4 548.3Q1156.8 547.8 1157.3 547.8L1157.3 547.8Q1157.9 547.8 1158.2 548.1Q1158.5 548.4 1158.5 548.9L1158.5 548.9Q1158.5 549.2 1158.3 549.7L1158.3 549.7Q1157.6 551.2 1156.0 552.1Q1154.5 552.9 1152.4 552.9ZM1147.9 543.7L1147.9 543.7L1156.2 543.7Q1156.1 541.8 1155.0 540.6Q1153.9 539.4 1152.1 539.4L1152.1 539.4Q1150.3 539.4 1149.2 540.6Q1148.0 541.8 1147.9 543.7Z "/></svg>