<svg width="1200" height="630" viewBox="0 0 1200 630" xmlns="http://www.w3.org/2000/svg"><mask id="satori_om-id"><rect x="0" y="0" width="1200" height="630" fill="#fff"/></mask><mask id="satori_om-id-0"><rect x="0" y="0" width="1200" height="630" fill="#fff"/></mask><rect x="0" y="0" width="1200" height="630" fill="#f2f2f2"/><mask id="satori_om-id-0-0"><rect x="0" y="0" width="1200" height="441" fill="#fff"/></mask><mask id="satori_om-id-0-0-0"><rect x="40" y="136" width="1120" height="36" fill="#fff"/></mask><path fill="#8e8e8e" d="M49.1 164.5Q48.6 164.9 47.9 164.9Q47.1 164.9 46.7 164.5Q46.2 164.1 46.0 163.3L46.0 163.3L41.1 145.8Q41.0 145.2 41.0 144.8L41.0 144.8Q41.0 144.1 41.4 143.7Q41.8 143.3 42.6 143.3L42.6 143.3Q43.9 143.3 44.2 144.7L44.2 144.7L48.0 160.1L48.1 160.1L52.2 144.9Q52.5 144.1 52.9 143.7Q53.3 143.3 54.1 143.3L54.1 143.3Q54.8 143.3 55.3 143.7Q55.7 144.1 55.9 144.9L55.9 144.9L60.1 160.1L60.2 160.1L64.0 144.7Q64.3 143.3 65.6 143.3L65.6 143.3Q66.3 143.3 66.8 143.7Q67.2 144.1 67.2 144.8L67.2 144.8Q67.2 145.2 67.1 145.8L67.1 145.8L62.2 163.3Q61.9 164.1 61.5 164.5Q61.0 164.9 60.3 164.9L60.3 164.9Q59.5 164.9 59.1 164.5Q58.6 164.2 58.4 163.3L58.4 163.3L54.2 148.7L54.0 148.7L49.8 163.3Q49.6 164.1 49.1 164.5ZM76.4 165.0L76.4 165.0Q72.9 165.0 71.0 162.9Q69.0 160.8 69.0 157.0L69.0 157.0Q69.0 153.4 71.0 151.2Q72.9 149.0 76.2 149.0L76.2 149.0Q79.3 149.0 81.2 151.0Q83.1 153.0 83.1 156.1L83.1 156.1Q83.1 156.9 82.7 157.3Q82.3 157.8 81.6 157.8L81.6 157.8L72.2 157.8L72.2 157.8Q72.2 159.9 73.3 161.2Q74.5 162.4 76.3 162.4L76.3 162.4Q77.6 162.4 78.5 161.9Q79.4 161.4 80.3 160.2L80.3 160.2Q80.8 159.6 81.4 159.6L81.4 159.6Q82.0 159.6 82.4 160.0Q82.8 160.3 82.8 160.9L82.8 160.9Q82.8 161.3 82.5 161.8L82.5 161.8Q81.8 163.3 80.2 164.1Q78.6 165.0 76.4 165.0ZM72.3 155.5L72.3 155.5L80.0 155.5Q79.9 153.7 78.9 152.6Q77.8 151.5 76.2 151.5L76.2 151.5Q74.5 151.5 73.5 152.6Q72.4 153.7 72.3 155.5ZM91.4 164.9L91.4 164.9Q88.4 164.9 86.7 162.8Q84.9 160.6 84.9 157.0Q84.9 153.3 86.6 151.2Q88.4 149.0 91.3 149.0L91.3 149.0Q93.0 149.0 94.2 149.8Q95.5 150.5 96.2 151.8L96.2 151.8L96.2 151.8L96.2 144.9Q96.2 144.1 96.7 143.7Q97.1 143.2 97.8 143.2L97.8 143.2Q98.5 143.2 99.0 143.7Q99.4 144.2 99.4 144.9L99.4 144.9L99.4 163.4Q99.4 164.1 99.0 164.5Q98.5 164.9 97.8 164.9L97.8 164.9Q97.1 164.9 96.7 164.5Q96.2 164.1 96.2 163.4L96.2 163.4L96.2 161.9L96.2 161.9Q95.6 163.3 94.3 164.1Q93.1 164.9 91.4 164.9ZM92.2 162.2L92.2 162.2Q94.0 162.2 95.1 160.8Q96.3 159.4 96.3 157.0L96.3 157.0Q96.3 154.6 95.1 153.1Q94.0 151.7 92.2 151.7L92.2 151.7Q90.3 151.7 89.2 153.1Q88.1 154.5 88.1 157.0L88.1 157.0Q88.1 159.4 89.2 160.8Q90.3 162.2 92.2 162.2ZM104.2 164.9L104.2 164.9Q103.5 164.9 103.1 164.5Q102.6 164.0 102.6 163.3L102.6 163.3L102.6 150.6Q102.6 149.8 103.0 149.4Q103.5 149.0 104.1 149.0Q104.8 149.0 105.3 149.4Q105.7 149.9 105.7 150.6L105.7 150.6L105.7 151.8L105.8 151.8Q107.1 149.0 110.6 149.0L110.6 149.0Q113.1 149.0 114.5 150.5Q115.9 152.0 115.9 154.7L115.9 154.7L115.9 163.3Q115.9 164.0 115.5 164.5Q115.0 164.9 114.3 164.9L114.3 164.9Q113.6 164.9 113.2 164.5Q112.7 164.0 112.7 163.3L112.7 163.3L112.7 155.3Q112.7 153.5 111.9 152.6Q111.1 151.7 109.5 151.7L109.5 151.7Q107.8 151.7 106.8 152.8Q105.8 153.9 105.8 155.7L105.8 155.7L105.8 163.3Q105.8 164.0 105.4 164.5Q104.9 164.9 104.2 164.9ZM125.6 165.0L125.6 165.0Q122.2 165.0 120.2 162.9Q118.3 160.8 118.3 157.0L118.3 157.0Q118.3 153.4 120.2 151.2Q122.2 149.0 125.4 149.0L125.4 149.0Q128.5 149.0 130.4 151.0Q132.4 153.0 132.4 156.1L132.4 156.1Q132.4 156.9 131.9 157.3Q131.5 157.8 130.8 157.8L130.8 157.8L121.5 157.8L121.5 157.8Q121.5 159.9 122.6 161.2Q123.7 162.4 125.6 162.4L125.6 162.4Q126.9 162.4 127.8 161.9Q128.7 161.4 129.6 160.2L129.6 160.2Q130.0 159.6 130.7 159.6L130.7 159.6Q131.3 159.6 131.6 160.0Q132.0 160.3 132.0 160.9L132.0 160.9Q132.0 161.3 131.8 161.8L131.8 161.8Q131.0 163.3 129.4 164.1Q127.8 165.0 125.6 165.0ZM121.5 155.5L121.5 155.5L129.2 155.5Q129.1 153.7 128.1 152.6Q127.1 151.5 125.4 151.5L125.4 151.5Q123.8 151.5 122.7 152.6Q121.6 153.7 121.5 155.5ZM140.5 165.0L140.5 165.0Q138.2 165.0 136.7 164.1Q135.1 163.3 134.5 161.8L134.5 161.8Q134.4 161.5 134.4 161.2L134.4 161.2Q134.4 160.6 134.7 160.2Q135.1 159.9 135.7 159.9L135.7 159.9Q136.5 159.9 137.1 160.7L137.1 160.7Q137.7 161.7 138.5 162.1Q139.3 162.5 140.6 162.5L140.6 162.5Q142.0 162.5 142.8 162.0Q143.7 161.4 143.7 160.5L143.7 160.5Q143.7 159.7 143.2 159.3Q142.6 158.8 141.4 158.5L141.4 158.5L139.0 158.0Q134.5 156.9 134.5 153.6L134.5 153.6Q134.5 151.5 136.2 150.2Q137.9 149.0 140.6 149.0L140.6 149.0Q142.7 149.0 144.2 149.9Q145.8 150.8 146.1 152.2L146.1 152.2Q146.2 152.6 146.2 152.7L146.2 152.7Q146.2 153.2 145.8 153.5Q145.5 153.9 144.9 153.9L144.9 153.9Q144.1 153.9 143.7 153.2L143.7 153.2Q143.1 152.3 142.4 151.8Q141.6 151.4 140.5 151.4L140.5 151.4Q139.2 151.4 138.4 152.0Q137.6 152.5 137.6 153.4L137.6 153.4Q137.6 154.9 140.0 155.5L140.0 155.5L142.4 156.0Q144.8 156.6 145.8 157.5Q146.9 158.5 146.9 160.2L146.9 160.2Q146.9 162.3 145.1 163.6Q143.3 165.0 140.5 165.0ZM155.1 164.9L155.1 164.9Q152.2 164.9 150.4 162.8Q148.6 160.6 148.6 157.0Q148.6 153.3 150.4 151.2Q152.1 149.0 155.1 149.0L155.1 149.0Q156.7 149.0 158.0 149.8Q159.2 150.5 159.9 151.8L159.9 151.8L160.0 151.8L160.0 144.9Q160.0 144.1 160.4 143.7Q160.8 143.2 161.6 143.2L161.6 143.2Q162.3 143.2 162.7 143.7Q163.1 144.2 163.1 144.9L163.1 144.9L163.1 163.4Q163.1 164.1 162.7 164.5Q162.3 164.9 161.6 164.9L161.6 164.9Q160.9 164.9 160.4 164.5Q160.0 164.1 160.0 163.4L160.0 163.4L160.0 161.9L159.9 161.9Q159.3 163.3 158.1 164.1Q156.8 164.9 155.1 164.9ZM155.9 162.2L155.9 162.2Q157.8 162.2 158.9 160.8Q160.0 159.4 160.0 157.0L160.0 157.0Q160.0 154.6 158.9 153.1Q157.8 151.7 155.9 151.7L155.9 151.7Q154.1 151.7 153.0 153.1Q151.9 154.5 151.9 157.0L151.9 157.0Q151.9 159.4 153.0 160.8Q154.1 162.2 155.9 162.2ZM170.9 164.9L170.9 164.9Q168.6 164.9 167.2 163.6Q165.7 162.3 165.7 160.3L165.7 160.3Q165.7 158.3 167.2 157.1Q168.7 155.9 171.5 155.7L171.5 155.7L175.7 155.5L175.7 154.3Q175.7 153.0 174.9 152.3Q174.1 151.6 172.6 151.6L172.6 151.6Q171.5 151.6 170.7 152.0Q169.9 152.5 169.2 153.5L169.2 153.5Q168.7 154.2 167.9 154.2L167.9 154.2Q167.3 154.2 166.9 153.8Q166.5 153.4 166.5 152.9L166.5 152.9Q166.5 152.3 166.8 151.8L166.8 151.8Q167.4 150.5 169.0 149.8Q170.6 149.0 172.7 149.0L172.7 149.0Q175.5 149.0 177.2 150.4Q178.9 151.7 178.9 154.0L178.9 154.0L178.9 163.3Q178.9 164.1 178.4 164.5Q178.0 164.9 177.3 164.9L177.3 164.9Q176.7 164.9 176.3 164.5Q175.8 164.1 175.8 163.4L175.8 163.4L175.8 162.1L175.7 162.1Q175.1 163.4 173.7 164.2Q172.4 164.9 170.9 164.9ZM171.7 162.4L171.7 162.4Q173.4 162.4 174.6 161.4Q175.7 160.4 175.7 158.9L175.7 158.9L175.7 157.7L171.9 157.9Q170.5 158.0 169.7 158.6Q168.9 159.2 168.9 160.2L168.9 160.2Q168.9 161.2 169.7 161.8Q170.5 162.4 171.7 162.4ZM183.8 170.4L183.8 170.4Q182.7 170.4 182.1 170.0Q181.5 169.6 181.5 168.9L181.5 168.9Q181.5 168.4 181.9 168.1Q182.2 167.8 182.8 167.8L182.8 167.8Q182.9 167.8 183.2 167.8Q183.4 167.8 183.6 167.8L183.6 167.8Q185.2 167.8 185.9 165.7L185.9 165.7L186.2 164.8L181.1 151.3Q180.9 150.9 180.9 150.4L180.9 150.4Q180.9 149.8 181.4 149.4Q181.8 149.0 182.5 149.0L182.5 149.0Q183.1 149.0 183.5 149.3Q183.8 149.5 184.0 150.2L184.0 150.2L188.0 161.8L188.0 161.8L191.9 150.2Q192.1 149.5 192.5 149.3Q192.9 149.0 193.5 149.0L193.5 149.0Q194.1 149.0 194.6 149.4Q195.0 149.8 195.0 150.4L195.0 150.4Q195.0 150.8 194.8 151.3L194.8 151.3L189.5 165.4Q188.5 168.2 187.2 169.3Q186.0 170.4 183.8 170.4ZM199.5 161.1L199.5 161.1Q200.1 161.1 200.5 161.5Q200.9 161.8 200.9 162.4L200.9 162.4Q200.9 162.8 200.8 163.3L200.8 163.3L199.6 168.3Q199.3 169.4 198.2 169.4L198.2 169.4Q197.6 169.4 197.3 169.1Q197.0 168.7 197.0 168.2L197.0 168.2Q197.0 168.1 197.0 167.8L197.0 167.8L198.0 162.4Q198.2 161.1 199.5 161.1Z M218.1 164.9L218.1 164.9Q217.4 164.9 216.9 164.5Q216.5 164.0 216.5 163.3L216.5 163.3L216.5 146.9L216.4 146.9L212.7 149.4Q212.3 149.7 211.8 149.7L211.8 149.7Q211.2 149.7 210.9 149.4Q210.5 149.0 210.5 148.5L210.5 148.5Q210.5 147.7 211.4 147.1L211.4 147.1L215.8 144.0Q216.4 143.6 216.8 143.4Q217.3 143.2 217.8 143.2L217.8 143.2Q218.7 143.2 219.2 143.7Q219.7 144.2 219.7 145.1L219.7 145.1L219.7 163.3Q219.7 164.0 219.2 164.5Q218.8 164.9 218.1 164.9ZM236.5 164.9L236.5 164.9Q235.8 164.9 235.3 164.5Q234.9 164.0 234.9 163.3L234.9 163.3L234.9 160.5L226.2 160.5Q225.3 160.5 224.8 160.0Q224.3 159.4 224.3 158.6L224.3 158.6Q224.3 157.6 225.0 156.3L225.0 156.3Q226.8 153.0 231.8 145.7L231.8 145.7Q232.8 144.3 233.5 143.8Q234.3 143.2 235.3 143.2L235.3 143.2Q236.6 143.2 237.3 143.9Q238.0 144.5 238.0 145.7L238.0 145.7L238.0 157.7L239.7 157.7Q240.3 157.7 240.7 158.1Q241.1 158.5 241.1 159.1Q241.1 159.7 240.7 160.1Q240.3 160.5 239.7 160.5L239.7 160.5L238.0 160.5L238.0 163.3Q238.0 164.0 237.6 164.5Q237.2 164.9 236.5 164.9ZM227.3 157.8L234.9 157.8L234.9 146.1L234.9 146.1Q229.4 153.9 227.3 157.7L227.3 157.7L227.3 157.8Z M252.4 164.5Q252.0 164.9 251.3 164.9Q250.6 164.9 250.2 164.5Q249.8 164.1 249.8 163.3L249.8 163.3L249.8 145.4Q249.8 144.4 250.4 143.9Q251.0 143.3 251.9 143.3L251.9 143.3Q252.8 143.3 253.3 143.7Q253.8 144.1 254.2 145.0L254.2 145.0L260.5 160.2L260.6 160.2L266.8 145.0Q267.2 144.1 267.7 143.7Q268.3 143.3 269.1 143.3L269.1 143.3Q270.1 143.3 270.6 143.8Q271.2 144.4 271.2 145.4L271.2 145.4L271.2 163.3Q271.2 164.1 270.8 164.5Q270.4 164.9 269.7 164.9L269.7 164.9Q269.0 164.9 268.6 164.5Q268.2 164.1 268.2 163.3L268.2 163.3L268.2 149.1L268.1 149.1L262.2 163.3Q261.7 164.5 260.5 164.5L260.5 164.5Q259.3 164.5 258.8 163.3L258.8 163.3L252.9 149.1L252.8 149.1L252.8 163.3Q252.8 164.1 252.4 164.5ZM279.2 164.9L279.2 164.9Q277.0 164.9 275.5 163.6Q274.1 162.3 274.1 160.3L274.1 160.3Q274.1 158.3 275.6 157.1Q277.1 155.9 279.8 155.7L279.8 155.7L284.1 155.5L284.1 154.3Q284.1 153.0 283.2 152.3Q282.4 151.6 281.0 151.6L281.0 151.6Q279.8 151.6 279.0 152.0Q278.2 152.5 277.6 153.5L277.6 153.5Q277.1 154.2 276.3 154.2L276.3 154.2Q275.7 154.2 275.3 153.8Q274.9 153.4 274.9 152.9L274.9 152.9Q274.9 152.3 275.2 151.8L275.2 151.8Q275.8 150.5 277.4 149.8Q279.0 149.0 281.1 149.0L281.1 149.0Q283.9 149.0 285.5 150.4Q287.2 151.7 287.2 154.0L287.2 154.0L287.2 163.3Q287.2 164.1 286.8 164.5Q286.4 164.9 285.7 164.9L285.7 164.9Q285.0 164.9 284.6 164.5Q284.2 164.1 284.2 163.4L284.2 163.4L284.2 162.1L284.1 162.1Q283.4 163.4 282.1 164.2Q280.8 164.9 279.2 164.9ZM280.1 162.4L280.1 162.4Q281.8 162.4 282.9 161.4Q284.1 160.4 284.1 158.9L284.1 158.9L284.1 157.7L280.2 157.9Q278.8 158.0 278.1 158.6Q277.3 159.2 277.3 160.2L277.3 160.2Q277.3 161.2 278.1 161.8Q278.8 162.4 280.1 162.4ZM292.2 170.4L292.2 170.4Q291.1 170.4 290.5 170.0Q289.9 169.6 289.9 168.9L289.9 168.9Q289.9 168.4 290.2 168.1Q290.6 167.8 291.1 167.8L291.1 167.8Q291.3 167.8 291.5 167.8Q291.8 167.8 292.0 167.8L292.0 167.8Q293.5 167.8 294.3 165.7L294.3 165.7L294.6 164.8L289.4 151.3Q289.3 150.9 289.3 150.4L289.3 150.4Q289.3 149.8 289.7 149.4Q290.2 149.0 290.9 149.0L290.9 149.0Q291.5 149.0 291.8 149.3Q292.2 149.5 292.4 150.2L292.4 150.2L296.3 161.8L296.4 161.8L300.3 150.2Q300.5 149.5 300.9 149.3Q301.2 149.0 301.8 149.0L301.8 149.0Q302.5 149.0 302.9 149.4Q303.3 149.8 303.3 150.4L303.3 150.4Q303.3 150.8 303.2 151.3L303.2 151.3L297.8 165.4Q296.8 168.2 295.6 169.3Q294.3 170.4 292.2 170.4Z M324.8 164.7L313.1 164.7Q312.4 164.7 312.0 164.3Q311.6 163.9 311.6 163.3L311.6 163.3Q311.6 162.8 311.7 162.5Q311.9 162.1 312.5 161.6L312.5 161.6L319.1 154.9Q321.1 152.8 321.8 151.7Q322.5 150.6 322.5 149.3L322.5 149.3Q322.5 147.8 321.5 146.8Q320.4 145.8 318.8 145.8L318.8 145.8Q315.7 145.8 314.6 149.0L314.6 149.0Q314.3 149.5 314.0 149.8Q313.7 150.0 313.1 150.0L313.1 150.0Q312.4 150.0 312.0 149.6Q311.6 149.3 311.6 148.6L311.6 148.6Q311.6 148.3 311.7 148.0L311.7 148.0Q311.9 147.1 312.5 146.3Q313.0 145.4 313.9 144.7Q314.7 144.0 316.0 143.6Q317.3 143.1 318.8 143.1L318.8 143.1Q321.9 143.1 323.8 144.8Q325.7 146.5 325.7 149.1L325.7 149.1Q325.7 150.9 324.8 152.5Q323.8 154.0 321.0 156.8L321.0 156.8L316.0 161.8L316.0 161.9L324.8 161.9Q325.4 161.9 325.8 162.3Q326.2 162.7 326.2 163.3L326.2 163.3Q326.2 163.9 325.8 164.3Q325.4 164.7 324.8 164.7L324.8 164.7ZM342.7 162.1Q340.5 165.1 336.7 165.1Q332.9 165.1 330.8 162.1Q328.6 159.2 328.6 154.1L328.6 154.1Q328.6 149.0 330.8 146.1Q332.9 143.1 336.7 143.1L336.7 143.1Q340.5 143.1 342.6 146.1Q344.8 149.0 344.8 154.1L344.8 154.1Q344.8 159.1 342.7 162.1ZM336.7 162.3L336.7 162.3Q339.0 162.3 340.2 160.1Q341.5 157.9 341.5 154.1L341.5 154.1Q341.5 150.3 340.2 148.1Q339.0 145.9 336.7 145.9Q334.5 145.9 333.2 148.1Q331.9 150.3 331.9 154.1L331.9 154.1Q331.9 157.9 333.2 160.1Q334.4 162.3 336.7 162.3ZM360.9 164.7L349.2 164.7Q348.5 164.7 348.1 164.3Q347.6 163.9 347.6 163.3L347.6 163.3Q347.6 162.8 347.8 162.5Q348.0 162.1 348.6 161.6L348.6 161.6L355.2 154.9Q357.2 152.8 357.9 151.7Q358.6 150.6 358.6 149.3L358.6 149.3Q358.6 147.8 357.5 146.8Q356.5 145.8 354.9 145.8L354.9 145.8Q351.8 145.8 350.7 149.0L350.7 149.0Q350.4 149.5 350.1 149.8Q349.8 150.0 349.2 150.0L349.2 150.0Q348.5 150.0 348.1 149.6Q347.7 149.3 347.7 148.6L347.7 148.6Q347.7 148.3 347.8 148.0L347.8 148.0Q348.0 147.1 348.5 146.3Q349.1 145.4 350.0 144.7Q350.8 144.0 352.1 143.6Q353.4 143.1 354.9 143.1L354.9 143.1Q358.0 143.1 359.9 144.8Q361.8 146.5 361.8 149.1L361.8 149.1Q361.8 150.9 360.8 152.5Q359.9 154.0 357.1 156.8L357.1 156.8L352.1 161.8L352.1 161.9L360.9 161.9Q361.5 161.9 361.9 162.3Q362.3 162.7 362.3 163.3L362.3 163.3Q362.3 163.9 361.9 164.3Q361.5 164.7 360.9 164.7L360.9 164.7ZM372.6 165.1L372.6 165.1Q370.3 165.1 368.4 164.0Q366.5 162.9 365.7 161.2L365.7 161.2Q365.4 160.5 365.4 159.8L365.4 159.8Q365.4 159.1 365.8 158.7Q366.2 158.3 366.9 158.3L366.9 158.3Q367.4 158.3 367.7 158.6Q368.1 158.8 368.3 159.4L368.3 159.4Q368.9 160.8 370.0 161.5Q371.1 162.3 372.7 162.3L372.7 162.3Q374.7 162.3 375.9 161.0Q377.2 159.8 377.2 157.8L377.2 157.8Q377.2 155.8 375.9 154.6Q374.7 153.4 372.7 153.4L372.7 153.4Q370.6 153.4 369.2 154.7L369.2 154.7Q368.5 155.5 368.2 155.6Q367.8 155.8 367.2 155.8L367.2 155.8Q366.5 155.8 366.1 155.4Q365.6 154.9 365.7 154.2L365.7 154.2L365.7 153.9L366.4 145.8Q366.5 144.6 367.1 144.0Q367.7 143.5 368.9 143.5L368.9 143.5L377.9 143.5Q378.6 143.5 379.0 143.9Q379.3 144.3 379.3 144.9Q379.3 145.5 379.0 145.9Q378.6 146.3 377.9 146.3L377.9 146.3L369.2 146.3L368.6 152.9L368.7 152.9Q369.4 151.9 370.6 151.3Q371.9 150.8 373.4 150.8L373.4 150.8Q376.5 150.8 378.5 152.7Q380.4 154.6 380.4 157.7L380.4 157.7Q380.4 161.0 378.2 163.0Q376.1 165.1 372.6 165.1Z "/><mask id="satori_om-id-0-0-1"><rect x="40" y="217" width="1120" height="83" fill="#fff"/></mask><path fill="#224d67" d="M62.0 280.3L62.0 280.3Q52.9 280.3 47.6 274.4Q42.3 268.6 42.3 258.4L42.3 258.4Q42.3 248.3 47.6 242.5Q52.9 236.6 61.9 236.6L61.9 236.6Q67.7 236.6 72.2 239.2Q76.6 241.8 78.7 246.4L78.7 246.4Q79.4 247.9 79.4 249.3L79.4 249.3Q79.4 250.8 78.5 251.7Q77.6 252.6 76.0 252.6L76.0 252.6Q73.5 252.6 72.3 249.9L72.3 249.9Q70.9 246.6 68.2 244.8Q65.4 243.0 61.9 243.0L61.9 243.0Q56.5 243.0 53.3 247.2Q50.0 251.4 50.0 258.4L50.0 258.4Q50.0 265.5 53.2 269.7Q56.5 273.9 62.0 273.9L62.0 273.9Q69.6 273.9 72.5 267.3L72.5 267.3Q73.0 266.0 73.8 265.4Q74.6 264.9 75.8 264.9L75.8 264.9Q77.4 264.9 78.4 265.8Q79.3 266.7 79.3 268.2L79.3 268.2Q79.3 269.6 78.6 271.1L78.6 271.1Q76.6 275.4 72.3 277.8Q67.9 280.3 62.0 280.3ZM109.8 275.9Q105.8 280.2 98.9 280.2Q92.0 280.2 87.9 275.9Q83.9 271.6 83.9 264.1L83.9 264.1Q83.9 256.6 88.0 252.2Q92.1 247.9 98.9 247.9L98.9 247.9Q105.7 247.9 109.8 252.2Q113.9 256.6 113.9 264.1L113.9 264.1Q113.9 271.6 109.8 275.9ZM93.3 271.7Q95.4 274.4 98.9 274.4Q102.4 274.4 104.5 271.7Q106.5 269.0 106.5 264.1L106.5 264.1Q106.5 259.2 104.5 256.4Q102.4 253.7 98.9 253.7L98.9 253.7Q95.4 253.7 93.3 256.4Q91.3 259.2 91.3 264.1L91.3 264.1Q91.3 269.0 93.3 271.7ZM124.9 279.2Q123.9 280.2 122.2 280.2Q120.6 280.2 119.6 279.2Q118.6 278.1 118.6 276.3L118.6 276.3L118.6 251.6Q118.6 249.9 119.5 248.9Q120.5 247.9 122.1 247.9Q123.7 247.9 124.7 248.9Q125.7 249.9 125.7 251.6L125.7 251.6L125.7 253.8L125.8 253.8Q128.5 247.9 135.5 247.9L135.5 247.9Q140.6 247.9 143.4 251.0Q146.3 254.1 146.3 259.5L146.3 259.5L146.3 276.3Q146.3 278.1 145.3 279.2Q144.3 280.2 142.6 280.2Q141.0 280.2 140.0 279.2Q139.0 278.1 139.0 276.3L139.0 276.3L139.0 261.0Q139.0 257.6 137.4 255.9Q135.8 254.1 132.8 254.1L132.8 254.1Q129.6 254.1 127.8 256.2Q125.9 258.2 125.9 261.6L125.9 261.6L125.9 276.3Q125.9 278.1 124.9 279.2ZM154.1 271.9L154.1 271.9L154.1 254.1L152.1 254.1Q150.8 254.1 150.0 253.4Q149.2 252.6 149.2 251.3L149.2 251.3Q149.2 250.0 150.0 249.3Q150.8 248.5 152.1 248.5L152.1 248.5L154.1 248.5L154.1 244.4Q154.1 242.6 155.1 241.6Q156.1 240.6 157.8 240.6L157.8 240.6Q159.4 240.6 160.4 241.6Q161.4 242.6 161.4 244.4L161.4 244.4L161.4 248.5L164.8 248.5Q166.2 248.5 166.9 249.3Q167.7 250.0 167.7 251.3L167.7 251.3Q167.7 252.6 166.9 253.4Q166.1 254.1 164.8 254.1L164.8 254.1L161.4 254.1L161.4 270.3Q161.4 272.1 162.1 272.9Q162.8 273.7 164.3 273.9L164.3 273.9L164.9 273.9Q167.8 274.2 167.8 276.6L167.8 276.6Q167.8 278.2 166.4 279.1Q165.1 279.9 162.6 279.9L162.6 279.9L162.3 279.9Q154.1 279.9 154.1 271.9ZM178.5 279.1Q177.5 280.2 175.8 280.2Q174.2 280.2 173.2 279.1Q172.2 278.1 172.2 276.3L172.2 276.3L172.2 251.6Q172.2 249.9 173.2 248.9Q174.1 247.9 175.7 247.9L175.7 247.9Q177.2 247.9 178.2 248.9Q179.2 249.9 179.2 251.6L179.2 251.6L179.2 254.0L179.3 254.0Q180.0 251.3 181.8 249.6Q183.6 248.0 186.0 248.0L186.0 248.0Q187.7 248.0 188.5 248.8L188.5 248.8Q189.6 249.6 189.6 251.4L189.6 251.4Q189.6 253.1 188.5 254.0L188.5 254.0Q187.4 254.9 185.3 255.0L185.3 255.0Q179.5 255.0 179.5 261.4L179.5 261.4L179.5 276.3Q179.5 278.1 178.5 279.1ZM202.0 280.1L202.0 280.1Q197.4 280.1 194.5 277.5Q191.6 274.9 191.6 270.7L191.6 270.7Q191.6 266.6 194.6 264.2Q197.7 261.8 203.4 261.4L203.4 261.4L211.6 260.9L211.6 258.7Q211.6 256.3 210.1 254.9Q208.5 253.6 205.8 253.6L205.8 253.6Q203.7 253.6 202.2 254.4Q200.7 255.2 199.3 257.2L199.3 257.2Q198.2 258.7 196.4 258.7L196.4 258.7Q195.0 258.7 194.1 257.9Q193.3 257.1 193.3 255.8L193.3 255.8Q193.3 254.8 193.8 253.8L193.8 253.8Q195.0 251.1 198.3 249.5Q201.7 247.9 206.1 247.9L206.1 247.9Q211.9 247.9 215.4 250.7Q218.8 253.5 218.8 258.2L218.8 258.2L218.8 276.5Q218.8 278.2 217.8 279.2Q216.9 280.2 215.3 280.2L215.3 280.2Q213.8 280.2 212.8 279.3Q211.9 278.4 211.8 276.8L211.8 276.8L211.8 274.6L211.7 274.6Q210.3 277.1 207.7 278.6Q205 280.1 202.0 280.1ZM204.2 274.6L204.2 274.6Q207.3 274.6 209.5 272.7Q211.6 270.8 211.6 268.1L211.6 268.1L211.6 265.7L204.4 266.1Q201.8 266.3 200.3 267.4Q198.9 268.6 198.9 270.4L198.9 270.4Q198.9 272.3 200.3 273.4Q201.8 274.6 204.2 274.6ZM238.3 280.2L238.3 280.2Q231.5 280.2 227.5 275.9Q223.4 271.5 223.4 264.1L223.4 264.1Q223.4 256.7 227.4 252.3Q231.5 247.9 238.3 247.9L238.3 247.9Q242.8 247.9 246.4 250.0Q249.9 252.1 251.1 255.4L251.1 255.4Q251.4 256.4 251.4 257.1L251.4 257.1Q251.4 258.5 250.5 259.3Q249.6 260.1 248.3 260.1L248.3 260.1Q247.2 260.1 246.5 259.6Q245.8 259.1 245.1 258.0L245.1 258.0Q242.8 253.8 238.5 253.8L238.5 253.8Q235.0 253.8 232.9 256.6Q230.8 259.3 230.8 264.1L230.8 264.1Q230.8 268.9 232.9 271.6Q234.9 274.3 238.5 274.3L238.5 274.3Q242.8 274.3 245.1 270.3L245.1 270.3Q245.8 269.1 246.6 268.6Q247.3 268.1 248.4 268.1L248.4 268.1Q249.8 268.1 250.6 268.9Q251.5 269.7 251.5 271.1L251.5 271.1Q251.5 271.9 251.1 272.9L251.1 272.9Q249.8 276.1 246.2 278.2Q242.7 280.2 238.3 280.2ZM258.4 271.9L258.4 271.9L258.4 254.1L256.5 254.1Q255.1 254.1 254.3 253.4Q253.5 252.6 253.5 251.3L253.5 251.3Q253.5 250.0 254.3 249.3Q255.1 248.5 256.5 248.5L256.5 248.5L258.4 248.5L258.4 244.4Q258.4 242.6 259.4 241.6Q260.4 240.6 262.1 240.6L262.1 240.6Q263.8 240.6 264.8 241.6Q265.7 242.6 265.7 244.4L265.7 244.4L265.7 248.5L269.1 248.5Q270.5 248.5 271.3 249.3Q272.0 250.0 272.0 251.3L272.0 251.3Q272.0 252.6 271.2 253.4Q270.4 254.1 269.1 254.1L269.1 254.1L265.7 254.1L265.7 270.3Q265.7 272.1 266.4 272.9Q267.1 273.7 268.7 273.9L268.7 273.9L269.2 273.9Q272.1 274.2 272.1 276.6L272.1 276.6Q272.1 278.2 270.8 279.1Q269.4 279.9 266.9 279.9L266.9 279.9L266.6 279.9Q258.4 279.9 258.4 271.9ZM287.4 280.1L287.4 280.1Q282.3 280.1 279.4 277.0Q276.4 274.0 276.4 268.6L276.4 268.6L276.4 251.7Q276.4 250.0 277.4 248.9Q278.4 247.9 280.0 247.9Q281.7 247.9 282.7 248.9Q283.7 250.0 283.7 251.8L283.7 251.8L283.7 267.1Q283.7 270.5 285.3 272.2Q286.9 274.0 290.0 274.0L290.0 274.0Q293.1 274.0 294.9 271.9Q296.8 269.9 296.8 266.5L296.8 266.5L296.8 251.7Q296.8 250.0 297.8 248.9Q298.8 247.9 300.4 247.9L300.4 247.9Q302.1 247.9 303.1 248.9Q304.1 250.0 304.1 251.8L304.1 251.8L304.1 276.5Q304.1 278.2 303.1 279.2Q302.2 280.2 300.6 280.2L300.6 280.2Q299.0 280.2 298.0 279.2Q297.1 278.2 297.1 276.5L297.1 276.5L297.1 274.2L296.9 274.2Q294.3 280.1 287.4 280.1ZM319.1 280.1L319.1 280.1Q314.6 280.1 311.7 277.5Q308.8 274.9 308.8 270.7L308.8 270.7Q308.8 266.6 311.8 264.2Q314.9 261.8 320.6 261.4L320.6 261.4L328.8 260.9L328.8 258.7Q328.8 256.3 327.3 254.9Q325.7 253.6 323.0 253.6L323.0 253.6Q320.8 253.6 319.3 254.4Q317.9 255.2 316.5 257.2L316.5 257.2Q315.4 258.7 313.5 258.7L313.5 258.7Q312.2 258.7 311.3 257.9Q310.5 257.1 310.5 255.8L310.5 255.8Q310.5 254.8 311.0 253.8L311.0 253.8Q312.1 251.1 315.5 249.5Q318.8 247.9 323.3 247.9L323.3 247.9Q329.1 247.9 332.5 250.7Q336.0 253.5 336.0 258.2L336.0 258.2L336.0 276.5Q336.0 278.2 335.0 279.2Q334.1 280.2 332.5 280.2L332.5 280.2Q330.9 280.2 330.0 279.3Q329.1 278.4 329.0 276.8L329.0 276.8L329.0 274.6L328.8 274.6Q327.5 277.1 324.9 278.6Q322.2 280.1 319.1 280.1ZM321.4 274.6L321.4 274.6Q324.5 274.6 326.6 272.7Q328.8 270.8 328.8 268.1L328.8 268.1L328.8 265.7L321.6 266.1Q319.0 266.3 317.5 267.4Q316.1 268.6 316.1 270.4L316.1 270.4Q316.1 272.3 317.5 273.4Q319.0 274.6 321.4 274.6ZM348.4 279.2Q347.4 280.2 345.7 280.2Q344.1 280.2 343.1 279.2Q342.1 278.1 342.1 276.3L342.1 276.3L342.1 240.6Q342.1 238.7 343.1 237.7Q344.1 236.7 345.7 236.7Q347.4 236.7 348.4 237.7Q349.4 238.7 349.4 240.6L349.4 240.6L349.4 276.3Q349.4 278.1 348.4 279.2Z M383.2 280.3L383.2 280.3Q377.1 280.3 372.9 278.0Q368.8 275.7 367.5 272.0L367.5 272.0Q367.1 270.9 367.1 269.8L367.1 269.8Q367.1 268.2 368.0 267.3Q368.9 266.3 370.4 266.3L370.4 266.3Q371.7 266.3 372.5 266.9Q373.4 267.4 374.0 268.7L374.0 268.7Q375.0 271.4 377.4 272.7Q379.9 274.0 383.4 274.0L383.4 274.0Q387.3 274.0 389.7 272.3Q392.1 270.6 392.1 268.0L392.1 268.0Q392.1 265.7 390.3 264.2Q388.6 262.8 384.5 261.9L384.5 261.9L380.0 261.0Q367.5 258.4 367.5 249.1L367.5 249.1Q367.5 243.5 371.9 240.1Q376.3 236.6 383.2 236.6L383.2 236.6Q388.9 236.6 392.9 239.0Q397.0 241.4 398.2 245.5L398.2 245.5Q398.5 246.2 398.5 247.3L398.5 247.3Q398.5 248.6 397.6 249.5Q396.7 250.4 395.2 250.4L395.2 250.4Q392.8 250.4 391.6 248.0L391.6 248.0Q389.5 242.9 383.2 242.9L383.2 242.9Q379.6 242.9 377.4 244.4Q375.2 246.0 375.2 248.6L375.2 248.6Q375.2 250.8 376.9 252.2Q378.6 253.7 382.5 254.5L382.5 254.5L387.1 255.4Q393.7 256.8 396.7 259.6Q399.7 262.4 399.7 267.1L399.7 267.1Q399.7 273.2 395.3 276.7Q390.8 280.3 383.2 280.3ZM411.4 243.0Q410.2 244.2 408.5 244.2Q406.8 244.2 405.6 243.0Q404.4 241.8 404.4 240.2L404.4 240.2Q404.4 238.5 405.6 237.4Q406.8 236.2 408.5 236.2L408.5 236.2Q410.2 236.2 411.4 237.4Q412.5 238.5 412.5 240.2L412.5 240.2Q412.5 241.8 411.4 243.0ZM411.1 279.1Q410.1 280.2 408.5 280.2Q406.8 280.2 405.8 279.1Q404.8 278.1 404.8 276.3L404.8 276.3L404.8 251.7Q404.8 250.0 405.8 248.9Q406.8 247.9 408.5 247.9Q410.1 247.9 411.1 248.9Q412.1 250.0 412.1 251.8L412.1 251.8L412.1 276.3Q412.1 278.1 411.1 279.1ZM424.8 279.2Q423.8 280.2 422.1 280.2Q420.5 280.2 419.5 279.2Q418.5 278.1 418.5 276.3L418.5 276.3L418.5 240.6Q418.5 238.7 419.5 237.7Q420.5 236.7 422.1 236.7Q423.8 236.7 424.8 237.7Q425.8 238.7 425.8 240.6L425.8 240.6L425.8 276.3Q425.8 278.1 424.8 279.2ZM445.8 280.2L445.8 280.2Q438.6 280.2 434.7 276.0Q430.7 271.7 430.7 264.2L430.7 264.2Q430.7 256.7 434.7 252.3Q438.6 247.9 445.4 247.9L445.4 247.9Q451.7 247.9 455.7 251.9Q459.6 256.0 459.6 262.4L459.6 262.4Q459.6 264.0 458.8 264.9Q457.9 265.8 456.3 265.8L456.3 265.8L437.9 265.8L437.9 266.0Q437.9 269.9 440.0 272.3Q442.2 274.6 445.7 274.6L445.7 274.6Q448.2 274.6 449.9 273.6Q451.7 272.7 453.5 270.4L453.5 270.4Q454.5 269.3 455.9 269.3L455.9 269.3Q457.2 269.3 458.0 270.0Q458.9 270.8 458.9 272.1L458.9 272.1Q458.9 272.9 458.4 273.9L458.4 273.9Q456.8 276.9 453.5 278.5Q450.2 280.2 445.8 280.2ZM438.0 261.0L438.0 261.0L452.5 261.0Q452.4 257.6 450.4 255.6Q448.5 253.5 445.4 253.5Q442.3 253.5 440.3 255.6Q438.2 257.7 438.0 261.0ZM470.6 279.2Q469.6 280.2 468.0 280.2Q466.3 280.2 465.3 279.2Q464.3 278.1 464.3 276.3L464.3 276.3L464.3 251.6Q464.3 249.9 465.3 248.9Q466.2 247.9 467.8 247.9Q469.4 247.9 470.4 248.9Q471.4 249.9 471.4 251.6L471.4 251.6L471.4 253.8L471.6 253.8Q474.2 247.9 481.2 247.9L481.2 247.9Q486.3 247.9 489.2 251.0Q492.0 254.1 492.0 259.5L492.0 259.5L492.0 276.3Q492.0 278.1 491.0 279.2Q490 280.2 488.4 280.2Q486.7 280.2 485.7 279.2Q484.7 278.1 484.7 276.3L484.7 276.3L484.7 261.0Q484.7 257.6 483.1 255.9Q481.6 254.1 478.5 254.1L478.5 254.1Q475.4 254.1 473.5 256.2Q471.6 258.2 471.6 261.6L471.6 261.6L471.6 276.3Q471.6 278.1 470.6 279.2ZM511.5 280.2L511.5 280.2Q504.6 280.2 500.6 275.9Q496.5 271.5 496.5 264.1L496.5 264.1Q496.5 256.7 500.6 252.3Q504.6 247.9 511.4 247.9L511.4 247.9Q516.0 247.9 519.5 250.0Q523.1 252.1 524.2 255.4L524.2 255.4Q524.6 256.4 524.6 257.1L524.6 257.1Q524.6 258.5 523.7 259.3Q522.8 260.1 521.4 260.1L521.4 260.1Q520.4 260.1 519.6 259.6Q518.9 259.1 518.2 258.0L518.2 258.0Q516.0 253.8 511.6 253.8L511.6 253.8Q508.1 253.8 506.0 256.6Q503.9 259.3 503.9 264.1L503.9 264.1Q503.9 268.9 506.0 271.6Q508.1 274.3 511.6 274.3L511.6 274.3Q516.0 274.3 518.2 270.3L518.2 270.3Q519.0 269.1 519.7 268.6Q520.4 268.1 521.6 268.1L521.6 268.1Q522.9 268.1 523.8 268.9Q524.7 269.7 524.7 271.1L524.7 271.1Q524.7 271.9 524.2 272.9L524.2 272.9Q522.9 276.1 519.4 278.2Q515.8 280.2 511.5 280.2ZM543.3 280.2L543.3 280.2Q536.2 280.2 532.2 276.0Q528.3 271.7 528.3 264.2L528.3 264.2Q528.3 256.7 532.2 252.3Q536.2 247.9 542.9 247.9L542.9 247.9Q549.3 247.9 553.3 251.9Q557.2 256.0 557.2 262.4L557.2 262.4Q557.2 264.0 556.3 264.9Q555.4 265.8 553.8 265.8L553.8 265.8L535.5 265.8L535.5 266.0Q535.5 269.9 537.6 272.3Q539.7 274.6 543.3 274.6L543.3 274.6Q545.8 274.6 547.5 273.6Q549.3 272.7 551.1 270.4L551.1 270.4Q552.1 269.3 553.5 269.3L553.5 269.3Q554.8 269.3 555.6 270.0Q556.4 270.8 556.4 272.1L556.4 272.1Q556.4 272.9 555.9 273.9L555.9 273.9Q554.4 276.9 551.1 278.5Q547.8 280.2 543.3 280.2ZM535.6 261.0L535.6 261.0L550.1 261.0Q550.0 257.6 548.0 255.6Q546.0 253.5 543.0 253.5Q539.9 253.5 537.8 255.6Q535.8 257.7 535.6 261.0Z M583.0 280.1L583.0 280.1Q578.5 280.1 575.6 277.5Q572.7 274.9 572.7 270.7L572.7 270.7Q572.7 266.6 575.7 264.2Q578.8 261.8 584.5 261.4L584.5 261.4L592.7 260.9L592.7 258.7Q592.7 256.3 591.2 254.9Q589.6 253.6 586.9 253.6L586.9 253.6Q584.7 253.6 583.3 254.4Q581.8 255.2 580.4 257.2L580.4 257.2Q579.3 258.7 577.5 258.7L577.5 258.7Q576.1 258.7 575.2 257.9Q574.4 257.1 574.4 255.8L574.4 255.8Q574.4 254.8 574.9 253.8L574.9 253.8Q576.0 251.1 579.4 249.5Q582.8 247.9 587.2 247.9L587.2 247.9Q593.0 247.9 596.5 250.7Q599.9 253.5 599.9 258.2L599.9 258.2L599.9 276.5Q599.9 278.2 598.9 279.2Q598.0 280.2 596.4 280.2L596.4 280.2Q594.9 280.2 593.9 279.3Q593.0 278.4 592.9 276.8L592.9 276.8L592.9 274.6L592.7 274.6Q591.4 277.1 588.8 278.6Q586.1 280.1 583.0 280.1ZM585.3 274.6L585.3 274.6Q588.4 274.6 590.5 272.7Q592.7 270.8 592.7 268.1L592.7 268.1L592.7 265.7L585.5 266.1Q582.9 266.3 581.4 267.4Q580.0 268.6 580.0 270.4L580.0 270.4Q580.0 272.3 581.4 273.4Q582.9 274.6 585.3 274.6ZM612.1 279.2Q611.1 280.2 609.4 280.2Q607.8 280.2 606.8 279.2Q605.8 278.1 605.8 276.3L605.8 276.3L605.8 251.6Q605.8 249.9 606.7 248.9Q607.7 247.9 609.3 247.9Q610.9 247.9 611.9 248.9Q612.9 249.9 612.9 251.6L612.9 251.6L612.9 253.8L613.0 253.8Q615.7 247.9 622.7 247.9L622.7 247.9Q627.8 247.9 630.6 251.0Q633.4 254.1 633.4 259.5L633.4 259.5L633.4 276.3Q633.4 278.1 632.4 279.2Q631.4 280.2 629.8 280.2Q628.2 280.2 627.2 279.2Q626.1 278.1 626.1 276.3L626.1 276.3L626.1 261.0Q626.1 257.6 624.6 255.9Q623.0 254.1 619.9 254.1L619.9 254.1Q616.8 254.1 614.9 256.2Q613.1 258.2 613.1 261.6L613.1 261.6L613.1 276.3Q613.1 278.1 612.1 279.2ZM650.9 280.1L650.9 280.1Q645.0 280.1 641.5 275.7Q638.0 271.4 638.0 264.0L638.0 264.0Q638.0 256.7 641.5 252.3Q645.0 248.0 650.9 248.0L650.9 248.0Q654.2 248.0 656.7 249.5Q659.2 251.1 660.5 253.7L660.5 253.7L660.7 253.7L660.7 240.6Q660.7 238.7 661.7 237.7Q662.6 236.7 664.3 236.7Q665.9 236.7 666.9 237.7Q667.9 238.7 667.9 240.6L667.9 240.6L667.9 276.5Q667.9 278.2 667.0 279.2Q666.0 280.2 664.3 280.2L664.3 280.2Q662.7 280.2 661.7 279.2Q660.7 278.2 660.7 276.5L660.7 276.5L660.7 274.1L660.5 274.1Q659.3 276.9 656.9 278.5Q654.4 280.1 650.9 280.1ZM653.1 274.1L653.1 274.1Q656.5 274.1 658.6 271.4Q660.7 268.7 660.7 264.1L660.7 264.1Q660.7 259.5 658.6 256.7Q656.5 254.0 653.1 254.0L653.1 254.0Q649.6 254.0 647.5 256.7Q645.4 259.4 645.4 264.1L645.4 264.1Q645.4 268.7 647.5 271.4Q649.5 274.1 653.1 274.1Z M690.6 280.1L690.6 280.1Q688.8 280.1 687.8 279.0Q686.8 278.0 686.8 276.2L686.8 276.2L686.8 241.2Q686.8 239.4 687.8 238.3Q688.8 237.3 690.6 237.3L690.6 237.3L703.3 237.3Q709.6 237.3 713.5 241.2Q717.5 245.1 717.5 251.5L717.5 251.5Q717.5 257.8 713.4 261.7Q709.4 265.6 702.9 265.6L702.9 265.6L694.4 265.6L694.4 276.2Q694.4 278.0 693.4 279.1Q692.4 280.1 690.6 280.1ZM694.4 243.5L694.4 259.5L701.2 259.5Q705.3 259.5 707.6 257.4Q709.8 255.3 709.8 251.5L709.8 251.5Q709.8 247.6 707.6 245.6Q705.3 243.5 701.3 243.5L701.3 243.5L694.4 243.5ZM731.4 280.1L731.4 280.1Q726.8 280.1 723.9 277.5Q721.0 274.9 721.0 270.7L721.0 270.7Q721.0 266.6 724.1 264.2Q727.1 261.8 732.8 261.4L732.8 261.4L741.0 260.9L741.0 258.7Q741.0 256.3 739.5 254.9Q738.0 253.6 735.2 253.6L735.2 253.6Q733.1 253.6 731.6 254.4Q730.1 255.2 728.7 257.2L728.7 257.2Q727.6 258.7 725.8 258.7L725.8 258.7Q724.4 258.7 723.6 257.9Q722.7 257.1 722.7 255.8L722.7 255.8Q722.7 254.8 723.2 253.8L723.2 253.8Q724.4 251.1 727.7 249.5Q731.1 247.9 735.5 247.9L735.5 247.9Q741.3 247.9 744.8 250.7Q748.3 253.5 748.3 258.2L748.3 258.2L748.3 276.5Q748.3 278.2 747.3 279.2Q746.3 280.2 744.7 280.2L744.7 280.2Q743.2 280.2 742.2 279.3Q741.3 278.4 741.2 276.8L741.2 276.8L741.2 274.6L741.1 274.6Q739.8 277.1 737.1 278.6Q734.4 280.1 731.4 280.1ZM733.6 274.6L733.6 274.6Q736.7 274.6 738.9 272.7Q741.0 270.8 741.0 268.1L741.0 268.1L741.0 265.7L733.8 266.1Q731.2 266.3 729.8 267.4Q728.3 268.6 728.3 270.4L728.3 270.4Q728.3 272.3 729.8 273.4Q731.2 274.6 733.6 274.6ZM758.6 291.1L758.6 291.1Q756.1 291.1 754.8 290.2Q753.5 289.3 753.5 287.7L753.5 287.7Q753.5 286.6 754.2 285.9Q755.0 285.2 756.3 285.2L756.3 285.2Q756.5 285.2 757.0 285.2Q757.5 285.2 757.8 285.2L757.8 285.2Q760.8 285.2 762.3 281.7L762.3 281.7L762.8 280.1L752.6 253.4Q752.2 252.2 752.2 251.3L752.2 251.3Q752.2 249.8 753.3 248.9Q754.3 247.9 756.0 247.9L756.0 247.9Q757.3 247.9 758.2 248.6Q759.0 249.3 759.4 250.8L759.4 250.8L766.9 273.4L767.0 273.4L774.4 250.8Q774.9 249.3 775.7 248.6Q776.5 247.9 777.9 247.9L777.9 247.9Q779.5 247.9 780.4 248.8Q781.4 249.8 781.4 251.2L781.4 251.2Q781.4 252.2 781.0 253.3L781.0 253.3L770.8 280.7Q768.7 286.5 766.0 288.8Q763.2 291.1 758.6 291.1ZM791.7 279.1Q790.7 280.2 789.1 280.2Q787.4 280.2 786.4 279.1Q785.4 278.1 785.4 276.3L785.4 276.3L785.4 251.6Q785.4 249.9 786.4 248.9Q787.3 247.9 788.9 247.9L788.9 247.9Q790.4 247.9 791.4 248.9Q792.4 249.9 792.4 251.6L792.4 251.6L792.4 254.0L792.5 254.0Q793.2 251.3 795.0 249.6Q796.8 248.0 799.2 248.0L799.2 248.0Q800.9 248.0 801.7 248.8L801.7 248.8Q802.8 249.6 802.8 251.4L802.8 251.4Q802.8 253.1 801.7 254.0L801.7 254.0Q800.6 254.9 798.5 255.0L798.5 255.0Q792.7 255.0 792.7 261.4L792.7 261.4L792.7 276.3Q792.7 278.1 791.7 279.1ZM830.8 275.9Q826.7 280.2 819.8 280.2Q812.9 280.2 808.8 275.9Q804.8 271.6 804.8 264.1L804.8 264.1Q804.8 256.6 808.9 252.2Q813.0 247.9 819.8 247.9L819.8 247.9Q826.7 247.9 830.7 252.2Q834.8 256.6 834.8 264.1L834.8 264.1Q834.8 271.6 830.8 275.9ZM814.2 271.7Q816.3 274.4 819.8 274.4Q823.3 274.4 825.4 271.7Q827.4 269.0 827.4 264.1L827.4 264.1Q827.4 259.2 825.4 256.4Q823.3 253.7 819.8 253.7L819.8 253.7Q816.3 253.7 814.2 256.4Q812.2 259.2 812.2 264.1L812.2 264.1Q812.2 269.0 814.2 271.7ZM846.0 279.2Q845.0 280.2 843.4 280.2Q841.7 280.2 840.7 279.2Q839.7 278.1 839.7 276.3L839.7 276.3L839.7 240.6Q839.7 238.7 840.7 237.7Q841.7 236.7 843.4 236.7Q845.0 236.7 846.0 237.7Q847.0 238.7 847.0 240.6L847.0 240.6L847.0 276.3Q847.0 278.1 846.0 279.2ZM859.7 279.2Q858.7 280.2 857.1 280.2Q855.4 280.2 854.4 279.2Q853.4 278.1 853.4 276.3L853.4 276.3L853.4 240.6Q853.4 238.7 854.4 237.7Q855.4 236.7 857.1 236.7Q858.7 236.7 859.7 237.7Q860.7 238.7 860.7 240.6L860.7 240.6L860.7 276.3Q860.7 278.1 859.7 279.2Z M895.1 279.6L883.5 279.6Q881.7 279.6 880.7 278.5Q879.7 277.5 879.7 275.7L879.7 275.7L879.7 241.2Q879.7 239.4 880.7 238.3Q881.7 237.3 883.5 237.3L883.5 237.3L895.1 237.3Q904.6 237.3 909.9 242.8Q915.2 248.3 915.2 258.3L915.2 258.3Q915.2 268.4 909.9 274.0Q904.6 279.6 895.1 279.6L895.1 279.6ZM887.2 243.7L887.2 273.2L894.3 273.2Q900.7 273.2 904.1 269.4Q907.5 265.6 907.5 258.4L907.5 258.4Q907.5 251.3 904.1 247.5Q900.7 243.7 894.3 243.7L894.3 243.7L887.2 243.7ZM934.3 280.2L934.3 280.2Q927.1 280.2 923.2 276.0Q919.2 271.7 919.2 264.2L919.2 264.2Q919.2 256.7 923.2 252.3Q927.1 247.9 933.8 247.9L933.8 247.9Q940.2 247.9 944.2 251.9Q948.1 256.0 948.1 262.4L948.1 262.4Q948.1 264.0 947.3 264.9Q946.4 265.8 944.7 265.8L944.7 265.8L926.4 265.8L926.4 266.0Q926.4 269.9 928.5 272.3Q930.7 274.6 934.2 274.6L934.2 274.6Q936.7 274.6 938.4 273.6Q940.2 272.7 942.0 270.4L942.0 270.4Q943.0 269.3 944.4 269.3L944.4 269.3Q945.7 269.3 946.5 270.0Q947.4 270.8 947.4 272.1L947.4 272.1Q947.4 272.9 946.9 273.9L946.9 273.9Q945.3 276.9 942.0 278.5Q938.7 280.2 934.3 280.2ZM926.5 261.0L926.5 261.0L941.0 261.0Q940.9 257.6 938.9 255.6Q937.0 253.5 933.9 253.5Q930.8 253.5 928.8 255.6Q926.7 257.7 926.5 261.0ZM959.3 279.2Q958.3 280.2 956.7 280.2Q955.1 280.2 954.0 279.2Q953.0 278.1 953.0 276.3L953.0 276.3L953.0 240.6Q953.0 238.7 954.0 237.7Q955.1 236.7 956.7 236.7Q958.3 236.7 959.3 237.7Q960.3 238.7 960.3 240.6L960.3 240.6L960.3 276.3Q960.3 278.1 959.3 279.2ZM975.7 280.1L975.7 280.1Q971.1 280.1 968.2 277.5Q965.3 274.9 965.3 270.7L965.3 270.7Q965.3 266.6 968.3 264.2Q971.4 261.8 977.1 261.4L977.1 261.4L985.3 260.9L985.3 258.7Q985.3 256.3 983.8 254.9Q982.2 253.6 979.5 253.6L979.5 253.6Q977.4 253.6 975.9 254.4Q974.4 255.2 973.0 257.2L973.0 257.2Q971.9 258.7 970.1 258.7L970.1 258.7Q968.7 258.7 967.8 257.9Q967.0 257.1 967.0 255.8L967.0 255.8Q967.0 254.8 967.5 253.8L967.5 253.8Q968.7 251.1 972.0 249.5Q975.4 247.9 979.8 247.9L979.8 247.9Q985.6 247.9 989.1 250.7Q992.5 253.5 992.5 258.2L992.5 258.2L992.5 276.5Q992.5 278.2 991.5 279.2Q990.6 280.2 989.0 280.2L989.0 280.2Q987.5 280.2 986.5 279.3Q985.6 278.4 985.5 276.8L985.5 276.8L985.5 274.6L985.4 274.6Q984.0 277.1 981.4 278.6Q978.7 280.1 975.7 280.1ZM977.9 274.6L977.9 274.6Q981.0 274.6 983.2 272.7Q985.3 270.8 985.3 268.1L985.3 268.1L985.3 265.7L978.1 266.1Q975.5 266.3 974.0 267.4Q972.6 268.6 972.6 270.4L972.6 270.4Q972.6 272.3 974.0 273.4Q975.5 274.6 977.9 274.6ZM1002.8 291.1L1002.8 291.1Q1000.4 291.1 999.1 290.2Q997.8 289.3 997.8 287.7L997.8 287.7Q997.8 286.6 998.5 285.9Q999.3 285.2 1000.5 285.2L1000.5 285.2Q1000.8 285.2 1001.3 285.2Q1001.8 285.2 1002.1 285.2L1002.1 285.2Q1005.1 285.2 1006.5 281.7L1006.5 281.7L1007.1 280.1L996.9 253.4Q996.5 252.2 996.5 251.3L996.5 251.3Q996.5 249.8 997.6 248.9Q998.6 247.9 1000.2 247.9L1000.2 247.9Q1001.6 247.9 1002.4 248.6Q1003.3 249.3 1003.7 250.8L1003.7 250.8L1011.1 273.4L1011.3 273.4L1018.7 250.8Q1019.1 249.3 1020.0 248.6Q1020.8 247.9 1022.2 247.9L1022.2 247.9Q1023.7 247.9 1024.7 248.8Q1025.7 249.8 1025.7 251.2L1025.7 251.2Q1025.7 252.2 1025.3 253.3L1025.3 253.3L1015.1 280.7Q1013.0 286.5 1010.2 288.8Q1007.5 291.1 1002.8 291.1Z "/><defs><clipPath id="satori_bc-id-0-1"><rect x="0" y="441" width="1200" height="189"/></clipPath></defs><mask id="satori_om-id-0-1"><rect x="0" y="442" width="1200" height="188" fill="#fff"/><path width="1200" height="189" fill="none" stroke="#000" stroke-width="2" d="M0,441 A0,0 0 0 1 0,441 h1200 A0,0 0 0 1 1200,441"/></mask><path width="1200" height="189" clip-path="url(#satori_bc-id-0-1)" fill="none" stroke="#dbdbdb" stroke-width="2" d="M0,441 A0,0 0 0 1 0,441 h1200 A0,0 0 0 1 1200,441"/><mask id="satori_om-id-0-1-0"><rect x="40" y="482" width="292" height="108" fill="#fff"/></mask><clipPath id="satori_cp-id-0-1-0-0"><rect x="40" y="504" width="64" height="64"/></clipPath><mask id="satori_om-id-0-1-0-0"><rect x="40" y="504" width="64" height="64" fill="#fff"/></mask><image x="40" y="504" width="64" height="64" href="data:image/svg+xml;utf8,%3Csvg  xmlns=%22http://www.w3.org/2000/svg%22 width=%2264%22 height=%2264%22 viewBox=%220 0 128 128%22%3E%3Cpath fill=%22%23224d67%22 d=%22M22.5 14.8c2.9 1.3 99 44 99 44c2.7 1.2 2.9 3.1 2 12.4c-1 10.5-1.9 37.8-40.2 42.9c-24.6 3.2-55.9-4.3-70.9-27.2C-6 58.8 11 23.4 14.8 17.7c2.4-3.5 4.8-4.2 7.7-2.9%22%3E%3C/path%3E%3Cpath fill=%22%23f0f4c3%22 d=%22M121.5 58.8c-.3-.2-92-40.8-98.9-43.9C9.6 31.5-3.8 76 27.9 96.2c33.6 21.5 78.7-10.2 93.6-37.4%22%3E%3C/path%3E%3Cpath fill=%22%23f0f4c3%22 d=%22M117.7 57c-.3-.2-86.7-38.4-93.2-41.3c-12.2 15.5-23.9 59.1 5.7 78c31.4 20.2 73.6-11.2 87.5-36.7%22%3E%3C/path%3E%3Cpath fill=%22%23cb2a42%22 d=%22M56.2 37.6L19.5 48.2c-2.5.8-4.4 2.8-5 5.3c-1.9 8.5.8 23.3 8.9 29.8c3.5 2.7 8.6 1.8 10.8-2.1L58.5 41c1.3-1.7.5-4.2-2.3-3.4m14.3 2.9s14.6 30.1 16 33s6.3 4.7 9.9 2.8c10.7-5.6 15.5-12.4 19.2-20.2c-8.9-3.9-42.4-18.8-42.4-18.8c-2.4-1.1-4 .6-2.7 3.2m-8.6 1.9C60.3 45.1 39.5 81 37.6 84.1c-1.9 3.2-.7 7.5 2.7 9.2c12.3 6.5 30.9.4 39.6-7c2.2-1.9 4.5-5.1 3.2-8.2S68.9 44.6 67.8 42.3c-1.2-2.7-4.1-2.8-5.9.1%22%3E%3C/path%3E%3Cpath fill=%22%23f0f4c3%22 d=%22M52.2 42.2c-1.4.4-10.1 3-11.1 3.4c-1.4.5-2.2 1.7-1.9 2.5c.3.9 1.7 1.1 3.1.6c.8-.3 7.1-3.9 9.5-5.2c-3.1 2.4-10.2 9.4-11.1 10.3c-1.4 1.5-1.7 3.4-.8 4.3c1 .9 2.9.5 4.3-1c1.2-1.3 8.5-12.8 9.1-13.9s.4-1.4-1.1-1m10.1 16.4c0-2.2 1.4-10.3 1.8-12.3c.4-1.6 1.5-1.8 1.8.5s1.7 9.7 1.7 11.8s-1.2 3.3-2.7 3.3c-1.4 0-2.6-1.1-2.6-3.3M79.9 49c-1.2-1.8-3.3-4.9-4.1-6.1c-.7-1.2.1-2.1 1.8-.9s4 2.9 5.4 4c1.6 1.3 1.9 3 .8 4s-2.7.8-3.9-1%22%3E%3C/path%3E%3Cellipse cx=%2287.3%22 cy=%22103.12%22 fill=%22%23cb2a42%22 rx=%223.4%22 ry=%222.3%22 transform=%22rotate(-27.098 87.298 103.126)%22%3E%3C/ellipse%3E%3Cellipse cx=%2298.89%22 cy=%22103.82%22 fill=%22%23cb2a42%22 rx=%223.4%22 ry=%222.3%22 transform=%22rotate(-30.642 98.887 103.818)%22%3E%3C/ellipse%3E%3Cellipse cx=%22102.02%22 cy=%2293.8%22 fill=%22%23cb2a42%22 rx=%223.4%22 ry=%222.3%22 transform=%22rotate(-37.16 102.017 93.797)%22%3E%3C/ellipse%3E%3Cpath fill=%22%23cb2a42%22 d=%22M57.6 30.3c-8.3-3.7-24.4-10.7-29.6-13c-3.6 2.2-9.7 11.4-11.2 21.2c-.6 3.6 1.7 5.9 5.3 4.9c0 0 33.7-9.3 35.3-9.7c1.6-.5 2-2.6.2-3.4%22%3E%3C/path%3E%3C/svg%3E" preserveAspectRatio="none" clip-path="url(#satori_cp-id-0-1-0-0)" mask="url(#satori_om-id-0-1-0-0)"/><mask id="satori_om-id-0-1-0-0-0"><rect x="40" y="504" width="0" height="64" fill="#fff"/></mask><mask id="satori_om-id-0-1-0-0-1"><rect x="40" y="504" width="0" height="64" fill="#fff"/></mask><mask id="satori_om-id-0-1-0-0-2"><rect x="40" y="504" width="0" height="64" fill="#fff"/></mask><mask id="satori_om-id-0-1-0-0-3"><rect x="40" y="504" width="0" height="64" fill="#fff"/></mask><mask id="satori_om-id-0-1-0-0-4"><rect x="40" y="504" width="0" height="64" fill="#fff"/></mask><mask id="satori_om-id-0-1-0-0-5"><rect x="40" y="504" width="0" height="64" fill="#fff"/></mask><mask id="satori_om-id-0-1-0-0-6"><rect x="40" y="504" width="0" height="64" fill="#fff"/></mask><mask id="satori_om-id-0-1-0-0-7"><rect x="40" y="504" width="0" height="64" fill="#fff"/></mask><mask id="satori_om-id-0-1-0-0-8"><rect x="40" y="504" width="0" height="64" fill="#fff"/></mask><mask id="satori_om-id-0-1-0-1"><rect x="116" y="512" width="216" height="48" fill="#fff"/></mask><path fill="#545454" d="M121.1 553.5L121.1 553.5Q119.4 553.5 118.4 552.6Q117.5 551.7 117.5 550.2L117.5 550.2Q117.5 549.3 117.9 547.9L117.9 547.9L127.2 522.8Q127.9 520.7 129.2 519.7Q130.5 518.8 132.5 518.8L132.5 518.8Q134.6 518.8 135.9 519.7Q137.2 520.7 137.9 522.8L137.9 522.8L147.2 547.9Q147.6 549.2 147.6 550.2L147.6 550.2Q147.6 551.6 146.6 552.6Q145.6 553.5 144.1 553.5L144.1 553.5Q142.6 553.5 141.7 552.8Q140.9 552.1 140.4 550.4L140.4 550.4L138.6 545.0L126.4 545.0L124.6 550.3Q124.2 552.0 123.3 552.8Q122.5 553.5 121.1 553.5ZM132.4 525.7L128.0 539.6L137 539.6L132.5 525.7L132.4 525.7ZM159.1 552.6Q158.2 553.6 156.6 553.6Q155.0 553.6 154.1 552.6Q153.2 551.7 153.2 550.0L153.2 550.0L153.2 533.1L151.9 533.1Q150.8 533.1 150.1 532.4Q149.4 531.7 149.4 530.6Q149.4 529.4 150.1 528.7Q150.8 528.1 151.9 528.1L151.9 528.1L153.2 528.1L153.2 526.2Q153.2 522.5 155.0 520.7Q156.7 519.0 160.3 518.9L160.3 518.9Q163.0 518.9 164.2 519.7Q165.5 520.4 165.5 521.7L165.5 521.7Q165.5 523.1 164.1 523.5L164.1 523.5Q163.5 523.7 162.8 523.7L162.8 523.7Q161.2 523.7 160.5 524.4Q159.9 525.1 159.9 526.5L159.9 526.5L159.9 528.1L162.7 528.1Q163.8 528.1 164.5 528.7Q165.2 529.4 165.2 530.6Q165.2 531.7 164.5 532.4Q163.8 533.1 162.7 533.1L162.7 533.1L160.0 533.1L160.0 550.0Q160.0 551.7 159.1 552.6ZM170.3 546.6L170.3 546.6L170.3 533.1L168.9 533.1Q167.7 533.1 167.0 532.4Q166.3 531.7 166.3 530.5Q166.3 529.3 167.0 528.6Q167.7 527.9 168.9 527.9L168.9 527.9L170.3 527.9L170.3 525.1Q170.3 523.5 171.2 522.5Q172.1 521.6 173.7 521.6Q175.3 521.6 176.2 522.5Q177.1 523.5 177.1 525.1L177.1 525.1L177.1 527.9L179.5 527.9Q180.7 527.9 181.4 528.6Q182.1 529.3 182.1 530.5Q182.1 531.7 181.4 532.4Q180.7 533.1 179.5 533.1L179.5 533.1L177.1 533.1L177.1 545.1Q177.1 546.5 177.6 547.1Q178.1 547.7 179.2 547.8L179.2 547.8L179.6 547.8Q180.9 548.0 181.6 548.5Q182.2 549.1 182.2 550.3L182.2 550.3Q182.2 551.8 180.9 552.6Q179.6 553.3 177.4 553.3L177.4 553.3L177.1 553.3Q170.3 553.3 170.3 546.6ZM197.0 553.6L197.0 553.6Q191.2 553.6 187.9 550.2Q184.6 546.7 184.6 540.6L184.6 540.6Q184.6 534.5 187.9 531.0Q191.1 527.4 196.7 527.4L196.7 527.4Q202.0 527.4 205.3 530.7Q208.6 533.9 208.6 539.1L208.6 539.1Q208.6 540.5 207.9 541.3Q207.1 542.1 205.6 542.1L205.6 542.1L191.3 542.1L191.3 542.4Q191.3 545.2 192.9 546.9Q194.4 548.5 197.0 548.5L197.0 548.5Q198.9 548.5 200.3 547.8Q201.6 547.2 203.0 545.5L203.0 545.5Q204.0 544.5 205.3 544.5L205.3 544.5Q206.4 544.5 207.2 545.2Q207.9 545.9 207.9 547.0L207.9 547.0Q207.9 547.8 207.5 548.7L207.5 548.7Q206.2 551 203.4 552.3Q200.7 553.6 197.0 553.6ZM191.4 537.9L191.4 537.9L202.0 537.9Q201.9 535.4 200.5 533.9Q199.0 532.5 196.8 532.5Q194.5 532.5 193.1 534.0Q191.6 535.5 191.4 537.9ZM215.6 553.6L215.6 553.6Q214.0 553.6 213.1 552.6Q212.1 551.7 212.1 550.0L212.1 550.0L212.1 530.9Q212.1 529.3 213.0 528.3Q213.9 527.4 215.4 527.4L215.4 527.4Q216.9 527.4 217.8 528.3Q218.7 529.3 218.7 530.9L218.7 530.9L218.7 532.5L218.8 532.5Q219.3 530.2 220.7 528.9Q222.1 527.5 224.0 527.5L224.0 527.5Q225.4 527.5 226.2 528.2L226.2 528.2Q227.2 528.9 227.2 530.7L227.2 530.7Q227.2 532.3 226.2 533.2L226.2 533.2Q225.2 534.0 223.2 534.1L223.2 534.1Q221.0 534.1 220.0 535.3Q219.0 536.5 219.0 538.8L219.0 538.8L219.0 550.0Q219.0 551.7 218.1 552.6Q217.2 553.6 215.6 553.6ZM242.6 553.6L242.6 553.6Q237.5 553.6 234.1 551.8Q230.8 550.0 229.7 547.1L229.7 547.1Q229.4 546.1 229.4 545.2L229.4 545.2Q229.4 543.8 230.2 543.0Q231.1 542.1 232.5 542.1L232.5 542.1Q233.6 542.1 234.3 542.6Q235.1 543.1 235.7 544.2L235.7 544.2Q236.5 546.1 238.4 547.0Q240.2 547.9 242.7 547.9L242.7 547.9Q245.6 547.9 247.3 546.7Q249.1 545.5 249.1 543.6L249.1 543.6Q249.1 541.9 247.8 540.9Q246.4 539.9 243.3 539.3L243.3 539.3L239.7 538.6Q229.6 536.6 229.6 528.9L229.6 528.9Q229.6 525.9 231.3 523.5Q232.9 521.2 235.9 519.9Q238.8 518.7 242.5 518.7L242.5 518.7Q247.2 518.7 250.5 520.5Q253.8 522.4 254.9 525.7L254.9 525.7Q255.1 526.4 255.1 527.2L255.1 527.2Q255.1 528.5 254.3 529.3Q253.5 530.1 252.1 530.1L252.1 530.1Q250.9 530.1 250.1 529.6Q249.4 529.1 248.8 528.0L248.8 528.0Q247.2 524.4 242.5 524.4L242.5 524.4Q239.9 524.4 238.3 525.5Q236.7 526.6 236.7 528.5L236.7 528.5Q236.7 530.1 238.1 531.1Q239.4 532.1 242.4 532.7L242.4 532.7L245.9 533.4Q251.3 534.5 253.7 536.7Q256.2 539.0 256.2 542.8L256.2 542.8Q256.2 547.8 252.5 550.7Q248.9 553.6 242.6 553.6ZM266.0 552.6Q265.0 553.6 263.5 553.6Q261.9 553.6 261.0 552.6Q260.1 551.7 260.1 550.0L260.1 550.0L260.1 522.2Q260.1 520.6 261.0 519.7Q261.9 518.7 263.4 518.7L263.4 518.7Q265.0 518.7 265.9 519.7Q266.8 520.6 266.8 522.2L266.8 522.2L266.8 532.4L266.9 532.4Q267.9 530.0 270.0 528.7Q272 527.5 274.8 527.5L274.8 527.5Q279.0 527.5 281.3 530.0Q283.6 532.5 283.6 536.9L283.6 536.9L283.6 550.0Q283.6 551.7 282.7 552.6Q281.7 553.6 280.2 553.6Q278.6 553.6 277.7 552.6Q276.8 551.7 276.8 550.0L276.8 550.0L276.8 538.3Q276.8 535.9 275.6 534.5Q274.3 533.1 272.0 533.1L272.0 533.1Q269.7 533.1 268.3 534.7Q266.9 536.2 266.9 538.7L266.9 538.7L266.9 550.0Q266.9 551.7 266.0 552.6ZM294.1 523.8Q293.0 524.8 291.5 524.8Q290.0 524.8 288.9 523.8Q287.8 522.8 287.8 521.3L287.8 521.3Q287.8 519.8 288.9 518.8Q290.0 517.7 291.5 517.7Q293.0 517.7 294.1 518.8Q295.2 519.8 295.2 521.3L295.2 521.3Q295.2 522.8 294.1 523.8ZM294.0 552.6Q293.1 553.6 291.5 553.6Q289.9 553.6 289.0 552.6Q288.1 551.7 288.1 550.0L288.1 550.0L288.1 531.0Q288.1 529.3 289.0 528.4Q289.9 527.4 291.5 527.4Q293.1 527.4 294.0 528.4Q294.9 529.3 294.9 531.0L294.9 531.0L294.9 550.0Q294.9 551.7 294.0 552.6ZM307.2 552.6Q306.3 553.6 304.7 553.6Q303.1 553.6 302.2 552.6Q301.3 551.7 301.3 550.0L301.3 550.0L301.3 533.1L300.0 533.1Q298.9 533.1 298.2 532.4Q297.5 531.7 297.5 530.6Q297.5 529.4 298.2 528.7Q298.9 528.1 300.0 528.1L300.0 528.1L301.3 528.1L301.3 526.2Q301.3 522.5 303.1 520.7Q304.9 519.0 308.5 518.9L308.5 518.9Q311.1 518.9 312.4 519.7Q313.6 520.4 313.6 521.7L313.6 521.7Q313.6 523.1 312.2 523.5L312.2 523.5Q311.6 523.7 310.9 523.7L310.9 523.7Q309.4 523.7 308.7 524.4Q308.0 525.1 308.0 526.5L308.0 526.5L308.0 528.1L310.9 528.1Q312.0 528.1 312.7 528.7Q313.4 529.4 313.4 530.6Q313.4 531.7 312.7 532.4Q312.0 533.1 310.9 533.1L310.9 533.1L308.1 533.1L308.1 550.0Q308.1 551.7 307.2 552.6ZM318.4 546.6L318.4 546.6L318.4 533.1L317.1 533.1Q315.9 533.1 315.1 532.4Q314.4 531.7 314.4 530.5Q314.4 529.3 315.1 528.6Q315.9 527.9 317.1 527.9L317.1 527.9L318.4 527.9L318.4 525.1Q318.4 523.5 319.3 522.5Q320.2 521.6 321.8 521.6Q323.4 521.6 324.3 522.5Q325.2 523.5 325.2 525.1L325.2 525.1L325.2 527.9L327.6 527.9Q328.9 527.9 329.6 528.6Q330.3 529.3 330.3 530.5Q330.3 531.7 329.6 532.4Q328.9 533.1 327.6 533.1L327.6 533.1L325.2 533.1L325.2 545.1Q325.2 546.5 325.7 547.1Q326.2 547.7 327.3 547.8L327.3 547.8L327.8 547.8Q329.1 548.0 329.7 548.5Q330.4 549.1 330.4 550.3L330.4 550.3Q330.4 551.8 329.0 552.6Q327.7 553.3 325.5 553.3L325.5 553.3L325.3 553.3Q318.4 553.3 318.4 546.6Z "/><mask id="satori_om-id-0-1-1"><rect x="924" y="524" width="236" height="36" fill="#fff"/></mask><path fill="#8e8e8e" d="M927.9 552.6Q927.5 552.9 927.0 552.9Q926.4 552.9 926.1 552.6Q925.8 552.2 925.8 551.7L925.8 551.7L925.8 532.6Q925.8 532.0 926.1 531.6Q926.5 531.3 927.1 531.3Q927.6 531.3 928.0 531.6Q928.3 532.0 928.3 532.6L928.3 532.6L928.3 540.0L928.4 540.0Q929.1 538.7 930.4 537.9Q931.7 537.2 933.3 537.2L933.3 537.2Q936.2 537.2 937.9 539.3Q939.7 541.5 939.7 545.0L939.7 545.0Q939.7 548.6 937.9 550.8Q936.2 552.9 933.2 552.9L933.2 552.9Q931.6 552.9 930.3 552.2Q929.0 551.4 928.3 550.1L928.3 550.1L928.2 550.1L928.2 551.7Q928.2 552.2 927.9 552.6ZM932.7 550.7L932.7 550.7Q934.8 550.7 935.9 549.2Q937.1 547.7 937.1 545.0L937.1 545.0Q937.1 542.5 935.9 540.9Q934.8 539.4 932.7 539.4L932.7 539.4Q930.8 539.4 929.6 541.0Q928.3 542.5 928.3 545.0L928.3 545.0Q928.3 547.6 929.6 549.1Q930.8 550.7 932.7 550.7ZM943.8 558.4L943.8 558.4Q942.9 558.4 942.4 558.0Q941.9 557.7 941.9 557.1L941.9 557.1Q941.9 556.7 942.1 556.4Q942.4 556.2 942.9 556.2L942.9 556.2Q943.1 556.2 943.3 556.2Q943.5 556.2 943.7 556.2L943.7 556.2Q945.4 556.2 946.2 553.7L946.2 553.7L946.6 552.7L941.3 539.0Q941.2 538.6 941.2 538.3L941.2 538.3Q941.2 537.8 941.6 537.5Q941.9 537.2 942.5 537.2L942.5 537.2Q943.4 537.2 943.7 538.1L943.7 538.1L947.9 550.1L948.0 550.1L952.2 538.1Q952.3 537.6 952.6 537.4Q952.9 537.2 953.4 537.2L953.4 537.2Q953.9 537.2 954.3 537.5Q954.6 537.8 954.6 538.3L954.6 538.3Q954.6 538.6 954.5 539.0L954.5 539.0L948.9 553.7Q947.9 556.4 946.8 557.4Q945.7 558.4 943.8 558.4Z M965.7 552.5Q965.3 552.9 964.7 552.9Q964.1 552.9 963.8 552.5Q963.4 552.1 963.4 551.5L963.4 551.5L963.4 532.9Q963.4 532.3 963.8 531.9Q964.1 531.5 964.7 531.5L964.7 531.5L970.9 531.5Q973.9 531.5 975.8 533.4Q977.7 535.3 977.7 538.3L977.7 538.3Q977.7 541.3 975.8 543.2Q973.9 545.1 970.9 545.1L970.9 545.1L966.0 545.1L966.0 551.5Q966.0 552.1 965.7 552.5ZM966.0 533.9L966.0 542.8L970.3 542.8Q972.5 542.8 973.8 541.6Q975.0 540.4 975.0 538.3Q975.0 536.2 973.8 535.0Q972.5 533.9 970.3 533.9L970.3 533.9L966.0 533.9ZM984.8 552.9L984.8 552.9Q982.5 552.9 981.1 551.7Q979.7 550.4 979.7 548.4L979.7 548.4Q979.7 546.4 981.2 545.2Q982.6 544.1 985.2 543.9L985.2 543.9L989.6 543.7L989.6 542.4Q989.6 541.0 988.7 540.2Q987.9 539.4 986.3 539.4L986.3 539.4Q985.0 539.4 984.1 539.9Q983.3 540.4 982.6 541.5L982.6 541.5Q982.3 542.1 981.6 542.1L981.6 542.1Q981.1 542.1 980.8 541.8Q980.5 541.5 980.5 541.0Q980.5 540.5 980.8 539.9L980.8 539.9Q981.4 538.7 982.9 537.9Q984.5 537.2 986.3 537.2L986.3 537.2Q989.0 537.2 990.6 538.5Q992.2 539.9 992.2 542.1L992.2 542.1L992.2 551.6Q992.2 552.2 991.8 552.6Q991.5 552.9 991.0 552.9L991.0 552.9Q990.4 552.9 990.1 552.6Q989.7 552.2 989.7 551.6L989.7 551.6L989.7 550.0L989.7 550.0Q989.0 551.3 987.7 552.1Q986.3 552.9 984.8 552.9ZM985.3 550.8L985.3 550.8Q987.1 550.8 988.4 549.6Q989.6 548.5 989.6 546.9L989.6 546.9L989.6 545.6L985.5 545.9Q984.0 546.0 983.1 546.6Q982.3 547.3 982.3 548.4Q982.3 549.4 983.1 550.1Q984.0 550.8 985.3 550.8ZM996.2 549.1L996.2 549.1L996.2 539.5L994.9 539.5Q994.4 539.5 994.1 539.3Q993.8 539.0 993.8 538.5L993.8 538.5Q993.8 538.0 994.1 537.7Q994.4 537.4 994.9 537.4L994.9 537.4L996.2 537.4L996.2 534.8Q996.2 534.2 996.6 533.8Q996.9 533.5 997.5 533.5Q998.0 533.5 998.4 533.8Q998.8 534.2 998.8 534.8L998.8 534.8L998.8 537.4L1000.7 537.4Q1001.3 537.4 1001.6 537.7Q1001.9 538.0 1001.9 538.5L1001.9 538.5Q1001.9 539.0 1001.6 539.3Q1001.3 539.5 1000.7 539.5L1000.7 539.5L998.8 539.5L998.8 548.6Q998.8 549.6 999.2 550.0Q999.6 550.5 1000.5 550.6L1000.5 550.6L1000.7 550.6Q1001.9 550.7 1001.9 551.6L1001.9 551.6Q1001.9 552.2 1001.5 552.5Q1001.1 552.8 1000.1 552.8L1000.1 552.8L999.9 552.8Q996.2 552.8 996.2 549.1ZM1006.6 552.5Q1006.3 552.9 1005.7 552.9Q1005.2 552.9 1004.8 552.5Q1004.4 552.2 1004.4 551.6L1004.4 551.6L1004.4 538.5Q1004.4 537.9 1004.8 537.5Q1005.1 537.2 1005.6 537.2Q1006.2 537.2 1006.5 537.5Q1006.8 537.9 1006.8 538.5L1006.8 538.5L1006.8 539.9L1006.9 539.9Q1007.2 538.7 1008.2 537.9Q1009.2 537.2 1010.4 537.2L1010.4 537.2Q1011.2 537.2 1011.6 537.5L1011.6 537.5Q1011.9 537.8 1011.9 538.4L1011.9 538.4Q1011.9 539.0 1011.5 539.3L1011.5 539.3Q1011.1 539.6 1010.3 539.6L1010.3 539.6Q1008.6 539.6 1007.8 540.6Q1007.0 541.6 1007.0 543.2L1007.0 543.2L1007.0 551.6Q1007.0 552.2 1006.6 552.5ZM1015.1 534.9L1015.1 534.9Q1014.4 534.9 1014.0 534.4Q1013.5 533.9 1013.5 533.3L1013.5 533.3Q1013.5 532.6 1014.0 532.2Q1014.4 531.7 1015.1 531.7L1015.1 531.7Q1015.7 531.7 1016.2 532.2Q1016.7 532.6 1016.7 533.3L1016.7 533.3Q1016.7 533.9 1016.2 534.4Q1015.7 534.9 1015.1 534.9ZM1016.0 552.5Q1015.6 552.9 1015.1 552.9Q1014.5 552.9 1014.2 552.5Q1013.8 552.2 1013.8 551.6L1013.8 551.6L1013.8 538.5Q1013.8 537.9 1014.2 537.5Q1014.5 537.2 1015.1 537.2Q1015.6 537.2 1016.0 537.5Q1016.4 537.9 1016.4 538.5L1016.4 538.5L1016.4 551.6Q1016.4 552.2 1016.0 552.5ZM1026.1 552.9L1026.1 552.9Q1022.9 552.9 1021.0 550.8Q1019.1 548.7 1019.1 545.1Q1019.1 541.5 1021.0 539.3Q1022.9 537.2 1026.1 537.2L1026.1 537.2Q1028.2 537.2 1029.9 538.2Q1031.6 539.3 1032.0 540.9L1032.0 540.9Q1032.1 541.2 1032.1 541.4L1032.1 541.4Q1032.1 542.0 1031.8 542.3Q1031.5 542.6 1031.0 542.6L1031.0 542.6Q1030.6 542.6 1030.3 542.4Q1030.1 542.2 1029.8 541.7L1029.8 541.7Q1028.6 539.4 1026.1 539.4L1026.1 539.4Q1024.1 539.4 1022.9 541.0Q1021.6 542.5 1021.6 545.0L1021.6 545.0Q1021.6 547.6 1022.9 549.2Q1024.1 550.7 1026.1 550.7L1026.1 550.7Q1027.4 550.7 1028.3 550.1Q1029.2 549.6 1029.8 548.4L1029.8 548.4Q1030.1 547.9 1030.3 547.7Q1030.6 547.5 1031.0 547.5L1031.0 547.5Q1031.5 547.5 1031.8 547.8Q1032.1 548.2 1032.1 548.7L1032.1 548.7Q1032.1 548.9 1032.0 549.3L1032.0 549.3Q1031.4 550.9 1029.8 551.9Q1028.2 552.9 1026.1 552.9ZM1041.2 552.9L1041.2 552.9Q1037.8 552.9 1036.0 550.9Q1034.1 548.8 1034.1 545.1L1034.1 545.1Q1034.1 541.5 1036.0 539.3Q1037.8 537.2 1041.0 537.2L1041.0 537.2Q1043.9 537.2 1045.8 539.1Q1047.6 541.1 1047.6 544.3L1047.6 544.3Q1047.6 544.9 1047.3 545.3Q1046.9 545.7 1046.2 545.7L1046.2 545.7L1036.7 545.7Q1036.7 548.0 1037.9 549.4Q1039.1 550.7 1041.1 550.7L1041.1 550.7Q1042.5 550.7 1043.4 550.2Q1044.3 549.6 1045.2 548.3L1045.2 548.3Q1045.6 547.8 1046.2 547.8L1046.2 547.8Q1046.7 547.8 1047.0 548.1Q1047.3 548.4 1047.3 548.9L1047.3 548.9Q1047.3 549.2 1047.1 549.7L1047.1 549.7Q1046.4 551.2 1044.8 552.1Q1043.3 552.9 1041.2 552.9ZM1036.7 543.7L1036.7 543.7L1045.0 543.7Q1045.0 541.8 1043.8 540.6Q1042.7 539.4 1041.0 539.4L1041.0 539.4Q1039.2 539.4 1038.0 540.6Q1036.8 541.8 1036.7 543.7Z M1059.0 552.5Q1058.7 552.9 1058.1 552.9Q1057.5 552.9 1057.1 552.5Q1056.7 552.1 1056.7 551.5L1056.7 551.5L1056.7 532.7Q1056.7 532.1 1057.1 531.7Q1057.5 531.3 1058.1 531.3Q1058.7 531.3 1059.0 531.7Q1059.4 532.1 1059.4 532.7L1059.4 532.7L1059.4 541.8L1059.5 541.8L1068.9 531.8Q1069.4 531.3 1070.0 531.3L1070.0 531.3Q1070.5 531.3 1070.9 531.7Q1071.2 532.0 1071.2 532.5L1071.2 532.5Q1071.2 533.0 1070.9 533.3L1070.9 533.3L1063.6 540.9L1071.7 550.6Q1072.1 551.1 1072.1 551.6L1072.1 551.6Q1072.1 552.2 1071.7 552.5Q1071.3 552.9 1070.8 552.9L1070.8 552.9Q1070.1 552.9 1069.6 552.2L1069.6 552.2L1061.7 542.8L1059.4 545.3L1059.4 551.5Q1059.4 552.1 1059.0 552.5ZM1081.2 552.9L1081.2 552.9Q1077.8 552.9 1075.9 550.9Q1074.1 548.8 1074.1 545.1L1074.1 545.1Q1074.1 541.5 1075.9 539.3Q1077.8 537.2 1081.0 537.2L1081.0 537.2Q1083.9 537.2 1085.8 539.1Q1087.6 541.1 1087.6 544.3L1087.6 544.3Q1087.6 544.9 1087.2 545.3Q1086.9 545.7 1086.2 545.7L1086.2 545.7L1076.7 545.7Q1076.7 548.0 1077.9 549.4Q1079.1 550.7 1081.1 550.7L1081.1 550.7Q1082.5 550.7 1083.4 550.2Q1084.3 549.6 1085.2 548.3L1085.2 548.3Q1085.6 547.8 1086.2 547.8L1086.2 547.8Q1086.7 547.8 1087.0 548.1Q1087.3 548.4 1087.3 548.9L1087.3 548.9Q1087.3 549.2 1087.1 549.7L1087.1 549.7Q1086.4 551.2 1084.8 552.1Q1083.3 552.9 1081.2 552.9ZM1076.7 543.7L1076.7 543.7L1085.0 543.7Q1084.9 541.8 1083.8 540.6Q1082.7 539.4 1080.9 539.4L1080.9 539.4Q1079.1 539.4 1078.0 540.6Q1076.8 541.8 1076.7 543.7ZM1092.4 552.5Q1092.0 552.9 1091.4 552.9Q1090.9 552.9 1090.5 552.5Q1090.2 552.2 1090.2 551.6L1090.2 551.6L1090.2 538.5Q1090.2 537.9 1090.5 537.5Q1090.8 537.2 1091.4 537.2Q1091.9 537.2 1092.2 537.5Q1092.6 537.9 1092.6 538.5L1092.6 538.5L1092.6 539.9L1092.6 539.9Q1093.3 538.6 1094.5 537.9Q1095.8 537.2 1097.5 537.2L1097.5 537.2Q1100.0 537.2 1101.3 538.7Q1102.7 540.2 1102.7 542.8L1102.7 542.8L1102.7 551.6Q1102.7 552.2 1102.4 552.5Q1102.0 552.9 1101.5 552.9Q1100.9 552.9 1100.6 552.5Q1100.2 552.2 1100.2 551.6L1100.2 551.6L1100.2 543.2Q1100.2 541.4 1099.3 540.4Q1098.4 539.4 1096.7 539.4L1096.7 539.4Q1094.9 539.4 1093.8 540.6Q1092.7 541.8 1092.7 543.7L1092.7 543.7L1092.7 551.6Q1092.7 552.2 1092.4 552.5ZM1108.2 552.5Q1107.8 552.9 1107.3 552.9Q1106.7 552.9 1106.3 552.5Q1106.0 552.2 1106.0 551.6L1106.0 551.6L1106.0 538.5Q1106.0 537.9 1106.3 537.5Q1106.7 537.2 1107.2 537.2Q1107.7 537.2 1108.0 537.5Q1108.4 537.9 1108.4 538.5L1108.4 538.5L1108.4 539.9L1108.4 539.9Q1109.0 538.6 1110.1 537.9Q1111.3 537.2 1112.8 537.2L1112.8 537.2Q1114.3 537.2 1115.4 537.9Q1116.5 538.7 1117.0 540.1L1117.0 540.1L1117.1 540.1Q1117.7 538.7 1119.0 537.9Q1120.3 537.2 1121.9 537.2L1121.9 537.2Q1124.1 537.2 1125.5 538.5Q1126.8 539.9 1126.8 542.1L1126.8 542.1L1126.8 551.6Q1126.8 552.2 1126.5 552.5Q1126.1 552.9 1125.6 552.9Q1125.0 552.9 1124.6 552.5Q1124.3 552.2 1124.3 551.6L1124.3 551.6L1124.3 542.7Q1124.3 541.2 1123.5 540.3Q1122.6 539.4 1121.1 539.4Q1119.6 539.4 1118.6 540.4Q1117.7 541.4 1117.7 543.0L1117.7 543.0L1117.7 551.6Q1117.7 552.2 1117.3 552.5Q1117.0 552.9 1116.4 552.9Q1115.8 552.9 1115.5 552.5Q1115.1 552.2 1115.1 551.6L1115.1 551.6L1115.1 542.5Q1115.1 541.1 1114.3 540.2Q1113.4 539.4 1112.0 539.4L1112.0 539.4Q1110.5 539.4 1109.5 540.5Q1108.5 541.5 1108.5 543.1L1108.5 543.1L1108.5 551.6Q1108.5 552.2 1108.2 552.5ZM1136.4 552.9L1136.4 552.9Q1133.2 552.9 1131.3 550.8Q1129.3 548.7 1129.3 545.0Q1129.3 541.4 1131.3 539.3Q1133.2 537.2 1136.4 537.2L1136.4 537.2Q1139.6 537.2 1141.5 539.3Q1143.4 541.4 1143.4 545.0L1143.4 545.0Q1143.4 548.7 1141.5 550.8Q1139.6 552.9 1136.4 552.9ZM1133.1 549.2Q1134.3 550.7 1136.4 550.7Q1138.4 550.7 1139.6 549.2Q1140.8 547.7 1140.8 545.0Q1140.8 542.4 1139.6 540.9Q1138.4 539.4 1136.4 539.4Q1134.3 539.4 1133.1 540.9Q1131.9 542.4 1131.9 545.0Q1131.9 547.7 1133.1 549.2ZM1152.5 535.6L1152.5 535.6Q1152.1 535.6 1151.9 535.4Q1151.6 535.2 1151.6 534.8Q1151.6 534.5 1151.8 534.2L1151.8 534.2L1154.0 531.1Q1154.3 530.6 1154.6 530.5Q1154.8 530.3 1155.1 530.3L1155.1 530.3Q1155.6 530.3 1155.9 530.6Q1156.2 530.9 1156.2 531.3L1156.2 531.3Q1156.2 531.7 1155.9 532.1L1155.9 532.1L1153.4 535.1Q1153.0 535.6 1152.5 535.6ZM1152.4 552.9L1152.4 552.9Q1149.0 552.9 1147.1 550.9Q1145.3 548.8 1145.3 545.1L1145.3 545.1Q1145.3 541.5 1147.1 539.3Q1149.0 537.2 1152.2 537.2L1152.2 537.2Q1155.1 537.2 1156.9 539.1Q1158.8 541.1 1158.8 544.3L1158.8 544.3Q1158.8 544.9 1158.4 545.3Q1158.1 545.7 1157.4 545.7L1157.4 545.7L1147.9 545.7Q1147.9 548.0 1149.1 549.4Q1150.2 550.7 1152.3 550.7L1152.3 550.7Q1153.6 550.7 1154.6 550.2Q1155.5 549.6 1156.4 548.3L1156.4 548.3Q1156.8 547.8 1157.3 547.8L1157.3 547.8Q1157.9 547.8 1158.2 548.1Q1158.5 548.4 1158.5 548.9L1158.5 548.9Q1158.5 549.2 1158.3 549.7L1158.3 549.7Q1157.6 551.2 1156.0 552.1Q1154.5 552.9 1152.4 552.9ZM1147.9 543.7L1147.9 543.7L1156.2 543.7Q1156.1 541.8 1155.0 540.6Q1153.9 539.4 1152.1 539.4L1152.1 539.4Q1150.3 539.4 1149.2 540.6Q1148.0 541.8 1147.9 543.7Z "/></svg>