<svg width="1200" height="630" viewBox="0 0 1200 630" xmlns="http://www.w3.org/2000/svg"><mask id="satori_om-id"><rect x="0" y="0" width="1200" height="630" fill="#fff"/></mask><mask id="satori_om-id-0"><rect x="0" y="0" width="1200" height="630" fill="#fff"/></mask><rect x="0" y="0" width="1200" height="630" fill="#f2f2f2"/><mask id="satori_om-id-0-0"><rect x="0" y="0" width="1200" height="441" fill="#fff"/></mask><mask id="satori_om-id-0-0-0"><rect x="40" y="136" width="1120" height="36" fill="#fff"/></mask><path fill="#8e8e8e" d="M50.0 164.4Q49.6 164.9 48.8 164.9Q48.1 164.9 47.6 164.4Q47.2 164.0 47.2 163.2L47.2 163.2L47.2 146.4L42.0 146.4Q41.3 146.4 40.9 146.0Q40.5 145.6 40.5 144.9Q40.5 144.3 40.9 143.9Q41.3 143.5 42.0 143.5L42.0 143.5L55.6 143.5Q56.3 143.5 56.8 143.9Q57.2 144.3 57.2 144.9Q57.2 145.6 56.8 146.0Q56.3 146.4 55.6 146.4L55.6 146.4L50.5 146.4L50.5 163.2Q50.5 164.0 50.0 164.4ZM64.6 164.9L64.6 164.9Q62.0 164.9 60.6 163.4Q59.1 161.9 59.1 159.2L59.1 159.2L59.1 150.7Q59.1 149.9 59.6 149.4Q60.0 149.0 60.7 149.0L60.7 149.0Q61.4 149.0 61.9 149.4Q62.3 149.9 62.3 150.7L62.3 150.7L62.3 158.6Q62.3 160.4 63.1 161.3Q64.0 162.2 65.6 162.2L65.6 162.2Q67.3 162.2 68.3 161.1Q69.3 160.0 69.3 158.2L69.3 158.2L69.3 150.7Q69.3 149.9 69.7 149.4Q70.1 149.0 70.8 149.0L70.8 149.0Q71.6 149.0 72.0 149.4Q72.4 149.9 72.4 150.7L72.4 150.7L72.4 163.3Q72.4 164.1 72.0 164.5Q71.6 164.9 70.9 164.9Q70.2 164.9 69.8 164.5Q69.4 164.1 69.4 163.3L69.4 163.3L69.4 162.1L69.3 162.1Q68.0 164.9 64.6 164.9ZM82.2 165.0L82.2 165.0Q78.7 165.0 76.8 162.9Q74.9 160.8 74.9 157.0L74.9 157.0Q74.9 153.4 76.8 151.2Q78.7 149.0 82.0 149.0L82.0 149.0Q85.1 149.0 87.0 151.0Q88.9 153.0 88.9 156.1L88.9 156.1Q88.9 156.9 88.5 157.3Q88.1 157.8 87.4 157.8L87.4 157.8L78.1 157.8L78.1 157.8Q78.1 159.9 79.2 161.2Q80.3 162.4 82.2 162.4L82.2 162.4Q83.4 162.4 84.4 161.9Q85.3 161.4 86.1 160.2L86.1 160.2Q86.6 159.6 87.3 159.6L87.3 159.6Q87.8 159.6 88.2 160.0Q88.6 160.3 88.6 160.9L88.6 160.9Q88.6 161.3 88.4 161.8L88.4 161.8Q87.6 163.3 86.0 164.1Q84.4 165.0 82.2 165.0ZM78.1 155.5L78.1 155.5L85.8 155.5Q85.7 153.7 84.7 152.6Q83.7 151.5 82.0 151.5L82.0 151.5Q80.4 151.5 79.3 152.6Q78.2 153.7 78.1 155.5ZM97.1 165.0L97.1 165.0Q94.8 165.0 93.2 164.1Q91.6 163.3 91.1 161.8L91.1 161.8Q90.9 161.5 90.9 161.2L90.9 161.2Q90.9 160.6 91.3 160.2Q91.7 159.9 92.3 159.9L92.3 159.9Q93.1 159.9 93.7 160.7L93.7 160.7Q94.3 161.7 95.1 162.1Q95.9 162.5 97.2 162.5L97.2 162.5Q98.6 162.5 99.4 162.0Q100.2 161.4 100.2 160.5L100.2 160.5Q100.2 159.7 99.7 159.3Q99.2 158.8 98.0 158.5L98.0 158.5L95.6 158.0Q91.1 156.9 91.1 153.6L91.1 153.6Q91.1 151.5 92.8 150.2Q94.4 149.0 97.2 149.0L97.2 149.0Q99.3 149.0 100.8 149.9Q102.4 150.8 102.7 152.2L102.7 152.2Q102.8 152.6 102.8 152.7L102.8 152.7Q102.8 153.2 102.4 153.5Q102.1 153.9 101.5 153.9L101.5 153.9Q100.7 153.9 100.2 153.2L100.2 153.2Q99.7 152.3 99.0 151.8Q98.2 151.4 97.1 151.4L97.1 151.4Q95.8 151.4 95.0 152.0Q94.2 152.5 94.2 153.4L94.2 153.4Q94.2 154.9 96.6 155.5L96.6 155.5L99.0 156.0Q101.4 156.6 102.4 157.5Q103.4 158.5 103.4 160.2L103.4 160.2Q103.4 162.3 101.7 163.6Q99.9 165.0 97.1 165.0ZM111.7 164.9L111.7 164.9Q108.7 164.9 107.0 162.8Q105.2 160.6 105.2 157.0Q105.2 153.3 107.0 151.2Q108.7 149.0 111.6 149.0L111.6 149.0Q113.3 149.0 114.5 149.8Q115.8 150.5 116.5 151.8L116.5 151.8L116.5 151.8L116.5 144.9Q116.5 144.1 117.0 143.7Q117.4 143.2 118.1 143.2L118.1 143.2Q118.8 143.2 119.3 143.7Q119.7 144.2 119.7 144.9L119.7 144.9L119.7 163.4Q119.7 164.1 119.3 164.5Q118.9 164.9 118.1 164.9L118.1 164.9Q117.5 164.9 117.0 164.5Q116.5 164.1 116.5 163.4L116.5 163.4L116.5 161.9L116.5 161.9Q115.9 163.3 114.6 164.1Q113.4 164.9 111.7 164.9ZM112.5 162.2L112.5 162.2Q114.3 162.2 115.5 160.8Q116.6 159.4 116.6 157.0L116.6 157.0Q116.6 154.6 115.5 153.1Q114.3 151.7 112.5 151.7L112.5 151.7Q110.6 151.7 109.5 153.1Q108.4 154.5 108.4 157.0L108.4 157.0Q108.4 159.4 109.5 160.8Q110.6 162.2 112.5 162.2ZM127.5 164.9L127.5 164.9Q125.2 164.9 123.8 163.6Q122.3 162.3 122.3 160.3L122.3 160.3Q122.3 158.3 123.8 157.1Q125.3 155.9 128.1 155.7L128.1 155.7L132.3 155.5L132.3 154.3Q132.3 153.0 131.5 152.3Q130.6 151.6 129.2 151.6L129.2 151.6Q128.0 151.6 127.2 152.0Q126.4 152.5 125.8 153.5L125.8 153.5Q125.3 154.2 124.5 154.2L124.5 154.2Q123.9 154.2 123.5 153.8Q123.1 153.4 123.1 152.9L123.1 152.9Q123.1 152.3 123.4 151.8L123.4 151.8Q124.0 150.5 125.6 149.8Q127.2 149.0 129.3 149.0L129.3 149.0Q132.1 149.0 133.8 150.4Q135.4 151.7 135.4 154.0L135.4 154.0L135.4 163.3Q135.4 164.1 135.0 164.5Q134.6 164.9 133.9 164.9L133.9 164.9Q133.3 164.9 132.8 164.5Q132.4 164.1 132.4 163.4L132.4 163.4L132.4 162.1L132.3 162.1Q131.7 163.4 130.3 164.2Q129.0 164.9 127.5 164.9ZM128.3 162.4L128.3 162.4Q130 162.4 131.1 161.4Q132.3 160.4 132.3 158.9L132.3 158.9L132.3 157.7L128.5 157.9Q127.1 158.0 126.3 158.6Q125.5 159.2 125.5 160.2L125.5 160.2Q125.5 161.2 126.3 161.8Q127.1 162.4 128.3 162.4ZM140.4 170.4L140.4 170.4Q139.3 170.4 138.7 170.0Q138.1 169.6 138.1 168.9L138.1 168.9Q138.1 168.4 138.5 168.1Q138.8 167.8 139.4 167.8L139.4 167.8Q139.5 167.8 139.8 167.8Q140.0 167.8 140.2 167.8L140.2 167.8Q141.8 167.8 142.5 165.7L142.5 165.7L142.8 164.8L137.7 151.3Q137.5 150.9 137.5 150.4L137.5 150.4Q137.5 149.8 137.9 149.4Q138.4 149.0 139.1 149.0L139.1 149.0Q139.7 149.0 140.1 149.3Q140.4 149.5 140.6 150.2L140.6 150.2L144.5 161.8L144.6 161.8L148.5 150.2Q148.7 149.5 149.1 149.3Q149.4 149.0 150.0 149.0L150.0 149.0Q150.7 149.0 151.1 149.4Q151.6 149.8 151.6 150.4L151.6 150.4Q151.6 150.8 151.4 151.3L151.4 151.3L146.1 165.4Q145.0 168.2 143.8 169.3Q142.5 170.4 140.4 170.4ZM156.0 161.1L156.0 161.1Q156.7 161.1 157.1 161.5Q157.5 161.8 157.5 162.4L157.5 162.4Q157.5 162.8 157.4 163.3L157.4 163.3L156.1 168.3Q155.9 169.4 154.8 169.4L154.8 169.4Q154.2 169.4 153.9 169.1Q153.5 168.7 153.6 168.2L153.6 168.2Q153.6 168.1 153.6 167.8L153.6 167.8L154.5 162.4Q154.8 161.1 156.0 161.1Z M180.9 164.7L169.2 164.7Q168.5 164.7 168.1 164.3Q167.7 163.9 167.7 163.3L167.7 163.3Q167.7 162.8 167.8 162.5Q168.0 162.1 168.6 161.6L168.6 161.6L175.2 154.9Q177.2 152.8 177.9 151.7Q178.6 150.6 178.6 149.3L178.6 149.3Q178.6 147.8 177.6 146.8Q176.5 145.8 174.9 145.8L174.9 145.8Q171.8 145.8 170.7 149.0L170.7 149.0Q170.4 149.5 170.1 149.8Q169.8 150.0 169.2 150.0L169.2 150.0Q168.5 150.0 168.1 149.6Q167.7 149.3 167.7 148.6L167.7 148.6Q167.7 148.3 167.8 148.0L167.8 148.0Q168.0 147.1 168.6 146.3Q169.1 145.4 170.0 144.7Q170.8 144.0 172.1 143.6Q173.4 143.1 174.9 143.1L174.9 143.1Q178.0 143.1 179.9 144.8Q181.8 146.5 181.8 149.1L181.8 149.1Q181.8 150.9 180.9 152.5Q179.9 154.0 177.2 156.8L177.2 156.8L172.1 161.8L172.1 161.9L180.9 161.9Q181.5 161.9 181.9 162.3Q182.3 162.7 182.3 163.3L182.3 163.3Q182.3 163.9 181.9 164.3Q181.5 164.7 180.9 164.7L180.9 164.7ZM192.0 164.9L192.0 164.9Q191.3 164.9 190.9 164.5Q190.4 164.0 190.4 163.3L190.4 163.3L190.4 146.9L190.4 146.9L186.7 149.4Q186.2 149.7 185.7 149.7L185.7 149.7Q185.2 149.7 184.8 149.4Q184.5 149.0 184.5 148.5L184.5 148.5Q184.5 147.7 185.3 147.1L185.3 147.1L189.7 144.0Q190.4 143.6 190.8 143.4Q191.2 143.2 191.8 143.2L191.8 143.2Q192.7 143.2 193.1 143.7Q193.6 144.2 193.6 145.1L193.6 145.1L193.6 163.3Q193.6 164.0 193.2 164.5Q192.7 164.9 192.0 164.9Z M210.2 165.0L210.2 165.0Q208.0 165.0 206.4 164.0Q204.8 163.0 204.2 161.3L204.2 161.3Q203.8 160.4 203.8 159.8L203.8 159.8Q203.8 159.0 204.3 158.6Q204.7 158.1 205.4 158.1L205.4 158.1Q206.6 158.1 207.0 159.5L207.0 159.5Q207.3 160.8 208.1 161.4Q209.0 162.1 210.2 162.1L210.2 162.1Q211.8 162.1 212.6 161.1Q213.5 160.2 213.5 158.4L213.5 158.4L213.5 145.0Q213.5 144.2 213.9 143.7Q214.4 143.3 215.1 143.3Q215.9 143.3 216.3 143.7Q216.8 144.2 216.8 145.0L216.8 145.0L216.8 158.4Q216.8 161.5 215.0 163.3Q213.3 165.0 210.2 165.0ZM224.8 164.9L224.8 164.9Q222.6 164.9 221.1 163.6Q219.7 162.3 219.7 160.3L219.7 160.3Q219.7 158.3 221.2 157.1Q222.7 155.9 225.4 155.7L225.4 155.7L229.7 155.5L229.7 154.3Q229.7 153.0 228.8 152.3Q228.0 151.6 226.6 151.6L226.6 151.6Q225.4 151.6 224.6 152.0Q223.8 152.5 223.1 153.5L223.1 153.5Q222.7 154.2 221.9 154.2L221.9 154.2Q221.3 154.2 220.9 153.8Q220.5 153.4 220.5 152.9L220.5 152.9Q220.5 152.3 220.8 151.8L220.8 151.8Q221.4 150.5 223.0 149.8Q224.6 149.0 226.7 149.0L226.7 149.0Q229.5 149.0 231.1 150.4Q232.8 151.7 232.8 154.0L232.8 154.0L232.8 163.3Q232.8 164.1 232.4 164.5Q232.0 164.9 231.3 164.9L231.3 164.9Q230.6 164.9 230.2 164.5Q229.8 164.1 229.8 163.4L229.8 163.4L229.8 162.1L229.7 162.1Q229.0 163.4 227.7 164.2Q226.4 164.9 224.8 164.9ZM225.7 162.4L225.7 162.4Q227.4 162.4 228.5 161.4Q229.7 160.4 229.7 158.9L229.7 158.9L229.7 157.7L225.8 157.9Q224.4 158.0 223.7 158.6Q222.9 159.2 222.9 160.2L222.9 160.2Q222.9 161.2 223.7 161.8Q224.4 162.4 225.7 162.4ZM237.4 164.9L237.4 164.9Q236.7 164.9 236.3 164.5Q235.9 164.0 235.9 163.3L235.9 163.3L235.9 150.6Q235.9 149.8 236.3 149.4Q236.7 149.0 237.4 149.0Q238.1 149.0 238.5 149.4Q238.9 149.9 238.9 150.6L238.9 150.6L238.9 151.8L239.0 151.8Q240.3 149.0 243.8 149.0L243.8 149.0Q246.3 149.0 247.7 150.5Q249.2 152.0 249.2 154.7L249.2 154.7L249.2 163.3Q249.2 164.0 248.7 164.5Q248.3 164.9 247.6 164.9L247.6 164.9Q246.9 164.9 246.4 164.5Q246.0 164.0 246.0 163.3L246.0 163.3L246.0 155.3Q246.0 153.5 245.1 152.6Q244.3 151.7 242.7 151.7L242.7 151.7Q241.0 151.7 240.0 152.8Q239.0 153.9 239.0 155.7L239.0 155.7L239.0 163.3Q239.0 164.0 238.6 164.5Q238.1 164.9 237.4 164.9ZM257.5 164.9L257.5 164.9Q255.0 164.9 253.6 163.4Q252.1 161.9 252.1 159.2L252.1 159.2L252.1 150.7Q252.1 149.9 252.6 149.4Q253.0 149.0 253.7 149.0L253.7 149.0Q254.4 149.0 254.8 149.4Q255.3 149.9 255.3 150.7L255.3 150.7L255.3 158.6Q255.3 160.4 256.1 161.3Q257.0 162.2 258.6 162.2L258.6 162.2Q260.3 162.2 261.3 161.1Q262.2 160.0 262.2 158.2L262.2 158.2L262.2 150.7Q262.2 149.9 262.7 149.4Q263.1 149.0 263.8 149.0L263.8 149.0Q264.5 149.0 265.0 149.4Q265.4 149.9 265.4 150.7L265.4 150.7L265.4 163.3Q265.4 164.1 265 164.5Q264.6 164.9 263.9 164.9Q263.2 164.9 262.8 164.5Q262.4 164.1 262.4 163.3L262.4 163.3L262.4 162.1L262.3 162.1Q261.0 164.9 257.5 164.9ZM273.0 164.9L273.0 164.9Q270.8 164.9 269.3 163.6Q267.9 162.3 267.9 160.3L267.9 160.3Q267.9 158.3 269.4 157.1Q270.9 155.9 273.6 155.7L273.6 155.7L277.9 155.5L277.9 154.3Q277.9 153.0 277.0 152.3Q276.2 151.6 274.8 151.6L274.8 151.6Q273.6 151.6 272.8 152.0Q272.0 152.5 271.4 153.5L271.4 153.5Q270.9 154.2 270.1 154.2L270.1 154.2Q269.5 154.2 269.1 153.8Q268.7 153.4 268.7 152.9L268.7 152.9Q268.7 152.3 269.0 151.8L269.0 151.8Q269.6 150.5 271.2 149.8Q272.8 149.0 274.9 149.0L274.9 149.0Q277.7 149.0 279.3 150.4Q281.0 151.7 281.0 154.0L281.0 154.0L281.0 163.3Q281.0 164.1 280.6 164.5Q280.2 164.9 279.5 164.9L279.5 164.9Q278.8 164.9 278.4 164.5Q278.0 164.1 278.0 163.4L278.0 163.4L278.0 162.1L277.9 162.1Q277.2 163.4 275.9 164.2Q274.6 164.9 273.0 164.9ZM273.9 162.4L273.9 162.4Q275.6 162.4 276.7 161.4Q277.9 160.4 277.9 158.9L277.9 158.9L277.9 157.7L274.1 157.9Q272.6 158.0 271.9 158.6Q271.1 159.2 271.1 160.2L271.1 160.2Q271.1 161.2 271.9 161.8Q272.6 162.4 273.9 162.4ZM285.7 164.9L285.7 164.9Q284.9 164.9 284.5 164.5Q284.1 164.0 284.1 163.3L284.1 163.3L284.1 150.6Q284.1 149.9 284.5 149.4Q284.9 149.0 285.6 149.0L285.6 149.0Q286.2 149.0 286.7 149.4Q287.1 149.9 287.1 150.6L287.1 150.6L287.1 151.9L287.1 151.9Q287.5 150.6 288.4 149.8Q289.4 149.0 290.5 149.0L290.5 149.0Q291.4 149.0 291.8 149.4L291.8 149.4Q292.2 149.7 292.2 150.5L292.2 150.5Q292.2 151.2 291.7 151.6L291.7 151.6Q291.3 152.0 290.3 152.0L290.3 152.0Q288.7 152.0 288.0 153.0Q287.2 153.9 287.2 155.4L287.2 155.4L287.2 163.3Q287.2 164.0 286.8 164.5Q286.4 164.9 285.7 164.9ZM295.8 170.4L295.8 170.4Q294.7 170.4 294.1 170.0Q293.5 169.6 293.5 168.9L293.5 168.9Q293.5 168.4 293.9 168.1Q294.2 167.8 294.8 167.8L294.8 167.8Q294.9 167.8 295.2 167.8Q295.4 167.8 295.6 167.8L295.6 167.8Q297.2 167.8 297.9 165.7L297.9 165.7L298.2 164.8L293.1 151.3Q292.9 150.9 292.9 150.4L292.9 150.4Q292.9 149.8 293.4 149.4Q293.8 149.0 294.5 149.0L294.5 149.0Q295.1 149.0 295.5 149.3Q295.8 149.5 296.0 150.2L296.0 150.2L300.0 161.8L300.0 161.8L304.0 150.2Q304.1 149.5 304.5 149.3Q304.9 149.0 305.5 149.0L305.5 149.0Q306.1 149.0 306.6 149.4Q307.0 149.8 307.0 150.4L307.0 150.4Q307.0 150.8 306.8 151.3L306.8 151.3L301.5 165.4Q300.5 168.2 299.2 169.3Q298.0 170.4 295.8 170.4Z M328.4 164.7L316.8 164.7Q316.0 164.7 315.6 164.3Q315.2 163.9 315.2 163.3L315.2 163.3Q315.2 162.8 315.4 162.5Q315.6 162.1 316.1 161.6L316.1 161.6L322.7 154.9Q324.8 152.8 325.5 151.7Q326.1 150.6 326.1 149.3L326.1 149.3Q326.1 147.8 325.1 146.8Q324.1 145.8 322.5 145.8L322.5 145.8Q319.3 145.8 318.2 149.0L318.2 149.0Q318.0 149.5 317.6 149.8Q317.3 150.0 316.7 150.0L316.7 150.0Q316.1 150.0 315.7 149.6Q315.3 149.3 315.3 148.6L315.3 148.6Q315.3 148.3 315.4 148.0L315.4 148.0Q315.6 147.1 316.1 146.3Q316.7 145.4 317.5 144.7Q318.4 144.0 319.7 143.6Q321.0 143.1 322.5 143.1L322.5 143.1Q325.5 143.1 327.4 144.8Q329.4 146.5 329.4 149.1L329.4 149.1Q329.4 150.9 328.4 152.5Q327.4 154.0 324.7 156.8L324.7 156.8L319.7 161.8L319.7 161.9L328.4 161.9Q329.1 161.9 329.5 162.3Q329.9 162.7 329.9 163.3L329.9 163.3Q329.9 163.9 329.5 164.3Q329.1 164.7 328.4 164.7L328.4 164.7ZM346.3 162.1Q344.2 165.1 340.4 165.1Q336.6 165.1 334.4 162.1Q332.3 159.2 332.3 154.1L332.3 154.1Q332.3 149.0 334.4 146.1Q336.6 143.1 340.4 143.1L340.4 143.1Q344.1 143.1 346.3 146.1Q348.4 149.0 348.4 154.1L348.4 154.1Q348.4 159.1 346.3 162.1ZM340.4 162.3L340.4 162.3Q342.6 162.3 343.9 160.1Q345.1 157.9 345.1 154.1L345.1 154.1Q345.1 150.3 343.9 148.1Q342.6 145.9 340.4 145.9Q338.1 145.9 336.9 148.1Q335.6 150.3 335.6 154.1L335.6 154.1Q335.6 157.9 336.8 160.1Q338.1 162.3 340.4 162.3ZM364.5 164.7L352.8 164.7Q352.1 164.7 351.7 164.3Q351.3 163.9 351.3 163.3L351.3 163.3Q351.3 162.8 351.5 162.5Q351.7 162.1 352.2 161.6L352.2 161.6L358.8 154.9Q360.9 152.8 361.6 151.7Q362.2 150.6 362.2 149.3L362.2 149.3Q362.2 147.8 361.2 146.8Q360.2 145.8 358.6 145.8L358.6 145.8Q355.4 145.8 354.3 149.0L354.3 149.0Q354.1 149.5 353.7 149.8Q353.4 150.0 352.8 150.0L352.8 150.0Q352.2 150.0 351.8 149.6Q351.4 149.3 351.4 148.6L351.4 148.6Q351.4 148.3 351.5 148.0L351.5 148.0Q351.6 147.1 352.2 146.3Q352.7 145.4 353.6 144.7Q354.5 144.0 355.8 143.6Q357.1 143.1 358.6 143.1L358.6 143.1Q361.6 143.1 363.5 144.8Q365.5 146.5 365.5 149.1L365.5 149.1Q365.5 150.9 364.5 152.5Q363.5 154.0 360.8 156.8L360.8 156.8L355.7 161.8L355.7 161.9L364.5 161.9Q365.2 161.9 365.6 162.3Q366.0 162.7 366.0 163.3L366.0 163.3Q366.0 163.9 365.6 164.3Q365.2 164.7 364.5 164.7L364.5 164.7ZM376.3 165.1L376.3 165.1Q373.9 165.1 372.0 164.0Q370.1 162.9 369.4 161.2L369.4 161.2Q369.0 160.5 369.0 159.8L369.0 159.8Q369.0 159.1 369.4 158.7Q369.8 158.3 370.5 158.3L370.5 158.3Q371.0 158.3 371.4 158.6Q371.7 158.8 372.0 159.4L372.0 159.4Q372.5 160.8 373.6 161.5Q374.7 162.3 376.3 162.3L376.3 162.3Q378.3 162.3 379.6 161.0Q380.8 159.8 380.8 157.8L380.8 157.8Q380.8 155.8 379.6 154.6Q378.3 153.4 376.3 153.4L376.3 153.4Q374.2 153.4 372.9 154.7L372.9 154.7Q372.2 155.5 371.8 155.6Q371.5 155.8 370.9 155.8L370.9 155.8Q370.1 155.8 369.7 155.4Q369.3 154.9 369.3 154.2L369.3 154.2L369.3 153.9L370.0 145.8Q370.1 144.6 370.7 144.0Q371.3 143.5 372.5 143.5L372.5 143.5L381.5 143.5Q382.2 143.5 382.6 143.9Q383.0 144.3 383.0 144.9Q383.0 145.5 382.6 145.9Q382.2 146.3 381.5 146.3L381.5 146.3L372.9 146.3L372.3 152.9L372.3 152.9Q373.0 151.9 374.3 151.3Q375.5 150.8 377.1 150.8L377.1 150.8Q380.2 150.8 382.1 152.7Q384.0 154.6 384.0 157.7L384.0 157.7Q384.0 161.0 381.9 163.0Q379.7 165.1 376.3 165.1Z "/><mask id="satori_om-id-0-0-1"><rect x="40" y="217" width="1120" height="83" fill="#fff"/></mask><path fill="#224d67" d="M68.1 279.6L47.5 279.6Q45.7 279.6 44.7 278.5Q43.7 277.5 43.7 275.7L43.7 275.7L43.7 241.2Q43.7 239.4 44.7 238.3Q45.7 237.3 47.5 237.3L47.5 237.3L68.1 237.3Q69.7 237.3 70.6 238.2Q71.6 239.0 71.6 240.5Q71.6 242.0 70.6 242.8Q69.7 243.7 68.1 243.7L68.1 243.7L51.3 243.7L51.3 255.1L67.2 255.1Q68.7 255.1 69.6 255.9Q70.5 256.7 70.5 258.1Q70.5 259.5 69.6 260.3Q68.7 261.1 67.2 261.1L67.2 261.1L51.3 261.1L51.3 273.2L68.1 273.2Q69.7 273.2 70.6 274.1Q71.6 274.9 71.6 276.4Q71.6 277.8 70.6 278.7Q69.7 279.6 68.1 279.6L68.1 279.6ZM79.3 280.2L79.3 280.2Q77.8 280.2 76.9 279.3Q75.9 278.5 75.9 277.1L75.9 277.1Q75.9 276.0 76.8 274.7L76.8 274.7L84.7 264.1L76.9 253.4Q76.2 252.3 76.2 251.1L76.2 251.1Q76.2 249.7 77.2 248.8Q78.2 247.9 79.7 247.9L79.7 247.9Q80.7 247.9 81.4 248.3Q82.1 248.8 82.8 249.9L82.8 249.9L89.2 259.4L89.4 259.4L95.7 249.9Q96.4 248.8 97.1 248.4Q97.8 247.9 98.7 247.9L98.7 247.9Q100.3 247.9 101.2 248.8Q102.2 249.6 102.2 251.0L102.2 251.0Q102.2 252.2 101.3 253.4L101.3 253.4L93.6 263.9L101.3 274.7Q102.1 275.9 102.1 276.9L102.1 276.9Q102.1 278.4 101.1 279.3Q100.1 280.2 98.7 280.2L98.7 280.2Q96.9 280.2 95.8 278.4L95.8 278.4L89.0 268.4L88.9 268.4L82.2 278.3Q81.5 279.3 80.9 279.8Q80.2 280.2 79.3 280.2ZM116.4 280.1L116.4 280.1Q111.9 280.1 109.0 277.5Q106.0 274.9 106.0 270.7L106.0 270.7Q106.0 266.6 109.1 264.2Q112.2 261.8 117.8 261.4L117.8 261.4L126.1 260.9L126.1 258.7Q126.1 256.3 124.5 254.9Q123.0 253.6 120.3 253.6L120.3 253.6Q118.1 253.6 116.6 254.4Q115.1 255.2 113.8 257.2L113.8 257.2Q112.7 258.7 110.8 258.7L110.8 258.7Q109.5 258.7 108.6 257.9Q107.7 257.1 107.7 255.8L107.7 255.8Q107.7 254.8 108.2 253.8L108.2 253.8Q109.4 251.1 112.8 249.5Q116.1 247.9 120.6 247.9L120.6 247.9Q126.3 247.9 129.8 250.7Q133.3 253.5 133.3 258.2L133.3 258.2L133.3 276.5Q133.3 278.2 132.3 279.2Q131.3 280.2 129.7 280.2L129.7 280.2Q128.2 280.2 127.3 279.3Q126.3 278.4 126.3 276.8L126.3 276.8L126.3 274.6L126.1 274.6Q124.8 277.1 122.1 278.6Q119.5 280.1 116.4 280.1ZM118.6 274.6L118.6 274.6Q121.7 274.6 123.9 272.7Q126.1 270.8 126.1 268.1L126.1 268.1L126.1 265.7L118.9 266.1Q116.2 266.3 114.8 267.4Q113.3 268.6 113.3 270.4L113.3 270.4Q113.3 272.3 114.8 273.4Q116.2 274.6 118.6 274.6ZM142.8 280.2L142.8 280.2Q141.1 280.2 140.1 279.2Q139.1 278.1 139.1 276.3L139.1 276.3L139.1 251.6Q139.1 249.9 140.1 248.9Q141.0 247.9 142.6 247.9Q144.2 247.9 145.2 248.9Q146.1 249.9 146.1 251.6L146.1 251.6L146.1 253.9L146.3 253.9Q147.3 251.2 149.7 249.5Q152.0 247.9 155.1 247.9L155.1 247.9Q158.4 247.9 160.7 249.6Q163.0 251.2 163.8 254.2L163.8 254.2L164.0 254.2Q165.1 251.3 167.7 249.6Q170.3 247.9 173.7 247.9L173.7 247.9Q178.3 247.9 181.0 250.8Q183.8 253.6 183.8 258.3L183.8 258.3L183.8 276.3Q183.8 278.1 182.8 279.1Q181.8 280.2 180.2 280.2L180.2 280.2Q178.5 280.2 177.5 279.1Q176.5 278.1 176.5 276.3L176.5 276.3L176.5 260.1Q176.5 257.2 175.0 255.6Q173.6 254.1 170.9 254.1L170.9 254.1Q168.3 254.1 166.7 255.8Q165.0 257.6 165.0 260.4L165.0 260.4L165.0 276.3Q165.0 278.1 164.1 279.2Q163.1 280.2 161.5 280.2L161.5 280.2Q159.8 280.2 158.9 279.2Q157.9 278.1 157.9 276.3L157.9 276.3L157.9 259.7Q157.9 257.1 156.4 255.6Q155.0 254.1 152.4 254.1L152.4 254.1Q149.8 254.1 148.1 255.9Q146.4 257.8 146.4 260.6L146.4 260.6L146.4 276.3Q146.4 278.1 145.4 279.1Q144.4 280.2 142.8 280.2ZM195.9 289.6Q194.9 290.6 193.3 290.6Q191.6 290.6 190.6 289.6Q189.6 288.6 189.6 286.8L189.6 286.8L189.6 251.7Q189.6 249.9 190.6 248.9Q191.6 247.9 193.2 247.9L193.2 247.9Q194.8 247.9 195.8 248.9Q196.7 249.9 196.7 251.7L196.7 251.7L196.7 253.9L196.9 253.9Q198.2 251.1 200.8 249.6Q203.3 248.0 206.7 248.0L206.7 248.0Q212.6 248.0 216.1 252.3Q219.6 256.6 219.6 264.1L219.6 264.1Q219.6 271.5 216.1 275.8Q212.6 280.1 206.8 280.1L206.8 280.1Q203.4 280.1 200.9 278.6Q198.3 277.1 197.1 274.4L197.1 274.4L196.9 274.4L196.9 286.8Q196.9 288.6 195.9 289.6ZM204.4 274.1L204.4 274.1Q208.0 274.1 210.0 271.4Q212.1 268.7 212.1 264.1L212.1 264.1Q212.1 259.5 210.0 256.7Q208.0 254.0 204.4 254.0L204.4 254.0Q201.0 254.0 199.0 256.8Q196.9 259.5 196.9 264.1L196.9 264.1Q196.9 268.6 199.0 271.4Q201.0 274.1 204.4 274.1ZM230.8 279.2Q229.8 280.2 228.1 280.2Q226.5 280.2 225.5 279.2Q224.5 278.1 224.5 276.3L224.5 276.3L224.5 240.6Q224.5 238.7 225.5 237.7Q226.5 236.7 228.1 236.7Q229.8 236.7 230.8 237.7Q231.7 238.7 231.7 240.6L231.7 240.6L231.7 276.3Q231.7 278.1 230.8 279.2ZM251.8 280.2L251.8 280.2Q244.6 280.2 240.7 276.0Q236.7 271.7 236.7 264.2L236.7 264.2Q236.7 256.7 240.7 252.3Q244.6 247.9 251.3 247.9L251.3 247.9Q257.7 247.9 261.7 251.9Q265.6 256.0 265.6 262.4L265.6 262.4Q265.6 264.0 264.8 264.9Q263.9 265.8 262.2 265.8L262.2 265.8L243.9 265.8L243.9 266.0Q243.9 269.9 246.0 272.3Q248.2 274.6 251.7 274.6L251.7 274.6Q254.2 274.6 255.9 273.6Q257.7 272.7 259.5 270.4L259.5 270.4Q260.5 269.3 261.9 269.3L261.9 269.3Q263.2 269.3 264.0 270.0Q264.9 270.8 264.9 272.1L264.9 272.1Q264.9 272.9 264.4 273.9L264.4 273.9Q262.8 276.9 259.5 278.5Q256.2 280.2 251.8 280.2ZM244.0 261.0L244.0 261.0L258.5 261.0Q258.4 257.6 256.4 255.6Q254.5 253.5 251.4 253.5Q248.3 253.5 246.3 255.6Q244.2 257.7 244.0 261.0Z M301.4 280.3L301.4 280.3Q292.2 280.3 286.9 274.4Q281.6 268.6 281.6 258.4L281.6 258.4Q281.6 248.3 286.9 242.5Q292.2 236.6 301.2 236.6L301.2 236.6Q307.1 236.6 311.5 239.2Q315.9 241.8 318.0 246.4L318.0 246.4Q318.7 247.9 318.7 249.3L318.7 249.3Q318.7 250.8 317.8 251.7Q316.9 252.6 315.4 252.6L315.4 252.6Q312.9 252.6 311.7 249.9L311.7 249.9Q310.2 246.6 307.5 244.8Q304.8 243.0 301.3 243.0L301.3 243.0Q295.8 243.0 292.6 247.2Q289.4 251.4 289.4 258.4L289.4 258.4Q289.4 265.5 292.6 269.7Q295.8 273.9 301.3 273.9L301.3 273.9Q309.0 273.9 311.8 267.3L311.8 267.3Q312.4 266.0 313.2 265.4Q314.0 264.9 315.2 264.9L315.2 264.9Q316.7 264.9 317.7 265.8Q318.7 266.7 318.7 268.2L318.7 268.2Q318.7 269.6 318.0 271.1L318.0 271.1Q315.9 275.4 311.6 277.8Q307.3 280.3 301.4 280.3ZM349.2 275.9Q345.1 280.2 338.2 280.2Q331.4 280.2 327.3 275.9Q323.2 271.6 323.2 264.1L323.2 264.1Q323.2 256.6 327.3 252.2Q331.4 247.9 338.2 247.9L338.2 247.9Q345.1 247.9 349.2 252.2Q353.3 256.6 353.3 264.1L353.3 264.1Q353.3 271.6 349.2 275.9ZM332.7 271.7Q334.7 274.4 338.2 274.4Q341.8 274.4 343.8 271.7Q345.9 269.0 345.9 264.1L345.9 264.1Q345.9 259.2 343.8 256.4Q341.8 253.7 338.2 253.7L338.2 253.7Q334.8 253.7 332.7 256.4Q330.6 259.2 330.6 264.1L330.6 264.1Q330.6 269.0 332.7 271.7ZM370.4 280.2L370.4 280.2Q368.4 280.2 367.2 279.3Q366.0 278.4 365.3 276.4L365.3 276.4L356.5 253.3Q356.1 252.2 356.1 251.2L356.1 251.2Q356.1 249.8 357.1 248.8Q358.2 247.9 359.8 247.9L359.8 247.9Q362.4 247.9 363.2 250.8L363.2 250.8L370.3 272.8L370.5 272.8L377.6 250.8Q378.4 247.9 381.0 247.9L381.0 247.9Q382.5 247.9 383.5 248.8Q384.5 249.8 384.5 251.2L384.5 251.2Q384.5 252.2 384.2 253.2L384.2 253.2L375.4 276.4Q374.7 278.3 373.5 279.3Q372.3 280.2 370.4 280.2ZM402.4 280.2L402.4 280.2Q395.3 280.2 391.3 276.0Q387.3 271.7 387.3 264.2L387.3 264.2Q387.3 256.7 391.3 252.3Q395.3 247.9 402.0 247.9L402.0 247.9Q408.4 247.9 412.3 251.9Q416.3 256.0 416.3 262.4L416.3 262.4Q416.3 264.0 415.4 264.9Q414.5 265.8 412.9 265.8L412.9 265.8L394.6 265.8L394.6 266.0Q394.6 269.9 396.7 272.3Q398.8 274.6 402.4 274.6L402.4 274.6Q404.8 274.6 406.6 273.6Q408.4 272.7 410.1 270.4L410.1 270.4Q411.2 269.3 412.6 269.3L412.6 269.3Q413.9 269.3 414.7 270.0Q415.5 270.8 415.5 272.1L415.5 272.1Q415.5 272.9 415.0 273.9L415.0 273.9Q413.5 276.9 410.2 278.5Q406.9 280.2 402.4 280.2ZM394.7 261.0L394.7 261.0L409.2 261.0Q409.1 257.6 407.1 255.6Q405.1 253.5 402.1 253.5Q399.0 253.5 396.9 255.6Q394.9 257.7 394.7 261.0ZM427.3 279.1Q426.3 280.2 424.6 280.2Q423.0 280.2 422.0 279.1Q421.0 278.1 421.0 276.3L421.0 276.3L421.0 251.6Q421.0 249.9 422.0 248.9Q422.9 247.9 424.5 247.9L424.5 247.9Q426.0 247.9 427.0 248.9Q427.9 249.9 427.9 251.6L427.9 251.6L427.9 254.0L428.1 254.0Q428.7 251.3 430.6 249.6Q432.4 248.0 434.7 248.0L434.7 248.0Q436.4 248.0 437.3 248.8L437.3 248.8Q438.3 249.6 438.3 251.4L438.3 251.4Q438.3 253.1 437.3 254.0L437.3 254.0Q436.2 254.9 434.0 255.0L434.0 255.0Q428.3 255.0 428.3 261.4L428.3 261.4L428.3 276.3Q428.3 278.1 427.3 279.1Z M458.2 280.1L458.2 280.1Q456.4 280.1 455.4 279.0Q454.4 278.0 454.4 276.2L454.4 276.2L454.4 240.7Q454.4 238.9 455.4 237.8Q456.4 236.8 458.2 236.8L458.2 236.8Q459.9 236.8 460.9 237.8Q461.9 238.9 461.9 240.7L461.9 240.7L461.9 276.2Q461.9 278.0 460.9 279.1Q459.9 280.1 458.2 280.1ZM472.3 280.2L472.3 280.2Q470.6 280.2 469.6 279.2Q468.6 278.1 468.6 276.3L468.6 276.3L468.6 251.6Q468.6 249.9 469.6 248.9Q470.5 247.9 472.1 247.9Q473.7 247.9 474.7 248.9Q475.6 249.9 475.6 251.6L475.6 251.6L475.6 253.9L475.8 253.9Q476.8 251.2 479.2 249.5Q481.5 247.9 484.6 247.9L484.6 247.9Q487.9 247.9 490.2 249.6Q492.5 251.2 493.3 254.2L493.3 254.2L493.5 254.2Q494.6 251.3 497.2 249.6Q499.8 247.9 503.2 247.9L503.2 247.9Q507.8 247.9 510.5 250.8Q513.3 253.6 513.3 258.3L513.3 258.3L513.3 276.3Q513.3 278.1 512.3 279.1Q511.3 280.2 509.7 280.2L509.7 280.2Q508.0 280.2 507.0 279.1Q506.0 278.1 506.0 276.3L506.0 276.3L506.0 260.1Q506.0 257.2 504.5 255.6Q503.1 254.1 500.4 254.1L500.4 254.1Q497.8 254.1 496.2 255.8Q494.5 257.6 494.5 260.4L494.5 260.4L494.5 276.3Q494.5 278.1 493.6 279.2Q492.6 280.2 491.0 280.2L491.0 280.2Q489.3 280.2 488.4 279.2Q487.4 278.1 487.4 276.3L487.4 276.3L487.4 259.7Q487.4 257.1 485.9 255.6Q484.5 254.1 481.9 254.1L481.9 254.1Q479.3 254.1 477.6 255.9Q475.9 257.8 475.9 260.6L475.9 260.6L475.9 276.3Q475.9 278.1 474.9 279.1Q473.9 280.2 472.3 280.2ZM528.2 280.1L528.2 280.1Q523.7 280.1 520.8 277.5Q517.9 274.9 517.9 270.7L517.9 270.7Q517.9 266.6 520.9 264.2Q524.0 261.8 529.7 261.4L529.7 261.4L537.9 260.9L537.9 258.7Q537.9 256.3 536.4 254.9Q534.8 253.6 532.1 253.6L532.1 253.6Q529.9 253.6 528.4 254.4Q526.9 255.2 525.6 257.2L525.6 257.2Q524.5 258.7 522.6 258.7L522.6 258.7Q521.3 258.7 520.4 257.9Q519.6 257.1 519.6 255.8L519.6 255.8Q519.6 254.8 520.1 253.8L520.1 253.8Q521.2 251.1 524.6 249.5Q527.9 247.9 532.4 247.9L532.4 247.9Q538.2 247.9 541.6 250.7Q545.1 253.5 545.1 258.2L545.1 258.2L545.1 276.5Q545.1 278.2 544.1 279.2Q543.1 280.2 541.6 280.2L541.6 280.2Q540.0 280.2 539.1 279.3Q538.2 278.4 538.1 276.8L538.1 276.8L538.1 274.6L537.9 274.6Q536.6 277.1 533.9 278.6Q531.3 280.1 528.2 280.1ZM530.5 274.6L530.5 274.6Q533.6 274.6 535.7 272.7Q537.9 270.8 537.9 268.1L537.9 268.1L537.9 265.7L530.7 266.1Q528.1 266.3 526.6 267.4Q525.2 268.6 525.2 270.4L525.2 270.4Q525.2 272.3 526.6 273.4Q528.1 274.6 530.5 274.6ZM564.4 291.3L564.4 291.3Q560.0 291.2 556.7 289.7Q553.4 288.2 551.8 285.6L551.8 285.6Q551.1 284.6 551.1 283.4L551.1 283.4Q551.1 282.2 552.0 281.4Q552.8 280.6 554.2 280.6L554.2 280.6Q555.6 280.6 556.9 281.8L556.9 281.8Q558.7 283.7 560.5 284.6Q562.2 285.4 564.4 285.5L564.4 285.5Q568.1 285.5 570.2 283.6Q572.3 281.7 572.3 278.6L572.3 278.6L572.3 273.7L572.2 273.7Q570.9 276.2 568.3 277.7Q565.7 279.3 562.5 279.3L562.5 279.3Q556.6 279.3 553.1 275.0Q549.7 270.8 549.7 263.7L549.7 263.7Q549.7 256.4 553.1 252.2Q556.6 248.0 562.6 248.0L562.6 248.0Q565.8 248.0 568.4 249.5Q570.9 251.1 572.2 253.8L572.2 253.8L572.4 253.8L572.4 251.6Q572.4 249.9 573.4 248.9Q574.4 247.9 576.0 247.9Q577.6 247.9 578.6 248.9Q579.6 249.9 579.6 251.6L579.6 251.6L579.6 278.6Q579.6 284.5 575.6 287.9Q571.5 291.3 564.4 291.3ZM564.7 273.6L564.7 273.6Q568.2 273.6 570.3 270.9Q572.4 268.3 572.4 263.7L572.4 263.7Q572.4 259.2 570.3 256.5Q568.2 253.8 564.7 253.8L564.7 253.8Q561.2 253.8 559.2 256.5Q557.1 259.2 557.1 263.7L557.1 263.7Q557.1 268.3 559.2 271.0Q561.2 273.6 564.7 273.6ZM599.4 280.2L599.4 280.2Q592.3 280.2 588.3 276.0Q584.3 271.7 584.3 264.2L584.3 264.2Q584.3 256.7 588.3 252.3Q592.3 247.9 599.0 247.9L599.0 247.9Q605.3 247.9 609.3 251.9Q613.3 256.0 613.3 262.4L613.3 262.4Q613.3 264.0 612.4 264.9Q611.5 265.8 609.9 265.8L609.9 265.8L591.6 265.8L591.6 266.0Q591.6 269.9 593.7 272.3Q595.8 274.6 599.3 274.6L599.3 274.6Q601.8 274.6 603.6 273.6Q605.3 272.7 607.1 270.4L607.1 270.4Q608.2 269.3 609.6 269.3L609.6 269.3Q610.8 269.3 611.7 270.0Q612.5 270.8 612.5 272.1L612.5 272.1Q612.5 272.9 612.0 273.9L612.0 273.9Q610.4 276.9 607.1 278.5Q603.8 280.2 599.4 280.2ZM591.6 261.0L591.6 261.0L606.1 261.0Q606.0 257.6 604.1 255.6Q602.1 253.5 599.0 253.5Q595.9 253.5 593.9 255.6Q591.8 257.7 591.6 261.0Z "/><defs><clipPath id="satori_bc-id-0-1"><rect x="0" y="441" width="1200" height="189"/></clipPath></defs><mask id="satori_om-id-0-1"><rect x="0" y="442" width="1200" height="188" fill="#fff"/><path width="1200" height="189" fill="none" stroke="#000" stroke-width="2" d="M0,441 A0,0 0 0 1 0,441 h1200 A0,0 0 0 1 1200,441"/></mask><path width="1200" height="189" clip-path="url(#satori_bc-id-0-1)" fill="none" stroke="#dbdbdb" stroke-width="2" d="M0,441 A0,0 0 0 1 0,441 h1200 A0,0 0 0 1 1200,441"/><mask id="satori_om-id-0-1-0"><rect x="40" y="482" width="292" height="108" fill="#fff"/></mask><clipPath id="satori_cp-id-0-1-0-0"><rect x="40" y="504" width="64" height="64"/></clipPath><mask id="satori_om-id-0-1-0-0"><rect x="40" y="504" width="64" height="64" fill="#fff"/></mask><image x="40" y="504" width="64" height="64" href="data:image/svg+xml;utf8,%3Csvg  xmlns=%22http://www.w3.org/2000/svg%22 width=%2264%22 height=%2264%22 viewBox=%220 0 128 128%22%3E%3Cpath fill=%22%23224d67%22 d=%22M22.5 14.8c2.9 1.3 99 44 99 44c2.7 1.2 2.9 3.1 2 12.4c-1 10.5-1.9 37.8-40.2 42.9c-24.6 3.2-55.9-4.3-70.9-27.2C-6 58.8 11 23.4 14.8 17.7c2.4-3.5 4.8-4.2 7.7-2.9%22%3E%3C/path%3E%3Cpath fill=%22%23f0f4c3%22 d=%22M121.5 58.8c-.3-.2-92-40.8-98.9-43.9C9.6 31.5-3.8 76 27.9 96.2c33.6 21.5 78.7-10.2 93.6-37.4%22%3E%3C/path%3E%3Cpath fill=%22%23f0f4c3%22 d=%22M117.7 57c-.3-.2-86.7-38.4-93.2-41.3c-12.2 15.5-23.9 59.1 5.7 78c31.4 20.2 73.6-11.2 87.5-36.7%22%3E%3C/path%3E%3Cpath fill=%22%23cb2a42%22 d=%22M56.2 37.6L19.5 48.2c-2.5.8-4.4 2.8-5 5.3c-1.9 8.5.8 23.3 8.9 29.8c3.5 2.7 8.6 1.8 10.8-2.1L58.5 41c1.3-1.7.5-4.2-2.3-3.4m14.3 2.9s14.6 30.1 16 33s6.3 4.7 9.9 2.8c10.7-5.6 15.5-12.4 19.2-20.2c-8.9-3.9-42.4-18.8-42.4-18.8c-2.4-1.1-4 .6-2.7 3.2m-8.6 1.9C60.3 45.1 39.5 81 37.6 84.1c-1.9 3.2-.7 7.5 2.7 9.2c12.3 6.5 30.9.4 39.6-7c2.2-1.9 4.5-5.1 3.2-8.2S68.9 44.6 67.8 42.3c-1.2-2.7-4.1-2.8-5.9.1%22%3E%3C/path%3E%3Cpath fill=%22%23f0f4c3%22 d=%22M52.2 42.2c-1.4.4-10.1 3-11.1 3.4c-1.4.5-2.2 1.7-1.9 2.5c.3.9 1.7 1.1 3.1.6c.8-.3 7.1-3.9 9.5-5.2c-3.1 2.4-10.2 9.4-11.1 10.3c-1.4 1.5-1.7 3.4-.8 4.3c1 .9 2.9.5 4.3-1c1.2-1.3 8.5-12.8 9.1-13.9s.4-1.4-1.1-1m10.1 16.4c0-2.2 1.4-10.3 1.8-12.3c.4-1.6 1.5-1.8 1.8.5s1.7 9.7 1.7 11.8s-1.2 3.3-2.7 3.3c-1.4 0-2.6-1.1-2.6-3.3M79.9 49c-1.2-1.8-3.3-4.9-4.1-6.1c-.7-1.2.1-2.1 1.8-.9s4 2.9 5.4 4c1.6 1.3 1.9 3 .8 4s-2.7.8-3.9-1%22%3E%3C/path%3E%3Cellipse cx=%2287.3%22 cy=%22103.12%22 fill=%22%23cb2a42%22 rx=%223.4%22 ry=%222.3%22 transform=%22rotate(-27.098 87.298 103.126)%22%3E%3C/ellipse%3E%3Cellipse cx=%2298.89%22 cy=%22103.82%22 fill=%22%23cb2a42%22 rx=%223.4%22 ry=%222.3%22 transform=%22rotate(-30.642 98.887 103.818)%22%3E%3C/ellipse%3E%3Cellipse cx=%22102.02%22 cy=%2293.8%22 fill=%22%23cb2a42%22 rx=%223.4%22 ry=%222.3%22 transform=%22rotate(-37.16 102.017 93.797)%22%3E%3C/ellipse%3E%3Cpath fill=%22%23cb2a42%22 d=%22M57.6 30.3c-8.3-3.7-24.4-10.7-29.6-13c-3.6 2.2-9.7 11.4-11.2 21.2c-.6 3.6 1.7 5.9 5.3 4.9c0 0 33.7-9.3 35.3-9.7c1.6-.5 2-2.6.2-3.4%22%3E%3C/path%3E%3C/svg%3E" preserveAspectRatio="none" clip-path="url(#satori_cp-id-0-1-0-0)" mask="url(#satori_om-id-0-1-0-0)"/><mask id="satori_om-id-0-1-0-0-0"><rect x="40" y="504" width="0" height="64" fill="#fff"/></mask><mask id="satori_om-id-0-1-0-0-1"><rect x="40" y="504" width="0" height="64" fill="#fff"/></mask><mask id="satori_om-id-0-1-0-0-2"><rect x="40" y="504" width="0" height="64" fill="#fff"/></mask><mask id="satori_om-id-0-1-0-0-3"><rect x="40" y="504" width="0" height="64" fill="#fff"/></mask><mask id="satori_om-id-0-1-0-0-4"><rect x="40" y="504" width="0" height="64" fill="#fff"/></mask><mask id="satori_om-id-0-1-0-0-5"><rect x="40" y="504" width="0" height="64" fill="#fff"/></mask><mask id="satori_om-id-0-1-0-0-6"><rect x="40" y="504" width="0" height="64" fill="#fff"/></mask><mask id="satori_om-id-0-1-0-0-7"><rect x="40" y="504" width="0" height="64" fill="#fff"/></mask><mask id="satori_om-id-0-1-0-0-8"><rect x="40" y="504" width="0" height="64" fill="#fff"/></mask><mask id="satori_om-id-0-1-0-1"><rect x="116" y="512" width="216" height="48" fill="#fff"/></mask><path fill="#545454" d="M121.1 553.5L121.1 553.5Q119.4 553.5 118.4 552.6Q117.5 551.7 117.5 550.2L117.5 550.2Q117.5 549.3 117.9 547.9L117.9 547.9L127.2 522.8Q127.9 520.7 129.2 519.7Q130.5 518.8 132.5 518.8L132.5 518.8Q134.6 518.8 135.9 519.7Q137.2 520.7 137.9 522.8L137.9 522.8L147.2 547.9Q147.6 549.2 147.6 550.2L147.6 550.2Q147.6 551.6 146.6 552.6Q145.6 553.5 144.1 553.5L144.1 553.5Q142.6 553.5 141.7 552.8Q140.9 552.1 140.4 550.4L140.4 550.4L138.6 545.0L126.4 545.0L124.6 550.3Q124.2 552.0 123.3 552.8Q122.5 553.5 121.1 553.5ZM132.4 525.7L128.0 539.6L137 539.6L132.5 525.7L132.4 525.7ZM159.1 552.6Q158.2 553.6 156.6 553.6Q155.0 553.6 154.1 552.6Q153.2 551.7 153.2 550.0L153.2 550.0L153.2 533.1L151.9 533.1Q150.8 533.1 150.1 532.4Q149.4 531.7 149.4 530.6Q149.4 529.4 150.1 528.7Q150.8 528.1 151.9 528.1L151.9 528.1L153.2 528.1L153.2 526.2Q153.2 522.5 155.0 520.7Q156.7 519.0 160.3 518.9L160.3 518.9Q163.0 518.9 164.2 519.7Q165.5 520.4 165.5 521.7L165.5 521.7Q165.5 523.1 164.1 523.5L164.1 523.5Q163.5 523.7 162.8 523.7L162.8 523.7Q161.2 523.7 160.5 524.4Q159.9 525.1 159.9 526.5L159.9 526.5L159.9 528.1L162.7 528.1Q163.8 528.1 164.5 528.7Q165.2 529.4 165.2 530.6Q165.2 531.7 164.5 532.4Q163.8 533.1 162.7 533.1L162.7 533.1L160.0 533.1L160.0 550.0Q160.0 551.7 159.1 552.6ZM170.3 546.6L170.3 546.6L170.3 533.1L168.9 533.1Q167.7 533.1 167.0 532.4Q166.3 531.7 166.3 530.5Q166.3 529.3 167.0 528.6Q167.7 527.9 168.9 527.9L168.9 527.9L170.3 527.9L170.3 525.1Q170.3 523.5 171.2 522.5Q172.1 521.6 173.7 521.6Q175.3 521.6 176.2 522.5Q177.1 523.5 177.1 525.1L177.1 525.1L177.1 527.9L179.5 527.9Q180.7 527.9 181.4 528.6Q182.1 529.3 182.1 530.5Q182.1 531.7 181.4 532.4Q180.7 533.1 179.5 533.1L179.5 533.1L177.1 533.1L177.1 545.1Q177.1 546.5 177.6 547.1Q178.1 547.7 179.2 547.8L179.2 547.8L179.6 547.8Q180.9 548.0 181.6 548.5Q182.2 549.1 182.2 550.3L182.2 550.3Q182.2 551.8 180.9 552.6Q179.6 553.3 177.4 553.3L177.4 553.3L177.1 553.3Q170.3 553.3 170.3 546.6ZM197.0 553.6L197.0 553.6Q191.2 553.6 187.9 550.2Q184.6 546.7 184.6 540.6L184.6 540.6Q184.6 534.5 187.9 531.0Q191.1 527.4 196.7 527.4L196.7 527.4Q202.0 527.4 205.3 530.7Q208.6 533.9 208.6 539.1L208.6 539.1Q208.6 540.5 207.9 541.3Q207.1 542.1 205.6 542.1L205.6 542.1L191.3 542.1L191.3 542.4Q191.3 545.2 192.9 546.9Q194.4 548.5 197.0 548.5L197.0 548.5Q198.9 548.5 200.3 547.8Q201.6 547.2 203.0 545.5L203.0 545.5Q204.0 544.5 205.3 544.5L205.3 544.5Q206.4 544.5 207.2 545.2Q207.9 545.9 207.9 547.0L207.9 547.0Q207.9 547.8 207.5 548.7L207.5 548.7Q206.2 551 203.4 552.3Q200.7 553.6 197.0 553.6ZM191.4 537.9L191.4 537.9L202.0 537.9Q201.9 535.4 200.5 533.9Q199.0 532.5 196.8 532.5Q194.5 532.5 193.1 534.0Q191.6 535.5 191.4 537.9ZM215.6 553.6L215.6 553.6Q214.0 553.6 213.1 552.6Q212.1 551.7 212.1 550.0L212.1 550.0L212.1 530.9Q212.1 529.3 213.0 528.3Q213.9 527.4 215.4 527.4L215.4 527.4Q216.9 527.4 217.8 528.3Q218.7 529.3 218.7 530.9L218.7 530.9L218.7 532.5L218.8 532.5Q219.3 530.2 220.7 528.9Q222.1 527.5 224.0 527.5L224.0 527.5Q225.4 527.5 226.2 528.2L226.2 528.2Q227.2 528.9 227.2 530.7L227.2 530.7Q227.2 532.3 226.2 533.2L226.2 533.2Q225.2 534.0 223.2 534.1L223.2 534.1Q221.0 534.1 220.0 535.3Q219.0 536.5 219.0 538.8L219.0 538.8L219.0 550.0Q219.0 551.7 218.1 552.6Q217.2 553.6 215.6 553.6ZM242.6 553.6L242.6 553.6Q237.5 553.6 234.1 551.8Q230.8 550.0 229.7 547.1L229.7 547.1Q229.4 546.1 229.4 545.2L229.4 545.2Q229.4 543.8 230.2 543.0Q231.1 542.1 232.5 542.1L232.5 542.1Q233.6 542.1 234.3 542.6Q235.1 543.1 235.7 544.2L235.7 544.2Q236.5 546.1 238.4 547.0Q240.2 547.9 242.7 547.9L242.7 547.9Q245.6 547.9 247.3 546.7Q249.1 545.5 249.1 543.6L249.1 543.6Q249.1 541.9 247.8 540.9Q246.4 539.9 243.3 539.3L243.3 539.3L239.7 538.6Q229.6 536.6 229.6 528.9L229.6 528.9Q229.6 525.9 231.3 523.5Q232.9 521.2 235.9 519.9Q238.8 518.7 242.5 518.7L242.5 518.7Q247.2 518.7 250.5 520.5Q253.8 522.4 254.9 525.7L254.9 525.7Q255.1 526.4 255.1 527.2L255.1 527.2Q255.1 528.5 254.3 529.3Q253.5 530.1 252.1 530.1L252.1 530.1Q250.9 530.1 250.1 529.6Q249.4 529.1 248.8 528.0L248.8 528.0Q247.2 524.4 242.5 524.4L242.5 524.4Q239.9 524.4 238.3 525.5Q236.7 526.6 236.7 528.5L236.7 528.5Q236.7 530.1 238.1 531.1Q239.4 532.1 242.4 532.7L242.4 532.7L245.9 533.4Q251.3 534.5 253.7 536.7Q256.2 539.0 256.2 542.8L256.2 542.8Q256.2 547.8 252.5 550.7Q248.9 553.6 242.6 553.6ZM266.0 552.6Q265.0 553.6 263.5 553.6Q261.9 553.6 261.0 552.6Q260.1 551.7 260.1 550.0L260.1 550.0L260.1 522.2Q260.1 520.6 261.0 519.7Q261.9 518.7 263.4 518.7L263.4 518.7Q265.0 518.7 265.9 519.7Q266.8 520.6 266.8 522.2L266.8 522.2L266.8 532.4L266.9 532.4Q267.9 530.0 270.0 528.7Q272 527.5 274.8 527.5L274.8 527.5Q279.0 527.5 281.3 530.0Q283.6 532.5 283.6 536.9L283.6 536.9L283.6 550.0Q283.6 551.7 282.7 552.6Q281.7 553.6 280.2 553.6Q278.6 553.6 277.7 552.6Q276.8 551.7 276.8 550.0L276.8 550.0L276.8 538.3Q276.8 535.9 275.6 534.5Q274.3 533.1 272.0 533.1L272.0 533.1Q269.7 533.1 268.3 534.7Q266.9 536.2 266.9 538.7L266.9 538.7L266.9 550.0Q266.9 551.7 266.0 552.6ZM294.1 523.8Q293.0 524.8 291.5 524.8Q290.0 524.8 288.9 523.8Q287.8 522.8 287.8 521.3L287.8 521.3Q287.8 519.8 288.9 518.8Q290.0 517.7 291.5 517.7Q293.0 517.7 294.1 518.8Q295.2 519.8 295.2 521.3L295.2 521.3Q295.2 522.8 294.1 523.8ZM294.0 552.6Q293.1 553.6 291.5 553.6Q289.9 553.6 289.0 552.6Q288.1 551.7 288.1 550.0L288.1 550.0L288.1 531.0Q288.1 529.3 289.0 528.4Q289.9 527.4 291.5 527.4Q293.1 527.4 294.0 528.4Q294.9 529.3 294.9 531.0L294.9 531.0L294.9 550.0Q294.9 551.7 294.0 552.6ZM307.2 552.6Q306.3 553.6 304.7 553.6Q303.1 553.6 302.2 552.6Q301.3 551.7 301.3 550.0L301.3 550.0L301.3 533.1L300.0 533.1Q298.9 533.1 298.2 532.4Q297.5 531.7 297.5 530.6Q297.5 529.4 298.2 528.7Q298.9 528.1 300.0 528.1L300.0 528.1L301.3 528.1L301.3 526.2Q301.3 522.5 303.1 520.7Q304.9 519.0 308.5 518.9L308.5 518.9Q311.1 518.9 312.4 519.7Q313.6 520.4 313.6 521.7L313.6 521.7Q313.6 523.1 312.2 523.5L312.2 523.5Q311.6 523.7 310.9 523.7L310.9 523.7Q309.4 523.7 308.7 524.4Q308.0 525.1 308.0 526.5L308.0 526.5L308.0 528.1L310.9 528.1Q312.0 528.1 312.7 528.7Q313.4 529.4 313.4 530.6Q313.4 531.7 312.7 532.4Q312.0 533.1 310.9 533.1L310.9 533.1L308.1 533.1L308.1 550.0Q308.1 551.7 307.2 552.6ZM318.4 546.6L318.4 546.6L318.4 533.1L317.1 533.1Q315.9 533.1 315.1 532.4Q314.4 531.7 314.4 530.5Q314.4 529.3 315.1 528.6Q315.9 527.9 317.1 527.9L317.1 527.9L318.4 527.9L318.4 525.1Q318.4 523.5 319.3 522.5Q320.2 521.6 321.8 521.6Q323.4 521.6 324.3 522.5Q325.2 523.5 325.2 525.1L325.2 525.1L325.2 527.9L327.6 527.9Q328.9 527.9 329.6 528.6Q330.3 529.3 330.3 530.5Q330.3 531.7 329.6 532.4Q328.9 533.1 327.6 533.1L327.6 533.1L325.2 533.1L325.2 545.1Q325.2 546.5 325.7 547.1Q326.2 547.7 327.3 547.8L327.3 547.8L327.8 547.8Q329.1 548.0 329.7 548.5Q330.4 549.1 330.4 550.3L330.4 550.3Q330.4 551.8 329.0 552.6Q327.7 553.3 325.5 553.3L325.5 553.3L325.3 553.3Q318.4 553.3 318.4 546.6Z "/><mask id="satori_om-id-0-1-1"><rect x="924" y="524" width="236" height="36" fill="#fff"/></mask><path fill="#8e8e8e" d="M927.9 552.6Q927.5 552.9 927.0 552.9Q926.4 552.9 926.1 552.6Q925.8 552.2 925.8 551.7L925.8 551.7L925.8 532.6Q925.8 532.0 926.1 531.6Q926.5 531.3 927.1 531.3Q927.6 531.3 928.0 531.6Q928.3 532.0 928.3 532.6L928.3 532.6L928.3 540.0L928.4 540.0Q929.1 538.7 930.4 537.9Q931.7 537.2 933.3 537.2L933.3 537.2Q936.2 537.2 937.9 539.3Q939.7 541.5 939.7 545.0L939.7 545.0Q939.7 548.6 937.9 550.8Q936.2 552.9 933.2 552.9L933.2 552.9Q931.6 552.9 930.3 552.2Q929.0 551.4 928.3 550.1L928.3 550.1L928.2 550.1L928.2 551.7Q928.2 552.2 927.9 552.6ZM932.7 550.7L932.7 550.7Q934.8 550.7 935.9 549.2Q937.1 547.7 937.1 545.0L937.1 545.0Q937.1 542.5 935.9 540.9Q934.8 539.4 932.7 539.4L932.7 539.4Q930.8 539.4 929.6 541.0Q928.3 542.5 928.3 545.0L928.3 545.0Q928.3 547.6 929.6 549.1Q930.8 550.7 932.7 550.7ZM943.8 558.4L943.8 558.4Q942.9 558.4 942.4 558.0Q941.9 557.7 941.9 557.1L941.9 557.1Q941.9 556.7 942.1 556.4Q942.4 556.2 942.9 556.2L942.9 556.2Q943.1 556.2 943.3 556.2Q943.5 556.2 943.7 556.2L943.7 556.2Q945.4 556.2 946.2 553.7L946.2 553.7L946.6 552.7L941.3 539.0Q941.2 538.6 941.2 538.3L941.2 538.3Q941.2 537.8 941.6 537.5Q941.9 537.2 942.5 537.2L942.5 537.2Q943.4 537.2 943.7 538.1L943.7 538.1L947.9 550.1L948.0 550.1L952.2 538.1Q952.3 537.6 952.6 537.4Q952.9 537.2 953.4 537.2L953.4 537.2Q953.9 537.2 954.3 537.5Q954.6 537.8 954.6 538.3L954.6 538.3Q954.6 538.6 954.5 539.0L954.5 539.0L948.9 553.7Q947.9 556.4 946.8 557.4Q945.7 558.4 943.8 558.4Z M965.7 552.5Q965.3 552.9 964.7 552.9Q964.1 552.9 963.8 552.5Q963.4 552.1 963.4 551.5L963.4 551.5L963.4 532.9Q963.4 532.3 963.8 531.9Q964.1 531.5 964.7 531.5L964.7 531.5L970.9 531.5Q973.9 531.5 975.8 533.4Q977.7 535.3 977.7 538.3L977.7 538.3Q977.7 541.3 975.8 543.2Q973.9 545.1 970.9 545.1L970.9 545.1L966.0 545.1L966.0 551.5Q966.0 552.1 965.7 552.5ZM966.0 533.9L966.0 542.8L970.3 542.8Q972.5 542.8 973.8 541.6Q975.0 540.4 975.0 538.3Q975.0 536.2 973.8 535.0Q972.5 533.9 970.3 533.9L970.3 533.9L966.0 533.9ZM984.8 552.9L984.8 552.9Q982.5 552.9 981.1 551.7Q979.7 550.4 979.7 548.4L979.7 548.4Q979.7 546.4 981.2 545.2Q982.6 544.1 985.2 543.9L985.2 543.9L989.6 543.7L989.6 542.4Q989.6 541.0 988.7 540.2Q987.9 539.4 986.3 539.4L986.3 539.4Q985.0 539.4 984.1 539.9Q983.3 540.4 982.6 541.5L982.6 541.5Q982.3 542.1 981.6 542.1L981.6 542.1Q981.1 542.1 980.8 541.8Q980.5 541.5 980.5 541.0Q980.5 540.5 980.8 539.9L980.8 539.9Q981.4 538.7 982.9 537.9Q984.5 537.2 986.3 537.2L986.3 537.2Q989.0 537.2 990.6 538.5Q992.2 539.9 992.2 542.1L992.2 542.1L992.2 551.6Q992.2 552.2 991.8 552.6Q991.5 552.9 991.0 552.9L991.0 552.9Q990.4 552.9 990.1 552.6Q989.7 552.2 989.7 551.6L989.7 551.6L989.7 550.0L989.7 550.0Q989.0 551.3 987.7 552.1Q986.3 552.9 984.8 552.9ZM985.3 550.8L985.3 550.8Q987.1 550.8 988.4 549.6Q989.6 548.5 989.6 546.9L989.6 546.9L989.6 545.6L985.5 545.9Q984.0 546.0 983.1 546.6Q982.3 547.3 982.3 548.4Q982.3 549.4 983.1 550.1Q984.0 550.8 985.3 550.8ZM996.2 549.1L996.2 549.1L996.2 539.5L994.9 539.5Q994.4 539.5 994.1 539.3Q993.8 539.0 993.8 538.5L993.8 538.5Q993.8 538.0 994.1 537.7Q994.4 537.4 994.9 537.4L994.9 537.4L996.2 537.4L996.2 534.8Q996.2 534.2 996.6 533.8Q996.9 533.5 997.5 533.5Q998.0 533.5 998.4 533.8Q998.8 534.2 998.8 534.8L998.8 534.8L998.8 537.4L1000.7 537.4Q1001.3 537.4 1001.6 537.7Q1001.9 538.0 1001.9 538.5L1001.9 538.5Q1001.9 539.0 1001.6 539.3Q1001.3 539.5 1000.7 539.5L1000.7 539.5L998.8 539.5L998.8 548.6Q998.8 549.6 999.2 550.0Q999.6 550.5 1000.5 550.6L1000.5 550.6L1000.7 550.6Q1001.9 550.7 1001.9 551.6L1001.9 551.6Q1001.9 552.2 1001.5 552.5Q1001.1 552.8 1000.1 552.8L1000.1 552.8L999.9 552.8Q996.2 552.8 996.2 549.1ZM1006.6 552.5Q1006.3 552.9 1005.7 552.9Q1005.2 552.9 1004.8 552.5Q1004.4 552.2 1004.4 551.6L1004.4 551.6L1004.4 538.5Q1004.4 537.9 1004.8 537.5Q1005.1 537.2 1005.6 537.2Q1006.2 537.2 1006.5 537.5Q1006.8 537.9 1006.8 538.5L1006.8 538.5L1006.8 539.9L1006.9 539.9Q1007.2 538.7 1008.2 537.9Q1009.2 537.2 1010.4 537.2L1010.4 537.2Q1011.2 537.2 1011.6 537.5L1011.6 537.5Q1011.9 537.8 1011.9 538.4L1011.9 538.4Q1011.9 539.0 1011.5 539.3L1011.5 539.3Q1011.1 539.6 1010.3 539.6L1010.3 539.6Q1008.6 539.6 1007.8 540.6Q1007.0 541.6 1007.0 543.2L1007.0 543.2L1007.0 551.6Q1007.0 552.2 1006.6 552.5ZM1015.1 534.9L1015.1 534.9Q1014.4 534.9 1014.0 534.4Q1013.5 533.9 1013.5 533.3L1013.5 533.3Q1013.5 532.6 1014.0 532.2Q1014.4 531.7 1015.1 531.7L1015.1 531.7Q1015.7 531.7 1016.2 532.2Q1016.7 532.6 1016.7 533.3L1016.7 533.3Q1016.7 533.9 1016.2 534.4Q1015.7 534.9 1015.1 534.9ZM1016.0 552.5Q1015.6 552.9 1015.1 552.9Q1014.5 552.9 1014.2 552.5Q1013.8 552.2 1013.8 551.6L1013.8 551.6L1013.8 538.5Q1013.8 537.9 1014.2 537.5Q1014.5 537.2 1015.1 537.2Q1015.6 537.2 1016.0 537.5Q1016.4 537.9 1016.4 538.5L1016.4 538.5L1016.4 551.6Q1016.4 552.2 1016.0 552.5ZM1026.1 552.9L1026.1 552.9Q1022.9 552.9 1021.0 550.8Q1019.1 548.7 1019.1 545.1Q1019.1 541.5 1021.0 539.3Q1022.9 537.2 1026.1 537.2L1026.1 537.2Q1028.2 537.2 1029.9 538.2Q1031.6 539.3 1032.0 540.9L1032.0 540.9Q1032.1 541.2 1032.1 541.4L1032.1 541.4Q1032.1 542.0 1031.8 542.3Q1031.5 542.6 1031.0 542.6L1031.0 542.6Q1030.6 542.6 1030.3 542.4Q1030.1 542.2 1029.8 541.7L1029.8 541.7Q1028.6 539.4 1026.1 539.4L1026.1 539.4Q1024.1 539.4 1022.9 541.0Q1021.6 542.5 1021.6 545.0L1021.6 545.0Q1021.6 547.6 1022.9 549.2Q1024.1 550.7 1026.1 550.7L1026.1 550.7Q1027.4 550.7 1028.3 550.1Q1029.2 549.6 1029.8 548.4L1029.8 548.4Q1030.1 547.9 1030.3 547.7Q1030.6 547.5 1031.0 547.5L1031.0 547.5Q1031.5 547.5 1031.8 547.8Q1032.1 548.2 1032.1 548.7L1032.1 548.7Q1032.1 548.9 1032.0 549.3L1032.0 549.3Q1031.4 550.9 1029.8 551.9Q1028.2 552.9 1026.1 552.9ZM1041.2 552.9L1041.2 552.9Q1037.8 552.9 1036.0 550.9Q1034.1 548.8 1034.1 545.1L1034.1 545.1Q1034.1 541.5 1036.0 539.3Q1037.8 537.2 1041.0 537.2L1041.0 537.2Q1043.9 537.2 1045.8 539.1Q1047.6 541.1 1047.6 544.3L1047.6 544.3Q1047.6 544.9 1047.3 545.3Q1046.9 545.7 1046.2 545.7L1046.2 545.7L1036.7 545.7Q1036.7 548.0 1037.9 549.4Q1039.1 550.7 1041.1 550.7L1041.1 550.7Q1042.5 550.7 1043.4 550.2Q1044.3 549.6 1045.2 548.3L1045.2 548.3Q1045.6 547.8 1046.2 547.8L1046.2 547.8Q1046.7 547.8 1047.0 548.1Q1047.3 548.4 1047.3 548.9L1047.3 548.9Q1047.3 549.2 1047.1 549.7L1047.1 549.7Q1046.4 551.2 1044.8 552.1Q1043.3 552.9 1041.2 552.9ZM1036.7 543.7L1036.7 543.7L1045.0 543.7Q1045.0 541.8 1043.8 540.6Q1042.7 539.4 1041.0 539.4L1041.0 539.4Q1039.2 539.4 1038.0 540.6Q1036.8 541.8 1036.7 543.7Z M1059.0 552.5Q1058.7 552.9 1058.1 552.9Q1057.5 552.9 1057.1 552.5Q1056.7 552.1 1056.7 551.5L1056.7 551.5L1056.7 532.7Q1056.7 532.1 1057.1 531.7Q1057.5 531.3 1058.1 531.3Q1058.7 531.3 1059.0 531.7Q1059.4 532.1 1059.4 532.7L1059.4 532.7L1059.4 541.8L1059.5 541.8L1068.9 531.8Q1069.4 531.3 1070.0 531.3L1070.0 531.3Q1070.5 531.3 1070.9 531.7Q1071.2 532.0 1071.2 532.5L1071.2 532.5Q1071.2 533.0 1070.9 533.3L1070.9 533.3L1063.6 540.9L1071.7 550.6Q1072.1 551.1 1072.1 551.6L1072.1 551.6Q1072.1 552.2 1071.7 552.5Q1071.3 552.9 1070.8 552.9L1070.8 552.9Q1070.1 552.9 1069.6 552.2L1069.6 552.2L1061.7 542.8L1059.4 545.3L1059.4 551.5Q1059.4 552.1 1059.0 552.5ZM1081.2 552.9L1081.2 552.9Q1077.8 552.9 1075.9 550.9Q1074.1 548.8 1074.1 545.1L1074.1 545.1Q1074.1 541.5 1075.9 539.3Q1077.8 537.2 1081.0 537.2L1081.0 537.2Q1083.9 537.2 1085.8 539.1Q1087.6 541.1 1087.6 544.3L1087.6 544.3Q1087.6 544.9 1087.2 545.3Q1086.9 545.7 1086.2 545.7L1086.2 545.7L1076.7 545.7Q1076.7 548.0 1077.9 549.4Q1079.1 550.7 1081.1 550.7L1081.1 550.7Q1082.5 550.7 1083.4 550.2Q1084.3 549.6 1085.2 548.3L1085.2 548.3Q1085.6 547.8 1086.2 547.8L1086.2 547.8Q1086.7 547.8 1087.0 548.1Q1087.3 548.4 1087.3 548.9L1087.3 548.9Q1087.3 549.2 1087.1 549.7L1087.1 549.7Q1086.4 551.2 1084.8 552.1Q1083.3 552.9 1081.2 552.9ZM1076.7 543.7L1076.7 543.7L1085.0 543.7Q1084.9 541.8 1083.8 540.6Q1082.7 539.4 1080.9 539.4L1080.9 539.4Q1079.1 539.4 1078.0 540.6Q1076.8 541.8 1076.7 543.7ZM1092.4 552.5Q1092.0 552.9 1091.4 552.9Q1090.9 552.9 1090.5 552.5Q1090.2 552.2 1090.2 551.6L1090.2 551.6L1090.2 538.5Q1090.2 537.9 1090.5 537.5Q1090.8 537.2 1091.4 537.2Q1091.9 537.2 1092.2 537.5Q1092.6 537.9 1092.6 538.5L1092.6 538.5L1092.6 539.9L1092.6 539.9Q1093.3 538.6 1094.5 537.9Q1095.8 537.2 1097.5 537.2L1097.5 537.2Q1100.0 537.2 1101.3 538.7Q1102.7 540.2 1102.7 542.8L1102.7 542.8L1102.7 551.6Q1102.7 552.2 1102.4 552.5Q1102.0 552.9 1101.5 552.9Q1100.9 552.9 1100.6 552.5Q1100.2 552.2 1100.2 551.6L1100.2 551.6L1100.2 543.2Q1100.2 541.4 1099.3 540.4Q1098.4 539.4 1096.7 539.4L1096.7 539.4Q1094.9 539.4 1093.8 540.6Q1092.7 541.8 1092.7 543.7L1092.7 543.7L1092.7 551.6Q1092.7 552.2 1092.4 552.5ZM1108.2 552.5Q1107.8 552.9 1107.3 552.9Q1106.7 552.9 1106.3 552.5Q1106.0 552.2 1106.0 551.6L1106.0 551.6L1106.0 538.5Q1106.0 537.9 1106.3 537.5Q1106.7 537.2 1107.2 537.2Q1107.7 537.2 1108.0 537.5Q1108.4 537.9 1108.4 538.5L1108.4 538.5L1108.4 539.9L1108.4 539.9Q1109.0 538.6 1110.1 537.9Q1111.3 537.2 1112.8 537.2L1112.8 537.2Q1114.3 537.2 1115.4 537.9Q1116.5 538.7 1117.0 540.1L1117.0 540.1L1117.1 540.1Q1117.7 538.7 1119.0 537.9Q1120.3 537.2 1121.9 537.2L1121.9 537.2Q1124.1 537.2 1125.5 538.5Q1126.8 539.9 1126.8 542.1L1126.8 542.1L1126.8 551.6Q1126.8 552.2 1126.5 552.5Q1126.1 552.9 1125.6 552.9Q1125.0 552.9 1124.6 552.5Q1124.3 552.2 1124.3 551.6L1124.3 551.6L1124.3 542.7Q1124.3 541.2 1123.5 540.3Q1122.6 539.4 1121.1 539.4Q1119.6 539.4 1118.6 540.4Q1117.7 541.4 1117.7 543.0L1117.7 543.0L1117.7 551.6Q1117.7 552.2 1117.3 552.5Q1117.0 552.9 1116.4 552.9Q1115.8 552.9 1115.5 552.5Q1115.1 552.2 1115.1 551.6L1115.1 551.6L1115.1 542.5Q1115.1 541.1 1114.3 540.2Q1113.4 539.4 1112.0 539.4L1112.0 539.4Q1110.5 539.4 1109.5 540.5Q1108.5 541.5 1108.5 543.1L1108.5 543.1L1108.5 551.6Q1108.5 552.2 1108.2 552.5ZM1136.4 552.9L1136.4 552.9Q1133.2 552.9 1131.3 550.8Q1129.3 548.7 1129.3 545.0Q1129.3 541.4 1131.3 539.3Q1133.2 537.2 1136.4 537.2L1136.4 537.2Q1139.6 537.2 1141.5 539.3Q1143.4 541.4 1143.4 545.0L1143.4 545.0Q1143.4 548.7 1141.5 550.8Q1139.6 552.9 1136.4 552.9ZM1133.1 549.2Q1134.3 550.7 1136.4 550.7Q1138.4 550.7 1139.6 549.2Q1140.8 547.7 1140.8 545.0Q1140.8 542.4 1139.6 540.9Q1138.4 539.4 1136.4 539.4Q1134.3 539.4 1133.1 540.9Q1131.9 542.4 1131.9 545.0Q1131.9 547.7 1133.1 549.2ZM1152.5 535.6L1152.5 535.6Q1152.1 535.6 1151.9 535.4Q1151.6 535.2 1151.6 534.8Q1151.6 534.5 1151.8 534.2L1151.8 534.2L1154.0 531.1Q1154.3 530.6 1154.6 530.5Q1154.8 530.3 1155.1 530.3L1155.1 530.3Q1155.6 530.3 1155.9 530.6Q1156.2 530.9 1156.2 531.3L1156.2 531.3Q1156.2 531.7 1155.9 532.1L1155.9 532.1L1153.4 535.1Q1153.0 535.6 1152.5 535.6ZM1152.4 552.9L1152.4 552.9Q1149.0 552.9 1147.1 550.9Q1145.3 548.8 1145.3 545.1L1145.3 545.1Q1145.3 541.5 1147.1 539.3Q1149.0 537.2 1152.2 537.2L1152.2 537.2Q1155.1 537.2 1156.9 539.1Q1158.8 541.1 1158.8 544.3L1158.8 544.3Q1158.8 544.9 1158.4 545.3Q1158.1 545.7 1157.4 545.7L1157.4 545.7L1147.9 545.7Q1147.9 548.0 1149.1 549.4Q1150.2 550.7 1152.3 550.7L1152.3 550.7Q1153.6 550.7 1154.6 550.2Q1155.5 549.6 1156.4 548.3L1156.4 548.3Q1156.8 547.8 1157.3 547.8L1157.3 547.8Q1157.9 547.8 1158.2 548.1Q1158.5 548.4 1158.5 548.9L1158.5 548.9Q1158.5 549.2 1158.3 549.7L1158.3 549.7Q1157.6 551.2 1156.0 552.1Q1154.5 552.9 1152.4 552.9ZM1147.9 543.7L1147.9 543.7L1156.2 543.7Q1156.1 541.8 1155.0 540.6Q1153.9 539.4 1152.1 539.4L1152.1 539.4Q1150.3 539.4 1149.2 540.6Q1148.0 541.8 1147.9 543.7Z "/></svg>