<svg width="1200" height="630" viewBox="0 0 1200 630" xmlns="http://www.w3.org/2000/svg"><mask id="satori_om-id"><rect x="0" y="0" width="1200" height="630" fill="#fff"/></mask><mask id="satori_om-id-0"><rect x="0" y="0" width="1200" height="630" fill="#fff"/></mask><rect x="0" y="0" width="1200" height="630" fill="#f2f2f2"/><mask id="satori_om-id-0-0"><rect x="0" y="0" width="1200" height="441" fill="#fff"/></mask><mask id="satori_om-id-0-0-0"><rect x="40" y="136" width="1120" height="36" fill="#fff"/></mask><path fill="#8e8e8e" d="M49.2 165.0L49.2 165.0Q46.2 165.0 44.1 163.9Q42.1 162.7 41.4 160.8L41.4 160.8Q41.2 160.2 41.2 159.8L41.2 159.8Q41.2 159.0 41.6 158.6Q42.1 158.2 42.7 158.2L42.7 158.2Q43.8 158.2 44.3 159.3L44.3 159.3Q44.8 160.8 46.1 161.5Q47.4 162.2 49.3 162.2L49.3 162.2Q51.3 162.2 52.6 161.3Q53.9 160.4 53.9 159.0L53.9 159.0Q53.9 157.7 53.0 156.9Q52.1 156.1 50.0 155.7L50.0 155.7L47.6 155.2Q44.5 154.5 43.0 153.1Q41.5 151.6 41.5 149.3L41.5 149.3Q41.5 146.6 43.7 144.9Q45.8 143.2 49.2 143.2L49.2 143.2Q51.9 143.2 53.9 144.4Q55.9 145.6 56.5 147.7L56.5 147.7Q56.6 148.0 56.6 148.5L56.6 148.5Q56.6 149.1 56.2 149.5Q55.8 149.9 55.2 149.9L55.2 149.9Q54.1 149.9 53.6 148.8L53.6 148.8Q52.6 146.0 49.1 146.0L49.1 146.0Q47.3 146.0 46.0 146.8Q44.8 147.7 44.8 149.1L44.8 149.1Q44.8 150.3 45.7 151.1Q46.7 151.8 48.7 152.3L48.7 152.3L51.0 152.7Q54.3 153.4 55.8 154.8Q57.2 156.2 57.2 158.5L57.2 158.5Q57.2 161.5 55.0 163.3Q52.9 165.0 49.2 165.0ZM64.3 164.9L64.3 164.9Q62.0 164.9 60.6 163.6Q59.2 162.3 59.2 160.3L59.2 160.3Q59.2 158.3 60.7 157.1Q62.1 155.9 64.9 155.7L64.9 155.7L69.1 155.5L69.1 154.3Q69.1 153.0 68.3 152.3Q67.5 151.6 66.0 151.6L66.0 151.6Q64.9 151.6 64.1 152.0Q63.3 152.5 62.6 153.5L62.6 153.5Q62.1 154.2 61.3 154.2L61.3 154.2Q60.7 154.2 60.3 153.8Q60.0 153.4 60.0 152.9L60.0 152.9Q60.0 152.3 60.2 151.8L60.2 151.8Q60.8 150.5 62.5 149.8Q64.1 149.0 66.1 149.0L66.1 149.0Q68.9 149.0 70.6 150.4Q72.3 151.7 72.3 154.0L72.3 154.0L72.3 163.3Q72.3 164.1 71.8 164.5Q71.4 164.9 70.7 164.9L70.7 164.9Q70.1 164.9 69.7 164.5Q69.3 164.1 69.2 163.4L69.2 163.4L69.2 162.1L69.2 162.1Q68.5 163.4 67.2 164.2Q65.8 164.9 64.3 164.9ZM65.2 162.4L65.2 162.4Q66.8 162.4 68.0 161.4Q69.1 160.4 69.1 158.9L69.1 158.9L69.1 157.7L65.3 157.9Q63.9 158.0 63.1 158.6Q62.4 159.2 62.4 160.2L62.4 160.2Q62.4 161.2 63.1 161.8Q63.9 162.4 65.2 162.4ZM76.3 161.0L76.3 161.0L76.3 151.8L75.1 151.8Q74.5 151.8 74.2 151.4Q73.8 151.1 73.8 150.5Q73.8 149.9 74.2 149.6Q74.5 149.3 75.1 149.3L75.1 149.3L76.3 149.3L76.3 147.0Q76.3 146.2 76.7 145.7Q77.1 145.3 77.9 145.3Q78.6 145.3 79.0 145.7Q79.4 146.2 79.4 147.0L79.4 147.0L79.4 149.3L81.2 149.3Q81.9 149.3 82.2 149.6Q82.6 149.9 82.6 150.5Q82.6 151.1 82.2 151.4Q81.9 151.8 81.2 151.8L81.2 151.8L79.4 151.8L79.4 160.3Q79.4 161.2 79.8 161.6Q80.2 162.1 81.0 162.1L81.0 162.1L81.3 162.2Q82.6 162.3 82.6 163.4L82.6 163.4Q82.6 164.8 80.3 164.8L80.3 164.8L80.2 164.8Q76.3 164.8 76.3 161.0ZM90.3 164.9L90.3 164.9Q87.8 164.9 86.3 163.4Q84.9 161.9 84.9 159.2L84.9 159.2L84.9 150.7Q84.9 149.9 85.3 149.4Q85.7 149.0 86.5 149.0L86.5 149.0Q87.2 149.0 87.6 149.4Q88.0 149.9 88.0 150.7L88.0 150.7L88.0 158.6Q88.0 160.4 88.9 161.3Q89.7 162.2 91.3 162.2L91.3 162.2Q93.0 162.2 94.0 161.1Q95.0 160.0 95.0 158.2L95.0 158.2L95.0 150.7Q95.0 149.9 95.4 149.4Q95.9 149.0 96.6 149.0L96.6 149.0Q97.3 149.0 97.7 149.4Q98.2 149.9 98.2 150.7L98.2 150.7L98.2 163.3Q98.2 164.1 97.8 164.5Q97.3 164.9 96.7 164.9Q96.0 164.9 95.6 164.5Q95.1 164.1 95.1 163.3L95.1 163.3L95.1 162.1L95.1 162.1Q93.7 164.9 90.3 164.9ZM102.9 164.9L102.9 164.9Q102.2 164.9 101.7 164.5Q101.3 164.0 101.3 163.3L101.3 163.3L101.3 150.6Q101.3 149.9 101.7 149.4Q102.1 149.0 102.8 149.0L102.8 149.0Q103.5 149.0 103.9 149.4Q104.3 149.9 104.3 150.6L104.3 150.6L104.3 151.9L104.4 151.9Q104.7 150.6 105.6 149.8Q106.6 149.0 107.7 149.0L107.7 149.0Q108.6 149.0 109.0 149.4L109.0 149.4Q109.4 149.7 109.4 150.5L109.4 150.5Q109.4 151.2 109.0 151.6L109.0 151.6Q108.5 152.0 107.5 152.0L107.5 152.0Q105.9 152.0 105.2 153.0Q104.5 153.9 104.5 155.4L104.5 155.4L104.5 163.3Q104.5 164.0 104.0 164.5Q103.6 164.9 102.9 164.9ZM116.9 164.9L116.9 164.9Q114.0 164.9 112.2 162.8Q110.4 160.6 110.4 157.0Q110.4 153.3 112.2 151.2Q114.0 149.0 116.9 149.0L116.9 149.0Q118.5 149.0 119.8 149.8Q121.1 150.5 121.7 151.8L121.7 151.8L121.8 151.8L121.8 144.9Q121.8 144.1 122.2 143.7Q122.7 143.2 123.4 143.2L123.4 143.2Q124.1 143.2 124.5 143.7Q125.0 144.2 125.0 144.9L125.0 144.9L125.0 163.4Q125.0 164.1 124.5 164.5Q124.1 164.9 123.4 164.9L123.4 164.9Q122.7 164.9 122.2 164.5Q121.8 164.1 121.8 163.4L121.8 163.4L121.8 161.9L121.7 161.9Q121.1 163.3 119.9 164.1Q118.7 164.9 116.9 164.9ZM117.8 162.2L117.8 162.2Q119.6 162.2 120.7 160.8Q121.8 159.4 121.8 157.0L121.8 157.0Q121.8 154.6 120.7 153.1Q119.6 151.7 117.8 151.7L117.8 151.7Q115.9 151.7 114.8 153.1Q113.7 154.5 113.7 157.0L113.7 157.0Q113.7 159.4 114.8 160.8Q115.9 162.2 117.8 162.2ZM132.7 164.9L132.7 164.9Q130.4 164.9 129.0 163.6Q127.6 162.3 127.6 160.3L127.6 160.3Q127.6 158.3 129.1 157.1Q130.6 155.9 133.3 155.7L133.3 155.7L137.5 155.5L137.5 154.3Q137.5 153.0 136.7 152.3Q135.9 151.6 134.4 151.6L134.4 151.6Q133.3 151.6 132.5 152.0Q131.7 152.5 131.0 153.5L131.0 153.5Q130.6 154.2 129.7 154.2L129.7 154.2Q129.1 154.2 128.8 153.8Q128.4 153.4 128.4 152.9L128.4 152.9Q128.4 152.3 128.7 151.8L128.7 151.8Q129.3 150.5 130.9 149.8Q132.5 149.0 134.6 149.0L134.6 149.0Q137.4 149.0 139.0 150.4Q140.7 151.7 140.7 154.0L140.7 154.0L140.7 163.3Q140.7 164.1 140.3 164.5Q139.8 164.9 139.2 164.9L139.2 164.9Q138.5 164.9 138.1 164.5Q137.7 164.1 137.6 163.4L137.6 163.4L137.6 162.1L137.6 162.1Q136.9 163.4 135.6 164.2Q134.2 164.9 132.7 164.9ZM133.6 162.4L133.6 162.4Q135.2 162.4 136.4 161.4Q137.5 160.4 137.5 158.9L137.5 158.9L137.5 157.7L133.7 157.9Q132.3 158.0 131.5 158.6Q130.8 159.2 130.8 160.2L130.8 160.2Q130.8 161.2 131.5 161.8Q132.3 162.4 133.6 162.4ZM145.6 170.4L145.6 170.4Q144.5 170.4 144.0 170.0Q143.4 169.6 143.4 168.9L143.4 168.9Q143.4 168.4 143.7 168.1Q144.0 167.8 144.6 167.8L144.6 167.8Q144.8 167.8 145 167.8Q145.2 167.8 145.4 167.8L145.4 167.8Q147.0 167.8 147.8 165.7L147.8 165.7L148.1 164.8L142.9 151.3Q142.7 150.9 142.7 150.4L142.7 150.4Q142.7 149.8 143.2 149.4Q143.6 149.0 144.3 149.0L144.3 149.0Q144.9 149.0 145.3 149.3Q145.7 149.5 145.9 150.2L145.9 150.2L149.8 161.8L149.8 161.8L153.8 150.2Q154.0 149.5 154.3 149.3Q154.7 149.0 155.3 149.0L155.3 149.0Q156.0 149.0 156.4 149.4Q156.8 149.8 156.8 150.4L156.8 150.4Q156.8 150.8 156.7 151.3L156.7 151.3L151.3 165.4Q150.3 168.2 149.0 169.3Q147.8 170.4 145.6 170.4ZM161.3 161.1L161.3 161.1Q162.0 161.1 162.4 161.5Q162.8 161.8 162.8 162.4L162.8 162.4Q162.8 162.8 162.7 163.3L162.7 163.3L161.4 168.3Q161.1 169.4 160.0 169.4L160.0 169.4Q159.5 169.4 159.1 169.1Q158.8 168.7 158.8 168.2L158.8 168.2Q158.8 168.1 158.8 167.8L158.8 167.8L159.8 162.4Q160 161.1 161.3 161.1Z M179.9 164.9L179.9 164.9Q179.2 164.9 178.7 164.5Q178.3 164.0 178.3 163.3L178.3 163.3L178.3 146.9L178.2 146.9L174.6 149.4Q174.1 149.7 173.6 149.7L173.6 149.7Q173.1 149.7 172.7 149.4Q172.4 149.0 172.4 148.5L172.4 148.5Q172.4 147.7 173.2 147.1L173.2 147.1L177.6 144.0Q178.2 143.6 178.7 143.4Q179.1 143.2 179.7 143.2L179.7 143.2Q180.5 143.2 181.0 143.7Q181.5 144.2 181.5 145.1L181.5 145.1L181.5 163.3Q181.5 164.0 181.1 164.5Q180.6 164.9 179.9 164.9ZM200.3 162.1Q198.2 165.1 194.4 165.1Q190.6 165.1 188.4 162.1Q186.3 159.2 186.3 154.1L186.3 154.1Q186.3 149.0 188.5 146.1Q190.6 143.1 194.4 143.1L194.4 143.1Q198.2 143.1 200.3 146.1Q202.5 149.0 202.5 154.1L202.5 154.1Q202.5 159.1 200.3 162.1ZM194.4 162.3L194.4 162.3Q196.7 162.3 197.9 160.1Q199.2 157.9 199.2 154.1L199.2 154.1Q199.2 150.3 197.9 148.1Q196.7 145.9 194.4 145.9Q192.1 145.9 190.9 148.1Q189.6 150.3 189.6 154.1L189.6 154.1Q189.6 157.9 190.9 160.1Q192.1 162.3 194.4 162.3Z M214.4 164.5Q214.0 164.9 213.3 164.9Q212.6 164.9 212.2 164.5Q211.8 164.1 211.8 163.3L211.8 163.3L211.8 145.4Q211.8 144.4 212.3 143.9Q212.9 143.3 213.9 143.3L213.9 143.3Q214.7 143.3 215.2 143.7Q215.8 144.1 216.1 145.0L216.1 145.0L222.4 160.2L222.5 160.2L228.8 145.0Q229.1 144.1 229.7 143.7Q230.2 143.3 231.1 143.3L231.1 143.3Q232.0 143.3 232.6 143.8Q233.2 144.4 233.2 145.4L233.2 145.4L233.2 163.3Q233.2 164.1 232.8 164.5Q232.3 164.9 231.7 164.9L231.7 164.9Q231.0 164.9 230.6 164.5Q230.2 164.1 230.2 163.3L230.2 163.3L230.2 149.1L230.0 149.1L224.2 163.3Q223.6 164.5 222.5 164.5L222.5 164.5Q221.3 164.5 220.8 163.3L220.8 163.3L214.9 149.1L214.8 149.1L214.8 163.3Q214.8 164.1 214.4 164.5ZM241.2 164.9L241.2 164.9Q238.9 164.9 237.5 163.6Q236.0 162.3 236.0 160.3L236.0 160.3Q236.0 158.3 237.5 157.1Q239.0 155.9 241.8 155.7L241.8 155.7L246.0 155.5L246.0 154.3Q246.0 153.0 245.2 152.3Q244.4 151.6 242.9 151.6L242.9 151.6Q241.8 151.6 241.0 152.0Q240.2 152.5 239.5 153.5L239.5 153.5Q239.0 154.2 238.2 154.2L238.2 154.2Q237.6 154.2 237.2 153.8Q236.8 153.4 236.8 152.9L236.8 152.9Q236.8 152.3 237.1 151.8L237.1 151.8Q237.7 150.5 239.3 149.8Q240.9 149.0 243.0 149.0L243.0 149.0Q245.8 149.0 247.5 150.4Q249.2 151.7 249.2 154.0L249.2 154.0L249.2 163.3Q249.2 164.1 248.7 164.5Q248.3 164.9 247.6 164.9L247.6 164.9Q247.0 164.9 246.6 164.5Q246.1 164.1 246.1 163.4L246.1 163.4L246.1 162.1L246.0 162.1Q245.4 163.4 244.0 164.2Q242.7 164.9 241.2 164.9ZM242.0 162.4L242.0 162.4Q243.7 162.4 244.9 161.4Q246.0 160.4 246.0 158.9L246.0 158.9L246.0 157.7L242.2 157.9Q240.8 158.0 240.0 158.6Q239.2 159.2 239.2 160.2L239.2 160.2Q239.2 161.2 240.0 161.8Q240.8 162.4 242.0 162.4ZM254.1 170.4L254.1 170.4Q253.0 170.4 252.4 170.0Q251.8 169.6 251.8 168.9L251.8 168.9Q251.8 168.4 252.2 168.1Q252.5 167.8 253.1 167.8L253.1 167.8Q253.2 167.8 253.5 167.8Q253.7 167.8 253.9 167.8L253.9 167.8Q255.5 167.8 256.2 165.7L256.2 165.7L256.5 164.8L251.4 151.3Q251.2 150.9 251.2 150.4L251.2 150.4Q251.2 149.8 251.7 149.4Q252.1 149.0 252.8 149.0L252.8 149.0Q253.4 149.0 253.8 149.3Q254.1 149.5 254.3 150.2L254.3 150.2L258.3 161.8L258.3 161.8L262.2 150.2Q262.4 149.5 262.8 149.3Q263.2 149.0 263.8 149.0L263.8 149.0Q264.4 149.0 264.9 149.4Q265.3 149.8 265.3 150.4L265.3 150.4Q265.3 150.8 265.1 151.3L265.1 151.3L259.8 165.4Q258.8 168.2 257.5 169.3Q256.3 170.4 254.1 170.4Z M286.7 164.7L275.0 164.7Q274.3 164.7 273.9 164.3Q273.5 163.9 273.5 163.3L273.5 163.3Q273.5 162.8 273.7 162.5Q273.9 162.1 274.4 161.6L274.4 161.6L281.0 154.9Q283.1 152.8 283.8 151.7Q284.4 150.6 284.4 149.3L284.4 149.3Q284.4 147.8 283.4 146.8Q282.4 145.8 280.8 145.8L280.8 145.8Q277.6 145.8 276.5 149.0L276.5 149.0Q276.3 149.5 275.9 149.8Q275.6 150.0 275.0 150.0L275.0 150.0Q274.4 150.0 274.0 149.6Q273.6 149.3 273.6 148.6L273.6 148.6Q273.6 148.3 273.7 148.0L273.7 148.0Q273.8 147.1 274.4 146.3Q274.9 145.4 275.8 144.7Q276.7 144.0 278.0 143.6Q279.3 143.1 280.8 143.1L280.8 143.1Q283.8 143.1 285.7 144.8Q287.7 146.5 287.7 149.1L287.7 149.1Q287.7 150.9 286.7 152.5Q285.7 154.0 283.0 156.8L283.0 156.8L277.9 161.8L277.9 161.9L286.7 161.9Q287.4 161.9 287.8 162.3Q288.2 162.7 288.2 163.3L288.2 163.3Q288.2 163.9 287.8 164.3Q287.4 164.7 286.7 164.7L286.7 164.7ZM304.6 162.1Q302.5 165.1 298.7 165.1Q294.9 165.1 292.7 162.1Q290.6 159.2 290.6 154.1L290.6 154.1Q290.6 149.0 292.7 146.1Q294.9 143.1 298.7 143.1L298.7 143.1Q302.4 143.1 304.6 146.1Q306.7 149.0 306.7 154.1L306.7 154.1Q306.7 159.1 304.6 162.1ZM298.7 162.3L298.7 162.3Q300.9 162.3 302.2 160.1Q303.4 157.9 303.4 154.1L303.4 154.1Q303.4 150.3 302.2 148.1Q300.9 145.9 298.7 145.9Q296.4 145.9 295.1 148.1Q293.9 150.3 293.9 154.1L293.9 154.1Q293.9 157.9 295.1 160.1Q296.4 162.3 298.7 162.3ZM322.8 164.7L311.1 164.7Q310.4 164.7 310 164.3Q309.6 163.9 309.6 163.3L309.6 163.3Q309.6 162.8 309.8 162.5Q310.0 162.1 310.5 161.6L310.5 161.6L317.1 154.9Q319.2 152.8 319.9 151.7Q320.5 150.6 320.5 149.3L320.5 149.3Q320.5 147.8 319.5 146.8Q318.5 145.8 316.9 145.8L316.9 145.8Q313.7 145.8 312.6 149.0L312.6 149.0Q312.4 149.5 312.0 149.8Q311.7 150.0 311.1 150.0L311.1 150.0Q310.5 150.0 310.1 149.6Q309.7 149.3 309.7 148.6L309.7 148.6Q309.7 148.3 309.8 148.0L309.8 148.0Q309.9 147.1 310.5 146.3Q311.0 145.4 311.9 144.7Q312.8 144.0 314.1 143.6Q315.4 143.1 316.9 143.1L316.9 143.1Q319.9 143.1 321.8 144.8Q323.8 146.5 323.8 149.1L323.8 149.1Q323.8 150.9 322.8 152.5Q321.8 154.0 319.1 156.8L319.1 156.8L314.0 161.8L314.0 161.9L322.8 161.9Q323.5 161.9 323.9 162.3Q324.3 162.7 324.3 163.3L324.3 163.3Q324.3 163.9 323.9 164.3Q323.5 164.7 322.8 164.7L322.8 164.7ZM334.6 165.1L334.6 165.1Q332.2 165.1 330.3 164.0Q328.4 162.9 327.7 161.2L327.7 161.2Q327.3 160.5 327.3 159.8L327.3 159.8Q327.3 159.1 327.7 158.7Q328.1 158.3 328.8 158.3L328.8 158.3Q329.3 158.3 329.7 158.6Q330.0 158.8 330.3 159.4L330.3 159.4Q330.8 160.8 331.9 161.5Q333.0 162.3 334.6 162.3L334.6 162.3Q336.6 162.3 337.9 161.0Q339.1 159.8 339.1 157.8L339.1 157.8Q339.1 155.8 337.9 154.6Q336.6 153.4 334.6 153.4L334.6 153.4Q332.5 153.4 331.2 154.7L331.2 154.7Q330.5 155.5 330.1 155.6Q329.8 155.8 329.2 155.8L329.2 155.8Q328.4 155.8 328.0 155.4Q327.6 154.9 327.6 154.2L327.6 154.2L327.6 153.9L328.3 145.8Q328.4 144.6 329.0 144.0Q329.6 143.5 330.8 143.5L330.8 143.5L339.8 143.5Q340.5 143.5 340.9 143.9Q341.3 144.3 341.3 144.9Q341.3 145.5 340.9 145.9Q340.5 146.3 339.8 146.3L339.8 146.3L331.2 146.3L330.6 152.9L330.6 152.9Q331.3 151.9 332.6 151.3Q333.8 150.8 335.4 150.8L335.4 150.8Q338.4 150.8 340.4 152.7Q342.3 154.6 342.3 157.7L342.3 157.7Q342.3 161.0 340.2 163.0Q338.0 165.1 334.6 165.1Z "/><mask id="satori_om-id-0-0-1"><rect x="40" y="217" width="1120" height="83" fill="#fff"/></mask><path fill="#224d67" d="M47.5 280.1L47.5 280.1Q45.7 280.1 44.7 279.0Q43.7 278.0 43.7 276.2L43.7 276.2L43.7 240.7Q43.7 238.9 44.7 237.8Q45.7 236.8 47.5 236.8L47.5 236.8Q49.3 236.8 50.3 237.8Q51.3 238.9 51.3 240.7L51.3 240.7L51.3 276.2Q51.3 278.0 50.3 279.1Q49.3 280.1 47.5 280.1ZM64.3 279.2Q63.3 280.2 61.6 280.2Q60.0 280.2 59.0 279.2Q58.0 278.1 58.0 276.3L58.0 276.3L58.0 251.6Q58.0 249.9 58.9 248.9Q59.9 247.9 61.5 247.9Q63.1 247.9 64.1 248.9Q65.1 249.9 65.1 251.6L65.1 251.6L65.1 253.8L65.2 253.8Q67.9 247.9 74.9 247.9L74.9 247.9Q80.0 247.9 82.8 251.0Q85.6 254.1 85.6 259.5L85.6 259.5L85.6 276.3Q85.6 278.1 84.6 279.2Q83.7 280.2 82.0 280.2Q80.4 280.2 79.4 279.2Q78.3 278.1 78.3 276.3L78.3 276.3L78.3 261.0Q78.3 257.6 76.8 255.9Q75.2 254.1 72.1 254.1L72.1 254.1Q69.0 254.1 67.1 256.2Q65.3 258.2 65.3 261.6L65.3 261.6L65.3 276.3Q65.3 278.1 64.3 279.2ZM93.5 271.9L93.5 271.9L93.5 254.1L91.5 254.1Q90.2 254.1 89.4 253.4Q88.6 252.6 88.6 251.3L88.6 251.3Q88.6 250.0 89.4 249.3Q90.2 248.5 91.5 248.5L91.5 248.5L93.5 248.5L93.5 244.4Q93.5 242.6 94.5 241.6Q95.5 240.6 97.2 240.6L97.2 240.6Q98.8 240.6 99.8 241.6Q100.8 242.6 100.8 244.4L100.8 244.4L100.8 248.5L104.2 248.5Q105.5 248.5 106.3 249.3Q107.1 250.0 107.1 251.3L107.1 251.3Q107.1 252.6 106.3 253.4Q105.5 254.1 104.2 254.1L104.2 254.1L100.8 254.1L100.8 270.3Q100.8 272.1 101.5 272.9Q102.1 273.7 103.7 273.9L103.7 273.9L104.2 273.9Q107.2 274.2 107.2 276.6L107.2 276.6Q107.2 278.2 105.8 279.1Q104.5 279.9 102.0 279.9L102.0 279.9L101.7 279.9Q93.5 279.9 93.5 271.9ZM118.3 243.0Q117.1 244.2 115.4 244.2Q113.7 244.2 112.5 243.0Q111.4 241.8 111.4 240.2L111.4 240.2Q111.4 238.5 112.5 237.4Q113.7 236.2 115.4 236.2L115.4 236.2Q117.1 236.2 118.3 237.4Q119.5 238.5 119.5 240.2L119.5 240.2Q119.5 241.8 118.3 243.0ZM118.1 279.1Q117.1 280.2 115.4 280.2Q113.7 280.2 112.8 279.1Q111.8 278.1 111.8 276.3L111.8 276.3L111.8 251.7Q111.8 250.0 112.8 248.9Q113.7 247.9 115.4 247.9Q117.1 247.9 118.1 248.9Q119.1 250.0 119.1 251.8L119.1 251.8L119.1 276.3Q119.1 278.1 118.1 279.1ZM128.8 280.2L128.8 280.2Q127.2 280.2 126.2 279.2Q125.2 278.1 125.2 276.3L125.2 276.3L125.2 251.6Q125.2 249.9 126.1 248.9Q127.1 247.9 128.7 247.9Q130.3 247.9 131.2 248.9Q132.2 249.9 132.2 251.6L132.2 251.6L132.2 253.9L132.3 253.9Q133.4 251.2 135.7 249.5Q138.1 247.9 141.2 247.9L141.2 247.9Q144.5 247.9 146.7 249.6Q149.0 251.2 149.9 254.2L149.9 254.2L150.0 254.2Q151.2 251.3 153.7 249.6Q156.3 247.9 159.7 247.9L159.7 247.9Q164.3 247.9 167.1 250.8Q169.8 253.6 169.8 258.3L169.8 258.3L169.8 276.3Q169.8 278.1 168.8 279.1Q167.9 280.2 166.2 280.2L166.2 280.2Q164.5 280.2 163.5 279.1Q162.5 278.1 162.5 276.3L162.5 276.3L162.5 260.1Q162.5 257.2 161.1 255.6Q159.6 254.1 157.0 254.1L157.0 254.1Q154.3 254.1 152.7 255.8Q151.1 257.6 151.1 260.4L151.1 260.4L151.1 276.3Q151.1 278.1 150.1 279.2Q149.2 280.2 147.5 280.2L147.5 280.2Q145.8 280.2 144.9 279.2Q144.0 278.1 144.0 276.3L144.0 276.3L144.0 259.7Q144.0 257.1 142.5 255.6Q141.0 254.1 138.5 254.1L138.5 254.1Q135.8 254.1 134.2 255.9Q132.5 257.8 132.5 260.6L132.5 260.6L132.5 276.3Q132.5 278.1 131.5 279.1Q130.5 280.2 128.8 280.2ZM182.4 243.0Q181.2 244.2 179.5 244.2Q177.8 244.2 176.6 243.0Q175.4 241.8 175.4 240.2L175.4 240.2Q175.4 238.5 176.6 237.4Q177.8 236.2 179.5 236.2L179.5 236.2Q181.2 236.2 182.4 237.4Q183.6 238.5 183.6 240.2L183.6 240.2Q183.6 241.8 182.4 243.0ZM182.1 279.1Q181.2 280.2 179.5 280.2Q177.8 280.2 176.8 279.1Q175.8 278.1 175.8 276.3L175.8 276.3L175.8 251.7Q175.8 250.0 176.8 248.9Q177.8 247.9 179.5 247.9Q181.2 247.9 182.1 248.9Q183.1 250.0 183.1 251.8L183.1 251.8L183.1 276.3Q183.1 278.1 182.1 279.1ZM200.9 280.1L200.9 280.1Q195.0 280.1 191.5 275.7Q188.0 271.4 188.0 264.0L188.0 264.0Q188.0 256.7 191.5 252.3Q195.0 248.0 200.9 248.0L200.9 248.0Q204.2 248.0 206.7 249.5Q209.2 251.1 210.5 253.7L210.5 253.7L210.7 253.7L210.7 240.6Q210.7 238.7 211.7 237.7Q212.6 236.7 214.3 236.7Q215.9 236.7 216.9 237.7Q217.9 238.7 217.9 240.6L217.9 240.6L217.9 276.5Q217.9 278.2 217.0 279.2Q216.0 280.2 214.3 280.2L214.3 280.2Q212.7 280.2 211.7 279.2Q210.7 278.2 210.7 276.5L210.7 276.5L210.7 274.1L210.5 274.1Q209.3 276.9 206.9 278.5Q204.4 280.1 200.9 280.1ZM203.1 274.1L203.1 274.1Q206.5 274.1 208.6 271.4Q210.7 268.7 210.7 264.1L210.7 264.1Q210.7 259.5 208.6 256.7Q206.5 254.0 203.1 254.0L203.1 254.0Q199.6 254.0 197.5 256.7Q195.4 259.4 195.4 264.1L195.4 264.1Q195.4 268.7 197.5 271.4Q199.5 274.1 203.1 274.1ZM233.2 280.1L233.2 280.1Q228.6 280.1 225.7 277.5Q222.8 274.9 222.8 270.7L222.8 270.7Q222.8 266.6 225.9 264.2Q228.9 261.8 234.6 261.4L234.6 261.4L242.9 260.9L242.9 258.7Q242.9 256.3 241.3 254.9Q239.8 253.6 237.1 253.6L237.1 253.6Q234.9 253.6 233.4 254.4Q231.9 255.2 230.5 257.2L230.5 257.2Q229.4 258.7 227.6 258.7L227.6 258.7Q226.2 258.7 225.4 257.9Q224.5 257.1 224.5 255.8L224.5 255.8Q224.5 254.8 225.0 253.8L225.0 253.8Q226.2 251.1 229.5 249.5Q232.9 247.9 237.3 247.9L237.3 247.9Q243.1 247.9 246.6 250.7Q250.1 253.5 250.1 258.2L250.1 258.2L250.1 276.5Q250.1 278.2 249.1 279.2Q248.1 280.2 246.5 280.2L246.5 280.2Q245.0 280.2 244.1 279.3Q243.1 278.4 243.0 276.8L243.0 276.8L243.0 274.6L242.9 274.6Q241.6 277.1 238.9 278.6Q236.2 280.1 233.2 280.1ZM235.4 274.6L235.4 274.6Q238.5 274.6 240.7 272.7Q242.9 270.8 242.9 268.1L242.9 268.1L242.9 265.7L235.6 266.1Q233.0 266.3 231.6 267.4Q230.1 268.6 230.1 270.4L230.1 270.4Q230.1 272.3 231.6 273.4Q233.0 274.6 235.4 274.6ZM257.9 271.9L257.9 271.9L257.9 254.1L256.0 254.1Q254.6 254.1 253.8 253.4Q253.0 252.6 253.0 251.3L253.0 251.3Q253.0 250.0 253.8 249.3Q254.6 248.5 256.0 248.5L256.0 248.5L257.9 248.5L257.9 244.4Q257.9 242.6 258.9 241.6Q259.9 240.6 261.6 240.6L261.6 240.6Q263.3 240.6 264.3 241.6Q265.2 242.6 265.2 244.4L265.2 244.4L265.2 248.5L268.6 248.5Q270.0 248.5 270.8 249.3Q271.5 250.0 271.5 251.3L271.5 251.3Q271.5 252.6 270.7 253.4Q270.0 254.1 268.6 254.1L268.6 254.1L265.2 254.1L265.2 270.3Q265.2 272.1 265.9 272.9Q266.6 273.7 268.2 273.9L268.2 273.9L268.7 273.9Q271.6 274.2 271.6 276.6L271.6 276.6Q271.6 278.2 270.3 279.1Q268.9 279.9 266.4 279.9L266.4 279.9L266.1 279.9Q257.9 279.9 257.9 271.9ZM282.7 243.0Q281.6 244.2 279.9 244.2Q278.2 244.2 277.0 243.0Q275.8 241.8 275.8 240.2L275.8 240.2Q275.8 238.5 277.0 237.4Q278.2 236.2 279.9 236.2L279.9 236.2Q281.6 236.2 282.8 237.4Q283.9 238.5 283.9 240.2L283.9 240.2Q283.9 241.8 282.7 243.0ZM282.5 279.1Q281.5 280.2 279.9 280.2Q278.2 280.2 277.2 279.1Q276.2 278.1 276.2 276.3L276.2 276.3L276.2 251.7Q276.2 250.0 277.2 248.9Q278.2 247.9 279.9 247.9Q281.5 247.9 282.5 248.9Q283.5 250.0 283.5 251.8L283.5 251.8L283.5 276.3Q283.5 278.1 282.5 279.1ZM314.3 275.9Q310.3 280.2 303.4 280.2Q296.5 280.2 292.4 275.9Q288.3 271.6 288.3 264.1L288.3 264.1Q288.3 256.6 292.5 252.2Q296.6 247.9 303.4 247.9L303.4 247.9Q310.2 247.9 314.3 252.2Q318.4 256.6 318.4 264.1L318.4 264.1Q318.4 271.6 314.3 275.9ZM297.8 271.7Q299.9 274.4 303.4 274.4Q306.9 274.4 308.9 271.7Q311.0 269.0 311.0 264.1L311.0 264.1Q311.0 259.2 308.9 256.4Q306.9 253.7 303.4 253.7L303.4 253.7Q299.9 253.7 297.8 256.4Q295.8 259.2 295.8 264.1L295.8 264.1Q295.8 269.0 297.8 271.7ZM329.4 279.2Q328.4 280.2 326.7 280.2Q325.1 280.2 324.1 279.2Q323.1 278.1 323.1 276.3L323.1 276.3L323.1 251.6Q323.1 249.9 324.0 248.9Q325.0 247.9 326.6 247.9Q328.2 247.9 329.2 248.9Q330.2 249.9 330.2 251.6L330.2 251.6L330.2 253.8L330.3 253.8Q333.0 247.9 340 247.9L340 247.9Q345.1 247.9 347.9 251.0Q350.8 254.1 350.8 259.5L350.8 259.5L350.8 276.3Q350.8 278.1 349.8 279.2Q348.8 280.2 347.1 280.2Q345.5 280.2 344.5 279.2Q343.5 278.1 343.5 276.3L343.5 276.3L343.5 261.0Q343.5 257.6 341.9 255.9Q340.3 254.1 337.2 254.1L337.2 254.1Q334.1 254.1 332.3 256.2Q330.4 258.2 330.4 261.6L330.4 261.6L330.4 276.3Q330.4 278.1 329.4 279.2Z M381.0 280.2L381.0 280.2Q379.0 280.2 377.8 279.3Q376.6 278.4 375.9 276.4L375.9 276.4L367.2 253.3Q366.7 252.2 366.7 251.2L366.7 251.2Q366.7 249.8 367.8 248.8Q368.8 247.9 370.4 247.9L370.4 247.9Q373.0 247.9 373.9 250.8L373.9 250.8L381.0 272.8L381.1 272.8L388.2 250.8Q389.0 247.9 391.6 247.9L391.6 247.9Q393.1 247.9 394.2 248.8Q395.2 249.8 395.2 251.2L395.2 251.2Q395.2 252.2 394.8 253.2L394.8 253.2L386.1 276.4Q385.4 278.3 384.2 279.3Q382.9 280.2 381.0 280.2ZM406.0 243.0Q404.8 244.2 403.1 244.2Q401.4 244.2 400.2 243.0Q399.0 241.8 399.0 240.2L399.0 240.2Q399.0 238.5 400.2 237.4Q401.4 236.2 403.1 236.2L403.1 236.2Q404.8 236.2 406.0 237.4Q407.1 238.5 407.1 240.2L407.1 240.2Q407.1 241.8 406.0 243.0ZM405.7 279.1Q404.7 280.2 403.1 280.2Q401.4 280.2 400.4 279.1Q399.4 278.1 399.4 276.3L399.4 276.3L399.4 251.7Q399.4 250.0 400.4 248.9Q401.4 247.9 403.1 247.9Q404.7 247.9 405.7 248.9Q406.7 250.0 406.7 251.8L406.7 251.8L406.7 276.3Q406.7 278.1 405.7 279.1ZM422.0 280.1L422.0 280.1Q417.4 280.1 414.5 277.5Q411.6 274.9 411.6 270.7L411.6 270.7Q411.6 266.6 414.7 264.2Q417.7 261.8 423.4 261.4L423.4 261.4L431.6 260.9L431.6 258.7Q431.6 256.3 430.1 254.9Q428.6 253.6 425.8 253.6L425.8 253.6Q423.7 253.6 422.2 254.4Q420.7 255.2 419.3 257.2L419.3 257.2Q418.2 258.7 416.4 258.7L416.4 258.7Q415.0 258.7 414.2 257.9Q413.3 257.1 413.3 255.8L413.3 255.8Q413.3 254.8 413.8 253.8L413.8 253.8Q415.0 251.1 418.3 249.5Q421.7 247.9 426.1 247.9L426.1 247.9Q431.9 247.9 435.4 250.7Q438.8 253.5 438.8 258.2L438.8 258.2L438.8 276.5Q438.8 278.2 437.9 279.2Q436.9 280.2 435.3 280.2L435.3 280.2Q433.8 280.2 432.8 279.3Q431.9 278.4 431.8 276.8L431.8 276.8L431.8 274.6L431.7 274.6Q430.4 277.1 427.7 278.6Q425.0 280.1 422.0 280.1ZM424.2 274.6L424.2 274.6Q427.3 274.6 429.5 272.7Q431.6 270.8 431.6 268.1L431.6 268.1L431.6 265.7L424.4 266.1Q421.8 266.3 420.3 267.4Q418.9 268.6 418.9 270.4L418.9 270.4Q418.9 272.3 420.3 273.4Q421.8 274.6 424.2 274.6Z M472.3 280.3L472.3 280.3Q466.2 280.3 462.0 278.0Q457.9 275.7 456.6 272.0L456.6 272.0Q456.2 270.9 456.2 269.8L456.2 269.8Q456.2 268.2 457.1 267.3Q458.1 266.3 459.6 266.3L459.6 266.3Q460.8 266.3 461.7 266.9Q462.5 267.4 463.1 268.7L463.1 268.7Q464.1 271.4 466.6 272.7Q469.1 274.0 472.6 274.0L472.6 274.0Q476.4 274.0 478.8 272.3Q481.2 270.6 481.2 268.0L481.2 268.0Q481.2 265.7 479.5 264.2Q477.7 262.8 473.6 261.9L473.6 261.9L469.1 261.0Q456.7 258.4 456.7 249.1L456.7 249.1Q456.7 243.5 461.1 240.1Q465.4 236.6 472.4 236.6L472.4 236.6Q478.0 236.6 482.0 239.0Q486.1 241.4 487.4 245.5L487.4 245.5Q487.6 246.2 487.6 247.3L487.6 247.3Q487.6 248.6 486.7 249.5Q485.8 250.4 484.3 250.4L484.3 250.4Q481.9 250.4 480.7 248.0L480.7 248.0Q478.7 242.9 472.3 242.9L472.3 242.9Q468.8 242.9 466.5 244.4Q464.3 246.0 464.3 248.6L464.3 248.6Q464.3 250.8 466.0 252.2Q467.8 253.7 471.7 254.5L471.7 254.5L476.2 255.4Q482.9 256.8 485.9 259.6Q488.9 262.4 488.9 267.1L488.9 267.1Q488.9 273.2 484.4 276.7Q480.0 280.3 472.3 280.3ZM507.4 280.2L507.4 280.2Q500.6 280.2 496.5 275.9Q492.5 271.5 492.5 264.1L492.5 264.1Q492.5 256.7 496.5 252.3Q500.6 247.9 507.4 247.9L507.4 247.9Q511.9 247.9 515.5 250.0Q519.0 252.1 520.1 255.4L520.1 255.4Q520.5 256.4 520.5 257.1L520.5 257.1Q520.5 258.5 519.6 259.3Q518.7 260.1 517.4 260.1L517.4 260.1Q516.3 260.1 515.6 259.6Q514.8 259.1 514.2 258.0L514.2 258.0Q511.9 253.8 507.6 253.8L507.6 253.8Q504.1 253.8 502.0 256.6Q499.9 259.3 499.9 264.1L499.9 264.1Q499.9 268.9 502.0 271.6Q504.0 274.3 507.5 274.3L507.5 274.3Q511.9 274.3 514.2 270.3L514.2 270.3Q514.9 269.1 515.6 268.6Q516.4 268.1 517.5 268.1L517.5 268.1Q518.9 268.1 519.7 268.9Q520.6 269.7 520.6 271.1L520.6 271.1Q520.6 271.9 520.2 272.9L520.2 272.9Q518.9 276.1 515.3 278.2Q511.8 280.2 507.4 280.2ZM532.0 279.2Q531.0 280.2 529.4 280.2Q527.7 280.2 526.7 279.2Q525.7 278.1 525.7 276.3L525.7 276.3L525.7 240.5Q525.7 238.7 526.7 237.7Q527.6 236.7 529.3 236.7L529.3 236.7Q531.0 236.7 532.0 237.7Q532.9 238.7 532.9 240.5L532.9 240.5L532.9 253.9L533.1 253.9Q534.3 251.0 536.8 249.5Q539.4 247.9 542.9 247.9L542.9 247.9Q548.0 247.9 550.9 251.1Q553.8 254.2 553.8 259.6L553.8 259.6L553.8 276.3Q553.8 278.1 552.7 279.2Q551.7 280.2 550.1 280.2Q548.4 280.2 547.5 279.2Q546.5 278.1 546.5 276.3L546.5 276.3L546.5 261.1Q546.5 257.8 544.8 255.9Q543.2 254.1 540.1 254.1L540.1 254.1Q536.8 254.1 534.9 256.2Q533.0 258.3 533.0 261.7L533.0 261.7L533.0 276.3Q533.0 278.1 532.0 279.2ZM573.4 280.2L573.4 280.2Q566.3 280.2 562.3 276.0Q558.3 271.7 558.3 264.2L558.3 264.2Q558.3 256.7 562.3 252.3Q566.3 247.9 573.0 247.9L573.0 247.9Q579.3 247.9 583.3 251.9Q587.3 256.0 587.3 262.4L587.3 262.4Q587.3 264.0 586.4 264.9Q585.5 265.8 583.9 265.8L583.9 265.8L565.6 265.8L565.6 266.0Q565.6 269.9 567.7 272.3Q569.8 274.6 573.3 274.6L573.3 274.6Q575.8 274.6 577.6 273.6Q579.3 272.7 581.1 270.4L581.1 270.4Q582.1 269.3 583.5 269.3L583.5 269.3Q584.8 269.3 585.6 270.0Q586.5 270.8 586.5 272.1L586.5 272.1Q586.5 272.9 586.0 273.9L586.0 273.9Q584.4 276.9 581.1 278.5Q577.8 280.2 573.4 280.2ZM565.6 261.0L565.6 261.0L580.1 261.0Q580 257.6 578.0 255.6Q576.1 253.5 573.0 253.5Q569.9 253.5 567.9 255.6Q565.8 257.7 565.6 261.0ZM603.6 280.1L603.6 280.1Q597.7 280.1 594.2 275.7Q590.7 271.4 590.7 264.0L590.7 264.0Q590.7 256.7 594.2 252.3Q597.7 248.0 603.6 248.0L603.6 248.0Q606.8 248.0 609.4 249.5Q611.9 251.1 613.2 253.7L613.2 253.7L613.3 253.7L613.3 240.6Q613.3 238.7 614.3 237.7Q615.3 236.7 617.0 236.7Q618.6 236.7 619.6 237.7Q620.6 238.7 620.6 240.6L620.6 240.6L620.6 276.5Q620.6 278.2 619.6 279.2Q618.6 280.2 617.0 280.2L617.0 280.2Q615.4 280.2 614.4 279.2Q613.3 278.2 613.3 276.5L613.3 276.5L613.3 274.1L613.2 274.1Q612.0 276.9 609.5 278.5Q607.1 280.1 603.6 280.1ZM605.8 274.1L605.8 274.1Q609.2 274.1 611.3 271.4Q613.4 268.7 613.4 264.1L613.4 264.1Q613.4 259.5 611.3 256.7Q609.2 254.0 605.8 254.0L605.8 254.0Q602.2 254.0 600.2 256.7Q598.1 259.4 598.1 264.1L598.1 264.1Q598.1 268.7 600.2 271.4Q602.2 274.1 605.8 274.1ZM637.6 280.1L637.6 280.1Q632.6 280.1 629.6 277.0Q626.6 274.0 626.6 268.6L626.6 268.6L626.6 251.7Q626.6 250.0 627.6 248.9Q628.6 247.9 630.2 247.9Q631.9 247.9 632.9 248.9Q633.9 250.0 633.9 251.8L633.9 251.8L633.9 267.1Q633.9 270.5 635.5 272.2Q637.1 274.0 640.2 274.0L640.2 274.0Q643.3 274.0 645.2 271.9Q647.0 269.9 647.0 266.5L647.0 266.5L647.0 251.7Q647.0 250.0 648.0 248.9Q649.0 247.9 650.7 247.9L650.7 247.9Q652.3 247.9 653.3 248.9Q654.3 250.0 654.3 251.8L654.3 251.8L654.3 276.5Q654.3 278.2 653.3 279.2Q652.4 280.2 650.8 280.2L650.8 280.2Q649.2 280.2 648.2 279.2Q647.3 278.2 647.3 276.5L647.3 276.5L647.3 274.2L647.1 274.2Q644.5 280.1 637.6 280.1ZM666.7 279.2Q665.8 280.2 664.1 280.2Q662.5 280.2 661.5 279.2Q660.4 278.1 660.4 276.3L660.4 276.3L660.4 240.6Q660.4 238.7 661.5 237.7Q662.5 236.7 664.1 236.7Q665.8 236.7 666.7 237.7Q667.7 238.7 667.7 240.6L667.7 240.6L667.7 276.3Q667.7 278.1 666.7 279.2ZM680.6 243.0Q679.5 244.2 677.8 244.2Q676.1 244.2 674.9 243.0Q673.7 241.8 673.7 240.2L673.7 240.2Q673.7 238.5 674.9 237.4Q676.1 236.2 677.8 236.2L677.8 236.2Q679.5 236.2 680.7 237.4Q681.8 238.5 681.8 240.2L681.8 240.2Q681.8 241.8 680.6 243.0ZM680.4 279.1Q679.4 280.2 677.8 280.2Q676.1 280.2 675.1 279.1Q674.1 278.1 674.1 276.3L674.1 276.3L674.1 251.7Q674.1 250.0 675.1 248.9Q676.1 247.9 677.8 247.9Q679.4 247.9 680.4 248.9Q681.4 250.0 681.4 251.8L681.4 251.8L681.4 276.3Q681.4 278.1 680.4 279.1ZM693.8 279.2Q692.8 280.2 691.2 280.2Q689.5 280.2 688.5 279.2Q687.5 278.1 687.5 276.3L687.5 276.3L687.5 251.6Q687.5 249.9 688.5 248.9Q689.4 247.9 691.0 247.9Q692.6 247.9 693.6 248.9Q694.6 249.9 694.6 251.6L694.6 251.6L694.6 253.8L694.8 253.8Q697.4 247.9 704.5 247.9L704.5 247.9Q709.6 247.9 712.4 251.0Q715.2 254.1 715.2 259.5L715.2 259.5L715.2 276.3Q715.2 278.1 714.2 279.2Q713.2 280.2 711.6 280.2Q709.9 280.2 708.9 279.2Q707.9 278.1 707.9 276.3L707.9 276.3L707.9 261.0Q707.9 257.6 706.3 255.9Q704.8 254.1 701.7 254.1L701.7 254.1Q698.6 254.1 696.7 256.2Q694.8 258.2 694.8 261.6L694.8 261.6L694.8 276.3Q694.8 278.1 693.8 279.2ZM734.4 291.3L734.4 291.3Q730.1 291.2 726.7 289.7Q723.4 288.2 721.8 285.6L721.8 285.6Q721.2 284.6 721.2 283.4L721.2 283.4Q721.2 282.2 722.0 281.4Q722.9 280.6 724.3 280.6L724.3 280.6Q725.7 280.6 726.9 281.8L726.9 281.8Q728.8 283.7 730.6 284.6Q732.3 285.4 734.5 285.5L734.5 285.5Q738.1 285.5 740.3 283.6Q742.4 281.7 742.4 278.6L742.4 278.6L742.4 273.7L742.2 273.7Q741.0 276.2 738.4 277.7Q735.8 279.3 732.5 279.3L732.5 279.3Q726.7 279.3 723.2 275.0Q719.7 270.8 719.7 263.7L719.7 263.7Q719.7 256.4 723.2 252.2Q726.7 248.0 732.7 248.0L732.7 248.0Q735.9 248.0 738.4 249.5Q740.9 251.1 742.3 253.8L742.3 253.8L742.4 253.8L742.4 251.6Q742.4 249.9 743.4 248.9Q744.5 247.9 746.1 247.9Q747.7 247.9 748.7 248.9Q749.7 249.9 749.7 251.6L749.7 251.6L749.7 278.6Q749.7 284.5 745.6 287.9Q741.6 291.3 734.4 291.3ZM734.7 273.6L734.7 273.6Q738.3 273.6 740.4 270.9Q742.5 268.3 742.5 263.7L742.5 263.7Q742.5 259.2 740.3 256.5Q738.2 253.8 734.7 253.8L734.7 253.8Q731.3 253.8 729.3 256.5Q727.2 259.2 727.2 263.7L727.2 263.7Q727.2 268.3 729.3 271.0Q731.3 273.6 734.7 273.6Z M772.2 280.1L772.2 280.1Q770.4 280.1 769.4 279.0Q768.4 278.0 768.4 276.2L768.4 276.2L768.4 240.7Q768.4 238.9 769.4 237.8Q770.4 236.8 772.2 236.8L772.2 236.8Q774.0 236.8 775.0 237.8Q776.0 238.9 776.0 240.7L776.0 240.7L776.0 276.2Q776.0 278.0 775.0 279.1Q774.0 280.1 772.2 280.1ZM789.0 279.2Q787.9 280.2 786.3 280.2Q784.7 280.2 783.7 279.2Q782.7 278.1 782.7 276.3L782.7 276.3L782.7 251.6Q782.7 249.9 783.6 248.9Q784.6 247.9 786.2 247.9Q787.8 247.9 788.8 248.9Q789.8 249.9 789.8 251.6L789.8 251.6L789.8 253.8L789.9 253.8Q792.5 247.9 799.6 247.9L799.6 247.9Q804.7 247.9 807.5 251.0Q810.3 254.1 810.3 259.5L810.3 259.5L810.3 276.3Q810.3 278.1 809.3 279.2Q808.3 280.2 806.7 280.2Q805.1 280.2 804.0 279.2Q803.0 278.1 803.0 276.3L803.0 276.3L803.0 261.0Q803.0 257.6 801.5 255.9Q799.9 254.1 796.8 254.1L796.8 254.1Q793.7 254.1 791.8 256.2Q790.0 258.2 790.0 261.6L790.0 261.6L790.0 276.3Q790.0 278.1 789.0 279.2ZM828.1 280.2L828.1 280.2Q823.3 280.2 820.0 278.5Q816.6 276.8 815.5 274.0L815.5 274.0Q815.2 273.2 815.2 272.5L815.2 272.5Q815.2 271.2 816.0 270.4Q816.9 269.6 818.2 269.6L818.2 269.6Q820.1 269.6 821.4 271.4L821.4 271.4Q822.7 273.3 824.3 274.1Q825.9 274.9 828.4 274.9L828.4 274.9Q831.0 274.9 832.5 273.9Q834.1 272.8 834.1 271.1L834.1 271.1Q834.1 269.7 833.1 268.8Q832.1 268.0 829.7 267.4L829.7 267.4L824.7 266.3Q815.6 264.3 815.6 257.4L815.6 257.4Q815.6 253.1 819.1 250.5Q822.5 247.9 828.3 247.9L828.3 247.9Q832.7 247.9 835.9 249.8Q839.1 251.6 839.8 254.4L839.8 254.4Q840.0 255.0 840.0 255.5L840.0 255.5Q840.0 256.6 839.2 257.4Q838.5 258.1 837.2 258.1L837.2 258.1Q835.3 258.1 834.4 256.7L834.4 256.7Q833.2 255.0 831.8 254.1Q830.3 253.2 828.1 253.2L828.1 253.2Q825.7 253.2 824.2 254.3Q822.7 255.3 822.7 257.0L822.7 257.0Q822.7 259.8 827.3 260.8L827.3 260.8L832.2 261.9Q837.1 263.0 839.3 264.9Q841.4 266.9 841.4 270.3L841.4 270.3Q841.4 274.8 837.7 277.5Q834.1 280.2 828.1 280.2ZM859.8 280.2L859.8 280.2Q852.7 280.2 848.7 276.0Q844.7 271.7 844.7 264.2L844.7 264.2Q844.7 256.7 848.7 252.3Q852.7 247.9 859.4 247.9L859.4 247.9Q865.7 247.9 869.7 251.9Q873.7 256.0 873.7 262.4L873.7 262.4Q873.7 264.0 872.8 264.9Q871.9 265.8 870.3 265.8L870.3 265.8L852.0 265.8L852.0 266.0Q852.0 269.9 854.1 272.3Q856.2 274.6 859.7 274.6L859.7 274.6Q862.2 274.6 864.0 273.6Q865.7 272.7 867.5 270.4L867.5 270.4Q868.5 269.3 870.0 269.3L870.0 269.3Q871.2 269.3 872.0 270.0Q872.9 270.8 872.9 272.1L872.9 272.1Q872.9 272.9 872.4 273.9L872.4 273.9Q870.8 276.9 867.5 278.5Q864.2 280.2 859.8 280.2ZM852.0 261.0L852.0 261.0L866.5 261.0Q866.4 257.6 864.4 255.6Q862.5 253.5 859.4 253.5Q856.3 253.5 854.3 255.6Q852.2 257.7 852.0 261.0ZM892.0 280.2L892.0 280.2Q885.2 280.2 881.1 275.9Q877.1 271.5 877.1 264.1L877.1 264.1Q877.1 256.7 881.1 252.3Q885.2 247.9 892.0 247.9L892.0 247.9Q896.5 247.9 900.1 250.0Q903.6 252.1 904.7 255.4L904.7 255.4Q905.1 256.4 905.1 257.1L905.1 257.1Q905.1 258.5 904.2 259.3Q903.3 260.1 902.0 260.1L902.0 260.1Q900.9 260.1 900.2 259.6Q899.4 259.1 898.8 258.0L898.8 258.0Q896.5 253.8 892.2 253.8L892.2 253.8Q888.6 253.8 886.6 256.6Q884.5 259.3 884.5 264.1L884.5 264.1Q884.5 268.9 886.5 271.6Q888.6 274.3 892.1 274.3L892.1 274.3Q896.5 274.3 898.8 270.3L898.8 270.3Q899.5 269.1 900.2 268.6Q900.9 268.1 902.1 268.1L902.1 268.1Q903.4 268.1 904.3 268.9Q905.2 269.7 905.2 271.1L905.2 271.1Q905.2 271.9 904.8 272.9L904.8 272.9Q903.4 276.1 899.9 278.2Q896.4 280.2 892.0 280.2ZM921.0 280.1L921.0 280.1Q915.9 280.1 912.9 277.0Q909.9 274.0 909.9 268.6L909.9 268.6L909.9 251.7Q909.9 250.0 910.9 248.9Q911.9 247.9 913.6 247.9Q915.2 247.9 916.2 248.9Q917.2 250.0 917.2 251.8L917.2 251.8L917.2 267.1Q917.2 270.5 918.8 272.2Q920.4 274.0 923.5 274.0L923.5 274.0Q926.6 274.0 928.5 271.9Q930.3 269.9 930.3 266.5L930.3 266.5L930.3 251.7Q930.3 250.0 931.3 248.9Q932.4 247.9 934.0 247.9L934.0 247.9Q935.6 247.9 936.6 248.9Q937.6 250.0 937.6 251.8L937.6 251.8L937.6 276.5Q937.6 278.2 936.7 279.2Q935.7 280.2 934.1 280.2L934.1 280.2Q932.5 280.2 931.6 279.2Q930.6 278.2 930.6 276.5L930.6 276.5L930.6 274.2L930.4 274.2Q927.9 280.1 921.0 280.1ZM949.9 279.1Q948.9 280.2 947.2 280.2Q945.5 280.2 944.6 279.1Q943.6 278.1 943.6 276.3L943.6 276.3L943.6 251.6Q943.6 249.9 944.5 248.9Q945.5 247.9 947.1 247.9L947.1 247.9Q948.6 247.9 949.6 248.9Q950.5 249.9 950.5 251.6L950.5 251.6L950.5 254.0L950.7 254.0Q951.3 251.3 953.1 249.6Q955.0 248.0 957.3 248.0L957.3 248.0Q959.0 248.0 959.9 248.8L959.9 248.8Q960.9 249.6 960.9 251.4L960.9 251.4Q960.9 253.1 959.8 254.0L959.8 254.0Q958.8 254.9 956.6 255.0L956.6 255.0Q950.9 255.0 950.9 261.4L950.9 261.4L950.9 276.3Q950.9 278.1 949.9 279.1ZM970.9 243.0Q969.7 244.2 968.0 244.2Q966.3 244.2 965.1 243.0Q964.0 241.8 964.0 240.2L964.0 240.2Q964.0 238.5 965.1 237.4Q966.3 236.2 968.0 236.2L968.0 236.2Q969.7 236.2 970.9 237.4Q972.1 238.5 972.1 240.2L972.1 240.2Q972.1 241.8 970.9 243.0ZM970.7 279.1Q969.7 280.2 968.0 280.2Q966.3 280.2 965.4 279.1Q964.4 278.1 964.4 276.3L964.4 276.3L964.4 251.7Q964.4 250.0 965.4 248.9Q966.3 247.9 968.0 247.9Q969.7 247.9 970.7 248.9Q971.7 250.0 971.7 251.8L971.7 251.8L971.7 276.3Q971.7 278.1 970.7 279.1ZM979.8 271.9L979.8 271.9L979.8 254.1L977.9 254.1Q976.5 254.1 975.7 253.4Q974.9 252.6 974.9 251.3L974.9 251.3Q974.9 250.0 975.7 249.3Q976.5 248.5 977.9 248.5L977.9 248.5L979.8 248.5L979.8 244.4Q979.8 242.6 980.8 241.6Q981.8 240.6 983.5 240.6L983.5 240.6Q985.1 240.6 986.1 241.6Q987.1 242.6 987.1 244.4L987.1 244.4L987.1 248.5L990.5 248.5Q991.9 248.5 992.6 249.3Q993.4 250.0 993.4 251.3L993.4 251.3Q993.4 252.6 992.6 253.4Q991.8 254.1 990.5 254.1L990.5 254.1L987.1 254.1L987.1 270.3Q987.1 272.1 987.8 272.9Q988.5 273.7 990.0 273.9L990.0 273.9L990.6 273.9Q993.5 274.2 993.5 276.6L993.5 276.6Q993.5 278.2 992.1 279.1Q990.8 279.9 988.3 279.9L988.3 279.9L988.0 279.9Q979.8 279.9 979.8 271.9ZM1002.4 291.1L1002.4 291.1Q999.9 291.1 998.6 290.2Q997.3 289.3 997.3 287.7L997.3 287.7Q997.3 286.6 998.1 285.9Q998.8 285.2 1000.1 285.2L1000.1 285.2Q1000.4 285.2 1000.8 285.2Q1001.3 285.2 1001.6 285.2L1001.6 285.2Q1004.6 285.2 1006.1 281.7L1006.1 281.7L1006.6 280.1L996.4 253.4Q996.0 252.2 996.0 251.3L996.0 251.3Q996.0 249.8 997.1 248.9Q998.2 247.9 999.8 247.9L999.8 247.9Q1001.1 247.9 1002.0 248.6Q1002.8 249.3 1003.3 250.8L1003.3 250.8L1010.7 273.4L1010.8 273.4L1018.2 250.8Q1018.7 249.3 1019.5 248.6Q1020.3 247.9 1021.7 247.9L1021.7 247.9Q1023.3 247.9 1024.3 248.8Q1025.3 249.8 1025.3 251.2L1025.3 251.2Q1025.3 252.2 1024.8 253.3L1024.8 253.3L1014.6 280.7Q1012.5 286.5 1009.8 288.8Q1007.0 291.1 1002.4 291.1Z "/><defs><clipPath id="satori_bc-id-0-1"><rect x="0" y="441" width="1200" height="189"/></clipPath></defs><mask id="satori_om-id-0-1"><rect x="0" y="442" width="1200" height="188" fill="#fff"/><path width="1200" height="189" fill="none" stroke="#000" stroke-width="2" d="M0,441 A0,0 0 0 1 0,441 h1200 A0,0 0 0 1 1200,441"/></mask><path width="1200" height="189" clip-path="url(#satori_bc-id-0-1)" fill="none" stroke="#dbdbdb" stroke-width="2" d="M0,441 A0,0 0 0 1 0,441 h1200 A0,0 0 0 1 1200,441"/><mask id="satori_om-id-0-1-0"><rect x="40" y="482" width="292" height="108" fill="#fff"/></mask><clipPath id="satori_cp-id-0-1-0-0"><rect x="40" y="504" width="64" height="64"/></clipPath><mask id="satori_om-id-0-1-0-0"><rect x="40" y="504" width="64" height="64" fill="#fff"/></mask><image x="40" y="504" width="64" height="64" href="data:image/svg+xml;utf8,%3Csvg  xmlns=%22http://www.w3.org/2000/svg%22 width=%2264%22 height=%2264%22 viewBox=%220 0 128 128%22%3E%3Cpath fill=%22%23224d67%22 d=%22M22.5 14.8c2.9 1.3 99 44 99 44c2.7 1.2 2.9 3.1 2 12.4c-1 10.5-1.9 37.8-40.2 42.9c-24.6 3.2-55.9-4.3-70.9-27.2C-6 58.8 11 23.4 14.8 17.7c2.4-3.5 4.8-4.2 7.7-2.9%22%3E%3C/path%3E%3Cpath fill=%22%23f0f4c3%22 d=%22M121.5 58.8c-.3-.2-92-40.8-98.9-43.9C9.6 31.5-3.8 76 27.9 96.2c33.6 21.5 78.7-10.2 93.6-37.4%22%3E%3C/path%3E%3Cpath fill=%22%23f0f4c3%22 d=%22M117.7 57c-.3-.2-86.7-38.4-93.2-41.3c-12.2 15.5-23.9 59.1 5.7 78c31.4 20.2 73.6-11.2 87.5-36.7%22%3E%3C/path%3E%3Cpath fill=%22%23cb2a42%22 d=%22M56.2 37.6L19.5 48.2c-2.5.8-4.4 2.8-5 5.3c-1.9 8.5.8 23.3 8.9 29.8c3.5 2.7 8.6 1.8 10.8-2.1L58.5 41c1.3-1.7.5-4.2-2.3-3.4m14.3 2.9s14.6 30.1 16 33s6.3 4.7 9.9 2.8c10.7-5.6 15.5-12.4 19.2-20.2c-8.9-3.9-42.4-18.8-42.4-18.8c-2.4-1.1-4 .6-2.7 3.2m-8.6 1.9C60.3 45.1 39.5 81 37.6 84.1c-1.9 3.2-.7 7.5 2.7 9.2c12.3 6.5 30.9.4 39.6-7c2.2-1.9 4.5-5.1 3.2-8.2S68.9 44.6 67.8 42.3c-1.2-2.7-4.1-2.8-5.9.1%22%3E%3C/path%3E%3Cpath fill=%22%23f0f4c3%22 d=%22M52.2 42.2c-1.4.4-10.1 3-11.1 3.4c-1.4.5-2.2 1.7-1.9 2.5c.3.9 1.7 1.1 3.1.6c.8-.3 7.1-3.9 9.5-5.2c-3.1 2.4-10.2 9.4-11.1 10.3c-1.4 1.5-1.7 3.4-.8 4.3c1 .9 2.9.5 4.3-1c1.2-1.3 8.5-12.8 9.1-13.9s.4-1.4-1.1-1m10.1 16.4c0-2.2 1.4-10.3 1.8-12.3c.4-1.6 1.5-1.8 1.8.5s1.7 9.7 1.7 11.8s-1.2 3.3-2.7 3.3c-1.4 0-2.6-1.1-2.6-3.3M79.9 49c-1.2-1.8-3.3-4.9-4.1-6.1c-.7-1.2.1-2.1 1.8-.9s4 2.9 5.4 4c1.6 1.3 1.9 3 .8 4s-2.7.8-3.9-1%22%3E%3C/path%3E%3Cellipse cx=%2287.3%22 cy=%22103.12%22 fill=%22%23cb2a42%22 rx=%223.4%22 ry=%222.3%22 transform=%22rotate(-27.098 87.298 103.126)%22%3E%3C/ellipse%3E%3Cellipse cx=%2298.89%22 cy=%22103.82%22 fill=%22%23cb2a42%22 rx=%223.4%22 ry=%222.3%22 transform=%22rotate(-30.642 98.887 103.818)%22%3E%3C/ellipse%3E%3Cellipse cx=%22102.02%22 cy=%2293.8%22 fill=%22%23cb2a42%22 rx=%223.4%22 ry=%222.3%22 transform=%22rotate(-37.16 102.017 93.797)%22%3E%3C/ellipse%3E%3Cpath fill=%22%23cb2a42%22 d=%22M57.6 30.3c-8.3-3.7-24.4-10.7-29.6-13c-3.6 2.2-9.7 11.4-11.2 21.2c-.6 3.6 1.7 5.9 5.3 4.9c0 0 33.7-9.3 35.3-9.7c1.6-.5 2-2.6.2-3.4%22%3E%3C/path%3E%3C/svg%3E" preserveAspectRatio="none" clip-path="url(#satori_cp-id-0-1-0-0)" mask="url(#satori_om-id-0-1-0-0)"/><mask id="satori_om-id-0-1-0-0-0"><rect x="40" y="504" width="0" height="64" fill="#fff"/></mask><mask id="satori_om-id-0-1-0-0-1"><rect x="40" y="504" width="0" height="64" fill="#fff"/></mask><mask id="satori_om-id-0-1-0-0-2"><rect x="40" y="504" width="0" height="64" fill="#fff"/></mask><mask id="satori_om-id-0-1-0-0-3"><rect x="40" y="504" width="0" height="64" fill="#fff"/></mask><mask id="satori_om-id-0-1-0-0-4"><rect x="40" y="504" width="0" height="64" fill="#fff"/></mask><mask id="satori_om-id-0-1-0-0-5"><rect x="40" y="504" width="0" height="64" fill="#fff"/></mask><mask id="satori_om-id-0-1-0-0-6"><rect x="40" y="504" width="0" height="64" fill="#fff"/></mask><mask id="satori_om-id-0-1-0-0-7"><rect x="40" y="504" width="0" height="64" fill="#fff"/></mask><mask id="satori_om-id-0-1-0-0-8"><rect x="40" y="504" width="0" height="64" fill="#fff"/></mask><mask id="satori_om-id-0-1-0-1"><rect x="116" y="512" width="216" height="48" fill="#fff"/></mask><path fill="#545454" d="M121.1 553.5L121.1 553.5Q119.4 553.5 118.4 552.6Q117.5 551.7 117.5 550.2L117.5 550.2Q117.5 549.3 117.9 547.9L117.9 547.9L127.2 522.8Q127.9 520.7 129.2 519.7Q130.5 518.8 132.5 518.8L132.5 518.8Q134.6 518.8 135.9 519.7Q137.2 520.7 137.9 522.8L137.9 522.8L147.2 547.9Q147.6 549.2 147.6 550.2L147.6 550.2Q147.6 551.6 146.6 552.6Q145.6 553.5 144.1 553.5L144.1 553.5Q142.6 553.5 141.7 552.8Q140.9 552.1 140.4 550.4L140.4 550.4L138.6 545.0L126.4 545.0L124.6 550.3Q124.2 552.0 123.3 552.8Q122.5 553.5 121.1 553.5ZM132.4 525.7L128.0 539.6L137 539.6L132.5 525.7L132.4 525.7ZM159.1 552.6Q158.2 553.6 156.6 553.6Q155.0 553.6 154.1 552.6Q153.2 551.7 153.2 550.0L153.2 550.0L153.2 533.1L151.9 533.1Q150.8 533.1 150.1 532.4Q149.4 531.7 149.4 530.6Q149.4 529.4 150.1 528.7Q150.8 528.1 151.9 528.1L151.9 528.1L153.2 528.1L153.2 526.2Q153.2 522.5 155.0 520.7Q156.7 519.0 160.3 518.9L160.3 518.9Q163.0 518.9 164.2 519.7Q165.5 520.4 165.5 521.7L165.5 521.7Q165.5 523.1 164.1 523.5L164.1 523.5Q163.5 523.7 162.8 523.7L162.8 523.7Q161.2 523.7 160.5 524.4Q159.9 525.1 159.9 526.5L159.9 526.5L159.9 528.1L162.7 528.1Q163.8 528.1 164.5 528.7Q165.2 529.4 165.2 530.6Q165.2 531.7 164.5 532.4Q163.8 533.1 162.7 533.1L162.7 533.1L160.0 533.1L160.0 550.0Q160.0 551.7 159.1 552.6ZM170.3 546.6L170.3 546.6L170.3 533.1L168.9 533.1Q167.7 533.1 167.0 532.4Q166.3 531.7 166.3 530.5Q166.3 529.3 167.0 528.6Q167.7 527.9 168.9 527.9L168.9 527.9L170.3 527.9L170.3 525.1Q170.3 523.5 171.2 522.5Q172.1 521.6 173.7 521.6Q175.3 521.6 176.2 522.5Q177.1 523.5 177.1 525.1L177.1 525.1L177.1 527.9L179.5 527.9Q180.7 527.9 181.4 528.6Q182.1 529.3 182.1 530.5Q182.1 531.7 181.4 532.4Q180.7 533.1 179.5 533.1L179.5 533.1L177.1 533.1L177.1 545.1Q177.1 546.5 177.6 547.1Q178.1 547.7 179.2 547.8L179.2 547.8L179.6 547.8Q180.9 548.0 181.6 548.5Q182.2 549.1 182.2 550.3L182.2 550.3Q182.2 551.8 180.9 552.6Q179.6 553.3 177.4 553.3L177.4 553.3L177.1 553.3Q170.3 553.3 170.3 546.6ZM197.0 553.6L197.0 553.6Q191.2 553.6 187.9 550.2Q184.6 546.7 184.6 540.6L184.6 540.6Q184.6 534.5 187.9 531.0Q191.1 527.4 196.7 527.4L196.7 527.4Q202.0 527.4 205.3 530.7Q208.6 533.9 208.6 539.1L208.6 539.1Q208.6 540.5 207.9 541.3Q207.1 542.1 205.6 542.1L205.6 542.1L191.3 542.1L191.3 542.4Q191.3 545.2 192.9 546.9Q194.4 548.5 197.0 548.5L197.0 548.5Q198.9 548.5 200.3 547.8Q201.6 547.2 203.0 545.5L203.0 545.5Q204.0 544.5 205.3 544.5L205.3 544.5Q206.4 544.5 207.2 545.2Q207.9 545.9 207.9 547.0L207.9 547.0Q207.9 547.8 207.5 548.7L207.5 548.7Q206.2 551 203.4 552.3Q200.7 553.6 197.0 553.6ZM191.4 537.9L191.4 537.9L202.0 537.9Q201.9 535.4 200.5 533.9Q199.0 532.5 196.8 532.5Q194.5 532.5 193.1 534.0Q191.6 535.5 191.4 537.9ZM215.6 553.6L215.6 553.6Q214.0 553.6 213.1 552.6Q212.1 551.7 212.1 550.0L212.1 550.0L212.1 530.9Q212.1 529.3 213.0 528.3Q213.9 527.4 215.4 527.4L215.4 527.4Q216.9 527.4 217.8 528.3Q218.7 529.3 218.7 530.9L218.7 530.9L218.7 532.5L218.8 532.5Q219.3 530.2 220.7 528.9Q222.1 527.5 224.0 527.5L224.0 527.5Q225.4 527.5 226.2 528.2L226.2 528.2Q227.2 528.9 227.2 530.7L227.2 530.7Q227.2 532.3 226.2 533.2L226.2 533.2Q225.2 534.0 223.2 534.1L223.2 534.1Q221.0 534.1 220.0 535.3Q219.0 536.5 219.0 538.8L219.0 538.8L219.0 550.0Q219.0 551.7 218.1 552.6Q217.2 553.6 215.6 553.6ZM242.6 553.6L242.6 553.6Q237.5 553.6 234.1 551.8Q230.8 550.0 229.7 547.1L229.7 547.1Q229.4 546.1 229.4 545.2L229.4 545.2Q229.4 543.8 230.2 543.0Q231.1 542.1 232.5 542.1L232.5 542.1Q233.6 542.1 234.3 542.6Q235.1 543.1 235.7 544.2L235.7 544.2Q236.5 546.1 238.4 547.0Q240.2 547.9 242.7 547.9L242.7 547.9Q245.6 547.9 247.3 546.7Q249.1 545.5 249.1 543.6L249.1 543.6Q249.1 541.9 247.8 540.9Q246.4 539.9 243.3 539.3L243.3 539.3L239.7 538.6Q229.6 536.6 229.6 528.9L229.6 528.9Q229.6 525.9 231.3 523.5Q232.9 521.2 235.9 519.9Q238.8 518.7 242.5 518.7L242.5 518.7Q247.2 518.7 250.5 520.5Q253.8 522.4 254.9 525.7L254.9 525.7Q255.1 526.4 255.1 527.2L255.1 527.2Q255.1 528.5 254.3 529.3Q253.5 530.1 252.1 530.1L252.1 530.1Q250.9 530.1 250.1 529.6Q249.4 529.1 248.8 528.0L248.8 528.0Q247.2 524.4 242.5 524.4L242.5 524.4Q239.9 524.4 238.3 525.5Q236.7 526.6 236.7 528.5L236.7 528.5Q236.7 530.1 238.1 531.1Q239.4 532.1 242.4 532.7L242.4 532.7L245.9 533.4Q251.3 534.5 253.7 536.7Q256.2 539.0 256.2 542.8L256.2 542.8Q256.2 547.8 252.5 550.7Q248.9 553.6 242.6 553.6ZM266.0 552.6Q265.0 553.6 263.5 553.6Q261.9 553.6 261.0 552.6Q260.1 551.7 260.1 550.0L260.1 550.0L260.1 522.2Q260.1 520.6 261.0 519.7Q261.9 518.7 263.4 518.7L263.4 518.7Q265.0 518.7 265.9 519.7Q266.8 520.6 266.8 522.2L266.8 522.2L266.8 532.4L266.9 532.4Q267.9 530.0 270.0 528.7Q272 527.5 274.8 527.5L274.8 527.5Q279.0 527.5 281.3 530.0Q283.6 532.5 283.6 536.9L283.6 536.9L283.6 550.0Q283.6 551.7 282.7 552.6Q281.7 553.6 280.2 553.6Q278.6 553.6 277.7 552.6Q276.8 551.7 276.8 550.0L276.8 550.0L276.8 538.3Q276.8 535.9 275.6 534.5Q274.3 533.1 272.0 533.1L272.0 533.1Q269.7 533.1 268.3 534.7Q266.9 536.2 266.9 538.7L266.9 538.7L266.9 550.0Q266.9 551.7 266.0 552.6ZM294.1 523.8Q293.0 524.8 291.5 524.8Q290.0 524.8 288.9 523.8Q287.8 522.8 287.8 521.3L287.8 521.3Q287.8 519.8 288.9 518.8Q290.0 517.7 291.5 517.7Q293.0 517.7 294.1 518.8Q295.2 519.8 295.2 521.3L295.2 521.3Q295.2 522.8 294.1 523.8ZM294.0 552.6Q293.1 553.6 291.5 553.6Q289.9 553.6 289.0 552.6Q288.1 551.7 288.1 550.0L288.1 550.0L288.1 531.0Q288.1 529.3 289.0 528.4Q289.9 527.4 291.5 527.4Q293.1 527.4 294.0 528.4Q294.9 529.3 294.9 531.0L294.9 531.0L294.9 550.0Q294.9 551.7 294.0 552.6ZM307.2 552.6Q306.3 553.6 304.7 553.6Q303.1 553.6 302.2 552.6Q301.3 551.7 301.3 550.0L301.3 550.0L301.3 533.1L300.0 533.1Q298.9 533.1 298.2 532.4Q297.5 531.7 297.5 530.6Q297.5 529.4 298.2 528.7Q298.9 528.1 300.0 528.1L300.0 528.1L301.3 528.1L301.3 526.2Q301.3 522.5 303.1 520.7Q304.9 519.0 308.5 518.9L308.5 518.9Q311.1 518.9 312.4 519.7Q313.6 520.4 313.6 521.7L313.6 521.7Q313.6 523.1 312.2 523.5L312.2 523.5Q311.6 523.7 310.9 523.7L310.9 523.7Q309.4 523.7 308.7 524.4Q308.0 525.1 308.0 526.5L308.0 526.5L308.0 528.1L310.9 528.1Q312.0 528.1 312.7 528.7Q313.4 529.4 313.4 530.6Q313.4 531.7 312.7 532.4Q312.0 533.1 310.9 533.1L310.9 533.1L308.1 533.1L308.1 550.0Q308.1 551.7 307.2 552.6ZM318.4 546.6L318.4 546.6L318.4 533.1L317.1 533.1Q315.9 533.1 315.1 532.4Q314.4 531.7 314.4 530.5Q314.4 529.3 315.1 528.6Q315.9 527.9 317.1 527.9L317.1 527.9L318.4 527.9L318.4 525.1Q318.4 523.5 319.3 522.5Q320.2 521.6 321.8 521.6Q323.4 521.6 324.3 522.5Q325.2 523.5 325.2 525.1L325.2 525.1L325.2 527.9L327.6 527.9Q328.9 527.9 329.6 528.6Q330.3 529.3 330.3 530.5Q330.3 531.7 329.6 532.4Q328.9 533.1 327.6 533.1L327.6 533.1L325.2 533.1L325.2 545.1Q325.2 546.5 325.7 547.1Q326.2 547.7 327.3 547.8L327.3 547.8L327.8 547.8Q329.1 548.0 329.7 548.5Q330.4 549.1 330.4 550.3L330.4 550.3Q330.4 551.8 329.0 552.6Q327.7 553.3 325.5 553.3L325.5 553.3L325.3 553.3Q318.4 553.3 318.4 546.6Z "/><mask id="satori_om-id-0-1-1"><rect x="924" y="524" width="236" height="36" fill="#fff"/></mask><path fill="#8e8e8e" d="M927.9 552.6Q927.5 552.9 927.0 552.9Q926.4 552.9 926.1 552.6Q925.8 552.2 925.8 551.7L925.8 551.7L925.8 532.6Q925.8 532.0 926.1 531.6Q926.5 531.3 927.1 531.3Q927.6 531.3 928.0 531.6Q928.3 532.0 928.3 532.6L928.3 532.6L928.3 540.0L928.4 540.0Q929.1 538.7 930.4 537.9Q931.7 537.2 933.3 537.2L933.3 537.2Q936.2 537.2 937.9 539.3Q939.7 541.5 939.7 545.0L939.7 545.0Q939.7 548.6 937.9 550.8Q936.2 552.9 933.2 552.9L933.2 552.9Q931.6 552.9 930.3 552.2Q929.0 551.4 928.3 550.1L928.3 550.1L928.2 550.1L928.2 551.7Q928.2 552.2 927.9 552.6ZM932.7 550.7L932.7 550.7Q934.8 550.7 935.9 549.2Q937.1 547.7 937.1 545.0L937.1 545.0Q937.1 542.5 935.9 540.9Q934.8 539.4 932.7 539.4L932.7 539.4Q930.8 539.4 929.6 541.0Q928.3 542.5 928.3 545.0L928.3 545.0Q928.3 547.6 929.6 549.1Q930.8 550.7 932.7 550.7ZM943.8 558.4L943.8 558.4Q942.9 558.4 942.4 558.0Q941.9 557.7 941.9 557.1L941.9 557.1Q941.9 556.7 942.1 556.4Q942.4 556.2 942.9 556.2L942.9 556.2Q943.1 556.2 943.3 556.2Q943.5 556.2 943.7 556.2L943.7 556.2Q945.4 556.2 946.2 553.7L946.2 553.7L946.6 552.7L941.3 539.0Q941.2 538.6 941.2 538.3L941.2 538.3Q941.2 537.8 941.6 537.5Q941.9 537.2 942.5 537.2L942.5 537.2Q943.4 537.2 943.7 538.1L943.7 538.1L947.9 550.1L948.0 550.1L952.2 538.1Q952.3 537.6 952.6 537.4Q952.9 537.2 953.4 537.2L953.4 537.2Q953.9 537.2 954.3 537.5Q954.6 537.8 954.6 538.3L954.6 538.3Q954.6 538.6 954.5 539.0L954.5 539.0L948.9 553.7Q947.9 556.4 946.8 557.4Q945.7 558.4 943.8 558.4Z M965.7 552.5Q965.3 552.9 964.7 552.9Q964.1 552.9 963.8 552.5Q963.4 552.1 963.4 551.5L963.4 551.5L963.4 532.9Q963.4 532.3 963.8 531.9Q964.1 531.5 964.7 531.5L964.7 531.5L970.9 531.5Q973.9 531.5 975.8 533.4Q977.7 535.3 977.7 538.3L977.7 538.3Q977.7 541.3 975.8 543.2Q973.9 545.1 970.9 545.1L970.9 545.1L966.0 545.1L966.0 551.5Q966.0 552.1 965.7 552.5ZM966.0 533.9L966.0 542.8L970.3 542.8Q972.5 542.8 973.8 541.6Q975.0 540.4 975.0 538.3Q975.0 536.2 973.8 535.0Q972.5 533.9 970.3 533.9L970.3 533.9L966.0 533.9ZM984.8 552.9L984.8 552.9Q982.5 552.9 981.1 551.7Q979.7 550.4 979.7 548.4L979.7 548.4Q979.7 546.4 981.2 545.2Q982.6 544.1 985.2 543.9L985.2 543.9L989.6 543.7L989.6 542.4Q989.6 541.0 988.7 540.2Q987.9 539.4 986.3 539.4L986.3 539.4Q985.0 539.4 984.1 539.9Q983.3 540.4 982.6 541.5L982.6 541.5Q982.3 542.1 981.6 542.1L981.6 542.1Q981.1 542.1 980.8 541.8Q980.5 541.5 980.5 541.0Q980.5 540.5 980.8 539.9L980.8 539.9Q981.4 538.7 982.9 537.9Q984.5 537.2 986.3 537.2L986.3 537.2Q989.0 537.2 990.6 538.5Q992.2 539.9 992.2 542.1L992.2 542.1L992.2 551.6Q992.2 552.2 991.8 552.6Q991.5 552.9 991.0 552.9L991.0 552.9Q990.4 552.9 990.1 552.6Q989.7 552.2 989.7 551.6L989.7 551.6L989.7 550.0L989.7 550.0Q989.0 551.3 987.7 552.1Q986.3 552.9 984.8 552.9ZM985.3 550.8L985.3 550.8Q987.1 550.8 988.4 549.6Q989.6 548.5 989.6 546.9L989.6 546.9L989.6 545.6L985.5 545.9Q984.0 546.0 983.1 546.6Q982.3 547.3 982.3 548.4Q982.3 549.4 983.1 550.1Q984.0 550.8 985.3 550.8ZM996.2 549.1L996.2 549.1L996.2 539.5L994.9 539.5Q994.4 539.5 994.1 539.3Q993.8 539.0 993.8 538.5L993.8 538.5Q993.8 538.0 994.1 537.7Q994.4 537.4 994.9 537.4L994.9 537.4L996.2 537.4L996.2 534.8Q996.2 534.2 996.6 533.8Q996.9 533.5 997.5 533.5Q998.0 533.5 998.4 533.8Q998.8 534.2 998.8 534.8L998.8 534.8L998.8 537.4L1000.7 537.4Q1001.3 537.4 1001.6 537.7Q1001.9 538.0 1001.9 538.5L1001.9 538.5Q1001.9 539.0 1001.6 539.3Q1001.3 539.5 1000.7 539.5L1000.7 539.5L998.8 539.5L998.8 548.6Q998.8 549.6 999.2 550.0Q999.6 550.5 1000.5 550.6L1000.5 550.6L1000.7 550.6Q1001.9 550.7 1001.9 551.6L1001.9 551.6Q1001.9 552.2 1001.5 552.5Q1001.1 552.8 1000.1 552.8L1000.1 552.8L999.9 552.8Q996.2 552.8 996.2 549.1ZM1006.6 552.5Q1006.3 552.9 1005.7 552.9Q1005.2 552.9 1004.8 552.5Q1004.4 552.2 1004.4 551.6L1004.4 551.6L1004.4 538.5Q1004.4 537.9 1004.8 537.5Q1005.1 537.2 1005.6 537.2Q1006.2 537.2 1006.5 537.5Q1006.8 537.9 1006.8 538.5L1006.8 538.5L1006.8 539.9L1006.9 539.9Q1007.2 538.7 1008.2 537.9Q1009.2 537.2 1010.4 537.2L1010.4 537.2Q1011.2 537.2 1011.6 537.5L1011.6 537.5Q1011.9 537.8 1011.9 538.4L1011.9 538.4Q1011.9 539.0 1011.5 539.3L1011.5 539.3Q1011.1 539.6 1010.3 539.6L1010.3 539.6Q1008.6 539.6 1007.8 540.6Q1007.0 541.6 1007.0 543.2L1007.0 543.2L1007.0 551.6Q1007.0 552.2 1006.6 552.5ZM1015.1 534.9L1015.1 534.9Q1014.4 534.9 1014.0 534.4Q1013.5 533.9 1013.5 533.3L1013.5 533.3Q1013.5 532.6 1014.0 532.2Q1014.4 531.7 1015.1 531.7L1015.1 531.7Q1015.7 531.7 1016.2 532.2Q1016.7 532.6 1016.7 533.3L1016.7 533.3Q1016.7 533.9 1016.2 534.4Q1015.7 534.9 1015.1 534.9ZM1016.0 552.5Q1015.6 552.9 1015.1 552.9Q1014.5 552.9 1014.2 552.5Q1013.8 552.2 1013.8 551.6L1013.8 551.6L1013.8 538.5Q1013.8 537.9 1014.2 537.5Q1014.5 537.2 1015.1 537.2Q1015.6 537.2 1016.0 537.5Q1016.4 537.9 1016.4 538.5L1016.4 538.5L1016.4 551.6Q1016.4 552.2 1016.0 552.5ZM1026.1 552.9L1026.1 552.9Q1022.9 552.9 1021.0 550.8Q1019.1 548.7 1019.1 545.1Q1019.1 541.5 1021.0 539.3Q1022.9 537.2 1026.1 537.2L1026.1 537.2Q1028.2 537.2 1029.9 538.2Q1031.6 539.3 1032.0 540.9L1032.0 540.9Q1032.1 541.2 1032.1 541.4L1032.1 541.4Q1032.1 542.0 1031.8 542.3Q1031.5 542.6 1031.0 542.6L1031.0 542.6Q1030.6 542.6 1030.3 542.4Q1030.1 542.2 1029.8 541.7L1029.8 541.7Q1028.6 539.4 1026.1 539.4L1026.1 539.4Q1024.1 539.4 1022.9 541.0Q1021.6 542.5 1021.6 545.0L1021.6 545.0Q1021.6 547.6 1022.9 549.2Q1024.1 550.7 1026.1 550.7L1026.1 550.7Q1027.4 550.7 1028.3 550.1Q1029.2 549.6 1029.8 548.4L1029.8 548.4Q1030.1 547.9 1030.3 547.7Q1030.6 547.5 1031.0 547.5L1031.0 547.5Q1031.5 547.5 1031.8 547.8Q1032.1 548.2 1032.1 548.7L1032.1 548.7Q1032.1 548.9 1032.0 549.3L1032.0 549.3Q1031.4 550.9 1029.8 551.9Q1028.2 552.9 1026.1 552.9ZM1041.2 552.9L1041.2 552.9Q1037.8 552.9 1036.0 550.9Q1034.1 548.8 1034.1 545.1L1034.1 545.1Q1034.1 541.5 1036.0 539.3Q1037.8 537.2 1041.0 537.2L1041.0 537.2Q1043.9 537.2 1045.8 539.1Q1047.6 541.1 1047.6 544.3L1047.6 544.3Q1047.6 544.9 1047.3 545.3Q1046.9 545.7 1046.2 545.7L1046.2 545.7L1036.7 545.7Q1036.7 548.0 1037.9 549.4Q1039.1 550.7 1041.1 550.7L1041.1 550.7Q1042.5 550.7 1043.4 550.2Q1044.3 549.6 1045.2 548.3L1045.2 548.3Q1045.6 547.8 1046.2 547.8L1046.2 547.8Q1046.7 547.8 1047.0 548.1Q1047.3 548.4 1047.3 548.9L1047.3 548.9Q1047.3 549.2 1047.1 549.7L1047.1 549.7Q1046.4 551.2 1044.8 552.1Q1043.3 552.9 1041.2 552.9ZM1036.7 543.7L1036.7 543.7L1045.0 543.7Q1045.0 541.8 1043.8 540.6Q1042.7 539.4 1041.0 539.4L1041.0 539.4Q1039.2 539.4 1038.0 540.6Q1036.8 541.8 1036.7 543.7Z M1059.0 552.5Q1058.7 552.9 1058.1 552.9Q1057.5 552.9 1057.1 552.5Q1056.7 552.1 1056.7 551.5L1056.7 551.5L1056.7 532.7Q1056.7 532.1 1057.1 531.7Q1057.5 531.3 1058.1 531.3Q1058.7 531.3 1059.0 531.7Q1059.4 532.1 1059.4 532.7L1059.4 532.7L1059.4 541.8L1059.5 541.8L1068.9 531.8Q1069.4 531.3 1070.0 531.3L1070.0 531.3Q1070.5 531.3 1070.9 531.7Q1071.2 532.0 1071.2 532.5L1071.2 532.5Q1071.2 533.0 1070.9 533.3L1070.9 533.3L1063.6 540.9L1071.7 550.6Q1072.1 551.1 1072.1 551.6L1072.1 551.6Q1072.1 552.2 1071.7 552.5Q1071.3 552.9 1070.8 552.9L1070.8 552.9Q1070.1 552.9 1069.6 552.2L1069.6 552.2L1061.7 542.8L1059.4 545.3L1059.4 551.5Q1059.4 552.1 1059.0 552.5ZM1081.2 552.9L1081.2 552.9Q1077.8 552.9 1075.9 550.9Q1074.1 548.8 1074.1 545.1L1074.1 545.1Q1074.1 541.5 1075.9 539.3Q1077.8 537.2 1081.0 537.2L1081.0 537.2Q1083.9 537.2 1085.8 539.1Q1087.6 541.1 1087.6 544.3L1087.6 544.3Q1087.6 544.9 1087.2 545.3Q1086.9 545.7 1086.2 545.7L1086.2 545.7L1076.7 545.7Q1076.7 548.0 1077.9 549.4Q1079.1 550.7 1081.1 550.7L1081.1 550.7Q1082.5 550.7 1083.4 550.2Q1084.3 549.6 1085.2 548.3L1085.2 548.3Q1085.6 547.8 1086.2 547.8L1086.2 547.8Q1086.7 547.8 1087.0 548.1Q1087.3 548.4 1087.3 548.9L1087.3 548.9Q1087.3 549.2 1087.1 549.7L1087.1 549.7Q1086.4 551.2 1084.8 552.1Q1083.3 552.9 1081.2 552.9ZM1076.7 543.7L1076.7 543.7L1085.0 543.7Q1084.9 541.8 1083.8 540.6Q1082.7 539.4 1080.9 539.4L1080.9 539.4Q1079.1 539.4 1078.0 540.6Q1076.8 541.8 1076.7 543.7ZM1092.4 552.5Q1092.0 552.9 1091.4 552.9Q1090.9 552.9 1090.5 552.5Q1090.2 552.2 1090.2 551.6L1090.2 551.6L1090.2 538.5Q1090.2 537.9 1090.5 537.5Q1090.8 537.2 1091.4 537.2Q1091.9 537.2 1092.2 537.5Q1092.6 537.9 1092.6 538.5L1092.6 538.5L1092.6 539.9L1092.6 539.9Q1093.3 538.6 1094.5 537.9Q1095.8 537.2 1097.5 537.2L1097.5 537.2Q1100.0 537.2 1101.3 538.7Q1102.7 540.2 1102.7 542.8L1102.7 542.8L1102.7 551.6Q1102.7 552.2 1102.4 552.5Q1102.0 552.9 1101.5 552.9Q1100.9 552.9 1100.6 552.5Q1100.2 552.2 1100.2 551.6L1100.2 551.6L1100.2 543.2Q1100.2 541.4 1099.3 540.4Q1098.4 539.4 1096.7 539.4L1096.7 539.4Q1094.9 539.4 1093.8 540.6Q1092.7 541.8 1092.7 543.7L1092.7 543.7L1092.7 551.6Q1092.7 552.2 1092.4 552.5ZM1108.2 552.5Q1107.8 552.9 1107.3 552.9Q1106.7 552.9 1106.3 552.5Q1106.0 552.2 1106.0 551.6L1106.0 551.6L1106.0 538.5Q1106.0 537.9 1106.3 537.5Q1106.7 537.2 1107.2 537.2Q1107.7 537.2 1108.0 537.5Q1108.4 537.9 1108.4 538.5L1108.4 538.5L1108.4 539.9L1108.4 539.9Q1109.0 538.6 1110.1 537.9Q1111.3 537.2 1112.8 537.2L1112.8 537.2Q1114.3 537.2 1115.4 537.9Q1116.5 538.7 1117.0 540.1L1117.0 540.1L1117.1 540.1Q1117.7 538.7 1119.0 537.9Q1120.3 537.2 1121.9 537.2L1121.9 537.2Q1124.1 537.2 1125.5 538.5Q1126.8 539.9 1126.8 542.1L1126.8 542.1L1126.8 551.6Q1126.8 552.2 1126.5 552.5Q1126.1 552.9 1125.6 552.9Q1125.0 552.9 1124.6 552.5Q1124.3 552.2 1124.3 551.6L1124.3 551.6L1124.3 542.7Q1124.3 541.2 1123.5 540.3Q1122.6 539.4 1121.1 539.4Q1119.6 539.4 1118.6 540.4Q1117.7 541.4 1117.7 543.0L1117.7 543.0L1117.7 551.6Q1117.7 552.2 1117.3 552.5Q1117.0 552.9 1116.4 552.9Q1115.8 552.9 1115.5 552.5Q1115.1 552.2 1115.1 551.6L1115.1 551.6L1115.1 542.5Q1115.1 541.1 1114.3 540.2Q1113.4 539.4 1112.0 539.4L1112.0 539.4Q1110.5 539.4 1109.5 540.5Q1108.5 541.5 1108.5 543.1L1108.5 543.1L1108.5 551.6Q1108.5 552.2 1108.2 552.5ZM1136.4 552.9L1136.4 552.9Q1133.2 552.9 1131.3 550.8Q1129.3 548.7 1129.3 545.0Q1129.3 541.4 1131.3 539.3Q1133.2 537.2 1136.4 537.2L1136.4 537.2Q1139.6 537.2 1141.5 539.3Q1143.4 541.4 1143.4 545.0L1143.4 545.0Q1143.4 548.7 1141.5 550.8Q1139.6 552.9 1136.4 552.9ZM1133.1 549.2Q1134.3 550.7 1136.4 550.7Q1138.4 550.7 1139.6 549.2Q1140.8 547.7 1140.8 545.0Q1140.8 542.4 1139.6 540.9Q1138.4 539.4 1136.4 539.4Q1134.3 539.4 1133.1 540.9Q1131.9 542.4 1131.9 545.0Q1131.9 547.7 1133.1 549.2ZM1152.5 535.6L1152.5 535.6Q1152.1 535.6 1151.9 535.4Q1151.6 535.2 1151.6 534.8Q1151.6 534.5 1151.8 534.2L1151.8 534.2L1154.0 531.1Q1154.3 530.6 1154.6 530.5Q1154.8 530.3 1155.1 530.3L1155.1 530.3Q1155.6 530.3 1155.9 530.6Q1156.2 530.9 1156.2 531.3L1156.2 531.3Q1156.2 531.7 1155.9 532.1L1155.9 532.1L1153.4 535.1Q1153.0 535.6 1152.5 535.6ZM1152.4 552.9L1152.4 552.9Q1149.0 552.9 1147.1 550.9Q1145.3 548.8 1145.3 545.1L1145.3 545.1Q1145.3 541.5 1147.1 539.3Q1149.0 537.2 1152.2 537.2L1152.2 537.2Q1155.1 537.2 1156.9 539.1Q1158.8 541.1 1158.8 544.3L1158.8 544.3Q1158.8 544.9 1158.4 545.3Q1158.1 545.7 1157.4 545.7L1157.4 545.7L1147.9 545.7Q1147.9 548.0 1149.1 549.4Q1150.2 550.7 1152.3 550.7L1152.3 550.7Q1153.6 550.7 1154.6 550.2Q1155.5 549.6 1156.4 548.3L1156.4 548.3Q1156.8 547.8 1157.3 547.8L1157.3 547.8Q1157.9 547.8 1158.2 548.1Q1158.5 548.4 1158.5 548.9L1158.5 548.9Q1158.5 549.2 1158.3 549.7L1158.3 549.7Q1157.6 551.2 1156.0 552.1Q1154.5 552.9 1152.4 552.9ZM1147.9 543.7L1147.9 543.7L1156.2 543.7Q1156.1 541.8 1155.0 540.6Q1153.9 539.4 1152.1 539.4L1152.1 539.4Q1150.3 539.4 1149.2 540.6Q1148.0 541.8 1147.9 543.7Z "/></svg>