<svg width="1200" height="630" viewBox="0 0 1200 630" xmlns="http://www.w3.org/2000/svg"><mask id="satori_om-id"><rect x="0" y="0" width="1200" height="630" fill="#fff"/></mask><mask id="satori_om-id-0"><rect x="0" y="0" width="1200" height="630" fill="#fff"/></mask><rect x="0" y="0" width="1200" height="630" fill="#f2f2f2"/><mask id="satori_om-id-0-0"><rect x="0" y="0" width="1200" height="441" fill="#fff"/></mask><mask id="satori_om-id-0-0-0"><rect x="40" y="95" width="1120" height="36" fill="#fff"/></mask><path fill="#8e8e8e" d="M44.8 123.4Q44.4 123.9 43.6 123.9Q42.8 123.9 42.4 123.4Q41.9 123.0 41.9 122.2L41.9 122.2L41.9 104.2Q41.9 103.4 42.4 103.0Q42.8 102.5 43.6 102.5L43.6 102.5L53.8 102.5Q54.5 102.5 55.0 102.9Q55.4 103.3 55.4 103.9Q55.4 104.6 55.0 105.0Q54.5 105.4 53.8 105.4L53.8 105.4L45.2 105.4L45.2 112.0L53.1 112.0Q53.7 112.0 54.1 112.4Q54.5 112.8 54.5 113.4Q54.5 114.1 54.1 114.4Q53.7 114.8 53.1 114.8L53.1 114.8L45.2 114.8L45.2 122.2Q45.2 123.0 44.8 123.4ZM59.2 123.9L59.2 123.9Q58.5 123.9 58.1 123.5Q57.6 123.0 57.6 122.3L57.6 122.3L57.6 109.6Q57.6 108.9 58.0 108.4Q58.5 108.0 59.1 108.0L59.1 108.0Q59.8 108.0 60.2 108.4Q60.6 108.9 60.6 109.6L60.6 109.6L60.6 110.9L60.7 110.9Q61.0 109.6 62.0 108.8Q62.9 108.0 64.1 108.0L64.1 108.0Q64.9 108.0 65.3 108.4L65.3 108.4Q65.8 108.7 65.8 109.5L65.8 109.5Q65.8 110.2 65.3 110.6L65.3 110.6Q64.8 111.0 63.8 111.0L63.8 111.0Q62.3 111.0 61.5 112.0Q60.8 112.9 60.8 114.4L60.8 114.4L60.8 122.3Q60.8 123.0 60.3 123.5Q59.9 123.9 59.2 123.9ZM70.5 105.4Q69.9 105.9 69.2 105.9Q68.4 105.9 67.9 105.4Q67.3 104.9 67.3 104.1L67.3 104.1Q67.3 103.3 67.9 102.8Q68.4 102.3 69.2 102.3L69.2 102.3Q69.9 102.3 70.5 102.8Q71.0 103.3 71.0 104.1L71.0 104.1Q71.0 104.9 70.5 105.4ZM70.3 123.5Q69.9 123.9 69.2 123.9Q68.4 123.9 68.0 123.5Q67.6 123.0 67.6 122.3L67.6 122.3L67.6 109.7Q67.6 108.9 68.0 108.4Q68.4 108.0 69.2 108.0Q69.9 108.0 70.3 108.4Q70.7 108.9 70.7 109.7L70.7 109.7L70.7 122.3Q70.7 123.0 70.3 123.5ZM79.8 123.9L79.8 123.9Q76.8 123.9 75.1 121.8Q73.3 119.6 73.3 116.0Q73.3 112.3 75.0 110.2Q76.8 108.0 79.7 108.0L79.7 108.0Q81.4 108.0 82.6 108.8Q83.9 109.5 84.6 110.8L84.6 110.8L84.6 110.8L84.6 103.9Q84.6 103.1 85.1 102.7Q85.5 102.2 86.2 102.2L86.2 102.2Q86.9 102.2 87.4 102.7Q87.8 103.2 87.8 103.9L87.8 103.9L87.8 122.4Q87.8 123.1 87.4 123.5Q86.9 123.9 86.2 123.9L86.2 123.9Q85.5 123.9 85.1 123.5Q84.6 123.1 84.6 122.4L84.6 122.4L84.6 120.9L84.6 120.9Q84.0 122.3 82.7 123.1Q81.5 123.9 79.8 123.9ZM80.6 121.2L80.6 121.2Q82.4 121.2 83.5 119.8Q84.6 118.4 84.6 116.0L84.6 116.0Q84.6 113.6 83.5 112.1Q82.4 110.7 80.6 110.7L80.6 110.7Q78.7 110.7 77.6 112.1Q76.5 113.5 76.5 116.0L76.5 116.0Q76.5 118.4 77.6 119.8Q78.7 121.2 80.6 121.2ZM95.5 123.9L95.5 123.9Q93.3 123.9 91.8 122.6Q90.4 121.3 90.4 119.3L90.4 119.3Q90.4 117.3 91.9 116.1Q93.4 114.9 96.1 114.7L96.1 114.7L100.4 114.5L100.4 113.3Q100.4 112.0 99.5 111.3Q98.7 110.6 97.3 110.6L97.3 110.6Q96.1 110.6 95.3 111.0Q94.5 111.5 93.9 112.5L93.9 112.5Q93.4 113.2 92.6 113.2L92.6 113.2Q92.0 113.2 91.6 112.8Q91.2 112.4 91.2 111.9L91.2 111.9Q91.2 111.3 91.5 110.8L91.5 110.8Q92.1 109.5 93.7 108.8Q95.3 108.0 97.4 108.0L97.4 108.0Q100.2 108.0 101.9 109.4Q103.5 110.7 103.5 113.0L103.5 113.0L103.5 122.3Q103.5 123.1 103.1 123.5Q102.7 123.9 102.0 123.9L102.0 123.9Q101.3 123.9 100.9 123.5Q100.5 123.1 100.5 122.4L100.5 122.4L100.5 121.1L100.4 121.1Q99.8 122.4 98.4 123.2Q97.1 123.9 95.5 123.9ZM96.4 121.4L96.4 121.4Q98.1 121.4 99.2 120.4Q100.4 119.4 100.4 117.9L100.4 117.9L100.4 116.7L96.6 116.9Q95.1 117.0 94.4 117.6Q93.6 118.2 93.6 119.2L93.6 119.2Q93.6 120.2 94.4 120.8Q95.2 121.4 96.4 121.4ZM108.5 129.4L108.5 129.4Q107.4 129.4 106.8 129.0Q106.2 128.6 106.2 127.9L106.2 127.9Q106.2 127.4 106.5 127.1Q106.9 126.8 107.4 126.8L107.4 126.8Q107.6 126.8 107.8 126.8Q108.1 126.8 108.3 126.8L108.3 126.8Q109.9 126.8 110.6 124.7L110.6 124.7L110.9 123.8L105.7 110.3Q105.6 109.9 105.6 109.4L105.6 109.4Q105.6 108.8 106.0 108.4Q106.5 108.0 107.2 108.0L107.2 108.0Q107.8 108.0 108.1 108.3Q108.5 108.5 108.7 109.2L108.7 109.2L112.6 120.8L112.7 120.8L116.6 109.2Q116.8 108.5 117.2 108.3Q117.5 108.0 118.1 108.0L118.1 108.0Q118.8 108.0 119.2 108.4Q119.7 108.8 119.7 109.4L119.7 109.4Q119.7 109.8 119.5 110.3L119.5 110.3L114.2 124.4Q113.1 127.2 111.9 128.3Q110.6 129.4 108.5 129.4ZM124.1 120.1L124.1 120.1Q124.8 120.1 125.2 120.5Q125.6 120.8 125.6 121.4L125.6 121.4Q125.6 121.8 125.5 122.3L125.5 122.3L124.2 127.3Q123.9 128.4 122.9 128.4L122.9 128.4Q122.3 128.4 122.0 128.1Q121.6 127.7 121.6 127.2L121.6 127.2Q121.6 127.1 121.7 126.8L121.7 126.8L122.6 121.4Q122.8 120.1 124.1 120.1Z M142.7 123.9L142.7 123.9Q142.0 123.9 141.6 123.5Q141.1 123.0 141.1 122.3L141.1 122.3L141.1 105.9L141.1 105.9L137.4 108.4Q136.9 108.7 136.4 108.7L136.4 108.7Q135.9 108.7 135.5 108.4Q135.2 108.0 135.2 107.5L135.2 107.5Q135.2 106.7 136.0 106.1L136.0 106.1L140.4 103.0Q141.1 102.6 141.5 102.4Q141.9 102.2 142.5 102.2L142.5 102.2Q143.4 102.2 143.9 102.7Q144.3 103.2 144.3 104.1L144.3 104.1L144.3 122.3Q144.3 123.0 143.9 123.5Q143.4 123.9 142.7 123.9ZM156.4 123.9L156.4 123.9Q155.7 123.9 155.3 123.5Q154.8 123.0 154.8 122.3L154.8 122.3L154.8 105.9L154.8 105.9L151.1 108.4Q150.6 108.7 150.1 108.7L150.1 108.7Q149.6 108.7 149.2 108.4Q148.9 108.0 148.9 107.5L148.9 107.5Q148.9 106.7 149.7 106.1L149.7 106.1L154.1 103.0Q154.8 102.6 155.2 102.4Q155.6 102.2 156.2 102.2L156.2 102.2Q157.1 102.2 157.5 102.7Q158.0 103.2 158.0 104.1L158.0 104.1L158.0 122.3Q158.0 123.0 157.6 123.5Q157.1 123.9 156.4 123.9Z M170.1 123.9L170.1 123.9Q169.4 123.9 168.9 123.5Q168.5 123.1 168.5 122.4L168.5 122.4Q168.5 122.0 168.7 121.4L168.7 121.4L175.1 104.0Q175.7 102.3 177.4 102.3L177.4 102.3Q178.3 102.3 178.8 102.7Q179.4 103.1 179.7 104.0L179.7 104.0L186.1 121.4Q186.4 122.0 186.4 122.4L186.4 122.4Q186.4 123.0 185.9 123.5Q185.4 123.9 184.7 123.9L184.7 123.9Q184.1 123.9 183.7 123.6Q183.3 123.3 183.1 122.6L183.1 122.6L181.4 118.0L173.4 118.0L171.8 122.5Q171.5 123.3 171.1 123.6Q170.8 123.9 170.1 123.9ZM177.3 106.0L174.2 115.3L180.6 115.3L177.4 106.0L177.3 106.0ZM191.5 128.7Q191.1 129.1 190.4 129.1Q189.6 129.1 189.2 128.7Q188.8 128.2 188.8 127.4L188.8 127.4L188.8 109.6Q188.8 108.9 189.2 108.4Q189.6 108.0 190.3 108.0L190.3 108.0Q191.0 108.0 191.4 108.4Q191.8 108.9 191.8 109.6L191.8 109.6L191.8 110.9L191.9 110.9Q192.6 109.6 193.9 108.8Q195.2 108.0 196.8 108.0L196.8 108.0Q199.7 108.0 201.5 110.2Q203.3 112.3 203.3 116.0Q203.3 119.6 201.5 121.8Q199.8 123.9 196.9 123.9L196.9 123.9Q195.2 123.9 193.9 123.2Q192.7 122.4 192.0 121.1L192.0 121.1L191.9 121.1L191.9 127.4Q191.9 128.2 191.5 128.7ZM196.0 121.2L196.0 121.2Q197.8 121.2 198.9 119.8Q200.0 118.4 200.0 116.0L200.0 116.0Q200.0 113.5 198.9 112.1Q197.8 110.7 196.0 110.7L196.0 110.7Q194.1 110.7 193.0 112.1Q191.9 113.6 191.9 116.0L191.9 116.0Q191.9 118.4 193.0 119.8Q194.1 121.2 196.0 121.2ZM207.3 123.9L207.3 123.9Q206.6 123.9 206.1 123.5Q205.7 123.0 205.7 122.3L205.7 122.3L205.7 109.6Q205.7 108.9 206.1 108.4Q206.6 108.0 207.2 108.0L207.2 108.0Q207.9 108.0 208.3 108.4Q208.7 108.9 208.7 109.6L208.7 109.6L208.7 110.9L208.8 110.9Q209.1 109.6 210.1 108.8Q211.0 108.0 212.2 108.0L212.2 108.0Q213.0 108.0 213.4 108.4L213.4 108.4Q213.8 108.7 213.8 109.5L213.8 109.5Q213.8 110.2 213.4 110.6L213.4 110.6Q212.9 111.0 211.9 111.0L211.9 111.0Q210.4 111.0 209.6 112.0Q208.9 112.9 208.9 114.4L208.9 114.4L208.9 122.3Q208.9 123.0 208.4 123.5Q208.0 123.9 207.3 123.9ZM218.5 105.4Q218.0 105.9 217.2 105.9Q216.5 105.9 215.9 105.4Q215.4 104.9 215.4 104.1L215.4 104.1Q215.4 103.3 215.9 102.8Q216.5 102.3 217.2 102.3L217.2 102.3Q218.0 102.3 218.6 102.8Q219.1 103.3 219.1 104.1L219.1 104.1Q219.1 104.9 218.5 105.4ZM218.4 123.5Q218.0 123.9 217.2 123.9Q216.5 123.9 216.1 123.5Q215.7 123.0 215.7 122.3L215.7 122.3L215.7 109.7Q215.7 108.9 216.1 108.4Q216.5 108.0 217.2 108.0Q218.0 108.0 218.4 108.4Q218.8 108.9 218.8 109.7L218.8 109.7L218.8 122.3Q218.8 123.0 218.4 123.5ZM224.9 123.5Q224.5 123.9 223.8 123.9Q223.1 123.9 222.6 123.5Q222.2 123.0 222.2 122.3L222.2 122.3L222.2 103.9Q222.2 103.2 222.6 102.7Q223.1 102.2 223.8 102.2Q224.5 102.2 224.9 102.7Q225.3 103.2 225.3 103.9L225.3 103.9L225.3 122.3Q225.3 123.0 224.9 123.5Z M247.9 123.7L236.2 123.7Q235.5 123.7 235.1 123.3Q234.7 122.9 234.7 122.3L234.7 122.3Q234.7 121.8 234.9 121.5Q235.1 121.1 235.6 120.6L235.6 120.6L242.2 113.9Q244.3 111.8 245.0 110.7Q245.6 109.6 245.6 108.3L245.6 108.3Q245.6 106.8 244.6 105.8Q243.6 104.8 242.0 104.8L242.0 104.8Q238.8 104.8 237.7 108.0L237.7 108.0Q237.5 108.5 237.1 108.8Q236.8 109.0 236.2 109.0L236.2 109.0Q235.6 109.0 235.2 108.6Q234.8 108.3 234.8 107.6L234.8 107.6Q234.8 107.3 234.9 107.0L234.9 107.0Q235.0 106.1 235.6 105.3Q236.1 104.4 237.0 103.7Q237.9 103.0 239.2 102.6Q240.5 102.1 242.0 102.1L242.0 102.1Q245.0 102.1 246.9 103.8Q248.9 105.5 248.9 108.1L248.9 108.1Q248.9 109.9 247.9 111.5Q246.9 113.0 244.2 115.8L244.2 115.8L239.1 120.8L239.1 120.9L247.9 120.9Q248.6 120.9 249.0 121.3Q249.4 121.7 249.4 122.3L249.4 122.3Q249.4 122.9 249.0 123.3Q248.6 123.7 247.9 123.7L247.9 123.7ZM265.8 121.1Q263.7 124.1 259.9 124.1Q256.1 124.1 253.9 121.1Q251.8 118.2 251.8 113.1L251.8 113.1Q251.8 108.0 253.9 105.1Q256.1 102.1 259.9 102.1L259.9 102.1Q263.6 102.1 265.8 105.1Q267.9 108.0 267.9 113.1L267.9 113.1Q267.9 118.1 265.8 121.1ZM259.9 121.3L259.9 121.3Q262.1 121.3 263.4 119.1Q264.6 116.9 264.6 113.1L264.6 113.1Q264.6 109.3 263.4 107.1Q262.1 104.9 259.9 104.9Q257.6 104.9 256.3 107.1Q255.1 109.3 255.1 113.1L255.1 113.1Q255.1 116.9 256.3 119.1Q257.6 121.3 259.9 121.3ZM284.0 123.7L272.3 123.7Q271.6 123.7 271.2 123.3Q270.8 122.9 270.8 122.3L270.8 122.3Q270.8 121.8 271.0 121.5Q271.2 121.1 271.7 120.6L271.7 120.6L278.3 113.9Q280.4 111.8 281.0 110.7Q281.7 109.6 281.7 108.3L281.7 108.3Q281.7 106.8 280.7 105.8Q279.6 104.8 278.1 104.8L278.1 104.8Q274.9 104.8 273.8 108.0L273.8 108.0Q273.6 108.5 273.2 108.8Q272.9 109.0 272.3 109.0L272.3 109.0Q271.7 109.0 271.3 108.6Q270.9 108.3 270.9 107.6L270.9 107.6Q270.9 107.3 271.0 107.0L271.0 107.0Q271.1 106.1 271.7 105.3Q272.2 104.4 273.1 103.7Q274.0 103.0 275.3 102.6Q276.6 102.1 278.1 102.1L278.1 102.1Q281.1 102.1 283.0 103.8Q285.0 105.5 285.0 108.1L285.0 108.1Q285.0 109.9 284.0 111.5Q283.0 113.0 280.3 115.8L280.3 115.8L275.2 120.8L275.2 120.9L284.0 120.9Q284.7 120.9 285.1 121.3Q285.5 121.7 285.5 122.3L285.5 122.3Q285.5 122.9 285.1 123.3Q284.7 123.7 284.0 123.7L284.0 123.7ZM295.8 124.1L295.8 124.1Q293.4 124.1 291.5 123.0Q289.6 121.9 288.9 120.2L288.9 120.2Q288.5 119.5 288.5 118.8L288.5 118.8Q288.5 118.1 288.9 117.7Q289.3 117.3 290.0 117.3L290.0 117.3Q290.5 117.3 290.9 117.6Q291.2 117.8 291.5 118.4L291.5 118.4Q292.0 119.8 293.1 120.5Q294.2 121.3 295.8 121.3L295.8 121.3Q297.8 121.3 299.1 120.0Q300.3 118.8 300.3 116.8L300.3 116.8Q300.3 114.8 299.1 113.6Q297.8 112.4 295.8 112.4L295.8 112.4Q293.7 112.4 292.4 113.7L292.4 113.7Q291.7 114.5 291.3 114.6Q291.0 114.8 290.4 114.8L290.4 114.8Q289.6 114.8 289.2 114.4Q288.8 113.9 288.8 113.2L288.8 113.2L288.8 112.9L289.5 104.8Q289.6 103.6 290.2 103.0Q290.8 102.5 292.0 102.5L292.0 102.5L301.0 102.5Q301.7 102.5 302.1 102.9Q302.5 103.3 302.5 103.9Q302.5 104.5 302.1 104.9Q301.7 105.3 301.0 105.3L301.0 105.3L292.4 105.3L291.8 111.9L291.8 111.9Q292.5 110.9 293.8 110.3Q295.0 109.8 296.6 109.8L296.6 109.8Q299.6 109.8 301.6 111.7Q303.5 113.6 303.5 116.7L303.5 116.7Q303.5 120.0 301.4 122.0Q299.2 124.1 295.8 124.1Z "/><mask id="satori_om-id-0-0-1"><rect x="40" y="176" width="1120" height="165" fill="#fff"/></mask><path fill="#224d67" d="M47.5 239.1L47.5 239.1Q45.7 239.1 44.7 238.0Q43.7 237.0 43.7 235.2L43.7 235.2L43.7 199.7Q43.7 197.9 44.7 196.8Q45.7 195.8 47.5 195.8L47.5 195.8Q49.3 195.8 50.3 196.8Q51.3 197.9 51.3 199.7L51.3 199.7L51.3 235.2Q51.3 237.0 50.3 238.1Q49.3 239.1 47.5 239.1ZM64.3 238.1Q63.3 239.2 61.6 239.2Q60.0 239.2 59.0 238.1Q58.0 237.1 58.0 235.3L58.0 235.3L58.0 210.6Q58.0 208.9 58.9 207.9Q59.9 206.9 61.5 206.9L61.5 206.9Q63.0 206.9 64.0 207.9Q64.9 208.9 64.9 210.6L64.9 210.6L64.9 213.0L65.1 213.0Q65.7 210.3 67.6 208.6Q69.4 207.0 71.7 207.0L71.7 207.0Q73.4 207.0 74.3 207.8L74.3 207.8Q75.3 208.6 75.3 210.4L75.3 210.4Q75.3 212.1 74.2 213.0L74.2 213.0Q73.2 213.9 71.0 214.0L71.0 214.0Q65.3 214.0 65.3 220.4L65.3 220.4L65.3 235.3Q65.3 237.1 64.3 238.1ZM84.9 238.1Q83.9 239.2 82.2 239.2Q80.6 239.2 79.6 238.1Q78.6 237.1 78.6 235.3L78.6 235.3L78.6 210.6Q78.6 208.9 79.6 207.9Q80.5 206.9 82.1 206.9L82.1 206.9Q83.6 206.9 84.6 207.9Q85.6 208.9 85.6 210.6L85.6 210.6L85.6 213.0L85.7 213.0Q86.3 210.3 88.2 208.6Q90.0 207.0 92.4 207.0L92.4 207.0Q94.1 207.0 94.9 207.8L94.9 207.8Q96.0 208.6 96.0 210.4L96.0 210.4Q96.0 212.1 94.9 213.0L94.9 213.0Q93.8 213.9 91.7 214.0L91.7 214.0Q85.9 214.0 85.9 220.4L85.9 220.4L85.9 235.3Q85.9 237.1 84.9 238.1ZM113.0 239.2L113.0 239.2Q105.9 239.2 101.9 235.0Q97.9 230.7 97.9 223.2L97.9 223.2Q97.9 215.7 101.9 211.3Q105.9 206.9 112.6 206.9L112.6 206.9Q119.0 206.9 123.0 210.9Q126.9 215.0 126.9 221.4L126.9 221.4Q126.9 223.0 126.0 223.9Q125.1 224.8 123.5 224.8L123.5 224.8L105.2 224.8L105.2 225.0Q105.2 228.9 107.3 231.3Q109.4 233.6 113.0 233.6L113.0 233.6Q115.4 233.6 117.2 232.6Q119.0 231.7 120.7 229.4L120.7 229.4Q121.8 228.3 123.2 228.3L123.2 228.3Q124.5 228.3 125.3 229.0Q126.1 229.8 126.1 231.1L126.1 231.1Q126.1 231.9 125.6 232.9L125.6 232.9Q124.1 235.9 120.8 237.5Q117.5 239.2 113.0 239.2ZM105.3 220.0L105.3 220.0L119.8 220.0Q119.7 216.6 117.7 214.6Q115.7 212.5 112.7 212.5Q109.6 212.5 107.5 214.6Q105.5 216.7 105.3 220.0ZM144.0 239.2L144.0 239.2Q142.0 239.2 140.8 238.3Q139.6 237.4 138.9 235.4L138.9 235.4L130.2 212.3Q129.8 211.2 129.8 210.2L129.8 210.2Q129.8 208.8 130.8 207.8Q131.8 206.9 133.4 206.9L133.4 206.9Q136.1 206.9 136.9 209.8L136.9 209.8L144.0 231.8L144.1 231.8L151.2 209.8Q152.0 206.9 154.6 206.9L154.6 206.9Q156.2 206.9 157.2 207.8Q158.2 208.8 158.2 210.2L158.2 210.2Q158.2 211.2 157.8 212.2L157.8 212.2L149.1 235.4Q148.4 237.3 147.2 238.3Q146.0 239.2 144.0 239.2ZM187.0 234.9Q182.9 239.2 176.0 239.2Q169.1 239.2 165.1 234.9Q161.0 230.6 161.0 223.1L161.0 223.1Q161.0 215.6 165.1 211.2Q169.2 206.9 176.0 206.9L176.0 206.9Q182.9 206.9 187.0 211.2Q191.1 215.6 191.1 223.1L191.1 223.1Q191.1 230.6 187.0 234.9ZM170.5 230.7Q172.5 233.4 176.0 233.4Q179.5 233.4 181.6 230.7Q183.6 228.0 183.6 223.1L183.6 223.1Q183.6 218.2 181.6 215.4Q179.5 212.7 176.0 212.7L176.0 212.7Q172.5 212.7 170.5 215.4Q168.4 218.2 168.4 223.1L168.4 223.1Q168.4 228.0 170.5 230.7ZM209.4 239.2L209.4 239.2Q202.6 239.2 198.5 234.9Q194.5 230.5 194.5 223.1L194.5 223.1Q194.5 215.7 198.5 211.3Q202.5 206.9 209.3 206.9L209.3 206.9Q213.9 206.9 217.4 209.0Q221.0 211.1 222.1 214.4L222.1 214.4Q222.5 215.4 222.5 216.1L222.5 216.1Q222.5 217.5 221.6 218.3Q220.7 219.1 219.4 219.1L219.4 219.1Q218.3 219.1 217.5 218.6Q216.8 218.1 216.2 217.0L216.2 217.0Q213.9 212.8 209.5 212.8L209.5 212.8Q206.0 212.8 203.9 215.6Q201.9 218.3 201.9 223.1L201.9 223.1Q201.9 227.9 203.9 230.6Q206.0 233.3 209.5 233.3L209.5 233.3Q213.9 233.3 216.1 229.3L216.1 229.3Q216.9 228.1 217.6 227.6Q218.3 227.1 219.5 227.1L219.5 227.1Q220.8 227.1 221.7 227.9Q222.6 228.7 222.6 230.1L222.6 230.1Q222.6 230.9 222.1 231.9L222.1 231.9Q220.8 235.1 217.3 237.2Q213.8 239.2 209.4 239.2ZM236.6 239.1L236.6 239.1Q232.0 239.1 229.1 236.5Q226.2 233.9 226.2 229.7L226.2 229.7Q226.2 225.6 229.3 223.2Q232.3 220.8 238.0 220.4L238.0 220.4L246.3 219.9L246.3 217.7Q246.3 215.3 244.7 213.9Q243.2 212.6 240.4 212.6L240.4 212.6Q238.3 212.6 236.8 213.4Q235.3 214.2 233.9 216.2L233.9 216.2Q232.8 217.7 231.0 217.7L231.0 217.7Q229.6 217.7 228.8 216.9Q227.9 216.1 227.9 214.8L227.9 214.8Q227.9 213.8 228.4 212.8L228.4 212.8Q229.6 210.1 232.9 208.5Q236.3 206.9 240.7 206.9L240.7 206.9Q246.5 206.9 250.0 209.7Q253.5 212.5 253.5 217.2L253.5 217.2L253.5 235.5Q253.5 237.2 252.5 238.2Q251.5 239.2 249.9 239.2L249.9 239.2Q248.4 239.2 247.5 238.3Q246.5 237.4 246.4 235.8L246.4 235.8L246.4 233.6L246.3 233.6Q245.0 236.1 242.3 237.6Q239.6 239.1 236.6 239.1ZM238.8 233.6L238.8 233.6Q241.9 233.6 244.1 231.7Q246.3 229.8 246.3 227.1L246.3 227.1L246.3 224.7L239.0 225.1Q236.4 225.3 235.0 226.4Q233.5 227.6 233.5 229.4L233.5 229.4Q233.5 231.3 235.0 232.4Q236.4 233.6 238.8 233.6ZM265.7 238.2Q264.7 239.2 263.1 239.2Q261.5 239.2 260.5 238.2Q259.5 237.3 259.5 235.5L259.5 235.5L259.5 199.6Q259.5 197.7 260.5 196.7Q261.5 195.7 263.2 195.7Q264.8 195.7 265.8 196.7Q266.8 197.7 266.8 199.6L266.8 199.6L266.8 212.9L267.0 212.9Q268.3 210.1 270.9 208.5Q273.4 207.0 276.7 207.0L276.7 207.0Q282.6 207.0 286.1 211.3Q289.5 215.6 289.5 223.1L289.5 223.1Q289.5 230.5 286.1 234.8Q282.6 239.1 276.7 239.1L276.7 239.1Q273.3 239.1 270.8 237.6Q268.2 236.0 266.8 233.3L266.8 233.3L266.7 233.3L266.7 235.5Q266.7 237.2 265.7 238.2ZM274.5 233.1L274.5 233.1Q277.9 233.1 280 230.4Q282.1 227.7 282.1 223.1Q282.1 218.4 280 215.7Q277.9 213.0 274.5 213.0L274.5 213.0Q271.1 213.0 268.9 215.8Q266.8 218.5 266.8 223.1L266.8 223.1Q266.8 227.6 268.9 230.3Q271.1 233.1 274.5 233.1ZM300.7 238.2Q299.7 239.2 298.1 239.2Q296.4 239.2 295.4 238.2Q294.4 237.1 294.4 235.3L294.4 235.3L294.4 199.6Q294.4 197.7 295.4 196.7Q296.4 195.7 298.1 195.7Q299.7 195.7 300.7 196.7Q301.7 197.7 301.7 199.6L301.7 199.6L301.7 235.3Q301.7 237.1 300.7 238.2ZM321.7 239.2L321.7 239.2Q314.6 239.2 310.6 235.0Q306.6 230.7 306.6 223.2L306.6 223.2Q306.6 215.7 310.6 211.3Q314.6 206.9 321.3 206.9L321.3 206.9Q327.7 206.9 331.6 210.9Q335.6 215.0 335.6 221.4L335.6 221.4Q335.6 223.0 334.7 223.9Q333.8 224.8 332.2 224.8L332.2 224.8L313.9 224.8L313.9 225.0Q313.9 228.9 316.0 231.3Q318.1 233.6 321.7 233.6L321.7 233.6Q324.1 233.6 325.9 232.6Q327.7 231.7 329.4 229.4L329.4 229.4Q330.5 228.3 331.9 228.3L331.9 228.3Q333.1 228.3 334.0 229.0Q334.8 229.8 334.8 231.1L334.8 231.1Q334.8 231.9 334.3 232.9L334.3 232.9Q332.8 235.9 329.5 237.5Q326.1 239.2 321.7 239.2ZM314.0 220.0L314.0 220.0L328.5 220.0Q328.3 216.6 326.4 214.6Q324.4 212.5 321.3 212.5Q318.3 212.5 316.2 214.6Q314.2 216.7 314.0 220.0Z M371.3 239.3L371.3 239.3Q362.2 239.3 356.9 233.4Q351.6 227.6 351.6 217.4L351.6 217.4Q351.6 207.3 356.9 201.5Q362.2 195.6 371.2 195.6L371.2 195.6Q377.1 195.6 381.5 198.2Q385.9 200.8 388.0 205.4L388.0 205.4Q388.7 206.9 388.7 208.3L388.7 208.3Q388.7 209.8 387.8 210.7Q386.9 211.6 385.4 211.6L385.4 211.6Q382.8 211.6 381.7 208.9L381.7 208.9Q380.2 205.6 377.5 203.8Q374.7 202.0 371.3 202.0L371.3 202.0Q365.8 202.0 362.6 206.2Q359.3 210.4 359.3 217.4L359.3 217.4Q359.3 224.5 362.6 228.7Q365.8 232.9 371.3 232.9L371.3 232.9Q378.9 232.9 381.8 226.3L381.8 226.3Q382.4 225.0 383.1 224.4Q383.9 223.9 385.1 223.9L385.1 223.9Q386.7 223.9 387.7 224.8Q388.7 225.7 388.7 227.2L388.7 227.2Q388.7 228.6 388.0 230.1L388.0 230.1Q385.9 234.4 381.6 236.8Q377.2 239.3 371.3 239.3ZM401.0 238.2Q400.0 239.2 398.3 239.2Q396.7 239.2 395.7 238.2Q394.7 237.1 394.7 235.3L394.7 235.3L394.7 199.5Q394.7 197.7 395.6 196.7Q396.6 195.7 398.3 195.7L398.3 195.7Q400.0 195.7 400.9 196.7Q401.9 197.7 401.9 199.5L401.9 199.5L401.9 212.9L402.0 212.9Q403.3 210.0 405.8 208.5Q408.3 206.9 411.8 206.9L411.8 206.9Q416.9 206.9 419.8 210.1Q422.7 213.2 422.7 218.6L422.7 218.6L422.7 235.3Q422.7 237.1 421.7 238.2Q420.7 239.2 419.0 239.2Q417.4 239.2 416.4 238.2Q415.4 237.1 415.4 235.3L415.4 235.3L415.4 220.1Q415.4 216.8 413.8 214.9Q412.2 213.1 409.0 213.1L409.0 213.1Q405.7 213.1 403.9 215.2Q402.0 217.3 402.0 220.7L402.0 220.7L402.0 235.3Q402.0 237.1 401.0 238.2ZM442.3 239.2L442.3 239.2Q435.2 239.2 431.2 235.0Q427.2 230.7 427.2 223.2L427.2 223.2Q427.2 215.7 431.2 211.3Q435.2 206.9 441.9 206.9L441.9 206.9Q448.3 206.9 452.3 210.9Q456.2 215.0 456.2 221.4L456.2 221.4Q456.2 223.0 455.3 223.9Q454.4 224.8 452.8 224.8L452.8 224.8L434.5 224.8L434.5 225.0Q434.5 228.9 436.6 231.3Q438.7 233.6 442.3 233.6L442.3 233.6Q444.7 233.6 446.5 232.6Q448.3 231.7 450.0 229.4L450.0 229.4Q451.1 228.3 452.5 228.3L452.5 228.3Q453.8 228.3 454.6 229.0Q455.4 229.8 455.4 231.1L455.4 231.1Q455.4 231.9 454.9 232.9L454.9 232.9Q453.4 235.9 450.1 237.5Q446.8 239.2 442.3 239.2ZM434.6 220.0L434.6 220.0L449.1 220.0Q449.0 216.6 447.0 214.6Q445.0 212.5 442.0 212.5Q438.9 212.5 436.8 214.6Q434.8 216.7 434.6 220.0ZM472.4 239.1L472.4 239.1Q466.5 239.1 463.1 234.7Q459.6 230.4 459.6 223.0Q459.6 215.6 463.1 211.3Q466.6 207.0 472.5 207.0L472.5 207.0Q475.8 207.0 478.4 208.6Q480.9 210.2 482.3 212.9L482.3 212.9L482.4 212.9L482.4 210.7Q482.4 208.9 483.4 207.9Q484.3 206.9 486.0 206.9Q487.7 206.9 488.6 207.9Q489.6 208.9 489.6 210.7L489.6 210.7L489.6 245.8Q489.6 247.6 488.6 248.6Q487.6 249.6 485.9 249.6Q484.3 249.6 483.3 248.6Q482.3 247.6 482.3 245.8L482.3 245.8L482.3 233.3L482.1 233.3Q480.9 236.0 478.3 237.5Q475.7 239.1 472.4 239.1ZM474.6 233.1L474.6 233.1Q478.1 233.1 480.2 230.4Q482.3 227.6 482.3 223.1Q482.3 218.5 480.2 215.7Q478.1 213.0 474.6 213.0L474.6 213.0Q471.1 213.0 469.1 215.7Q467.1 218.4 467.1 223.1Q467.1 227.7 469.1 230.4Q471.1 233.1 474.6 233.1ZM506.4 239.1L506.4 239.1Q501.3 239.1 498.4 236.0Q495.4 233.0 495.4 227.6L495.4 227.6L495.4 210.7Q495.4 209.0 496.4 207.9Q497.4 206.9 499.0 206.9Q500.7 206.9 501.7 207.9Q502.7 209.0 502.7 210.8L502.7 210.8L502.7 226.1Q502.7 229.5 504.3 231.2Q505.9 233.0 509.0 233.0L509.0 233.0Q512.1 233.0 513.9 230.9Q515.8 228.9 515.8 225.5L515.8 225.5L515.8 210.7Q515.8 209.0 516.8 207.9Q517.8 206.9 519.4 206.9L519.4 206.9Q521.1 206.9 522.1 207.9Q523.1 209.0 523.1 210.8L523.1 210.8L523.1 235.5Q523.1 237.2 522.1 238.2Q521.2 239.2 519.6 239.2L519.6 239.2Q518.0 239.2 517.0 238.2Q516.0 237.2 516.0 235.5L516.0 235.5L516.0 233.2L515.9 233.2Q513.3 239.1 506.4 239.1ZM542.8 239.2L542.8 239.2Q535.7 239.2 531.7 235.0Q527.7 230.7 527.7 223.2L527.7 223.2Q527.7 215.7 531.7 211.3Q535.7 206.9 542.4 206.9L542.4 206.9Q548.8 206.9 552.7 210.9Q556.7 215.0 556.7 221.4L556.7 221.4Q556.7 223.0 555.8 223.9Q554.9 224.8 553.3 224.8L553.3 224.8L535 224.8L535 225.0Q535 228.9 537.1 231.3Q539.2 233.6 542.8 233.6L542.8 233.6Q545.2 233.6 547.0 232.6Q548.8 231.7 550.5 229.4L550.5 229.4Q551.6 228.3 553.0 228.3L553.0 228.3Q554.2 228.3 555.1 229.0Q555.9 229.8 555.9 231.1L555.9 231.1Q555.9 231.9 555.4 232.9L555.4 232.9Q553.9 235.9 550.6 237.5Q547.2 239.2 542.8 239.2ZM535.1 220.0L535.1 220.0L549.6 220.0Q549.4 216.6 547.5 214.6Q545.5 212.5 542.4 212.5Q539.4 212.5 537.3 214.6Q535.3 216.7 535.1 220.0ZM573.4 239.2L573.4 239.2Q568.5 239.2 565.2 237.5Q561.9 235.8 560.7 233.0L560.7 233.0Q560.4 232.2 560.4 231.5L560.4 231.5Q560.4 230.2 561.3 229.4Q562.1 228.6 563.5 228.6L563.5 228.6Q565.3 228.6 566.6 230.4L566.6 230.4Q567.9 232.3 569.5 233.1Q571.1 233.9 573.6 233.9L573.6 233.9Q576.2 233.9 577.8 232.9Q579.3 231.8 579.3 230.1L579.3 230.1Q579.3 228.7 578.3 227.8Q577.3 227.0 574.9 226.4L574.9 226.4L569.9 225.3Q560.8 223.3 560.8 216.4L560.8 216.4Q560.8 212.1 564.3 209.5Q567.8 206.9 573.5 206.9L573.5 206.9Q577.9 206.9 581.1 208.8Q584.3 210.6 585.1 213.4L585.1 213.4Q585.2 214.0 585.2 214.5L585.2 214.5Q585.2 215.6 584.5 216.4Q583.8 217.1 582.4 217.1L582.4 217.1Q580.6 217.1 579.6 215.7L579.6 215.7Q578.5 214.0 577.0 213.1Q575.5 212.2 573.3 212.2L573.3 212.2Q570.9 212.2 569.4 213.3Q567.9 214.3 567.9 216.0L567.9 216.0Q567.9 218.8 572.5 219.8L572.5 219.8L577.5 220.9Q582.4 222.0 584.5 223.9Q586.6 225.9 586.6 229.3L586.6 229.3Q586.6 233.8 583.0 236.5Q579.3 239.2 573.4 239.2Z M612.3 239.1L612.3 239.1Q607.8 239.1 604.9 236.5Q602.0 233.9 602.0 229.7L602.0 229.7Q602.0 225.6 605.0 223.2Q608.1 220.8 613.8 220.4L613.8 220.4L622.0 219.9L622.0 217.7Q622.0 215.3 620.5 213.9Q618.9 212.6 616.2 212.6L616.2 212.6Q614.0 212.6 612.5 213.4Q611.1 214.2 609.7 216.2L609.7 216.2Q608.6 217.7 606.7 217.7L606.7 217.7Q605.4 217.7 604.5 216.9Q603.7 216.1 603.7 214.8L603.7 214.8Q603.7 213.8 604.2 212.8L604.2 212.8Q605.3 210.1 608.7 208.5Q612.1 206.9 616.5 206.9L616.5 206.9Q622.3 206.9 625.7 209.7Q629.2 212.5 629.2 217.2L629.2 217.2L629.2 235.5Q629.2 237.2 628.2 238.2Q627.3 239.2 625.7 239.2L625.7 239.2Q624.2 239.2 623.2 238.3Q622.3 237.4 622.2 235.8L622.2 235.8L622.2 233.6L622.0 233.6Q620.7 236.1 618.1 237.6Q615.4 239.1 612.3 239.1ZM614.6 233.6L614.6 233.6Q617.7 233.6 619.8 231.7Q622.0 229.8 622.0 227.1L622.0 227.1L622.0 224.7L614.8 225.1Q612.2 225.3 610.7 226.4Q609.3 227.6 609.3 229.4L609.3 229.4Q609.3 231.3 610.7 232.4Q612.2 233.6 614.6 233.6ZM641.4 238.2Q640.4 239.2 638.7 239.2Q637.1 239.2 636.1 238.2Q635.1 237.1 635.1 235.3L635.1 235.3L635.1 210.6Q635.1 208.9 636.0 207.9Q637.0 206.9 638.6 206.9Q640.2 206.9 641.2 207.9Q642.2 208.9 642.2 210.6L642.2 210.6L642.2 212.8L642.3 212.8Q645.0 206.9 652.0 206.9L652.0 206.9Q657.1 206.9 659.9 210.0Q662.7 213.1 662.7 218.5L662.7 218.5L662.7 235.3Q662.7 237.1 661.7 238.2Q660.7 239.2 659.1 239.2Q657.5 239.2 656.5 238.2Q655.4 237.1 655.4 235.3L655.4 235.3L655.4 220.0Q655.4 216.6 653.9 214.9Q652.3 213.1 649.2 213.1L649.2 213.1Q646.1 213.1 644.2 215.2Q642.4 217.2 642.4 220.6L642.4 220.6L642.4 235.3Q642.4 237.1 641.4 238.2ZM680.2 239.1L680.2 239.1Q674.3 239.1 670.8 234.7Q667.3 230.4 667.3 223.0L667.3 223.0Q667.3 215.7 670.8 211.3Q674.3 207.0 680.2 207.0L680.2 207.0Q683.4 207.0 686.0 208.5Q688.5 210.1 689.8 212.7L689.8 212.7L690.0 212.7L690.0 199.6Q690.0 197.7 690.9 196.7Q691.9 195.7 693.6 195.7Q695.2 195.7 696.2 196.7Q697.2 197.7 697.2 199.6L697.2 199.6L697.2 235.5Q697.2 237.2 696.3 238.2Q695.3 239.2 693.6 239.2L693.6 239.2Q692.0 239.2 691.0 238.2Q690.0 237.2 690.0 235.5L690.0 235.5L690.0 233.1L689.8 233.1Q688.6 235.9 686.2 237.5Q683.7 239.1 680.2 239.1ZM682.4 233.1L682.4 233.1Q685.8 233.1 687.9 230.4Q690.0 227.7 690.0 223.1L690.0 223.1Q690.0 218.5 687.9 215.7Q685.8 213.0 682.4 213.0L682.4 213.0Q678.8 213.0 676.8 215.7Q674.7 218.4 674.7 223.1L674.7 223.1Q674.7 227.7 676.8 230.4Q678.8 233.1 682.4 233.1Z M740.5 238.6L719.9 238.6Q718.1 238.6 717.1 237.5Q716.1 236.5 716.1 234.7L716.1 234.7L716.1 200.2Q716.1 198.4 717.1 197.3Q718.1 196.3 719.9 196.3L719.9 196.3L740.5 196.3Q742.1 196.3 743.0 197.2Q743.9 198.0 743.9 199.5Q743.9 201.0 743.0 201.8Q742.1 202.7 740.5 202.7L740.5 202.7L723.7 202.7L723.7 214.1L739.6 214.1Q741.1 214.1 742.0 214.9Q742.9 215.7 742.9 217.1Q742.9 218.5 742.0 219.3Q741.1 220.1 739.6 220.1L739.6 220.1L723.7 220.1L723.7 232.2L740.5 232.2Q742.1 232.2 743.0 233.1Q743.9 233.9 743.9 235.4Q743.9 236.8 743.0 237.7Q742.1 238.6 740.5 238.6L740.5 238.6ZM752.9 239.2L752.9 239.2Q751.3 239.2 750.3 238.2Q749.3 237.1 749.3 235.3L749.3 235.3L749.3 210.6Q749.3 208.9 750.3 207.9Q751.2 206.9 752.8 206.9Q754.4 206.9 755.3 207.9Q756.3 208.9 756.3 210.6L756.3 210.6L756.3 212.9L756.5 212.9Q757.5 210.2 759.8 208.5Q762.2 206.9 765.3 206.9L765.3 206.9Q768.6 206.9 770.9 208.6Q773.1 210.2 774.0 213.2L774.0 213.2L774.2 213.2Q775.3 210.3 777.9 208.6Q780.4 206.9 783.8 206.9L783.8 206.9Q788.4 206.9 791.2 209.8Q794.0 212.6 794.0 217.3L794.0 217.3L794.0 235.3Q794.0 237.1 793.0 238.1Q792.0 239.2 790.3 239.2L790.3 239.2Q788.7 239.2 787.7 238.1Q786.7 237.1 786.7 235.3L786.7 235.3L786.7 219.1Q786.7 216.2 785.2 214.6Q783.8 213.1 781.1 213.1L781.1 213.1Q778.5 213.1 776.8 214.8Q775.2 216.6 775.2 219.4L775.2 219.4L775.2 235.3Q775.2 237.1 774.2 238.2Q773.3 239.2 771.6 239.2L771.6 239.2Q770.0 239.2 769.0 238.2Q768.1 237.1 768.1 235.3L768.1 235.3L768.1 218.7Q768.1 216.1 766.6 214.6Q765.1 213.1 762.6 213.1L762.6 213.1Q759.9 213.1 758.3 214.9Q756.6 216.8 756.6 219.6L756.6 219.6L756.6 235.3Q756.6 237.1 755.6 238.1Q754.6 239.2 752.9 239.2ZM806.1 248.6Q805.1 249.6 803.4 249.6Q801.8 249.6 800.8 248.6Q799.8 247.6 799.8 245.8L799.8 245.8L799.8 210.7Q799.8 208.9 800.8 207.9Q801.7 206.9 803.3 206.9L803.3 206.9Q804.9 206.9 805.9 207.9Q806.9 208.9 806.9 210.7L806.9 210.7L806.9 212.9L807.1 212.9Q808.4 210.1 810.9 208.6Q813.5 207.0 816.8 207.0L816.8 207.0Q822.8 207.0 826.2 211.3Q829.7 215.6 829.7 223.1L829.7 223.1Q829.7 230.5 826.3 234.8Q822.8 239.1 817.0 239.1L817.0 239.1Q813.6 239.1 811.1 237.6Q808.5 236.1 807.2 233.4L807.2 233.4L807.1 233.4L807.1 245.8Q807.1 247.6 806.1 248.6ZM814.6 233.1L814.6 233.1Q818.2 233.1 820.2 230.4Q822.3 227.7 822.3 223.1L822.3 223.1Q822.3 218.5 820.2 215.7Q818.1 213.0 814.6 213.0L814.6 213.0Q811.2 213.0 809.1 215.8Q807.1 218.5 807.0 223.1L807.0 223.1Q807.1 227.6 809.1 230.4Q811.2 233.1 814.6 233.1ZM840.9 238.2Q839.9 239.2 838.3 239.2Q836.6 239.2 835.6 238.2Q834.6 237.1 834.6 235.3L834.6 235.3L834.6 199.6Q834.6 197.7 835.6 196.7Q836.6 195.7 838.3 195.7Q839.9 195.7 840.9 196.7Q841.9 197.7 841.9 199.6L841.9 199.6L841.9 235.3Q841.9 237.1 840.9 238.2ZM872.8 234.9Q868.8 239.2 861.9 239.2Q855.0 239.2 850.9 234.9Q846.8 230.6 846.8 223.1L846.8 223.1Q846.8 215.6 850.9 211.2Q855.0 206.9 861.9 206.9L861.9 206.9Q868.7 206.9 872.8 211.2Q876.9 215.6 876.9 223.1L876.9 223.1Q876.9 230.6 872.8 234.9ZM856.3 230.7Q858.3 233.4 861.9 233.4Q865.4 233.4 867.4 230.7Q869.5 228.0 869.5 223.1L869.5 223.1Q869.5 218.2 867.4 215.4Q865.4 212.7 861.9 212.7L861.9 212.7Q858.4 212.7 856.3 215.4Q854.2 218.2 854.2 223.1L854.2 223.1Q854.2 228.0 856.3 230.7ZM886.0 250.1L886.0 250.1Q883.6 250.1 882.3 249.2Q881.0 248.3 881.0 246.7L881.0 246.7Q881.0 245.6 881.7 244.9Q882.5 244.2 883.7 244.2L883.7 244.2Q884.0 244.2 884.5 244.2Q885.0 244.2 885.3 244.2L885.3 244.2Q888.3 244.2 889.7 240.7L889.7 240.7L890.3 239.1L880.1 212.4Q879.7 211.2 879.7 210.3L879.7 210.3Q879.7 208.8 880.7 207.9Q881.8 206.9 883.4 206.9L883.4 206.9Q884.8 206.9 885.6 207.6Q886.4 208.3 886.9 209.8L886.9 209.8L894.3 232.4L894.4 232.4L901.9 209.8Q902.3 208.3 903.2 207.6Q904.0 206.9 905.4 206.9L905.4 206.9Q906.9 206.9 907.9 207.8Q908.9 208.8 908.9 210.2L908.9 210.2Q908.9 211.2 908.5 212.3L908.5 212.3L898.3 239.7Q896.2 245.5 893.4 247.8Q890.7 250.1 886.0 250.1ZM926.7 239.2L926.7 239.2Q919.6 239.2 915.6 235.0Q911.6 230.7 911.6 223.2L911.6 223.2Q911.6 215.7 915.6 211.3Q919.6 206.9 926.3 206.9L926.3 206.9Q932.6 206.9 936.6 210.9Q940.6 215.0 940.6 221.4L940.6 221.4Q940.6 223.0 939.7 223.9Q938.8 224.8 937.2 224.8L937.2 224.8L918.9 224.8L918.9 225.0Q918.9 228.9 921.0 231.3Q923.1 233.6 926.6 233.6L926.6 233.6Q929.1 233.6 930.9 232.6Q932.6 231.7 934.4 229.4L934.4 229.4Q935.5 228.3 936.9 228.3L936.9 228.3Q938.1 228.3 939.0 229.0Q939.8 229.8 939.8 231.1L939.8 231.1Q939.8 231.9 939.3 232.9L939.3 232.9Q937.7 235.9 934.4 237.5Q931.1 239.2 926.7 239.2ZM918.9 220.0L918.9 220.0L933.4 220.0Q933.3 216.6 931.4 214.6Q929.4 212.5 926.3 212.5Q923.2 212.5 921.2 214.6Q919.1 216.7 918.9 220.0ZM951.6 238.1Q950.6 239.2 948.9 239.2Q947.2 239.2 946.3 238.1Q945.3 237.1 945.3 235.3L945.3 235.3L945.3 210.6Q945.3 208.9 946.2 207.9Q947.2 206.9 948.8 206.9L948.8 206.9Q950.3 206.9 951.3 207.9Q952.2 208.9 952.2 210.6L952.2 210.6L952.2 213.0L952.4 213.0Q953.0 210.3 954.8 208.6Q956.7 207.0 959.0 207.0L959.0 207.0Q960.7 207.0 961.6 207.8L961.6 207.8Q962.6 208.6 962.6 210.4L962.6 210.4Q962.6 212.1 961.5 213.0L961.5 213.0Q960.5 213.9 958.3 214.0L958.3 214.0Q952.6 214.0 952.6 220.4L952.6 220.4L952.6 235.3Q952.6 237.1 951.6 238.1Z M996.4 238.6L982.4 238.6Q980.7 238.6 979.7 237.5Q978.6 236.5 978.6 234.7L978.6 234.7L978.6 200.2Q978.6 198.4 979.7 197.3Q980.7 196.3 982.4 196.3L982.4 196.3L996.2 196.3Q1002.0 196.3 1005.4 199.2Q1008.8 202.0 1008.8 206.8L1008.8 206.8Q1008.8 210.2 1006.6 212.9Q1004.4 215.5 1001.1 216.0L1001.1 216.0L1001.1 216.3Q1005.4 216.7 1008.2 219.5Q1010.9 222.4 1010.9 226.6L1010.9 226.6Q1010.9 232.2 1007.0 235.4Q1003.1 238.6 996.4 238.6L996.4 238.6ZM986.2 202.2L986.2 214.1L993.1 214.1Q997.1 214.1 999.2 212.5Q1001.3 210.9 1001.3 208.0L1001.3 208.0Q1001.3 205.2 999.5 203.7Q997.7 202.2 994.3 202.2L994.3 202.2L986.2 202.2ZM986.2 219.5L986.2 232.7L994.6 232.7Q998.8 232.7 1001.0 231.0Q1003.2 229.3 1003.2 226.0L1003.2 226.0Q1003.2 222.8 1000.9 221.1Q998.7 219.5 994.3 219.5L994.3 219.5L986.2 219.5ZM1024.6 239.1L1024.6 239.1Q1020.1 239.1 1017.2 236.5Q1014.3 233.9 1014.3 229.7L1014.3 229.7Q1014.3 225.6 1017.3 223.2Q1020.4 220.8 1026.1 220.4L1026.1 220.4L1034.3 219.9L1034.3 217.7Q1034.3 215.3 1032.8 213.9Q1031.2 212.6 1028.5 212.6L1028.5 212.6Q1026.3 212.6 1024.8 213.4Q1023.3 214.2 1022.0 216.2L1022.0 216.2Q1020.9 217.7 1019.0 217.7L1019.0 217.7Q1017.7 217.7 1016.8 216.9Q1016.0 216.1 1016.0 214.8L1016.0 214.8Q1016.0 213.8 1016.5 212.8L1016.5 212.8Q1017.6 210.1 1021.0 208.5Q1024.3 206.9 1028.8 206.9L1028.8 206.9Q1034.6 206.9 1038.0 209.7Q1041.5 212.5 1041.5 217.2L1041.5 217.2L1041.5 235.5Q1041.5 237.2 1040.5 238.2Q1039.6 239.2 1038.0 239.2L1038.0 239.2Q1036.4 239.2 1035.5 238.3Q1034.6 237.4 1034.5 235.8L1034.5 235.8L1034.5 233.6L1034.3 233.6Q1033.0 236.1 1030.4 237.6Q1027.7 239.1 1024.6 239.1ZM1026.9 233.6L1026.9 233.6Q1030.0 233.6 1032.1 231.7Q1034.3 229.8 1034.3 227.1L1034.3 227.1L1034.3 224.7L1027.1 225.1Q1024.5 225.3 1023.0 226.4Q1021.6 227.6 1021.6 229.4L1021.6 229.4Q1021.6 231.3 1023.0 232.4Q1024.5 233.6 1026.9 233.6ZM1059.0 239.1L1059.0 239.1Q1053.1 239.1 1049.6 234.7Q1046.1 230.4 1046.1 223.0L1046.1 223.0Q1046.1 215.7 1049.6 211.3Q1053.1 207.0 1059.0 207.0L1059.0 207.0Q1062.3 207.0 1064.8 208.5Q1067.3 210.1 1068.6 212.7L1068.6 212.7L1068.8 212.7L1068.8 199.6Q1068.8 197.7 1069.8 196.7Q1070.8 195.7 1072.4 195.7Q1074.0 195.7 1075.0 196.7Q1076.1 197.7 1076.1 199.6L1076.1 199.6L1076.1 235.5Q1076.1 237.2 1075.1 238.2Q1074.1 239.2 1072.5 239.2L1072.5 239.2Q1070.8 239.2 1069.8 238.2Q1068.8 237.2 1068.8 235.5L1068.8 235.5L1068.8 233.1L1068.6 233.1Q1067.4 235.9 1065.0 237.5Q1062.5 239.1 1059.0 239.1ZM1061.2 233.1L1061.2 233.1Q1064.6 233.1 1066.7 230.4Q1068.8 227.7 1068.8 223.1L1068.8 223.1Q1068.8 218.5 1066.7 215.7Q1064.6 213.0 1061.2 213.0L1061.2 213.0Q1057.7 213.0 1055.6 215.7Q1053.6 218.4 1053.6 223.1L1053.6 223.1Q1053.6 227.7 1055.6 230.4Q1057.6 233.1 1061.2 233.1Z M47.5 321.6L47.5 321.6Q45.7 321.6 44.7 320.5Q43.7 319.5 43.7 317.7L43.7 317.7L43.7 282.7Q43.7 280.9 44.7 279.8Q45.7 278.8 47.5 278.8L47.5 278.8L67.7 278.8Q69.3 278.8 70.2 279.7Q71.2 280.5 71.2 282.0Q71.2 283.5 70.2 284.3Q69.3 285.2 67.7 285.2L67.7 285.2L51.3 285.2L51.3 297.7L66.2 297.7Q67.7 297.7 68.6 298.5Q69.5 299.3 69.5 300.7Q69.5 302.2 68.6 303.0Q67.7 303.8 66.2 303.8L66.2 303.8L51.3 303.8L51.3 317.7Q51.3 319.5 50.3 320.6Q49.3 321.6 47.5 321.6ZM84.5 321.6L84.5 321.6Q80.0 321.6 77.1 319.0Q74.2 316.4 74.2 312.2L74.2 312.2Q74.2 308.1 77.2 305.7Q80.3 303.3 86.0 302.9L86.0 302.9L94.2 302.4L94.2 300.2Q94.2 297.8 92.7 296.4Q91.1 295.1 88.4 295.1L88.4 295.1Q86.2 295.1 84.7 295.9Q83.2 296.7 81.9 298.7L81.9 298.7Q80.8 300.2 78.9 300.2L78.9 300.2Q77.6 300.2 76.7 299.4Q75.9 298.6 75.9 297.3L75.9 297.3Q75.9 296.3 76.4 295.3L76.4 295.3Q77.5 292.6 80.9 291.0Q84.2 289.4 88.7 289.4L88.7 289.4Q94.5 289.4 97.9 292.2Q101.4 295.0 101.4 299.7L101.4 299.7L101.4 318.0Q101.4 319.7 100.4 320.7Q99.4 321.7 97.9 321.7L97.9 321.7Q96.3 321.7 95.4 320.8Q94.5 319.9 94.4 318.3L94.4 318.3L94.4 316.1L94.2 316.1Q92.9 318.6 90.2 320.1Q87.6 321.6 84.5 321.6ZM86.8 316.1L86.8 316.1Q89.9 316.1 92.0 314.2Q94.2 312.3 94.2 309.6L94.2 309.6L94.2 307.2L87.0 307.6Q84.4 307.8 82.9 308.9Q81.5 310.1 81.5 311.9L81.5 311.9Q81.5 313.8 82.9 314.9Q84.4 316.1 86.8 316.1ZM114.0 284.5Q112.8 285.7 111.1 285.7Q109.4 285.7 108.2 284.5Q107.0 283.3 107.0 281.7L107.0 281.7Q107.0 280.0 108.2 278.9Q109.4 277.7 111.1 277.7L111.1 277.7Q112.8 277.7 114.0 278.9Q115.1 280.0 115.1 281.7L115.1 281.7Q115.1 283.3 114.0 284.5ZM113.7 320.6Q112.7 321.7 111.1 321.7Q109.4 321.7 108.4 320.6Q107.4 319.6 107.4 317.8L107.4 317.8L107.4 293.2Q107.4 291.5 108.4 290.4Q109.4 289.4 111.1 289.4Q112.7 289.4 113.7 290.4Q114.7 291.5 114.7 293.3L114.7 293.3L114.7 317.8Q114.7 319.6 113.7 320.6ZM122.9 313.4L122.9 313.4L122.9 295.6L120.9 295.6Q119.6 295.6 118.8 294.9Q118.0 294.1 118.0 292.8L118.0 292.8Q118.0 291.5 118.8 290.8Q119.5 290.0 120.9 290.0L120.9 290.0L122.9 290.0L122.9 285.9Q122.9 284.1 123.9 283.1Q124.8 282.1 126.5 282.1L126.5 282.1Q128.2 282.1 129.2 283.1Q130.2 284.1 130.2 285.9L130.2 285.9L130.2 290.0L133.5 290.0Q134.9 290.0 135.7 290.8Q136.5 291.5 136.5 292.8L136.5 292.8Q136.5 294.1 135.7 294.9Q134.9 295.6 133.5 295.6L133.5 295.6L130.2 295.6L130.2 311.8Q130.2 313.6 130.8 314.4Q131.5 315.2 133.1 315.4L133.1 315.4L133.6 315.4Q136.6 315.7 136.6 318.1L136.6 318.1Q136.6 319.7 135.2 320.6Q133.9 321.4 131.3 321.4L131.3 321.4L131.1 321.4Q122.9 321.4 122.9 313.4ZM147.5 320.7Q146.5 321.7 144.9 321.7Q143.2 321.7 142.2 320.7Q141.2 319.6 141.2 317.8L141.2 317.8L141.2 282.0Q141.2 280.2 142.2 279.2Q143.1 278.2 144.8 278.2L144.8 278.2Q146.5 278.2 147.4 279.2Q148.4 280.2 148.4 282.0L148.4 282.0L148.4 295.4L148.5 295.4Q149.8 292.5 152.3 291.0Q154.8 289.4 158.4 289.4L158.4 289.4Q163.5 289.4 166.3 292.6Q169.2 295.7 169.2 301.1L169.2 301.1L169.2 317.8Q169.2 319.6 168.2 320.7Q167.2 321.7 165.6 321.7Q163.9 321.7 162.9 320.7Q161.9 319.6 161.9 317.8L161.9 317.8L161.9 302.6Q161.9 299.3 160.3 297.4Q158.7 295.6 155.5 295.6L155.5 295.6Q152.3 295.6 150.4 297.7Q148.5 299.8 148.5 303.2L148.5 303.2L148.5 317.8Q148.5 319.6 147.5 320.7Z "/><defs><clipPath id="satori_bc-id-0-1"><rect x="0" y="441" width="1200" height="189"/></clipPath></defs><mask id="satori_om-id-0-1"><rect x="0" y="442" width="1200" height="188" fill="#fff"/><path width="1200" height="189" fill="none" stroke="#000" stroke-width="2" d="M0,441 A0,0 0 0 1 0,441 h1200 A0,0 0 0 1 1200,441"/></mask><path width="1200" height="189" clip-path="url(#satori_bc-id-0-1)" fill="none" stroke="#dbdbdb" stroke-width="2" d="M0,441 A0,0 0 0 1 0,441 h1200 A0,0 0 0 1 1200,441"/><mask id="satori_om-id-0-1-0"><rect x="40" y="482" width="292" height="108" fill="#fff"/></mask><clipPath id="satori_cp-id-0-1-0-0"><rect x="40" y="504" width="64" height="64"/></clipPath><mask id="satori_om-id-0-1-0-0"><rect x="40" y="504" width="64" height="64" fill="#fff"/></mask><image x="40" y="504" width="64" height="64" href="data:image/svg+xml;utf8,%3Csvg  xmlns=%22http://www.w3.org/2000/svg%22 width=%2264%22 height=%2264%22 viewBox=%220 0 128 128%22%3E%3Cpath fill=%22%23224d67%22 d=%22M22.5 14.8c2.9 1.3 99 44 99 44c2.7 1.2 2.9 3.1 2 12.4c-1 10.5-1.9 37.8-40.2 42.9c-24.6 3.2-55.9-4.3-70.9-27.2C-6 58.8 11 23.4 14.8 17.7c2.4-3.5 4.8-4.2 7.7-2.9%22%3E%3C/path%3E%3Cpath fill=%22%23f0f4c3%22 d=%22M121.5 58.8c-.3-.2-92-40.8-98.9-43.9C9.6 31.5-3.8 76 27.9 96.2c33.6 21.5 78.7-10.2 93.6-37.4%22%3E%3C/path%3E%3Cpath fill=%22%23f0f4c3%22 d=%22M117.7 57c-.3-.2-86.7-38.4-93.2-41.3c-12.2 15.5-23.9 59.1 5.7 78c31.4 20.2 73.6-11.2 87.5-36.7%22%3E%3C/path%3E%3Cpath fill=%22%23cb2a42%22 d=%22M56.2 37.6L19.5 48.2c-2.5.8-4.4 2.8-5 5.3c-1.9 8.5.8 23.3 8.9 29.8c3.5 2.7 8.6 1.8 10.8-2.1L58.5 41c1.3-1.7.5-4.2-2.3-3.4m14.3 2.9s14.6 30.1 16 33s6.3 4.7 9.9 2.8c10.7-5.6 15.5-12.4 19.2-20.2c-8.9-3.9-42.4-18.8-42.4-18.8c-2.4-1.1-4 .6-2.7 3.2m-8.6 1.9C60.3 45.1 39.5 81 37.6 84.1c-1.9 3.2-.7 7.5 2.7 9.2c12.3 6.5 30.9.4 39.6-7c2.2-1.9 4.5-5.1 3.2-8.2S68.9 44.6 67.8 42.3c-1.2-2.7-4.1-2.8-5.9.1%22%3E%3C/path%3E%3Cpath fill=%22%23f0f4c3%22 d=%22M52.2 42.2c-1.4.4-10.1 3-11.1 3.4c-1.4.5-2.2 1.7-1.9 2.5c.3.9 1.7 1.1 3.1.6c.8-.3 7.1-3.9 9.5-5.2c-3.1 2.4-10.2 9.4-11.1 10.3c-1.4 1.5-1.7 3.4-.8 4.3c1 .9 2.9.5 4.3-1c1.2-1.3 8.5-12.8 9.1-13.9s.4-1.4-1.1-1m10.1 16.4c0-2.2 1.4-10.3 1.8-12.3c.4-1.6 1.5-1.8 1.8.5s1.7 9.7 1.7 11.8s-1.2 3.3-2.7 3.3c-1.4 0-2.6-1.1-2.6-3.3M79.9 49c-1.2-1.8-3.3-4.9-4.1-6.1c-.7-1.2.1-2.1 1.8-.9s4 2.9 5.4 4c1.6 1.3 1.9 3 .8 4s-2.7.8-3.9-1%22%3E%3C/path%3E%3Cellipse cx=%2287.3%22 cy=%22103.12%22 fill=%22%23cb2a42%22 rx=%223.4%22 ry=%222.3%22 transform=%22rotate(-27.098 87.298 103.126)%22%3E%3C/ellipse%3E%3Cellipse cx=%2298.89%22 cy=%22103.82%22 fill=%22%23cb2a42%22 rx=%223.4%22 ry=%222.3%22 transform=%22rotate(-30.642 98.887 103.818)%22%3E%3C/ellipse%3E%3Cellipse cx=%22102.02%22 cy=%2293.8%22 fill=%22%23cb2a42%22 rx=%223.4%22 ry=%222.3%22 transform=%22rotate(-37.16 102.017 93.797)%22%3E%3C/ellipse%3E%3Cpath fill=%22%23cb2a42%22 d=%22M57.6 30.3c-8.3-3.7-24.4-10.7-29.6-13c-3.6 2.2-9.7 11.4-11.2 21.2c-.6 3.6 1.7 5.9 5.3 4.9c0 0 33.7-9.3 35.3-9.7c1.6-.5 2-2.6.2-3.4%22%3E%3C/path%3E%3C/svg%3E" preserveAspectRatio="none" clip-path="url(#satori_cp-id-0-1-0-0)" mask="url(#satori_om-id-0-1-0-0)"/><mask id="satori_om-id-0-1-0-0-0"><rect x="40" y="504" width="0" height="64" fill="#fff"/></mask><mask id="satori_om-id-0-1-0-0-1"><rect x="40" y="504" width="0" height="64" fill="#fff"/></mask><mask id="satori_om-id-0-1-0-0-2"><rect x="40" y="504" width="0" height="64" fill="#fff"/></mask><mask id="satori_om-id-0-1-0-0-3"><rect x="40" y="504" width="0" height="64" fill="#fff"/></mask><mask id="satori_om-id-0-1-0-0-4"><rect x="40" y="504" width="0" height="64" fill="#fff"/></mask><mask id="satori_om-id-0-1-0-0-5"><rect x="40" y="504" width="0" height="64" fill="#fff"/></mask><mask id="satori_om-id-0-1-0-0-6"><rect x="40" y="504" width="0" height="64" fill="#fff"/></mask><mask id="satori_om-id-0-1-0-0-7"><rect x="40" y="504" width="0" height="64" fill="#fff"/></mask><mask id="satori_om-id-0-1-0-0-8"><rect x="40" y="504" width="0" height="64" fill="#fff"/></mask><mask id="satori_om-id-0-1-0-1"><rect x="116" y="512" width="216" height="48" fill="#fff"/></mask><path fill="#545454" d="M121.1 553.5L121.1 553.5Q119.4 553.5 118.4 552.6Q117.5 551.7 117.5 550.2L117.5 550.2Q117.5 549.3 117.9 547.9L117.9 547.9L127.2 522.8Q127.9 520.7 129.2 519.7Q130.5 518.8 132.5 518.8L132.5 518.8Q134.6 518.8 135.9 519.7Q137.2 520.7 137.9 522.8L137.9 522.8L147.2 547.9Q147.6 549.2 147.6 550.2L147.6 550.2Q147.6 551.6 146.6 552.6Q145.6 553.5 144.1 553.5L144.1 553.5Q142.6 553.5 141.7 552.8Q140.9 552.1 140.4 550.4L140.4 550.4L138.6 545.0L126.4 545.0L124.6 550.3Q124.2 552.0 123.3 552.8Q122.5 553.5 121.1 553.5ZM132.4 525.7L128.0 539.6L137 539.6L132.5 525.7L132.4 525.7ZM159.1 552.6Q158.2 553.6 156.6 553.6Q155.0 553.6 154.1 552.6Q153.2 551.7 153.2 550.0L153.2 550.0L153.2 533.1L151.9 533.1Q150.8 533.1 150.1 532.4Q149.4 531.7 149.4 530.6Q149.4 529.4 150.1 528.7Q150.8 528.1 151.9 528.1L151.9 528.1L153.2 528.1L153.2 526.2Q153.2 522.5 155.0 520.7Q156.7 519.0 160.3 518.9L160.3 518.9Q163.0 518.9 164.2 519.7Q165.5 520.4 165.5 521.7L165.5 521.7Q165.5 523.1 164.1 523.5L164.1 523.5Q163.5 523.7 162.8 523.7L162.8 523.7Q161.2 523.7 160.5 524.4Q159.9 525.1 159.9 526.5L159.9 526.5L159.9 528.1L162.7 528.1Q163.8 528.1 164.5 528.7Q165.2 529.4 165.2 530.6Q165.2 531.7 164.5 532.4Q163.8 533.1 162.7 533.1L162.7 533.1L160.0 533.1L160.0 550.0Q160.0 551.7 159.1 552.6ZM170.3 546.6L170.3 546.6L170.3 533.1L168.9 533.1Q167.7 533.1 167.0 532.4Q166.3 531.7 166.3 530.5Q166.3 529.3 167.0 528.6Q167.7 527.9 168.9 527.9L168.9 527.9L170.3 527.9L170.3 525.1Q170.3 523.5 171.2 522.5Q172.1 521.6 173.7 521.6Q175.3 521.6 176.2 522.5Q177.1 523.5 177.1 525.1L177.1 525.1L177.1 527.9L179.5 527.9Q180.7 527.9 181.4 528.6Q182.1 529.3 182.1 530.5Q182.1 531.7 181.4 532.4Q180.7 533.1 179.5 533.1L179.5 533.1L177.1 533.1L177.1 545.1Q177.1 546.5 177.6 547.1Q178.1 547.7 179.2 547.8L179.2 547.8L179.6 547.8Q180.9 548.0 181.6 548.5Q182.2 549.1 182.2 550.3L182.2 550.3Q182.2 551.8 180.9 552.6Q179.6 553.3 177.4 553.3L177.4 553.3L177.1 553.3Q170.3 553.3 170.3 546.6ZM197.0 553.6L197.0 553.6Q191.2 553.6 187.9 550.2Q184.6 546.7 184.6 540.6L184.6 540.6Q184.6 534.5 187.9 531.0Q191.1 527.4 196.7 527.4L196.7 527.4Q202.0 527.4 205.3 530.7Q208.6 533.9 208.6 539.1L208.6 539.1Q208.6 540.5 207.9 541.3Q207.1 542.1 205.6 542.1L205.6 542.1L191.3 542.1L191.3 542.4Q191.3 545.2 192.9 546.9Q194.4 548.5 197.0 548.5L197.0 548.5Q198.9 548.5 200.3 547.8Q201.6 547.2 203.0 545.5L203.0 545.5Q204.0 544.5 205.3 544.5L205.3 544.5Q206.4 544.5 207.2 545.2Q207.9 545.9 207.9 547.0L207.9 547.0Q207.9 547.8 207.5 548.7L207.5 548.7Q206.2 551 203.4 552.3Q200.7 553.6 197.0 553.6ZM191.4 537.9L191.4 537.9L202.0 537.9Q201.9 535.4 200.5 533.9Q199.0 532.5 196.8 532.5Q194.5 532.5 193.1 534.0Q191.6 535.5 191.4 537.9ZM215.6 553.6L215.6 553.6Q214.0 553.6 213.1 552.6Q212.1 551.7 212.1 550.0L212.1 550.0L212.1 530.9Q212.1 529.3 213.0 528.3Q213.9 527.4 215.4 527.4L215.4 527.4Q216.9 527.4 217.8 528.3Q218.7 529.3 218.7 530.9L218.7 530.9L218.7 532.5L218.8 532.5Q219.3 530.2 220.7 528.9Q222.1 527.5 224.0 527.5L224.0 527.5Q225.4 527.5 226.2 528.2L226.2 528.2Q227.2 528.9 227.2 530.7L227.2 530.7Q227.2 532.3 226.2 533.2L226.2 533.2Q225.2 534.0 223.2 534.1L223.2 534.1Q221.0 534.1 220.0 535.3Q219.0 536.5 219.0 538.8L219.0 538.8L219.0 550.0Q219.0 551.7 218.1 552.6Q217.2 553.6 215.6 553.6ZM242.6 553.6L242.6 553.6Q237.5 553.6 234.1 551.8Q230.8 550.0 229.7 547.1L229.7 547.1Q229.4 546.1 229.4 545.2L229.4 545.2Q229.4 543.8 230.2 543.0Q231.1 542.1 232.5 542.1L232.5 542.1Q233.6 542.1 234.3 542.6Q235.1 543.1 235.7 544.2L235.7 544.2Q236.5 546.1 238.4 547.0Q240.2 547.9 242.7 547.9L242.7 547.9Q245.6 547.9 247.3 546.7Q249.1 545.5 249.1 543.6L249.1 543.6Q249.1 541.9 247.8 540.9Q246.4 539.9 243.3 539.3L243.3 539.3L239.7 538.6Q229.6 536.6 229.6 528.9L229.6 528.9Q229.6 525.9 231.3 523.5Q232.9 521.2 235.9 519.9Q238.8 518.7 242.5 518.7L242.5 518.7Q247.2 518.7 250.5 520.5Q253.8 522.4 254.9 525.7L254.9 525.7Q255.1 526.4 255.1 527.2L255.1 527.2Q255.1 528.5 254.3 529.3Q253.5 530.1 252.1 530.1L252.1 530.1Q250.9 530.1 250.1 529.6Q249.4 529.1 248.8 528.0L248.8 528.0Q247.2 524.4 242.5 524.4L242.5 524.4Q239.9 524.4 238.3 525.5Q236.7 526.6 236.7 528.5L236.7 528.5Q236.7 530.1 238.1 531.1Q239.4 532.1 242.4 532.7L242.4 532.7L245.9 533.4Q251.3 534.5 253.7 536.7Q256.2 539.0 256.2 542.8L256.2 542.8Q256.2 547.8 252.5 550.7Q248.9 553.6 242.6 553.6ZM266.0 552.6Q265.0 553.6 263.5 553.6Q261.9 553.6 261.0 552.6Q260.1 551.7 260.1 550.0L260.1 550.0L260.1 522.2Q260.1 520.6 261.0 519.7Q261.9 518.7 263.4 518.7L263.4 518.7Q265.0 518.7 265.9 519.7Q266.8 520.6 266.8 522.2L266.8 522.2L266.8 532.4L266.9 532.4Q267.9 530.0 270.0 528.7Q272 527.5 274.8 527.5L274.8 527.5Q279.0 527.5 281.3 530.0Q283.6 532.5 283.6 536.9L283.6 536.9L283.6 550.0Q283.6 551.7 282.7 552.6Q281.7 553.6 280.2 553.6Q278.6 553.6 277.7 552.6Q276.8 551.7 276.8 550.0L276.8 550.0L276.8 538.3Q276.8 535.9 275.6 534.5Q274.3 533.1 272.0 533.1L272.0 533.1Q269.7 533.1 268.3 534.7Q266.9 536.2 266.9 538.7L266.9 538.7L266.9 550.0Q266.9 551.7 266.0 552.6ZM294.1 523.8Q293.0 524.8 291.5 524.8Q290.0 524.8 288.9 523.8Q287.8 522.8 287.8 521.3L287.8 521.3Q287.8 519.8 288.9 518.8Q290.0 517.7 291.5 517.7Q293.0 517.7 294.1 518.8Q295.2 519.8 295.2 521.3L295.2 521.3Q295.2 522.8 294.1 523.8ZM294.0 552.6Q293.1 553.6 291.5 553.6Q289.9 553.6 289.0 552.6Q288.1 551.7 288.1 550.0L288.1 550.0L288.1 531.0Q288.1 529.3 289.0 528.4Q289.9 527.4 291.5 527.4Q293.1 527.4 294.0 528.4Q294.9 529.3 294.9 531.0L294.9 531.0L294.9 550.0Q294.9 551.7 294.0 552.6ZM307.2 552.6Q306.3 553.6 304.7 553.6Q303.1 553.6 302.2 552.6Q301.3 551.7 301.3 550.0L301.3 550.0L301.3 533.1L300.0 533.1Q298.9 533.1 298.2 532.4Q297.5 531.7 297.5 530.6Q297.5 529.4 298.2 528.7Q298.9 528.1 300.0 528.1L300.0 528.1L301.3 528.1L301.3 526.2Q301.3 522.5 303.1 520.7Q304.9 519.0 308.5 518.9L308.5 518.9Q311.1 518.9 312.4 519.7Q313.6 520.4 313.6 521.7L313.6 521.7Q313.6 523.1 312.2 523.5L312.2 523.5Q311.6 523.7 310.9 523.7L310.9 523.7Q309.4 523.7 308.7 524.4Q308.0 525.1 308.0 526.5L308.0 526.5L308.0 528.1L310.9 528.1Q312.0 528.1 312.7 528.7Q313.4 529.4 313.4 530.6Q313.4 531.7 312.7 532.4Q312.0 533.1 310.9 533.1L310.9 533.1L308.1 533.1L308.1 550.0Q308.1 551.7 307.2 552.6ZM318.4 546.6L318.4 546.6L318.4 533.1L317.1 533.1Q315.9 533.1 315.1 532.4Q314.4 531.7 314.4 530.5Q314.4 529.3 315.1 528.6Q315.9 527.9 317.1 527.9L317.1 527.9L318.4 527.9L318.4 525.1Q318.4 523.5 319.3 522.5Q320.2 521.6 321.8 521.6Q323.4 521.6 324.3 522.5Q325.2 523.5 325.2 525.1L325.2 525.1L325.2 527.9L327.6 527.9Q328.9 527.9 329.6 528.6Q330.3 529.3 330.3 530.5Q330.3 531.7 329.6 532.4Q328.9 533.1 327.6 533.1L327.6 533.1L325.2 533.1L325.2 545.1Q325.2 546.5 325.7 547.1Q326.2 547.7 327.3 547.8L327.3 547.8L327.8 547.8Q329.1 548.0 329.7 548.5Q330.4 549.1 330.4 550.3L330.4 550.3Q330.4 551.8 329.0 552.6Q327.7 553.3 325.5 553.3L325.5 553.3L325.3 553.3Q318.4 553.3 318.4 546.6Z "/><mask id="satori_om-id-0-1-1"><rect x="924" y="524" width="236" height="36" fill="#fff"/></mask><path fill="#8e8e8e" d="M927.9 552.6Q927.5 552.9 927.0 552.9Q926.4 552.9 926.1 552.6Q925.8 552.2 925.8 551.7L925.8 551.7L925.8 532.6Q925.8 532.0 926.1 531.6Q926.5 531.3 927.1 531.3Q927.6 531.3 928.0 531.6Q928.3 532.0 928.3 532.6L928.3 532.6L928.3 540.0L928.4 540.0Q929.1 538.7 930.4 537.9Q931.7 537.2 933.3 537.2L933.3 537.2Q936.2 537.2 937.9 539.3Q939.7 541.5 939.7 545.0L939.7 545.0Q939.7 548.6 937.9 550.8Q936.2 552.9 933.2 552.9L933.2 552.9Q931.6 552.9 930.3 552.2Q929.0 551.4 928.3 550.1L928.3 550.1L928.2 550.1L928.2 551.7Q928.2 552.2 927.9 552.6ZM932.7 550.7L932.7 550.7Q934.8 550.7 935.9 549.2Q937.1 547.7 937.1 545.0L937.1 545.0Q937.1 542.5 935.9 540.9Q934.8 539.4 932.7 539.4L932.7 539.4Q930.8 539.4 929.6 541.0Q928.3 542.5 928.3 545.0L928.3 545.0Q928.3 547.6 929.6 549.1Q930.8 550.7 932.7 550.7ZM943.8 558.4L943.8 558.4Q942.9 558.4 942.4 558.0Q941.9 557.7 941.9 557.1L941.9 557.1Q941.9 556.7 942.1 556.4Q942.4 556.2 942.9 556.2L942.9 556.2Q943.1 556.2 943.3 556.2Q943.5 556.2 943.7 556.2L943.7 556.2Q945.4 556.2 946.2 553.7L946.2 553.7L946.6 552.7L941.3 539.0Q941.2 538.6 941.2 538.3L941.2 538.3Q941.2 537.8 941.6 537.5Q941.9 537.2 942.5 537.2L942.5 537.2Q943.4 537.2 943.7 538.1L943.7 538.1L947.9 550.1L948.0 550.1L952.2 538.1Q952.3 537.6 952.6 537.4Q952.9 537.2 953.4 537.2L953.4 537.2Q953.9 537.2 954.3 537.5Q954.6 537.8 954.6 538.3L954.6 538.3Q954.6 538.6 954.5 539.0L954.5 539.0L948.9 553.7Q947.9 556.4 946.8 557.4Q945.7 558.4 943.8 558.4Z M965.7 552.5Q965.3 552.9 964.7 552.9Q964.1 552.9 963.8 552.5Q963.4 552.1 963.4 551.5L963.4 551.5L963.4 532.9Q963.4 532.3 963.8 531.9Q964.1 531.5 964.7 531.5L964.7 531.5L970.9 531.5Q973.9 531.5 975.8 533.4Q977.7 535.3 977.7 538.3L977.7 538.3Q977.7 541.3 975.8 543.2Q973.9 545.1 970.9 545.1L970.9 545.1L966.0 545.1L966.0 551.5Q966.0 552.1 965.7 552.5ZM966.0 533.9L966.0 542.8L970.3 542.8Q972.5 542.8 973.8 541.6Q975.0 540.4 975.0 538.3Q975.0 536.2 973.8 535.0Q972.5 533.9 970.3 533.9L970.3 533.9L966.0 533.9ZM984.8 552.9L984.8 552.9Q982.5 552.9 981.1 551.7Q979.7 550.4 979.7 548.4L979.7 548.4Q979.7 546.4 981.2 545.2Q982.6 544.1 985.2 543.9L985.2 543.9L989.6 543.7L989.6 542.4Q989.6 541.0 988.7 540.2Q987.9 539.4 986.3 539.4L986.3 539.4Q985.0 539.4 984.1 539.9Q983.3 540.4 982.6 541.5L982.6 541.5Q982.3 542.1 981.6 542.1L981.6 542.1Q981.1 542.1 980.8 541.8Q980.5 541.5 980.5 541.0Q980.5 540.5 980.8 539.9L980.8 539.9Q981.4 538.7 982.9 537.9Q984.5 537.2 986.3 537.2L986.3 537.2Q989.0 537.2 990.6 538.5Q992.2 539.9 992.2 542.1L992.2 542.1L992.2 551.6Q992.2 552.2 991.8 552.6Q991.5 552.9 991.0 552.9L991.0 552.9Q990.4 552.9 990.1 552.6Q989.7 552.2 989.7 551.6L989.7 551.6L989.7 550.0L989.7 550.0Q989.0 551.3 987.7 552.1Q986.3 552.9 984.8 552.9ZM985.3 550.8L985.3 550.8Q987.1 550.8 988.4 549.6Q989.6 548.5 989.6 546.9L989.6 546.9L989.6 545.6L985.5 545.9Q984.0 546.0 983.1 546.6Q982.3 547.3 982.3 548.4Q982.3 549.4 983.1 550.1Q984.0 550.8 985.3 550.8ZM996.2 549.1L996.2 549.1L996.2 539.5L994.9 539.5Q994.4 539.5 994.1 539.3Q993.8 539.0 993.8 538.5L993.8 538.5Q993.8 538.0 994.1 537.7Q994.4 537.4 994.9 537.4L994.9 537.4L996.2 537.4L996.2 534.8Q996.2 534.2 996.6 533.8Q996.9 533.5 997.5 533.5Q998.0 533.5 998.4 533.8Q998.8 534.2 998.8 534.8L998.8 534.8L998.8 537.4L1000.7 537.4Q1001.3 537.4 1001.6 537.7Q1001.9 538.0 1001.9 538.5L1001.9 538.5Q1001.9 539.0 1001.6 539.3Q1001.3 539.5 1000.7 539.5L1000.7 539.5L998.8 539.5L998.8 548.6Q998.8 549.6 999.2 550.0Q999.6 550.5 1000.5 550.6L1000.5 550.6L1000.7 550.6Q1001.9 550.7 1001.9 551.6L1001.9 551.6Q1001.9 552.2 1001.5 552.5Q1001.1 552.8 1000.1 552.8L1000.1 552.8L999.9 552.8Q996.2 552.8 996.2 549.1ZM1006.6 552.5Q1006.3 552.9 1005.7 552.9Q1005.2 552.9 1004.8 552.5Q1004.4 552.2 1004.4 551.6L1004.4 551.6L1004.4 538.5Q1004.4 537.9 1004.8 537.5Q1005.1 537.2 1005.6 537.2Q1006.2 537.2 1006.5 537.5Q1006.8 537.9 1006.8 538.5L1006.8 538.5L1006.8 539.9L1006.9 539.9Q1007.2 538.7 1008.2 537.9Q1009.2 537.2 1010.4 537.2L1010.4 537.2Q1011.2 537.2 1011.6 537.5L1011.6 537.5Q1011.9 537.8 1011.9 538.4L1011.9 538.4Q1011.9 539.0 1011.5 539.3L1011.5 539.3Q1011.1 539.6 1010.3 539.6L1010.3 539.6Q1008.6 539.6 1007.8 540.6Q1007.0 541.6 1007.0 543.2L1007.0 543.2L1007.0 551.6Q1007.0 552.2 1006.6 552.5ZM1015.1 534.9L1015.1 534.9Q1014.4 534.9 1014.0 534.4Q1013.5 533.9 1013.5 533.3L1013.5 533.3Q1013.5 532.6 1014.0 532.2Q1014.4 531.7 1015.1 531.7L1015.1 531.7Q1015.7 531.7 1016.2 532.2Q1016.7 532.6 1016.7 533.3L1016.7 533.3Q1016.7 533.9 1016.2 534.4Q1015.7 534.9 1015.1 534.9ZM1016.0 552.5Q1015.6 552.9 1015.1 552.9Q1014.5 552.9 1014.2 552.5Q1013.8 552.2 1013.8 551.6L1013.8 551.6L1013.8 538.5Q1013.8 537.9 1014.2 537.5Q1014.5 537.2 1015.1 537.2Q1015.6 537.2 1016.0 537.5Q1016.4 537.9 1016.4 538.5L1016.4 538.5L1016.4 551.6Q1016.4 552.2 1016.0 552.5ZM1026.1 552.9L1026.1 552.9Q1022.9 552.9 1021.0 550.8Q1019.1 548.7 1019.1 545.1Q1019.1 541.5 1021.0 539.3Q1022.9 537.2 1026.1 537.2L1026.1 537.2Q1028.2 537.2 1029.9 538.2Q1031.6 539.3 1032.0 540.9L1032.0 540.9Q1032.1 541.2 1032.1 541.4L1032.1 541.4Q1032.1 542.0 1031.8 542.3Q1031.5 542.6 1031.0 542.6L1031.0 542.6Q1030.6 542.6 1030.3 542.4Q1030.1 542.2 1029.8 541.7L1029.8 541.7Q1028.6 539.4 1026.1 539.4L1026.1 539.4Q1024.1 539.4 1022.9 541.0Q1021.6 542.5 1021.6 545.0L1021.6 545.0Q1021.6 547.6 1022.9 549.2Q1024.1 550.7 1026.1 550.7L1026.1 550.7Q1027.4 550.7 1028.3 550.1Q1029.2 549.6 1029.8 548.4L1029.8 548.4Q1030.1 547.9 1030.3 547.7Q1030.6 547.5 1031.0 547.5L1031.0 547.5Q1031.5 547.5 1031.8 547.8Q1032.1 548.2 1032.1 548.7L1032.1 548.7Q1032.1 548.9 1032.0 549.3L1032.0 549.3Q1031.4 550.9 1029.8 551.9Q1028.2 552.9 1026.1 552.9ZM1041.2 552.9L1041.2 552.9Q1037.8 552.9 1036.0 550.9Q1034.1 548.8 1034.1 545.1L1034.1 545.1Q1034.1 541.5 1036.0 539.3Q1037.8 537.2 1041.0 537.2L1041.0 537.2Q1043.9 537.2 1045.8 539.1Q1047.6 541.1 1047.6 544.3L1047.6 544.3Q1047.6 544.9 1047.3 545.3Q1046.9 545.7 1046.2 545.7L1046.2 545.7L1036.7 545.7Q1036.7 548.0 1037.9 549.4Q1039.1 550.7 1041.1 550.7L1041.1 550.7Q1042.5 550.7 1043.4 550.2Q1044.3 549.6 1045.2 548.3L1045.2 548.3Q1045.6 547.8 1046.2 547.8L1046.2 547.8Q1046.7 547.8 1047.0 548.1Q1047.3 548.4 1047.3 548.9L1047.3 548.9Q1047.3 549.2 1047.1 549.7L1047.1 549.7Q1046.4 551.2 1044.8 552.1Q1043.3 552.9 1041.2 552.9ZM1036.7 543.7L1036.7 543.7L1045.0 543.7Q1045.0 541.8 1043.8 540.6Q1042.7 539.4 1041.0 539.4L1041.0 539.4Q1039.2 539.4 1038.0 540.6Q1036.8 541.8 1036.7 543.7Z M1059.0 552.5Q1058.7 552.9 1058.1 552.9Q1057.5 552.9 1057.1 552.5Q1056.7 552.1 1056.7 551.5L1056.7 551.5L1056.7 532.7Q1056.7 532.1 1057.1 531.7Q1057.5 531.3 1058.1 531.3Q1058.7 531.3 1059.0 531.7Q1059.4 532.1 1059.4 532.7L1059.4 532.7L1059.4 541.8L1059.5 541.8L1068.9 531.8Q1069.4 531.3 1070.0 531.3L1070.0 531.3Q1070.5 531.3 1070.9 531.7Q1071.2 532.0 1071.2 532.5L1071.2 532.5Q1071.2 533.0 1070.9 533.3L1070.9 533.3L1063.6 540.9L1071.7 550.6Q1072.1 551.1 1072.1 551.6L1072.1 551.6Q1072.1 552.2 1071.7 552.5Q1071.3 552.9 1070.8 552.9L1070.8 552.9Q1070.1 552.9 1069.6 552.2L1069.6 552.2L1061.7 542.8L1059.4 545.3L1059.4 551.5Q1059.4 552.1 1059.0 552.5ZM1081.2 552.9L1081.2 552.9Q1077.8 552.9 1075.9 550.9Q1074.1 548.8 1074.1 545.1L1074.1 545.1Q1074.1 541.5 1075.9 539.3Q1077.8 537.2 1081.0 537.2L1081.0 537.2Q1083.9 537.2 1085.8 539.1Q1087.6 541.1 1087.6 544.3L1087.6 544.3Q1087.6 544.9 1087.2 545.3Q1086.9 545.7 1086.2 545.7L1086.2 545.7L1076.7 545.7Q1076.7 548.0 1077.9 549.4Q1079.1 550.7 1081.1 550.7L1081.1 550.7Q1082.5 550.7 1083.4 550.2Q1084.3 549.6 1085.2 548.3L1085.2 548.3Q1085.6 547.8 1086.2 547.8L1086.2 547.8Q1086.7 547.8 1087.0 548.1Q1087.3 548.4 1087.3 548.9L1087.3 548.9Q1087.3 549.2 1087.1 549.7L1087.1 549.7Q1086.4 551.2 1084.8 552.1Q1083.3 552.9 1081.2 552.9ZM1076.7 543.7L1076.7 543.7L1085.0 543.7Q1084.9 541.8 1083.8 540.6Q1082.7 539.4 1080.9 539.4L1080.9 539.4Q1079.1 539.4 1078.0 540.6Q1076.8 541.8 1076.7 543.7ZM1092.4 552.5Q1092.0 552.9 1091.4 552.9Q1090.9 552.9 1090.5 552.5Q1090.2 552.2 1090.2 551.6L1090.2 551.6L1090.2 538.5Q1090.2 537.9 1090.5 537.5Q1090.8 537.2 1091.4 537.2Q1091.9 537.2 1092.2 537.5Q1092.6 537.9 1092.6 538.5L1092.6 538.5L1092.6 539.9L1092.6 539.9Q1093.3 538.6 1094.5 537.9Q1095.8 537.2 1097.5 537.2L1097.5 537.2Q1100.0 537.2 1101.3 538.7Q1102.7 540.2 1102.7 542.8L1102.7 542.8L1102.7 551.6Q1102.7 552.2 1102.4 552.5Q1102.0 552.9 1101.5 552.9Q1100.9 552.9 1100.6 552.5Q1100.2 552.2 1100.2 551.6L1100.2 551.6L1100.2 543.2Q1100.2 541.4 1099.3 540.4Q1098.4 539.4 1096.7 539.4L1096.7 539.4Q1094.9 539.4 1093.8 540.6Q1092.7 541.8 1092.7 543.7L1092.7 543.7L1092.7 551.6Q1092.7 552.2 1092.4 552.5ZM1108.2 552.5Q1107.8 552.9 1107.3 552.9Q1106.7 552.9 1106.3 552.5Q1106.0 552.2 1106.0 551.6L1106.0 551.6L1106.0 538.5Q1106.0 537.9 1106.3 537.5Q1106.7 537.2 1107.2 537.2Q1107.7 537.2 1108.0 537.5Q1108.4 537.9 1108.4 538.5L1108.4 538.5L1108.4 539.9L1108.4 539.9Q1109.0 538.6 1110.1 537.9Q1111.3 537.2 1112.8 537.2L1112.8 537.2Q1114.3 537.2 1115.4 537.9Q1116.5 538.7 1117.0 540.1L1117.0 540.1L1117.1 540.1Q1117.7 538.7 1119.0 537.9Q1120.3 537.2 1121.9 537.2L1121.9 537.2Q1124.1 537.2 1125.5 538.5Q1126.8 539.9 1126.8 542.1L1126.8 542.1L1126.8 551.6Q1126.8 552.2 1126.5 552.5Q1126.1 552.9 1125.6 552.9Q1125.0 552.9 1124.6 552.5Q1124.3 552.2 1124.3 551.6L1124.3 551.6L1124.3 542.7Q1124.3 541.2 1123.5 540.3Q1122.6 539.4 1121.1 539.4Q1119.6 539.4 1118.6 540.4Q1117.7 541.4 1117.7 543.0L1117.7 543.0L1117.7 551.6Q1117.7 552.2 1117.3 552.5Q1117.0 552.9 1116.4 552.9Q1115.8 552.9 1115.5 552.5Q1115.1 552.2 1115.1 551.6L1115.1 551.6L1115.1 542.5Q1115.1 541.1 1114.3 540.2Q1113.4 539.4 1112.0 539.4L1112.0 539.4Q1110.5 539.4 1109.5 540.5Q1108.5 541.5 1108.5 543.1L1108.5 543.1L1108.5 551.6Q1108.5 552.2 1108.2 552.5ZM1136.4 552.9L1136.4 552.9Q1133.2 552.9 1131.3 550.8Q1129.3 548.7 1129.3 545.0Q1129.3 541.4 1131.3 539.3Q1133.2 537.2 1136.4 537.2L1136.4 537.2Q1139.6 537.2 1141.5 539.3Q1143.4 541.4 1143.4 545.0L1143.4 545.0Q1143.4 548.7 1141.5 550.8Q1139.6 552.9 1136.4 552.9ZM1133.1 549.2Q1134.3 550.7 1136.4 550.7Q1138.4 550.7 1139.6 549.2Q1140.8 547.7 1140.8 545.0Q1140.8 542.4 1139.6 540.9Q1138.4 539.4 1136.4 539.4Q1134.3 539.4 1133.1 540.9Q1131.9 542.4 1131.9 545.0Q1131.9 547.7 1133.1 549.2ZM1152.5 535.6L1152.5 535.6Q1152.1 535.6 1151.9 535.4Q1151.6 535.2 1151.6 534.8Q1151.6 534.5 1151.8 534.2L1151.8 534.2L1154.0 531.1Q1154.3 530.6 1154.6 530.5Q1154.8 530.3 1155.1 530.3L1155.1 530.3Q1155.6 530.3 1155.9 530.6Q1156.2 530.9 1156.2 531.3L1156.2 531.3Q1156.2 531.7 1155.9 532.1L1155.9 532.1L1153.4 535.1Q1153.0 535.6 1152.5 535.6ZM1152.4 552.9L1152.4 552.9Q1149.0 552.9 1147.1 550.9Q1145.3 548.8 1145.3 545.1L1145.3 545.1Q1145.3 541.5 1147.1 539.3Q1149.0 537.2 1152.2 537.2L1152.2 537.2Q1155.1 537.2 1156.9 539.1Q1158.8 541.1 1158.8 544.3L1158.8 544.3Q1158.8 544.9 1158.4 545.3Q1158.1 545.7 1157.4 545.7L1157.4 545.7L1147.9 545.7Q1147.9 548.0 1149.1 549.4Q1150.2 550.7 1152.3 550.7L1152.3 550.7Q1153.6 550.7 1154.6 550.2Q1155.5 549.6 1156.4 548.3L1156.4 548.3Q1156.8 547.8 1157.3 547.8L1157.3 547.8Q1157.9 547.8 1158.2 548.1Q1158.5 548.4 1158.5 548.9L1158.5 548.9Q1158.5 549.2 1158.3 549.7L1158.3 549.7Q1157.6 551.2 1156.0 552.1Q1154.5 552.9 1152.4 552.9ZM1147.9 543.7L1147.9 543.7L1156.2 543.7Q1156.1 541.8 1155.0 540.6Q1153.9 539.4 1152.1 539.4L1152.1 539.4Q1150.3 539.4 1149.2 540.6Q1148.0 541.8 1147.9 543.7Z "/></svg>