<svg width="1200" height="630" viewBox="0 0 1200 630" xmlns="http://www.w3.org/2000/svg"><mask id="satori_om-id"><rect x="0" y="0" width="1200" height="630" fill="#fff"/></mask><mask id="satori_om-id-0"><rect x="0" y="0" width="1200" height="630" fill="#fff"/></mask><rect x="0" y="0" width="1200" height="630" fill="#f2f2f2"/><mask id="satori_om-id-0-0"><rect x="0" y="0" width="1200" height="441" fill="#fff"/></mask><mask id="satori_om-id-0-0-0"><rect x="40" y="95" width="1120" height="36" fill="#fff"/></mask><path fill="#8e8e8e" d="M49.1 123.5Q48.6 123.9 47.9 123.9Q47.1 123.9 46.7 123.5Q46.2 123.1 46.0 122.3L46.0 122.3L41.1 104.8Q41.0 104.2 41.0 103.8L41.0 103.8Q41.0 103.1 41.4 102.7Q41.8 102.3 42.6 102.3L42.6 102.3Q43.9 102.3 44.2 103.7L44.2 103.7L48.0 119.1L48.1 119.1L52.2 103.9Q52.5 103.1 52.9 102.7Q53.3 102.3 54.1 102.3L54.1 102.3Q54.8 102.3 55.3 102.7Q55.7 103.1 55.9 103.9L55.9 103.9L60.1 119.1L60.2 119.1L64.0 103.7Q64.3 102.3 65.6 102.3L65.6 102.3Q66.3 102.3 66.8 102.7Q67.2 103.1 67.2 103.8L67.2 103.8Q67.2 104.2 67.1 104.8L67.1 104.8L62.2 122.3Q61.9 123.1 61.5 123.5Q61.0 123.9 60.3 123.9L60.3 123.9Q59.5 123.9 59.1 123.5Q58.6 123.2 58.4 122.3L58.4 122.3L54.2 107.7L54.0 107.7L49.8 122.3Q49.6 123.1 49.1 123.5ZM76.4 124.0L76.4 124.0Q72.9 124.0 71.0 121.9Q69.0 119.8 69.0 116.0L69.0 116.0Q69.0 112.4 71.0 110.2Q72.9 108.0 76.2 108.0L76.2 108.0Q79.3 108.0 81.2 110.0Q83.1 112.0 83.1 115.1L83.1 115.1Q83.1 115.9 82.7 116.3Q82.3 116.8 81.6 116.8L81.6 116.8L72.2 116.8L72.2 116.8Q72.2 118.9 73.3 120.2Q74.5 121.4 76.3 121.4L76.3 121.4Q77.6 121.4 78.5 120.9Q79.4 120.4 80.3 119.2L80.3 119.2Q80.8 118.6 81.4 118.6L81.4 118.6Q82.0 118.6 82.4 119.0Q82.8 119.3 82.8 119.9L82.8 119.9Q82.8 120.3 82.5 120.8L82.5 120.8Q81.8 122.3 80.2 123.1Q78.6 124.0 76.4 124.0ZM72.3 114.5L72.3 114.5L80.0 114.5Q79.9 112.7 78.9 111.6Q77.8 110.5 76.2 110.5L76.2 110.5Q74.5 110.5 73.5 111.6Q72.4 112.7 72.3 114.5ZM91.4 123.9L91.4 123.9Q88.4 123.9 86.7 121.8Q84.9 119.6 84.9 116.0Q84.9 112.3 86.6 110.2Q88.4 108.0 91.3 108.0L91.3 108.0Q93.0 108.0 94.2 108.8Q95.5 109.5 96.2 110.8L96.2 110.8L96.2 110.8L96.2 103.9Q96.2 103.1 96.7 102.7Q97.1 102.2 97.8 102.2L97.8 102.2Q98.5 102.2 99.0 102.7Q99.4 103.2 99.4 103.9L99.4 103.9L99.4 122.4Q99.4 123.1 99.0 123.5Q98.5 123.9 97.8 123.9L97.8 123.9Q97.1 123.9 96.7 123.5Q96.2 123.1 96.2 122.4L96.2 122.4L96.2 120.9L96.2 120.9Q95.6 122.3 94.3 123.1Q93.1 123.9 91.4 123.9ZM92.2 121.2L92.2 121.2Q94.0 121.2 95.1 119.8Q96.3 118.4 96.3 116.0L96.3 116.0Q96.3 113.6 95.1 112.1Q94.0 110.7 92.2 110.7L92.2 110.7Q90.3 110.7 89.2 112.1Q88.1 113.5 88.1 116.0L88.1 116.0Q88.1 118.4 89.2 119.8Q90.3 121.2 92.2 121.2ZM104.2 123.9L104.2 123.9Q103.5 123.9 103.1 123.5Q102.6 123.0 102.6 122.3L102.6 122.3L102.6 109.6Q102.6 108.8 103.0 108.4Q103.5 108.0 104.1 108.0Q104.8 108.0 105.3 108.4Q105.7 108.9 105.7 109.6L105.7 109.6L105.7 110.8L105.8 110.8Q107.1 108.0 110.6 108.0L110.6 108.0Q113.1 108.0 114.5 109.5Q115.9 111.0 115.9 113.7L115.9 113.7L115.9 122.3Q115.9 123.0 115.5 123.5Q115.0 123.9 114.3 123.9L114.3 123.9Q113.6 123.9 113.2 123.5Q112.7 123.0 112.7 122.3L112.7 122.3L112.7 114.3Q112.7 112.5 111.9 111.6Q111.1 110.7 109.5 110.7L109.5 110.7Q107.8 110.7 106.8 111.8Q105.8 112.9 105.8 114.7L105.8 114.7L105.8 122.3Q105.8 123.0 105.4 123.5Q104.9 123.9 104.2 123.9ZM125.6 124.0L125.6 124.0Q122.2 124.0 120.2 121.9Q118.3 119.8 118.3 116.0L118.3 116.0Q118.3 112.4 120.2 110.2Q122.2 108.0 125.4 108.0L125.4 108.0Q128.5 108.0 130.4 110.0Q132.4 112.0 132.4 115.1L132.4 115.1Q132.4 115.9 131.9 116.3Q131.5 116.8 130.8 116.8L130.8 116.8L121.5 116.8L121.5 116.8Q121.5 118.9 122.6 120.2Q123.7 121.4 125.6 121.4L125.6 121.4Q126.9 121.4 127.8 120.9Q128.7 120.4 129.6 119.2L129.6 119.2Q130.0 118.6 130.7 118.6L130.7 118.6Q131.3 118.6 131.6 119.0Q132.0 119.3 132.0 119.9L132.0 119.9Q132.0 120.3 131.8 120.8L131.8 120.8Q131.0 122.3 129.4 123.1Q127.8 124.0 125.6 124.0ZM121.5 114.5L121.5 114.5L129.2 114.5Q129.1 112.7 128.1 111.6Q127.1 110.5 125.4 110.5L125.4 110.5Q123.8 110.5 122.7 111.6Q121.6 112.7 121.5 114.5ZM140.5 124.0L140.5 124.0Q138.2 124.0 136.7 123.1Q135.1 122.3 134.5 120.8L134.5 120.8Q134.4 120.5 134.4 120.2L134.4 120.2Q134.4 119.6 134.7 119.2Q135.1 118.9 135.7 118.9L135.7 118.9Q136.5 118.9 137.1 119.7L137.1 119.7Q137.7 120.7 138.5 121.1Q139.3 121.5 140.6 121.5L140.6 121.5Q142.0 121.5 142.8 121.0Q143.7 120.4 143.7 119.5L143.7 119.5Q143.7 118.7 143.2 118.3Q142.6 117.8 141.4 117.5L141.4 117.5L139.0 117.0Q134.5 115.9 134.5 112.6L134.5 112.6Q134.5 110.5 136.2 109.2Q137.9 108.0 140.6 108.0L140.6 108.0Q142.7 108.0 144.2 108.9Q145.8 109.8 146.1 111.2L146.1 111.2Q146.2 111.6 146.2 111.7L146.2 111.7Q146.2 112.2 145.8 112.5Q145.5 112.9 144.9 112.9L144.9 112.9Q144.1 112.9 143.7 112.2L143.7 112.2Q143.1 111.3 142.4 110.8Q141.6 110.4 140.5 110.4L140.5 110.4Q139.2 110.4 138.4 111.0Q137.6 111.5 137.6 112.4L137.6 112.4Q137.6 113.9 140.0 114.5L140.0 114.5L142.4 115.0Q144.8 115.6 145.8 116.5Q146.9 117.5 146.9 119.2L146.9 119.2Q146.9 121.3 145.1 122.6Q143.3 124.0 140.5 124.0ZM155.1 123.9L155.1 123.9Q152.2 123.9 150.4 121.8Q148.6 119.6 148.6 116.0Q148.6 112.3 150.4 110.2Q152.1 108.0 155.1 108.0L155.1 108.0Q156.7 108.0 158.0 108.8Q159.2 109.5 159.9 110.8L159.9 110.8L160.0 110.8L160.0 103.9Q160.0 103.1 160.4 102.7Q160.8 102.2 161.6 102.2L161.6 102.2Q162.3 102.2 162.7 102.7Q163.1 103.2 163.1 103.9L163.1 103.9L163.1 122.4Q163.1 123.1 162.7 123.5Q162.3 123.9 161.6 123.9L161.6 123.9Q160.9 123.9 160.4 123.5Q160.0 123.1 160.0 122.4L160.0 122.4L160.0 120.9L159.9 120.9Q159.3 122.3 158.1 123.1Q156.8 123.9 155.1 123.9ZM155.9 121.2L155.9 121.2Q157.8 121.2 158.9 119.8Q160.0 118.4 160.0 116.0L160.0 116.0Q160.0 113.6 158.9 112.1Q157.8 110.7 155.9 110.7L155.9 110.7Q154.1 110.7 153.0 112.1Q151.9 113.5 151.9 116.0L151.9 116.0Q151.9 118.4 153.0 119.8Q154.1 121.2 155.9 121.2ZM170.9 123.9L170.9 123.9Q168.6 123.9 167.2 122.6Q165.7 121.3 165.7 119.3L165.7 119.3Q165.7 117.3 167.2 116.1Q168.7 114.9 171.5 114.7L171.5 114.7L175.7 114.5L175.7 113.3Q175.7 112.0 174.9 111.3Q174.1 110.6 172.6 110.6L172.6 110.6Q171.5 110.6 170.7 111.0Q169.9 111.5 169.2 112.5L169.2 112.5Q168.7 113.2 167.9 113.2L167.9 113.2Q167.3 113.2 166.9 112.8Q166.5 112.4 166.5 111.9L166.5 111.9Q166.5 111.3 166.8 110.8L166.8 110.8Q167.4 109.5 169.0 108.8Q170.6 108.0 172.7 108.0L172.7 108.0Q175.5 108.0 177.2 109.4Q178.9 110.7 178.9 113.0L178.9 113.0L178.9 122.3Q178.9 123.1 178.4 123.5Q178.0 123.9 177.3 123.9L177.3 123.9Q176.7 123.9 176.3 123.5Q175.8 123.1 175.8 122.4L175.8 122.4L175.8 121.1L175.7 121.1Q175.1 122.4 173.7 123.2Q172.4 123.9 170.9 123.9ZM171.7 121.4L171.7 121.4Q173.4 121.4 174.6 120.4Q175.7 119.4 175.7 117.9L175.7 117.9L175.7 116.7L171.9 116.9Q170.5 117.0 169.7 117.6Q168.9 118.2 168.9 119.2L168.9 119.2Q168.9 120.2 169.7 120.8Q170.5 121.4 171.7 121.4ZM183.8 129.4L183.8 129.4Q182.7 129.4 182.1 129.0Q181.5 128.6 181.5 127.9L181.5 127.9Q181.5 127.4 181.9 127.1Q182.2 126.8 182.8 126.8L182.8 126.8Q182.9 126.8 183.2 126.8Q183.4 126.8 183.6 126.8L183.6 126.8Q185.2 126.8 185.9 124.7L185.9 124.7L186.2 123.8L181.1 110.3Q180.9 109.9 180.9 109.4L180.9 109.4Q180.9 108.8 181.4 108.4Q181.8 108.0 182.5 108.0L182.5 108.0Q183.1 108.0 183.5 108.3Q183.8 108.5 184.0 109.2L184.0 109.2L188.0 120.8L188.0 120.8L191.9 109.2Q192.1 108.5 192.5 108.3Q192.9 108.0 193.5 108.0L193.5 108.0Q194.1 108.0 194.6 108.4Q195.0 108.8 195.0 109.4L195.0 109.4Q195.0 109.8 194.8 110.3L194.8 110.3L189.5 124.4Q188.5 127.2 187.2 128.3Q186.0 129.4 183.8 129.4ZM199.5 120.1L199.5 120.1Q200.1 120.1 200.5 120.5Q200.9 120.8 200.9 121.4L200.9 121.4Q200.9 121.8 200.8 122.3L200.8 122.3L199.6 127.3Q199.3 128.4 198.2 128.4L198.2 128.4Q197.6 128.4 197.3 128.1Q197.0 127.7 197.0 127.2L197.0 127.2Q197.0 127.1 197.0 126.8L197.0 126.8L198.0 121.4Q198.2 120.1 199.5 120.1Z M218.5 124.1L218.5 124.1Q216.0 124.1 214.2 123.1Q212.4 122.2 211.5 120.6L211.5 120.6Q211.1 119.8 211.1 119.0L211.1 119.0Q211.1 118.3 211.5 117.9Q211.9 117.5 212.6 117.5L212.6 117.5Q213.1 117.5 213.4 117.8Q213.8 118.1 214.0 118.6L214.0 118.6Q215.2 121.3 218.5 121.3L218.5 121.3Q220.4 121.3 221.6 120.3Q222.8 119.4 222.8 117.8L222.8 117.8Q222.9 116.0 221.6 115.0Q220.4 114.0 218.3 114.0L218.3 114.0L216.9 114.0Q216.3 114.0 215.9 113.7Q215.5 113.3 215.5 112.8Q215.5 112.2 215.9 111.8Q216.3 111.5 216.9 111.5L216.9 111.5L218.2 111.5Q220 111.5 221.1 110.5Q222.3 109.6 222.3 108.1L222.3 108.1Q222.3 106.6 221.3 105.7Q220.3 104.8 218.5 104.8L218.5 104.8Q216.9 104.8 215.9 105.5Q215.0 106.1 214.4 107.5L214.4 107.5Q214.2 108.1 213.8 108.4Q213.5 108.6 212.9 108.6L212.9 108.6Q212.3 108.6 211.9 108.3Q211.5 107.9 211.5 107.2L211.5 107.2Q211.5 106.4 211.9 105.6L211.9 105.6Q212.7 104.0 214.4 103.1Q216.1 102.1 218.5 102.1L218.5 102.1Q221.7 102.1 223.6 103.7Q225.4 105.2 225.4 107.6L225.4 107.6Q225.4 109.6 224.2 110.9Q223.0 112.2 221.0 112.6L221.0 112.6L221.0 112.7Q223.4 112.9 224.8 114.3Q226.2 115.6 226.2 117.8L226.2 117.8Q226.2 120.6 224.0 122.3Q221.9 124.1 218.5 124.1ZM243.0 121.1Q240.8 124.1 237.0 124.1Q233.2 124.1 231.1 121.1Q228.9 118.2 228.9 113.1L228.9 113.1Q228.9 108.0 231.1 105.1Q233.3 102.1 237.0 102.1L237.0 102.1Q240.8 102.1 243.0 105.1Q245.1 108.0 245.1 113.1L245.1 113.1Q245.1 118.1 243.0 121.1ZM237.0 121.3L237.0 121.3Q239.3 121.3 240.6 119.1Q241.8 116.9 241.8 113.1L241.8 113.1Q241.8 109.3 240.5 107.1Q239.3 104.9 237.0 104.9Q234.8 104.9 233.5 107.1Q232.3 109.3 232.3 113.1L232.3 113.1Q232.3 116.9 233.5 119.1Q234.8 121.3 237.0 121.3Z M255.0 123.9L255.0 123.9Q254.2 123.9 253.8 123.5Q253.3 123.1 253.3 122.4L253.3 122.4Q253.3 122.0 253.5 121.4L253.5 121.4L259.9 104.0Q260.6 102.3 262.2 102.3L262.2 102.3Q263.1 102.3 263.6 102.7Q264.2 103.1 264.5 104.0L264.5 104.0L271.0 121.4Q271.2 122.0 271.2 122.4L271.2 122.4Q271.2 123.0 270.7 123.5Q270.3 123.9 269.5 123.9L269.5 123.9Q268.9 123.9 268.5 123.6Q268.1 123.3 267.9 122.6L267.9 122.6L266.3 118.0L258.2 118.0L256.6 122.5Q256.4 123.3 256.0 123.6Q255.6 123.9 255.0 123.9ZM262.2 106.0L259.0 115.3L265.4 115.3L262.3 106.0L262.2 106.0ZM276.3 128.7Q275.9 129.1 275.2 129.1Q274.5 129.1 274.0 128.7Q273.6 128.2 273.6 127.4L273.6 127.4L273.6 109.6Q273.6 108.9 274.0 108.4Q274.4 108.0 275.1 108.0L275.1 108.0Q275.8 108.0 276.2 108.4Q276.7 108.9 276.7 109.6L276.7 109.6L276.7 110.9L276.7 110.9Q277.4 109.6 278.7 108.8Q280.0 108.0 281.6 108.0L281.6 108.0Q284.6 108.0 286.3 110.2Q288.1 112.3 288.1 116.0Q288.1 119.6 286.4 121.8Q284.6 123.9 281.7 123.9L281.7 123.9Q280.0 123.9 278.8 123.2Q277.5 122.4 276.8 121.1L276.8 121.1L276.8 121.1L276.8 127.4Q276.8 128.2 276.3 128.7ZM280.8 121.2L280.8 121.2Q282.7 121.2 283.8 119.8Q284.9 118.4 284.9 116.0L284.9 116.0Q284.9 113.5 283.8 112.1Q282.7 110.7 280.8 110.7L280.8 110.7Q279.0 110.7 277.9 112.1Q276.7 113.6 276.7 116.0L276.7 116.0Q276.7 118.4 277.9 119.8Q279.0 121.2 280.8 121.2ZM292.1 123.9L292.1 123.9Q291.4 123.9 291.0 123.5Q290.5 123.0 290.5 122.3L290.5 122.3L290.5 109.6Q290.5 108.9 291.0 108.4Q291.4 108.0 292.1 108.0L292.1 108.0Q292.7 108.0 293.1 108.4Q293.5 108.9 293.5 109.6L293.5 109.6L293.5 110.9L293.6 110.9Q293.9 109.6 294.9 108.8Q295.8 108.0 297.0 108.0L297.0 108.0Q297.8 108.0 298.3 108.4L298.3 108.4Q298.7 108.7 298.7 109.5L298.7 109.5Q298.7 110.2 298.2 110.6L298.2 110.6Q297.7 111.0 296.8 111.0L296.8 111.0Q295.2 111.0 294.5 112.0Q293.7 112.9 293.7 114.4L293.7 114.4L293.7 122.3Q293.7 123.0 293.3 123.5Q292.8 123.9 292.1 123.9ZM303.4 105.4Q302.8 105.9 302.1 105.9Q301.3 105.9 300.8 105.4Q300.2 104.9 300.2 104.1L300.2 104.1Q300.2 103.3 300.8 102.8Q301.3 102.3 302.1 102.3L302.1 102.3Q302.9 102.3 303.4 102.8Q303.9 103.3 303.9 104.1L303.9 104.1Q303.9 104.9 303.4 105.4ZM303.2 123.5Q302.8 123.9 302.1 123.9Q301.4 123.9 300.9 123.5Q300.5 123.0 300.5 122.3L300.5 122.3L300.5 109.7Q300.5 108.9 300.9 108.4Q301.4 108.0 302.1 108.0Q302.8 108.0 303.2 108.4Q303.7 108.9 303.7 109.7L303.7 109.7L303.7 122.3Q303.7 123.0 303.2 123.5ZM309.7 123.5Q309.3 123.9 308.6 123.9Q307.9 123.9 307.5 123.5Q307.0 123.0 307.0 122.3L307.0 122.3L307.0 103.9Q307.0 103.2 307.5 102.7Q307.9 102.2 308.6 102.2Q309.3 102.2 309.7 102.7Q310.2 103.2 310.2 103.9L310.2 103.9L310.2 122.3Q310.2 123.0 309.7 123.5Z M332.7 123.7L321.1 123.7Q320.3 123.7 319.9 123.3Q319.5 122.9 319.5 122.3L319.5 122.3Q319.5 121.8 319.7 121.5Q319.9 121.1 320.4 120.6L320.4 120.6L327.0 113.9Q329.1 111.8 329.8 110.7Q330.5 109.6 330.5 108.3L330.5 108.3Q330.5 106.8 329.4 105.8Q328.4 104.8 326.8 104.8L326.8 104.8Q323.7 104.8 322.5 108.0L322.5 108.0Q322.3 108.5 322.0 108.8Q321.6 109.0 321.1 109.0L321.1 109.0Q320.4 109.0 320.0 108.6Q319.6 108.3 319.6 107.6L319.6 107.6Q319.6 107.3 319.7 107.0L319.7 107.0Q319.9 106.1 320.4 105.3Q321.0 104.4 321.8 103.7Q322.7 103.0 324.0 102.6Q325.3 102.1 326.8 102.1L326.8 102.1Q329.8 102.1 331.8 103.8Q333.7 105.5 333.7 108.1L333.7 108.1Q333.7 109.9 332.7 111.5Q331.7 113.0 329.0 115.8L329.0 115.8L324.0 120.8L324.0 120.9L332.7 120.9Q333.4 120.9 333.8 121.3Q334.2 121.7 334.2 122.3L334.2 122.3Q334.2 122.9 333.8 123.3Q333.4 123.7 332.7 123.7L332.7 123.7ZM350.6 121.1Q348.5 124.1 344.7 124.1Q340.9 124.1 338.7 121.1Q336.6 118.2 336.6 113.1L336.6 113.1Q336.6 108.0 338.7 105.1Q340.9 102.1 344.7 102.1L344.7 102.1Q348.5 102.1 350.6 105.1Q352.8 108.0 352.8 113.1L352.8 113.1Q352.8 118.1 350.6 121.1ZM344.7 121.3L344.7 121.3Q347.0 121.3 348.2 119.1Q349.4 116.9 349.4 113.1L349.4 113.1Q349.4 109.3 348.2 107.1Q346.9 104.9 344.7 104.9Q342.4 104.9 341.2 107.1Q339.9 109.3 339.9 113.1L339.9 113.1Q339.9 116.9 341.2 119.1Q342.4 121.3 344.7 121.3ZM368.8 123.7L357.2 123.7Q356.4 123.7 356.0 123.3Q355.6 122.9 355.6 122.3L355.6 122.3Q355.6 121.8 355.8 121.5Q356.0 121.1 356.5 120.6L356.5 120.6L363.1 113.9Q365.2 111.8 365.9 110.7Q366.6 109.6 366.6 108.3L366.6 108.3Q366.6 106.8 365.5 105.8Q364.5 104.8 362.9 104.8L362.9 104.8Q359.7 104.8 358.6 108.0L358.6 108.0Q358.4 108.5 358.1 108.8Q357.7 109.0 357.2 109.0L357.2 109.0Q356.5 109.0 356.1 108.6Q355.7 108.3 355.7 107.6L355.7 107.6Q355.7 107.3 355.8 107.0L355.8 107.0Q356.0 106.1 356.5 105.3Q357.1 104.4 357.9 103.7Q358.8 103.0 360.1 102.6Q361.4 102.1 362.9 102.1L362.9 102.1Q365.9 102.1 367.9 103.8Q369.8 105.5 369.8 108.1L369.8 108.1Q369.8 109.9 368.8 111.5Q367.8 113.0 365.1 115.8L365.1 115.8L360.1 120.8L360.1 120.9L368.8 120.9Q369.5 120.9 369.9 121.3Q370.3 121.7 370.3 122.3L370.3 122.3Q370.3 122.9 369.9 123.3Q369.5 123.7 368.8 123.7L368.8 123.7ZM380.6 124.1L380.6 124.1Q378.2 124.1 376.3 123.0Q374.5 121.9 373.7 120.2L373.7 120.2Q373.4 119.5 373.4 118.8L373.4 118.8Q373.4 118.1 373.8 117.7Q374.1 117.3 374.8 117.3L374.8 117.3Q375.4 117.3 375.7 117.6Q376.0 117.8 376.3 118.4L376.3 118.4Q376.8 119.8 377.9 120.5Q379.1 121.3 380.6 121.3L380.6 121.3Q382.6 121.3 383.9 120.0Q385.2 118.8 385.2 116.8L385.2 116.8Q385.2 114.8 383.9 113.6Q382.6 112.4 380.6 112.4L380.6 112.4Q378.5 112.4 377.2 113.7L377.2 113.7Q376.5 114.5 376.2 114.6Q375.8 114.8 375.2 114.8L375.2 114.8Q374.5 114.8 374.0 114.4Q373.6 113.9 373.6 113.2L373.6 113.2L373.6 112.9L374.4 104.8Q374.5 103.6 375.1 103.0Q375.7 102.5 376.9 102.5L376.9 102.5L385.9 102.5Q386.5 102.5 386.9 102.9Q387.3 103.3 387.3 103.9Q387.3 104.5 386.9 104.9Q386.5 105.3 385.9 105.3L385.9 105.3L377.2 105.3L376.6 111.9L376.7 111.9Q377.3 110.9 378.6 110.3Q379.8 109.8 381.4 109.8L381.4 109.8Q384.5 109.8 386.4 111.7Q388.4 113.6 388.4 116.7L388.4 116.7Q388.4 120.0 386.2 122.0Q384.0 124.1 380.6 124.1Z "/><mask id="satori_om-id-0-0-1"><rect x="40" y="176" width="1120" height="165" fill="#fff"/></mask><path fill="#224d67" d="M47.5 239.1L47.5 239.1Q45.7 239.1 44.7 238.0Q43.7 237.0 43.7 235.2L43.7 235.2L43.7 199.7Q43.7 197.9 44.7 196.8Q45.7 195.8 47.5 195.8L47.5 195.8Q49.3 195.8 50.3 196.8Q51.3 197.9 51.3 199.7L51.3 199.7L51.3 235.2Q51.3 237.0 50.3 238.1Q49.3 239.1 47.5 239.1ZM70.0 239.2L70.0 239.2Q65.1 239.2 61.8 237.5Q58.5 235.8 57.3 233.0L57.3 233.0Q57.0 232.2 57.0 231.5L57.0 231.5Q57.0 230.2 57.9 229.4Q58.7 228.6 60.1 228.6L60.1 228.6Q61.9 228.6 63.2 230.4L63.2 230.4Q64.5 232.3 66.1 233.1Q67.7 233.9 70.2 233.9L70.2 233.9Q72.8 233.9 74.4 232.9Q75.9 231.8 75.9 230.1L75.9 230.1Q75.9 228.7 74.9 227.8Q73.9 227.0 71.5 226.4L71.5 226.4L66.5 225.3Q57.4 223.3 57.4 216.4L57.4 216.4Q57.4 212.1 60.9 209.5Q64.3 206.9 70.1 206.9L70.1 206.9Q74.5 206.9 77.7 208.8Q80.9 210.6 81.7 213.4L81.7 213.4Q81.8 214.0 81.8 214.5L81.8 214.5Q81.8 215.6 81.1 216.4Q80.3 217.1 79.0 217.1L79.0 217.1Q77.1 217.1 76.2 215.7L76.2 215.7Q75.1 214.0 73.6 213.1Q72.1 212.2 69.9 212.2L69.9 212.2Q67.5 212.2 66.0 213.3Q64.5 214.3 64.5 216.0L64.5 216.0Q64.5 218.8 69.1 219.8L69.1 219.8L74.0 220.9Q79.0 222.0 81.1 223.9Q83.2 225.9 83.2 229.3L83.2 229.3Q83.2 233.8 79.6 236.5Q75.9 239.2 70.0 239.2Z M115.4 239.3L115.4 239.3Q109.3 239.3 105.1 237.0Q101.0 234.7 99.7 231.0L99.7 231.0Q99.3 229.9 99.3 228.8L99.3 228.8Q99.3 227.2 100.2 226.3Q101.2 225.3 102.7 225.3L102.7 225.3Q103.9 225.3 104.8 225.9Q105.6 226.4 106.2 227.7L106.2 227.7Q107.2 230.4 109.7 231.7Q112.2 233.0 115.7 233.0L115.7 233.0Q119.5 233.0 121.9 231.3Q124.3 229.6 124.3 227.0L124.3 227.0Q124.3 224.7 122.6 223.2Q120.8 221.8 116.7 220.9L116.7 220.9L112.2 220.0Q99.8 217.4 99.8 208.1L99.8 208.1Q99.8 202.5 104.2 199.1Q108.6 195.6 115.5 195.6L115.5 195.6Q121.1 195.6 125.1 198.0Q129.2 200.4 130.5 204.5L130.5 204.5Q130.7 205.2 130.7 206.3L130.7 206.3Q130.7 207.6 129.8 208.5Q128.9 209.4 127.5 209.4L127.5 209.4Q125.0 209.4 123.8 207.0L123.8 207.0Q121.8 201.9 115.4 201.9L115.4 201.9Q111.9 201.9 109.6 203.4Q107.4 205.0 107.4 207.6L107.4 207.6Q107.4 209.8 109.1 211.2Q110.9 212.7 114.8 213.5L114.8 213.5L119.3 214.4Q126.0 215.8 129.0 218.6Q132.0 221.4 132.0 226.1L132.0 226.1Q132.0 232.2 127.5 235.7Q123.1 239.3 115.4 239.3ZM143.6 202.0Q142.4 203.2 140.7 203.2Q139.0 203.2 137.8 202.0Q136.7 200.8 136.7 199.2L136.7 199.2Q136.7 197.5 137.8 196.4Q139.0 195.2 140.7 195.2L140.7 195.2Q142.4 195.2 143.6 196.4Q144.8 197.5 144.8 199.2L144.8 199.2Q144.8 200.8 143.6 202.0ZM143.4 238.1Q142.4 239.2 140.7 239.2Q139.0 239.2 138.0 238.1Q137.1 237.1 137.1 235.3L137.1 235.3L137.1 210.7Q137.1 209.0 138.0 207.9Q139.0 206.9 140.7 206.9Q142.4 206.9 143.4 207.9Q144.4 209.0 144.4 210.8L144.4 210.8L144.4 235.3Q144.4 237.1 143.4 238.1ZM157.0 238.2Q156.0 239.2 154.3 239.2Q152.7 239.2 151.7 238.2Q150.7 237.1 150.7 235.3L150.7 235.3L150.7 199.6Q150.7 197.7 151.7 196.7Q152.7 195.7 154.3 195.7Q156.0 195.7 157.0 196.7Q158.0 197.7 158.0 199.6L158.0 199.6L158.0 235.3Q158.0 237.1 157.0 238.2ZM178.0 239.2L178.0 239.2Q170.9 239.2 166.9 235.0Q162.9 230.7 162.9 223.2L162.9 223.2Q162.9 215.7 166.9 211.3Q170.9 206.9 177.6 206.9L177.6 206.9Q183.9 206.9 187.9 210.9Q191.9 215.0 191.9 221.4L191.9 221.4Q191.9 223.0 191.0 223.9Q190.1 224.8 188.5 224.8L188.5 224.8L170.2 224.8L170.2 225.0Q170.2 228.9 172.3 231.3Q174.4 233.6 177.9 233.6L177.9 233.6Q180.4 233.6 182.2 232.6Q183.9 231.7 185.7 229.4L185.7 229.4Q186.7 228.3 188.2 228.3L188.2 228.3Q189.4 228.3 190.2 229.0Q191.1 229.8 191.1 231.1L191.1 231.1Q191.1 231.9 190.6 232.9L190.6 232.9Q189.0 235.9 185.7 237.5Q182.4 239.2 178.0 239.2ZM170.2 220.0L170.2 220.0L184.7 220.0Q184.6 216.6 182.6 214.6Q180.7 212.5 177.6 212.5Q174.5 212.5 172.5 214.6Q170.4 216.7 170.2 220.0ZM202.8 238.2Q201.8 239.2 200.2 239.2Q198.6 239.2 197.6 238.2Q196.6 237.1 196.6 235.3L196.6 235.3L196.6 210.6Q196.6 208.9 197.5 207.9Q198.4 206.9 200.0 206.9Q201.7 206.9 202.7 207.9Q203.7 208.9 203.7 210.6L203.7 210.6L203.7 212.8L203.8 212.8Q206.4 206.9 213.5 206.9L213.5 206.9Q218.6 206.9 221.4 210.0Q224.2 213.1 224.2 218.5L224.2 218.5L224.2 235.3Q224.2 237.1 223.2 238.2Q222.2 239.2 220.6 239.2Q218.9 239.2 217.9 238.2Q216.9 237.1 216.9 235.3L216.9 235.3L216.9 220.0Q216.9 216.6 215.4 214.9Q213.8 213.1 210.7 213.1L210.7 213.1Q207.6 213.1 205.7 215.2Q203.9 217.2 203.9 220.6L203.9 220.6L203.9 235.3Q203.9 237.1 202.8 238.2ZM243.7 239.2L243.7 239.2Q236.9 239.2 232.8 234.9Q228.8 230.5 228.8 223.1L228.8 223.1Q228.8 215.7 232.8 211.3Q236.8 206.9 243.6 206.9L243.6 206.9Q248.2 206.9 251.7 209.0Q255.3 211.1 256.4 214.4L256.4 214.4Q256.8 215.4 256.8 216.1L256.8 216.1Q256.8 217.5 255.9 218.3Q255.0 219.1 253.7 219.1L253.7 219.1Q252.6 219.1 251.8 218.6Q251.1 218.1 250.5 217.0L250.5 217.0Q248.2 212.8 243.8 212.8L243.8 212.8Q240.3 212.8 238.3 215.6Q236.2 218.3 236.2 223.1L236.2 223.1Q236.2 227.9 238.2 230.6Q240.3 233.3 243.8 233.3L243.8 233.3Q248.2 233.3 250.4 229.3L250.4 229.3Q251.2 228.1 251.9 227.6Q252.6 227.1 253.8 227.1L253.8 227.1Q255.1 227.1 256.0 227.9Q256.9 228.7 256.9 230.1L256.9 230.1Q256.9 230.9 256.4 231.9L256.4 231.9Q255.1 235.1 251.6 237.2Q248.1 239.2 243.7 239.2ZM275.6 239.2L275.6 239.2Q268.5 239.2 264.5 235.0Q260.5 230.7 260.5 223.2L260.5 223.2Q260.5 215.7 264.5 211.3Q268.5 206.9 275.2 206.9L275.2 206.9Q281.5 206.9 285.5 210.9Q289.5 215.0 289.5 221.4L289.5 221.4Q289.5 223.0 288.6 223.9Q287.7 224.8 286.1 224.8L286.1 224.8L267.8 224.8L267.8 225.0Q267.8 228.9 269.9 231.3Q272.0 233.6 275.5 233.6L275.5 233.6Q278.0 233.6 279.8 232.6Q281.5 231.7 283.3 229.4L283.3 229.4Q284.3 228.3 285.7 228.3L285.7 228.3Q287.0 228.3 287.8 229.0Q288.7 229.8 288.7 231.1L288.7 231.1Q288.7 231.9 288.2 232.9L288.2 232.9Q286.6 235.9 283.3 237.5Q280 239.2 275.6 239.2ZM267.8 220.0L267.8 220.0L282.3 220.0Q282.2 216.6 280.2 214.6Q278.3 212.5 275.2 212.5Q272.1 212.5 270.1 214.6Q268.0 216.7 267.8 220.0Z M308.2 230.9L308.2 230.9L308.2 213.1L306.2 213.1Q304.9 213.1 304.1 212.4Q303.3 211.6 303.3 210.3L303.3 210.3Q303.3 209.0 304.1 208.3Q304.8 207.5 306.2 207.5L306.2 207.5L308.2 207.5L308.2 203.4Q308.2 201.6 309.2 200.6Q310.1 199.6 311.8 199.6L311.8 199.6Q313.5 199.6 314.5 200.6Q315.5 201.6 315.5 203.4L315.5 203.4L315.5 207.5L318.8 207.5Q320.2 207.5 321.0 208.3Q321.8 209.0 321.8 210.3L321.8 210.3Q321.8 211.6 321.0 212.4Q320.2 213.1 318.8 213.1L318.8 213.1L315.5 213.1L315.5 229.3Q315.5 231.1 316.2 231.9Q316.8 232.7 318.4 232.9L318.4 232.9L318.9 232.9Q321.9 233.2 321.9 235.6L321.9 235.6Q321.9 237.2 320.5 238.1Q319.2 238.9 316.7 238.9L316.7 238.9L316.4 238.9Q308.2 238.9 308.2 230.9ZM332.8 238.2Q331.8 239.2 330.2 239.2Q328.5 239.2 327.5 238.2Q326.5 237.1 326.5 235.3L326.5 235.3L326.5 199.5Q326.5 197.7 327.5 196.7Q328.4 195.7 330.1 195.7L330.1 195.7Q331.8 195.7 332.7 196.7Q333.7 197.7 333.7 199.5L333.7 199.5L333.7 212.9L333.8 212.9Q335.1 210.0 337.6 208.5Q340.1 206.9 343.7 206.9L343.7 206.9Q348.8 206.9 351.6 210.1Q354.5 213.2 354.5 218.6L354.5 218.6L354.5 235.3Q354.5 237.1 353.5 238.2Q352.5 239.2 350.9 239.2Q349.2 239.2 348.2 238.2Q347.2 237.1 347.2 235.3L347.2 235.3L347.2 220.1Q347.2 216.8 345.6 214.9Q344.0 213.1 340.8 213.1L340.8 213.1Q337.6 213.1 335.7 215.2Q333.8 217.3 333.8 220.7L333.8 220.7L333.8 235.3Q333.8 237.1 332.8 238.2ZM374.2 239.2L374.2 239.2Q367.0 239.2 363.1 235.0Q359.1 230.7 359.1 223.2L359.1 223.2Q359.1 215.7 363.1 211.3Q367.0 206.9 373.8 206.9L373.8 206.9Q380.1 206.9 384.1 210.9Q388.0 215.0 388.0 221.4L388.0 221.4Q388.0 223.0 387.2 223.9Q386.3 224.8 384.6 224.8L384.6 224.8L366.3 224.8L366.3 225.0Q366.3 228.9 368.4 231.3Q370.6 233.6 374.1 233.6L374.1 233.6Q376.6 233.6 378.3 232.6Q380.1 231.7 381.9 229.4L381.9 229.4Q382.9 228.3 384.3 228.3L384.3 228.3Q385.6 228.3 386.4 229.0Q387.3 229.8 387.3 231.1L387.3 231.1Q387.3 231.9 386.8 232.9L386.8 232.9Q385.2 235.9 381.9 237.5Q378.6 239.2 374.2 239.2ZM366.4 220.0L366.4 220.0L380.9 220.0Q380.8 216.6 378.8 214.6Q376.9 212.5 373.8 212.5Q370.7 212.5 368.7 214.6Q366.6 216.7 366.4 220.0Z M409.3 239.1L409.3 239.1Q407.5 239.1 406.5 238.0Q405.5 237.0 405.5 235.2L405.5 235.2L405.5 200.2Q405.5 198.4 406.5 197.3Q407.5 196.3 409.3 196.3L409.3 196.3L421.9 196.3Q428.2 196.3 432.2 200.2Q436.2 204.1 436.2 210.5L436.2 210.5Q436.2 216.8 432.1 220.7Q428.0 224.6 421.6 224.6L421.6 224.6L413.0 224.6L413.0 235.2Q413.0 237.0 412.0 238.1Q411.0 239.1 409.3 239.1ZM413.0 202.5L413.0 218.5L419.9 218.5Q424.0 218.5 426.2 216.4Q428.5 214.3 428.5 210.5L428.5 210.5Q428.5 206.6 426.2 204.6Q424.0 202.5 419.9 202.5L419.9 202.5L413.0 202.5ZM465.6 234.9Q461.6 239.2 454.7 239.2Q447.8 239.2 443.7 234.9Q439.6 230.6 439.6 223.1L439.6 223.1Q439.6 215.6 443.7 211.2Q447.8 206.9 454.7 206.9L454.7 206.9Q461.5 206.9 465.6 211.2Q469.7 215.6 469.7 223.1L469.7 223.1Q469.7 230.6 465.6 234.9ZM449.1 230.7Q451.2 233.4 454.7 233.4Q458.2 233.4 460.2 230.7Q462.3 228.0 462.3 223.1L462.3 223.1Q462.3 218.2 460.2 215.4Q458.2 212.7 454.7 212.7L454.7 212.7Q451.2 212.7 449.1 215.4Q447.1 218.2 447.1 223.1L447.1 223.1Q447.1 228.0 449.1 230.7ZM480.9 238.2Q479.9 239.2 478.3 239.2Q476.6 239.2 475.6 238.2Q474.6 237.1 474.6 235.3L474.6 235.3L474.6 199.6Q474.6 197.7 475.6 196.7Q476.6 195.7 478.3 195.7Q479.9 195.7 480.9 196.7Q481.9 197.7 481.9 199.6L481.9 199.6L481.9 235.3Q481.9 237.1 480.9 238.2ZM494.8 202.0Q493.6 203.2 491.9 203.2Q490.2 203.2 489.0 202.0Q487.9 200.8 487.9 199.2L487.9 199.2Q487.9 197.5 489.0 196.4Q490.2 195.2 491.9 195.2L491.9 195.2Q493.6 195.2 494.8 196.4Q496.0 197.5 496.0 199.2L496.0 199.2Q496.0 200.8 494.8 202.0ZM494.6 238.1Q493.6 239.2 491.9 239.2Q490.2 239.2 489.3 238.1Q488.3 237.1 488.3 235.3L488.3 235.3L488.3 210.7Q488.3 209.0 489.3 207.9Q490.2 206.9 491.9 206.9Q493.6 206.9 494.6 207.9Q495.6 209.0 495.6 210.8L495.6 210.8L495.6 235.3Q495.6 237.1 494.6 238.1ZM515.3 239.2L515.3 239.2Q508.5 239.2 504.5 234.9Q500.4 230.5 500.4 223.1L500.4 223.1Q500.4 215.7 504.4 211.3Q508.5 206.9 515.3 206.9L515.3 206.9Q519.8 206.9 523.4 209.0Q526.9 211.1 528.1 214.4L528.1 214.4Q528.4 215.4 528.4 216.1L528.4 216.1Q528.4 217.5 527.5 218.3Q526.7 219.1 525.3 219.1L525.3 219.1Q524.2 219.1 523.5 218.6Q522.8 218.1 522.1 217.0L522.1 217.0Q519.8 212.8 515.5 212.8L515.5 212.8Q512.0 212.8 509.9 215.6Q507.8 218.3 507.8 223.1L507.8 223.1Q507.8 227.9 509.9 230.6Q511.9 233.3 515.5 233.3L515.5 233.3Q519.8 233.3 522.1 229.3L522.1 229.3Q522.8 228.1 523.6 227.6Q524.3 227.1 525.4 227.1L525.4 227.1Q526.8 227.1 527.6 227.9Q528.5 228.7 528.5 230.1L528.5 230.1Q528.5 230.9 528.1 231.9L528.1 231.9Q526.8 235.1 523.2 237.2Q519.7 239.2 515.3 239.2ZM537.9 250.1L537.9 250.1Q535.4 250.1 534.1 249.2Q532.8 248.3 532.8 246.7L532.8 246.7Q532.8 245.6 533.5 244.9Q534.3 244.2 535.6 244.2L535.6 244.2Q535.8 244.2 536.3 244.2Q536.8 244.2 537.1 244.2L537.1 244.2Q540.1 244.2 541.6 240.7L541.6 240.7L542.1 239.1L531.9 212.4Q531.5 211.2 531.5 210.3L531.5 210.3Q531.5 208.8 532.6 207.9Q533.7 206.9 535.3 206.9L535.3 206.9Q536.6 206.9 537.5 207.6Q538.3 208.3 538.8 209.8L538.8 209.8L546.2 232.4L546.3 232.4L553.7 209.8Q554.2 208.3 555.0 207.6Q555.8 206.9 557.2 206.9L557.2 206.9Q558.8 206.9 559.8 207.8Q560.8 208.8 560.8 210.2L560.8 210.2Q560.8 211.2 560.3 212.3L560.3 212.3L550.1 239.7Q548.0 245.5 545.3 247.8Q542.5 250.1 537.9 250.1Z M601.2 238.6L581.3 238.6Q579.5 238.6 578.5 237.5Q577.5 236.5 577.5 234.7L577.5 234.7L577.5 199.7Q577.5 197.9 578.5 196.8Q579.5 195.8 581.3 195.8L581.3 195.8Q583.0 195.8 584.0 196.8Q585.0 197.9 585.0 199.7L585.0 199.7L585.0 232.2L601.2 232.2Q602.8 232.2 603.7 233.1Q604.7 233.9 604.7 235.4Q604.7 236.8 603.8 237.7Q602.8 238.6 601.2 238.6L601.2 238.6ZM618.0 239.1L618.0 239.1Q613.5 239.1 610.6 236.5Q607.7 233.9 607.7 229.7L607.7 229.7Q607.7 225.6 610.7 223.2Q613.8 220.8 619.5 220.4L619.5 220.4L627.7 219.9L627.7 217.7Q627.7 215.3 626.2 213.9Q624.6 212.6 621.9 212.6L621.9 212.6Q619.7 212.6 618.2 213.4Q616.7 214.2 615.4 216.2L615.4 216.2Q614.3 217.7 612.4 217.7L612.4 217.7Q611.1 217.7 610.2 216.9Q609.4 216.1 609.4 214.8L609.4 214.8Q609.4 213.8 609.9 212.8L609.9 212.8Q611.0 210.1 614.4 208.5Q617.7 206.9 622.2 206.9L622.2 206.9Q628.0 206.9 631.4 209.7Q634.9 212.5 634.9 217.2L634.9 217.2L634.9 235.5Q634.9 237.2 633.9 238.2Q632.9 239.2 631.4 239.2L631.4 239.2Q629.8 239.2 628.9 238.3Q628.0 237.4 627.9 235.8L627.9 235.8L627.9 233.6L627.7 233.6Q626.4 236.1 623.7 237.6Q621.1 239.1 618.0 239.1ZM620.3 233.6L620.3 233.6Q623.4 233.6 625.5 231.7Q627.7 229.8 627.7 227.1L627.7 227.1L627.7 224.7L620.5 225.1Q617.9 225.3 616.4 226.4Q615.0 227.6 615.0 229.4L615.0 229.4Q615.0 231.3 616.4 232.4Q617.9 233.6 620.3 233.6ZM654.4 239.2L654.4 239.2Q647.6 239.2 643.5 234.9Q639.5 230.5 639.5 223.1L639.5 223.1Q639.5 215.7 643.5 211.3Q647.6 206.9 654.4 206.9L654.4 206.9Q658.9 206.9 662.5 209.0Q666.0 211.1 667.1 214.4L667.1 214.4Q667.5 215.4 667.5 216.1L667.5 216.1Q667.5 217.5 666.6 218.3Q665.7 219.1 664.4 219.1L664.4 219.1Q663.3 219.1 662.6 218.6Q661.8 218.1 661.2 217.0L661.2 217.0Q658.9 212.8 654.6 212.8L654.6 212.8Q651.0 212.8 649.0 215.6Q646.9 218.3 646.9 223.1L646.9 223.1Q646.9 227.9 649.0 230.6Q651.0 233.3 654.5 233.3L654.5 233.3Q658.9 233.3 661.2 229.3L661.2 229.3Q661.9 228.1 662.6 227.6Q663.3 227.1 664.5 227.1L664.5 227.1Q665.8 227.1 666.7 227.9Q667.6 228.7 667.6 230.1L667.6 230.1Q667.6 230.9 667.2 231.9L667.2 231.9Q665.8 235.1 662.3 237.2Q658.8 239.2 654.4 239.2ZM679.0 238.2Q678.0 239.2 676.4 239.2Q674.7 239.2 673.7 238.2Q672.7 237.1 672.7 235.3L672.7 235.3L672.7 199.6Q672.7 197.7 673.7 196.7Q674.7 195.7 676.4 195.7Q678.0 195.7 679.0 196.7Q680.0 197.7 680.0 199.6L680.0 199.6L680.0 220.4L680.1 220.4L692.3 208.3Q693.6 206.9 695.1 206.9L695.1 206.9Q696.5 206.9 697.4 207.8Q698.3 208.7 698.3 210.0L698.3 210.0Q698.3 211.5 697.0 212.7L697.0 212.7L688.1 221.1L697.9 233.3Q698.9 234.7 698.9 235.9L698.9 235.9Q698.9 237.3 697.9 238.3Q696.9 239.2 695.4 239.2L695.4 239.2Q694.3 239.2 693.6 238.7Q692.9 238.3 692.1 237.1L692.1 237.1L682.7 225.3L680.0 227.9L680.0 235.3Q680.0 237.1 679.0 238.2Z M740.3 234.9Q736.2 239.2 729.4 239.2Q722.5 239.2 718.4 234.9Q714.3 230.6 714.3 223.1L714.3 223.1Q714.3 215.6 718.4 211.2Q722.5 206.9 729.4 206.9L729.4 206.9Q736.2 206.9 740.3 211.2Q744.4 215.6 744.4 223.1L744.4 223.1Q744.4 230.6 740.3 234.9ZM723.8 230.7Q725.8 233.4 729.4 233.4Q732.9 233.4 734.9 230.7Q737.0 228.0 737.0 223.1L737.0 223.1Q737.0 218.2 734.9 215.4Q732.9 212.7 729.4 212.7L729.4 212.7Q725.9 212.7 723.8 215.4Q721.7 218.2 721.7 223.1L721.7 223.1Q721.7 228.0 723.8 230.7ZM757.4 238.2Q756.4 239.2 754.8 239.2Q753.1 239.2 752.1 238.2Q751.1 237.2 751.1 235.4L751.1 235.4L751.1 213.1L749.2 213.1Q747.9 213.1 747.1 212.4Q746.3 211.7 746.3 210.4L746.3 210.4Q746.3 209.1 747.1 208.4Q747.9 207.6 749.2 207.6L749.2 207.6L751.1 207.6L751.1 204.9Q751.1 196.0 759.6 196.0L759.6 196.0Q762.5 196.0 763.9 196.8Q765.2 197.6 765.2 199.0L765.2 199.0Q765.2 200.7 763.6 201.1L763.6 201.1Q763.0 201.3 762.0 201.3L762.0 201.3Q760.0 201.4 759.2 202.3Q758.3 203.2 758.3 205.2L758.3 205.2L758.3 207.6L762.2 207.6Q763.4 207.6 764.2 208.4Q765.0 209.1 765.0 210.4L765.0 210.4Q765.0 211.7 764.2 212.4Q763.4 213.1 762.2 213.1L762.2 213.1L758.4 213.1L758.4 235.4Q758.4 237.2 757.4 238.2Z M785.8 239.1L785.8 239.1Q784.1 239.1 783.0 238.0Q782.0 237.0 782.0 235.2L782.0 235.2L782.0 200.2Q782.0 198.4 783.0 197.3Q784.1 196.3 785.8 196.3L785.8 196.3L798.5 196.3Q804.8 196.3 808.8 200.2Q812.7 204.1 812.7 210.5L812.7 210.5Q812.7 216.8 808.6 220.7Q804.6 224.6 798.1 224.6L798.1 224.6L789.6 224.6L789.6 235.2Q789.6 237.0 788.6 238.1Q787.6 239.1 785.8 239.1ZM789.6 202.5L789.6 218.5L796.4 218.5Q800.5 218.5 802.8 216.4Q805.0 214.3 805.0 210.5L805.0 210.5Q805.0 206.6 802.8 204.6Q800.5 202.5 796.5 202.5L796.5 202.5L789.6 202.5ZM826.6 239.1L826.6 239.1Q822.1 239.1 819.1 236.5Q816.2 233.9 816.2 229.7L816.2 229.7Q816.2 225.6 819.3 223.2Q822.3 220.8 828.0 220.4L828.0 220.4L836.3 219.9L836.3 217.7Q836.3 215.3 834.7 213.9Q833.2 212.6 830.5 212.6L830.5 212.6Q828.3 212.6 826.8 213.4Q825.3 214.2 824.0 216.2L824.0 216.2Q822.8 217.7 821.0 217.7L821.0 217.7Q819.6 217.7 818.8 216.9Q817.9 216.1 817.9 214.8L817.9 214.8Q817.9 213.8 818.4 212.8L818.4 212.8Q819.6 210.1 822.9 208.5Q826.3 206.9 830.8 206.9L830.8 206.9Q836.5 206.9 840.0 209.7Q843.5 212.5 843.5 217.2L843.5 217.2L843.5 235.5Q843.5 237.2 842.5 238.2Q841.5 239.2 839.9 239.2L839.9 239.2Q838.4 239.2 837.5 238.3Q836.5 237.4 836.4 235.8L836.4 235.8L836.4 233.6L836.3 233.6Q835.0 236.1 832.3 237.6Q829.6 239.1 826.6 239.1ZM828.8 233.6L828.8 233.6Q831.9 233.6 834.1 231.7Q836.3 229.8 836.3 227.1L836.3 227.1L836.3 224.7L829.1 225.1Q826.4 225.3 825.0 226.4Q823.5 227.6 823.5 229.4L823.5 229.4Q823.5 231.3 825.0 232.4Q826.4 233.6 828.8 233.6ZM853.8 250.1L853.8 250.1Q851.3 250.1 850.0 249.2Q848.7 248.3 848.7 246.7L848.7 246.7Q848.7 245.6 849.5 244.9Q850.2 244.2 851.5 244.2L851.5 244.2Q851.8 244.2 852.2 244.2Q852.7 244.2 853.0 244.2L853.0 244.2Q856.0 244.2 857.5 240.7L857.5 240.7L858.0 239.1L847.8 212.4Q847.4 211.2 847.4 210.3L847.4 210.3Q847.4 208.8 848.5 207.9Q849.6 206.9 851.2 206.9L851.2 206.9Q852.5 206.9 853.4 207.6Q854.2 208.3 854.7 209.8L854.7 209.8L862.1 232.4L862.2 232.4L869.6 209.8Q870.1 208.3 870.9 207.6Q871.7 206.9 873.1 206.9L873.1 206.9Q874.7 206.9 875.7 207.8Q876.7 208.8 876.7 210.2L876.7 210.2Q876.7 211.2 876.3 212.3L876.3 212.3L866.0 239.7Q863.9 245.5 861.2 247.8Q858.4 250.1 853.8 250.1ZM892.6 239.2L892.6 239.2Q887.8 239.2 884.5 237.5Q881.1 235.8 880.0 233.0L880.0 233.0Q879.7 232.2 879.7 231.5L879.7 231.5Q879.7 230.2 880.5 229.4Q881.4 228.6 882.7 228.6L882.7 228.6Q884.5 228.6 885.9 230.4L885.9 230.4Q887.1 232.3 888.7 233.1Q890.3 233.9 892.9 233.9L892.9 233.9Q895.5 233.9 897.0 232.9Q898.5 231.8 898.5 230.1L898.5 230.1Q898.5 228.7 897.5 227.8Q896.6 227.0 894.2 226.4L894.2 226.4L889.1 225.3Q880.1 223.3 880.1 216.4L880.1 216.4Q880.1 212.1 883.5 209.5Q887.0 206.9 892.7 206.9L892.7 206.9Q897.1 206.9 900.4 208.8Q903.6 210.6 904.3 213.4L904.3 213.4Q904.5 214.0 904.5 214.5L904.5 214.5Q904.5 215.6 903.7 216.4Q903.0 217.1 901.7 217.1L901.7 217.1Q899.8 217.1 898.9 215.7L898.9 215.7Q897.7 214.0 896.2 213.1Q894.8 212.2 892.6 212.2L892.6 212.2Q890.2 212.2 888.7 213.3Q887.2 214.3 887.2 216.0L887.2 216.0Q887.2 218.8 891.7 219.8L891.7 219.8L896.7 220.9Q901.6 222.0 903.7 223.9Q905.9 225.9 905.9 229.3L905.9 229.3Q905.9 233.8 902.2 236.5Q898.6 239.2 892.6 239.2ZM917.0 238.2Q916.0 239.2 914.3 239.2Q912.7 239.2 911.7 238.2Q910.7 237.1 910.7 235.3L910.7 235.3L910.7 199.6Q910.7 197.7 911.7 196.7Q912.7 195.7 914.3 195.7Q916.0 195.7 917.0 196.7Q918.0 197.7 918.0 199.6L918.0 199.6L918.0 235.3Q918.0 237.1 917.0 238.2ZM930.9 202.0Q929.7 203.2 928.0 203.2Q926.3 203.2 925.1 202.0Q923.9 200.8 923.9 199.2L923.9 199.2Q923.9 197.5 925.1 196.4Q926.3 195.2 928.0 195.2L928.0 195.2Q929.7 195.2 930.9 196.4Q932.1 197.5 932.1 199.2L932.1 199.2Q932.1 200.8 930.9 202.0ZM930.7 238.1Q929.7 239.2 928.0 239.2Q926.3 239.2 925.3 238.1Q924.4 237.1 924.4 235.3L924.4 235.3L924.4 210.7Q924.4 209.0 925.3 207.9Q926.3 206.9 928.0 206.9Q929.7 206.9 930.7 207.9Q931.7 209.0 931.7 210.8L931.7 210.8L931.7 235.3Q931.7 237.1 930.7 238.1ZM944.1 248.6Q943.0 249.6 941.4 249.6Q939.8 249.6 938.8 248.6Q937.8 247.6 937.8 245.8L937.8 245.8L937.8 210.7Q937.8 208.9 938.8 207.9Q939.7 206.9 941.3 206.9L941.3 206.9Q942.9 206.9 943.9 207.9Q944.9 208.9 944.9 210.7L944.9 210.7L944.9 212.9L945.0 212.9Q946.4 210.1 948.9 208.6Q951.5 207.0 954.8 207.0L954.8 207.0Q960.7 207.0 964.2 211.3Q967.7 215.6 967.7 223.1L967.7 223.1Q967.7 230.5 964.3 234.8Q960.8 239.1 954.9 239.1L954.9 239.1Q951.6 239.1 949.1 237.6Q946.5 236.1 945.2 233.4L945.2 233.4L945.1 233.4L945.1 245.8Q945.1 247.6 944.1 248.6ZM952.6 233.1L952.6 233.1Q956.1 233.1 958.2 230.4Q960.2 227.7 960.2 223.1L960.2 223.1Q960.2 218.5 958.2 215.7Q956.1 213.0 952.6 213.0L952.6 213.0Q949.2 213.0 947.1 215.8Q945.0 218.5 945.0 223.1L945.0 223.1Q945.0 227.6 947.1 230.4Q949.2 233.1 952.6 233.1ZM984.4 239.2L984.4 239.2Q979.6 239.2 976.2 237.5Q972.9 235.8 971.7 233.0L971.7 233.0Q971.4 232.2 971.4 231.5L971.4 231.5Q971.4 230.2 972.3 229.4Q973.1 228.6 974.5 228.6L974.5 228.6Q976.3 228.6 977.6 230.4L977.6 230.4Q978.9 232.3 980.5 233.1Q982.1 233.9 984.6 233.9L984.6 233.9Q987.2 233.9 988.8 232.9Q990.3 231.8 990.3 230.1L990.3 230.1Q990.3 228.7 989.3 227.8Q988.3 227.0 985.9 226.4L985.9 226.4L980.9 225.3Q971.8 223.3 971.8 216.4L971.8 216.4Q971.8 212.1 975.3 209.5Q978.8 206.9 984.5 206.9L984.5 206.9Q988.9 206.9 992.1 208.8Q995.3 210.6 996.1 213.4L996.1 213.4Q996.2 214.0 996.2 214.5L996.2 214.5Q996.2 215.6 995.5 216.4Q994.8 217.1 993.4 217.1L993.4 217.1Q991.6 217.1 990.6 215.7L990.6 215.7Q989.5 214.0 988.0 213.1Q986.5 212.2 984.3 212.2L984.3 212.2Q981.9 212.2 980.4 213.3Q978.9 214.3 978.9 216.0L978.9 216.0Q978.9 218.8 983.5 219.8L983.5 219.8L988.5 220.9Q993.4 222.0 995.5 223.9Q997.6 225.9 997.6 229.3L997.6 229.3Q997.6 233.8 994.0 236.5Q990.3 239.2 984.4 239.2Z M1018.6 239.1L1018.6 239.1Q1016.9 239.1 1015.9 238.1Q1015.0 237.1 1015.0 235.3L1015.0 235.3L1015.0 199.7Q1015.0 197.9 1016.0 196.8Q1017.1 195.8 1018.9 195.8L1018.9 195.8Q1020.2 195.8 1021.0 196.3Q1021.9 196.8 1022.8 198.1L1022.8 198.1L1042.5 225.9L1042.8 225.9L1042.8 199.6Q1042.8 197.8 1043.7 196.8Q1044.7 195.8 1046.4 195.8L1046.4 195.8Q1048.1 195.8 1049.1 196.8Q1050.0 197.8 1050.0 199.6L1050.0 199.6L1050.0 235.3Q1050.0 237.1 1049.0 238.1Q1048.0 239.1 1046.2 239.1L1046.2 239.1Q1044.9 239.1 1044.0 238.6Q1043.2 238.1 1042.3 236.8L1042.3 236.8L1022.5 208.9L1022.3 208.9L1022.3 235.3Q1022.3 237.1 1021.3 238.1Q1020.3 239.1 1018.6 239.1ZM1081.5 234.9Q1077.4 239.2 1070.5 239.2Q1063.6 239.2 1059.6 234.9Q1055.5 230.6 1055.5 223.1L1055.5 223.1Q1055.5 215.6 1059.6 211.2Q1063.7 206.9 1070.5 206.9L1070.5 206.9Q1077.4 206.9 1081.5 211.2Q1085.5 215.6 1085.5 223.1L1085.5 223.1Q1085.5 230.6 1081.5 234.9ZM1065.0 230.7Q1067.0 233.4 1070.5 233.4Q1074.0 233.4 1076.1 230.7Q1078.1 228.0 1078.1 223.1L1078.1 223.1Q1078.1 218.2 1076.1 215.4Q1074.0 212.7 1070.5 212.7L1070.5 212.7Q1067.0 212.7 1065.0 215.4Q1062.9 218.2 1062.9 223.1L1062.9 223.1Q1062.9 228.0 1065.0 230.7Z M68.1 321.1L47.5 321.1Q45.7 321.1 44.7 320.0Q43.7 319.0 43.7 317.2L43.7 317.2L43.7 282.7Q43.7 280.9 44.7 279.8Q45.7 278.8 47.5 278.8L47.5 278.8L68.1 278.8Q69.7 278.8 70.6 279.7Q71.6 280.5 71.6 282.0Q71.6 283.5 70.6 284.3Q69.7 285.2 68.1 285.2L68.1 285.2L51.3 285.2L51.3 296.6L67.2 296.6Q68.7 296.6 69.6 297.4Q70.5 298.2 70.5 299.6Q70.5 301.0 69.6 301.8Q68.7 302.6 67.2 302.6L67.2 302.6L51.3 302.6L51.3 314.7L68.1 314.7Q69.7 314.7 70.6 315.6Q71.6 316.4 71.6 317.9Q71.6 319.3 70.6 320.2Q69.7 321.1 68.1 321.1L68.1 321.1ZM79.3 321.7L79.3 321.7Q77.8 321.7 76.9 320.8Q75.9 320.0 75.9 318.6L75.9 318.6Q75.9 317.5 76.8 316.2L76.8 316.2L84.7 305.6L76.9 294.9Q76.2 293.8 76.2 292.6L76.2 292.6Q76.2 291.2 77.2 290.3Q78.2 289.4 79.7 289.4L79.7 289.4Q80.7 289.4 81.4 289.8Q82.1 290.3 82.8 291.4L82.8 291.4L89.2 300.9L89.4 300.9L95.7 291.4Q96.4 290.3 97.1 289.9Q97.8 289.4 98.7 289.4L98.7 289.4Q100.3 289.4 101.2 290.3Q102.2 291.1 102.2 292.5L102.2 292.5Q102.2 293.7 101.3 294.9L101.3 294.9L93.6 305.4L101.3 316.2Q102.1 317.4 102.1 318.4L102.1 318.4Q102.1 319.9 101.1 320.8Q100.1 321.7 98.7 321.7L98.7 321.7Q96.9 321.7 95.8 319.9L95.8 319.9L89.0 309.9L88.9 309.9L82.2 319.8Q81.5 320.8 80.9 321.3Q80.2 321.7 79.3 321.7ZM113.6 331.1Q112.6 332.1 110.9 332.1Q109.3 332.1 108.3 331.1Q107.3 330.1 107.3 328.3L107.3 328.3L107.3 293.2Q107.3 291.4 108.3 290.4Q109.3 289.4 110.8 289.4L110.8 289.4Q112.5 289.4 113.4 290.4Q114.4 291.4 114.4 293.2L114.4 293.2L114.4 295.4L114.6 295.4Q115.9 292.6 118.5 291.1Q121.0 289.5 124.3 289.5L124.3 289.5Q130.3 289.5 133.8 293.8Q137.2 298.1 137.2 305.6L137.2 305.6Q137.2 313.0 133.8 317.3Q130.3 321.6 124.5 321.6L124.5 321.6Q121.1 321.6 118.6 320.1Q116.0 318.6 114.7 315.9L114.7 315.9L114.6 315.9L114.6 328.3Q114.6 330.1 113.6 331.1ZM122.1 315.6L122.1 315.6Q125.7 315.6 127.7 312.9Q129.8 310.2 129.8 305.6L129.8 305.6Q129.8 301.0 127.7 298.2Q125.6 295.5 122.1 295.5L122.1 295.5Q118.7 295.5 116.6 298.3Q114.6 301.0 114.5 305.6L114.5 305.6Q114.6 310.1 116.6 312.9Q118.7 315.6 122.1 315.6ZM148.4 320.7Q147.4 321.7 145.8 321.7Q144.2 321.7 143.1 320.7Q142.1 319.6 142.1 317.8L142.1 317.8L142.1 282.1Q142.1 280.2 143.1 279.2Q144.2 278.2 145.8 278.2Q147.4 278.2 148.4 279.2Q149.4 280.2 149.4 282.1L149.4 282.1L149.4 317.8Q149.4 319.6 148.4 320.7ZM164.7 321.6L164.7 321.6Q160.2 321.6 157.3 319.0Q154.4 316.4 154.4 312.2L154.4 312.2Q154.4 308.1 157.4 305.7Q160.5 303.3 166.2 302.9L166.2 302.9L174.4 302.4L174.4 300.2Q174.4 297.8 172.9 296.4Q171.3 295.1 168.6 295.1L168.6 295.1Q166.4 295.1 165.0 295.9Q163.5 296.7 162.1 298.7L162.1 298.7Q161.0 300.2 159.2 300.2L159.2 300.2Q157.8 300.2 156.9 299.4Q156.1 298.6 156.1 297.3L156.1 297.3Q156.1 296.3 156.6 295.3L156.6 295.3Q157.7 292.6 161.1 291.0Q164.5 289.4 168.9 289.4L168.9 289.4Q174.7 289.4 178.1 292.2Q181.6 295.0 181.6 299.7L181.6 299.7L181.6 318.0Q181.6 319.7 180.6 320.7Q179.7 321.7 178.1 321.7L178.1 321.7Q176.6 321.7 175.6 320.8Q174.7 319.9 174.6 318.3L174.6 318.3L174.6 316.1L174.4 316.1Q173.1 318.6 170.5 320.1Q167.8 321.6 164.7 321.6ZM167.0 316.1L167.0 316.1Q170.1 316.1 172.2 314.2Q174.4 312.3 174.4 309.6L174.4 309.6L174.4 307.2L167.2 307.6Q164.6 307.8 163.1 308.9Q161.7 310.1 161.7 311.9L161.7 311.9Q161.7 313.8 163.1 314.9Q164.6 316.1 167.0 316.1ZM193.8 320.7Q192.8 321.7 191.1 321.7Q189.5 321.7 188.5 320.7Q187.5 319.6 187.5 317.8L187.5 317.8L187.5 293.1Q187.5 291.4 188.4 290.4Q189.4 289.4 191.0 289.4Q192.6 289.4 193.6 290.4Q194.6 291.4 194.6 293.1L194.6 293.1L194.6 295.3L194.7 295.3Q197.4 289.4 204.4 289.4L204.4 289.4Q209.5 289.4 212.3 292.5Q215.1 295.6 215.1 301.0L215.1 301.0L215.1 317.8Q215.1 319.6 214.1 320.7Q213.1 321.7 211.5 321.7Q209.9 321.7 208.9 320.7Q207.8 319.6 207.8 317.8L207.8 317.8L207.8 302.5Q207.8 299.1 206.3 297.4Q204.7 295.6 201.6 295.6L201.6 295.6Q198.5 295.6 196.6 297.7Q194.8 299.7 194.8 303.1L194.8 303.1L194.8 317.8Q194.8 319.6 193.8 320.7ZM230.1 321.6L230.1 321.6Q225.5 321.6 222.6 319.0Q219.7 316.4 219.7 312.2L219.7 312.2Q219.7 308.1 222.8 305.7Q225.8 303.3 231.5 302.9L231.5 302.9L239.7 302.4L239.7 300.2Q239.7 297.8 238.2 296.4Q236.7 295.1 233.9 295.1L233.9 295.1Q231.8 295.1 230.3 295.9Q228.8 296.7 227.4 298.7L227.4 298.7Q226.3 300.2 224.5 300.2L224.5 300.2Q223.1 300.2 222.3 299.4Q221.4 298.6 221.4 297.3L221.4 297.3Q221.4 296.3 221.9 295.3L221.9 295.3Q223.1 292.6 226.4 291.0Q229.8 289.4 234.2 289.4L234.2 289.4Q240.0 289.4 243.5 292.2Q247.0 295.0 247.0 299.7L247.0 299.7L247.0 318.0Q247.0 319.7 246.0 320.7Q245.0 321.7 243.4 321.7L243.4 321.7Q241.9 321.7 240.9 320.8Q240.0 319.9 239.9 318.3L239.9 318.3L239.9 316.1L239.8 316.1Q238.5 318.6 235.8 320.1Q233.1 321.6 230.1 321.6ZM232.3 316.1L232.3 316.1Q235.4 316.1 237.6 314.2Q239.7 312.3 239.7 309.6L239.7 309.6L239.7 307.2L232.5 307.6Q229.9 307.8 228.5 308.9Q227.0 310.1 227.0 311.9L227.0 311.9Q227.0 313.8 228.5 314.9Q229.9 316.1 232.3 316.1ZM254.8 313.4L254.8 313.4L254.8 295.6L252.9 295.6Q251.5 295.6 250.7 294.9Q249.9 294.1 249.9 292.8L249.9 292.8Q249.9 291.5 250.7 290.8Q251.5 290.0 252.9 290.0L252.9 290.0L254.8 290.0L254.8 285.9Q254.8 284.1 255.8 283.1Q256.8 282.1 258.5 282.1L258.5 282.1Q260.2 282.1 261.1 283.1Q262.1 284.1 262.1 285.9L262.1 285.9L262.1 290.0L265.5 290.0Q266.9 290.0 267.7 290.8Q268.4 291.5 268.4 292.8L268.4 292.8Q268.4 294.1 267.6 294.9Q266.8 295.6 265.5 295.6L265.5 295.6L262.1 295.6L262.1 311.8Q262.1 313.6 262.8 314.4Q263.5 315.2 265.1 315.4L265.1 315.4L265.6 315.4Q268.5 315.7 268.5 318.1L268.5 318.1Q268.5 319.7 267.2 320.6Q265.8 321.4 263.3 321.4L263.3 321.4L263.0 321.4Q254.8 321.4 254.8 313.4ZM279.6 284.5Q278.4 285.7 276.7 285.7Q275.0 285.7 273.9 284.5Q272.7 283.3 272.7 281.7L272.7 281.7Q272.7 280.0 273.9 278.9Q275.0 277.7 276.7 277.7L276.7 277.7Q278.5 277.7 279.6 278.9Q280.8 280.0 280.8 281.7L280.8 281.7Q280.8 283.3 279.6 284.5ZM279.4 320.6Q278.4 321.7 276.7 321.7Q275.1 321.7 274.1 320.6Q273.1 319.6 273.1 317.8L273.1 317.8L273.1 293.2Q273.1 291.5 274.1 290.4Q275.1 289.4 276.7 289.4Q278.4 289.4 279.4 290.4Q280.4 291.5 280.4 293.3L280.4 293.3L280.4 317.8Q280.4 319.6 279.4 320.6ZM311.2 317.4Q307.2 321.7 300.3 321.7Q293.4 321.7 289.3 317.4Q285.2 313.1 285.2 305.6L285.2 305.6Q285.2 298.1 289.3 293.7Q293.4 289.4 300.3 289.4L300.3 289.4Q307.1 289.4 311.2 293.7Q315.3 298.1 315.3 305.6L315.3 305.6Q315.3 313.1 311.2 317.4ZM294.7 313.2Q296.8 315.9 300.3 315.9Q303.8 315.9 305.8 313.2Q307.9 310.5 307.9 305.6L307.9 305.6Q307.9 300.7 305.8 297.9Q303.8 295.2 300.3 295.2L300.3 295.2Q296.8 295.2 294.7 297.9Q292.7 300.7 292.7 305.6L292.7 305.6Q292.7 310.5 294.7 313.2ZM326.3 320.7Q325.3 321.7 323.6 321.7Q322.0 321.7 321.0 320.7Q320.0 319.6 320.0 317.8L320.0 317.8L320.0 293.1Q320.0 291.4 320.9 290.4Q321.9 289.4 323.5 289.4Q325.1 289.4 326.1 290.4Q327.1 291.4 327.1 293.1L327.1 293.1L327.1 295.3L327.2 295.3Q329.9 289.4 336.9 289.4L336.9 289.4Q342.0 289.4 344.8 292.5Q347.6 295.6 347.6 301.0L347.6 301.0L347.6 317.8Q347.6 319.6 346.7 320.7Q345.7 321.7 344.0 321.7Q342.4 321.7 341.4 320.7Q340.4 319.6 340.4 317.8L340.4 317.8L340.4 302.5Q340.4 299.1 338.8 297.4Q337.2 295.6 334.1 295.6L334.1 295.6Q331.0 295.6 329.1 297.7Q327.3 299.7 327.3 303.1L327.3 303.1L327.3 317.8Q327.3 319.6 326.3 320.7Z "/><defs><clipPath id="satori_bc-id-0-1"><rect x="0" y="441" width="1200" height="189"/></clipPath></defs><mask id="satori_om-id-0-1"><rect x="0" y="442" width="1200" height="188" fill="#fff"/><path width="1200" height="189" fill="none" stroke="#000" stroke-width="2" d="M0,441 A0,0 0 0 1 0,441 h1200 A0,0 0 0 1 1200,441"/></mask><path width="1200" height="189" clip-path="url(#satori_bc-id-0-1)" fill="none" stroke="#dbdbdb" stroke-width="2" d="M0,441 A0,0 0 0 1 0,441 h1200 A0,0 0 0 1 1200,441"/><mask id="satori_om-id-0-1-0"><rect x="40" y="482" width="292" height="108" fill="#fff"/></mask><clipPath id="satori_cp-id-0-1-0-0"><rect x="40" y="504" width="64" height="64"/></clipPath><mask id="satori_om-id-0-1-0-0"><rect x="40" y="504" width="64" height="64" fill="#fff"/></mask><image x="40" y="504" width="64" height="64" href="data:image/svg+xml;utf8,%3Csvg  xmlns=%22http://www.w3.org/2000/svg%22 width=%2264%22 height=%2264%22 viewBox=%220 0 128 128%22%3E%3Cpath fill=%22%23224d67%22 d=%22M22.5 14.8c2.9 1.3 99 44 99 44c2.7 1.2 2.9 3.1 2 12.4c-1 10.5-1.9 37.8-40.2 42.9c-24.6 3.2-55.9-4.3-70.9-27.2C-6 58.8 11 23.4 14.8 17.7c2.4-3.5 4.8-4.2 7.7-2.9%22%3E%3C/path%3E%3Cpath fill=%22%23f0f4c3%22 d=%22M121.5 58.8c-.3-.2-92-40.8-98.9-43.9C9.6 31.5-3.8 76 27.9 96.2c33.6 21.5 78.7-10.2 93.6-37.4%22%3E%3C/path%3E%3Cpath fill=%22%23f0f4c3%22 d=%22M117.7 57c-.3-.2-86.7-38.4-93.2-41.3c-12.2 15.5-23.9 59.1 5.7 78c31.4 20.2 73.6-11.2 87.5-36.7%22%3E%3C/path%3E%3Cpath fill=%22%23cb2a42%22 d=%22M56.2 37.6L19.5 48.2c-2.5.8-4.4 2.8-5 5.3c-1.9 8.5.8 23.3 8.9 29.8c3.5 2.7 8.6 1.8 10.8-2.1L58.5 41c1.3-1.7.5-4.2-2.3-3.4m14.3 2.9s14.6 30.1 16 33s6.3 4.7 9.9 2.8c10.7-5.6 15.5-12.4 19.2-20.2c-8.9-3.9-42.4-18.8-42.4-18.8c-2.4-1.1-4 .6-2.7 3.2m-8.6 1.9C60.3 45.1 39.5 81 37.6 84.1c-1.9 3.2-.7 7.5 2.7 9.2c12.3 6.5 30.9.4 39.6-7c2.2-1.9 4.5-5.1 3.2-8.2S68.9 44.6 67.8 42.3c-1.2-2.7-4.1-2.8-5.9.1%22%3E%3C/path%3E%3Cpath fill=%22%23f0f4c3%22 d=%22M52.2 42.2c-1.4.4-10.1 3-11.1 3.4c-1.4.5-2.2 1.7-1.9 2.5c.3.9 1.7 1.1 3.1.6c.8-.3 7.1-3.9 9.5-5.2c-3.1 2.4-10.2 9.4-11.1 10.3c-1.4 1.5-1.7 3.4-.8 4.3c1 .9 2.9.5 4.3-1c1.2-1.3 8.5-12.8 9.1-13.9s.4-1.4-1.1-1m10.1 16.4c0-2.2 1.4-10.3 1.8-12.3c.4-1.6 1.5-1.8 1.8.5s1.7 9.7 1.7 11.8s-1.2 3.3-2.7 3.3c-1.4 0-2.6-1.1-2.6-3.3M79.9 49c-1.2-1.8-3.3-4.9-4.1-6.1c-.7-1.2.1-2.1 1.8-.9s4 2.9 5.4 4c1.6 1.3 1.9 3 .8 4s-2.7.8-3.9-1%22%3E%3C/path%3E%3Cellipse cx=%2287.3%22 cy=%22103.12%22 fill=%22%23cb2a42%22 rx=%223.4%22 ry=%222.3%22 transform=%22rotate(-27.098 87.298 103.126)%22%3E%3C/ellipse%3E%3Cellipse cx=%2298.89%22 cy=%22103.82%22 fill=%22%23cb2a42%22 rx=%223.4%22 ry=%222.3%22 transform=%22rotate(-30.642 98.887 103.818)%22%3E%3C/ellipse%3E%3Cellipse cx=%22102.02%22 cy=%2293.8%22 fill=%22%23cb2a42%22 rx=%223.4%22 ry=%222.3%22 transform=%22rotate(-37.16 102.017 93.797)%22%3E%3C/ellipse%3E%3Cpath fill=%22%23cb2a42%22 d=%22M57.6 30.3c-8.3-3.7-24.4-10.7-29.6-13c-3.6 2.2-9.7 11.4-11.2 21.2c-.6 3.6 1.7 5.9 5.3 4.9c0 0 33.7-9.3 35.3-9.7c1.6-.5 2-2.6.2-3.4%22%3E%3C/path%3E%3C/svg%3E" preserveAspectRatio="none" clip-path="url(#satori_cp-id-0-1-0-0)" mask="url(#satori_om-id-0-1-0-0)"/><mask id="satori_om-id-0-1-0-0-0"><rect x="40" y="504" width="0" height="64" fill="#fff"/></mask><mask id="satori_om-id-0-1-0-0-1"><rect x="40" y="504" width="0" height="64" fill="#fff"/></mask><mask id="satori_om-id-0-1-0-0-2"><rect x="40" y="504" width="0" height="64" fill="#fff"/></mask><mask id="satori_om-id-0-1-0-0-3"><rect x="40" y="504" width="0" height="64" fill="#fff"/></mask><mask id="satori_om-id-0-1-0-0-4"><rect x="40" y="504" width="0" height="64" fill="#fff"/></mask><mask id="satori_om-id-0-1-0-0-5"><rect x="40" y="504" width="0" height="64" fill="#fff"/></mask><mask id="satori_om-id-0-1-0-0-6"><rect x="40" y="504" width="0" height="64" fill="#fff"/></mask><mask id="satori_om-id-0-1-0-0-7"><rect x="40" y="504" width="0" height="64" fill="#fff"/></mask><mask id="satori_om-id-0-1-0-0-8"><rect x="40" y="504" width="0" height="64" fill="#fff"/></mask><mask id="satori_om-id-0-1-0-1"><rect x="116" y="512" width="216" height="48" fill="#fff"/></mask><path fill="#545454" d="M121.1 553.5L121.1 553.5Q119.4 553.5 118.4 552.6Q117.5 551.7 117.5 550.2L117.5 550.2Q117.5 549.3 117.9 547.9L117.9 547.9L127.2 522.8Q127.9 520.7 129.2 519.7Q130.5 518.8 132.5 518.8L132.5 518.8Q134.6 518.8 135.9 519.7Q137.2 520.7 137.9 522.8L137.9 522.8L147.2 547.9Q147.6 549.2 147.6 550.2L147.6 550.2Q147.6 551.6 146.6 552.6Q145.6 553.5 144.1 553.5L144.1 553.5Q142.6 553.5 141.7 552.8Q140.9 552.1 140.4 550.4L140.4 550.4L138.6 545.0L126.4 545.0L124.6 550.3Q124.2 552.0 123.3 552.8Q122.5 553.5 121.1 553.5ZM132.4 525.7L128.0 539.6L137 539.6L132.5 525.7L132.4 525.7ZM159.1 552.6Q158.2 553.6 156.6 553.6Q155.0 553.6 154.1 552.6Q153.2 551.7 153.2 550.0L153.2 550.0L153.2 533.1L151.9 533.1Q150.8 533.1 150.1 532.4Q149.4 531.7 149.4 530.6Q149.4 529.4 150.1 528.7Q150.8 528.1 151.9 528.1L151.9 528.1L153.2 528.1L153.2 526.2Q153.2 522.5 155.0 520.7Q156.7 519.0 160.3 518.9L160.3 518.9Q163.0 518.9 164.2 519.7Q165.5 520.4 165.5 521.7L165.5 521.7Q165.5 523.1 164.1 523.5L164.1 523.5Q163.5 523.7 162.8 523.7L162.8 523.7Q161.2 523.7 160.5 524.4Q159.9 525.1 159.9 526.5L159.9 526.5L159.9 528.1L162.7 528.1Q163.8 528.1 164.5 528.7Q165.2 529.4 165.2 530.6Q165.2 531.7 164.5 532.4Q163.8 533.1 162.7 533.1L162.7 533.1L160.0 533.1L160.0 550.0Q160.0 551.7 159.1 552.6ZM170.3 546.6L170.3 546.6L170.3 533.1L168.9 533.1Q167.7 533.1 167.0 532.4Q166.3 531.7 166.3 530.5Q166.3 529.3 167.0 528.6Q167.7 527.9 168.9 527.9L168.9 527.9L170.3 527.9L170.3 525.1Q170.3 523.5 171.2 522.5Q172.1 521.6 173.7 521.6Q175.3 521.6 176.2 522.5Q177.1 523.5 177.1 525.1L177.1 525.1L177.1 527.9L179.5 527.9Q180.7 527.9 181.4 528.6Q182.1 529.3 182.1 530.5Q182.1 531.7 181.4 532.4Q180.7 533.1 179.5 533.1L179.5 533.1L177.1 533.1L177.1 545.1Q177.1 546.5 177.6 547.1Q178.1 547.7 179.2 547.8L179.2 547.8L179.6 547.8Q180.9 548.0 181.6 548.5Q182.2 549.1 182.2 550.3L182.2 550.3Q182.2 551.8 180.9 552.6Q179.6 553.3 177.4 553.3L177.4 553.3L177.1 553.3Q170.3 553.3 170.3 546.6ZM197.0 553.6L197.0 553.6Q191.2 553.6 187.9 550.2Q184.6 546.7 184.6 540.6L184.6 540.6Q184.6 534.5 187.9 531.0Q191.1 527.4 196.7 527.4L196.7 527.4Q202.0 527.4 205.3 530.7Q208.6 533.9 208.6 539.1L208.6 539.1Q208.6 540.5 207.9 541.3Q207.1 542.1 205.6 542.1L205.6 542.1L191.3 542.1L191.3 542.4Q191.3 545.2 192.9 546.9Q194.4 548.5 197.0 548.5L197.0 548.5Q198.9 548.5 200.3 547.8Q201.6 547.2 203.0 545.5L203.0 545.5Q204.0 544.5 205.3 544.5L205.3 544.5Q206.4 544.5 207.2 545.2Q207.9 545.9 207.9 547.0L207.9 547.0Q207.9 547.8 207.5 548.7L207.5 548.7Q206.2 551 203.4 552.3Q200.7 553.6 197.0 553.6ZM191.4 537.9L191.4 537.9L202.0 537.9Q201.9 535.4 200.5 533.9Q199.0 532.5 196.8 532.5Q194.5 532.5 193.1 534.0Q191.6 535.5 191.4 537.9ZM215.6 553.6L215.6 553.6Q214.0 553.6 213.1 552.6Q212.1 551.7 212.1 550.0L212.1 550.0L212.1 530.9Q212.1 529.3 213.0 528.3Q213.9 527.4 215.4 527.4L215.4 527.4Q216.9 527.4 217.8 528.3Q218.7 529.3 218.7 530.9L218.7 530.9L218.7 532.5L218.8 532.5Q219.3 530.2 220.7 528.9Q222.1 527.5 224.0 527.5L224.0 527.5Q225.4 527.5 226.2 528.2L226.2 528.2Q227.2 528.9 227.2 530.7L227.2 530.7Q227.2 532.3 226.2 533.2L226.2 533.2Q225.2 534.0 223.2 534.1L223.2 534.1Q221.0 534.1 220.0 535.3Q219.0 536.5 219.0 538.8L219.0 538.8L219.0 550.0Q219.0 551.7 218.1 552.6Q217.2 553.6 215.6 553.6ZM242.6 553.6L242.6 553.6Q237.5 553.6 234.1 551.8Q230.8 550.0 229.7 547.1L229.7 547.1Q229.4 546.1 229.4 545.2L229.4 545.2Q229.4 543.8 230.2 543.0Q231.1 542.1 232.5 542.1L232.5 542.1Q233.6 542.1 234.3 542.6Q235.1 543.1 235.7 544.2L235.7 544.2Q236.5 546.1 238.4 547.0Q240.2 547.9 242.7 547.9L242.7 547.9Q245.6 547.9 247.3 546.7Q249.1 545.5 249.1 543.6L249.1 543.6Q249.1 541.9 247.8 540.9Q246.4 539.9 243.3 539.3L243.3 539.3L239.7 538.6Q229.6 536.6 229.6 528.9L229.6 528.9Q229.6 525.9 231.3 523.5Q232.9 521.2 235.9 519.9Q238.8 518.7 242.5 518.7L242.5 518.7Q247.2 518.7 250.5 520.5Q253.8 522.4 254.9 525.7L254.9 525.7Q255.1 526.4 255.1 527.2L255.1 527.2Q255.1 528.5 254.3 529.3Q253.5 530.1 252.1 530.1L252.1 530.1Q250.9 530.1 250.1 529.6Q249.4 529.1 248.8 528.0L248.8 528.0Q247.2 524.4 242.5 524.4L242.5 524.4Q239.9 524.4 238.3 525.5Q236.7 526.6 236.7 528.5L236.7 528.5Q236.7 530.1 238.1 531.1Q239.4 532.1 242.4 532.7L242.4 532.7L245.9 533.4Q251.3 534.5 253.7 536.7Q256.2 539.0 256.2 542.8L256.2 542.8Q256.2 547.8 252.5 550.7Q248.9 553.6 242.6 553.6ZM266.0 552.6Q265.0 553.6 263.5 553.6Q261.9 553.6 261.0 552.6Q260.1 551.7 260.1 550.0L260.1 550.0L260.1 522.2Q260.1 520.6 261.0 519.7Q261.9 518.7 263.4 518.7L263.4 518.7Q265.0 518.7 265.9 519.7Q266.8 520.6 266.8 522.2L266.8 522.2L266.8 532.4L266.9 532.4Q267.9 530.0 270.0 528.7Q272 527.5 274.8 527.5L274.8 527.5Q279.0 527.5 281.3 530.0Q283.6 532.5 283.6 536.9L283.6 536.9L283.6 550.0Q283.6 551.7 282.7 552.6Q281.7 553.6 280.2 553.6Q278.6 553.6 277.7 552.6Q276.8 551.7 276.8 550.0L276.8 550.0L276.8 538.3Q276.8 535.9 275.6 534.5Q274.3 533.1 272.0 533.1L272.0 533.1Q269.7 533.1 268.3 534.7Q266.9 536.2 266.9 538.7L266.9 538.7L266.9 550.0Q266.9 551.7 266.0 552.6ZM294.1 523.8Q293.0 524.8 291.5 524.8Q290.0 524.8 288.9 523.8Q287.8 522.8 287.8 521.3L287.8 521.3Q287.8 519.8 288.9 518.8Q290.0 517.7 291.5 517.7Q293.0 517.7 294.1 518.8Q295.2 519.8 295.2 521.3L295.2 521.3Q295.2 522.8 294.1 523.8ZM294.0 552.6Q293.1 553.6 291.5 553.6Q289.9 553.6 289.0 552.6Q288.1 551.7 288.1 550.0L288.1 550.0L288.1 531.0Q288.1 529.3 289.0 528.4Q289.9 527.4 291.5 527.4Q293.1 527.4 294.0 528.4Q294.9 529.3 294.9 531.0L294.9 531.0L294.9 550.0Q294.9 551.7 294.0 552.6ZM307.2 552.6Q306.3 553.6 304.7 553.6Q303.1 553.6 302.2 552.6Q301.3 551.7 301.3 550.0L301.3 550.0L301.3 533.1L300.0 533.1Q298.9 533.1 298.2 532.4Q297.5 531.7 297.5 530.6Q297.5 529.4 298.2 528.7Q298.9 528.1 300.0 528.1L300.0 528.1L301.3 528.1L301.3 526.2Q301.3 522.5 303.1 520.7Q304.9 519.0 308.5 518.9L308.5 518.9Q311.1 518.9 312.4 519.7Q313.6 520.4 313.6 521.7L313.6 521.7Q313.6 523.1 312.2 523.5L312.2 523.5Q311.6 523.7 310.9 523.7L310.9 523.7Q309.4 523.7 308.7 524.4Q308.0 525.1 308.0 526.5L308.0 526.5L308.0 528.1L310.9 528.1Q312.0 528.1 312.7 528.7Q313.4 529.4 313.4 530.6Q313.4 531.7 312.7 532.4Q312.0 533.1 310.9 533.1L310.9 533.1L308.1 533.1L308.1 550.0Q308.1 551.7 307.2 552.6ZM318.4 546.6L318.4 546.6L318.4 533.1L317.1 533.1Q315.9 533.1 315.1 532.4Q314.4 531.7 314.4 530.5Q314.4 529.3 315.1 528.6Q315.9 527.9 317.1 527.9L317.1 527.9L318.4 527.9L318.4 525.1Q318.4 523.5 319.3 522.5Q320.2 521.6 321.8 521.6Q323.4 521.6 324.3 522.5Q325.2 523.5 325.2 525.1L325.2 525.1L325.2 527.9L327.6 527.9Q328.9 527.9 329.6 528.6Q330.3 529.3 330.3 530.5Q330.3 531.7 329.6 532.4Q328.9 533.1 327.6 533.1L327.6 533.1L325.2 533.1L325.2 545.1Q325.2 546.5 325.7 547.1Q326.2 547.7 327.3 547.8L327.3 547.8L327.8 547.8Q329.1 548.0 329.7 548.5Q330.4 549.1 330.4 550.3L330.4 550.3Q330.4 551.8 329.0 552.6Q327.7 553.3 325.5 553.3L325.5 553.3L325.3 553.3Q318.4 553.3 318.4 546.6Z "/><mask id="satori_om-id-0-1-1"><rect x="924" y="524" width="236" height="36" fill="#fff"/></mask><path fill="#8e8e8e" d="M927.9 552.6Q927.5 552.9 927.0 552.9Q926.4 552.9 926.1 552.6Q925.8 552.2 925.8 551.7L925.8 551.7L925.8 532.6Q925.8 532.0 926.1 531.6Q926.5 531.3 927.1 531.3Q927.6 531.3 928.0 531.6Q928.3 532.0 928.3 532.6L928.3 532.6L928.3 540.0L928.4 540.0Q929.1 538.7 930.4 537.9Q931.7 537.2 933.3 537.2L933.3 537.2Q936.2 537.2 937.9 539.3Q939.7 541.5 939.7 545.0L939.7 545.0Q939.7 548.6 937.9 550.8Q936.2 552.9 933.2 552.9L933.2 552.9Q931.6 552.9 930.3 552.2Q929.0 551.4 928.3 550.1L928.3 550.1L928.2 550.1L928.2 551.7Q928.2 552.2 927.9 552.6ZM932.7 550.7L932.7 550.7Q934.8 550.7 935.9 549.2Q937.1 547.7 937.1 545.0L937.1 545.0Q937.1 542.5 935.9 540.9Q934.8 539.4 932.7 539.4L932.7 539.4Q930.8 539.4 929.6 541.0Q928.3 542.5 928.3 545.0L928.3 545.0Q928.3 547.6 929.6 549.1Q930.8 550.7 932.7 550.7ZM943.8 558.4L943.8 558.4Q942.9 558.4 942.4 558.0Q941.9 557.7 941.9 557.1L941.9 557.1Q941.9 556.7 942.1 556.4Q942.4 556.2 942.9 556.2L942.9 556.2Q943.1 556.2 943.3 556.2Q943.5 556.2 943.7 556.2L943.7 556.2Q945.4 556.2 946.2 553.7L946.2 553.7L946.6 552.7L941.3 539.0Q941.2 538.6 941.2 538.3L941.2 538.3Q941.2 537.8 941.6 537.5Q941.9 537.2 942.5 537.2L942.5 537.2Q943.4 537.2 943.7 538.1L943.7 538.1L947.9 550.1L948.0 550.1L952.2 538.1Q952.3 537.6 952.6 537.4Q952.9 537.2 953.4 537.2L953.4 537.2Q953.9 537.2 954.3 537.5Q954.6 537.8 954.6 538.3L954.6 538.3Q954.6 538.6 954.5 539.0L954.5 539.0L948.9 553.7Q947.9 556.4 946.8 557.4Q945.7 558.4 943.8 558.4Z M965.7 552.5Q965.3 552.9 964.7 552.9Q964.1 552.9 963.8 552.5Q963.4 552.1 963.4 551.5L963.4 551.5L963.4 532.9Q963.4 532.3 963.8 531.9Q964.1 531.5 964.7 531.5L964.7 531.5L970.9 531.5Q973.9 531.5 975.8 533.4Q977.7 535.3 977.7 538.3L977.7 538.3Q977.7 541.3 975.8 543.2Q973.9 545.1 970.9 545.1L970.9 545.1L966.0 545.1L966.0 551.5Q966.0 552.1 965.7 552.5ZM966.0 533.9L966.0 542.8L970.3 542.8Q972.5 542.8 973.8 541.6Q975.0 540.4 975.0 538.3Q975.0 536.2 973.8 535.0Q972.5 533.9 970.3 533.9L970.3 533.9L966.0 533.9ZM984.8 552.9L984.8 552.9Q982.5 552.9 981.1 551.7Q979.7 550.4 979.7 548.4L979.7 548.4Q979.7 546.4 981.2 545.2Q982.6 544.1 985.2 543.9L985.2 543.9L989.6 543.7L989.6 542.4Q989.6 541.0 988.7 540.2Q987.9 539.4 986.3 539.4L986.3 539.4Q985.0 539.4 984.1 539.9Q983.3 540.4 982.6 541.5L982.6 541.5Q982.3 542.1 981.6 542.1L981.6 542.1Q981.1 542.1 980.8 541.8Q980.5 541.5 980.5 541.0Q980.5 540.5 980.8 539.9L980.8 539.9Q981.4 538.7 982.9 537.9Q984.5 537.2 986.3 537.2L986.3 537.2Q989.0 537.2 990.6 538.5Q992.2 539.9 992.2 542.1L992.2 542.1L992.2 551.6Q992.2 552.2 991.8 552.6Q991.5 552.9 991.0 552.9L991.0 552.9Q990.4 552.9 990.1 552.6Q989.7 552.2 989.7 551.6L989.7 551.6L989.7 550.0L989.7 550.0Q989.0 551.3 987.7 552.1Q986.3 552.9 984.8 552.9ZM985.3 550.8L985.3 550.8Q987.1 550.8 988.4 549.6Q989.6 548.5 989.6 546.9L989.6 546.9L989.6 545.6L985.5 545.9Q984.0 546.0 983.1 546.6Q982.3 547.3 982.3 548.4Q982.3 549.4 983.1 550.1Q984.0 550.8 985.3 550.8ZM996.2 549.1L996.2 549.1L996.2 539.5L994.9 539.5Q994.4 539.5 994.1 539.3Q993.8 539.0 993.8 538.5L993.8 538.5Q993.8 538.0 994.1 537.7Q994.4 537.4 994.9 537.4L994.9 537.4L996.2 537.4L996.2 534.8Q996.2 534.2 996.6 533.8Q996.9 533.5 997.5 533.5Q998.0 533.5 998.4 533.8Q998.8 534.2 998.8 534.8L998.8 534.8L998.8 537.4L1000.7 537.4Q1001.3 537.4 1001.6 537.7Q1001.9 538.0 1001.9 538.5L1001.9 538.5Q1001.9 539.0 1001.6 539.3Q1001.3 539.5 1000.7 539.5L1000.7 539.5L998.8 539.5L998.8 548.6Q998.8 549.6 999.2 550.0Q999.6 550.5 1000.5 550.6L1000.5 550.6L1000.7 550.6Q1001.9 550.7 1001.9 551.6L1001.9 551.6Q1001.9 552.2 1001.5 552.5Q1001.1 552.8 1000.1 552.8L1000.1 552.8L999.9 552.8Q996.2 552.8 996.2 549.1ZM1006.6 552.5Q1006.3 552.9 1005.7 552.9Q1005.2 552.9 1004.8 552.5Q1004.4 552.2 1004.4 551.6L1004.4 551.6L1004.4 538.5Q1004.4 537.9 1004.8 537.5Q1005.1 537.2 1005.6 537.2Q1006.2 537.2 1006.5 537.5Q1006.8 537.9 1006.8 538.5L1006.8 538.5L1006.8 539.9L1006.9 539.9Q1007.2 538.7 1008.2 537.9Q1009.2 537.2 1010.4 537.2L1010.4 537.2Q1011.2 537.2 1011.6 537.5L1011.6 537.5Q1011.9 537.8 1011.9 538.4L1011.9 538.4Q1011.9 539.0 1011.5 539.3L1011.5 539.3Q1011.1 539.6 1010.3 539.6L1010.3 539.6Q1008.6 539.6 1007.8 540.6Q1007.0 541.6 1007.0 543.2L1007.0 543.2L1007.0 551.6Q1007.0 552.2 1006.6 552.5ZM1015.1 534.9L1015.1 534.9Q1014.4 534.9 1014.0 534.4Q1013.5 533.9 1013.5 533.3L1013.5 533.3Q1013.5 532.6 1014.0 532.2Q1014.4 531.7 1015.1 531.7L1015.1 531.7Q1015.7 531.7 1016.2 532.2Q1016.7 532.6 1016.7 533.3L1016.7 533.3Q1016.7 533.9 1016.2 534.4Q1015.7 534.9 1015.1 534.9ZM1016.0 552.5Q1015.6 552.9 1015.1 552.9Q1014.5 552.9 1014.2 552.5Q1013.8 552.2 1013.8 551.6L1013.8 551.6L1013.8 538.5Q1013.8 537.9 1014.2 537.5Q1014.5 537.2 1015.1 537.2Q1015.6 537.2 1016.0 537.5Q1016.4 537.9 1016.4 538.5L1016.4 538.5L1016.4 551.6Q1016.4 552.2 1016.0 552.5ZM1026.1 552.9L1026.1 552.9Q1022.9 552.9 1021.0 550.8Q1019.1 548.7 1019.1 545.1Q1019.1 541.5 1021.0 539.3Q1022.9 537.2 1026.1 537.2L1026.1 537.2Q1028.2 537.2 1029.9 538.2Q1031.6 539.3 1032.0 540.9L1032.0 540.9Q1032.1 541.2 1032.1 541.4L1032.1 541.4Q1032.1 542.0 1031.8 542.3Q1031.5 542.6 1031.0 542.6L1031.0 542.6Q1030.6 542.6 1030.3 542.4Q1030.1 542.2 1029.8 541.7L1029.8 541.7Q1028.6 539.4 1026.1 539.4L1026.1 539.4Q1024.1 539.4 1022.9 541.0Q1021.6 542.5 1021.6 545.0L1021.6 545.0Q1021.6 547.6 1022.9 549.2Q1024.1 550.7 1026.1 550.7L1026.1 550.7Q1027.4 550.7 1028.3 550.1Q1029.2 549.6 1029.8 548.4L1029.8 548.4Q1030.1 547.9 1030.3 547.7Q1030.6 547.5 1031.0 547.5L1031.0 547.5Q1031.5 547.5 1031.8 547.8Q1032.1 548.2 1032.1 548.7L1032.1 548.7Q1032.1 548.9 1032.0 549.3L1032.0 549.3Q1031.4 550.9 1029.8 551.9Q1028.2 552.9 1026.1 552.9ZM1041.2 552.9L1041.2 552.9Q1037.8 552.9 1036.0 550.9Q1034.1 548.8 1034.1 545.1L1034.1 545.1Q1034.1 541.5 1036.0 539.3Q1037.8 537.2 1041.0 537.2L1041.0 537.2Q1043.9 537.2 1045.8 539.1Q1047.6 541.1 1047.6 544.3L1047.6 544.3Q1047.6 544.9 1047.3 545.3Q1046.9 545.7 1046.2 545.7L1046.2 545.7L1036.7 545.7Q1036.7 548.0 1037.9 549.4Q1039.1 550.7 1041.1 550.7L1041.1 550.7Q1042.5 550.7 1043.4 550.2Q1044.3 549.6 1045.2 548.3L1045.2 548.3Q1045.6 547.8 1046.2 547.8L1046.2 547.8Q1046.7 547.8 1047.0 548.1Q1047.3 548.4 1047.3 548.9L1047.3 548.9Q1047.3 549.2 1047.1 549.7L1047.1 549.7Q1046.4 551.2 1044.8 552.1Q1043.3 552.9 1041.2 552.9ZM1036.7 543.7L1036.7 543.7L1045.0 543.7Q1045.0 541.8 1043.8 540.6Q1042.7 539.4 1041.0 539.4L1041.0 539.4Q1039.2 539.4 1038.0 540.6Q1036.8 541.8 1036.7 543.7Z M1059.0 552.5Q1058.7 552.9 1058.1 552.9Q1057.5 552.9 1057.1 552.5Q1056.7 552.1 1056.7 551.5L1056.7 551.5L1056.7 532.7Q1056.7 532.1 1057.1 531.7Q1057.5 531.3 1058.1 531.3Q1058.7 531.3 1059.0 531.7Q1059.4 532.1 1059.4 532.7L1059.4 532.7L1059.4 541.8L1059.5 541.8L1068.9 531.8Q1069.4 531.3 1070.0 531.3L1070.0 531.3Q1070.5 531.3 1070.9 531.7Q1071.2 532.0 1071.2 532.5L1071.2 532.5Q1071.2 533.0 1070.9 533.3L1070.9 533.3L1063.6 540.9L1071.7 550.6Q1072.1 551.1 1072.1 551.6L1072.1 551.6Q1072.1 552.2 1071.7 552.5Q1071.3 552.9 1070.8 552.9L1070.8 552.9Q1070.1 552.9 1069.6 552.2L1069.6 552.2L1061.7 542.8L1059.4 545.3L1059.4 551.5Q1059.4 552.1 1059.0 552.5ZM1081.2 552.9L1081.2 552.9Q1077.8 552.9 1075.9 550.9Q1074.1 548.8 1074.1 545.1L1074.1 545.1Q1074.1 541.5 1075.9 539.3Q1077.8 537.2 1081.0 537.2L1081.0 537.2Q1083.9 537.2 1085.8 539.1Q1087.6 541.1 1087.6 544.3L1087.6 544.3Q1087.6 544.9 1087.2 545.3Q1086.9 545.7 1086.2 545.7L1086.2 545.7L1076.7 545.7Q1076.7 548.0 1077.9 549.4Q1079.1 550.7 1081.1 550.7L1081.1 550.7Q1082.5 550.7 1083.4 550.2Q1084.3 549.6 1085.2 548.3L1085.2 548.3Q1085.6 547.8 1086.2 547.8L1086.2 547.8Q1086.7 547.8 1087.0 548.1Q1087.3 548.4 1087.3 548.9L1087.3 548.9Q1087.3 549.2 1087.1 549.7L1087.1 549.7Q1086.4 551.2 1084.8 552.1Q1083.3 552.9 1081.2 552.9ZM1076.7 543.7L1076.7 543.7L1085.0 543.7Q1084.9 541.8 1083.8 540.6Q1082.7 539.4 1080.9 539.4L1080.9 539.4Q1079.1 539.4 1078.0 540.6Q1076.8 541.8 1076.7 543.7ZM1092.4 552.5Q1092.0 552.9 1091.4 552.9Q1090.9 552.9 1090.5 552.5Q1090.2 552.2 1090.2 551.6L1090.2 551.6L1090.2 538.5Q1090.2 537.9 1090.5 537.5Q1090.8 537.2 1091.4 537.2Q1091.9 537.2 1092.2 537.5Q1092.6 537.9 1092.6 538.5L1092.6 538.5L1092.6 539.9L1092.6 539.9Q1093.3 538.6 1094.5 537.9Q1095.8 537.2 1097.5 537.2L1097.5 537.2Q1100.0 537.2 1101.3 538.7Q1102.7 540.2 1102.7 542.8L1102.7 542.8L1102.7 551.6Q1102.7 552.2 1102.4 552.5Q1102.0 552.9 1101.5 552.9Q1100.9 552.9 1100.6 552.5Q1100.2 552.2 1100.2 551.6L1100.2 551.6L1100.2 543.2Q1100.2 541.4 1099.3 540.4Q1098.4 539.4 1096.7 539.4L1096.7 539.4Q1094.9 539.4 1093.8 540.6Q1092.7 541.8 1092.7 543.7L1092.7 543.7L1092.7 551.6Q1092.7 552.2 1092.4 552.5ZM1108.2 552.5Q1107.8 552.9 1107.3 552.9Q1106.7 552.9 1106.3 552.5Q1106.0 552.2 1106.0 551.6L1106.0 551.6L1106.0 538.5Q1106.0 537.9 1106.3 537.5Q1106.7 537.2 1107.2 537.2Q1107.7 537.2 1108.0 537.5Q1108.4 537.9 1108.4 538.5L1108.4 538.5L1108.4 539.9L1108.4 539.9Q1109.0 538.6 1110.1 537.9Q1111.3 537.2 1112.8 537.2L1112.8 537.2Q1114.3 537.2 1115.4 537.9Q1116.5 538.7 1117.0 540.1L1117.0 540.1L1117.1 540.1Q1117.7 538.7 1119.0 537.9Q1120.3 537.2 1121.9 537.2L1121.9 537.2Q1124.1 537.2 1125.5 538.5Q1126.8 539.9 1126.8 542.1L1126.8 542.1L1126.8 551.6Q1126.8 552.2 1126.5 552.5Q1126.1 552.9 1125.6 552.9Q1125.0 552.9 1124.6 552.5Q1124.3 552.2 1124.3 551.6L1124.3 551.6L1124.3 542.7Q1124.3 541.2 1123.5 540.3Q1122.6 539.4 1121.1 539.4Q1119.6 539.4 1118.6 540.4Q1117.7 541.4 1117.7 543.0L1117.7 543.0L1117.7 551.6Q1117.7 552.2 1117.3 552.5Q1117.0 552.9 1116.4 552.9Q1115.8 552.9 1115.5 552.5Q1115.1 552.2 1115.1 551.6L1115.1 551.6L1115.1 542.5Q1115.1 541.1 1114.3 540.2Q1113.4 539.4 1112.0 539.4L1112.0 539.4Q1110.5 539.4 1109.5 540.5Q1108.5 541.5 1108.5 543.1L1108.5 543.1L1108.5 551.6Q1108.5 552.2 1108.2 552.5ZM1136.4 552.9L1136.4 552.9Q1133.2 552.9 1131.3 550.8Q1129.3 548.7 1129.3 545.0Q1129.3 541.4 1131.3 539.3Q1133.2 537.2 1136.4 537.2L1136.4 537.2Q1139.6 537.2 1141.5 539.3Q1143.4 541.4 1143.4 545.0L1143.4 545.0Q1143.4 548.7 1141.5 550.8Q1139.6 552.9 1136.4 552.9ZM1133.1 549.2Q1134.3 550.7 1136.4 550.7Q1138.4 550.7 1139.6 549.2Q1140.8 547.7 1140.8 545.0Q1140.8 542.4 1139.6 540.9Q1138.4 539.4 1136.4 539.4Q1134.3 539.4 1133.1 540.9Q1131.9 542.4 1131.9 545.0Q1131.9 547.7 1133.1 549.2ZM1152.5 535.6L1152.5 535.6Q1152.1 535.6 1151.9 535.4Q1151.6 535.2 1151.6 534.8Q1151.6 534.5 1151.8 534.2L1151.8 534.2L1154.0 531.1Q1154.3 530.6 1154.6 530.5Q1154.8 530.3 1155.1 530.3L1155.1 530.3Q1155.6 530.3 1155.9 530.6Q1156.2 530.9 1156.2 531.3L1156.2 531.3Q1156.2 531.7 1155.9 532.1L1155.9 532.1L1153.4 535.1Q1153.0 535.6 1152.5 535.6ZM1152.4 552.9L1152.4 552.9Q1149.0 552.9 1147.1 550.9Q1145.3 548.8 1145.3 545.1L1145.3 545.1Q1145.3 541.5 1147.1 539.3Q1149.0 537.2 1152.2 537.2L1152.2 537.2Q1155.1 537.2 1156.9 539.1Q1158.8 541.1 1158.8 544.3L1158.8 544.3Q1158.8 544.9 1158.4 545.3Q1158.1 545.7 1157.4 545.7L1157.4 545.7L1147.9 545.7Q1147.9 548.0 1149.1 549.4Q1150.2 550.7 1152.3 550.7L1152.3 550.7Q1153.6 550.7 1154.6 550.2Q1155.5 549.6 1156.4 548.3L1156.4 548.3Q1156.8 547.8 1157.3 547.8L1157.3 547.8Q1157.9 547.8 1158.2 548.1Q1158.5 548.4 1158.5 548.9L1158.5 548.9Q1158.5 549.2 1158.3 549.7L1158.3 549.7Q1157.6 551.2 1156.0 552.1Q1154.5 552.9 1152.4 552.9ZM1147.9 543.7L1147.9 543.7L1156.2 543.7Q1156.1 541.8 1155.0 540.6Q1153.9 539.4 1152.1 539.4L1152.1 539.4Q1150.3 539.4 1149.2 540.6Q1148.0 541.8 1147.9 543.7Z "/></svg>