<svg width="1200" height="630" viewBox="0 0 1200 630" xmlns="http://www.w3.org/2000/svg"><mask id="satori_om-id"><rect x="0" y="0" width="1200" height="630" fill="#fff"/></mask><mask id="satori_om-id-0"><rect x="0" y="0" width="1200" height="630" fill="#fff"/></mask><rect x="0" y="0" width="1200" height="630" fill="#f2f2f2"/><mask id="satori_om-id-0-0"><rect x="0" y="0" width="1200" height="441" fill="#fff"/></mask><mask id="satori_om-id-0-0-0"><rect x="40" y="95" width="1120" height="36" fill="#fff"/></mask><path fill="#8e8e8e" d="M44.8 123.4Q44.4 123.9 43.6 123.9Q42.8 123.9 42.4 123.4Q41.9 123.0 41.9 122.2L41.9 122.2L41.9 104.2Q41.9 103.4 42.4 103.0Q42.8 102.5 43.6 102.5L43.6 102.5L53.8 102.5Q54.5 102.5 55.0 102.9Q55.4 103.3 55.4 103.9Q55.4 104.6 55.0 105.0Q54.5 105.4 53.8 105.4L53.8 105.4L45.2 105.4L45.2 112.0L53.1 112.0Q53.7 112.0 54.1 112.4Q54.5 112.8 54.5 113.4Q54.5 114.1 54.1 114.4Q53.7 114.8 53.1 114.8L53.1 114.8L45.2 114.8L45.2 122.2Q45.2 123.0 44.8 123.4ZM59.2 123.9L59.2 123.9Q58.5 123.9 58.1 123.5Q57.6 123.0 57.6 122.3L57.6 122.3L57.6 109.6Q57.6 108.9 58.0 108.4Q58.5 108.0 59.1 108.0L59.1 108.0Q59.8 108.0 60.2 108.4Q60.6 108.9 60.6 109.6L60.6 109.6L60.6 110.9L60.7 110.9Q61.0 109.6 62.0 108.8Q62.9 108.0 64.1 108.0L64.1 108.0Q64.9 108.0 65.3 108.4L65.3 108.4Q65.8 108.7 65.8 109.5L65.8 109.5Q65.8 110.2 65.3 110.6L65.3 110.6Q64.8 111.0 63.8 111.0L63.8 111.0Q62.3 111.0 61.5 112.0Q60.8 112.9 60.8 114.4L60.8 114.4L60.8 122.3Q60.8 123.0 60.3 123.5Q59.9 123.9 59.2 123.9ZM70.5 105.4Q69.9 105.9 69.2 105.9Q68.4 105.9 67.9 105.4Q67.3 104.9 67.3 104.1L67.3 104.1Q67.3 103.3 67.9 102.8Q68.4 102.3 69.2 102.3L69.2 102.3Q69.9 102.3 70.5 102.8Q71.0 103.3 71.0 104.1L71.0 104.1Q71.0 104.9 70.5 105.4ZM70.3 123.5Q69.9 123.9 69.2 123.9Q68.4 123.9 68.0 123.5Q67.6 123.0 67.6 122.3L67.6 122.3L67.6 109.7Q67.6 108.9 68.0 108.4Q68.4 108.0 69.2 108.0Q69.9 108.0 70.3 108.4Q70.7 108.9 70.7 109.7L70.7 109.7L70.7 122.3Q70.7 123.0 70.3 123.5ZM79.8 123.9L79.8 123.9Q76.8 123.9 75.1 121.8Q73.3 119.6 73.3 116.0Q73.3 112.3 75.0 110.2Q76.8 108.0 79.7 108.0L79.7 108.0Q81.4 108.0 82.6 108.8Q83.9 109.5 84.6 110.8L84.6 110.8L84.6 110.8L84.6 103.9Q84.6 103.1 85.1 102.7Q85.5 102.2 86.2 102.2L86.2 102.2Q86.9 102.2 87.4 102.7Q87.8 103.2 87.8 103.9L87.8 103.9L87.8 122.4Q87.8 123.1 87.4 123.5Q86.9 123.9 86.2 123.9L86.2 123.9Q85.5 123.9 85.1 123.5Q84.6 123.1 84.6 122.4L84.6 122.4L84.6 120.9L84.6 120.9Q84.0 122.3 82.7 123.1Q81.5 123.9 79.8 123.9ZM80.6 121.2L80.6 121.2Q82.4 121.2 83.5 119.8Q84.6 118.4 84.6 116.0L84.6 116.0Q84.6 113.6 83.5 112.1Q82.4 110.7 80.6 110.7L80.6 110.7Q78.7 110.7 77.6 112.1Q76.5 113.5 76.5 116.0L76.5 116.0Q76.5 118.4 77.6 119.8Q78.7 121.2 80.6 121.2ZM95.5 123.9L95.5 123.9Q93.3 123.9 91.8 122.6Q90.4 121.3 90.4 119.3L90.4 119.3Q90.4 117.3 91.9 116.1Q93.4 114.9 96.1 114.7L96.1 114.7L100.4 114.5L100.4 113.3Q100.4 112.0 99.5 111.3Q98.7 110.6 97.3 110.6L97.3 110.6Q96.1 110.6 95.3 111.0Q94.5 111.5 93.9 112.5L93.9 112.5Q93.4 113.2 92.6 113.2L92.6 113.2Q92.0 113.2 91.6 112.8Q91.2 112.4 91.2 111.9L91.2 111.9Q91.2 111.3 91.5 110.8L91.5 110.8Q92.1 109.5 93.7 108.8Q95.3 108.0 97.4 108.0L97.4 108.0Q100.2 108.0 101.9 109.4Q103.5 110.7 103.5 113.0L103.5 113.0L103.5 122.3Q103.5 123.1 103.1 123.5Q102.7 123.9 102.0 123.9L102.0 123.9Q101.3 123.9 100.9 123.5Q100.5 123.1 100.5 122.4L100.5 122.4L100.5 121.1L100.4 121.1Q99.8 122.4 98.4 123.2Q97.1 123.9 95.5 123.9ZM96.4 121.4L96.4 121.4Q98.1 121.4 99.2 120.4Q100.4 119.4 100.4 117.9L100.4 117.9L100.4 116.7L96.6 116.9Q95.1 117.0 94.4 117.6Q93.6 118.2 93.6 119.2L93.6 119.2Q93.6 120.2 94.4 120.8Q95.2 121.4 96.4 121.4ZM108.5 129.4L108.5 129.4Q107.4 129.4 106.8 129.0Q106.2 128.6 106.2 127.9L106.2 127.9Q106.2 127.4 106.5 127.1Q106.9 126.8 107.4 126.8L107.4 126.8Q107.6 126.8 107.8 126.8Q108.1 126.8 108.3 126.8L108.3 126.8Q109.9 126.8 110.6 124.7L110.6 124.7L110.9 123.8L105.7 110.3Q105.6 109.9 105.6 109.4L105.6 109.4Q105.6 108.8 106.0 108.4Q106.5 108.0 107.2 108.0L107.2 108.0Q107.8 108.0 108.1 108.3Q108.5 108.5 108.7 109.2L108.7 109.2L112.6 120.8L112.7 120.8L116.6 109.2Q116.8 108.5 117.2 108.3Q117.5 108.0 118.1 108.0L118.1 108.0Q118.8 108.0 119.2 108.4Q119.7 108.8 119.7 109.4L119.7 109.4Q119.7 109.8 119.5 110.3L119.5 110.3L114.2 124.4Q113.1 127.2 111.9 128.3Q110.6 129.4 108.5 129.4ZM124.1 120.1L124.1 120.1Q124.8 120.1 125.2 120.5Q125.6 120.8 125.6 121.4L125.6 121.4Q125.6 121.8 125.5 122.3L125.5 122.3L124.2 127.3Q123.9 128.4 122.9 128.4L122.9 128.4Q122.3 128.4 122.0 128.1Q121.6 127.7 121.6 127.2L121.6 127.2Q121.6 127.1 121.7 126.8L121.7 126.8L122.6 121.4Q122.8 120.1 124.1 120.1Z M149.0 123.7L137.3 123.7Q136.6 123.7 136.2 123.3Q135.7 122.9 135.7 122.3L135.7 122.3Q135.7 121.8 135.9 121.5Q136.1 121.1 136.7 120.6L136.7 120.6L143.3 113.9Q145.3 111.8 146.0 110.7Q146.7 109.6 146.7 108.3L146.7 108.3Q146.7 106.8 145.6 105.8Q144.6 104.8 143.0 104.8L143.0 104.8Q139.9 104.8 138.8 108.0L138.8 108.0Q138.5 108.5 138.2 108.8Q137.9 109.0 137.3 109.0L137.3 109.0Q136.6 109.0 136.2 108.6Q135.8 108.3 135.8 107.6L135.8 107.6Q135.8 107.3 135.9 107.0L135.9 107.0Q136.1 106.1 136.6 105.3Q137.2 104.4 138.1 103.7Q138.9 103.0 140.2 102.6Q141.5 102.1 143.0 102.1L143.0 102.1Q146.1 102.1 148.0 103.8Q149.9 105.5 149.9 108.1L149.9 108.1Q149.9 109.9 148.9 111.5Q148.0 113.0 145.2 115.8L145.2 115.8L140.2 120.8L140.2 120.9L149.0 120.9Q149.6 120.9 150.0 121.3Q150.4 121.7 150.4 122.3L150.4 122.3Q150.4 122.9 150.0 123.3Q149.6 123.7 149.0 123.7L149.0 123.7Z M162.2 123.5Q161.8 123.9 161.1 123.9Q160.4 123.9 160.0 123.5Q159.6 123.1 159.6 122.3L159.6 122.3L159.6 104.4Q159.6 103.4 160.1 102.9Q160.7 102.3 161.7 102.3L161.7 102.3Q162.5 102.3 163.0 102.7Q163.6 103.1 163.9 104.0L163.9 104.0L170.2 119.2L170.3 119.2L176.6 104.0Q176.9 103.1 177.5 102.7Q178.0 102.3 178.9 102.3L178.9 102.3Q179.8 102.3 180.4 102.8Q180.9 103.4 180.9 104.4L180.9 104.4L180.9 122.3Q180.9 123.1 180.5 123.5Q180.1 123.9 179.5 123.9L179.5 123.9Q178.8 123.9 178.3 123.5Q177.9 123.1 177.9 122.3L177.9 122.3L177.9 108.1L177.8 108.1L172.0 122.3Q171.4 123.5 170.3 123.5L170.3 123.5Q169.1 123.5 168.6 122.3L168.6 122.3L162.7 108.1L162.5 108.1L162.5 122.3Q162.5 123.1 162.2 123.5ZM189.0 123.9L189.0 123.9Q186.7 123.9 185.3 122.6Q183.8 121.3 183.8 119.3L183.8 119.3Q183.8 117.3 185.3 116.1Q186.8 114.9 189.6 114.7L189.6 114.7L193.8 114.5L193.8 113.3Q193.8 112.0 193.0 111.3Q192.2 110.6 190.7 110.6L190.7 110.6Q189.5 110.6 188.7 111.0Q187.9 111.5 187.3 112.5L187.3 112.5Q186.8 113.2 186.0 113.2L186.0 113.2Q185.4 113.2 185.0 112.8Q184.6 112.4 184.6 111.9L184.6 111.9Q184.6 111.3 184.9 110.8L184.9 110.8Q185.5 109.5 187.1 108.8Q188.7 108.0 190.8 108.0L190.8 108.0Q193.6 108.0 195.3 109.4Q196.9 110.7 196.9 113.0L196.9 113.0L196.9 122.3Q196.9 123.1 196.5 123.5Q196.1 123.9 195.4 123.9L195.4 123.9Q194.8 123.9 194.3 123.5Q193.9 123.1 193.9 122.4L193.9 122.4L193.9 121.1L193.8 121.1Q193.2 122.4 191.8 123.2Q190.5 123.9 189.0 123.9ZM189.8 121.4L189.8 121.4Q191.5 121.4 192.7 120.4Q193.8 119.4 193.8 117.9L193.8 117.9L193.8 116.7L190.0 116.9Q188.6 117.0 187.8 117.6Q187.0 118.2 187.0 119.2L187.0 119.2Q187.0 120.2 187.8 120.8Q188.6 121.4 189.8 121.4ZM201.9 129.4L201.9 129.4Q200.8 129.4 200.2 129.0Q199.6 128.6 199.6 127.9L199.6 127.9Q199.6 127.4 200.0 127.1Q200.3 126.8 200.9 126.8L200.9 126.8Q201.0 126.8 201.3 126.8Q201.5 126.8 201.7 126.8L201.7 126.8Q203.3 126.8 204.0 124.7L204.0 124.7L204.3 123.8L199.2 110.3Q199.0 109.9 199.0 109.4L199.0 109.4Q199.0 108.8 199.4 108.4Q199.9 108.0 200.6 108.0L200.6 108.0Q201.2 108.0 201.6 108.3Q201.9 108.5 202.1 109.2L202.1 109.2L206.1 120.8L206.1 120.8L210.0 109.2Q210.2 108.5 210.6 108.3Q210.9 108.0 211.5 108.0L211.5 108.0Q212.2 108.0 212.7 108.4Q213.1 108.8 213.1 109.4L213.1 109.4Q213.1 109.8 212.9 110.3L212.9 110.3L207.6 124.4Q206.6 127.2 205.3 128.3Q204.0 129.4 201.9 129.4Z M234.5 123.7L222.8 123.7Q222.1 123.7 221.7 123.3Q221.3 122.9 221.3 122.3L221.3 122.3Q221.3 121.8 221.5 121.5Q221.7 121.1 222.2 120.6L222.2 120.6L228.8 113.9Q230.9 111.8 231.6 110.7Q232.2 109.6 232.2 108.3L232.2 108.3Q232.2 106.8 231.2 105.8Q230.2 104.8 228.6 104.8L228.6 104.8Q225.4 104.8 224.3 108.0L224.3 108.0Q224.1 108.5 223.7 108.8Q223.4 109.0 222.8 109.0L222.8 109.0Q222.2 109.0 221.8 108.6Q221.4 108.3 221.4 107.6L221.4 107.6Q221.4 107.3 221.5 107.0L221.5 107.0Q221.6 106.1 222.2 105.3Q222.7 104.4 223.6 103.7Q224.5 103.0 225.8 102.6Q227.1 102.1 228.6 102.1L228.6 102.1Q231.6 102.1 233.5 103.8Q235.5 105.5 235.5 108.1L235.5 108.1Q235.5 109.9 234.5 111.5Q233.5 113.0 230.8 115.8L230.8 115.8L225.7 120.8L225.7 120.9L234.5 120.9Q235.2 120.9 235.6 121.3Q236.0 121.7 236.0 122.3L236.0 122.3Q236.0 122.9 235.6 123.3Q235.2 123.7 234.5 123.7L234.5 123.7ZM252.4 121.1Q250.2 124.1 246.5 124.1Q242.7 124.1 240.5 121.1Q238.4 118.2 238.4 113.1L238.4 113.1Q238.4 108.0 240.5 105.1Q242.7 102.1 246.5 102.1L246.5 102.1Q250.2 102.1 252.4 105.1Q254.5 108.0 254.5 113.1L254.5 113.1Q254.5 118.1 252.4 121.1ZM246.5 121.3L246.5 121.3Q248.7 121.3 250.0 119.1Q251.2 116.9 251.2 113.1L251.2 113.1Q251.2 109.3 250.0 107.1Q248.7 104.9 246.5 104.9Q244.2 104.9 242.9 107.1Q241.7 109.3 241.7 113.1L241.7 113.1Q241.7 116.9 242.9 119.1Q244.2 121.3 246.5 121.3ZM270.6 123.7L258.9 123.7Q258.2 123.7 257.8 123.3Q257.4 122.9 257.4 122.3L257.4 122.3Q257.4 121.8 257.6 121.5Q257.7 121.1 258.3 120.6L258.3 120.6L264.9 113.9Q267.0 111.8 267.6 110.7Q268.3 109.6 268.3 108.3L268.3 108.3Q268.3 106.8 267.3 105.8Q266.2 104.8 264.6 104.8L264.6 104.8Q261.5 104.8 260.4 108.0L260.4 108.0Q260.2 108.5 259.8 108.8Q259.5 109.0 258.9 109.0L258.9 109.0Q258.2 109.0 257.9 108.6Q257.5 108.3 257.5 107.6L257.5 107.6Q257.5 107.3 257.6 107.0L257.6 107.0Q257.7 106.1 258.3 105.3Q258.8 104.4 259.7 103.7Q260.6 103.0 261.9 102.6Q263.2 102.1 264.7 102.1L264.7 102.1Q267.7 102.1 269.6 103.8Q271.6 105.5 271.6 108.1L271.6 108.1Q271.6 109.9 270.6 111.5Q269.6 113.0 266.9 115.8L266.9 115.8L261.8 120.8L261.8 120.9L270.6 120.9Q271.3 120.9 271.7 121.3Q272.1 121.7 272.1 122.3L272.1 122.3Q272.1 122.9 271.7 123.3Q271.3 123.7 270.6 123.7L270.6 123.7ZM282.4 124.1L282.4 124.1Q280 124.1 278.1 123.0Q276.2 121.9 275.5 120.2L275.5 120.2Q275.1 119.5 275.1 118.8L275.1 118.8Q275.1 118.1 275.5 117.7Q275.9 117.3 276.6 117.3L276.6 117.3Q277.1 117.3 277.5 117.6Q277.8 117.8 278.1 118.4L278.1 118.4Q278.6 119.8 279.7 120.5Q280.8 121.3 282.4 121.3L282.4 121.3Q284.4 121.3 285.7 120.0Q286.9 118.8 286.9 116.8L286.9 116.8Q286.9 114.8 285.7 113.6Q284.4 112.4 282.4 112.4L282.4 112.4Q280.3 112.4 279.0 113.7L279.0 113.7Q278.3 114.5 277.9 114.6Q277.6 114.8 277.0 114.8L277.0 114.8Q276.2 114.8 275.8 114.4Q275.4 113.9 275.4 113.2L275.4 113.2L275.4 112.9L276.1 104.8Q276.2 103.6 276.8 103.0Q277.4 102.5 278.6 102.5L278.6 102.5L287.6 102.5Q288.3 102.5 288.7 102.9Q289.1 103.3 289.1 103.9Q289.1 104.5 288.7 104.9Q288.3 105.3 287.6 105.3L287.6 105.3L279.0 105.3L278.4 111.9L278.4 111.9Q279.1 110.9 280.4 110.3Q281.6 109.8 283.2 109.8L283.2 109.8Q286.2 109.8 288.2 111.7Q290.1 113.6 290.1 116.7L290.1 116.7Q290.1 120.0 288.0 122.0Q285.8 124.1 282.4 124.1Z "/><mask id="satori_om-id-0-0-1"><rect x="40" y="176" width="1120" height="165" fill="#fff"/></mask><path fill="#224d67" d="M67.5 238.6L47.5 238.6Q45.7 238.6 44.7 237.5Q43.7 236.5 43.7 234.7L43.7 234.7L43.7 199.7Q43.7 197.9 44.7 196.8Q45.7 195.8 47.5 195.8L47.5 195.8Q49.3 195.8 50.3 196.8Q51.3 197.9 51.3 199.7L51.3 199.7L51.3 232.2L67.5 232.2Q69.0 232.2 70.0 233.1Q70.9 233.9 70.9 235.4Q70.9 236.8 70 237.7Q69.1 238.6 67.5 238.6L67.5 238.6ZM84.3 239.1L84.3 239.1Q79.7 239.1 76.8 236.5Q73.9 233.9 73.9 229.7L73.9 229.7Q73.9 225.6 77.0 223.2Q80.0 220.8 85.7 220.4L85.7 220.4L93.9 219.9L93.9 217.7Q93.9 215.3 92.4 213.9Q90.9 212.6 88.1 212.6L88.1 212.6Q86.0 212.6 84.5 213.4Q83.0 214.2 81.6 216.2L81.6 216.2Q80.5 217.7 78.7 217.7L78.7 217.7Q77.3 217.7 76.5 216.9Q75.6 216.1 75.6 214.8L75.6 214.8Q75.6 213.8 76.1 212.8L76.1 212.8Q77.3 210.1 80.6 208.5Q84.0 206.9 88.4 206.9L88.4 206.9Q94.2 206.9 97.7 209.7Q101.1 212.5 101.1 217.2L101.1 217.2L101.1 235.5Q101.1 237.2 100.2 238.2Q99.2 239.2 97.6 239.2L97.6 239.2Q96.1 239.2 95.1 238.3Q94.2 237.4 94.1 235.8L94.1 235.8L94.1 233.6L94.0 233.6Q92.6 236.1 90.0 237.6Q87.3 239.1 84.3 239.1ZM86.5 233.6L86.5 233.6Q89.6 233.6 91.8 231.7Q93.9 229.8 93.9 227.1L93.9 227.1L93.9 224.7L86.7 225.1Q84.1 225.3 82.6 226.4Q81.2 227.6 81.2 229.4L81.2 229.4Q81.2 231.3 82.6 232.4Q84.1 233.6 86.5 233.6ZM120.7 239.2L120.7 239.2Q113.8 239.2 109.8 234.9Q105.7 230.5 105.7 223.1L105.7 223.1Q105.7 215.7 109.8 211.3Q113.8 206.9 120.6 206.9L120.6 206.9Q125.1 206.9 128.7 209.0Q132.3 211.1 133.4 214.4L133.4 214.4Q133.8 215.4 133.8 216.1L133.8 216.1Q133.8 217.5 132.9 218.3Q132.0 219.1 130.6 219.1L130.6 219.1Q129.5 219.1 128.8 218.6Q128.1 218.1 127.4 217.0L127.4 217.0Q125.1 212.8 120.8 212.8L120.8 212.8Q117.3 212.8 115.2 215.6Q113.1 218.3 113.1 223.1L113.1 223.1Q113.1 227.9 115.2 230.6Q117.3 233.3 120.8 233.3L120.8 233.3Q125.1 233.3 127.4 229.3L127.4 229.3Q128.2 228.1 128.9 227.6Q129.6 227.1 130.8 227.1L130.8 227.1Q132.1 227.1 133.0 227.9Q133.8 228.7 133.8 230.1L133.8 230.1Q133.8 230.9 133.4 231.9L133.4 231.9Q132.1 235.1 128.5 237.2Q125.0 239.2 120.7 239.2ZM145.2 238.2Q144.2 239.2 142.6 239.2Q141.0 239.2 139.9 238.2Q138.9 237.1 138.9 235.3L138.9 235.3L138.9 199.6Q138.9 197.7 139.9 196.7Q141.0 195.7 142.6 195.7Q144.2 195.7 145.2 196.7Q146.2 197.7 146.2 199.6L146.2 199.6L146.2 220.4L146.3 220.4L158.5 208.3Q159.8 206.9 161.3 206.9L161.3 206.9Q162.7 206.9 163.6 207.8Q164.5 208.7 164.5 210.0L164.5 210.0Q164.5 211.5 163.2 212.7L163.2 212.7L154.4 221.1L164.1 233.3Q165.1 234.7 165.1 235.9L165.1 235.9Q165.1 237.3 164.1 238.3Q163.2 239.2 161.6 239.2L161.6 239.2Q160.6 239.2 159.8 238.7Q159.1 238.3 158.3 237.1L158.3 237.1L149.0 225.3L146.2 227.9L146.2 235.3Q146.2 237.1 145.2 238.2Z M206.6 234.9Q202.5 239.2 195.6 239.2Q188.7 239.2 184.6 234.9Q180.6 230.6 180.6 223.1L180.6 223.1Q180.6 215.6 184.7 211.2Q188.8 206.9 195.6 206.9L195.6 206.9Q202.5 206.9 206.5 211.2Q210.6 215.6 210.6 223.1L210.6 223.1Q210.6 230.6 206.6 234.9ZM190.0 230.7Q192.1 233.4 195.6 233.4Q199.1 233.4 201.2 230.7Q203.2 228.0 203.2 223.1L203.2 223.1Q203.2 218.2 201.2 215.4Q199.1 212.7 195.6 212.7L195.6 212.7Q192.1 212.7 190.0 215.4Q188.0 218.2 188.0 223.1L188.0 223.1Q188.0 228.0 190.0 230.7ZM223.6 238.2Q222.7 239.2 221.0 239.2Q219.3 239.2 218.3 238.2Q217.3 237.2 217.3 235.4L217.3 235.4L217.3 213.1L215.4 213.1Q214.1 213.1 213.4 212.4Q212.6 211.7 212.6 210.4L212.6 210.4Q212.6 209.1 213.4 208.4Q214.1 207.6 215.4 207.6L215.4 207.6L217.3 207.6L217.3 204.9Q217.3 196.0 225.9 196.0L225.9 196.0Q228.7 196.0 230.1 196.8Q231.5 197.6 231.5 199.0L231.5 199.0Q231.5 200.7 229.9 201.1L229.9 201.1Q229.2 201.3 228.3 201.3L228.3 201.3Q226.3 201.4 225.4 202.3Q224.5 203.2 224.5 205.2L224.5 205.2L224.5 207.6L228.4 207.6Q229.7 207.6 230.4 208.4Q231.2 209.1 231.2 210.4L231.2 210.4Q231.2 211.7 230.4 212.4Q229.7 213.1 228.4 213.1L228.4 213.1L224.6 213.1L224.6 235.4Q224.6 237.2 223.6 238.2Z M260.7 239.1L260.7 239.1Q258.9 239.1 257.9 238.2Q256.9 237.3 256.3 235.3L256.3 235.3L246.9 201.6Q246.5 200.3 246.5 199.2L246.5 199.2Q246.5 197.7 247.6 196.7Q248.6 195.8 250.3 195.8L250.3 195.8Q253.2 195.8 253.9 199.0L253.9 199.0L261.0 228.3L261.2 228.3L269.0 199.4Q269.5 197.5 270.4 196.7Q271.4 195.8 273.1 195.8L273.1 195.8Q276.2 195.8 277.1 199.3L277.1 199.3L284.9 228.3L285.1 228.3L292.2 199.0Q292.9 195.8 295.8 195.8L295.8 195.8Q297.5 195.8 298.6 196.7Q299.6 197.7 299.6 199.2L299.6 199.2Q299.6 200.2 299.2 201.6L299.2 201.6L289.8 235.3Q289.3 237.3 288.2 238.2Q287.2 239.1 285.5 239.1L285.5 239.1Q283.7 239.1 282.6 238.2Q281.6 237.3 281.0 235.3L281.0 235.3L273.2 208.0L272.9 208.0L265.1 235.3Q264.6 237.3 263.5 238.2Q262.5 239.1 260.7 239.1ZM310.8 238.1Q309.9 239.2 308.2 239.2Q306.5 239.2 305.5 238.1Q304.6 237.1 304.6 235.3L304.6 235.3L304.6 210.6Q304.6 208.9 305.5 207.9Q306.5 206.9 308.0 206.9L308.0 206.9Q309.6 206.9 310.5 207.9Q311.5 208.9 311.5 210.6L311.5 210.6L311.5 213.0L311.6 213.0Q312.3 210.3 314.1 208.6Q315.9 207.0 318.3 207.0L318.3 207.0Q320.0 207.0 320.9 207.8L320.9 207.8Q321.9 208.6 321.9 210.4L321.9 210.4Q321.9 212.1 320.8 213.0L320.8 213.0Q319.8 213.9 317.6 214.0L317.6 214.0Q311.8 214.0 311.8 220.4L311.8 220.4L311.8 235.3Q311.8 237.1 310.8 238.1ZM331.9 202.0Q330.7 203.2 329.0 203.2Q327.3 203.2 326.1 202.0Q324.9 200.8 324.9 199.2L324.9 199.2Q324.9 197.5 326.1 196.4Q327.3 195.2 329.0 195.2L329.0 195.2Q330.7 195.2 331.9 196.4Q333.1 197.5 333.1 199.2L333.1 199.2Q333.1 200.8 331.9 202.0ZM331.7 238.1Q330.7 239.2 329.0 239.2Q327.3 239.2 326.3 238.1Q325.4 237.1 325.4 235.3L325.4 235.3L325.4 210.7Q325.4 209.0 326.3 207.9Q327.3 206.9 329.0 206.9Q330.7 206.9 331.7 207.9Q332.6 209.0 332.6 210.8L332.6 210.8L332.6 235.3Q332.6 237.1 331.7 238.1ZM340.8 230.9L340.8 230.9L340.8 213.1L338.8 213.1Q337.5 213.1 336.7 212.4Q335.9 211.6 335.9 210.3L335.9 210.3Q335.9 209.0 336.7 208.3Q337.5 207.5 338.8 207.5L338.8 207.5L340.8 207.5L340.8 203.4Q340.8 201.6 341.8 200.6Q342.8 199.6 344.5 199.6L344.5 199.6Q346.1 199.6 347.1 200.6Q348.1 201.6 348.1 203.4L348.1 203.4L348.1 207.5L351.5 207.5Q352.8 207.5 353.6 208.3Q354.4 209.0 354.4 210.3L354.4 210.3Q354.4 211.6 353.6 212.4Q352.8 213.1 351.5 213.1L351.5 213.1L348.1 213.1L348.1 229.3Q348.1 231.1 348.8 231.9Q349.4 232.7 351.0 232.9L351.0 232.9L351.5 232.9Q354.5 233.2 354.5 235.6L354.5 235.6Q354.5 237.2 353.1 238.1Q351.8 238.9 349.3 238.9L349.3 238.9L349.0 238.9Q340.8 238.9 340.8 230.9ZM360.9 230.9L360.9 230.9L360.9 213.1L359.0 213.1Q357.6 213.1 356.8 212.4Q356.0 211.6 356.0 210.3L356.0 210.3Q356.0 209.0 356.8 208.3Q357.6 207.5 359.0 207.5L359.0 207.5L360.9 207.5L360.9 203.4Q360.9 201.6 361.9 200.6Q362.9 199.6 364.6 199.6L364.6 199.6Q366.3 199.6 367.2 200.6Q368.2 201.6 368.2 203.4L368.2 203.4L368.2 207.5L371.6 207.5Q373.0 207.5 373.7 208.3Q374.5 209.0 374.5 210.3L374.5 210.3Q374.5 211.6 373.7 212.4Q372.9 213.1 371.6 213.1L371.6 213.1L368.2 213.1L368.2 229.3Q368.2 231.1 368.9 231.9Q369.6 232.7 371.1 232.9L371.1 232.9L371.7 232.9Q374.6 233.2 374.6 235.6L374.6 235.6Q374.6 237.2 373.3 238.1Q371.9 238.9 369.4 238.9L369.4 238.9L369.1 238.9Q360.9 238.9 360.9 230.9ZM392.8 239.2L392.8 239.2Q385.7 239.2 381.7 235.0Q377.7 230.7 377.7 223.2L377.7 223.2Q377.7 215.7 381.7 211.3Q385.7 206.9 392.4 206.9L392.4 206.9Q398.8 206.9 402.7 210.9Q406.7 215.0 406.7 221.4L406.7 221.4Q406.7 223.0 405.8 223.9Q404.9 224.8 403.3 224.8L403.3 224.8L385 224.8L385 225.0Q385 228.9 387.1 231.3Q389.2 233.6 392.8 233.6L392.8 233.6Q395.2 233.6 397.0 232.6Q398.8 231.7 400.5 229.4L400.5 229.4Q401.6 228.3 403.0 228.3L403.0 228.3Q404.2 228.3 405.1 229.0Q405.9 229.8 405.9 231.1L405.9 231.1Q405.9 231.9 405.4 232.9L405.4 232.9Q403.9 235.9 400.6 237.5Q397.2 239.2 392.8 239.2ZM385.1 220.0L385.1 220.0L399.6 220.0Q399.4 216.6 397.5 214.6Q395.5 212.5 392.4 212.5Q389.4 212.5 387.3 214.6Q385.3 216.7 385.1 220.0ZM417.7 238.2Q416.7 239.2 415.0 239.2Q413.4 239.2 412.4 238.2Q411.4 237.1 411.4 235.3L411.4 235.3L411.4 210.6Q411.4 208.9 412.3 207.9Q413.3 206.9 414.9 206.9Q416.5 206.9 417.5 207.9Q418.5 208.9 418.5 210.6L418.5 210.6L418.5 212.8L418.6 212.8Q421.3 206.9 428.3 206.9L428.3 206.9Q433.4 206.9 436.2 210.0Q439.1 213.1 439.1 218.5L439.1 218.5L439.1 235.3Q439.1 237.1 438.1 238.2Q437.1 239.2 435.4 239.2Q433.8 239.2 432.8 238.2Q431.8 237.1 431.8 235.3L431.8 235.3L431.8 220.0Q431.8 216.6 430.2 214.9Q428.6 213.1 425.5 213.1L425.5 213.1Q422.4 213.1 420.6 215.2Q418.7 217.2 418.7 220.6L418.7 220.6L418.7 235.3Q418.7 237.1 417.7 238.2Z M475.9 239.3L475.9 239.3Q466.8 239.3 461.5 233.4Q456.2 227.6 456.2 217.4L456.2 217.4Q456.2 207.3 461.5 201.5Q466.8 195.6 475.8 195.6L475.8 195.6Q481.7 195.6 486.1 198.2Q490.5 200.8 492.6 205.4L492.6 205.4Q493.3 206.9 493.3 208.3L493.3 208.3Q493.3 209.8 492.4 210.7Q491.5 211.6 489.9 211.6L489.9 211.6Q487.4 211.6 486.3 208.9L486.3 208.9Q484.8 205.6 482.1 203.8Q479.3 202.0 475.8 202.0L475.8 202.0Q470.4 202.0 467.2 206.2Q463.9 210.4 463.9 217.4L463.9 217.4Q463.9 224.5 467.1 228.7Q470.4 232.9 475.9 232.9L475.9 232.9Q483.5 232.9 486.4 226.3L486.4 226.3Q487.0 225.0 487.7 224.4Q488.5 223.9 489.7 223.9L489.7 223.9Q491.3 223.9 492.3 224.8Q493.3 225.7 493.3 227.2L493.3 227.2Q493.3 228.6 492.5 230.1L492.5 230.1Q490.5 234.4 486.2 236.8Q481.8 239.3 475.9 239.3ZM523.8 234.9Q519.7 239.2 512.8 239.2Q505.9 239.2 501.8 234.9Q497.8 230.6 497.8 223.1L497.8 223.1Q497.8 215.6 501.9 211.2Q506.0 206.9 512.8 206.9L512.8 206.9Q519.6 206.9 523.7 211.2Q527.8 215.6 527.8 223.1L527.8 223.1Q527.8 230.6 523.8 234.9ZM507.2 230.7Q509.3 233.4 512.8 233.4Q516.3 233.4 518.4 230.7Q520.4 228.0 520.4 223.1L520.4 223.1Q520.4 218.2 518.4 215.4Q516.3 212.7 512.8 212.7L512.8 212.7Q509.3 212.7 507.2 215.4Q505.2 218.2 505.2 223.1L505.2 223.1Q505.2 228.0 507.2 230.7ZM538.8 238.2Q537.8 239.2 536.1 239.2Q534.5 239.2 533.5 238.2Q532.5 237.1 532.5 235.3L532.5 235.3L532.5 210.6Q532.5 208.9 533.4 207.9Q534.4 206.9 536.0 206.9Q537.6 206.9 538.6 207.9Q539.6 208.9 539.6 210.6L539.6 210.6L539.6 212.8L539.7 212.8Q542.4 206.9 549.4 206.9L549.4 206.9Q554.5 206.9 557.3 210.0Q560.2 213.1 560.2 218.5L560.2 218.5L560.2 235.3Q560.2 237.1 559.2 238.2Q558.2 239.2 556.5 239.2Q554.9 239.2 553.9 238.2Q552.9 237.1 552.9 235.3L552.9 235.3L552.9 220.0Q552.9 216.6 551.3 214.9Q549.7 213.1 546.7 213.1L546.7 213.1Q543.5 213.1 541.7 215.2Q539.8 217.2 539.8 220.6L539.8 220.6L539.8 235.3Q539.8 237.1 538.8 238.2ZM568.0 230.9L568.0 230.9L568.0 213.1L566.1 213.1Q564.7 213.1 563.9 212.4Q563.1 211.6 563.1 210.3L563.1 210.3Q563.1 209.0 563.9 208.3Q564.7 207.5 566.1 207.5L566.1 207.5L568.0 207.5L568.0 203.4Q568.0 201.6 569.0 200.6Q570.0 199.6 571.7 199.6L571.7 199.6Q573.3 199.6 574.3 200.6Q575.3 201.6 575.3 203.4L575.3 203.4L575.3 207.5L578.7 207.5Q580.1 207.5 580.8 208.3Q581.6 209.0 581.6 210.3L581.6 210.3Q581.6 211.6 580.8 212.4Q580.0 213.1 578.7 213.1L578.7 213.1L575.3 213.1L575.3 229.3Q575.3 231.1 576.0 231.9Q576.7 232.7 578.2 232.9L578.2 232.9L578.8 232.9Q581.7 233.2 581.7 235.6L581.7 235.6Q581.7 237.2 580.4 238.1Q579.0 238.9 576.5 238.9L576.5 238.9L576.2 238.9Q568.0 238.9 568.0 230.9ZM592.4 238.1Q591.4 239.2 589.8 239.2Q588.1 239.2 587.1 238.1Q586.1 237.1 586.1 235.3L586.1 235.3L586.1 210.6Q586.1 208.9 587.1 207.9Q588.0 206.9 589.6 206.9L589.6 206.9Q591.1 206.9 592.1 207.9Q593.1 208.9 593.1 210.6L593.1 210.6L593.1 213.0L593.2 213.0Q593.9 210.3 595.7 208.6Q597.5 207.0 599.9 207.0L599.9 207.0Q601.6 207.0 602.4 207.8L602.4 207.8Q603.5 208.6 603.5 210.4L603.5 210.4Q603.5 212.1 602.4 213.0L602.4 213.0Q601.3 213.9 599.2 214.0L599.2 214.0Q593.4 214.0 593.4 220.4L593.4 220.4L593.4 235.3Q593.4 237.1 592.4 238.1ZM615.9 239.1L615.9 239.1Q611.3 239.1 608.4 236.5Q605.5 233.9 605.5 229.7L605.5 229.7Q605.5 225.6 608.5 223.2Q611.6 220.8 617.3 220.4L617.3 220.4L625.5 219.9L625.5 217.7Q625.5 215.3 624.0 213.9Q622.5 212.6 619.7 212.6L619.7 212.6Q617.6 212.6 616.1 213.4Q614.6 214.2 613.2 216.2L613.2 216.2Q612.1 217.7 610.3 217.7L610.3 217.7Q608.9 217.7 608.1 216.9Q607.2 216.1 607.2 214.8L607.2 214.8Q607.2 213.8 607.7 212.8L607.7 212.8Q608.9 210.1 612.2 208.5Q615.6 206.9 620.0 206.9L620.0 206.9Q625.8 206.9 629.3 209.7Q632.7 212.5 632.7 217.2L632.7 217.2L632.7 235.5Q632.7 237.2 631.8 238.2Q630.8 239.2 629.2 239.2L629.2 239.2Q627.7 239.2 626.7 238.3Q625.8 237.4 625.7 235.8L625.7 235.8L625.7 233.6L625.6 233.6Q624.2 236.1 621.6 237.6Q618.9 239.1 615.9 239.1ZM618.1 233.6L618.1 233.6Q621.2 233.6 623.4 231.7Q625.5 229.8 625.5 227.1L625.5 227.1L625.5 224.7L618.3 225.1Q615.7 225.3 614.2 226.4Q612.8 227.6 612.8 229.4L612.8 229.4Q612.8 231.3 614.2 232.4Q615.7 233.6 618.1 233.6ZM652.2 239.2L652.2 239.2Q645.4 239.2 641.4 234.9Q637.3 230.5 637.3 223.1L637.3 223.1Q637.3 215.7 641.3 211.3Q645.4 206.9 652.2 206.9L652.2 206.9Q656.7 206.9 660.3 209.0Q663.8 211.1 665.0 214.4L665.0 214.4Q665.3 215.4 665.3 216.1L665.3 216.1Q665.3 217.5 664.4 218.3Q663.6 219.1 662.2 219.1L662.2 219.1Q661.1 219.1 660.4 218.6Q659.7 218.1 659.0 217.0L659.0 217.0Q656.7 212.8 652.4 212.8L652.4 212.8Q648.9 212.8 646.8 215.6Q644.7 218.3 644.7 223.1L644.7 223.1Q644.7 227.9 646.8 230.6Q648.8 233.3 652.4 233.3L652.4 233.3Q656.7 233.3 659.0 229.3L659.0 229.3Q659.7 228.1 660.5 227.6Q661.2 227.1 662.4 227.1L662.4 227.1Q663.7 227.1 664.6 227.9Q665.4 228.7 665.4 230.1L665.4 230.1Q665.4 230.9 665.0 231.9L665.0 231.9Q663.7 235.1 660.1 237.2Q656.6 239.2 652.2 239.2ZM672.3 230.9L672.3 230.9L672.3 213.1L670.4 213.1Q669.0 213.1 668.2 212.4Q667.5 211.6 667.5 210.3L667.5 210.3Q667.5 209.0 668.2 208.3Q669.0 207.5 670.4 207.5L670.4 207.5L672.3 207.5L672.3 203.4Q672.3 201.6 673.3 200.6Q674.3 199.6 676.0 199.6L676.0 199.6Q677.7 199.6 678.7 200.6Q679.6 201.6 679.6 203.4L679.6 203.4L679.6 207.5L683.0 207.5Q684.4 207.5 685.2 208.3Q685.9 209.0 685.9 210.3L685.9 210.3Q685.9 211.6 685.1 212.4Q684.4 213.1 683.0 213.1L683.0 213.1L679.6 213.1L679.6 229.3Q679.6 231.1 680.3 231.9Q681.0 232.7 682.6 232.9L682.6 232.9L683.1 232.9Q686.0 233.2 686.0 235.6L686.0 235.6Q686.0 237.2 684.7 238.1Q683.3 238.9 680.8 238.9L680.8 238.9L680.5 238.9Q672.3 238.9 672.3 230.9Z M718.6 238.6L707.0 238.6Q705.2 238.6 704.2 237.5Q703.2 236.5 703.2 234.7L703.2 234.7L703.2 200.2Q703.2 198.4 704.2 197.3Q705.2 196.3 707.0 196.3L707.0 196.3L718.6 196.3Q728.1 196.3 733.4 201.8Q738.7 207.3 738.7 217.3L738.7 217.3Q738.7 227.4 733.4 233.0Q728.1 238.6 718.6 238.6L718.6 238.6ZM710.8 202.7L710.8 232.2L717.8 232.2Q724.2 232.2 727.6 228.4Q731.0 224.6 731.0 217.4L731.0 217.4Q731.0 210.3 727.6 206.5Q724.2 202.7 717.8 202.7L717.8 202.7L710.8 202.7ZM757.8 239.2L757.8 239.2Q750.7 239.2 746.7 235.0Q742.7 230.7 742.7 223.2L742.7 223.2Q742.7 215.7 746.7 211.3Q750.7 206.9 757.4 206.9L757.4 206.9Q763.7 206.9 767.7 210.9Q771.7 215.0 771.7 221.4L771.7 221.4Q771.7 223.0 770.8 223.9Q769.9 224.8 768.3 224.8L768.3 224.8L750.0 224.8L750.0 225.0Q750.0 228.9 752.1 231.3Q754.2 233.6 757.7 233.6L757.7 233.6Q760.2 233.6 761.9 232.6Q763.7 231.7 765.5 229.4L765.5 229.4Q766.5 228.3 767.9 228.3L767.9 228.3Q769.2 228.3 770.0 229.0Q770.9 229.8 770.9 231.1L770.9 231.1Q770.9 231.9 770.4 232.9L770.4 232.9Q768.8 235.9 765.5 237.5Q762.2 239.2 757.8 239.2ZM750.0 220.0L750.0 220.0L764.5 220.0Q764.4 216.6 762.4 214.6Q760.5 212.5 757.4 212.5Q754.3 212.5 752.3 214.6Q750.2 216.7 750.0 220.0ZM788.3 239.2L788.3 239.2Q783.5 239.2 780.2 237.5Q776.8 235.8 775.7 233.0L775.7 233.0Q775.4 232.2 775.4 231.5L775.4 231.5Q775.4 230.2 776.2 229.4Q777.1 228.6 778.4 228.6L778.4 228.6Q780.2 228.6 781.6 230.4L781.6 230.4Q782.9 232.3 784.4 233.1Q786.0 233.9 788.6 233.9L788.6 233.9Q791.2 233.9 792.7 232.9Q794.2 231.8 794.2 230.1L794.2 230.1Q794.2 228.7 793.3 227.8Q792.3 227.0 789.9 226.4L789.9 226.4L784.8 225.3Q775.8 223.3 775.8 216.4L775.8 216.4Q775.8 212.1 779.2 209.5Q782.7 206.9 788.4 206.9L788.4 206.9Q792.8 206.9 796.1 208.8Q799.3 210.6 800.0 213.4L800.0 213.4Q800.2 214.0 800.2 214.5L800.2 214.5Q800.2 215.6 799.4 216.4Q798.7 217.1 797.4 217.1L797.4 217.1Q795.5 217.1 794.6 215.7L794.6 215.7Q793.4 214.0 791.9 213.1Q790.5 212.2 788.3 212.2L788.3 212.2Q785.9 212.2 784.4 213.3Q782.9 214.3 782.9 216.0L782.9 216.0Q782.9 218.8 787.5 219.8L787.5 219.8L792.4 220.9Q797.3 222.0 799.4 223.9Q801.6 225.9 801.6 229.3L801.6 229.3Q801.6 233.8 797.9 236.5Q794.3 239.2 788.3 239.2ZM812.5 248.6Q811.4 249.6 809.8 249.6Q808.2 249.6 807.2 248.6Q806.2 247.6 806.2 245.8L806.2 245.8L806.2 210.7Q806.2 208.9 807.2 207.9Q808.1 206.9 809.7 206.9L809.7 206.9Q811.3 206.9 812.3 207.9Q813.3 208.9 813.3 210.7L813.3 210.7L813.3 212.9L813.4 212.9Q814.8 210.1 817.3 208.6Q819.9 207.0 823.2 207.0L823.2 207.0Q829.1 207.0 832.6 211.3Q836.1 215.6 836.1 223.1L836.1 223.1Q836.1 230.5 832.7 234.8Q829.2 239.1 823.3 239.1L823.3 239.1Q820 239.1 817.5 237.6Q814.9 236.1 813.6 233.4L813.6 233.4L813.5 233.4L813.5 245.8Q813.5 247.6 812.5 248.6ZM821.0 233.1L821.0 233.1Q824.5 233.1 826.6 230.4Q828.6 227.7 828.6 223.1L828.6 223.1Q828.6 218.5 826.6 215.7Q824.5 213.0 821.0 213.0L821.0 213.0Q817.6 213.0 815.5 215.8Q813.4 218.5 813.4 223.1L813.4 223.1Q813.4 227.6 815.5 230.4Q817.6 233.1 821.0 233.1ZM847.5 202.0Q846.3 203.2 844.6 203.2Q842.9 203.2 841.7 202.0Q840.6 200.8 840.6 199.2L840.6 199.2Q840.6 197.5 841.7 196.4Q842.9 195.2 844.6 195.2L844.6 195.2Q846.3 195.2 847.5 196.4Q848.7 197.5 848.7 199.2L848.7 199.2Q848.7 200.8 847.5 202.0ZM847.3 238.1Q846.3 239.2 844.6 239.2Q842.9 239.2 842.0 238.1Q841.0 237.1 841.0 235.3L841.0 235.3L841.0 210.7Q841.0 209.0 842.0 207.9Q842.9 206.9 844.6 206.9Q846.3 206.9 847.3 207.9Q848.3 209.0 848.3 210.8L848.3 210.8L848.3 235.3Q848.3 237.1 847.3 238.1ZM856.4 230.9L856.4 230.9L856.4 213.1L854.5 213.1Q853.1 213.1 852.3 212.4Q851.5 211.6 851.5 210.3L851.5 210.3Q851.5 209.0 852.3 208.3Q853.1 207.5 854.5 207.5L854.5 207.5L856.4 207.5L856.4 203.4Q856.4 201.6 857.4 200.6Q858.4 199.6 860.1 199.6L860.1 199.6Q861.7 199.6 862.7 200.6Q863.7 201.6 863.7 203.4L863.7 203.4L863.7 207.5L867.1 207.5Q868.5 207.5 869.2 208.3Q870.0 209.0 870.0 210.3L870.0 210.3Q870.0 211.6 869.2 212.4Q868.4 213.1 867.1 213.1L867.1 213.1L863.7 213.1L863.7 229.3Q863.7 231.1 864.4 231.9Q865.1 232.7 866.6 232.9L866.6 232.9L867.2 232.9Q870.1 233.2 870.1 235.6L870.1 235.6Q870.1 237.2 868.8 238.1Q867.4 238.9 864.9 238.9L864.9 238.9L864.6 238.9Q856.4 238.9 856.4 230.9ZM888.3 239.2L888.3 239.2Q881.2 239.2 877.2 235.0Q873.2 230.7 873.2 223.2L873.2 223.2Q873.2 215.7 877.2 211.3Q881.2 206.9 887.9 206.9L887.9 206.9Q894.3 206.9 898.2 210.9Q902.2 215.0 902.2 221.4L902.2 221.4Q902.2 223.0 901.3 223.9Q900.4 224.8 898.8 224.8L898.8 224.8L880.5 224.8L880.5 225.0Q880.5 228.9 882.6 231.3Q884.7 233.6 888.3 233.6L888.3 233.6Q890.7 233.6 892.5 232.6Q894.3 231.7 896.0 229.4L896.0 229.4Q897.1 228.3 898.5 228.3L898.5 228.3Q899.7 228.3 900.6 229.0Q901.4 229.8 901.4 231.1L901.4 231.1Q901.4 231.9 900.9 232.9L900.9 232.9Q899.4 235.9 896.1 237.5Q892.7 239.2 888.3 239.2ZM880.6 220.0L880.6 220.0L895.1 220.0Q894.9 216.6 893.0 214.6Q891.0 212.5 887.9 212.5Q884.9 212.5 882.8 214.6Q880.8 216.7 880.6 220.0Z M50.3 320.6Q49.3 321.7 47.5 321.7Q45.7 321.7 44.7 320.6Q43.7 319.6 43.7 317.7L43.7 317.7L43.7 282.7Q43.7 280.9 44.7 279.8Q45.7 278.8 47.5 278.8L47.5 278.8L60.5 278.8Q67.3 278.8 71.2 282.3Q75.1 285.9 75.1 292.0L75.1 292.0Q75.1 296.1 73.1 299.3Q71.1 302.5 67.4 303.9L67.4 303.9L74.1 315.6Q74.9 317.0 74.9 318.2L74.9 318.2Q74.9 319.7 73.8 320.7Q72.8 321.7 71.1 321.7L71.1 321.7Q69.8 321.7 69.0 321.1Q68.2 320.5 67.3 318.9L67.3 318.9L59.7 305.2L51.3 305.2L51.3 317.7Q51.3 319.6 50.3 320.6ZM51.3 284.9L51.3 299.4L59.8 299.4Q63.4 299.4 65.4 297.5Q67.4 295.6 67.4 292.1L67.4 292.1Q67.4 288.8 65.3 286.9Q63.2 284.9 59.7 284.9L59.7 284.9L51.3 284.9ZM94.3 321.7L94.3 321.7Q87.2 321.7 83.2 317.5Q79.2 313.2 79.2 305.7L79.2 305.7Q79.2 298.2 83.2 293.8Q87.2 289.4 93.9 289.4L93.9 289.4Q100.2 289.4 104.2 293.4Q108.2 297.5 108.2 303.9L108.2 303.9Q108.2 305.5 107.3 306.4Q106.4 307.3 104.8 307.3L104.8 307.3L86.5 307.3L86.5 307.5Q86.5 311.4 88.6 313.8Q90.7 316.1 94.2 316.1L94.2 316.1Q96.7 316.1 98.5 315.1Q100.2 314.2 102.0 311.9L102.0 311.9Q103.0 310.8 104.5 310.8L104.5 310.8Q105.7 310.8 106.5 311.5Q107.4 312.3 107.4 313.6L107.4 313.6Q107.4 314.4 106.9 315.4L106.9 315.4Q105.3 318.4 102.0 320.0Q98.7 321.7 94.3 321.7ZM86.5 302.5L86.5 302.5L101.0 302.5Q100.9 299.1 98.9 297.1Q97.0 295.0 93.9 295.0Q90.8 295.0 88.8 297.1Q86.7 299.2 86.5 302.5ZM119.1 331.1Q118.1 332.1 116.5 332.1Q114.9 332.1 113.9 331.1Q112.9 330.1 112.9 328.3L112.9 328.3L112.9 293.2Q112.9 291.4 113.8 290.4Q114.8 289.4 116.4 289.4L116.4 289.4Q118.0 289.4 119.0 290.4Q120.0 291.4 120.0 293.2L120.0 293.2L120.0 295.4L120.1 295.4Q121.5 292.6 124.0 291.1Q126.6 289.5 129.9 289.5L129.9 289.5Q135.8 289.5 139.3 293.8Q142.8 298.1 142.8 305.6L142.8 305.6Q142.8 313.0 139.3 317.3Q135.9 321.6 130.0 321.6L130.0 321.6Q126.7 321.6 124.1 320.1Q121.6 318.6 120.3 315.9L120.3 315.9L120.2 315.9L120.2 328.3Q120.2 330.1 119.1 331.1ZM127.7 315.6L127.7 315.6Q131.2 315.6 133.3 312.9Q135.3 310.2 135.3 305.6L135.3 305.6Q135.3 301.0 133.3 298.2Q131.2 295.5 127.7 295.5L127.7 295.5Q124.3 295.5 122.2 298.3Q120.1 301.0 120.1 305.6L120.1 305.6Q120.1 310.1 122.2 312.9Q124.3 315.6 127.7 315.6ZM161.3 321.7L161.3 321.7Q154.2 321.7 150.2 317.5Q146.2 313.2 146.2 305.7L146.2 305.7Q146.2 298.2 150.2 293.8Q154.2 289.4 160.9 289.4L160.9 289.4Q167.2 289.4 171.2 293.4Q175.2 297.5 175.2 303.9L175.2 303.9Q175.2 305.5 174.3 306.4Q173.4 307.3 171.8 307.3L171.8 307.3L153.5 307.3L153.5 307.5Q153.5 311.4 155.6 313.8Q157.7 316.1 161.2 316.1L161.2 316.1Q163.7 316.1 165.5 315.1Q167.2 314.2 169.0 311.9L169.0 311.9Q170.0 310.8 171.5 310.8L171.5 310.8Q172.7 310.8 173.5 311.5Q174.4 312.3 174.4 313.6L174.4 313.6Q174.4 314.4 173.9 315.4L173.9 315.4Q172.3 318.4 169.0 320.0Q165.7 321.7 161.3 321.7ZM153.5 302.5L153.5 302.5L168.0 302.5Q167.9 299.1 165.9 297.1Q164.0 295.0 160.9 295.0Q157.8 295.0 155.8 297.1Q153.7 299.2 153.5 302.5ZM189.0 321.6L189.0 321.6Q184.4 321.6 181.5 319.0Q178.6 316.4 178.6 312.2L178.6 312.2Q178.6 308.1 181.7 305.7Q184.7 303.3 190.4 302.9L190.4 302.9L198.6 302.4L198.6 300.2Q198.6 297.8 197.1 296.4Q195.6 295.1 192.8 295.1L192.8 295.1Q190.7 295.1 189.2 295.9Q187.7 296.7 186.3 298.7L186.3 298.7Q185.2 300.2 183.4 300.2L183.4 300.2Q182.0 300.2 181.2 299.4Q180.3 298.6 180.3 297.3L180.3 297.3Q180.3 296.3 180.8 295.3L180.8 295.3Q182.0 292.6 185.3 291.0Q188.7 289.4 193.1 289.4L193.1 289.4Q198.9 289.4 202.4 292.2Q205.8 295.0 205.8 299.7L205.8 299.7L205.8 318.0Q205.8 319.7 204.9 320.7Q203.9 321.7 202.3 321.7L202.3 321.7Q200.8 321.7 199.8 320.8Q198.9 319.9 198.8 318.3L198.8 318.3L198.8 316.1L198.7 316.1Q197.4 318.6 194.7 320.1Q192.0 321.6 189.0 321.6ZM191.2 316.1L191.2 316.1Q194.3 316.1 196.5 314.2Q198.6 312.3 198.6 309.6L198.6 309.6L198.6 307.2L191.4 307.6Q188.8 307.8 187.3 308.9Q185.9 310.1 185.9 311.9L185.9 311.9Q185.9 313.8 187.3 314.9Q188.8 316.1 191.2 316.1ZM213.7 313.4L213.7 313.4L213.7 295.6L211.8 295.6Q210.4 295.6 209.6 294.9Q208.8 294.1 208.8 292.8L208.8 292.8Q208.8 291.5 209.6 290.8Q210.4 290.0 211.8 290.0L211.8 290.0L213.7 290.0L213.7 285.9Q213.7 284.1 214.7 283.1Q215.7 282.1 217.4 282.1L217.4 282.1Q219.1 282.1 220.0 283.1Q221.0 284.1 221.0 285.9L221.0 285.9L221.0 290.0L224.4 290.0Q225.8 290.0 226.5 290.8Q227.3 291.5 227.3 292.8L227.3 292.8Q227.3 294.1 226.5 294.9Q225.7 295.6 224.4 295.6L224.4 295.6L221.0 295.6L221.0 311.8Q221.0 313.6 221.7 314.4Q222.4 315.2 224.0 315.4L224.0 315.4L224.5 315.4Q227.4 315.7 227.4 318.1L227.4 318.1Q227.4 319.7 226.1 320.6Q224.7 321.4 222.2 321.4L222.2 321.4L221.9 321.4Q213.7 321.4 213.7 313.4ZM245.6 321.7L245.6 321.7Q238.5 321.7 234.5 317.5Q230.5 313.2 230.5 305.7L230.5 305.7Q230.5 298.2 234.5 293.8Q238.5 289.4 245.2 289.4L245.2 289.4Q251.6 289.4 255.6 293.4Q259.5 297.5 259.5 303.9L259.5 303.9Q259.5 305.5 258.6 306.4Q257.7 307.3 256.1 307.3L256.1 307.3L237.8 307.3L237.8 307.5Q237.8 311.4 239.9 313.8Q242.0 316.1 245.6 316.1L245.6 316.1Q248.0 316.1 249.8 315.1Q251.6 314.2 253.3 311.9L253.3 311.9Q254.4 310.8 255.8 310.8L255.8 310.8Q257.1 310.8 257.9 311.5Q258.7 312.3 258.7 313.6L258.7 313.6Q258.7 314.4 258.2 315.4L258.2 315.4Q256.7 318.4 253.4 320.0Q250.1 321.7 245.6 321.7ZM237.9 302.5L237.9 302.5L252.4 302.5Q252.3 299.1 250.3 297.1Q248.3 295.0 245.3 295.0Q242.2 295.0 240.1 297.1Q238.1 299.2 237.9 302.5ZM275.8 321.6L275.8 321.6Q269.9 321.6 266.4 317.2Q262.9 312.9 262.9 305.5L262.9 305.5Q262.9 298.2 266.4 293.8Q269.9 289.5 275.8 289.5L275.8 289.5Q279.1 289.5 281.6 291.0Q284.2 292.6 285.4 295.2L285.4 295.2L285.6 295.2L285.6 282.1Q285.6 280.2 286.6 279.2Q287.6 278.2 289.2 278.2Q290.9 278.2 291.9 279.2Q292.9 280.2 292.9 282.1L292.9 282.1L292.9 318.0Q292.9 319.7 291.9 320.7Q290.9 321.7 289.3 321.7L289.3 321.7Q287.6 321.7 286.6 320.7Q285.6 319.7 285.6 318.0L285.6 318.0L285.6 315.6L285.4 315.6Q284.3 318.4 281.8 320.0Q279.3 321.6 275.8 321.6ZM278.0 315.6L278.0 315.6Q281.5 315.6 283.5 312.9Q285.6 310.2 285.6 305.6L285.6 305.6Q285.6 301.0 283.5 298.2Q281.5 295.5 278.0 295.5L278.0 295.5Q274.5 295.5 272.4 298.2Q270.4 300.9 270.4 305.6L270.4 305.6Q270.4 310.2 272.4 312.9Q274.5 315.6 278.0 315.6Z M324.2 321.6L324.2 321.6Q322.4 321.6 321.4 320.7Q320.3 319.8 319.8 317.8L319.8 317.8L310.4 284.1Q310.0 282.8 310.0 281.7L310.0 281.7Q310.0 280.2 311.0 279.2Q312.1 278.3 313.8 278.3L313.8 278.3Q316.7 278.3 317.4 281.5L317.4 281.5L324.5 310.8L324.7 310.8L332.5 281.9Q332.9 280.0 333.9 279.2Q334.9 278.3 336.6 278.3L336.6 278.3Q339.7 278.3 340.6 281.8L340.6 281.8L348.4 310.8L348.6 310.8L355.7 281.5Q356.4 278.3 359.3 278.3L359.3 278.3Q361.0 278.3 362.0 279.2Q363.1 280.2 363.1 281.7L363.1 281.7Q363.1 282.7 362.7 284.1L362.7 284.1L353.3 317.8Q352.7 319.8 351.7 320.7Q350.7 321.6 349.0 321.6L349.0 321.6Q347.1 321.6 346.1 320.7Q345.1 319.8 344.5 317.8L344.5 317.8L336.7 290.5L336.4 290.5L328.6 317.8Q328.0 319.8 327.0 320.7Q325.9 321.6 324.2 321.6ZM392.7 317.4Q388.7 321.7 381.8 321.7Q374.9 321.7 370.8 317.4Q366.7 313.1 366.7 305.6L366.7 305.6Q366.7 298.1 370.8 293.7Q375.0 289.4 381.8 289.4L381.8 289.4Q388.6 289.4 392.7 293.7Q396.8 298.1 396.8 305.6L396.8 305.6Q396.8 313.1 392.7 317.4ZM376.2 313.2Q378.3 315.9 381.8 315.9Q385.3 315.9 387.3 313.2Q389.4 310.5 389.4 305.6L389.4 305.6Q389.4 300.7 387.3 297.9Q385.3 295.2 381.8 295.2L381.8 295.2Q378.3 295.2 376.2 297.9Q374.2 300.7 374.2 305.6L374.2 305.6Q374.2 310.5 376.2 313.2ZM407.8 320.6Q406.8 321.7 405.1 321.7Q403.5 321.7 402.5 320.6Q401.5 319.6 401.5 317.8L401.5 317.8L401.5 293.1Q401.5 291.4 402.4 290.4Q403.4 289.4 405.0 289.4L405.0 289.4Q406.5 289.4 407.5 290.4Q408.4 291.4 408.4 293.1L408.4 293.1L408.4 295.5L408.6 295.5Q409.2 292.8 411.1 291.1Q412.9 289.5 415.2 289.5L415.2 289.5Q416.9 289.5 417.8 290.3L417.8 290.3Q418.8 291.1 418.8 292.9L418.8 292.9Q418.8 294.6 417.8 295.5L417.8 295.5Q416.7 296.4 414.5 296.5L414.5 296.5Q408.8 296.5 408.8 302.9L408.8 302.9L408.8 317.8Q408.8 319.6 407.8 320.6ZM428.6 320.7Q427.6 321.7 426.0 321.7Q424.3 321.7 423.3 320.7Q422.3 319.6 422.3 317.8L422.3 317.8L422.3 282.1Q422.3 280.2 423.3 279.2Q424.3 278.2 426.0 278.2Q427.6 278.2 428.6 279.2Q429.6 280.2 429.6 282.1L429.6 282.1L429.6 302.9L429.7 302.9L441.9 290.8Q443.2 289.4 444.7 289.4L444.7 289.4Q446.1 289.4 447.0 290.3Q447.9 291.2 447.9 292.5L447.9 292.5Q447.9 294.0 446.6 295.2L446.6 295.2L437.8 303.6L447.5 315.8Q448.5 317.2 448.5 318.4L448.5 318.4Q448.5 319.8 447.5 320.8Q446.6 321.7 445.0 321.7L445.0 321.7Q443.9 321.7 443.2 321.2Q442.5 320.8 441.7 319.6L441.7 319.6L432.4 307.8L429.6 310.4L429.6 317.8Q429.6 319.6 428.6 320.7Z "/><defs><clipPath id="satori_bc-id-0-1"><rect x="0" y="441" width="1200" height="189"/></clipPath></defs><mask id="satori_om-id-0-1"><rect x="0" y="442" width="1200" height="188" fill="#fff"/><path width="1200" height="189" fill="none" stroke="#000" stroke-width="2" d="M0,441 A0,0 0 0 1 0,441 h1200 A0,0 0 0 1 1200,441"/></mask><path width="1200" height="189" clip-path="url(#satori_bc-id-0-1)" fill="none" stroke="#dbdbdb" stroke-width="2" d="M0,441 A0,0 0 0 1 0,441 h1200 A0,0 0 0 1 1200,441"/><mask id="satori_om-id-0-1-0"><rect x="40" y="482" width="292" height="108" fill="#fff"/></mask><clipPath id="satori_cp-id-0-1-0-0"><rect x="40" y="504" width="64" height="64"/></clipPath><mask id="satori_om-id-0-1-0-0"><rect x="40" y="504" width="64" height="64" fill="#fff"/></mask><image x="40" y="504" width="64" height="64" href="data:image/svg+xml;utf8,%3Csvg  xmlns=%22http://www.w3.org/2000/svg%22 width=%2264%22 height=%2264%22 viewBox=%220 0 128 128%22%3E%3Cpath fill=%22%23224d67%22 d=%22M22.5 14.8c2.9 1.3 99 44 99 44c2.7 1.2 2.9 3.1 2 12.4c-1 10.5-1.9 37.8-40.2 42.9c-24.6 3.2-55.9-4.3-70.9-27.2C-6 58.8 11 23.4 14.8 17.7c2.4-3.5 4.8-4.2 7.7-2.9%22%3E%3C/path%3E%3Cpath fill=%22%23f0f4c3%22 d=%22M121.5 58.8c-.3-.2-92-40.8-98.9-43.9C9.6 31.5-3.8 76 27.9 96.2c33.6 21.5 78.7-10.2 93.6-37.4%22%3E%3C/path%3E%3Cpath fill=%22%23f0f4c3%22 d=%22M117.7 57c-.3-.2-86.7-38.4-93.2-41.3c-12.2 15.5-23.9 59.1 5.7 78c31.4 20.2 73.6-11.2 87.5-36.7%22%3E%3C/path%3E%3Cpath fill=%22%23cb2a42%22 d=%22M56.2 37.6L19.5 48.2c-2.5.8-4.4 2.8-5 5.3c-1.9 8.5.8 23.3 8.9 29.8c3.5 2.7 8.6 1.8 10.8-2.1L58.5 41c1.3-1.7.5-4.2-2.3-3.4m14.3 2.9s14.6 30.1 16 33s6.3 4.7 9.9 2.8c10.7-5.6 15.5-12.4 19.2-20.2c-8.9-3.9-42.4-18.8-42.4-18.8c-2.4-1.1-4 .6-2.7 3.2m-8.6 1.9C60.3 45.1 39.5 81 37.6 84.1c-1.9 3.2-.7 7.5 2.7 9.2c12.3 6.5 30.9.4 39.6-7c2.2-1.9 4.5-5.1 3.2-8.2S68.9 44.6 67.8 42.3c-1.2-2.7-4.1-2.8-5.9.1%22%3E%3C/path%3E%3Cpath fill=%22%23f0f4c3%22 d=%22M52.2 42.2c-1.4.4-10.1 3-11.1 3.4c-1.4.5-2.2 1.7-1.9 2.5c.3.9 1.7 1.1 3.1.6c.8-.3 7.1-3.9 9.5-5.2c-3.1 2.4-10.2 9.4-11.1 10.3c-1.4 1.5-1.7 3.4-.8 4.3c1 .9 2.9.5 4.3-1c1.2-1.3 8.5-12.8 9.1-13.9s.4-1.4-1.1-1m10.1 16.4c0-2.2 1.4-10.3 1.8-12.3c.4-1.6 1.5-1.8 1.8.5s1.7 9.7 1.7 11.8s-1.2 3.3-2.7 3.3c-1.4 0-2.6-1.1-2.6-3.3M79.9 49c-1.2-1.8-3.3-4.9-4.1-6.1c-.7-1.2.1-2.1 1.8-.9s4 2.9 5.4 4c1.6 1.3 1.9 3 .8 4s-2.7.8-3.9-1%22%3E%3C/path%3E%3Cellipse cx=%2287.3%22 cy=%22103.12%22 fill=%22%23cb2a42%22 rx=%223.4%22 ry=%222.3%22 transform=%22rotate(-27.098 87.298 103.126)%22%3E%3C/ellipse%3E%3Cellipse cx=%2298.89%22 cy=%22103.82%22 fill=%22%23cb2a42%22 rx=%223.4%22 ry=%222.3%22 transform=%22rotate(-30.642 98.887 103.818)%22%3E%3C/ellipse%3E%3Cellipse cx=%22102.02%22 cy=%2293.8%22 fill=%22%23cb2a42%22 rx=%223.4%22 ry=%222.3%22 transform=%22rotate(-37.16 102.017 93.797)%22%3E%3C/ellipse%3E%3Cpath fill=%22%23cb2a42%22 d=%22M57.6 30.3c-8.3-3.7-24.4-10.7-29.6-13c-3.6 2.2-9.7 11.4-11.2 21.2c-.6 3.6 1.7 5.9 5.3 4.9c0 0 33.7-9.3 35.3-9.7c1.6-.5 2-2.6.2-3.4%22%3E%3C/path%3E%3C/svg%3E" preserveAspectRatio="none" clip-path="url(#satori_cp-id-0-1-0-0)" mask="url(#satori_om-id-0-1-0-0)"/><mask id="satori_om-id-0-1-0-0-0"><rect x="40" y="504" width="0" height="64" fill="#fff"/></mask><mask id="satori_om-id-0-1-0-0-1"><rect x="40" y="504" width="0" height="64" fill="#fff"/></mask><mask id="satori_om-id-0-1-0-0-2"><rect x="40" y="504" width="0" height="64" fill="#fff"/></mask><mask id="satori_om-id-0-1-0-0-3"><rect x="40" y="504" width="0" height="64" fill="#fff"/></mask><mask id="satori_om-id-0-1-0-0-4"><rect x="40" y="504" width="0" height="64" fill="#fff"/></mask><mask id="satori_om-id-0-1-0-0-5"><rect x="40" y="504" width="0" height="64" fill="#fff"/></mask><mask id="satori_om-id-0-1-0-0-6"><rect x="40" y="504" width="0" height="64" fill="#fff"/></mask><mask id="satori_om-id-0-1-0-0-7"><rect x="40" y="504" width="0" height="64" fill="#fff"/></mask><mask id="satori_om-id-0-1-0-0-8"><rect x="40" y="504" width="0" height="64" fill="#fff"/></mask><mask id="satori_om-id-0-1-0-1"><rect x="116" y="512" width="216" height="48" fill="#fff"/></mask><path fill="#545454" d="M121.1 553.5L121.1 553.5Q119.4 553.5 118.4 552.6Q117.5 551.7 117.5 550.2L117.5 550.2Q117.5 549.3 117.9 547.9L117.9 547.9L127.2 522.8Q127.9 520.7 129.2 519.7Q130.5 518.8 132.5 518.8L132.5 518.8Q134.6 518.8 135.9 519.7Q137.2 520.7 137.9 522.8L137.9 522.8L147.2 547.9Q147.6 549.2 147.6 550.2L147.6 550.2Q147.6 551.6 146.6 552.6Q145.6 553.5 144.1 553.5L144.1 553.5Q142.6 553.5 141.7 552.8Q140.9 552.1 140.4 550.4L140.4 550.4L138.6 545.0L126.4 545.0L124.6 550.3Q124.2 552.0 123.3 552.8Q122.5 553.5 121.1 553.5ZM132.4 525.7L128.0 539.6L137 539.6L132.5 525.7L132.4 525.7ZM159.1 552.6Q158.2 553.6 156.6 553.6Q155.0 553.6 154.1 552.6Q153.2 551.7 153.2 550.0L153.2 550.0L153.2 533.1L151.9 533.1Q150.8 533.1 150.1 532.4Q149.4 531.7 149.4 530.6Q149.4 529.4 150.1 528.7Q150.8 528.1 151.9 528.1L151.9 528.1L153.2 528.1L153.2 526.2Q153.2 522.5 155.0 520.7Q156.7 519.0 160.3 518.9L160.3 518.9Q163.0 518.9 164.2 519.7Q165.5 520.4 165.5 521.7L165.5 521.7Q165.5 523.1 164.1 523.5L164.1 523.5Q163.5 523.7 162.8 523.7L162.8 523.7Q161.2 523.7 160.5 524.4Q159.9 525.1 159.9 526.5L159.9 526.5L159.9 528.1L162.7 528.1Q163.8 528.1 164.5 528.7Q165.2 529.4 165.2 530.6Q165.2 531.7 164.5 532.4Q163.8 533.1 162.7 533.1L162.7 533.1L160.0 533.1L160.0 550.0Q160.0 551.7 159.1 552.6ZM170.3 546.6L170.3 546.6L170.3 533.1L168.9 533.1Q167.7 533.1 167.0 532.4Q166.3 531.7 166.3 530.5Q166.3 529.3 167.0 528.6Q167.7 527.9 168.9 527.9L168.9 527.9L170.3 527.9L170.3 525.1Q170.3 523.5 171.2 522.5Q172.1 521.6 173.7 521.6Q175.3 521.6 176.2 522.5Q177.1 523.5 177.1 525.1L177.1 525.1L177.1 527.9L179.5 527.9Q180.7 527.9 181.4 528.6Q182.1 529.3 182.1 530.5Q182.1 531.7 181.4 532.4Q180.7 533.1 179.5 533.1L179.5 533.1L177.1 533.1L177.1 545.1Q177.1 546.5 177.6 547.1Q178.1 547.7 179.2 547.8L179.2 547.8L179.6 547.8Q180.9 548.0 181.6 548.5Q182.2 549.1 182.2 550.3L182.2 550.3Q182.2 551.8 180.9 552.6Q179.6 553.3 177.4 553.3L177.4 553.3L177.1 553.3Q170.3 553.3 170.3 546.6ZM197.0 553.6L197.0 553.6Q191.2 553.6 187.9 550.2Q184.6 546.7 184.6 540.6L184.6 540.6Q184.6 534.5 187.9 531.0Q191.1 527.4 196.7 527.4L196.7 527.4Q202.0 527.4 205.3 530.7Q208.6 533.9 208.6 539.1L208.6 539.1Q208.6 540.5 207.9 541.3Q207.1 542.1 205.6 542.1L205.6 542.1L191.3 542.1L191.3 542.4Q191.3 545.2 192.9 546.9Q194.4 548.5 197.0 548.5L197.0 548.5Q198.9 548.5 200.3 547.8Q201.6 547.2 203.0 545.5L203.0 545.5Q204.0 544.5 205.3 544.5L205.3 544.5Q206.4 544.5 207.2 545.2Q207.9 545.9 207.9 547.0L207.9 547.0Q207.9 547.8 207.5 548.7L207.5 548.7Q206.2 551 203.4 552.3Q200.7 553.6 197.0 553.6ZM191.4 537.9L191.4 537.9L202.0 537.9Q201.9 535.4 200.5 533.9Q199.0 532.5 196.8 532.5Q194.5 532.5 193.1 534.0Q191.6 535.5 191.4 537.9ZM215.6 553.6L215.6 553.6Q214.0 553.6 213.1 552.6Q212.1 551.7 212.1 550.0L212.1 550.0L212.1 530.9Q212.1 529.3 213.0 528.3Q213.9 527.4 215.4 527.4L215.4 527.4Q216.9 527.4 217.8 528.3Q218.7 529.3 218.7 530.9L218.7 530.9L218.7 532.5L218.8 532.5Q219.3 530.2 220.7 528.9Q222.1 527.5 224.0 527.5L224.0 527.5Q225.4 527.5 226.2 528.2L226.2 528.2Q227.2 528.9 227.2 530.7L227.2 530.7Q227.2 532.3 226.2 533.2L226.2 533.2Q225.2 534.0 223.2 534.1L223.2 534.1Q221.0 534.1 220.0 535.3Q219.0 536.5 219.0 538.8L219.0 538.8L219.0 550.0Q219.0 551.7 218.1 552.6Q217.2 553.6 215.6 553.6ZM242.6 553.6L242.6 553.6Q237.5 553.6 234.1 551.8Q230.8 550.0 229.7 547.1L229.7 547.1Q229.4 546.1 229.4 545.2L229.4 545.2Q229.4 543.8 230.2 543.0Q231.1 542.1 232.5 542.1L232.5 542.1Q233.6 542.1 234.3 542.6Q235.1 543.1 235.7 544.2L235.7 544.2Q236.5 546.1 238.4 547.0Q240.2 547.9 242.7 547.9L242.7 547.9Q245.6 547.9 247.3 546.7Q249.1 545.5 249.1 543.6L249.1 543.6Q249.1 541.9 247.8 540.9Q246.4 539.9 243.3 539.3L243.3 539.3L239.7 538.6Q229.6 536.6 229.6 528.9L229.6 528.9Q229.6 525.9 231.3 523.5Q232.9 521.2 235.9 519.9Q238.8 518.7 242.5 518.7L242.5 518.7Q247.2 518.7 250.5 520.5Q253.8 522.4 254.9 525.7L254.9 525.7Q255.1 526.4 255.1 527.2L255.1 527.2Q255.1 528.5 254.3 529.3Q253.5 530.1 252.1 530.1L252.1 530.1Q250.9 530.1 250.1 529.6Q249.4 529.1 248.8 528.0L248.8 528.0Q247.2 524.4 242.5 524.4L242.5 524.4Q239.9 524.4 238.3 525.5Q236.7 526.6 236.7 528.5L236.7 528.5Q236.7 530.1 238.1 531.1Q239.4 532.1 242.4 532.7L242.4 532.7L245.9 533.4Q251.3 534.5 253.7 536.7Q256.2 539.0 256.2 542.8L256.2 542.8Q256.2 547.8 252.5 550.7Q248.9 553.6 242.6 553.6ZM266.0 552.6Q265.0 553.6 263.5 553.6Q261.9 553.6 261.0 552.6Q260.1 551.7 260.1 550.0L260.1 550.0L260.1 522.2Q260.1 520.6 261.0 519.7Q261.9 518.7 263.4 518.7L263.4 518.7Q265.0 518.7 265.9 519.7Q266.8 520.6 266.8 522.2L266.8 522.2L266.8 532.4L266.9 532.4Q267.9 530.0 270.0 528.7Q272 527.5 274.8 527.5L274.8 527.5Q279.0 527.5 281.3 530.0Q283.6 532.5 283.6 536.9L283.6 536.9L283.6 550.0Q283.6 551.7 282.7 552.6Q281.7 553.6 280.2 553.6Q278.6 553.6 277.7 552.6Q276.8 551.7 276.8 550.0L276.8 550.0L276.8 538.3Q276.8 535.9 275.6 534.5Q274.3 533.1 272.0 533.1L272.0 533.1Q269.7 533.1 268.3 534.7Q266.9 536.2 266.9 538.7L266.9 538.7L266.9 550.0Q266.9 551.7 266.0 552.6ZM294.1 523.8Q293.0 524.8 291.5 524.8Q290.0 524.8 288.9 523.8Q287.8 522.8 287.8 521.3L287.8 521.3Q287.8 519.8 288.9 518.8Q290.0 517.7 291.5 517.7Q293.0 517.7 294.1 518.8Q295.2 519.8 295.2 521.3L295.2 521.3Q295.2 522.8 294.1 523.8ZM294.0 552.6Q293.1 553.6 291.5 553.6Q289.9 553.6 289.0 552.6Q288.1 551.7 288.1 550.0L288.1 550.0L288.1 531.0Q288.1 529.3 289.0 528.4Q289.9 527.4 291.5 527.4Q293.1 527.4 294.0 528.4Q294.9 529.3 294.9 531.0L294.9 531.0L294.9 550.0Q294.9 551.7 294.0 552.6ZM307.2 552.6Q306.3 553.6 304.7 553.6Q303.1 553.6 302.2 552.6Q301.3 551.7 301.3 550.0L301.3 550.0L301.3 533.1L300.0 533.1Q298.9 533.1 298.2 532.4Q297.5 531.7 297.5 530.6Q297.5 529.4 298.2 528.7Q298.9 528.1 300.0 528.1L300.0 528.1L301.3 528.1L301.3 526.2Q301.3 522.5 303.1 520.7Q304.9 519.0 308.5 518.9L308.5 518.9Q311.1 518.9 312.4 519.7Q313.6 520.4 313.6 521.7L313.6 521.7Q313.6 523.1 312.2 523.5L312.2 523.5Q311.6 523.7 310.9 523.7L310.9 523.7Q309.4 523.7 308.7 524.4Q308.0 525.1 308.0 526.5L308.0 526.5L308.0 528.1L310.9 528.1Q312.0 528.1 312.7 528.7Q313.4 529.4 313.4 530.6Q313.4 531.7 312.7 532.4Q312.0 533.1 310.9 533.1L310.9 533.1L308.1 533.1L308.1 550.0Q308.1 551.7 307.2 552.6ZM318.4 546.6L318.4 546.6L318.4 533.1L317.1 533.1Q315.9 533.1 315.1 532.4Q314.4 531.7 314.4 530.5Q314.4 529.3 315.1 528.6Q315.9 527.9 317.1 527.9L317.1 527.9L318.4 527.9L318.4 525.1Q318.4 523.5 319.3 522.5Q320.2 521.6 321.8 521.6Q323.4 521.6 324.3 522.5Q325.2 523.5 325.2 525.1L325.2 525.1L325.2 527.9L327.6 527.9Q328.9 527.9 329.6 528.6Q330.3 529.3 330.3 530.5Q330.3 531.7 329.6 532.4Q328.9 533.1 327.6 533.1L327.6 533.1L325.2 533.1L325.2 545.1Q325.2 546.5 325.7 547.1Q326.2 547.7 327.3 547.8L327.3 547.8L327.8 547.8Q329.1 548.0 329.7 548.5Q330.4 549.1 330.4 550.3L330.4 550.3Q330.4 551.8 329.0 552.6Q327.7 553.3 325.5 553.3L325.5 553.3L325.3 553.3Q318.4 553.3 318.4 546.6Z "/><mask id="satori_om-id-0-1-1"><rect x="924" y="524" width="236" height="36" fill="#fff"/></mask><path fill="#8e8e8e" d="M927.9 552.6Q927.5 552.9 927.0 552.9Q926.4 552.9 926.1 552.6Q925.8 552.2 925.8 551.7L925.8 551.7L925.8 532.6Q925.8 532.0 926.1 531.6Q926.5 531.3 927.1 531.3Q927.6 531.3 928.0 531.6Q928.3 532.0 928.3 532.6L928.3 532.6L928.3 540.0L928.4 540.0Q929.1 538.7 930.4 537.9Q931.7 537.2 933.3 537.2L933.3 537.2Q936.2 537.2 937.9 539.3Q939.7 541.5 939.7 545.0L939.7 545.0Q939.7 548.6 937.9 550.8Q936.2 552.9 933.2 552.9L933.2 552.9Q931.6 552.9 930.3 552.2Q929.0 551.4 928.3 550.1L928.3 550.1L928.2 550.1L928.2 551.7Q928.2 552.2 927.9 552.6ZM932.7 550.7L932.7 550.7Q934.8 550.7 935.9 549.2Q937.1 547.7 937.1 545.0L937.1 545.0Q937.1 542.5 935.9 540.9Q934.8 539.4 932.7 539.4L932.7 539.4Q930.8 539.4 929.6 541.0Q928.3 542.5 928.3 545.0L928.3 545.0Q928.3 547.6 929.6 549.1Q930.8 550.7 932.7 550.7ZM943.8 558.4L943.8 558.4Q942.9 558.4 942.4 558.0Q941.9 557.7 941.9 557.1L941.9 557.1Q941.9 556.7 942.1 556.4Q942.4 556.2 942.9 556.2L942.9 556.2Q943.1 556.2 943.3 556.2Q943.5 556.2 943.7 556.2L943.7 556.2Q945.4 556.2 946.2 553.7L946.2 553.7L946.6 552.7L941.3 539.0Q941.2 538.6 941.2 538.3L941.2 538.3Q941.2 537.8 941.6 537.5Q941.9 537.2 942.5 537.2L942.5 537.2Q943.4 537.2 943.7 538.1L943.7 538.1L947.9 550.1L948.0 550.1L952.2 538.1Q952.3 537.6 952.6 537.4Q952.9 537.2 953.4 537.2L953.4 537.2Q953.9 537.2 954.3 537.5Q954.6 537.8 954.6 538.3L954.6 538.3Q954.6 538.6 954.5 539.0L954.5 539.0L948.9 553.7Q947.9 556.4 946.8 557.4Q945.7 558.4 943.8 558.4Z M965.7 552.5Q965.3 552.9 964.7 552.9Q964.1 552.9 963.8 552.5Q963.4 552.1 963.4 551.5L963.4 551.5L963.4 532.9Q963.4 532.3 963.8 531.9Q964.1 531.5 964.7 531.5L964.7 531.5L970.9 531.5Q973.9 531.5 975.8 533.4Q977.7 535.3 977.7 538.3L977.7 538.3Q977.7 541.3 975.8 543.2Q973.9 545.1 970.9 545.1L970.9 545.1L966.0 545.1L966.0 551.5Q966.0 552.1 965.7 552.5ZM966.0 533.9L966.0 542.8L970.3 542.8Q972.5 542.8 973.8 541.6Q975.0 540.4 975.0 538.3Q975.0 536.2 973.8 535.0Q972.5 533.9 970.3 533.9L970.3 533.9L966.0 533.9ZM984.8 552.9L984.8 552.9Q982.5 552.9 981.1 551.7Q979.7 550.4 979.7 548.4L979.7 548.4Q979.7 546.4 981.2 545.2Q982.6 544.1 985.2 543.9L985.2 543.9L989.6 543.7L989.6 542.4Q989.6 541.0 988.7 540.2Q987.9 539.4 986.3 539.4L986.3 539.4Q985.0 539.4 984.1 539.9Q983.3 540.4 982.6 541.5L982.6 541.5Q982.3 542.1 981.6 542.1L981.6 542.1Q981.1 542.1 980.8 541.8Q980.5 541.5 980.5 541.0Q980.5 540.5 980.8 539.9L980.8 539.9Q981.4 538.7 982.9 537.9Q984.5 537.2 986.3 537.2L986.3 537.2Q989.0 537.2 990.6 538.5Q992.2 539.9 992.2 542.1L992.2 542.1L992.2 551.6Q992.2 552.2 991.8 552.6Q991.5 552.9 991.0 552.9L991.0 552.9Q990.4 552.9 990.1 552.6Q989.7 552.2 989.7 551.6L989.7 551.6L989.7 550.0L989.7 550.0Q989.0 551.3 987.7 552.1Q986.3 552.9 984.8 552.9ZM985.3 550.8L985.3 550.8Q987.1 550.8 988.4 549.6Q989.6 548.5 989.6 546.9L989.6 546.9L989.6 545.6L985.5 545.9Q984.0 546.0 983.1 546.6Q982.3 547.3 982.3 548.4Q982.3 549.4 983.1 550.1Q984.0 550.8 985.3 550.8ZM996.2 549.1L996.2 549.1L996.2 539.5L994.9 539.5Q994.4 539.5 994.1 539.3Q993.8 539.0 993.8 538.5L993.8 538.5Q993.8 538.0 994.1 537.7Q994.4 537.4 994.9 537.4L994.9 537.4L996.2 537.4L996.2 534.8Q996.2 534.2 996.6 533.8Q996.9 533.5 997.5 533.5Q998.0 533.5 998.4 533.8Q998.8 534.2 998.8 534.8L998.8 534.8L998.8 537.4L1000.7 537.4Q1001.3 537.4 1001.6 537.7Q1001.9 538.0 1001.9 538.5L1001.9 538.5Q1001.9 539.0 1001.6 539.3Q1001.3 539.5 1000.7 539.5L1000.7 539.5L998.8 539.5L998.8 548.6Q998.8 549.6 999.2 550.0Q999.6 550.5 1000.5 550.6L1000.5 550.6L1000.7 550.6Q1001.9 550.7 1001.9 551.6L1001.9 551.6Q1001.9 552.2 1001.5 552.5Q1001.1 552.8 1000.1 552.8L1000.1 552.8L999.9 552.8Q996.2 552.8 996.2 549.1ZM1006.6 552.5Q1006.3 552.9 1005.7 552.9Q1005.2 552.9 1004.8 552.5Q1004.4 552.2 1004.4 551.6L1004.4 551.6L1004.4 538.5Q1004.4 537.9 1004.8 537.5Q1005.1 537.2 1005.6 537.2Q1006.2 537.2 1006.5 537.5Q1006.8 537.9 1006.8 538.5L1006.8 538.5L1006.8 539.9L1006.9 539.9Q1007.2 538.7 1008.2 537.9Q1009.2 537.2 1010.4 537.2L1010.4 537.2Q1011.2 537.2 1011.6 537.5L1011.6 537.5Q1011.9 537.8 1011.9 538.4L1011.9 538.4Q1011.9 539.0 1011.5 539.3L1011.5 539.3Q1011.1 539.6 1010.3 539.6L1010.3 539.6Q1008.6 539.6 1007.8 540.6Q1007.0 541.6 1007.0 543.2L1007.0 543.2L1007.0 551.6Q1007.0 552.2 1006.6 552.5ZM1015.1 534.9L1015.1 534.9Q1014.4 534.9 1014.0 534.4Q1013.5 533.9 1013.5 533.3L1013.5 533.3Q1013.5 532.6 1014.0 532.2Q1014.4 531.7 1015.1 531.7L1015.1 531.7Q1015.7 531.7 1016.2 532.2Q1016.7 532.6 1016.7 533.3L1016.7 533.3Q1016.7 533.9 1016.2 534.4Q1015.7 534.9 1015.1 534.9ZM1016.0 552.5Q1015.6 552.9 1015.1 552.9Q1014.5 552.9 1014.2 552.5Q1013.8 552.2 1013.8 551.6L1013.8 551.6L1013.8 538.5Q1013.8 537.9 1014.2 537.5Q1014.5 537.2 1015.1 537.2Q1015.6 537.2 1016.0 537.5Q1016.4 537.9 1016.4 538.5L1016.4 538.5L1016.4 551.6Q1016.4 552.2 1016.0 552.5ZM1026.1 552.9L1026.1 552.9Q1022.9 552.9 1021.0 550.8Q1019.1 548.7 1019.1 545.1Q1019.1 541.5 1021.0 539.3Q1022.9 537.2 1026.1 537.2L1026.1 537.2Q1028.2 537.2 1029.9 538.2Q1031.6 539.3 1032.0 540.9L1032.0 540.9Q1032.1 541.2 1032.1 541.4L1032.1 541.4Q1032.1 542.0 1031.8 542.3Q1031.5 542.6 1031.0 542.6L1031.0 542.6Q1030.6 542.6 1030.3 542.4Q1030.1 542.2 1029.8 541.7L1029.8 541.7Q1028.6 539.4 1026.1 539.4L1026.1 539.4Q1024.1 539.4 1022.9 541.0Q1021.6 542.5 1021.6 545.0L1021.6 545.0Q1021.6 547.6 1022.9 549.2Q1024.1 550.7 1026.1 550.7L1026.1 550.7Q1027.4 550.7 1028.3 550.1Q1029.2 549.6 1029.8 548.4L1029.8 548.4Q1030.1 547.9 1030.3 547.7Q1030.6 547.5 1031.0 547.5L1031.0 547.5Q1031.5 547.5 1031.8 547.8Q1032.1 548.2 1032.1 548.7L1032.1 548.7Q1032.1 548.9 1032.0 549.3L1032.0 549.3Q1031.4 550.9 1029.8 551.9Q1028.2 552.9 1026.1 552.9ZM1041.2 552.9L1041.2 552.9Q1037.8 552.9 1036.0 550.9Q1034.1 548.8 1034.1 545.1L1034.1 545.1Q1034.1 541.5 1036.0 539.3Q1037.8 537.2 1041.0 537.2L1041.0 537.2Q1043.9 537.2 1045.8 539.1Q1047.6 541.1 1047.6 544.3L1047.6 544.3Q1047.6 544.9 1047.3 545.3Q1046.9 545.7 1046.2 545.7L1046.2 545.7L1036.7 545.7Q1036.7 548.0 1037.9 549.4Q1039.1 550.7 1041.1 550.7L1041.1 550.7Q1042.5 550.7 1043.4 550.2Q1044.3 549.6 1045.2 548.3L1045.2 548.3Q1045.6 547.8 1046.2 547.8L1046.2 547.8Q1046.7 547.8 1047.0 548.1Q1047.3 548.4 1047.3 548.9L1047.3 548.9Q1047.3 549.2 1047.1 549.7L1047.1 549.7Q1046.4 551.2 1044.8 552.1Q1043.3 552.9 1041.2 552.9ZM1036.7 543.7L1036.7 543.7L1045.0 543.7Q1045.0 541.8 1043.8 540.6Q1042.7 539.4 1041.0 539.4L1041.0 539.4Q1039.2 539.4 1038.0 540.6Q1036.8 541.8 1036.7 543.7Z M1059.0 552.5Q1058.7 552.9 1058.1 552.9Q1057.5 552.9 1057.1 552.5Q1056.7 552.1 1056.7 551.5L1056.7 551.5L1056.7 532.7Q1056.7 532.1 1057.1 531.7Q1057.5 531.3 1058.1 531.3Q1058.7 531.3 1059.0 531.7Q1059.4 532.1 1059.4 532.7L1059.4 532.7L1059.4 541.8L1059.5 541.8L1068.9 531.8Q1069.4 531.3 1070.0 531.3L1070.0 531.3Q1070.5 531.3 1070.9 531.7Q1071.2 532.0 1071.2 532.5L1071.2 532.5Q1071.2 533.0 1070.9 533.3L1070.9 533.3L1063.6 540.9L1071.7 550.6Q1072.1 551.1 1072.1 551.6L1072.1 551.6Q1072.1 552.2 1071.7 552.5Q1071.3 552.9 1070.8 552.9L1070.8 552.9Q1070.1 552.9 1069.6 552.2L1069.6 552.2L1061.7 542.8L1059.4 545.3L1059.4 551.5Q1059.4 552.1 1059.0 552.5ZM1081.2 552.9L1081.2 552.9Q1077.8 552.9 1075.9 550.9Q1074.1 548.8 1074.1 545.1L1074.1 545.1Q1074.1 541.5 1075.9 539.3Q1077.8 537.2 1081.0 537.2L1081.0 537.2Q1083.9 537.2 1085.8 539.1Q1087.6 541.1 1087.6 544.3L1087.6 544.3Q1087.6 544.9 1087.2 545.3Q1086.9 545.7 1086.2 545.7L1086.2 545.7L1076.7 545.7Q1076.7 548.0 1077.9 549.4Q1079.1 550.7 1081.1 550.7L1081.1 550.7Q1082.5 550.7 1083.4 550.2Q1084.3 549.6 1085.2 548.3L1085.2 548.3Q1085.6 547.8 1086.2 547.8L1086.2 547.8Q1086.7 547.8 1087.0 548.1Q1087.3 548.4 1087.3 548.9L1087.3 548.9Q1087.3 549.2 1087.1 549.7L1087.1 549.7Q1086.4 551.2 1084.8 552.1Q1083.3 552.9 1081.2 552.9ZM1076.7 543.7L1076.7 543.7L1085.0 543.7Q1084.9 541.8 1083.8 540.6Q1082.7 539.4 1080.9 539.4L1080.9 539.4Q1079.1 539.4 1078.0 540.6Q1076.8 541.8 1076.7 543.7ZM1092.4 552.5Q1092.0 552.9 1091.4 552.9Q1090.9 552.9 1090.5 552.5Q1090.2 552.2 1090.2 551.6L1090.2 551.6L1090.2 538.5Q1090.2 537.9 1090.5 537.5Q1090.8 537.2 1091.4 537.2Q1091.9 537.2 1092.2 537.5Q1092.6 537.9 1092.6 538.5L1092.6 538.5L1092.6 539.9L1092.6 539.9Q1093.3 538.6 1094.5 537.9Q1095.8 537.2 1097.5 537.2L1097.5 537.2Q1100.0 537.2 1101.3 538.7Q1102.7 540.2 1102.7 542.8L1102.7 542.8L1102.7 551.6Q1102.7 552.2 1102.4 552.5Q1102.0 552.9 1101.5 552.9Q1100.9 552.9 1100.6 552.5Q1100.2 552.2 1100.2 551.6L1100.2 551.6L1100.2 543.2Q1100.2 541.4 1099.3 540.4Q1098.4 539.4 1096.7 539.4L1096.7 539.4Q1094.9 539.4 1093.8 540.6Q1092.7 541.8 1092.7 543.7L1092.7 543.7L1092.7 551.6Q1092.7 552.2 1092.4 552.5ZM1108.2 552.5Q1107.8 552.9 1107.3 552.9Q1106.7 552.9 1106.3 552.5Q1106.0 552.2 1106.0 551.6L1106.0 551.6L1106.0 538.5Q1106.0 537.9 1106.3 537.5Q1106.7 537.2 1107.2 537.2Q1107.7 537.2 1108.0 537.5Q1108.4 537.9 1108.4 538.5L1108.4 538.5L1108.4 539.9L1108.4 539.9Q1109.0 538.6 1110.1 537.9Q1111.3 537.2 1112.8 537.2L1112.8 537.2Q1114.3 537.2 1115.4 537.9Q1116.5 538.7 1117.0 540.1L1117.0 540.1L1117.1 540.1Q1117.7 538.7 1119.0 537.9Q1120.3 537.2 1121.9 537.2L1121.9 537.2Q1124.1 537.2 1125.5 538.5Q1126.8 539.9 1126.8 542.1L1126.8 542.1L1126.8 551.6Q1126.8 552.2 1126.5 552.5Q1126.1 552.9 1125.6 552.9Q1125.0 552.9 1124.6 552.5Q1124.3 552.2 1124.3 551.6L1124.3 551.6L1124.3 542.7Q1124.3 541.2 1123.5 540.3Q1122.6 539.4 1121.1 539.4Q1119.6 539.4 1118.6 540.4Q1117.7 541.4 1117.7 543.0L1117.7 543.0L1117.7 551.6Q1117.7 552.2 1117.3 552.5Q1117.0 552.9 1116.4 552.9Q1115.8 552.9 1115.5 552.5Q1115.1 552.2 1115.1 551.6L1115.1 551.6L1115.1 542.5Q1115.1 541.1 1114.3 540.2Q1113.4 539.4 1112.0 539.4L1112.0 539.4Q1110.5 539.4 1109.5 540.5Q1108.5 541.5 1108.5 543.1L1108.5 543.1L1108.5 551.6Q1108.5 552.2 1108.2 552.5ZM1136.4 552.9L1136.4 552.9Q1133.2 552.9 1131.3 550.8Q1129.3 548.7 1129.3 545.0Q1129.3 541.4 1131.3 539.3Q1133.2 537.2 1136.4 537.2L1136.4 537.2Q1139.6 537.2 1141.5 539.3Q1143.4 541.4 1143.4 545.0L1143.4 545.0Q1143.4 548.7 1141.5 550.8Q1139.6 552.9 1136.4 552.9ZM1133.1 549.2Q1134.3 550.7 1136.4 550.7Q1138.4 550.7 1139.6 549.2Q1140.8 547.7 1140.8 545.0Q1140.8 542.4 1139.6 540.9Q1138.4 539.4 1136.4 539.4Q1134.3 539.4 1133.1 540.9Q1131.9 542.4 1131.9 545.0Q1131.9 547.7 1133.1 549.2ZM1152.5 535.6L1152.5 535.6Q1152.1 535.6 1151.9 535.4Q1151.6 535.2 1151.6 534.8Q1151.6 534.5 1151.8 534.2L1151.8 534.2L1154.0 531.1Q1154.3 530.6 1154.6 530.5Q1154.8 530.3 1155.1 530.3L1155.1 530.3Q1155.6 530.3 1155.9 530.6Q1156.2 530.9 1156.2 531.3L1156.2 531.3Q1156.2 531.7 1155.9 532.1L1155.9 532.1L1153.4 535.1Q1153.0 535.6 1152.5 535.6ZM1152.4 552.9L1152.4 552.9Q1149.0 552.9 1147.1 550.9Q1145.3 548.8 1145.3 545.1L1145.3 545.1Q1145.3 541.5 1147.1 539.3Q1149.0 537.2 1152.2 537.2L1152.2 537.2Q1155.1 537.2 1156.9 539.1Q1158.8 541.1 1158.8 544.3L1158.8 544.3Q1158.8 544.9 1158.4 545.3Q1158.1 545.7 1157.4 545.7L1157.4 545.7L1147.9 545.7Q1147.9 548.0 1149.1 549.4Q1150.2 550.7 1152.3 550.7L1152.3 550.7Q1153.6 550.7 1154.6 550.2Q1155.5 549.6 1156.4 548.3L1156.4 548.3Q1156.8 547.8 1157.3 547.8L1157.3 547.8Q1157.9 547.8 1158.2 548.1Q1158.5 548.4 1158.5 548.9L1158.5 548.9Q1158.5 549.2 1158.3 549.7L1158.3 549.7Q1157.6 551.2 1156.0 552.1Q1154.5 552.9 1152.4 552.9ZM1147.9 543.7L1147.9 543.7L1156.2 543.7Q1156.1 541.8 1155.0 540.6Q1153.9 539.4 1152.1 539.4L1152.1 539.4Q1150.3 539.4 1149.2 540.6Q1148.0 541.8 1147.9 543.7Z "/></svg>