<svg width="1200" height="630" viewBox="0 0 1200 630" xmlns="http://www.w3.org/2000/svg"><mask id="satori_om-id"><rect x="0" y="0" width="1200" height="630" fill="#fff"/></mask><mask id="satori_om-id-0"><rect x="0" y="0" width="1200" height="630" fill="#fff"/></mask><rect x="0" y="0" width="1200" height="630" fill="#f2f2f2"/><mask id="satori_om-id-0-0"><rect x="0" y="0" width="1200" height="441" fill="#fff"/></mask><mask id="satori_om-id-0-0-0"><rect x="40" y="136" width="1120" height="36" fill="#fff"/></mask><path fill="#8e8e8e" d="M44.8 164.4Q44.4 164.9 43.6 164.9Q42.8 164.9 42.4 164.4Q41.9 164.0 41.9 163.2L41.9 163.2L41.9 145.2Q41.9 144.4 42.4 144.0Q42.8 143.5 43.6 143.5L43.6 143.5L53.8 143.5Q54.5 143.5 55.0 143.9Q55.4 144.3 55.4 144.9Q55.4 145.6 55.0 146.0Q54.5 146.4 53.8 146.4L53.8 146.4L45.2 146.4L45.2 153.0L53.1 153.0Q53.7 153.0 54.1 153.4Q54.5 153.8 54.5 154.4Q54.5 155.1 54.1 155.4Q53.7 155.8 53.1 155.8L53.1 155.8L45.2 155.8L45.2 163.2Q45.2 164.0 44.8 164.4ZM59.2 164.9L59.2 164.9Q58.5 164.9 58.1 164.5Q57.6 164.0 57.6 163.3L57.6 163.3L57.6 150.6Q57.6 149.9 58.0 149.4Q58.5 149.0 59.1 149.0L59.1 149.0Q59.8 149.0 60.2 149.4Q60.6 149.9 60.6 150.6L60.6 150.6L60.6 151.9L60.7 151.9Q61.0 150.6 62.0 149.8Q62.9 149.0 64.1 149.0L64.1 149.0Q64.9 149.0 65.3 149.4L65.3 149.4Q65.8 149.7 65.8 150.5L65.8 150.5Q65.8 151.2 65.3 151.6L65.3 151.6Q64.8 152.0 63.8 152.0L63.8 152.0Q62.3 152.0 61.5 153.0Q60.8 153.9 60.8 155.4L60.8 155.4L60.8 163.3Q60.8 164.0 60.3 164.5Q59.9 164.9 59.2 164.9ZM70.5 146.4Q69.9 146.9 69.2 146.9Q68.4 146.9 67.9 146.4Q67.3 145.9 67.3 145.1L67.3 145.1Q67.3 144.3 67.9 143.8Q68.4 143.3 69.2 143.3L69.2 143.3Q69.9 143.3 70.5 143.8Q71.0 144.3 71.0 145.1L71.0 145.1Q71.0 145.9 70.5 146.4ZM70.3 164.5Q69.9 164.9 69.2 164.9Q68.4 164.9 68.0 164.5Q67.6 164.0 67.6 163.3L67.6 163.3L67.6 150.7Q67.6 149.9 68.0 149.4Q68.4 149.0 69.2 149.0Q69.9 149.0 70.3 149.4Q70.7 149.9 70.7 150.7L70.7 150.7L70.7 163.3Q70.7 164.0 70.3 164.5ZM79.8 164.9L79.8 164.9Q76.8 164.9 75.1 162.8Q73.3 160.6 73.3 157.0Q73.3 153.3 75.0 151.2Q76.8 149.0 79.7 149.0L79.7 149.0Q81.4 149.0 82.6 149.8Q83.9 150.5 84.6 151.8L84.6 151.8L84.6 151.8L84.6 144.9Q84.6 144.1 85.1 143.7Q85.5 143.2 86.2 143.2L86.2 143.2Q86.9 143.2 87.4 143.7Q87.8 144.2 87.8 144.9L87.8 144.9L87.8 163.4Q87.8 164.1 87.4 164.5Q86.9 164.9 86.2 164.9L86.2 164.9Q85.5 164.9 85.1 164.5Q84.6 164.1 84.6 163.4L84.6 163.4L84.6 161.9L84.6 161.9Q84.0 163.3 82.7 164.1Q81.5 164.9 79.8 164.9ZM80.6 162.2L80.6 162.2Q82.4 162.2 83.5 160.8Q84.6 159.4 84.6 157.0L84.6 157.0Q84.6 154.6 83.5 153.1Q82.4 151.7 80.6 151.7L80.6 151.7Q78.7 151.7 77.6 153.1Q76.5 154.5 76.5 157.0L76.5 157.0Q76.5 159.4 77.6 160.8Q78.7 162.2 80.6 162.2ZM95.5 164.9L95.5 164.9Q93.3 164.9 91.8 163.6Q90.4 162.3 90.4 160.3L90.4 160.3Q90.4 158.3 91.9 157.1Q93.4 155.9 96.1 155.7L96.1 155.7L100.4 155.5L100.4 154.3Q100.4 153.0 99.5 152.3Q98.7 151.6 97.3 151.6L97.3 151.6Q96.1 151.6 95.3 152.0Q94.5 152.5 93.9 153.5L93.9 153.5Q93.4 154.2 92.6 154.2L92.6 154.2Q92.0 154.2 91.6 153.8Q91.2 153.4 91.2 152.9L91.2 152.9Q91.2 152.3 91.5 151.8L91.5 151.8Q92.1 150.5 93.7 149.8Q95.3 149.0 97.4 149.0L97.4 149.0Q100.2 149.0 101.9 150.4Q103.5 151.7 103.5 154.0L103.5 154.0L103.5 163.3Q103.5 164.1 103.1 164.5Q102.7 164.9 102.0 164.9L102.0 164.9Q101.3 164.9 100.9 164.5Q100.5 164.1 100.5 163.4L100.5 163.4L100.5 162.1L100.4 162.1Q99.8 163.4 98.4 164.2Q97.1 164.9 95.5 164.9ZM96.4 162.4L96.4 162.4Q98.1 162.4 99.2 161.4Q100.4 160.4 100.4 158.9L100.4 158.9L100.4 157.7L96.6 157.9Q95.1 158.0 94.4 158.6Q93.6 159.2 93.6 160.2L93.6 160.2Q93.6 161.2 94.4 161.8Q95.2 162.4 96.4 162.4ZM108.5 170.4L108.5 170.4Q107.4 170.4 106.8 170.0Q106.2 169.6 106.2 168.9L106.2 168.9Q106.2 168.4 106.5 168.1Q106.9 167.8 107.4 167.8L107.4 167.8Q107.6 167.8 107.8 167.8Q108.1 167.8 108.3 167.8L108.3 167.8Q109.9 167.8 110.6 165.7L110.6 165.7L110.9 164.8L105.7 151.3Q105.6 150.9 105.6 150.4L105.6 150.4Q105.6 149.8 106.0 149.4Q106.5 149.0 107.2 149.0L107.2 149.0Q107.8 149.0 108.1 149.3Q108.5 149.5 108.7 150.2L108.7 150.2L112.6 161.8L112.7 161.8L116.6 150.2Q116.8 149.5 117.2 149.3Q117.5 149.0 118.1 149.0L118.1 149.0Q118.8 149.0 119.2 149.4Q119.7 149.8 119.7 150.4L119.7 150.4Q119.7 150.8 119.5 151.3L119.5 151.3L114.2 165.4Q113.1 168.2 111.9 169.3Q110.6 170.4 108.5 170.4ZM124.1 161.1L124.1 161.1Q124.8 161.1 125.2 161.5Q125.6 161.8 125.6 162.4L125.6 162.4Q125.6 162.8 125.5 163.3L125.5 163.3L124.2 168.3Q123.9 169.4 122.9 169.4L122.9 169.4Q122.3 169.4 122.0 169.1Q121.6 168.7 121.6 168.2L121.6 168.2Q121.6 168.1 121.7 167.8L121.7 167.8L122.6 162.4Q122.8 161.1 124.1 161.1Z M142.7 164.9L142.7 164.9Q142.0 164.9 141.6 164.5Q141.1 164.0 141.1 163.3L141.1 163.3L141.1 146.9L141.1 146.9L137.4 149.4Q136.9 149.7 136.4 149.7L136.4 149.7Q135.9 149.7 135.5 149.4Q135.2 149.0 135.2 148.5L135.2 148.5Q135.2 147.7 136.0 147.1L136.0 147.1L140.4 144.0Q141.1 143.6 141.5 143.4Q141.9 143.2 142.5 143.2L142.5 143.2Q143.4 143.2 143.9 143.7Q144.3 144.2 144.3 145.1L144.3 145.1L144.3 163.3Q144.3 164.0 143.9 164.5Q143.4 164.9 142.7 164.9ZM157.5 165.1L157.5 165.1Q155.0 165.1 153.2 163.9Q151.3 162.6 150.3 160.3L150.3 160.3Q149.1 157.9 149.1 154.4L149.1 154.4Q149.1 149.1 151.4 146.1Q153.6 143.1 157.6 143.1L157.6 143.1Q159.8 143.1 161.5 144.0Q163.2 144.9 164.1 146.5L164.1 146.5Q164.5 147.1 164.5 147.7L164.5 147.7Q164.5 148.3 164.1 148.7Q163.7 149.1 163.0 149.1L163.0 149.1Q162.5 149.1 162.2 148.8Q161.8 148.6 161.4 148.0L161.4 148.0Q160.0 145.9 157.5 145.9L157.5 145.9Q155.1 145.9 153.7 148.0Q152.4 150.1 152.3 154.0L152.3 154.0L152.3 154.2L152.4 154.2Q153.0 152.7 154.6 151.7Q156.1 150.8 158.2 150.8L158.2 150.8Q161.2 150.8 163.2 152.8Q165.2 154.7 165.2 157.8L165.2 157.8Q165.2 160.9 163.0 163.0Q160.8 165.1 157.5 165.1ZM157.4 162.3L157.4 162.3Q159.3 162.3 160.6 161.0Q161.9 159.7 161.9 157.9L161.9 157.9Q161.9 155.9 160.7 154.7Q159.4 153.5 157.5 153.5Q155.5 153.5 154.2 154.7Q152.9 155.9 152.9 157.8L152.9 157.8Q152.9 159.7 154.2 161.0Q155.5 162.3 157.4 162.3Z M176.9 164.5Q176.5 164.9 175.8 164.9Q175.1 164.9 174.7 164.5Q174.3 164.1 174.3 163.3L174.3 163.3L174.3 145.4Q174.3 144.4 174.9 143.9Q175.5 143.3 176.4 143.3L176.4 143.3Q177.3 143.3 177.8 143.7Q178.3 144.1 178.7 145.0L178.7 145.0L185.0 160.2L185.1 160.2L191.3 145.0Q191.7 144.1 192.2 143.7Q192.8 143.3 193.6 143.3L193.6 143.3Q194.6 143.3 195.1 143.8Q195.7 144.4 195.7 145.4L195.7 145.4L195.7 163.3Q195.7 164.1 195.3 164.5Q194.9 164.9 194.2 164.9L194.2 164.9Q193.5 164.9 193.1 164.5Q192.7 164.1 192.7 163.3L192.7 163.3L192.7 149.1L192.6 149.1L186.7 163.3Q186.2 164.5 185.0 164.5L185.0 164.5Q183.8 164.5 183.3 163.3L183.3 163.3L177.4 149.1L177.3 149.1L177.3 163.3Q177.3 164.1 176.9 164.5ZM203.7 164.9L203.7 164.9Q201.5 164.9 200.0 163.6Q198.6 162.3 198.6 160.3L198.6 160.3Q198.6 158.3 200.1 157.1Q201.6 155.9 204.3 155.7L204.3 155.7L208.6 155.5L208.6 154.3Q208.6 153.0 207.7 152.3Q206.9 151.6 205.5 151.6L205.5 151.6Q204.3 151.6 203.5 152.0Q202.7 152.5 202.1 153.5L202.1 153.5Q201.6 154.2 200.8 154.2L200.8 154.2Q200.2 154.2 199.8 153.8Q199.4 153.4 199.4 152.9L199.4 152.9Q199.4 152.3 199.7 151.8L199.7 151.8Q200.3 150.5 201.9 149.8Q203.5 149.0 205.6 149.0L205.6 149.0Q208.4 149.0 210.0 150.4Q211.7 151.7 211.7 154.0L211.7 154.0L211.7 163.3Q211.7 164.1 211.3 164.5Q210.9 164.9 210.2 164.9L210.2 164.9Q209.5 164.9 209.1 164.5Q208.7 164.1 208.7 163.4L208.7 163.4L208.7 162.1L208.6 162.1Q207.9 163.4 206.6 164.2Q205.3 164.9 203.7 164.9ZM204.6 162.4L204.6 162.4Q206.3 162.4 207.4 161.4Q208.6 160.4 208.6 158.9L208.6 158.9L208.6 157.7L204.8 157.9Q203.3 158.0 202.6 158.6Q201.8 159.2 201.8 160.2L201.8 160.2Q201.8 161.2 202.6 161.8Q203.3 162.4 204.6 162.4ZM216.7 170.4L216.7 170.4Q215.6 170.4 215.0 170.0Q214.4 169.6 214.4 168.9L214.4 168.9Q214.4 168.4 214.7 168.1Q215.1 167.8 215.6 167.8L215.6 167.8Q215.8 167.8 216.0 167.8Q216.3 167.8 216.5 167.8L216.5 167.8Q218.1 167.8 218.8 165.7L218.8 165.7L219.1 164.8L213.9 151.3Q213.8 150.9 213.8 150.4L213.8 150.4Q213.8 149.8 214.2 149.4Q214.7 149.0 215.4 149.0L215.4 149.0Q216.0 149.0 216.3 149.3Q216.7 149.5 216.9 150.2L216.9 150.2L220.8 161.8L220.9 161.8L224.8 150.2Q225.0 149.5 225.4 149.3Q225.7 149.0 226.3 149.0L226.3 149.0Q227.0 149.0 227.4 149.4Q227.9 149.8 227.9 150.4L227.9 150.4Q227.9 150.8 227.7 151.3L227.7 151.3L222.3 165.4Q221.3 168.2 220.1 169.3Q218.8 170.4 216.7 170.4Z M249.3 164.7L237.6 164.7Q236.9 164.7 236.5 164.3Q236.1 163.9 236.1 163.3L236.1 163.3Q236.1 162.8 236.2 162.5Q236.4 162.1 237.0 161.6L237.0 161.6L243.6 154.9Q245.6 152.8 246.3 151.7Q247.0 150.6 247.0 149.3L247.0 149.3Q247.0 147.8 246.0 146.8Q244.9 145.8 243.3 145.8L243.3 145.8Q240.2 145.8 239.1 149.0L239.1 149.0Q238.8 149.5 238.5 149.8Q238.2 150.0 237.6 150.0L237.6 150.0Q236.9 150.0 236.5 149.6Q236.1 149.3 236.1 148.6L236.1 148.6Q236.1 148.3 236.2 148.0L236.2 148.0Q236.4 147.1 237.0 146.3Q237.5 145.4 238.4 144.7Q239.2 144.0 240.5 143.6Q241.8 143.1 243.3 143.1L243.3 143.1Q246.4 143.1 248.3 144.8Q250.2 146.5 250.2 149.1L250.2 149.1Q250.2 150.9 249.3 152.5Q248.3 154.0 245.5 156.8L245.5 156.8L240.5 161.8L240.5 161.9L249.3 161.9Q249.9 161.9 250.3 162.3Q250.7 162.7 250.7 163.3L250.7 163.3Q250.7 163.9 250.3 164.3Q249.9 164.7 249.3 164.7L249.3 164.7ZM267.2 162.1Q265.0 165.1 261.2 165.1Q257.4 165.1 255.3 162.1Q253.1 159.2 253.1 154.1L253.1 154.1Q253.1 149.0 255.3 146.1Q257.4 143.1 261.2 143.1L261.2 143.1Q265.0 143.1 267.1 146.1Q269.3 149.0 269.3 154.1L269.3 154.1Q269.3 159.1 267.2 162.1ZM261.2 162.3L261.2 162.3Q263.5 162.3 264.7 160.1Q266.0 157.9 266.0 154.1L266.0 154.1Q266.0 150.3 264.7 148.1Q263.5 145.9 261.2 145.9Q259.0 145.9 257.7 148.1Q256.4 150.3 256.4 154.1L256.4 154.1Q256.4 157.9 257.7 160.1Q258.9 162.3 261.2 162.3ZM285.4 164.7L273.7 164.7Q273.0 164.7 272.6 164.3Q272.1 163.9 272.1 163.3L272.1 163.3Q272.1 162.8 272.3 162.5Q272.5 162.1 273.1 161.6L273.1 161.6L279.7 154.9Q281.7 152.8 282.4 151.7Q283.1 150.6 283.1 149.3L283.1 149.3Q283.1 147.8 282.1 146.8Q281.0 145.8 279.4 145.8L279.4 145.8Q276.3 145.8 275.2 149.0L275.2 149.0Q274.9 149.5 274.6 149.8Q274.3 150.0 273.7 150.0L273.7 150.0Q273.0 150.0 272.6 149.6Q272.2 149.3 272.2 148.6L272.2 148.6Q272.2 148.3 272.3 148.0L272.3 148.0Q272.5 147.1 273.0 146.3Q273.6 145.4 274.5 144.7Q275.3 144.0 276.6 143.6Q277.9 143.1 279.4 143.1L279.4 143.1Q282.5 143.1 284.4 144.8Q286.3 146.5 286.3 149.1L286.3 149.1Q286.3 150.9 285.3 152.5Q284.4 154.0 281.6 156.8L281.6 156.8L276.6 161.8L276.6 161.9L285.4 161.9Q286.0 161.9 286.4 162.3Q286.8 162.7 286.8 163.3L286.8 163.3Q286.8 163.9 286.4 164.3Q286.0 164.7 285.4 164.7L285.4 164.7ZM297.1 165.1L297.1 165.1Q294.8 165.1 292.9 164.0Q291.0 162.9 290.2 161.2L290.2 161.2Q289.9 160.5 289.9 159.8L289.9 159.8Q289.9 159.1 290.3 158.7Q290.7 158.3 291.4 158.3L291.4 158.3Q291.9 158.3 292.2 158.6Q292.6 158.8 292.8 159.4L292.8 159.4Q293.4 160.8 294.5 161.5Q295.6 162.3 297.2 162.3L297.2 162.3Q299.2 162.3 300.4 161.0Q301.7 159.8 301.7 157.8L301.7 157.8Q301.7 155.8 300.4 154.6Q299.2 153.4 297.2 153.4L297.2 153.4Q295.1 153.4 293.7 154.7L293.7 154.7Q293.1 155.5 292.7 155.6Q292.3 155.8 291.7 155.8L291.7 155.8Q291.0 155.8 290.6 155.4Q290.2 154.9 290.2 154.2L290.2 154.2L290.2 153.9L290.9 145.8Q291.0 144.6 291.6 144.0Q292.2 143.5 293.4 143.5L293.4 143.5L302.4 143.5Q303.1 143.5 303.5 143.9Q303.8 144.3 303.8 144.9Q303.8 145.5 303.5 145.9Q303.1 146.3 302.4 146.3L302.4 146.3L293.7 146.3L293.1 152.9L293.2 152.9Q293.9 151.9 295.1 151.3Q296.4 150.8 297.9 150.8L297.9 150.8Q301.0 150.8 303.0 152.7Q304.9 154.6 304.9 157.7L304.9 157.7Q304.9 161.0 302.7 163.0Q300.6 165.1 297.1 165.1Z "/><mask id="satori_om-id-0-0-1"><rect x="40" y="217" width="1120" height="83" fill="#fff"/></mask><path fill="#224d67" d="M67.5 279.6L47.5 279.6Q45.7 279.6 44.7 278.5Q43.7 277.5 43.7 275.7L43.7 275.7L43.7 240.7Q43.7 238.9 44.7 237.8Q45.7 236.8 47.5 236.8L47.5 236.8Q49.3 236.8 50.3 237.8Q51.3 238.9 51.3 240.7L51.3 240.7L51.3 273.2L67.5 273.2Q69.0 273.2 70.0 274.1Q70.9 274.9 70.9 276.4Q70.9 277.8 70 278.7Q69.1 279.6 67.5 279.6L67.5 279.6ZM89.0 280.2L89.0 280.2Q81.8 280.2 77.9 276.0Q73.9 271.7 73.9 264.2L73.9 264.2Q73.9 256.7 77.9 252.3Q81.8 247.9 88.5 247.9L88.5 247.9Q94.9 247.9 98.9 251.9Q102.8 256.0 102.8 262.4L102.8 262.4Q102.8 264.0 101.9 264.9Q101.1 265.8 99.4 265.8L99.4 265.8L81.1 265.8L81.1 266.0Q81.1 269.9 83.2 272.3Q85.4 274.6 88.9 274.6L88.9 274.6Q91.4 274.6 93.1 273.6Q94.9 272.7 96.7 270.4L96.7 270.4Q97.7 269.3 99.1 269.3L99.1 269.3Q100.4 269.3 101.2 270.0Q102.1 270.8 102.1 272.1L102.1 272.1Q102.1 272.9 101.6 273.9L101.6 273.9Q100 276.9 96.7 278.5Q93.4 280.2 89.0 280.2ZM81.2 261.0L81.2 261.0L95.7 261.0Q95.6 257.6 93.6 255.6Q91.7 253.5 88.6 253.5Q85.5 253.5 83.4 255.6Q81.4 257.7 81.2 261.0ZM120.9 291.3L120.9 291.3Q116.6 291.2 113.2 289.7Q109.9 288.2 108.3 285.6L108.3 285.6Q107.7 284.6 107.7 283.4L107.7 283.4Q107.7 282.2 108.5 281.4Q109.4 280.6 110.8 280.6L110.8 280.6Q112.2 280.6 113.4 281.8L113.4 281.8Q115.3 283.7 117.1 284.6Q118.8 285.4 121.0 285.5L121.0 285.5Q124.6 285.5 126.8 283.6Q128.9 281.7 128.9 278.6L128.9 278.6L128.9 273.7L128.7 273.7Q127.5 276.2 124.9 277.7Q122.3 279.3 119.0 279.3L119.0 279.3Q113.2 279.3 109.7 275.0Q106.2 270.8 106.2 263.7L106.2 263.7Q106.2 256.4 109.7 252.2Q113.2 248.0 119.2 248.0L119.2 248.0Q122.4 248.0 124.9 249.5Q127.4 251.1 128.8 253.8L128.8 253.8L128.9 253.8L128.9 251.6Q128.9 249.9 129.9 248.9Q131.0 247.9 132.6 247.9Q134.2 247.9 135.2 248.9Q136.2 249.9 136.2 251.6L136.2 251.6L136.2 278.6Q136.2 284.5 132.1 287.9Q128.1 291.3 120.9 291.3ZM121.2 273.6L121.2 273.6Q124.8 273.6 126.9 270.9Q128.9 268.3 128.9 263.7L128.9 263.7Q128.9 259.2 126.8 256.5Q124.7 253.8 121.2 253.8L121.2 253.8Q117.8 253.8 115.7 256.5Q113.7 259.2 113.7 263.7L113.7 263.7Q113.7 268.3 115.7 271.0Q117.8 273.6 121.2 273.6ZM151.3 280.1L151.3 280.1Q146.7 280.1 143.8 277.5Q140.9 274.9 140.9 270.7L140.9 270.7Q140.9 266.6 144.0 264.2Q147.0 261.8 152.7 261.4L152.7 261.4L160.9 260.9L160.9 258.7Q160.9 256.3 159.4 254.9Q157.9 253.6 155.1 253.6L155.1 253.6Q153.0 253.6 151.5 254.4Q150.0 255.2 148.6 257.2L148.6 257.2Q147.5 258.7 145.7 258.7L145.7 258.7Q144.3 258.7 143.5 257.9Q142.6 257.1 142.6 255.8L142.6 255.8Q142.6 254.8 143.1 253.8L143.1 253.8Q144.3 251.1 147.6 249.5Q151.0 247.9 155.4 247.9L155.4 247.9Q161.2 247.9 164.7 250.7Q168.1 253.5 168.1 258.2L168.1 258.2L168.1 276.5Q168.1 278.2 167.2 279.2Q166.2 280.2 164.6 280.2L164.6 280.2Q163.1 280.2 162.1 279.3Q161.2 278.4 161.1 276.8L161.1 276.8L161.1 274.6L161.0 274.6Q159.6 277.1 157.0 278.6Q154.3 280.1 151.3 280.1ZM153.5 274.6L153.5 274.6Q156.6 274.6 158.8 272.7Q160.9 270.8 160.9 268.1L160.9 268.1L160.9 265.7L153.7 266.1Q151.1 266.3 149.6 267.4Q148.2 268.6 148.2 270.4L148.2 270.4Q148.2 272.3 149.6 273.4Q151.1 274.6 153.5 274.6ZM180.5 279.2Q179.5 280.2 177.9 280.2Q176.2 280.2 175.2 279.2Q174.2 278.1 174.2 276.3L174.2 276.3L174.2 240.6Q174.2 238.7 175.2 237.7Q176.2 236.7 177.9 236.7Q179.5 236.7 180.5 237.7Q181.5 238.7 181.5 240.6L181.5 240.6L181.5 276.3Q181.5 278.1 180.5 279.2Z M202.3 280.1L202.3 280.1Q200.6 280.1 199.5 279.1Q198.5 278.2 198.5 276.6L198.5 276.6Q198.5 275.6 199.0 274.3L199.0 274.3L211.3 240.9Q212.0 238.8 213.4 237.8Q214.7 236.8 216.7 236.8L216.7 236.8Q218.8 236.8 220.2 237.8Q221.5 238.7 222.3 240.9L222.3 240.9L234.6 274.3Q235.1 275.7 235.1 276.6L235.1 276.6Q235.1 278.1 234.0 279.1Q232.9 280.1 231.3 280.1L231.3 280.1Q229.8 280.1 228.8 279.3Q227.9 278.6 227.4 276.9L227.4 276.9L224.7 268.8L208.9 268.8L206.1 276.8Q205.6 278.6 204.7 279.3Q203.8 280.1 202.3 280.1ZM216.6 244.8L210.7 262.8L222.8 262.8L216.8 244.8L216.6 244.8ZM251.4 280.1L251.4 280.1Q245.5 280.1 242.0 275.7Q238.5 271.4 238.5 264.0L238.5 264.0Q238.5 256.7 242.0 252.3Q245.5 248.0 251.4 248.0L251.4 248.0Q254.7 248.0 257.3 249.5Q259.8 251.1 261.0 253.7L261.0 253.7L261.2 253.7L261.2 240.6Q261.2 238.7 262.2 237.7Q263.2 236.7 264.9 236.7Q266.5 236.7 267.5 237.7Q268.5 238.7 268.5 240.6L268.5 240.6L268.5 276.5Q268.5 278.2 267.5 279.2Q266.5 280.2 264.9 280.2L264.9 280.2Q263.3 280.2 262.2 279.2Q261.2 278.2 261.2 276.5L261.2 276.5L261.2 274.1L261.1 274.1Q259.9 276.9 257.4 278.5Q255.0 280.1 251.4 280.1ZM253.6 274.1L253.6 274.1Q257.1 274.1 259.2 271.4Q261.3 268.7 261.3 264.1L261.3 264.1Q261.3 259.5 259.2 256.7Q257.1 254.0 253.6 254.0L253.6 254.0Q250.1 254.0 248.1 256.7Q246.0 259.4 246.0 264.1L246.0 264.1Q246.0 268.7 248.1 271.4Q250.1 274.1 253.6 274.1ZM287.1 280.2L287.1 280.2Q285.0 280.2 283.9 279.3Q282.7 278.4 281.9 276.4L281.9 276.4L273.2 253.3Q272.8 252.2 272.8 251.2L272.8 251.2Q272.8 249.8 273.8 248.8Q274.8 247.9 276.5 247.9L276.5 247.9Q279.1 247.9 279.9 250.8L279.9 250.8L287.0 272.8L287.1 272.8L294.2 250.8Q295.1 247.9 297.7 247.9L297.7 247.9Q299.2 247.9 300.2 248.8Q301.2 249.8 301.2 251.2L301.2 251.2Q301.2 252.2 300.8 253.2L300.8 253.2L292.1 276.4Q291.4 278.3 290.2 279.3Q289.0 280.2 287.1 280.2ZM312.0 243.0Q310.8 244.2 309.1 244.2Q307.4 244.2 306.3 243.0Q305.1 241.8 305.1 240.2L305.1 240.2Q305.1 238.5 306.3 237.4Q307.4 236.2 309.1 236.2L309.1 236.2Q310.8 236.2 312.0 237.4Q313.2 238.5 313.2 240.2L313.2 240.2Q313.2 241.8 312.0 243.0ZM311.8 279.1Q310.8 280.2 309.1 280.2Q307.5 280.2 306.5 279.1Q305.5 278.1 305.5 276.3L305.5 276.3L305.5 251.7Q305.5 250.0 306.5 248.9Q307.5 247.9 309.1 247.9Q310.8 247.9 311.8 248.9Q312.8 250.0 312.8 251.8L312.8 251.8L312.8 276.3Q312.8 278.1 311.8 279.1ZM332.6 280.2L332.6 280.2Q325.7 280.2 321.7 275.9Q317.6 271.5 317.6 264.1L317.6 264.1Q317.6 256.7 321.7 252.3Q325.7 247.9 332.5 247.9L332.5 247.9Q337.0 247.9 340.6 250.0Q344.2 252.1 345.3 255.4L345.3 255.4Q345.7 256.4 345.7 257.1L345.7 257.1Q345.7 258.5 344.8 259.3Q343.9 260.1 342.5 260.1L342.5 260.1Q341.4 260.1 340.7 259.6Q340.0 259.1 339.3 258.0L339.3 258.0Q337.0 253.8 332.7 253.8L332.7 253.8Q329.2 253.8 327.1 256.6Q325.0 259.3 325.0 264.1L325.0 264.1Q325.0 268.9 327.1 271.6Q329.2 274.3 332.7 274.3L332.7 274.3Q337.0 274.3 339.3 270.3L339.3 270.3Q340.1 269.1 340.8 268.6Q341.5 268.1 342.7 268.1L342.7 268.1Q344.0 268.1 344.9 268.9Q345.7 269.7 345.7 271.1L345.7 271.1Q345.7 271.9 345.3 272.9L345.3 272.9Q344.0 276.1 340.5 278.2Q336.9 280.2 332.6 280.2ZM364.4 280.2L364.4 280.2Q357.3 280.2 353.3 276.0Q349.3 271.7 349.3 264.2L349.3 264.2Q349.3 256.7 353.3 252.3Q357.3 247.9 364.0 247.9L364.0 247.9Q370.4 247.9 374.4 251.9Q378.3 256.0 378.3 262.4L378.3 262.4Q378.3 264.0 377.4 264.9Q376.5 265.8 374.9 265.8L374.9 265.8L356.6 265.8L356.6 266.0Q356.6 269.9 358.7 272.3Q360.8 274.6 364.4 274.6L364.4 274.6Q366.8 274.6 368.6 273.6Q370.4 272.7 372.1 270.4L372.1 270.4Q373.2 269.3 374.6 269.3L374.6 269.3Q375.9 269.3 376.7 270.0Q377.5 270.8 377.5 272.1L377.5 272.1Q377.5 272.9 377.0 273.9L377.0 273.9Q375.5 276.9 372.2 278.5Q368.9 280.2 364.4 280.2ZM356.7 261.0L356.7 261.0L371.2 261.0Q371.1 257.6 369.1 255.6Q367.1 253.5 364.1 253.5Q361.0 253.5 358.9 255.6Q356.9 257.7 356.7 261.0Z M413.1 280.3L413.1 280.3Q405.2 280.3 400.5 276.0Q395.8 271.7 395.8 264.7L395.8 264.7L395.8 240.7Q395.8 238.9 396.8 237.8Q397.8 236.8 399.5 236.8L399.5 236.8Q401.3 236.8 402.3 237.8Q403.3 238.9 403.3 240.7L403.3 240.7L403.3 264.0Q403.3 268.4 405.9 271.0Q408.5 273.7 413.1 273.7Q417.8 273.7 420.4 271.0Q423.0 268.4 423.0 264.0L423.0 264.0L423.0 240.7Q423.0 238.9 424.0 237.8Q425.0 236.8 426.7 236.8L426.7 236.8Q428.5 236.8 429.5 237.8Q430.5 238.9 430.5 240.7L430.5 240.7L430.5 264.7Q430.5 271.7 425.8 276.0Q421.1 280.3 413.1 280.3ZM449.2 280.2L449.2 280.2Q444.4 280.2 441.0 278.5Q437.7 276.8 436.6 274.0L436.6 274.0Q436.3 273.2 436.3 272.5L436.3 272.5Q436.3 271.2 437.1 270.4Q438.0 269.6 439.3 269.6L439.3 269.6Q441.1 269.6 442.5 271.4L442.5 271.4Q443.7 273.3 445.3 274.1Q446.9 274.9 449.5 274.9L449.5 274.9Q452.1 274.9 453.6 273.9Q455.1 272.8 455.1 271.1L455.1 271.1Q455.1 269.7 454.1 268.8Q453.1 268.0 450.8 267.4L450.8 267.4L445.7 266.3Q436.7 264.3 436.7 257.4L436.7 257.4Q436.7 253.1 440.1 250.5Q443.6 247.9 449.3 247.9L449.3 247.9Q453.7 247.9 457.0 249.8Q460.2 251.6 460.9 254.4L460.9 254.4Q461.1 255.0 461.1 255.5L461.1 255.5Q461.1 256.6 460.3 257.4Q459.6 258.1 458.2 258.1L458.2 258.1Q456.4 258.1 455.5 256.7L455.5 256.7Q454.3 255.0 452.8 254.1Q451.4 253.2 449.2 253.2L449.2 253.2Q446.8 253.2 445.3 254.3Q443.8 255.3 443.8 257.0L443.8 257.0Q443.8 259.8 448.3 260.8L448.3 260.8L453.3 261.9Q458.2 263.0 460.3 264.9Q462.5 266.9 462.5 270.3L462.5 270.3Q462.5 274.8 458.8 277.5Q455.2 280.2 449.2 280.2ZM480.9 280.2L480.9 280.2Q473.7 280.2 469.8 276.0Q465.8 271.7 465.8 264.2L465.8 264.2Q465.8 256.7 469.8 252.3Q473.7 247.9 480.4 247.9L480.4 247.9Q486.8 247.9 490.8 251.9Q494.7 256.0 494.7 262.4L494.7 262.4Q494.7 264.0 493.9 264.9Q493.0 265.8 491.3 265.8L491.3 265.8L473.0 265.8L473.0 266.0Q473.0 269.9 475.1 272.3Q477.3 274.6 480.8 274.6L480.8 274.6Q483.3 274.6 485.0 273.6Q486.8 272.7 488.6 270.4L488.6 270.4Q489.6 269.3 491.0 269.3L491.0 269.3Q492.3 269.3 493.1 270.0Q494.0 270.8 494.0 272.1L494.0 272.1Q494.0 272.9 493.5 273.9L493.5 273.9Q491.9 276.9 488.6 278.5Q485.3 280.2 480.9 280.2ZM473.1 261.0L473.1 261.0L487.6 261.0Q487.5 257.6 485.5 255.6Q483.6 253.5 480.5 253.5Q477.4 253.5 475.4 255.6Q473.3 257.7 473.1 261.0ZM511.0 280.1L511.0 280.1Q505.1 280.1 501.6 275.7Q498.1 271.4 498.1 264.0L498.1 264.0Q498.1 256.7 501.6 252.3Q505.1 248.0 511.0 248.0L511.0 248.0Q514.3 248.0 516.9 249.5Q519.4 251.1 520.6 253.7L520.6 253.7L520.8 253.7L520.8 240.6Q520.8 238.7 521.8 237.7Q522.8 236.7 524.5 236.7Q526.1 236.7 527.1 237.7Q528.1 238.7 528.1 240.6L528.1 240.6L528.1 276.5Q528.1 278.2 527.1 279.2Q526.1 280.2 524.5 280.2L524.5 280.2Q522.9 280.2 521.8 279.2Q520.8 278.2 520.8 276.5L520.8 276.5L520.8 274.1L520.7 274.1Q519.5 276.9 517.0 278.5Q514.6 280.1 511.0 280.1ZM513.2 274.1L513.2 274.1Q516.7 274.1 518.8 271.4Q520.8 268.7 520.8 264.1L520.8 264.1Q520.8 259.5 518.8 256.7Q516.7 254.0 513.2 254.0L513.2 254.0Q509.7 254.0 507.7 256.7Q505.6 259.4 505.6 264.1L505.6 264.1Q505.6 268.7 507.7 271.4Q509.7 274.1 513.2 274.1Z M548.3 271.9L548.3 271.9L548.3 254.1L546.3 254.1Q545.0 254.1 544.2 253.4Q543.4 252.6 543.4 251.3L543.4 251.3Q543.4 250.0 544.2 249.3Q544.9 248.5 546.3 248.5L546.3 248.5L548.3 248.5L548.3 244.4Q548.3 242.6 549.3 241.6Q550.2 240.6 551.9 240.6L551.9 240.6Q553.6 240.6 554.6 241.6Q555.6 242.6 555.6 244.4L555.6 244.4L555.6 248.5L558.9 248.5Q560.3 248.5 561.1 249.3Q561.9 250.0 561.9 251.3L561.9 251.3Q561.9 252.6 561.1 253.4Q560.3 254.1 558.9 254.1L558.9 254.1L555.6 254.1L555.6 270.3Q555.6 272.1 556.2 272.9Q556.9 273.7 558.5 273.9L558.5 273.9L559.0 273.9Q562.0 274.2 562.0 276.6L562.0 276.6Q562.0 278.2 560.6 279.1Q559.3 279.9 556.7 279.9L556.7 279.9L556.4 279.9Q548.3 279.9 548.3 271.9ZM591.1 275.9Q587.0 280.2 580.1 280.2Q573.2 280.2 569.2 275.9Q565.1 271.6 565.1 264.1L565.1 264.1Q565.1 256.6 569.2 252.2Q573.3 247.9 580.1 247.9L580.1 247.9Q587.0 247.9 591.1 252.2Q595.1 256.6 595.1 264.1L595.1 264.1Q595.1 271.6 591.1 275.9ZM574.6 271.7Q576.6 274.4 580.1 274.4Q583.6 274.4 585.7 271.7Q587.7 269.0 587.7 264.1L587.7 264.1Q587.7 259.2 585.7 256.4Q583.6 253.7 580.1 253.7L580.1 253.7Q576.6 253.7 574.6 256.4Q572.5 259.2 572.5 264.1L572.5 264.1Q572.5 269.0 574.6 271.7Z M623.3 280.3L623.3 280.3Q618.8 280.3 615.5 278.3Q612.1 276.2 610.7 272.7L610.7 272.7Q610.1 270.9 610.1 269.4L610.1 269.4Q610.1 267.7 611.0 266.8Q612.0 265.8 613.6 265.8L613.6 265.8Q615.0 265.8 615.9 266.5Q616.8 267.2 617.2 268.9L617.2 268.9Q617.9 271.2 619.4 272.4Q621.0 273.7 623.2 273.7L623.2 273.7Q626.3 273.7 627.9 271.9Q629.5 270.1 629.5 266.6L629.5 266.6L629.5 240.7Q629.5 238.9 630.5 237.8Q631.5 236.8 633.3 236.8L633.3 236.8Q635.0 236.8 636.0 237.8Q637.0 238.9 637.0 240.7L637.0 240.7L637.0 266.7Q637.0 273.1 633.4 276.7Q629.8 280.3 623.3 280.3ZM654.8 280.1L654.8 280.1Q649.8 280.1 646.8 277.0Q643.8 274.0 643.8 268.6L643.8 268.6L643.8 251.7Q643.8 250.0 644.8 248.9Q645.8 247.9 647.4 247.9Q649.1 247.9 650.1 248.9Q651.1 250.0 651.1 251.8L651.1 251.8L651.1 267.1Q651.1 270.5 652.7 272.2Q654.3 274.0 657.4 274.0L657.4 274.0Q660.5 274.0 662.4 271.9Q664.2 269.9 664.2 266.5L664.2 266.5L664.2 251.7Q664.2 250.0 665.2 248.9Q666.2 247.9 667.9 247.9L667.9 247.9Q669.5 247.9 670.5 248.9Q671.5 250.0 671.5 251.8L671.5 251.8L671.5 276.5Q671.5 278.2 670.5 279.2Q669.6 280.2 668.0 280.2L668.0 280.2Q666.4 280.2 665.4 279.2Q664.5 278.2 664.5 276.5L664.5 276.5L664.5 274.2L664.3 274.2Q661.7 280.1 654.8 280.1ZM689.4 280.2L689.4 280.2Q684.6 280.2 681.3 278.5Q677.9 276.8 676.8 274.0L676.8 274.0Q676.5 273.2 676.5 272.5L676.5 272.5Q676.5 271.2 677.3 270.4Q678.2 269.6 679.5 269.6L679.5 269.6Q681.3 269.6 682.7 271.4L682.7 271.4Q683.9 273.3 685.5 274.1Q687.1 274.9 689.7 274.9L689.7 274.9Q692.3 274.9 693.8 273.9Q695.3 272.8 695.3 271.1L695.3 271.1Q695.3 269.7 694.3 268.8Q693.3 268.0 691.0 267.4L691.0 267.4L685.9 266.3Q676.9 264.3 676.9 257.4L676.9 257.4Q676.9 253.1 680.3 250.5Q683.8 247.9 689.5 247.9L689.5 247.9Q693.9 247.9 697.2 249.8Q700.4 251.6 701.1 254.4L701.1 254.4Q701.3 255.0 701.3 255.5L701.3 255.5Q701.3 256.6 700.5 257.4Q699.8 258.1 698.4 258.1L698.4 258.1Q696.6 258.1 695.7 256.7L695.7 256.7Q694.5 255.0 693.0 254.1Q691.6 253.2 689.4 253.2L689.4 253.2Q687.0 253.2 685.5 254.3Q684.0 255.3 684.0 257.0L684.0 257.0Q684.0 259.8 688.5 260.8L688.5 260.8L693.5 261.9Q698.4 263.0 700.5 264.9Q702.7 266.9 702.7 270.3L702.7 270.3Q702.7 274.8 699.0 277.5Q695.4 280.2 689.4 280.2ZM709.3 271.9L709.3 271.9L709.3 254.1L707.3 254.1Q706.0 254.1 705.2 253.4Q704.4 252.6 704.4 251.3L704.4 251.3Q704.4 250.0 705.2 249.3Q705.9 248.5 707.3 248.5L707.3 248.5L709.3 248.5L709.3 244.4Q709.3 242.6 710.3 241.6Q711.3 240.6 712.9 240.6L712.9 240.6Q714.6 240.6 715.6 241.6Q716.6 242.6 716.6 244.4L716.6 244.4L716.6 248.5L720.0 248.5Q721.3 248.5 722.1 249.3Q722.9 250.0 722.9 251.3L722.9 251.3Q722.9 252.6 722.1 253.4Q721.3 254.1 720.0 254.1L720.0 254.1L716.6 254.1L716.6 270.3Q716.6 272.1 717.3 272.9Q717.9 273.7 719.5 273.9L719.5 273.9L720.0 273.9Q723.0 274.2 723.0 276.6L723.0 276.6Q723.0 278.2 721.6 279.1Q720.3 279.9 717.8 279.9L717.8 279.9L717.5 279.9Q709.3 279.9 709.3 271.9ZM734.1 243.0Q732.9 244.2 731.2 244.2Q729.5 244.2 728.3 243.0Q727.2 241.8 727.2 240.2L727.2 240.2Q727.2 238.5 728.3 237.4Q729.5 236.2 731.2 236.2L731.2 236.2Q732.9 236.2 734.1 237.4Q735.3 238.5 735.3 240.2L735.3 240.2Q735.3 241.8 734.1 243.0ZM733.9 279.1Q732.9 280.2 731.2 280.2Q729.5 280.2 728.5 279.1Q727.6 278.1 727.6 276.3L727.6 276.3L727.6 251.7Q727.6 250.0 728.5 248.9Q729.5 247.9 731.2 247.9Q732.9 247.9 733.9 248.9Q734.9 250.0 734.9 251.8L734.9 251.8L734.9 276.3Q734.9 278.1 733.9 279.1ZM749.3 279.2Q748.3 280.2 746.7 280.2Q745 280.2 744.0 279.2Q743.0 278.2 743.0 276.4L743.0 276.4L743.0 254.1L741.1 254.1Q739.8 254.1 739.0 253.4Q738.3 252.7 738.3 251.4L738.3 251.4Q738.3 250.1 739.0 249.4Q739.8 248.6 741.1 248.6L741.1 248.6L743.0 248.6L743.0 245.9Q743.0 237.0 751.6 237.0L751.6 237.0Q754.4 237.0 755.8 237.8Q757.2 238.6 757.2 240.0L757.2 240.0Q757.2 241.7 755.5 242.1L755.5 242.1Q754.9 242.3 753.9 242.3L753.9 242.3Q751.9 242.4 751.1 243.3Q750.2 244.2 750.2 246.2L750.2 246.2L750.2 248.6L754.1 248.6Q755.3 248.6 756.1 249.4Q756.9 250.1 756.9 251.4L756.9 251.4Q756.9 252.7 756.1 253.4Q755.3 254.1 754.1 254.1L754.1 254.1L750.3 254.1L750.3 276.4Q750.3 278.2 749.3 279.2ZM765.7 291.1L765.7 291.1Q763.2 291.1 761.9 290.2Q760.6 289.3 760.6 287.7L760.6 287.7Q760.6 286.6 761.3 285.9Q762.1 285.2 763.3 285.2L763.3 285.2Q763.6 285.2 764.1 285.2Q764.6 285.2 764.9 285.2L764.9 285.2Q767.9 285.2 769.3 281.7L769.3 281.7L769.9 280.1L759.7 253.4Q759.3 252.2 759.3 251.3L759.3 251.3Q759.3 249.8 760.4 248.9Q761.4 247.9 763.0 247.9L763.0 247.9Q764.4 247.9 765.2 248.6Q766.1 249.3 766.5 250.8L766.5 250.8L773.9 273.4L774.1 273.4L781.5 250.8Q781.9 249.3 782.8 248.6Q783.6 247.9 785.0 247.9L785.0 247.9Q786.5 247.9 787.5 248.8Q788.5 249.8 788.5 251.2L788.5 251.2Q788.5 252.2 788.1 253.3L788.1 253.3L777.9 280.7Q775.8 286.5 773.1 288.8Q770.3 291.1 765.7 291.1Z M809.0 280.1L809.0 280.1Q807.3 280.1 806.3 279.0Q805.3 278.0 805.3 276.2L805.3 276.2L805.3 240.7Q805.3 238.9 806.3 237.8Q807.3 236.8 809.0 236.8L809.0 236.8Q810.8 236.8 811.8 237.8Q812.8 238.9 812.8 240.7L812.8 240.7L812.8 276.2Q812.8 278.0 811.8 279.1Q810.8 280.1 809.0 280.1ZM825.8 279.2Q824.8 280.2 823.2 280.2Q821.5 280.2 820.5 279.2Q819.5 278.1 819.5 276.3L819.5 276.3L819.5 251.6Q819.5 249.9 820.5 248.9Q821.4 247.9 823.0 247.9Q824.6 247.9 825.6 248.9Q826.6 249.9 826.6 251.6L826.6 251.6L826.6 253.8L826.8 253.8Q829.4 247.9 836.4 247.9L836.4 247.9Q841.5 247.9 844.4 251.0Q847.2 254.1 847.2 259.5L847.2 259.5L847.2 276.3Q847.2 278.1 846.2 279.2Q845.2 280.2 843.6 280.2Q841.9 280.2 840.9 279.2Q839.9 278.1 839.9 276.3L839.9 276.3L839.9 261.0Q839.9 257.6 838.3 255.9Q836.8 254.1 833.7 254.1L833.7 254.1Q830.5 254.1 828.7 256.2Q826.8 258.2 826.8 261.6L826.8 261.6L826.8 276.3Q826.8 278.1 825.8 279.2ZM862.1 280.1L862.1 280.1Q857.6 280.1 854.7 277.5Q851.8 274.9 851.8 270.7L851.8 270.7Q851.8 266.6 854.8 264.2Q857.9 261.8 863.6 261.4L863.6 261.4L871.8 260.9L871.8 258.7Q871.8 256.3 870.3 254.9Q868.7 253.6 866.0 253.6L866.0 253.6Q863.8 253.6 862.3 254.4Q860.8 255.2 859.5 257.2L859.5 257.2Q858.4 258.7 856.5 258.7L856.5 258.7Q855.2 258.7 854.3 257.9Q853.5 257.1 853.5 255.8L853.5 255.8Q853.5 254.8 854.0 253.8L854.0 253.8Q855.1 251.1 858.5 249.5Q861.8 247.9 866.3 247.9L866.3 247.9Q872.1 247.9 875.5 250.7Q879.0 253.5 879.0 258.2L879.0 258.2L879.0 276.5Q879.0 278.2 878.0 279.2Q877.0 280.2 875.5 280.2L875.5 280.2Q873.9 280.2 873.0 279.3Q872.1 278.4 872.0 276.8L872.0 276.8L872.0 274.6L871.8 274.6Q870.5 277.1 867.8 278.6Q865.2 280.1 862.1 280.1ZM864.4 274.6L864.4 274.6Q867.5 274.6 869.6 272.7Q871.8 270.8 871.8 268.1L871.8 268.1L871.8 265.7L864.6 266.1Q862.0 266.3 860.5 267.4Q859.1 268.6 859.1 270.4L859.1 270.4Q859.1 272.3 860.5 273.4Q862.0 274.6 864.4 274.6ZM898.5 280.2L898.5 280.2Q891.7 280.2 887.6 275.9Q883.6 271.5 883.6 264.1L883.6 264.1Q883.6 256.7 887.6 252.3Q891.7 247.9 898.5 247.9L898.5 247.9Q903.0 247.9 906.6 250.0Q910.1 252.1 911.2 255.4L911.2 255.4Q911.6 256.4 911.6 257.1L911.6 257.1Q911.6 258.5 910.7 259.3Q909.8 260.1 908.5 260.1L908.5 260.1Q907.4 260.1 906.7 259.6Q905.9 259.1 905.3 258.0L905.3 258.0Q903.0 253.8 898.7 253.8L898.7 253.8Q895.1 253.8 893.1 256.6Q891.0 259.3 891.0 264.1L891.0 264.1Q891.0 268.9 893.1 271.6Q895.1 274.3 898.6 274.3L898.6 274.3Q903.0 274.3 905.3 270.3L905.3 270.3Q906.0 269.1 906.7 268.6Q907.5 268.1 908.6 268.1L908.6 268.1Q909.9 268.1 910.8 268.9Q911.7 269.7 911.7 271.1L911.7 271.1Q911.7 271.9 911.3 272.9L911.3 272.9Q909.9 276.1 906.4 278.2Q902.9 280.2 898.5 280.2ZM918.6 271.9L918.6 271.9L918.6 254.1L916.7 254.1Q915.3 254.1 914.5 253.4Q913.7 252.6 913.7 251.3L913.7 251.3Q913.7 250.0 914.5 249.3Q915.3 248.5 916.7 248.5L916.7 248.5L918.6 248.5L918.6 244.4Q918.6 242.6 919.6 241.6Q920.6 240.6 922.3 240.6L922.3 240.6Q923.9 240.6 924.9 241.6Q925.9 242.6 925.9 244.4L925.9 244.4L925.9 248.5L929.3 248.5Q930.7 248.5 931.4 249.3Q932.2 250.0 932.2 251.3L932.2 251.3Q932.2 252.6 931.4 253.4Q930.6 254.1 929.3 254.1L929.3 254.1L925.9 254.1L925.9 270.3Q925.9 272.1 926.6 272.9Q927.3 273.7 928.8 273.9L928.8 273.9L929.4 273.9Q932.3 274.2 932.3 276.6L932.3 276.6Q932.3 278.2 930.9 279.1Q929.6 279.9 927.1 279.9L927.1 279.9L926.8 279.9Q918.6 279.9 918.6 271.9ZM943.4 243.0Q942.2 244.2 940.5 244.2Q938.8 244.2 937.7 243.0Q936.5 241.8 936.5 240.2L936.5 240.2Q936.5 238.5 937.7 237.4Q938.8 236.2 940.5 236.2L940.5 236.2Q942.3 236.2 943.4 237.4Q944.6 238.5 944.6 240.2L944.6 240.2Q944.6 241.8 943.4 243.0ZM943.2 279.1Q942.2 280.2 940.5 280.2Q938.9 280.2 937.9 279.1Q936.9 278.1 936.9 276.3L936.9 276.3L936.9 251.7Q936.9 250.0 937.9 248.9Q938.9 247.9 940.5 247.9Q942.2 247.9 943.2 248.9Q944.2 250.0 944.2 251.8L944.2 251.8L944.2 276.3Q944.2 278.1 943.2 279.1ZM975.0 275.9Q970.9 280.2 964.1 280.2Q957.2 280.2 953.1 275.9Q949.0 271.6 949.0 264.1L949.0 264.1Q949.0 256.6 953.1 252.2Q957.2 247.9 964.1 247.9L964.1 247.9Q970.9 247.9 975.0 252.2Q979.1 256.6 979.1 264.1L979.1 264.1Q979.1 271.6 975.0 275.9ZM958.5 271.7Q960.5 274.4 964.1 274.4Q967.6 274.4 969.6 271.7Q971.7 269.0 971.7 264.1L971.7 264.1Q971.7 259.2 969.6 256.4Q967.6 253.7 964.1 253.7L964.1 253.7Q960.6 253.7 958.5 256.4Q956.4 259.2 956.4 264.1L956.4 264.1Q956.4 269.0 958.5 271.7ZM990.1 279.2Q989.0 280.2 987.4 280.2Q985.8 280.2 984.8 279.2Q983.8 278.1 983.8 276.3L983.8 276.3L983.8 251.6Q983.8 249.9 984.7 248.9Q985.6 247.9 987.3 247.9Q988.9 247.9 989.9 248.9Q990.9 249.9 990.9 251.6L990.9 251.6L990.9 253.8L991.0 253.8Q993.6 247.9 1000.7 247.9L1000.7 247.9Q1005.8 247.9 1008.6 251.0Q1011.4 254.1 1011.4 259.5L1011.4 259.5L1011.4 276.3Q1011.4 278.1 1010.4 279.2Q1009.4 280.2 1007.8 280.2Q1006.2 280.2 1005.1 279.2Q1004.1 278.1 1004.1 276.3L1004.1 276.3L1004.1 261.0Q1004.1 257.6 1002.6 255.9Q1001.0 254.1 997.9 254.1L997.9 254.1Q994.8 254.1 992.9 256.2Q991.1 258.2 991.1 261.6L991.1 261.6L991.1 276.3Q991.1 278.1 990.1 279.2Z "/><defs><clipPath id="satori_bc-id-0-1"><rect x="0" y="441" width="1200" height="189"/></clipPath></defs><mask id="satori_om-id-0-1"><rect x="0" y="442" width="1200" height="188" fill="#fff"/><path width="1200" height="189" fill="none" stroke="#000" stroke-width="2" d="M0,441 A0,0 0 0 1 0,441 h1200 A0,0 0 0 1 1200,441"/></mask><path width="1200" height="189" clip-path="url(#satori_bc-id-0-1)" fill="none" stroke="#dbdbdb" stroke-width="2" d="M0,441 A0,0 0 0 1 0,441 h1200 A0,0 0 0 1 1200,441"/><mask id="satori_om-id-0-1-0"><rect x="40" y="482" width="292" height="108" fill="#fff"/></mask><clipPath id="satori_cp-id-0-1-0-0"><rect x="40" y="504" width="64" height="64"/></clipPath><mask id="satori_om-id-0-1-0-0"><rect x="40" y="504" width="64" height="64" fill="#fff"/></mask><image x="40" y="504" width="64" height="64" href="data:image/svg+xml;utf8,%3Csvg  xmlns=%22http://www.w3.org/2000/svg%22 width=%2264%22 height=%2264%22 viewBox=%220 0 128 128%22%3E%3Cpath fill=%22%23224d67%22 d=%22M22.5 14.8c2.9 1.3 99 44 99 44c2.7 1.2 2.9 3.1 2 12.4c-1 10.5-1.9 37.8-40.2 42.9c-24.6 3.2-55.9-4.3-70.9-27.2C-6 58.8 11 23.4 14.8 17.7c2.4-3.5 4.8-4.2 7.7-2.9%22%3E%3C/path%3E%3Cpath fill=%22%23f0f4c3%22 d=%22M121.5 58.8c-.3-.2-92-40.8-98.9-43.9C9.6 31.5-3.8 76 27.9 96.2c33.6 21.5 78.7-10.2 93.6-37.4%22%3E%3C/path%3E%3Cpath fill=%22%23f0f4c3%22 d=%22M117.7 57c-.3-.2-86.7-38.4-93.2-41.3c-12.2 15.5-23.9 59.1 5.7 78c31.4 20.2 73.6-11.2 87.5-36.7%22%3E%3C/path%3E%3Cpath fill=%22%23cb2a42%22 d=%22M56.2 37.6L19.5 48.2c-2.5.8-4.4 2.8-5 5.3c-1.9 8.5.8 23.3 8.9 29.8c3.5 2.7 8.6 1.8 10.8-2.1L58.5 41c1.3-1.7.5-4.2-2.3-3.4m14.3 2.9s14.6 30.1 16 33s6.3 4.7 9.9 2.8c10.7-5.6 15.5-12.4 19.2-20.2c-8.9-3.9-42.4-18.8-42.4-18.8c-2.4-1.1-4 .6-2.7 3.2m-8.6 1.9C60.3 45.1 39.5 81 37.6 84.1c-1.9 3.2-.7 7.5 2.7 9.2c12.3 6.5 30.9.4 39.6-7c2.2-1.9 4.5-5.1 3.2-8.2S68.9 44.6 67.8 42.3c-1.2-2.7-4.1-2.8-5.9.1%22%3E%3C/path%3E%3Cpath fill=%22%23f0f4c3%22 d=%22M52.2 42.2c-1.4.4-10.1 3-11.1 3.4c-1.4.5-2.2 1.7-1.9 2.5c.3.9 1.7 1.1 3.1.6c.8-.3 7.1-3.9 9.5-5.2c-3.1 2.4-10.2 9.4-11.1 10.3c-1.4 1.5-1.7 3.4-.8 4.3c1 .9 2.9.5 4.3-1c1.2-1.3 8.5-12.8 9.1-13.9s.4-1.4-1.1-1m10.1 16.4c0-2.2 1.4-10.3 1.8-12.3c.4-1.6 1.5-1.8 1.8.5s1.7 9.7 1.7 11.8s-1.2 3.3-2.7 3.3c-1.4 0-2.6-1.1-2.6-3.3M79.9 49c-1.2-1.8-3.3-4.9-4.1-6.1c-.7-1.2.1-2.1 1.8-.9s4 2.9 5.4 4c1.6 1.3 1.9 3 .8 4s-2.7.8-3.9-1%22%3E%3C/path%3E%3Cellipse cx=%2287.3%22 cy=%22103.12%22 fill=%22%23cb2a42%22 rx=%223.4%22 ry=%222.3%22 transform=%22rotate(-27.098 87.298 103.126)%22%3E%3C/ellipse%3E%3Cellipse cx=%2298.89%22 cy=%22103.82%22 fill=%22%23cb2a42%22 rx=%223.4%22 ry=%222.3%22 transform=%22rotate(-30.642 98.887 103.818)%22%3E%3C/ellipse%3E%3Cellipse cx=%22102.02%22 cy=%2293.8%22 fill=%22%23cb2a42%22 rx=%223.4%22 ry=%222.3%22 transform=%22rotate(-37.16 102.017 93.797)%22%3E%3C/ellipse%3E%3Cpath fill=%22%23cb2a42%22 d=%22M57.6 30.3c-8.3-3.7-24.4-10.7-29.6-13c-3.6 2.2-9.7 11.4-11.2 21.2c-.6 3.6 1.7 5.9 5.3 4.9c0 0 33.7-9.3 35.3-9.7c1.6-.5 2-2.6.2-3.4%22%3E%3C/path%3E%3C/svg%3E" preserveAspectRatio="none" clip-path="url(#satori_cp-id-0-1-0-0)" mask="url(#satori_om-id-0-1-0-0)"/><mask id="satori_om-id-0-1-0-0-0"><rect x="40" y="504" width="0" height="64" fill="#fff"/></mask><mask id="satori_om-id-0-1-0-0-1"><rect x="40" y="504" width="0" height="64" fill="#fff"/></mask><mask id="satori_om-id-0-1-0-0-2"><rect x="40" y="504" width="0" height="64" fill="#fff"/></mask><mask id="satori_om-id-0-1-0-0-3"><rect x="40" y="504" width="0" height="64" fill="#fff"/></mask><mask id="satori_om-id-0-1-0-0-4"><rect x="40" y="504" width="0" height="64" fill="#fff"/></mask><mask id="satori_om-id-0-1-0-0-5"><rect x="40" y="504" width="0" height="64" fill="#fff"/></mask><mask id="satori_om-id-0-1-0-0-6"><rect x="40" y="504" width="0" height="64" fill="#fff"/></mask><mask id="satori_om-id-0-1-0-0-7"><rect x="40" y="504" width="0" height="64" fill="#fff"/></mask><mask id="satori_om-id-0-1-0-0-8"><rect x="40" y="504" width="0" height="64" fill="#fff"/></mask><mask id="satori_om-id-0-1-0-1"><rect x="116" y="512" width="216" height="48" fill="#fff"/></mask><path fill="#545454" d="M121.1 553.5L121.1 553.5Q119.4 553.5 118.4 552.6Q117.5 551.7 117.5 550.2L117.5 550.2Q117.5 549.3 117.9 547.9L117.9 547.9L127.2 522.8Q127.9 520.7 129.2 519.7Q130.5 518.8 132.5 518.8L132.5 518.8Q134.6 518.8 135.9 519.7Q137.2 520.7 137.9 522.8L137.9 522.8L147.2 547.9Q147.6 549.2 147.6 550.2L147.6 550.2Q147.6 551.6 146.6 552.6Q145.6 553.5 144.1 553.5L144.1 553.5Q142.6 553.5 141.7 552.8Q140.9 552.1 140.4 550.4L140.4 550.4L138.6 545.0L126.4 545.0L124.6 550.3Q124.2 552.0 123.3 552.8Q122.5 553.5 121.1 553.5ZM132.4 525.7L128.0 539.6L137 539.6L132.5 525.7L132.4 525.7ZM159.1 552.6Q158.2 553.6 156.6 553.6Q155.0 553.6 154.1 552.6Q153.2 551.7 153.2 550.0L153.2 550.0L153.2 533.1L151.9 533.1Q150.8 533.1 150.1 532.4Q149.4 531.7 149.4 530.6Q149.4 529.4 150.1 528.7Q150.8 528.1 151.9 528.1L151.9 528.1L153.2 528.1L153.2 526.2Q153.2 522.5 155.0 520.7Q156.7 519.0 160.3 518.9L160.3 518.9Q163.0 518.9 164.2 519.7Q165.5 520.4 165.5 521.7L165.5 521.7Q165.5 523.1 164.1 523.5L164.1 523.5Q163.5 523.7 162.8 523.7L162.8 523.7Q161.2 523.7 160.5 524.4Q159.9 525.1 159.9 526.5L159.9 526.5L159.9 528.1L162.7 528.1Q163.8 528.1 164.5 528.7Q165.2 529.4 165.2 530.6Q165.2 531.7 164.5 532.4Q163.8 533.1 162.7 533.1L162.7 533.1L160.0 533.1L160.0 550.0Q160.0 551.7 159.1 552.6ZM170.3 546.6L170.3 546.6L170.3 533.1L168.9 533.1Q167.7 533.1 167.0 532.4Q166.3 531.7 166.3 530.5Q166.3 529.3 167.0 528.6Q167.7 527.9 168.9 527.9L168.9 527.9L170.3 527.9L170.3 525.1Q170.3 523.5 171.2 522.5Q172.1 521.6 173.7 521.6Q175.3 521.6 176.2 522.5Q177.1 523.5 177.1 525.1L177.1 525.1L177.1 527.9L179.5 527.9Q180.7 527.9 181.4 528.6Q182.1 529.3 182.1 530.5Q182.1 531.7 181.4 532.4Q180.7 533.1 179.5 533.1L179.5 533.1L177.1 533.1L177.1 545.1Q177.1 546.5 177.6 547.1Q178.1 547.7 179.2 547.8L179.2 547.8L179.6 547.8Q180.9 548.0 181.6 548.5Q182.2 549.1 182.2 550.3L182.2 550.3Q182.2 551.8 180.9 552.6Q179.6 553.3 177.4 553.3L177.4 553.3L177.1 553.3Q170.3 553.3 170.3 546.6ZM197.0 553.6L197.0 553.6Q191.2 553.6 187.9 550.2Q184.6 546.7 184.6 540.6L184.6 540.6Q184.6 534.5 187.9 531.0Q191.1 527.4 196.7 527.4L196.7 527.4Q202.0 527.4 205.3 530.7Q208.6 533.9 208.6 539.1L208.6 539.1Q208.6 540.5 207.9 541.3Q207.1 542.1 205.6 542.1L205.6 542.1L191.3 542.1L191.3 542.4Q191.3 545.2 192.9 546.9Q194.4 548.5 197.0 548.5L197.0 548.5Q198.9 548.5 200.3 547.8Q201.6 547.2 203.0 545.5L203.0 545.5Q204.0 544.5 205.3 544.5L205.3 544.5Q206.4 544.5 207.2 545.2Q207.9 545.9 207.9 547.0L207.9 547.0Q207.9 547.8 207.5 548.7L207.5 548.7Q206.2 551 203.4 552.3Q200.7 553.6 197.0 553.6ZM191.4 537.9L191.4 537.9L202.0 537.9Q201.9 535.4 200.5 533.9Q199.0 532.5 196.8 532.5Q194.5 532.5 193.1 534.0Q191.6 535.5 191.4 537.9ZM215.6 553.6L215.6 553.6Q214.0 553.6 213.1 552.6Q212.1 551.7 212.1 550.0L212.1 550.0L212.1 530.9Q212.1 529.3 213.0 528.3Q213.9 527.4 215.4 527.4L215.4 527.4Q216.9 527.4 217.8 528.3Q218.7 529.3 218.7 530.9L218.7 530.9L218.7 532.5L218.8 532.5Q219.3 530.2 220.7 528.9Q222.1 527.5 224.0 527.5L224.0 527.5Q225.4 527.5 226.2 528.2L226.2 528.2Q227.2 528.9 227.2 530.7L227.2 530.7Q227.2 532.3 226.2 533.2L226.2 533.2Q225.2 534.0 223.2 534.1L223.2 534.1Q221.0 534.1 220.0 535.3Q219.0 536.5 219.0 538.8L219.0 538.8L219.0 550.0Q219.0 551.7 218.1 552.6Q217.2 553.6 215.6 553.6ZM242.6 553.6L242.6 553.6Q237.5 553.6 234.1 551.8Q230.8 550.0 229.7 547.1L229.7 547.1Q229.4 546.1 229.4 545.2L229.4 545.2Q229.4 543.8 230.2 543.0Q231.1 542.1 232.5 542.1L232.5 542.1Q233.6 542.1 234.3 542.6Q235.1 543.1 235.7 544.2L235.7 544.2Q236.5 546.1 238.4 547.0Q240.2 547.9 242.7 547.9L242.7 547.9Q245.6 547.9 247.3 546.7Q249.1 545.5 249.1 543.6L249.1 543.6Q249.1 541.9 247.8 540.9Q246.4 539.9 243.3 539.3L243.3 539.3L239.7 538.6Q229.6 536.6 229.6 528.9L229.6 528.9Q229.6 525.9 231.3 523.5Q232.9 521.2 235.9 519.9Q238.8 518.7 242.5 518.7L242.5 518.7Q247.2 518.7 250.5 520.5Q253.8 522.4 254.9 525.7L254.9 525.7Q255.1 526.4 255.1 527.2L255.1 527.2Q255.1 528.5 254.3 529.3Q253.5 530.1 252.1 530.1L252.1 530.1Q250.9 530.1 250.1 529.6Q249.4 529.1 248.8 528.0L248.8 528.0Q247.2 524.4 242.5 524.4L242.5 524.4Q239.9 524.4 238.3 525.5Q236.7 526.6 236.7 528.5L236.7 528.5Q236.7 530.1 238.1 531.1Q239.4 532.1 242.4 532.7L242.4 532.7L245.9 533.4Q251.3 534.5 253.7 536.7Q256.2 539.0 256.2 542.8L256.2 542.8Q256.2 547.8 252.5 550.7Q248.9 553.6 242.6 553.6ZM266.0 552.6Q265.0 553.6 263.5 553.6Q261.9 553.6 261.0 552.6Q260.1 551.7 260.1 550.0L260.1 550.0L260.1 522.2Q260.1 520.6 261.0 519.7Q261.9 518.7 263.4 518.7L263.4 518.7Q265.0 518.7 265.9 519.7Q266.8 520.6 266.8 522.2L266.8 522.2L266.8 532.4L266.9 532.4Q267.9 530.0 270.0 528.7Q272 527.5 274.8 527.5L274.8 527.5Q279.0 527.5 281.3 530.0Q283.6 532.5 283.6 536.9L283.6 536.9L283.6 550.0Q283.6 551.7 282.7 552.6Q281.7 553.6 280.2 553.6Q278.6 553.6 277.7 552.6Q276.8 551.7 276.8 550.0L276.8 550.0L276.8 538.3Q276.8 535.9 275.6 534.5Q274.3 533.1 272.0 533.1L272.0 533.1Q269.7 533.1 268.3 534.7Q266.9 536.2 266.9 538.7L266.9 538.7L266.9 550.0Q266.9 551.7 266.0 552.6ZM294.1 523.8Q293.0 524.8 291.5 524.8Q290.0 524.8 288.9 523.8Q287.8 522.8 287.8 521.3L287.8 521.3Q287.8 519.8 288.9 518.8Q290.0 517.7 291.5 517.7Q293.0 517.7 294.1 518.8Q295.2 519.8 295.2 521.3L295.2 521.3Q295.2 522.8 294.1 523.8ZM294.0 552.6Q293.1 553.6 291.5 553.6Q289.9 553.6 289.0 552.6Q288.1 551.7 288.1 550.0L288.1 550.0L288.1 531.0Q288.1 529.3 289.0 528.4Q289.9 527.4 291.5 527.4Q293.1 527.4 294.0 528.4Q294.9 529.3 294.9 531.0L294.9 531.0L294.9 550.0Q294.9 551.7 294.0 552.6ZM307.2 552.6Q306.3 553.6 304.7 553.6Q303.1 553.6 302.2 552.6Q301.3 551.7 301.3 550.0L301.3 550.0L301.3 533.1L300.0 533.1Q298.9 533.1 298.2 532.4Q297.5 531.7 297.5 530.6Q297.5 529.4 298.2 528.7Q298.9 528.1 300.0 528.1L300.0 528.1L301.3 528.1L301.3 526.2Q301.3 522.5 303.1 520.7Q304.9 519.0 308.5 518.9L308.5 518.9Q311.1 518.9 312.4 519.7Q313.6 520.4 313.6 521.7L313.6 521.7Q313.6 523.1 312.2 523.5L312.2 523.5Q311.6 523.7 310.9 523.7L310.9 523.7Q309.4 523.7 308.7 524.4Q308.0 525.1 308.0 526.5L308.0 526.5L308.0 528.1L310.9 528.1Q312.0 528.1 312.7 528.7Q313.4 529.4 313.4 530.6Q313.4 531.7 312.7 532.4Q312.0 533.1 310.9 533.1L310.9 533.1L308.1 533.1L308.1 550.0Q308.1 551.7 307.2 552.6ZM318.4 546.6L318.4 546.6L318.4 533.1L317.1 533.1Q315.9 533.1 315.1 532.4Q314.4 531.7 314.4 530.5Q314.4 529.3 315.1 528.6Q315.9 527.9 317.1 527.9L317.1 527.9L318.4 527.9L318.4 525.1Q318.4 523.5 319.3 522.5Q320.2 521.6 321.8 521.6Q323.4 521.6 324.3 522.5Q325.2 523.5 325.2 525.1L325.2 525.1L325.2 527.9L327.6 527.9Q328.9 527.9 329.6 528.6Q330.3 529.3 330.3 530.5Q330.3 531.7 329.6 532.4Q328.9 533.1 327.6 533.1L327.6 533.1L325.2 533.1L325.2 545.1Q325.2 546.5 325.7 547.1Q326.2 547.7 327.3 547.8L327.3 547.8L327.8 547.8Q329.1 548.0 329.7 548.5Q330.4 549.1 330.4 550.3L330.4 550.3Q330.4 551.8 329.0 552.6Q327.7 553.3 325.5 553.3L325.5 553.3L325.3 553.3Q318.4 553.3 318.4 546.6Z "/><mask id="satori_om-id-0-1-1"><rect x="924" y="524" width="236" height="36" fill="#fff"/></mask><path fill="#8e8e8e" d="M927.9 552.6Q927.5 552.9 927.0 552.9Q926.4 552.9 926.1 552.6Q925.8 552.2 925.8 551.7L925.8 551.7L925.8 532.6Q925.8 532.0 926.1 531.6Q926.5 531.3 927.1 531.3Q927.6 531.3 928.0 531.6Q928.3 532.0 928.3 532.6L928.3 532.6L928.3 540.0L928.4 540.0Q929.1 538.7 930.4 537.9Q931.7 537.2 933.3 537.2L933.3 537.2Q936.2 537.2 937.9 539.3Q939.7 541.5 939.7 545.0L939.7 545.0Q939.7 548.6 937.9 550.8Q936.2 552.9 933.2 552.9L933.2 552.9Q931.6 552.9 930.3 552.2Q929.0 551.4 928.3 550.1L928.3 550.1L928.2 550.1L928.2 551.7Q928.2 552.2 927.9 552.6ZM932.7 550.7L932.7 550.7Q934.8 550.7 935.9 549.2Q937.1 547.7 937.1 545.0L937.1 545.0Q937.1 542.5 935.9 540.9Q934.8 539.4 932.7 539.4L932.7 539.4Q930.8 539.4 929.6 541.0Q928.3 542.5 928.3 545.0L928.3 545.0Q928.3 547.6 929.6 549.1Q930.8 550.7 932.7 550.7ZM943.8 558.4L943.8 558.4Q942.9 558.4 942.4 558.0Q941.9 557.7 941.9 557.1L941.9 557.1Q941.9 556.7 942.1 556.4Q942.4 556.2 942.9 556.2L942.9 556.2Q943.1 556.2 943.3 556.2Q943.5 556.2 943.7 556.2L943.7 556.2Q945.4 556.2 946.2 553.7L946.2 553.7L946.6 552.7L941.3 539.0Q941.2 538.6 941.2 538.3L941.2 538.3Q941.2 537.8 941.6 537.5Q941.9 537.2 942.5 537.2L942.5 537.2Q943.4 537.2 943.7 538.1L943.7 538.1L947.9 550.1L948.0 550.1L952.2 538.1Q952.3 537.6 952.6 537.4Q952.9 537.2 953.4 537.2L953.4 537.2Q953.9 537.2 954.3 537.5Q954.6 537.8 954.6 538.3L954.6 538.3Q954.6 538.6 954.5 539.0L954.5 539.0L948.9 553.7Q947.9 556.4 946.8 557.4Q945.7 558.4 943.8 558.4Z M965.7 552.5Q965.3 552.9 964.7 552.9Q964.1 552.9 963.8 552.5Q963.4 552.1 963.4 551.5L963.4 551.5L963.4 532.9Q963.4 532.3 963.8 531.9Q964.1 531.5 964.7 531.5L964.7 531.5L970.9 531.5Q973.9 531.5 975.8 533.4Q977.7 535.3 977.7 538.3L977.7 538.3Q977.7 541.3 975.8 543.2Q973.9 545.1 970.9 545.1L970.9 545.1L966.0 545.1L966.0 551.5Q966.0 552.1 965.7 552.5ZM966.0 533.9L966.0 542.8L970.3 542.8Q972.5 542.8 973.8 541.6Q975.0 540.4 975.0 538.3Q975.0 536.2 973.8 535.0Q972.5 533.9 970.3 533.9L970.3 533.9L966.0 533.9ZM984.8 552.9L984.8 552.9Q982.5 552.9 981.1 551.7Q979.7 550.4 979.7 548.4L979.7 548.4Q979.7 546.4 981.2 545.2Q982.6 544.1 985.2 543.9L985.2 543.9L989.6 543.7L989.6 542.4Q989.6 541.0 988.7 540.2Q987.9 539.4 986.3 539.4L986.3 539.4Q985.0 539.4 984.1 539.9Q983.3 540.4 982.6 541.5L982.6 541.5Q982.3 542.1 981.6 542.1L981.6 542.1Q981.1 542.1 980.8 541.8Q980.5 541.5 980.5 541.0Q980.5 540.5 980.8 539.9L980.8 539.9Q981.4 538.7 982.9 537.9Q984.5 537.2 986.3 537.2L986.3 537.2Q989.0 537.2 990.6 538.5Q992.2 539.9 992.2 542.1L992.2 542.1L992.2 551.6Q992.2 552.2 991.8 552.6Q991.5 552.9 991.0 552.9L991.0 552.9Q990.4 552.9 990.1 552.6Q989.7 552.2 989.7 551.6L989.7 551.6L989.7 550.0L989.7 550.0Q989.0 551.3 987.7 552.1Q986.3 552.9 984.8 552.9ZM985.3 550.8L985.3 550.8Q987.1 550.8 988.4 549.6Q989.6 548.5 989.6 546.9L989.6 546.9L989.6 545.6L985.5 545.9Q984.0 546.0 983.1 546.6Q982.3 547.3 982.3 548.4Q982.3 549.4 983.1 550.1Q984.0 550.8 985.3 550.8ZM996.2 549.1L996.2 549.1L996.2 539.5L994.9 539.5Q994.4 539.5 994.1 539.3Q993.8 539.0 993.8 538.5L993.8 538.5Q993.8 538.0 994.1 537.7Q994.4 537.4 994.9 537.4L994.9 537.4L996.2 537.4L996.2 534.8Q996.2 534.2 996.6 533.8Q996.9 533.5 997.5 533.5Q998.0 533.5 998.4 533.8Q998.8 534.2 998.8 534.8L998.8 534.8L998.8 537.4L1000.7 537.4Q1001.3 537.4 1001.6 537.7Q1001.9 538.0 1001.9 538.5L1001.9 538.5Q1001.9 539.0 1001.6 539.3Q1001.3 539.5 1000.7 539.5L1000.7 539.5L998.8 539.5L998.8 548.6Q998.8 549.6 999.2 550.0Q999.6 550.5 1000.5 550.6L1000.5 550.6L1000.7 550.6Q1001.9 550.7 1001.9 551.6L1001.9 551.6Q1001.9 552.2 1001.5 552.5Q1001.1 552.8 1000.1 552.8L1000.1 552.8L999.9 552.8Q996.2 552.8 996.2 549.1ZM1006.6 552.5Q1006.3 552.9 1005.7 552.9Q1005.2 552.9 1004.8 552.5Q1004.4 552.2 1004.4 551.6L1004.4 551.6L1004.4 538.5Q1004.4 537.9 1004.8 537.5Q1005.1 537.2 1005.6 537.2Q1006.2 537.2 1006.5 537.5Q1006.8 537.9 1006.8 538.5L1006.8 538.5L1006.8 539.9L1006.9 539.9Q1007.2 538.7 1008.2 537.9Q1009.2 537.2 1010.4 537.2L1010.4 537.2Q1011.2 537.2 1011.6 537.5L1011.6 537.5Q1011.9 537.8 1011.9 538.4L1011.9 538.4Q1011.9 539.0 1011.5 539.3L1011.5 539.3Q1011.1 539.6 1010.3 539.6L1010.3 539.6Q1008.6 539.6 1007.8 540.6Q1007.0 541.6 1007.0 543.2L1007.0 543.2L1007.0 551.6Q1007.0 552.2 1006.6 552.5ZM1015.1 534.9L1015.1 534.9Q1014.4 534.9 1014.0 534.4Q1013.5 533.9 1013.5 533.3L1013.5 533.3Q1013.5 532.6 1014.0 532.2Q1014.4 531.7 1015.1 531.7L1015.1 531.7Q1015.7 531.7 1016.2 532.2Q1016.7 532.6 1016.7 533.3L1016.7 533.3Q1016.7 533.9 1016.2 534.4Q1015.7 534.9 1015.1 534.9ZM1016.0 552.5Q1015.6 552.9 1015.1 552.9Q1014.5 552.9 1014.2 552.5Q1013.8 552.2 1013.8 551.6L1013.8 551.6L1013.8 538.5Q1013.8 537.9 1014.2 537.5Q1014.5 537.2 1015.1 537.2Q1015.6 537.2 1016.0 537.5Q1016.4 537.9 1016.4 538.5L1016.4 538.5L1016.4 551.6Q1016.4 552.2 1016.0 552.5ZM1026.1 552.9L1026.1 552.9Q1022.9 552.9 1021.0 550.8Q1019.1 548.7 1019.1 545.1Q1019.1 541.5 1021.0 539.3Q1022.9 537.2 1026.1 537.2L1026.1 537.2Q1028.2 537.2 1029.9 538.2Q1031.6 539.3 1032.0 540.9L1032.0 540.9Q1032.1 541.2 1032.1 541.4L1032.1 541.4Q1032.1 542.0 1031.8 542.3Q1031.5 542.6 1031.0 542.6L1031.0 542.6Q1030.6 542.6 1030.3 542.4Q1030.1 542.2 1029.8 541.7L1029.8 541.7Q1028.6 539.4 1026.1 539.4L1026.1 539.4Q1024.1 539.4 1022.9 541.0Q1021.6 542.5 1021.6 545.0L1021.6 545.0Q1021.6 547.6 1022.9 549.2Q1024.1 550.7 1026.1 550.7L1026.1 550.7Q1027.4 550.7 1028.3 550.1Q1029.2 549.6 1029.8 548.4L1029.8 548.4Q1030.1 547.9 1030.3 547.7Q1030.6 547.5 1031.0 547.5L1031.0 547.5Q1031.5 547.5 1031.8 547.8Q1032.1 548.2 1032.1 548.7L1032.1 548.7Q1032.1 548.9 1032.0 549.3L1032.0 549.3Q1031.4 550.9 1029.8 551.9Q1028.2 552.9 1026.1 552.9ZM1041.2 552.9L1041.2 552.9Q1037.8 552.9 1036.0 550.9Q1034.1 548.8 1034.1 545.1L1034.1 545.1Q1034.1 541.5 1036.0 539.3Q1037.8 537.2 1041.0 537.2L1041.0 537.2Q1043.9 537.2 1045.8 539.1Q1047.6 541.1 1047.6 544.3L1047.6 544.3Q1047.6 544.9 1047.3 545.3Q1046.9 545.7 1046.2 545.7L1046.2 545.7L1036.7 545.7Q1036.7 548.0 1037.9 549.4Q1039.1 550.7 1041.1 550.7L1041.1 550.7Q1042.5 550.7 1043.4 550.2Q1044.3 549.6 1045.2 548.3L1045.2 548.3Q1045.6 547.8 1046.2 547.8L1046.2 547.8Q1046.7 547.8 1047.0 548.1Q1047.3 548.4 1047.3 548.9L1047.3 548.9Q1047.3 549.2 1047.1 549.7L1047.1 549.7Q1046.4 551.2 1044.8 552.1Q1043.3 552.9 1041.2 552.9ZM1036.7 543.7L1036.7 543.7L1045.0 543.7Q1045.0 541.8 1043.8 540.6Q1042.7 539.4 1041.0 539.4L1041.0 539.4Q1039.2 539.4 1038.0 540.6Q1036.8 541.8 1036.7 543.7Z M1059.0 552.5Q1058.7 552.9 1058.1 552.9Q1057.5 552.9 1057.1 552.5Q1056.7 552.1 1056.7 551.5L1056.7 551.5L1056.7 532.7Q1056.7 532.1 1057.1 531.7Q1057.5 531.3 1058.1 531.3Q1058.7 531.3 1059.0 531.7Q1059.4 532.1 1059.4 532.7L1059.4 532.7L1059.4 541.8L1059.5 541.8L1068.9 531.8Q1069.4 531.3 1070.0 531.3L1070.0 531.3Q1070.5 531.3 1070.9 531.7Q1071.2 532.0 1071.2 532.5L1071.2 532.5Q1071.2 533.0 1070.9 533.3L1070.9 533.3L1063.6 540.9L1071.7 550.6Q1072.1 551.1 1072.1 551.6L1072.1 551.6Q1072.1 552.2 1071.7 552.5Q1071.3 552.9 1070.8 552.9L1070.8 552.9Q1070.1 552.9 1069.6 552.2L1069.6 552.2L1061.7 542.8L1059.4 545.3L1059.4 551.5Q1059.4 552.1 1059.0 552.5ZM1081.2 552.9L1081.2 552.9Q1077.8 552.9 1075.9 550.9Q1074.1 548.8 1074.1 545.1L1074.1 545.1Q1074.1 541.5 1075.9 539.3Q1077.8 537.2 1081.0 537.2L1081.0 537.2Q1083.9 537.2 1085.8 539.1Q1087.6 541.1 1087.6 544.3L1087.6 544.3Q1087.6 544.9 1087.2 545.3Q1086.9 545.7 1086.2 545.7L1086.2 545.7L1076.7 545.7Q1076.7 548.0 1077.9 549.4Q1079.1 550.7 1081.1 550.7L1081.1 550.7Q1082.5 550.7 1083.4 550.2Q1084.3 549.6 1085.2 548.3L1085.2 548.3Q1085.6 547.8 1086.2 547.8L1086.2 547.8Q1086.7 547.8 1087.0 548.1Q1087.3 548.4 1087.3 548.9L1087.3 548.9Q1087.3 549.2 1087.1 549.7L1087.1 549.7Q1086.4 551.2 1084.8 552.1Q1083.3 552.9 1081.2 552.9ZM1076.7 543.7L1076.7 543.7L1085.0 543.7Q1084.9 541.8 1083.8 540.6Q1082.7 539.4 1080.9 539.4L1080.9 539.4Q1079.1 539.4 1078.0 540.6Q1076.8 541.8 1076.7 543.7ZM1092.4 552.5Q1092.0 552.9 1091.4 552.9Q1090.9 552.9 1090.5 552.5Q1090.2 552.2 1090.2 551.6L1090.2 551.6L1090.2 538.5Q1090.2 537.9 1090.5 537.5Q1090.8 537.2 1091.4 537.2Q1091.9 537.2 1092.2 537.5Q1092.6 537.9 1092.6 538.5L1092.6 538.5L1092.6 539.9L1092.6 539.9Q1093.3 538.6 1094.5 537.9Q1095.8 537.2 1097.5 537.2L1097.5 537.2Q1100.0 537.2 1101.3 538.7Q1102.7 540.2 1102.7 542.8L1102.7 542.8L1102.7 551.6Q1102.7 552.2 1102.4 552.5Q1102.0 552.9 1101.5 552.9Q1100.9 552.9 1100.6 552.5Q1100.2 552.2 1100.2 551.6L1100.2 551.6L1100.2 543.2Q1100.2 541.4 1099.3 540.4Q1098.4 539.4 1096.7 539.4L1096.7 539.4Q1094.9 539.4 1093.8 540.6Q1092.7 541.8 1092.7 543.7L1092.7 543.7L1092.7 551.6Q1092.7 552.2 1092.4 552.5ZM1108.2 552.5Q1107.8 552.9 1107.3 552.9Q1106.7 552.9 1106.3 552.5Q1106.0 552.2 1106.0 551.6L1106.0 551.6L1106.0 538.5Q1106.0 537.9 1106.3 537.5Q1106.7 537.2 1107.2 537.2Q1107.7 537.2 1108.0 537.5Q1108.4 537.9 1108.4 538.5L1108.4 538.5L1108.4 539.9L1108.4 539.9Q1109.0 538.6 1110.1 537.9Q1111.3 537.2 1112.8 537.2L1112.8 537.2Q1114.3 537.2 1115.4 537.9Q1116.5 538.7 1117.0 540.1L1117.0 540.1L1117.1 540.1Q1117.7 538.7 1119.0 537.9Q1120.3 537.2 1121.9 537.2L1121.9 537.2Q1124.1 537.2 1125.5 538.5Q1126.8 539.9 1126.8 542.1L1126.8 542.1L1126.8 551.6Q1126.8 552.2 1126.5 552.5Q1126.1 552.9 1125.6 552.9Q1125.0 552.9 1124.6 552.5Q1124.3 552.2 1124.3 551.6L1124.3 551.6L1124.3 542.7Q1124.3 541.2 1123.5 540.3Q1122.6 539.4 1121.1 539.4Q1119.6 539.4 1118.6 540.4Q1117.7 541.4 1117.7 543.0L1117.7 543.0L1117.7 551.6Q1117.7 552.2 1117.3 552.5Q1117.0 552.9 1116.4 552.9Q1115.8 552.9 1115.5 552.5Q1115.1 552.2 1115.1 551.6L1115.1 551.6L1115.1 542.5Q1115.1 541.1 1114.3 540.2Q1113.4 539.4 1112.0 539.4L1112.0 539.4Q1110.5 539.4 1109.5 540.5Q1108.5 541.5 1108.5 543.1L1108.5 543.1L1108.5 551.6Q1108.5 552.2 1108.2 552.5ZM1136.4 552.9L1136.4 552.9Q1133.2 552.9 1131.3 550.8Q1129.3 548.7 1129.3 545.0Q1129.3 541.4 1131.3 539.3Q1133.2 537.2 1136.4 537.2L1136.4 537.2Q1139.6 537.2 1141.5 539.3Q1143.4 541.4 1143.4 545.0L1143.4 545.0Q1143.4 548.7 1141.5 550.8Q1139.6 552.9 1136.4 552.9ZM1133.1 549.2Q1134.3 550.7 1136.4 550.7Q1138.4 550.7 1139.6 549.2Q1140.8 547.7 1140.8 545.0Q1140.8 542.4 1139.6 540.9Q1138.4 539.4 1136.4 539.4Q1134.3 539.4 1133.1 540.9Q1131.9 542.4 1131.9 545.0Q1131.9 547.7 1133.1 549.2ZM1152.5 535.6L1152.5 535.6Q1152.1 535.6 1151.9 535.4Q1151.6 535.2 1151.6 534.8Q1151.6 534.5 1151.8 534.2L1151.8 534.2L1154.0 531.1Q1154.3 530.6 1154.6 530.5Q1154.8 530.3 1155.1 530.3L1155.1 530.3Q1155.6 530.3 1155.9 530.6Q1156.2 530.9 1156.2 531.3L1156.2 531.3Q1156.2 531.7 1155.9 532.1L1155.9 532.1L1153.4 535.1Q1153.0 535.6 1152.5 535.6ZM1152.4 552.9L1152.4 552.9Q1149.0 552.9 1147.1 550.9Q1145.3 548.8 1145.3 545.1L1145.3 545.1Q1145.3 541.5 1147.1 539.3Q1149.0 537.2 1152.2 537.2L1152.2 537.2Q1155.1 537.2 1156.9 539.1Q1158.8 541.1 1158.8 544.3L1158.8 544.3Q1158.8 544.9 1158.4 545.3Q1158.1 545.7 1157.4 545.7L1157.4 545.7L1147.9 545.7Q1147.9 548.0 1149.1 549.4Q1150.2 550.7 1152.3 550.7L1152.3 550.7Q1153.6 550.7 1154.6 550.2Q1155.5 549.6 1156.4 548.3L1156.4 548.3Q1156.8 547.8 1157.3 547.8L1157.3 547.8Q1157.9 547.8 1158.2 548.1Q1158.5 548.4 1158.5 548.9L1158.5 548.9Q1158.5 549.2 1158.3 549.7L1158.3 549.7Q1157.6 551.2 1156.0 552.1Q1154.5 552.9 1152.4 552.9ZM1147.9 543.7L1147.9 543.7L1156.2 543.7Q1156.1 541.8 1155.0 540.6Q1153.9 539.4 1152.1 539.4L1152.1 539.4Q1150.3 539.4 1149.2 540.6Q1148.0 541.8 1147.9 543.7Z "/></svg>