<svg width="1200" height="630" viewBox="0 0 1200 630" xmlns="http://www.w3.org/2000/svg"><mask id="satori_om-id"><rect x="0" y="0" width="1200" height="630" fill="#fff"/></mask><mask id="satori_om-id-0"><rect x="0" y="0" width="1200" height="630" fill="#fff"/></mask><rect x="0" y="0" width="1200" height="630" fill="#f2f2f2"/><mask id="satori_om-id-0-0"><rect x="0" y="0" width="1200" height="441" fill="#fff"/></mask><mask id="satori_om-id-0-0-0"><rect x="40" y="136" width="1120" height="36" fill="#fff"/></mask><path fill="#8e8e8e" d="M49.2 165.0L49.2 165.0Q46.2 165.0 44.1 163.9Q42.1 162.7 41.4 160.8L41.4 160.8Q41.2 160.2 41.2 159.8L41.2 159.8Q41.2 159.0 41.6 158.6Q42.1 158.2 42.7 158.2L42.7 158.2Q43.8 158.2 44.3 159.3L44.3 159.3Q44.8 160.8 46.1 161.5Q47.4 162.2 49.3 162.2L49.3 162.2Q51.3 162.2 52.6 161.3Q53.9 160.4 53.9 159.0L53.9 159.0Q53.9 157.7 53.0 156.9Q52.1 156.1 50.0 155.7L50.0 155.7L47.6 155.2Q44.5 154.5 43.0 153.1Q41.5 151.6 41.5 149.3L41.5 149.3Q41.5 146.6 43.7 144.9Q45.8 143.2 49.2 143.2L49.2 143.2Q51.9 143.2 53.9 144.4Q55.9 145.6 56.5 147.7L56.5 147.7Q56.6 148.0 56.6 148.5L56.6 148.5Q56.6 149.1 56.2 149.5Q55.8 149.9 55.2 149.9L55.2 149.9Q54.1 149.9 53.6 148.8L53.6 148.8Q52.6 146.0 49.1 146.0L49.1 146.0Q47.3 146.0 46.0 146.8Q44.8 147.7 44.8 149.1L44.8 149.1Q44.8 150.3 45.7 151.1Q46.7 151.8 48.7 152.3L48.7 152.3L51.0 152.7Q54.3 153.4 55.8 154.8Q57.2 156.2 57.2 158.5L57.2 158.5Q57.2 161.5 55.0 163.3Q52.9 165.0 49.2 165.0ZM65.1 164.9L65.1 164.9Q62.6 164.9 61.2 163.4Q59.7 161.9 59.7 159.2L59.7 159.2L59.7 150.7Q59.7 149.9 60.1 149.4Q60.6 149.0 61.3 149.0L61.3 149.0Q62.0 149.0 62.4 149.4Q62.9 149.9 62.9 150.7L62.9 150.7L62.9 158.6Q62.9 160.4 63.7 161.3Q64.6 162.2 66.2 162.2L66.2 162.2Q67.9 162.2 68.9 161.1Q69.8 160.0 69.8 158.2L69.8 158.2L69.8 150.7Q69.8 149.9 70.3 149.4Q70.7 149.0 71.4 149.0L71.4 149.0Q72.1 149.0 72.6 149.4Q73.0 149.9 73.0 150.7L73.0 150.7L73.0 163.3Q73.0 164.1 72.6 164.5Q72.2 164.9 71.5 164.9Q70.8 164.9 70.4 164.5Q70.0 164.1 70.0 163.3L70.0 163.3L70.0 162.1L69.9 162.1Q68.6 164.9 65.1 164.9ZM77.7 164.9L77.7 164.9Q77.0 164.9 76.6 164.5Q76.1 164.0 76.1 163.3L76.1 163.3L76.1 150.6Q76.1 149.8 76.5 149.4Q76.9 149.0 77.6 149.0Q78.3 149.0 78.7 149.4Q79.2 149.9 79.2 150.6L79.2 150.6L79.2 151.8L79.2 151.8Q80.6 149.0 84.1 149.0L84.1 149.0Q86.6 149.0 88.0 150.5Q89.4 152.0 89.4 154.7L89.4 154.7L89.4 163.3Q89.4 164.0 89.0 164.5Q88.5 164.9 87.8 164.9L87.8 164.9Q87.1 164.9 86.7 164.5Q86.2 164.0 86.2 163.3L86.2 163.3L86.2 155.3Q86.2 153.5 85.4 152.6Q84.6 151.7 82.9 151.7L82.9 151.7Q81.3 151.7 80.3 152.8Q79.3 153.9 79.3 155.7L79.3 155.7L79.3 163.3Q79.3 164.0 78.8 164.5Q78.4 164.9 77.7 164.9ZM98.2 164.9L98.2 164.9Q95.3 164.9 93.5 162.8Q91.8 160.6 91.8 157.0Q91.8 153.3 93.5 151.2Q95.3 149.0 98.2 149.0L98.2 149.0Q99.8 149.0 101.1 149.8Q102.4 150.5 103.0 151.8L103.0 151.8L103.1 151.8L103.1 144.9Q103.1 144.1 103.5 143.7Q104.0 143.2 104.7 143.2L104.7 143.2Q105.4 143.2 105.8 143.7Q106.3 144.2 106.3 144.9L106.3 144.9L106.3 163.4Q106.3 164.1 105.9 164.5Q105.4 164.9 104.7 164.9L104.7 164.9Q104.0 164.9 103.6 164.5Q103.1 164.1 103.1 163.4L103.1 163.4L103.1 161.9L103.1 161.9Q102.4 163.3 101.2 164.1Q100.0 164.9 98.2 164.9ZM99.1 162.2L99.1 162.2Q100.9 162.2 102.0 160.8Q103.1 159.4 103.1 157.0L103.1 157.0Q103.1 154.6 102.0 153.1Q100.9 151.7 99.1 151.7L99.1 151.7Q97.2 151.7 96.1 153.1Q95.0 154.5 95.0 157.0L95.0 157.0Q95.0 159.4 96.1 160.8Q97.2 162.2 99.1 162.2ZM114.0 164.9L114.0 164.9Q111.8 164.9 110.3 163.6Q108.9 162.3 108.9 160.3L108.9 160.3Q108.9 158.3 110.4 157.1Q111.9 155.9 114.6 155.7L114.6 155.7L118.9 155.5L118.9 154.3Q118.9 153.0 118.0 152.3Q117.2 151.6 115.8 151.6L115.8 151.6Q114.6 151.6 113.8 152.0Q113.0 152.5 112.3 153.5L112.3 153.5Q111.9 154.2 111.1 154.2L111.1 154.2Q110.5 154.2 110.1 153.8Q109.7 153.4 109.7 152.9L109.7 152.9Q109.7 152.3 110.0 151.8L110.0 151.8Q110.6 150.5 112.2 149.8Q113.8 149.0 115.9 149.0L115.9 149.0Q118.7 149.0 120.3 150.4Q122.0 151.7 122.0 154.0L122.0 154.0L122.0 163.3Q122.0 164.1 121.6 164.5Q121.2 164.9 120.5 164.9L120.5 164.9Q119.8 164.9 119.4 164.5Q119.0 164.1 119.0 163.4L119.0 163.4L119.0 162.1L118.9 162.1Q118.2 163.4 116.9 164.2Q115.6 164.9 114.0 164.9ZM114.9 162.4L114.9 162.4Q116.6 162.4 117.7 161.4Q118.9 160.4 118.9 158.9L118.9 158.9L118.9 157.7L115.0 157.9Q113.6 158.0 112.9 158.6Q112.1 159.2 112.1 160.2L112.1 160.2Q112.1 161.2 112.9 161.8Q113.6 162.4 114.9 162.4ZM127.0 170.4L127.0 170.4Q125.9 170.4 125.3 170.0Q124.7 169.6 124.7 168.9L124.7 168.9Q124.7 168.4 125.0 168.1Q125.4 167.8 125.9 167.8L125.9 167.8Q126.1 167.8 126.3 167.8Q126.6 167.8 126.7 167.8L126.7 167.8Q128.3 167.8 129.1 165.7L129.1 165.7L129.4 164.8L124.2 151.3Q124.1 150.9 124.1 150.4L124.1 150.4Q124.1 149.8 124.5 149.4Q125.0 149.0 125.7 149.0L125.7 149.0Q126.3 149.0 126.6 149.3Q127.0 149.5 127.2 150.2L127.2 150.2L131.1 161.8L131.2 161.8L135.1 150.2Q135.3 149.5 135.6 149.3Q136.0 149.0 136.6 149.0L136.6 149.0Q137.3 149.0 137.7 149.4Q138.1 149.8 138.1 150.4L138.1 150.4Q138.1 150.8 138.0 151.3L138.0 151.3L132.6 165.4Q131.6 168.2 130.4 169.3Q129.1 170.4 127.0 170.4ZM142.6 161.1L142.6 161.1Q143.3 161.1 143.7 161.5Q144.1 161.8 144.1 162.4L144.1 162.4Q144.1 162.8 144.0 163.3L144.0 163.3L142.7 168.3Q142.4 169.4 141.4 169.4L141.4 169.4Q140.8 169.4 140.5 169.1Q140.1 168.7 140.1 168.2L140.1 168.2Q140.1 168.1 140.2 167.8L140.2 167.8L141.1 162.4Q141.3 161.1 142.6 161.1Z M165.9 164.9L165.9 164.9Q165.2 164.9 164.8 164.5Q164.3 164.0 164.3 163.3L164.3 163.3L164.3 160.5L155.6 160.5Q154.8 160.5 154.2 160.0Q153.7 159.4 153.7 158.6L153.7 158.6Q153.7 157.6 154.4 156.3L154.4 156.3Q156.3 153.0 161.3 145.7L161.3 145.7Q162.3 144.3 163.0 143.8Q163.8 143.2 164.8 143.2L164.8 143.2Q166.1 143.2 166.8 143.9Q167.5 144.5 167.5 145.7L167.5 145.7L167.5 157.7L169.2 157.7Q169.8 157.7 170.2 158.1Q170.6 158.5 170.6 159.1Q170.6 159.7 170.2 160.1Q169.8 160.5 169.2 160.5L169.2 160.5L167.5 160.5L167.5 163.3Q167.5 164.0 167.0 164.5Q166.6 164.9 165.9 164.9ZM156.8 157.8L164.4 157.8L164.4 146.1L164.3 146.1Q158.9 153.9 156.8 157.7L156.8 157.7L156.8 157.8Z M181.9 164.5Q181.5 164.9 180.8 164.9Q180.1 164.9 179.7 164.5Q179.3 164.1 179.3 163.3L179.3 163.3L179.3 145.4Q179.3 144.4 179.8 143.9Q180.4 143.3 181.4 143.3L181.4 143.3Q182.2 143.3 182.8 143.7Q183.3 144.1 183.7 145.0L183.7 145.0L189.9 160.2L190.0 160.2L196.3 145.0Q196.7 144.1 197.2 143.7Q197.7 143.3 198.6 143.3L198.6 143.3Q199.5 143.3 200.1 143.8Q200.7 144.4 200.7 145.4L200.7 145.4L200.7 163.3Q200.7 164.1 200.3 164.5Q199.9 164.9 199.2 164.9L199.2 164.9Q198.5 164.9 198.1 164.5Q197.7 164.1 197.7 163.3L197.7 163.3L197.7 149.1L197.6 149.1L191.7 163.3Q191.2 164.5 190.0 164.5L190.0 164.5Q188.8 164.5 188.3 163.3L188.3 163.3L182.4 149.1L182.3 149.1L182.3 163.3Q182.3 164.1 181.9 164.5ZM208.7 164.9L208.7 164.9Q206.4 164.9 205.0 163.6Q203.5 162.3 203.5 160.3L203.5 160.3Q203.5 158.3 205.0 157.1Q206.5 155.9 209.3 155.7L209.3 155.7L213.5 155.5L213.5 154.3Q213.5 153.0 212.7 152.3Q211.9 151.6 210.4 151.6L210.4 151.6Q209.3 151.6 208.5 152.0Q207.7 152.5 207.0 153.5L207.0 153.5Q206.5 154.2 205.7 154.2L205.7 154.2Q205.1 154.2 204.7 153.8Q204.4 153.4 204.4 152.9L204.4 152.9Q204.4 152.3 204.6 151.8L204.6 151.8Q205.2 150.5 206.8 149.8Q208.5 149.0 210.5 149.0L210.5 149.0Q213.3 149.0 215.0 150.4Q216.7 151.7 216.7 154.0L216.7 154.0L216.7 163.3Q216.7 164.1 216.2 164.5Q215.8 164.9 215.1 164.9L215.1 164.9Q214.5 164.9 214.1 164.5Q213.6 164.1 213.6 163.4L213.6 163.4L213.6 162.1L213.6 162.1Q212.9 163.4 211.6 164.2Q210.2 164.9 208.7 164.9ZM209.6 162.4L209.6 162.4Q211.2 162.4 212.4 161.4Q213.5 160.4 213.5 158.9L213.5 158.9L213.5 157.7L209.7 157.9Q208.3 158.0 207.5 158.6Q206.7 159.2 206.7 160.2L206.7 160.2Q206.7 161.2 207.5 161.8Q208.3 162.4 209.6 162.4ZM221.6 170.4L221.6 170.4Q220.5 170.4 219.9 170.0Q219.4 169.6 219.4 168.9L219.4 168.9Q219.4 168.4 219.7 168.1Q220.0 167.8 220.6 167.8L220.6 167.8Q220.7 167.8 221.0 167.8Q221.2 167.8 221.4 167.8L221.4 167.8Q223.0 167.8 223.8 165.7L223.8 165.7L224.0 164.8L218.9 151.3Q218.7 150.9 218.7 150.4L218.7 150.4Q218.7 149.8 219.2 149.4Q219.6 149.0 220.3 149.0L220.3 149.0Q220.9 149.0 221.3 149.3Q221.6 149.5 221.8 150.2L221.8 150.2L225.8 161.8L225.8 161.8L229.8 150.2Q229.9 149.5 230.3 149.3Q230.7 149.0 231.3 149.0L231.3 149.0Q231.9 149.0 232.4 149.4Q232.8 149.8 232.8 150.4L232.8 150.4Q232.8 150.8 232.6 151.3L232.6 151.3L227.3 165.4Q226.3 168.2 225.0 169.3Q223.8 170.4 221.6 170.4Z M254.2 164.7L242.6 164.7Q241.8 164.7 241.4 164.3Q241.0 163.9 241.0 163.3L241.0 163.3Q241.0 162.8 241.2 162.5Q241.4 162.1 241.9 161.6L241.9 161.6L248.5 154.9Q250.6 152.8 251.3 151.7Q251.9 150.6 251.9 149.3L251.9 149.3Q251.9 147.8 250.9 146.8Q249.9 145.8 248.3 145.8L248.3 145.8Q245.1 145.8 244.0 149.0L244.0 149.0Q243.8 149.5 243.5 149.8Q243.1 150.0 242.5 150.0L242.5 150.0Q241.9 150.0 241.5 149.6Q241.1 149.3 241.1 148.6L241.1 148.6Q241.1 148.3 241.2 148.0L241.2 148.0Q241.4 147.1 241.9 146.3Q242.5 145.4 243.3 144.7Q244.2 144.0 245.5 143.6Q246.8 143.1 248.3 143.1L248.3 143.1Q251.3 143.1 253.3 144.8Q255.2 146.5 255.2 149.1L255.2 149.1Q255.2 150.9 254.2 152.5Q253.2 154.0 250.5 156.8L250.5 156.8L245.5 161.8L245.5 161.9L254.2 161.9Q254.9 161.9 255.3 162.3Q255.7 162.7 255.7 163.3L255.7 163.3Q255.7 163.9 255.3 164.3Q254.9 164.7 254.2 164.7L254.2 164.7ZM272.1 162.1Q270.0 165.1 266.2 165.1Q262.4 165.1 260.2 162.1Q258.1 159.2 258.1 154.1L258.1 154.1Q258.1 149.0 260.2 146.1Q262.4 143.1 266.2 143.1L266.2 143.1Q269.9 143.1 272.1 146.1Q274.2 149.0 274.2 154.1L274.2 154.1Q274.2 159.1 272.1 162.1ZM266.2 162.3L266.2 162.3Q268.4 162.3 269.7 160.1Q270.9 157.9 270.9 154.1L270.9 154.1Q270.9 150.3 269.7 148.1Q268.4 145.9 266.2 145.9Q263.9 145.9 262.7 148.1Q261.4 150.3 261.4 154.1L261.4 154.1Q261.4 157.9 262.6 160.1Q263.9 162.3 266.2 162.3ZM290.3 164.7L278.7 164.7Q277.9 164.7 277.5 164.3Q277.1 163.9 277.1 163.3L277.1 163.3Q277.1 162.8 277.3 162.5Q277.5 162.1 278.0 161.6L278.0 161.6L284.6 154.9Q286.7 152.8 287.4 151.7Q288.0 150.6 288.0 149.3L288.0 149.3Q288.0 147.8 287.0 146.8Q286.0 145.8 284.4 145.8L284.4 145.8Q281.2 145.8 280.1 149.0L280.1 149.0Q279.9 149.5 279.5 149.8Q279.2 150.0 278.6 150.0L278.6 150.0Q278.0 150.0 277.6 149.6Q277.2 149.3 277.2 148.6L277.2 148.6Q277.2 148.3 277.3 148.0L277.3 148.0Q277.5 147.1 278.0 146.3Q278.5 145.4 279.4 144.7Q280.3 144.0 281.6 143.6Q282.9 143.1 284.4 143.1L284.4 143.1Q287.4 143.1 289.3 144.8Q291.3 146.5 291.3 149.1L291.3 149.1Q291.3 150.9 290.3 152.5Q289.3 154.0 286.6 156.8L286.6 156.8L281.6 161.8L281.6 161.9L290.3 161.9Q291.0 161.9 291.4 162.3Q291.8 162.7 291.8 163.3L291.8 163.3Q291.8 163.9 291.4 164.3Q291.0 164.7 290.3 164.7L290.3 164.7ZM302.1 165.1L302.1 165.1Q299.7 165.1 297.8 164.0Q295.9 162.9 295.2 161.2L295.2 161.2Q294.9 160.5 294.9 159.8L294.9 159.8Q294.9 159.1 295.2 158.7Q295.6 158.3 296.3 158.3L296.3 158.3Q296.8 158.3 297.2 158.6Q297.5 158.8 297.8 159.4L297.8 159.4Q298.3 160.8 299.4 161.5Q300.5 162.3 302.1 162.3L302.1 162.3Q304.1 162.3 305.4 161.0Q306.6 159.8 306.6 157.8L306.6 157.8Q306.6 155.8 305.4 154.6Q304.1 153.4 302.1 153.4L302.1 153.4Q300.0 153.4 298.7 154.7L298.7 154.7Q298.0 155.5 297.6 155.6Q297.3 155.8 296.7 155.8L296.7 155.8Q295.9 155.8 295.5 155.4Q295.1 154.9 295.1 154.2L295.1 154.2L295.1 153.9L295.8 145.8Q295.9 144.6 296.5 144.0Q297.1 143.5 298.4 143.5L298.4 143.5L307.3 143.5Q308.0 143.5 308.4 143.9Q308.8 144.3 308.8 144.9Q308.8 145.5 308.4 145.9Q308.0 146.3 307.3 146.3L307.3 146.3L298.7 146.3L298.1 152.9L298.1 152.9Q298.8 151.9 300.1 151.3Q301.3 150.8 302.9 150.8L302.9 150.8Q306.0 150.8 307.9 152.7Q309.9 154.6 309.9 157.7L309.9 157.7Q309.9 161.0 307.7 163.0Q305.5 165.1 302.1 165.1Z "/><mask id="satori_om-id-0-0-1"><rect x="40" y="217" width="1120" height="83" fill="#fff"/></mask><path fill="#224d67" d="M47.4 280.1L47.4 280.1Q45.7 280.1 44.7 279.1Q43.7 278.1 43.7 276.3L43.7 276.3L43.7 240.7Q43.7 238.9 44.8 237.8Q45.8 236.8 47.6 236.8L47.6 236.8Q48.9 236.8 49.8 237.3Q50.7 237.8 51.6 239.1L51.6 239.1L71.3 266.9L71.5 266.9L71.5 240.6Q71.5 238.8 72.5 237.8Q73.5 236.8 75.2 236.8L75.2 236.8Q76.9 236.8 77.8 237.8Q78.8 238.8 78.8 240.6L78.8 240.6L78.8 276.3Q78.8 278.1 77.8 279.1Q76.8 280.1 75.0 280.1L75.0 280.1Q73.7 280.1 72.8 279.6Q71.9 279.1 71.0 277.8L71.0 277.8L51.3 249.9L51.0 249.9L51.0 276.3Q51.0 278.1 50.0 279.1Q49.1 280.1 47.4 280.1ZM110.2 275.9Q106.2 280.2 99.3 280.2Q92.4 280.2 88.3 275.9Q84.2 271.6 84.2 264.1L84.2 264.1Q84.2 256.6 88.3 252.2Q92.4 247.9 99.3 247.9L99.3 247.9Q106.1 247.9 110.2 252.2Q114.3 256.6 114.3 264.1L114.3 264.1Q114.3 271.6 110.2 275.9ZM93.7 271.7Q95.8 274.4 99.3 274.4Q102.8 274.4 104.8 271.7Q106.9 269.0 106.9 264.1L106.9 264.1Q106.9 259.2 104.8 256.4Q102.8 253.7 99.3 253.7L99.3 253.7Q95.8 253.7 93.7 256.4Q91.7 259.2 91.7 264.1L91.7 264.1Q91.7 269.0 93.7 271.7Z M150.0 280.3L150.0 280.3Q140.9 280.3 135.6 274.4Q130.3 268.6 130.3 258.4L130.3 258.4Q130.3 248.3 135.6 242.5Q140.9 236.6 149.9 236.6L149.9 236.6Q155.8 236.6 160.2 239.2Q164.6 241.8 166.7 246.4L166.7 246.4Q167.4 247.9 167.4 249.3L167.4 249.3Q167.4 250.8 166.5 251.7Q165.6 252.6 164.0 252.6L164.0 252.6Q161.5 252.6 160.4 249.9L160.4 249.9Q158.9 246.6 156.2 244.8Q153.4 243.0 150.0 243.0L150.0 243.0Q144.5 243.0 141.3 247.2Q138.0 251.4 138.0 258.4L138.0 258.4Q138.0 265.5 141.3 269.7Q144.5 273.9 150.0 273.9L150.0 273.9Q157.6 273.9 160.5 267.3L160.5 267.3Q161.1 266.0 161.8 265.4Q162.6 264.9 163.8 264.9L163.8 264.9Q165.4 264.9 166.4 265.8Q167.4 266.7 167.4 268.2L167.4 268.2Q167.4 269.6 166.7 271.1L166.7 271.1Q164.6 275.4 160.3 277.8Q155.9 280.3 150.0 280.3ZM197.9 275.9Q193.8 280.2 186.9 280.2Q180.0 280.2 175.9 275.9Q171.9 271.6 171.9 264.1L171.9 264.1Q171.9 256.6 176.0 252.2Q180.1 247.9 186.9 247.9L186.9 247.9Q193.8 247.9 197.8 252.2Q201.9 256.6 201.9 264.1L201.9 264.1Q201.9 271.6 197.9 275.9ZM181.3 271.7Q183.4 274.4 186.9 274.4Q190.4 274.4 192.5 271.7Q194.5 269.0 194.5 264.1L194.5 264.1Q194.5 259.2 192.5 256.4Q190.4 253.7 186.9 253.7L186.9 253.7Q183.4 253.7 181.3 256.4Q179.3 259.2 179.3 264.1L179.3 264.1Q179.3 269.0 181.3 271.7ZM212.9 279.2Q211.9 280.2 210.2 280.2Q208.6 280.2 207.6 279.2Q206.6 278.1 206.6 276.3L206.6 276.3L206.6 251.6Q206.6 249.9 207.5 248.9Q208.5 247.9 210.1 247.9Q211.7 247.9 212.7 248.9Q213.7 249.9 213.7 251.6L213.7 251.6L213.7 253.8L213.8 253.8Q216.5 247.9 223.5 247.9L223.5 247.9Q228.6 247.9 231.4 251.0Q234.3 254.1 234.3 259.5L234.3 259.5L234.3 276.3Q234.3 278.1 233.3 279.2Q232.3 280.2 230.6 280.2Q229.0 280.2 228.0 279.2Q227.0 278.1 227.0 276.3L227.0 276.3L227.0 261.0Q227.0 257.6 225.4 255.9Q223.8 254.1 220.8 254.1L220.8 254.1Q217.6 254.1 215.8 256.2Q213.9 258.2 213.9 261.6L213.9 261.6L213.9 276.3Q213.9 278.1 212.9 279.2ZM242.1 271.9L242.1 271.9L242.1 254.1L240.2 254.1Q238.8 254.1 238.0 253.4Q237.2 252.6 237.2 251.3L237.2 251.3Q237.2 250.0 238.0 249.3Q238.8 248.5 240.2 248.5L240.2 248.5L242.1 248.5L242.1 244.4Q242.1 242.6 243.1 241.6Q244.1 240.6 245.8 240.6L245.8 240.6Q247.5 240.6 248.4 241.6Q249.4 242.6 249.4 244.4L249.4 244.4L249.4 248.5L252.8 248.5Q254.2 248.5 254.9 249.3Q255.7 250.0 255.7 251.3L255.7 251.3Q255.7 252.6 254.9 253.4Q254.1 254.1 252.8 254.1L252.8 254.1L249.4 254.1L249.4 270.3Q249.4 272.1 250.1 272.9Q250.8 273.7 252.3 273.9L252.3 273.9L252.9 273.9Q255.8 274.2 255.8 276.6L255.8 276.6Q255.8 278.2 254.5 279.1Q253.1 279.9 250.6 279.9L250.6 279.9L250.3 279.9Q242.1 279.9 242.1 271.9ZM266.5 279.1Q265.5 280.2 263.9 280.2Q262.2 280.2 261.2 279.1Q260.2 278.1 260.2 276.3L260.2 276.3L260.2 251.6Q260.2 249.9 261.2 248.9Q262.1 247.9 263.7 247.9L263.7 247.9Q265.2 247.9 266.2 248.9Q267.2 249.9 267.2 251.6L267.2 251.6L267.2 254.0L267.3 254.0Q268.0 251.3 269.8 249.6Q271.6 248.0 274.0 248.0L274.0 248.0Q275.7 248.0 276.5 248.8L276.5 248.8Q277.6 249.6 277.6 251.4L277.6 251.4Q277.6 253.1 276.5 254.0L276.5 254.0Q275.4 254.9 273.3 255.0L273.3 255.0Q267.5 255.0 267.5 261.4L267.5 261.4L267.5 276.3Q267.5 278.1 266.5 279.1ZM290.0 280.1L290.0 280.1Q285.4 280.1 282.5 277.5Q279.6 274.9 279.6 270.7L279.6 270.7Q279.6 266.6 282.7 264.2Q285.7 261.8 291.4 261.4L291.4 261.4L299.6 260.9L299.6 258.7Q299.6 256.3 298.1 254.9Q296.6 253.6 293.8 253.6L293.8 253.6Q291.7 253.6 290.2 254.4Q288.7 255.2 287.3 257.2L287.3 257.2Q286.2 258.7 284.4 258.7L284.4 258.7Q283.0 258.7 282.2 257.9Q281.3 257.1 281.3 255.8L281.3 255.8Q281.3 254.8 281.8 253.8L281.8 253.8Q283.0 251.1 286.3 249.5Q289.7 247.9 294.1 247.9L294.1 247.9Q299.9 247.9 303.4 250.7Q306.8 253.5 306.8 258.2L306.8 258.2L306.8 276.5Q306.8 278.2 305.9 279.2Q304.9 280.2 303.3 280.2L303.3 280.2Q301.8 280.2 300.8 279.3Q299.9 278.4 299.8 276.8L299.8 276.8L299.8 274.6L299.7 274.6Q298.3 277.1 295.7 278.6Q293.0 280.1 290.0 280.1ZM292.2 274.6L292.2 274.6Q295.3 274.6 297.5 272.7Q299.6 270.8 299.6 268.1L299.6 268.1L299.6 265.7L292.4 266.1Q289.8 266.3 288.3 267.4Q286.9 268.6 286.9 270.4L286.9 270.4Q286.9 272.3 288.3 273.4Q289.8 274.6 292.2 274.6ZM326.3 280.2L326.3 280.2Q319.5 280.2 315.5 275.9Q311.4 271.5 311.4 264.1L311.4 264.1Q311.4 256.7 315.4 252.3Q319.5 247.9 326.3 247.9L326.3 247.9Q330.8 247.9 334.4 250.0Q337.9 252.1 339.1 255.4L339.1 255.4Q339.4 256.4 339.4 257.1L339.4 257.1Q339.4 258.5 338.5 259.3Q337.7 260.1 336.3 260.1L336.3 260.1Q335.2 260.1 334.5 259.6Q333.8 259.1 333.1 258.0L333.1 258.0Q330.8 253.8 326.5 253.8L326.5 253.8Q323.0 253.8 320.9 256.6Q318.8 259.3 318.8 264.1L318.8 264.1Q318.8 268.9 320.9 271.6Q322.9 274.3 326.5 274.3L326.5 274.3Q330.8 274.3 333.1 270.3L333.1 270.3Q333.8 269.1 334.6 268.6Q335.3 268.1 336.5 268.1L336.5 268.1Q337.8 268.1 338.7 268.9Q339.5 269.7 339.5 271.1L339.5 271.1Q339.5 271.9 339.1 272.9L339.1 272.9Q337.8 276.1 334.2 278.2Q330.7 280.2 326.3 280.2ZM346.4 271.9L346.4 271.9L346.4 254.1L344.5 254.1Q343.1 254.1 342.3 253.4Q341.6 252.6 341.6 251.3L341.6 251.3Q341.6 250.0 342.3 249.3Q343.1 248.5 344.5 248.5L344.5 248.5L346.4 248.5L346.4 244.4Q346.4 242.6 347.4 241.6Q348.4 240.6 350.1 240.6L350.1 240.6Q351.8 240.6 352.8 241.6Q353.7 242.6 353.7 244.4L353.7 244.4L353.7 248.5L357.1 248.5Q358.5 248.5 359.3 249.3Q360.0 250.0 360.0 251.3L360.0 251.3Q360.0 252.6 359.2 253.4Q358.5 254.1 357.1 254.1L357.1 254.1L353.7 254.1L353.7 270.3Q353.7 272.1 354.4 272.9Q355.1 273.7 356.7 273.9L356.7 273.9L357.2 273.9Q360.1 274.2 360.1 276.6L360.1 276.6Q360.1 278.2 358.8 279.1Q357.4 279.9 354.9 279.9L354.9 279.9L354.6 279.9Q346.4 279.9 346.4 271.9Z M381.0 280.1L381.0 280.1Q379.2 280.1 378.3 279.1Q377.3 278.1 377.3 276.3L377.3 276.3L377.3 240.7Q377.3 238.9 378.3 237.8Q379.4 236.8 381.2 236.8L381.2 236.8Q382.5 236.8 383.4 237.3Q384.2 237.8 385.1 239.1L385.1 239.1L404.8 266.9L405.1 266.9L405.1 240.6Q405.1 238.8 406.1 237.8Q407.0 236.8 408.7 236.8L408.7 236.8Q410.5 236.8 411.4 237.8Q412.4 238.8 412.4 240.6L412.4 240.6L412.4 276.3Q412.4 278.1 411.4 279.1Q410.4 280.1 408.5 280.1L408.5 280.1Q407.2 280.1 406.4 279.6Q405.5 279.1 404.6 277.8L404.6 277.8L384.9 249.9L384.6 249.9L384.6 276.3Q384.6 278.1 383.6 279.1Q382.7 280.1 381.0 280.1ZM443.8 275.9Q439.7 280.2 432.8 280.2Q426.0 280.2 421.9 275.9Q417.8 271.6 417.8 264.1L417.8 264.1Q417.8 256.6 421.9 252.2Q426.0 247.9 432.8 247.9L432.8 247.9Q439.7 247.9 443.8 252.2Q447.9 256.6 447.9 264.1L447.9 264.1Q447.9 271.6 443.8 275.9ZM427.3 271.7Q429.3 274.4 432.8 274.4Q436.4 274.4 438.4 271.7Q440.5 269.0 440.5 264.1L440.5 264.1Q440.5 259.2 438.4 256.4Q436.4 253.7 432.8 253.7L432.8 253.7Q429.4 253.7 427.3 256.4Q425.2 259.2 425.2 264.1L425.2 264.1Q425.2 269.0 427.3 271.7Z M469.1 280.1L469.1 280.1Q467.3 280.1 466.3 279.0Q465.3 278.0 465.3 276.2L465.3 276.2L465.3 241.2Q465.3 239.4 466.3 238.3Q467.3 237.3 469.1 237.3L469.1 237.3L481.7 237.3Q488.1 237.3 492.0 241.2Q496.0 245.1 496.0 251.5L496.0 251.5Q496.0 257.8 491.9 261.7Q487.9 265.6 481.4 265.6L481.4 265.6L472.9 265.6L472.9 276.2Q472.9 278.0 471.9 279.1Q470.9 280.1 469.1 280.1ZM472.9 243.5L472.9 259.5L479.7 259.5Q483.8 259.5 486.0 257.4Q488.3 255.3 488.3 251.5L488.3 251.5Q488.3 247.6 486.1 245.6Q483.8 243.5 479.7 243.5L479.7 243.5L472.9 243.5ZM509.9 280.1L509.9 280.1Q505.3 280.1 502.4 277.5Q499.5 274.9 499.5 270.7L499.5 270.7Q499.5 266.6 502.6 264.2Q505.6 261.8 511.3 261.4L511.3 261.4L519.5 260.9L519.5 258.7Q519.5 256.3 518.0 254.9Q516.5 253.6 513.7 253.6L513.7 253.6Q511.6 253.6 510.1 254.4Q508.6 255.2 507.2 257.2L507.2 257.2Q506.1 258.7 504.3 258.7L504.3 258.7Q502.9 258.7 502.1 257.9Q501.2 257.1 501.2 255.8L501.2 255.8Q501.2 254.8 501.7 253.8L501.7 253.8Q502.9 251.1 506.2 249.5Q509.6 247.9 514.0 247.9L514.0 247.9Q519.8 247.9 523.3 250.7Q526.7 253.5 526.7 258.2L526.7 258.2L526.7 276.5Q526.7 278.2 525.8 279.2Q524.8 280.2 523.2 280.2L523.2 280.2Q521.7 280.2 520.7 279.3Q519.8 278.4 519.7 276.8L519.7 276.8L519.7 274.6L519.6 274.6Q518.2 277.1 515.6 278.6Q512.9 280.1 509.9 280.1ZM512.1 274.6L512.1 274.6Q515.2 274.6 517.4 272.7Q519.5 270.8 519.5 268.1L519.5 268.1L519.5 265.7L512.3 266.1Q509.7 266.3 508.2 267.4Q506.8 268.6 506.8 270.4L506.8 270.4Q506.8 272.3 508.2 273.4Q509.7 274.6 512.1 274.6ZM537.1 291.1L537.1 291.1Q534.6 291.1 533.3 290.2Q532.0 289.3 532.0 287.7L532.0 287.7Q532.0 286.6 532.7 285.9Q533.5 285.2 534.7 285.2L534.7 285.2Q535.0 285.2 535.5 285.2Q536.0 285.2 536.3 285.2L536.3 285.2Q539.3 285.2 540.7 281.7L540.7 281.7L541.3 280.1L531.1 253.4Q530.7 252.2 530.7 251.3L530.7 251.3Q530.7 249.8 531.8 248.9Q532.8 247.9 534.4 247.9L534.4 247.9Q535.8 247.9 536.6 248.6Q537.5 249.3 537.9 250.8L537.9 250.8L545.3 273.4L545.5 273.4L552.9 250.8Q553.3 249.3 554.2 248.6Q555.0 247.9 556.4 247.9L556.4 247.9Q557.9 247.9 558.9 248.8Q559.9 249.8 559.9 251.2L559.9 251.2Q559.9 252.2 559.5 253.3L559.5 253.3L549.3 280.7Q547.2 286.5 544.4 288.8Q541.7 291.1 537.1 291.1Z M592.3 280.1L592.3 280.1Q590.5 280.1 589.6 279.1Q588.6 278.0 588.6 276.2L588.6 276.2L588.6 262.9L575.3 242.8Q574.6 241.6 574.6 240.3L574.6 240.3Q574.6 238.8 575.6 237.8Q576.7 236.8 578.3 236.8L578.3 236.8Q579.5 236.8 580.3 237.3Q581.1 237.8 581.8 239.0L581.8 239.0L592.3 255.7L592.5 255.7L603.0 239.0Q603.7 237.8 604.4 237.3Q605.2 236.8 606.3 236.8L606.3 236.8Q607.9 236.8 609.0 237.8Q610.1 238.8 610.1 240.2L610.1 240.2Q610.1 241.5 609.3 242.8L609.3 242.8L596.1 262.9L596.1 276.2Q596.1 278.0 595.1 279.1Q594.1 280.1 592.3 280.1ZM628.5 280.2L628.5 280.2Q621.4 280.2 617.4 276.0Q613.4 271.7 613.4 264.2L613.4 264.2Q613.4 256.7 617.4 252.3Q621.4 247.9 628.1 247.9L628.1 247.9Q634.4 247.9 638.4 251.9Q642.4 256.0 642.4 262.4L642.4 262.4Q642.4 264.0 641.5 264.9Q640.6 265.8 639.0 265.8L639.0 265.8L620.7 265.8L620.7 266.0Q620.7 269.9 622.8 272.3Q624.9 274.6 628.4 274.6L628.4 274.6Q630.9 274.6 632.7 273.6Q634.4 272.7 636.2 270.4L636.2 270.4Q637.2 269.3 638.7 269.3L638.7 269.3Q639.9 269.3 640.7 270.0Q641.6 270.8 641.6 272.1L641.6 272.1Q641.6 272.9 641.1 273.9L641.1 273.9Q639.5 276.9 636.2 278.5Q632.9 280.2 628.5 280.2ZM620.7 261.0L620.7 261.0L635.2 261.0Q635.1 257.6 633.1 255.6Q631.2 253.5 628.1 253.5Q625.0 253.5 623.0 255.6Q620.9 257.7 620.7 261.0ZM649.1 271.9L649.1 271.9L649.1 254.1L647.1 254.1Q645.8 254.1 645.0 253.4Q644.2 252.6 644.2 251.3L644.2 251.3Q644.2 250.0 645.0 249.3Q645.7 248.5 647.1 248.5L647.1 248.5L649.1 248.5L649.1 244.4Q649.1 242.6 650.1 241.6Q651.0 240.6 652.7 240.6L652.7 240.6Q654.4 240.6 655.4 241.6Q656.4 242.6 656.4 244.4L656.4 244.4L656.4 248.5L659.7 248.5Q661.1 248.5 661.9 249.3Q662.7 250.0 662.7 251.3L662.7 251.3Q662.7 252.6 661.9 253.4Q661.1 254.1 659.7 254.1L659.7 254.1L656.4 254.1L656.4 270.3Q656.4 272.1 657.1 272.9Q657.7 273.7 659.3 273.9L659.3 273.9L659.8 273.9Q662.8 274.2 662.8 276.6L662.8 276.6Q662.8 278.2 661.4 279.1Q660.1 279.9 657.5 279.9L657.5 279.9L657.3 279.9Q649.1 279.9 649.1 271.9Z M683.7 280.1L683.7 280.1Q682.0 280.1 680.9 279.0Q679.9 278.0 679.9 276.2L679.9 276.2L679.9 241.2Q679.9 239.4 680.9 238.3Q682.0 237.3 683.7 237.3L683.7 237.3L703.9 237.3Q705.5 237.3 706.4 238.2Q707.4 239.0 707.4 240.5Q707.4 242.0 706.4 242.8Q705.5 243.7 703.9 243.7L703.9 243.7L687.5 243.7L687.5 256.2L702.4 256.2Q703.9 256.2 704.8 257.0Q705.7 257.8 705.7 259.2Q705.7 260.7 704.8 261.5Q703.9 262.3 702.4 262.3L702.4 262.3L687.5 262.3L687.5 276.2Q687.5 278.0 686.5 279.1Q685.5 280.1 683.7 280.1ZM722.5 280.1L722.5 280.1Q717.4 280.1 714.5 277.0Q711.5 274.0 711.5 268.6L711.5 268.6L711.5 251.7Q711.5 250.0 712.5 248.9Q713.5 247.9 715.1 247.9Q716.8 247.9 717.8 248.9Q718.8 250.0 718.8 251.8L718.8 251.8L718.8 267.1Q718.8 270.5 720.4 272.2Q722.0 274.0 725.0 274.0L725.0 274.0Q728.2 274.0 730.0 271.9Q731.9 269.9 731.9 266.5L731.9 266.5L731.9 251.7Q731.9 250.0 732.9 248.9Q733.9 247.9 735.5 247.9L735.5 247.9Q737.1 247.9 738.2 248.9Q739.2 250.0 739.2 251.8L739.2 251.8L739.2 276.5Q739.2 278.2 738.2 279.2Q737.3 280.2 735.7 280.2L735.7 280.2Q734.1 280.2 733.1 279.2Q732.1 278.2 732.1 276.5L732.1 276.5L732.1 274.2L732.0 274.2Q729.4 280.1 722.5 280.1ZM751.6 279.2Q750.6 280.2 749.0 280.2Q747.3 280.2 746.3 279.2Q745.3 278.1 745.3 276.3L745.3 276.3L745.3 240.6Q745.3 238.7 746.3 237.7Q747.3 236.7 749.0 236.7Q750.6 236.7 751.6 237.7Q752.6 238.7 752.6 240.6L752.6 240.6L752.6 276.3Q752.6 278.1 751.6 279.2ZM765.3 279.2Q764.3 280.2 762.7 280.2Q761.1 280.2 760.0 279.2Q759.0 278.1 759.0 276.3L759.0 276.3L759.0 240.6Q759.0 238.7 760.0 237.7Q761.1 236.7 762.7 236.7Q764.3 236.7 765.3 237.7Q766.3 238.7 766.3 240.6L766.3 240.6L766.3 276.3Q766.3 278.1 765.3 279.2ZM777.0 291.1L777.0 291.1Q774.5 291.1 773.2 290.2Q771.9 289.3 771.9 287.7L771.9 287.7Q771.9 286.6 772.7 285.9Q773.4 285.2 774.7 285.2L774.7 285.2Q775.0 285.2 775.4 285.2Q775.9 285.2 776.3 285.2L776.3 285.2Q779.2 285.2 780.7 281.7L780.7 281.7L781.2 280.1L771.0 253.4Q770.6 252.2 770.6 251.3L770.6 251.3Q770.6 249.8 771.7 248.9Q772.8 247.9 774.4 247.9L774.4 247.9Q775.8 247.9 776.6 248.6Q777.4 249.3 777.9 250.8L777.9 250.8L785.3 273.4L785.4 273.4L792.8 250.8Q793.3 249.3 794.1 248.6Q795.0 247.9 796.3 247.9L796.3 247.9Q797.9 247.9 798.9 248.8Q799.9 249.8 799.9 251.2L799.9 251.2Q799.9 252.2 799.5 253.3L799.5 253.3L789.2 280.7Q787.1 286.5 784.4 288.8Q781.7 291.1 777.0 291.1Z M831.5 280.3L831.5 280.3Q825.3 280.3 821.2 278.0Q817.0 275.7 815.8 272.0L815.8 272.0Q815.4 270.9 815.4 269.8L815.4 269.8Q815.4 268.2 816.3 267.3Q817.2 266.3 818.7 266.3L818.7 266.3Q820.0 266.3 820.8 266.9Q821.6 267.4 822.3 268.7L822.3 268.7Q823.2 271.4 825.7 272.7Q828.2 274.0 831.7 274.0L831.7 274.0Q835.5 274.0 838.0 272.3Q840.4 270.6 840.4 268.0L840.4 268.0Q840.4 265.7 838.6 264.2Q836.8 262.8 832.8 261.9L832.8 261.9L828.2 261.0Q815.8 258.4 815.8 249.1L815.8 249.1Q815.8 243.5 820.2 240.1Q824.6 236.6 831.5 236.6L831.5 236.6Q837.1 236.6 841.2 239.0Q845.2 241.4 846.5 245.5L846.5 245.5Q846.8 246.2 846.8 247.3L846.8 247.3Q846.8 248.6 845.9 249.5Q845.0 250.4 843.5 250.4L843.5 250.4Q841.0 250.4 839.9 248.0L839.9 248.0Q837.8 242.9 831.5 242.9L831.5 242.9Q827.9 242.9 825.7 244.4Q823.4 246.0 823.4 248.6L823.4 248.6Q823.4 250.8 825.2 252.2Q826.9 253.7 830.8 254.5L830.8 254.5L835.4 255.4Q842.0 256.8 845.0 259.6Q848.0 262.4 848.0 267.1L848.0 267.1Q848.0 273.2 843.6 276.7Q839.1 280.3 831.5 280.3ZM866.6 280.2L866.6 280.2Q859.8 280.2 855.7 275.9Q851.6 271.5 851.6 264.1L851.6 264.1Q851.6 256.7 855.7 252.3Q859.7 247.9 866.5 247.9L866.5 247.9Q871.1 247.9 874.6 250.0Q878.2 252.1 879.3 255.4L879.3 255.4Q879.7 256.4 879.7 257.1L879.7 257.1Q879.7 258.5 878.8 259.3Q877.9 260.1 876.5 260.1L876.5 260.1Q875.5 260.1 874.7 259.6Q874.0 259.1 873.3 258.0L873.3 258.0Q871.1 253.8 866.7 253.8L866.7 253.8Q863.2 253.8 861.1 256.6Q859.1 259.3 859.1 264.1L859.1 264.1Q859.1 268.9 861.1 271.6Q863.2 274.3 866.7 274.3L866.7 274.3Q871.1 274.3 873.3 270.3L873.3 270.3Q874.1 269.1 874.8 268.6Q875.5 268.1 876.7 268.1L876.7 268.1Q878.0 268.1 878.9 268.9Q879.8 269.7 879.8 271.1L879.8 271.1Q879.8 271.9 879.3 272.9L879.3 272.9Q878.0 276.1 874.5 278.2Q870.9 280.2 866.6 280.2ZM891.2 279.2Q890.2 280.2 888.5 280.2Q886.9 280.2 885.9 279.2Q884.9 278.1 884.9 276.3L884.9 276.3L884.9 240.5Q884.9 238.7 885.8 237.7Q886.8 236.7 888.5 236.7L888.5 236.7Q890.2 236.7 891.1 237.7Q892.1 238.7 892.1 240.5L892.1 240.5L892.1 253.9L892.2 253.9Q893.5 251.0 896.0 249.5Q898.5 247.9 902.0 247.9L902.0 247.9Q907.1 247.9 910.0 251.1Q912.9 254.2 912.9 259.6L912.9 259.6L912.9 276.3Q912.9 278.1 911.9 279.2Q910.9 280.2 909.2 280.2Q907.6 280.2 906.6 279.2Q905.6 278.1 905.6 276.3L905.6 276.3L905.6 261.1Q905.6 257.8 904.0 255.9Q902.4 254.1 899.2 254.1L899.2 254.1Q895.9 254.1 894.0 256.2Q892.2 258.3 892.2 261.7L892.2 261.7L892.2 276.3Q892.2 278.1 891.2 279.2ZM932.5 280.2L932.5 280.2Q925.4 280.2 921.4 276.0Q917.4 271.7 917.4 264.2L917.4 264.2Q917.4 256.7 921.4 252.3Q925.4 247.9 932.1 247.9L932.1 247.9Q938.5 247.9 942.4 251.9Q946.4 256.0 946.4 262.4L946.4 262.4Q946.4 264.0 945.5 264.9Q944.6 265.8 943.0 265.8L943.0 265.8L924.7 265.8L924.7 266.0Q924.7 269.9 926.8 272.3Q928.9 274.6 932.5 274.6L932.5 274.6Q934.9 274.6 936.7 273.6Q938.5 272.7 940.2 270.4L940.2 270.4Q941.3 269.3 942.7 269.3L942.7 269.3Q944.0 269.3 944.8 270.0Q945.6 270.8 945.6 272.1L945.6 272.1Q945.6 272.9 945.1 273.9L945.1 273.9Q943.6 276.9 940.3 278.5Q937.0 280.2 932.5 280.2ZM924.8 261.0L924.8 261.0L939.3 261.0Q939.2 257.6 937.2 255.6Q935.2 253.5 932.1 253.5Q929.1 253.5 927.0 255.6Q925.0 257.7 924.8 261.0ZM962.7 280.1L962.7 280.1Q956.8 280.1 953.3 275.7Q949.8 271.4 949.8 264.0L949.8 264.0Q949.8 256.7 953.3 252.3Q956.8 248.0 962.7 248.0L962.7 248.0Q966.0 248.0 968.5 249.5Q971.1 251.1 972.3 253.7L972.3 253.7L972.5 253.7L972.5 240.6Q972.5 238.7 973.5 237.7Q974.5 236.7 976.1 236.7Q977.8 236.7 978.8 237.7Q979.8 238.7 979.8 240.6L979.8 240.6L979.8 276.5Q979.8 278.2 978.8 279.2Q977.8 280.2 976.2 280.2L976.2 280.2Q974.5 280.2 973.5 279.2Q972.5 278.2 972.5 276.5L972.5 276.5L972.5 274.1L972.3 274.1Q971.2 276.9 968.7 278.5Q966.2 280.1 962.7 280.1ZM964.9 274.1L964.9 274.1Q968.4 274.1 970.4 271.4Q972.5 268.7 972.5 264.1L972.5 264.1Q972.5 259.5 970.4 256.7Q968.4 254.0 964.9 254.0L964.9 254.0Q961.4 254.0 959.3 256.7Q957.3 259.4 957.3 264.1L957.3 264.1Q957.3 268.7 959.3 271.4Q961.4 274.1 964.9 274.1ZM996.8 280.1L996.8 280.1Q991.7 280.1 988.7 277.0Q985.8 274.0 985.8 268.6L985.8 268.6L985.8 251.7Q985.8 250.0 986.8 248.9Q987.8 247.9 989.4 247.9Q991.0 247.9 992.0 248.9Q993.1 250.0 993.1 251.8L993.1 251.8L993.1 267.1Q993.1 270.5 994.7 272.2Q996.3 274.0 999.3 274.0L999.3 274.0Q1002.5 274.0 1004.3 271.9Q1006.2 269.9 1006.2 266.5L1006.2 266.5L1006.2 251.7Q1006.2 250.0 1007.2 248.9Q1008.2 247.9 1009.8 247.9L1009.8 247.9Q1011.4 247.9 1012.4 248.9Q1013.4 250.0 1013.4 251.8L1013.4 251.8L1013.4 276.5Q1013.4 278.2 1012.5 279.2Q1011.5 280.2 1010.0 280.2L1010.0 280.2Q1008.3 280.2 1007.4 279.2Q1006.4 278.2 1006.4 276.5L1006.4 276.5L1006.4 274.2L1006.3 274.2Q1003.7 280.1 996.8 280.1ZM1025.9 279.2Q1024.9 280.2 1023.3 280.2Q1021.6 280.2 1020.6 279.2Q1019.6 278.1 1019.6 276.3L1019.6 276.3L1019.6 240.6Q1019.6 238.7 1020.6 237.7Q1021.6 236.7 1023.3 236.7Q1024.9 236.7 1025.9 237.7Q1026.9 238.7 1026.9 240.6L1026.9 240.6L1026.9 276.3Q1026.9 278.1 1025.9 279.2ZM1046.9 280.2L1046.9 280.2Q1039.8 280.2 1035.8 276.0Q1031.8 271.7 1031.8 264.2L1031.8 264.2Q1031.8 256.7 1035.8 252.3Q1039.8 247.9 1046.5 247.9L1046.5 247.9Q1052.9 247.9 1056.8 251.9Q1060.8 256.0 1060.8 262.4L1060.8 262.4Q1060.8 264.0 1059.9 264.9Q1059.0 265.8 1057.4 265.8L1057.4 265.8L1039.1 265.8L1039.1 266.0Q1039.1 269.9 1041.2 272.3Q1043.3 274.6 1046.8 274.6L1046.8 274.6Q1049.3 274.6 1051.1 273.6Q1052.9 272.7 1054.6 270.4L1054.6 270.4Q1055.7 269.3 1057.1 269.3L1057.1 269.3Q1058.3 269.3 1059.2 270.0Q1060 270.8 1060 272.1L1060 272.1Q1060 272.9 1059.5 273.9L1059.5 273.9Q1057.9 276.9 1054.6 278.5Q1051.3 280.2 1046.9 280.2ZM1039.1 261.0L1039.1 261.0L1053.6 261.0Q1053.5 257.6 1051.6 255.6Q1049.6 253.5 1046.5 253.5Q1043.4 253.5 1041.4 255.6Q1039.3 257.7 1039.1 261.0ZM1077.1 280.1L1077.1 280.1Q1071.2 280.1 1067.7 275.7Q1064.2 271.4 1064.2 264.0L1064.2 264.0Q1064.2 256.7 1067.7 252.3Q1071.2 248.0 1077.1 248.0L1077.1 248.0Q1080.4 248.0 1082.9 249.5Q1085.4 251.1 1086.7 253.7L1086.7 253.7L1086.9 253.7L1086.9 240.6Q1086.9 238.7 1087.9 237.7Q1088.9 236.7 1090.5 236.7Q1092.1 236.7 1093.1 237.7Q1094.2 238.7 1094.2 240.6L1094.2 240.6L1094.2 276.5Q1094.2 278.2 1093.2 279.2Q1092.2 280.2 1090.6 280.2L1090.6 280.2Q1088.9 280.2 1087.9 279.2Q1086.9 278.2 1086.9 276.5L1086.9 276.5L1086.9 274.1L1086.7 274.1Q1085.5 276.9 1083.1 278.5Q1080.6 280.1 1077.1 280.1ZM1079.3 274.1L1079.3 274.1Q1082.7 274.1 1084.8 271.4Q1086.9 268.7 1086.9 264.1L1086.9 264.1Q1086.9 259.5 1084.8 256.7Q1082.7 254.0 1079.3 254.0L1079.3 254.0Q1075.8 254.0 1073.7 256.7Q1071.7 259.4 1071.7 264.1L1071.7 264.1Q1071.7 268.7 1073.7 271.4Q1075.7 274.1 1079.3 274.1Z "/><defs><clipPath id="satori_bc-id-0-1"><rect x="0" y="441" width="1200" height="189"/></clipPath></defs><mask id="satori_om-id-0-1"><rect x="0" y="442" width="1200" height="188" fill="#fff"/><path width="1200" height="189" fill="none" stroke="#000" stroke-width="2" d="M0,441 A0,0 0 0 1 0,441 h1200 A0,0 0 0 1 1200,441"/></mask><path width="1200" height="189" clip-path="url(#satori_bc-id-0-1)" fill="none" stroke="#dbdbdb" stroke-width="2" d="M0,441 A0,0 0 0 1 0,441 h1200 A0,0 0 0 1 1200,441"/><mask id="satori_om-id-0-1-0"><rect x="40" y="482" width="292" height="108" fill="#fff"/></mask><clipPath id="satori_cp-id-0-1-0-0"><rect x="40" y="504" width="64" height="64"/></clipPath><mask id="satori_om-id-0-1-0-0"><rect x="40" y="504" width="64" height="64" fill="#fff"/></mask><image x="40" y="504" width="64" height="64" href="data:image/svg+xml;utf8,%3Csvg  xmlns=%22http://www.w3.org/2000/svg%22 width=%2264%22 height=%2264%22 viewBox=%220 0 128 128%22%3E%3Cpath fill=%22%23224d67%22 d=%22M22.5 14.8c2.9 1.3 99 44 99 44c2.7 1.2 2.9 3.1 2 12.4c-1 10.5-1.9 37.8-40.2 42.9c-24.6 3.2-55.9-4.3-70.9-27.2C-6 58.8 11 23.4 14.8 17.7c2.4-3.5 4.8-4.2 7.7-2.9%22%3E%3C/path%3E%3Cpath fill=%22%23f0f4c3%22 d=%22M121.5 58.8c-.3-.2-92-40.8-98.9-43.9C9.6 31.5-3.8 76 27.9 96.2c33.6 21.5 78.7-10.2 93.6-37.4%22%3E%3C/path%3E%3Cpath fill=%22%23f0f4c3%22 d=%22M117.7 57c-.3-.2-86.7-38.4-93.2-41.3c-12.2 15.5-23.9 59.1 5.7 78c31.4 20.2 73.6-11.2 87.5-36.7%22%3E%3C/path%3E%3Cpath fill=%22%23cb2a42%22 d=%22M56.2 37.6L19.5 48.2c-2.5.8-4.4 2.8-5 5.3c-1.9 8.5.8 23.3 8.9 29.8c3.5 2.7 8.6 1.8 10.8-2.1L58.5 41c1.3-1.7.5-4.2-2.3-3.4m14.3 2.9s14.6 30.1 16 33s6.3 4.7 9.9 2.8c10.7-5.6 15.5-12.4 19.2-20.2c-8.9-3.9-42.4-18.8-42.4-18.8c-2.4-1.1-4 .6-2.7 3.2m-8.6 1.9C60.3 45.1 39.5 81 37.6 84.1c-1.9 3.2-.7 7.5 2.7 9.2c12.3 6.5 30.9.4 39.6-7c2.2-1.9 4.5-5.1 3.2-8.2S68.9 44.6 67.8 42.3c-1.2-2.7-4.1-2.8-5.9.1%22%3E%3C/path%3E%3Cpath fill=%22%23f0f4c3%22 d=%22M52.2 42.2c-1.4.4-10.1 3-11.1 3.4c-1.4.5-2.2 1.7-1.9 2.5c.3.9 1.7 1.1 3.1.6c.8-.3 7.1-3.9 9.5-5.2c-3.1 2.4-10.2 9.4-11.1 10.3c-1.4 1.5-1.7 3.4-.8 4.3c1 .9 2.9.5 4.3-1c1.2-1.3 8.5-12.8 9.1-13.9s.4-1.4-1.1-1m10.1 16.4c0-2.2 1.4-10.3 1.8-12.3c.4-1.6 1.5-1.8 1.8.5s1.7 9.7 1.7 11.8s-1.2 3.3-2.7 3.3c-1.4 0-2.6-1.1-2.6-3.3M79.9 49c-1.2-1.8-3.3-4.9-4.1-6.1c-.7-1.2.1-2.1 1.8-.9s4 2.9 5.4 4c1.6 1.3 1.9 3 .8 4s-2.7.8-3.9-1%22%3E%3C/path%3E%3Cellipse cx=%2287.3%22 cy=%22103.12%22 fill=%22%23cb2a42%22 rx=%223.4%22 ry=%222.3%22 transform=%22rotate(-27.098 87.298 103.126)%22%3E%3C/ellipse%3E%3Cellipse cx=%2298.89%22 cy=%22103.82%22 fill=%22%23cb2a42%22 rx=%223.4%22 ry=%222.3%22 transform=%22rotate(-30.642 98.887 103.818)%22%3E%3C/ellipse%3E%3Cellipse cx=%22102.02%22 cy=%2293.8%22 fill=%22%23cb2a42%22 rx=%223.4%22 ry=%222.3%22 transform=%22rotate(-37.16 102.017 93.797)%22%3E%3C/ellipse%3E%3Cpath fill=%22%23cb2a42%22 d=%22M57.6 30.3c-8.3-3.7-24.4-10.7-29.6-13c-3.6 2.2-9.7 11.4-11.2 21.2c-.6 3.6 1.7 5.9 5.3 4.9c0 0 33.7-9.3 35.3-9.7c1.6-.5 2-2.6.2-3.4%22%3E%3C/path%3E%3C/svg%3E" preserveAspectRatio="none" clip-path="url(#satori_cp-id-0-1-0-0)" mask="url(#satori_om-id-0-1-0-0)"/><mask id="satori_om-id-0-1-0-0-0"><rect x="40" y="504" width="0" height="64" fill="#fff"/></mask><mask id="satori_om-id-0-1-0-0-1"><rect x="40" y="504" width="0" height="64" fill="#fff"/></mask><mask id="satori_om-id-0-1-0-0-2"><rect x="40" y="504" width="0" height="64" fill="#fff"/></mask><mask id="satori_om-id-0-1-0-0-3"><rect x="40" y="504" width="0" height="64" fill="#fff"/></mask><mask id="satori_om-id-0-1-0-0-4"><rect x="40" y="504" width="0" height="64" fill="#fff"/></mask><mask id="satori_om-id-0-1-0-0-5"><rect x="40" y="504" width="0" height="64" fill="#fff"/></mask><mask id="satori_om-id-0-1-0-0-6"><rect x="40" y="504" width="0" height="64" fill="#fff"/></mask><mask id="satori_om-id-0-1-0-0-7"><rect x="40" y="504" width="0" height="64" fill="#fff"/></mask><mask id="satori_om-id-0-1-0-0-8"><rect x="40" y="504" width="0" height="64" fill="#fff"/></mask><mask id="satori_om-id-0-1-0-1"><rect x="116" y="512" width="216" height="48" fill="#fff"/></mask><path fill="#545454" d="M121.1 553.5L121.1 553.5Q119.4 553.5 118.4 552.6Q117.5 551.7 117.5 550.2L117.5 550.2Q117.5 549.3 117.9 547.9L117.9 547.9L127.2 522.8Q127.9 520.7 129.2 519.7Q130.5 518.8 132.5 518.8L132.5 518.8Q134.6 518.8 135.9 519.7Q137.2 520.7 137.9 522.8L137.9 522.8L147.2 547.9Q147.6 549.2 147.6 550.2L147.6 550.2Q147.6 551.6 146.6 552.6Q145.6 553.5 144.1 553.5L144.1 553.5Q142.6 553.5 141.7 552.8Q140.9 552.1 140.4 550.4L140.4 550.4L138.6 545.0L126.4 545.0L124.6 550.3Q124.2 552.0 123.3 552.8Q122.5 553.5 121.1 553.5ZM132.4 525.7L128.0 539.6L137 539.6L132.5 525.7L132.4 525.7ZM159.1 552.6Q158.2 553.6 156.6 553.6Q155.0 553.6 154.1 552.6Q153.2 551.7 153.2 550.0L153.2 550.0L153.2 533.1L151.9 533.1Q150.8 533.1 150.1 532.4Q149.4 531.7 149.4 530.6Q149.4 529.4 150.1 528.7Q150.8 528.1 151.9 528.1L151.9 528.1L153.2 528.1L153.2 526.2Q153.2 522.5 155.0 520.7Q156.7 519.0 160.3 518.9L160.3 518.9Q163.0 518.9 164.2 519.7Q165.5 520.4 165.5 521.7L165.5 521.7Q165.5 523.1 164.1 523.5L164.1 523.5Q163.5 523.7 162.8 523.7L162.8 523.7Q161.2 523.7 160.5 524.4Q159.9 525.1 159.9 526.5L159.9 526.5L159.9 528.1L162.7 528.1Q163.8 528.1 164.5 528.7Q165.2 529.4 165.2 530.6Q165.2 531.7 164.5 532.4Q163.8 533.1 162.7 533.1L162.7 533.1L160.0 533.1L160.0 550.0Q160.0 551.7 159.1 552.6ZM170.3 546.6L170.3 546.6L170.3 533.1L168.9 533.1Q167.7 533.1 167.0 532.4Q166.3 531.7 166.3 530.5Q166.3 529.3 167.0 528.6Q167.7 527.9 168.9 527.9L168.9 527.9L170.3 527.9L170.3 525.1Q170.3 523.5 171.2 522.5Q172.1 521.6 173.7 521.6Q175.3 521.6 176.2 522.5Q177.1 523.5 177.1 525.1L177.1 525.1L177.1 527.9L179.5 527.9Q180.7 527.9 181.4 528.6Q182.1 529.3 182.1 530.5Q182.1 531.7 181.4 532.4Q180.7 533.1 179.5 533.1L179.5 533.1L177.1 533.1L177.1 545.1Q177.1 546.5 177.6 547.1Q178.1 547.7 179.2 547.8L179.2 547.8L179.6 547.8Q180.9 548.0 181.6 548.5Q182.2 549.1 182.2 550.3L182.2 550.3Q182.2 551.8 180.9 552.6Q179.6 553.3 177.4 553.3L177.4 553.3L177.1 553.3Q170.3 553.3 170.3 546.6ZM197.0 553.6L197.0 553.6Q191.2 553.6 187.9 550.2Q184.6 546.7 184.6 540.6L184.6 540.6Q184.6 534.5 187.9 531.0Q191.1 527.4 196.7 527.4L196.7 527.4Q202.0 527.4 205.3 530.7Q208.6 533.9 208.6 539.1L208.6 539.1Q208.6 540.5 207.9 541.3Q207.1 542.1 205.6 542.1L205.6 542.1L191.3 542.1L191.3 542.4Q191.3 545.2 192.9 546.9Q194.4 548.5 197.0 548.5L197.0 548.5Q198.9 548.5 200.3 547.8Q201.6 547.2 203.0 545.5L203.0 545.5Q204.0 544.5 205.3 544.5L205.3 544.5Q206.4 544.5 207.2 545.2Q207.9 545.9 207.9 547.0L207.9 547.0Q207.9 547.8 207.5 548.7L207.5 548.7Q206.2 551 203.4 552.3Q200.7 553.6 197.0 553.6ZM191.4 537.9L191.4 537.9L202.0 537.9Q201.9 535.4 200.5 533.9Q199.0 532.5 196.8 532.5Q194.5 532.5 193.1 534.0Q191.6 535.5 191.4 537.9ZM215.6 553.6L215.6 553.6Q214.0 553.6 213.1 552.6Q212.1 551.7 212.1 550.0L212.1 550.0L212.1 530.9Q212.1 529.3 213.0 528.3Q213.9 527.4 215.4 527.4L215.4 527.4Q216.9 527.4 217.8 528.3Q218.7 529.3 218.7 530.9L218.7 530.9L218.7 532.5L218.8 532.5Q219.3 530.2 220.7 528.9Q222.1 527.5 224.0 527.5L224.0 527.5Q225.4 527.5 226.2 528.2L226.2 528.2Q227.2 528.9 227.2 530.7L227.2 530.7Q227.2 532.3 226.2 533.2L226.2 533.2Q225.2 534.0 223.2 534.1L223.2 534.1Q221.0 534.1 220.0 535.3Q219.0 536.5 219.0 538.8L219.0 538.8L219.0 550.0Q219.0 551.7 218.1 552.6Q217.2 553.6 215.6 553.6ZM242.6 553.6L242.6 553.6Q237.5 553.6 234.1 551.8Q230.8 550.0 229.7 547.1L229.7 547.1Q229.4 546.1 229.4 545.2L229.4 545.2Q229.4 543.8 230.2 543.0Q231.1 542.1 232.5 542.1L232.5 542.1Q233.6 542.1 234.3 542.6Q235.1 543.1 235.7 544.2L235.7 544.2Q236.5 546.1 238.4 547.0Q240.2 547.9 242.7 547.9L242.7 547.9Q245.6 547.9 247.3 546.7Q249.1 545.5 249.1 543.6L249.1 543.6Q249.1 541.9 247.8 540.9Q246.4 539.9 243.3 539.3L243.3 539.3L239.7 538.6Q229.6 536.6 229.6 528.9L229.6 528.9Q229.6 525.9 231.3 523.5Q232.9 521.2 235.9 519.9Q238.8 518.7 242.5 518.7L242.5 518.7Q247.2 518.7 250.5 520.5Q253.8 522.4 254.9 525.7L254.9 525.7Q255.1 526.4 255.1 527.2L255.1 527.2Q255.1 528.5 254.3 529.3Q253.5 530.1 252.1 530.1L252.1 530.1Q250.9 530.1 250.1 529.6Q249.4 529.1 248.8 528.0L248.8 528.0Q247.2 524.4 242.5 524.4L242.5 524.4Q239.9 524.4 238.3 525.5Q236.7 526.6 236.7 528.5L236.7 528.5Q236.7 530.1 238.1 531.1Q239.4 532.1 242.4 532.7L242.4 532.7L245.9 533.4Q251.3 534.5 253.7 536.7Q256.2 539.0 256.2 542.8L256.2 542.8Q256.2 547.8 252.5 550.7Q248.9 553.6 242.6 553.6ZM266.0 552.6Q265.0 553.6 263.5 553.6Q261.9 553.6 261.0 552.6Q260.1 551.7 260.1 550.0L260.1 550.0L260.1 522.2Q260.1 520.6 261.0 519.7Q261.9 518.7 263.4 518.7L263.4 518.7Q265.0 518.7 265.9 519.7Q266.8 520.6 266.8 522.2L266.8 522.2L266.8 532.4L266.9 532.4Q267.9 530.0 270.0 528.7Q272 527.5 274.8 527.5L274.8 527.5Q279.0 527.5 281.3 530.0Q283.6 532.5 283.6 536.9L283.6 536.9L283.6 550.0Q283.6 551.7 282.7 552.6Q281.7 553.6 280.2 553.6Q278.6 553.6 277.7 552.6Q276.8 551.7 276.8 550.0L276.8 550.0L276.8 538.3Q276.8 535.9 275.6 534.5Q274.3 533.1 272.0 533.1L272.0 533.1Q269.7 533.1 268.3 534.7Q266.9 536.2 266.9 538.7L266.9 538.7L266.9 550.0Q266.9 551.7 266.0 552.6ZM294.1 523.8Q293.0 524.8 291.5 524.8Q290.0 524.8 288.9 523.8Q287.8 522.8 287.8 521.3L287.8 521.3Q287.8 519.8 288.9 518.8Q290.0 517.7 291.5 517.7Q293.0 517.7 294.1 518.8Q295.2 519.8 295.2 521.3L295.2 521.3Q295.2 522.8 294.1 523.8ZM294.0 552.6Q293.1 553.6 291.5 553.6Q289.9 553.6 289.0 552.6Q288.1 551.7 288.1 550.0L288.1 550.0L288.1 531.0Q288.1 529.3 289.0 528.4Q289.9 527.4 291.5 527.4Q293.1 527.4 294.0 528.4Q294.9 529.3 294.9 531.0L294.9 531.0L294.9 550.0Q294.9 551.7 294.0 552.6ZM307.2 552.6Q306.3 553.6 304.7 553.6Q303.1 553.6 302.2 552.6Q301.3 551.7 301.3 550.0L301.3 550.0L301.3 533.1L300.0 533.1Q298.9 533.1 298.2 532.4Q297.5 531.7 297.5 530.6Q297.5 529.4 298.2 528.7Q298.9 528.1 300.0 528.1L300.0 528.1L301.3 528.1L301.3 526.2Q301.3 522.5 303.1 520.7Q304.9 519.0 308.5 518.9L308.5 518.9Q311.1 518.9 312.4 519.7Q313.6 520.4 313.6 521.7L313.6 521.7Q313.6 523.1 312.2 523.5L312.2 523.5Q311.6 523.7 310.9 523.7L310.9 523.7Q309.4 523.7 308.7 524.4Q308.0 525.1 308.0 526.5L308.0 526.5L308.0 528.1L310.9 528.1Q312.0 528.1 312.7 528.7Q313.4 529.4 313.4 530.6Q313.4 531.7 312.7 532.4Q312.0 533.1 310.9 533.1L310.9 533.1L308.1 533.1L308.1 550.0Q308.1 551.7 307.2 552.6ZM318.4 546.6L318.4 546.6L318.4 533.1L317.1 533.1Q315.9 533.1 315.1 532.4Q314.4 531.7 314.4 530.5Q314.4 529.3 315.1 528.6Q315.9 527.9 317.1 527.9L317.1 527.9L318.4 527.9L318.4 525.1Q318.4 523.5 319.3 522.5Q320.2 521.6 321.8 521.6Q323.4 521.6 324.3 522.5Q325.2 523.5 325.2 525.1L325.2 525.1L325.2 527.9L327.6 527.9Q328.9 527.9 329.6 528.6Q330.3 529.3 330.3 530.5Q330.3 531.7 329.6 532.4Q328.9 533.1 327.6 533.1L327.6 533.1L325.2 533.1L325.2 545.1Q325.2 546.5 325.7 547.1Q326.2 547.7 327.3 547.8L327.3 547.8L327.8 547.8Q329.1 548.0 329.7 548.5Q330.4 549.1 330.4 550.3L330.4 550.3Q330.4 551.8 329.0 552.6Q327.7 553.3 325.5 553.3L325.5 553.3L325.3 553.3Q318.4 553.3 318.4 546.6Z "/><mask id="satori_om-id-0-1-1"><rect x="924" y="524" width="236" height="36" fill="#fff"/></mask><path fill="#8e8e8e" d="M927.9 552.6Q927.5 552.9 927.0 552.9Q926.4 552.9 926.1 552.6Q925.8 552.2 925.8 551.7L925.8 551.7L925.8 532.6Q925.8 532.0 926.1 531.6Q926.5 531.3 927.1 531.3Q927.6 531.3 928.0 531.6Q928.3 532.0 928.3 532.6L928.3 532.6L928.3 540.0L928.4 540.0Q929.1 538.7 930.4 537.9Q931.7 537.2 933.3 537.2L933.3 537.2Q936.2 537.2 937.9 539.3Q939.7 541.5 939.7 545.0L939.7 545.0Q939.7 548.6 937.9 550.8Q936.2 552.9 933.2 552.9L933.2 552.9Q931.6 552.9 930.3 552.2Q929.0 551.4 928.3 550.1L928.3 550.1L928.2 550.1L928.2 551.7Q928.2 552.2 927.9 552.6ZM932.7 550.7L932.7 550.7Q934.8 550.7 935.9 549.2Q937.1 547.7 937.1 545.0L937.1 545.0Q937.1 542.5 935.9 540.9Q934.8 539.4 932.7 539.4L932.7 539.4Q930.8 539.4 929.6 541.0Q928.3 542.5 928.3 545.0L928.3 545.0Q928.3 547.6 929.6 549.1Q930.8 550.7 932.7 550.7ZM943.8 558.4L943.8 558.4Q942.9 558.4 942.4 558.0Q941.9 557.7 941.9 557.1L941.9 557.1Q941.9 556.7 942.1 556.4Q942.4 556.2 942.9 556.2L942.9 556.2Q943.1 556.2 943.3 556.2Q943.5 556.2 943.7 556.2L943.7 556.2Q945.4 556.2 946.2 553.7L946.2 553.7L946.6 552.7L941.3 539.0Q941.2 538.6 941.2 538.3L941.2 538.3Q941.2 537.8 941.6 537.5Q941.9 537.2 942.5 537.2L942.5 537.2Q943.4 537.2 943.7 538.1L943.7 538.1L947.9 550.1L948.0 550.1L952.2 538.1Q952.3 537.6 952.6 537.4Q952.9 537.2 953.4 537.2L953.4 537.2Q953.9 537.2 954.3 537.5Q954.6 537.8 954.6 538.3L954.6 538.3Q954.6 538.6 954.5 539.0L954.5 539.0L948.9 553.7Q947.9 556.4 946.8 557.4Q945.7 558.4 943.8 558.4Z M965.7 552.5Q965.3 552.9 964.7 552.9Q964.1 552.9 963.8 552.5Q963.4 552.1 963.4 551.5L963.4 551.5L963.4 532.9Q963.4 532.3 963.8 531.9Q964.1 531.5 964.7 531.5L964.7 531.5L970.9 531.5Q973.9 531.5 975.8 533.4Q977.7 535.3 977.7 538.3L977.7 538.3Q977.7 541.3 975.8 543.2Q973.9 545.1 970.9 545.1L970.9 545.1L966.0 545.1L966.0 551.5Q966.0 552.1 965.7 552.5ZM966.0 533.9L966.0 542.8L970.3 542.8Q972.5 542.8 973.8 541.6Q975.0 540.4 975.0 538.3Q975.0 536.2 973.8 535.0Q972.5 533.9 970.3 533.9L970.3 533.9L966.0 533.9ZM984.8 552.9L984.8 552.9Q982.5 552.9 981.1 551.7Q979.7 550.4 979.7 548.4L979.7 548.4Q979.7 546.4 981.2 545.2Q982.6 544.1 985.2 543.9L985.2 543.9L989.6 543.7L989.6 542.4Q989.6 541.0 988.7 540.2Q987.9 539.4 986.3 539.4L986.3 539.4Q985.0 539.4 984.1 539.9Q983.3 540.4 982.6 541.5L982.6 541.5Q982.3 542.1 981.6 542.1L981.6 542.1Q981.1 542.1 980.8 541.8Q980.5 541.5 980.5 541.0Q980.5 540.5 980.8 539.9L980.8 539.9Q981.4 538.7 982.9 537.9Q984.5 537.2 986.3 537.2L986.3 537.2Q989.0 537.2 990.6 538.5Q992.2 539.9 992.2 542.1L992.2 542.1L992.2 551.6Q992.2 552.2 991.8 552.6Q991.5 552.9 991.0 552.9L991.0 552.9Q990.4 552.9 990.1 552.6Q989.7 552.2 989.7 551.6L989.7 551.6L989.7 550.0L989.7 550.0Q989.0 551.3 987.7 552.1Q986.3 552.9 984.8 552.9ZM985.3 550.8L985.3 550.8Q987.1 550.8 988.4 549.6Q989.6 548.5 989.6 546.9L989.6 546.9L989.6 545.6L985.5 545.9Q984.0 546.0 983.1 546.6Q982.3 547.3 982.3 548.4Q982.3 549.4 983.1 550.1Q984.0 550.8 985.3 550.8ZM996.2 549.1L996.2 549.1L996.2 539.5L994.9 539.5Q994.4 539.5 994.1 539.3Q993.8 539.0 993.8 538.5L993.8 538.5Q993.8 538.0 994.1 537.7Q994.4 537.4 994.9 537.4L994.9 537.4L996.2 537.4L996.2 534.8Q996.2 534.2 996.6 533.8Q996.9 533.5 997.5 533.5Q998.0 533.5 998.4 533.8Q998.8 534.2 998.8 534.8L998.8 534.8L998.8 537.4L1000.7 537.4Q1001.3 537.4 1001.6 537.7Q1001.9 538.0 1001.9 538.5L1001.9 538.5Q1001.9 539.0 1001.6 539.3Q1001.3 539.5 1000.7 539.5L1000.7 539.5L998.8 539.5L998.8 548.6Q998.8 549.6 999.2 550.0Q999.6 550.5 1000.5 550.6L1000.5 550.6L1000.7 550.6Q1001.9 550.7 1001.9 551.6L1001.9 551.6Q1001.9 552.2 1001.5 552.5Q1001.1 552.8 1000.1 552.8L1000.1 552.8L999.9 552.8Q996.2 552.8 996.2 549.1ZM1006.6 552.5Q1006.3 552.9 1005.7 552.9Q1005.2 552.9 1004.8 552.5Q1004.4 552.2 1004.4 551.6L1004.4 551.6L1004.4 538.5Q1004.4 537.9 1004.8 537.5Q1005.1 537.2 1005.6 537.2Q1006.2 537.2 1006.5 537.5Q1006.8 537.9 1006.8 538.5L1006.8 538.5L1006.8 539.9L1006.9 539.9Q1007.2 538.7 1008.2 537.9Q1009.2 537.2 1010.4 537.2L1010.4 537.2Q1011.2 537.2 1011.6 537.5L1011.6 537.5Q1011.9 537.8 1011.9 538.4L1011.9 538.4Q1011.9 539.0 1011.5 539.3L1011.5 539.3Q1011.1 539.6 1010.3 539.6L1010.3 539.6Q1008.6 539.6 1007.8 540.6Q1007.0 541.6 1007.0 543.2L1007.0 543.2L1007.0 551.6Q1007.0 552.2 1006.6 552.5ZM1015.1 534.9L1015.1 534.9Q1014.4 534.9 1014.0 534.4Q1013.5 533.9 1013.5 533.3L1013.5 533.3Q1013.5 532.6 1014.0 532.2Q1014.4 531.7 1015.1 531.7L1015.1 531.7Q1015.7 531.7 1016.2 532.2Q1016.7 532.6 1016.7 533.3L1016.7 533.3Q1016.7 533.9 1016.2 534.4Q1015.7 534.9 1015.1 534.9ZM1016.0 552.5Q1015.6 552.9 1015.1 552.9Q1014.5 552.9 1014.2 552.5Q1013.8 552.2 1013.8 551.6L1013.8 551.6L1013.8 538.5Q1013.8 537.9 1014.2 537.5Q1014.5 537.2 1015.1 537.2Q1015.6 537.2 1016.0 537.5Q1016.4 537.9 1016.4 538.5L1016.4 538.5L1016.4 551.6Q1016.4 552.2 1016.0 552.5ZM1026.1 552.9L1026.1 552.9Q1022.9 552.9 1021.0 550.8Q1019.1 548.7 1019.1 545.1Q1019.1 541.5 1021.0 539.3Q1022.9 537.2 1026.1 537.2L1026.1 537.2Q1028.2 537.2 1029.9 538.2Q1031.6 539.3 1032.0 540.9L1032.0 540.9Q1032.1 541.2 1032.1 541.4L1032.1 541.4Q1032.1 542.0 1031.8 542.3Q1031.5 542.6 1031.0 542.6L1031.0 542.6Q1030.6 542.6 1030.3 542.4Q1030.1 542.2 1029.8 541.7L1029.8 541.7Q1028.6 539.4 1026.1 539.4L1026.1 539.4Q1024.1 539.4 1022.9 541.0Q1021.6 542.5 1021.6 545.0L1021.6 545.0Q1021.6 547.6 1022.9 549.2Q1024.1 550.7 1026.1 550.7L1026.1 550.7Q1027.4 550.7 1028.3 550.1Q1029.2 549.6 1029.8 548.4L1029.8 548.4Q1030.1 547.9 1030.3 547.7Q1030.6 547.5 1031.0 547.5L1031.0 547.5Q1031.5 547.5 1031.8 547.8Q1032.1 548.2 1032.1 548.7L1032.1 548.7Q1032.1 548.9 1032.0 549.3L1032.0 549.3Q1031.4 550.9 1029.8 551.9Q1028.2 552.9 1026.1 552.9ZM1041.2 552.9L1041.2 552.9Q1037.8 552.9 1036.0 550.9Q1034.1 548.8 1034.1 545.1L1034.1 545.1Q1034.1 541.5 1036.0 539.3Q1037.8 537.2 1041.0 537.2L1041.0 537.2Q1043.9 537.2 1045.8 539.1Q1047.6 541.1 1047.6 544.3L1047.6 544.3Q1047.6 544.9 1047.3 545.3Q1046.9 545.7 1046.2 545.7L1046.2 545.7L1036.7 545.7Q1036.7 548.0 1037.9 549.4Q1039.1 550.7 1041.1 550.7L1041.1 550.7Q1042.5 550.7 1043.4 550.2Q1044.3 549.6 1045.2 548.3L1045.2 548.3Q1045.6 547.8 1046.2 547.8L1046.2 547.8Q1046.7 547.8 1047.0 548.1Q1047.3 548.4 1047.3 548.9L1047.3 548.9Q1047.3 549.2 1047.1 549.7L1047.1 549.7Q1046.4 551.2 1044.8 552.1Q1043.3 552.9 1041.2 552.9ZM1036.7 543.7L1036.7 543.7L1045.0 543.7Q1045.0 541.8 1043.8 540.6Q1042.7 539.4 1041.0 539.4L1041.0 539.4Q1039.2 539.4 1038.0 540.6Q1036.8 541.8 1036.7 543.7Z M1059.0 552.5Q1058.7 552.9 1058.1 552.9Q1057.5 552.9 1057.1 552.5Q1056.7 552.1 1056.7 551.5L1056.7 551.5L1056.7 532.7Q1056.7 532.1 1057.1 531.7Q1057.5 531.3 1058.1 531.3Q1058.7 531.3 1059.0 531.7Q1059.4 532.1 1059.4 532.7L1059.4 532.7L1059.4 541.8L1059.5 541.8L1068.9 531.8Q1069.4 531.3 1070.0 531.3L1070.0 531.3Q1070.5 531.3 1070.9 531.7Q1071.2 532.0 1071.2 532.5L1071.2 532.5Q1071.2 533.0 1070.9 533.3L1070.9 533.3L1063.6 540.9L1071.7 550.6Q1072.1 551.1 1072.1 551.6L1072.1 551.6Q1072.1 552.2 1071.7 552.5Q1071.3 552.9 1070.8 552.9L1070.8 552.9Q1070.1 552.9 1069.6 552.2L1069.6 552.2L1061.7 542.8L1059.4 545.3L1059.4 551.5Q1059.4 552.1 1059.0 552.5ZM1081.2 552.9L1081.2 552.9Q1077.8 552.9 1075.9 550.9Q1074.1 548.8 1074.1 545.1L1074.1 545.1Q1074.1 541.5 1075.9 539.3Q1077.8 537.2 1081.0 537.2L1081.0 537.2Q1083.9 537.2 1085.8 539.1Q1087.6 541.1 1087.6 544.3L1087.6 544.3Q1087.6 544.9 1087.2 545.3Q1086.9 545.7 1086.2 545.7L1086.2 545.7L1076.7 545.7Q1076.7 548.0 1077.9 549.4Q1079.1 550.7 1081.1 550.7L1081.1 550.7Q1082.5 550.7 1083.4 550.2Q1084.3 549.6 1085.2 548.3L1085.2 548.3Q1085.6 547.8 1086.2 547.8L1086.2 547.8Q1086.7 547.8 1087.0 548.1Q1087.3 548.4 1087.3 548.9L1087.3 548.9Q1087.3 549.2 1087.1 549.7L1087.1 549.7Q1086.4 551.2 1084.8 552.1Q1083.3 552.9 1081.2 552.9ZM1076.7 543.7L1076.7 543.7L1085.0 543.7Q1084.9 541.8 1083.8 540.6Q1082.7 539.4 1080.9 539.4L1080.9 539.4Q1079.1 539.4 1078.0 540.6Q1076.8 541.8 1076.7 543.7ZM1092.4 552.5Q1092.0 552.9 1091.4 552.9Q1090.9 552.9 1090.5 552.5Q1090.2 552.2 1090.2 551.6L1090.2 551.6L1090.2 538.5Q1090.2 537.9 1090.5 537.5Q1090.8 537.2 1091.4 537.2Q1091.9 537.2 1092.2 537.5Q1092.6 537.9 1092.6 538.5L1092.6 538.5L1092.6 539.9L1092.6 539.9Q1093.3 538.6 1094.5 537.9Q1095.8 537.2 1097.5 537.2L1097.5 537.2Q1100.0 537.2 1101.3 538.7Q1102.7 540.2 1102.7 542.8L1102.7 542.8L1102.7 551.6Q1102.7 552.2 1102.4 552.5Q1102.0 552.9 1101.5 552.9Q1100.9 552.9 1100.6 552.5Q1100.2 552.2 1100.2 551.6L1100.2 551.6L1100.2 543.2Q1100.2 541.4 1099.3 540.4Q1098.4 539.4 1096.7 539.4L1096.7 539.4Q1094.9 539.4 1093.8 540.6Q1092.7 541.8 1092.7 543.7L1092.7 543.7L1092.7 551.6Q1092.7 552.2 1092.4 552.5ZM1108.2 552.5Q1107.8 552.9 1107.3 552.9Q1106.7 552.9 1106.3 552.5Q1106.0 552.2 1106.0 551.6L1106.0 551.6L1106.0 538.5Q1106.0 537.9 1106.3 537.5Q1106.7 537.2 1107.2 537.2Q1107.7 537.2 1108.0 537.5Q1108.4 537.9 1108.4 538.5L1108.4 538.5L1108.4 539.9L1108.4 539.9Q1109.0 538.6 1110.1 537.9Q1111.3 537.2 1112.8 537.2L1112.8 537.2Q1114.3 537.2 1115.4 537.9Q1116.5 538.7 1117.0 540.1L1117.0 540.1L1117.1 540.1Q1117.7 538.7 1119.0 537.9Q1120.3 537.2 1121.9 537.2L1121.9 537.2Q1124.1 537.2 1125.5 538.5Q1126.8 539.9 1126.8 542.1L1126.8 542.1L1126.8 551.6Q1126.8 552.2 1126.5 552.5Q1126.1 552.9 1125.6 552.9Q1125.0 552.9 1124.6 552.5Q1124.3 552.2 1124.3 551.6L1124.3 551.6L1124.3 542.7Q1124.3 541.2 1123.5 540.3Q1122.6 539.4 1121.1 539.4Q1119.6 539.4 1118.6 540.4Q1117.7 541.4 1117.7 543.0L1117.7 543.0L1117.7 551.6Q1117.7 552.2 1117.3 552.5Q1117.0 552.9 1116.4 552.9Q1115.8 552.9 1115.5 552.5Q1115.1 552.2 1115.1 551.6L1115.1 551.6L1115.1 542.5Q1115.1 541.1 1114.3 540.2Q1113.4 539.4 1112.0 539.4L1112.0 539.4Q1110.5 539.4 1109.5 540.5Q1108.5 541.5 1108.5 543.1L1108.5 543.1L1108.5 551.6Q1108.5 552.2 1108.2 552.5ZM1136.4 552.9L1136.4 552.9Q1133.2 552.9 1131.3 550.8Q1129.3 548.7 1129.3 545.0Q1129.3 541.4 1131.3 539.3Q1133.2 537.2 1136.4 537.2L1136.4 537.2Q1139.6 537.2 1141.5 539.3Q1143.4 541.4 1143.4 545.0L1143.4 545.0Q1143.4 548.7 1141.5 550.8Q1139.6 552.9 1136.4 552.9ZM1133.1 549.2Q1134.3 550.7 1136.4 550.7Q1138.4 550.7 1139.6 549.2Q1140.8 547.7 1140.8 545.0Q1140.8 542.4 1139.6 540.9Q1138.4 539.4 1136.4 539.4Q1134.3 539.4 1133.1 540.9Q1131.9 542.4 1131.9 545.0Q1131.9 547.7 1133.1 549.2ZM1152.5 535.6L1152.5 535.6Q1152.1 535.6 1151.9 535.4Q1151.6 535.2 1151.6 534.8Q1151.6 534.5 1151.8 534.2L1151.8 534.2L1154.0 531.1Q1154.3 530.6 1154.6 530.5Q1154.8 530.3 1155.1 530.3L1155.1 530.3Q1155.6 530.3 1155.9 530.6Q1156.2 530.9 1156.2 531.3L1156.2 531.3Q1156.2 531.7 1155.9 532.1L1155.9 532.1L1153.4 535.1Q1153.0 535.6 1152.5 535.6ZM1152.4 552.9L1152.4 552.9Q1149.0 552.9 1147.1 550.9Q1145.3 548.8 1145.3 545.1L1145.3 545.1Q1145.3 541.5 1147.1 539.3Q1149.0 537.2 1152.2 537.2L1152.2 537.2Q1155.1 537.2 1156.9 539.1Q1158.8 541.1 1158.8 544.3L1158.8 544.3Q1158.8 544.9 1158.4 545.3Q1158.1 545.7 1157.4 545.7L1157.4 545.7L1147.9 545.7Q1147.9 548.0 1149.1 549.4Q1150.2 550.7 1152.3 550.7L1152.3 550.7Q1153.6 550.7 1154.6 550.2Q1155.5 549.6 1156.4 548.3L1156.4 548.3Q1156.8 547.8 1157.3 547.8L1157.3 547.8Q1157.9 547.8 1158.2 548.1Q1158.5 548.4 1158.5 548.9L1158.5 548.9Q1158.5 549.2 1158.3 549.7L1158.3 549.7Q1157.6 551.2 1156.0 552.1Q1154.5 552.9 1152.4 552.9ZM1147.9 543.7L1147.9 543.7L1156.2 543.7Q1156.1 541.8 1155.0 540.6Q1153.9 539.4 1152.1 539.4L1152.1 539.4Q1150.3 539.4 1149.2 540.6Q1148.0 541.8 1147.9 543.7Z "/></svg>