<svg width="1200" height="630" viewBox="0 0 1200 630" xmlns="http://www.w3.org/2000/svg"><mask id="satori_om-id"><rect x="0" y="0" width="1200" height="630" fill="#fff"/></mask><mask id="satori_om-id-0"><rect x="0" y="0" width="1200" height="630" fill="#fff"/></mask><rect x="0" y="0" width="1200" height="630" fill="#f2f2f2"/><mask id="satori_om-id-0-0"><rect x="0" y="0" width="1200" height="441" fill="#fff"/></mask><mask id="satori_om-id-0-0-0"><rect x="40" y="136" width="1120" height="36" fill="#fff"/></mask><path fill="#8e8e8e" d="M49.2 165.0L49.2 165.0Q46.2 165.0 44.1 163.9Q42.1 162.7 41.4 160.8L41.4 160.8Q41.2 160.2 41.2 159.8L41.2 159.8Q41.2 159.0 41.6 158.6Q42.1 158.2 42.7 158.2L42.7 158.2Q43.8 158.2 44.3 159.3L44.3 159.3Q44.8 160.8 46.1 161.5Q47.4 162.2 49.3 162.2L49.3 162.2Q51.3 162.2 52.6 161.3Q53.9 160.4 53.9 159.0L53.9 159.0Q53.9 157.7 53.0 156.9Q52.1 156.1 50.0 155.7L50.0 155.7L47.6 155.2Q44.5 154.5 43.0 153.1Q41.5 151.6 41.5 149.3L41.5 149.3Q41.5 146.6 43.7 144.9Q45.8 143.2 49.2 143.2L49.2 143.2Q51.9 143.2 53.9 144.4Q55.9 145.6 56.5 147.7L56.5 147.7Q56.6 148.0 56.6 148.5L56.6 148.5Q56.6 149.1 56.2 149.5Q55.8 149.9 55.2 149.9L55.2 149.9Q54.1 149.9 53.6 148.8L53.6 148.8Q52.6 146.0 49.1 146.0L49.1 146.0Q47.3 146.0 46.0 146.8Q44.8 147.7 44.8 149.1L44.8 149.1Q44.8 150.3 45.7 151.1Q46.7 151.8 48.7 152.3L48.7 152.3L51.0 152.7Q54.3 153.4 55.8 154.8Q57.2 156.2 57.2 158.5L57.2 158.5Q57.2 161.5 55.0 163.3Q52.9 165.0 49.2 165.0ZM64.3 164.9L64.3 164.9Q62.0 164.9 60.6 163.6Q59.2 162.3 59.2 160.3L59.2 160.3Q59.2 158.3 60.7 157.1Q62.1 155.9 64.9 155.7L64.9 155.7L69.1 155.5L69.1 154.3Q69.1 153.0 68.3 152.3Q67.5 151.6 66.0 151.6L66.0 151.6Q64.9 151.6 64.1 152.0Q63.3 152.5 62.6 153.5L62.6 153.5Q62.1 154.2 61.3 154.2L61.3 154.2Q60.7 154.2 60.3 153.8Q60.0 153.4 60.0 152.9L60.0 152.9Q60.0 152.3 60.2 151.8L60.2 151.8Q60.8 150.5 62.5 149.8Q64.1 149.0 66.1 149.0L66.1 149.0Q68.9 149.0 70.6 150.4Q72.3 151.7 72.3 154.0L72.3 154.0L72.3 163.3Q72.3 164.1 71.8 164.5Q71.4 164.9 70.7 164.9L70.7 164.9Q70.1 164.9 69.7 164.5Q69.3 164.1 69.2 163.4L69.2 163.4L69.2 162.1L69.2 162.1Q68.5 163.4 67.2 164.2Q65.8 164.9 64.3 164.9ZM65.2 162.4L65.2 162.4Q66.8 162.4 68.0 161.4Q69.1 160.4 69.1 158.9L69.1 158.9L69.1 157.7L65.3 157.9Q63.9 158.0 63.1 158.6Q62.4 159.2 62.4 160.2L62.4 160.2Q62.4 161.2 63.1 161.8Q63.9 162.4 65.2 162.4ZM76.3 161.0L76.3 161.0L76.3 151.8L75.1 151.8Q74.5 151.8 74.2 151.4Q73.8 151.1 73.8 150.5Q73.8 149.9 74.2 149.6Q74.5 149.3 75.1 149.3L75.1 149.3L76.3 149.3L76.3 147.0Q76.3 146.2 76.7 145.7Q77.1 145.3 77.9 145.3Q78.6 145.3 79.0 145.7Q79.4 146.2 79.4 147.0L79.4 147.0L79.4 149.3L81.2 149.3Q81.9 149.3 82.2 149.6Q82.6 149.9 82.6 150.5Q82.6 151.1 82.2 151.4Q81.9 151.8 81.2 151.8L81.2 151.8L79.4 151.8L79.4 160.3Q79.4 161.2 79.8 161.6Q80.2 162.1 81.0 162.1L81.0 162.1L81.3 162.2Q82.6 162.3 82.6 163.4L82.6 163.4Q82.6 164.8 80.3 164.8L80.3 164.8L80.2 164.8Q76.3 164.8 76.3 161.0ZM90.3 164.9L90.3 164.9Q87.8 164.9 86.3 163.4Q84.9 161.9 84.9 159.2L84.9 159.2L84.9 150.7Q84.9 149.9 85.3 149.4Q85.7 149.0 86.5 149.0L86.5 149.0Q87.2 149.0 87.6 149.4Q88.0 149.9 88.0 150.7L88.0 150.7L88.0 158.6Q88.0 160.4 88.9 161.3Q89.7 162.2 91.3 162.2L91.3 162.2Q93.0 162.2 94.0 161.1Q95.0 160.0 95.0 158.2L95.0 158.2L95.0 150.7Q95.0 149.9 95.4 149.4Q95.9 149.0 96.6 149.0L96.6 149.0Q97.3 149.0 97.7 149.4Q98.2 149.9 98.2 150.7L98.2 150.7L98.2 163.3Q98.2 164.1 97.8 164.5Q97.3 164.9 96.7 164.9Q96.0 164.9 95.6 164.5Q95.1 164.1 95.1 163.3L95.1 163.3L95.1 162.1L95.1 162.1Q93.7 164.9 90.3 164.9ZM102.9 164.9L102.9 164.9Q102.2 164.9 101.7 164.5Q101.3 164.0 101.3 163.3L101.3 163.3L101.3 150.6Q101.3 149.9 101.7 149.4Q102.1 149.0 102.8 149.0L102.8 149.0Q103.5 149.0 103.9 149.4Q104.3 149.9 104.3 150.6L104.3 150.6L104.3 151.9L104.4 151.9Q104.7 150.6 105.6 149.8Q106.6 149.0 107.7 149.0L107.7 149.0Q108.6 149.0 109.0 149.4L109.0 149.4Q109.4 149.7 109.4 150.5L109.4 150.5Q109.4 151.2 109.0 151.6L109.0 151.6Q108.5 152.0 107.5 152.0L107.5 152.0Q105.9 152.0 105.2 153.0Q104.5 153.9 104.5 155.4L104.5 155.4L104.5 163.3Q104.5 164.0 104.0 164.5Q103.6 164.9 102.9 164.9ZM116.9 164.9L116.9 164.9Q114.0 164.9 112.2 162.8Q110.4 160.6 110.4 157.0Q110.4 153.3 112.2 151.2Q114.0 149.0 116.9 149.0L116.9 149.0Q118.5 149.0 119.8 149.8Q121.1 150.5 121.7 151.8L121.7 151.8L121.8 151.8L121.8 144.9Q121.8 144.1 122.2 143.7Q122.7 143.2 123.4 143.2L123.4 143.2Q124.1 143.2 124.5 143.7Q125.0 144.2 125.0 144.9L125.0 144.9L125.0 163.4Q125.0 164.1 124.5 164.5Q124.1 164.9 123.4 164.9L123.4 164.9Q122.7 164.9 122.2 164.5Q121.8 164.1 121.8 163.4L121.8 163.4L121.8 161.9L121.7 161.9Q121.1 163.3 119.9 164.1Q118.7 164.9 116.9 164.9ZM117.8 162.2L117.8 162.2Q119.6 162.2 120.7 160.8Q121.8 159.4 121.8 157.0L121.8 157.0Q121.8 154.6 120.7 153.1Q119.6 151.7 117.8 151.7L117.8 151.7Q115.9 151.7 114.8 153.1Q113.7 154.5 113.7 157.0L113.7 157.0Q113.7 159.4 114.8 160.8Q115.9 162.2 117.8 162.2ZM132.7 164.9L132.7 164.9Q130.4 164.9 129.0 163.6Q127.6 162.3 127.6 160.3L127.6 160.3Q127.6 158.3 129.1 157.1Q130.6 155.9 133.3 155.7L133.3 155.7L137.5 155.5L137.5 154.3Q137.5 153.0 136.7 152.3Q135.9 151.6 134.4 151.6L134.4 151.6Q133.3 151.6 132.5 152.0Q131.7 152.5 131.0 153.5L131.0 153.5Q130.6 154.2 129.7 154.2L129.7 154.2Q129.1 154.2 128.8 153.8Q128.4 153.4 128.4 152.9L128.4 152.9Q128.4 152.3 128.7 151.8L128.7 151.8Q129.3 150.5 130.9 149.8Q132.5 149.0 134.6 149.0L134.6 149.0Q137.4 149.0 139.0 150.4Q140.7 151.7 140.7 154.0L140.7 154.0L140.7 163.3Q140.7 164.1 140.3 164.5Q139.8 164.9 139.2 164.9L139.2 164.9Q138.5 164.9 138.1 164.5Q137.7 164.1 137.6 163.4L137.6 163.4L137.6 162.1L137.6 162.1Q136.9 163.4 135.6 164.2Q134.2 164.9 132.7 164.9ZM133.6 162.4L133.6 162.4Q135.2 162.4 136.4 161.4Q137.5 160.4 137.5 158.9L137.5 158.9L137.5 157.7L133.7 157.9Q132.3 158.0 131.5 158.6Q130.8 159.2 130.8 160.2L130.8 160.2Q130.8 161.2 131.5 161.8Q132.3 162.4 133.6 162.4ZM145.6 170.4L145.6 170.4Q144.5 170.4 144.0 170.0Q143.4 169.6 143.4 168.9L143.4 168.9Q143.4 168.4 143.7 168.1Q144.0 167.8 144.6 167.8L144.6 167.8Q144.8 167.8 145 167.8Q145.2 167.8 145.4 167.8L145.4 167.8Q147.0 167.8 147.8 165.7L147.8 165.7L148.1 164.8L142.9 151.3Q142.7 150.9 142.7 150.4L142.7 150.4Q142.7 149.8 143.2 149.4Q143.6 149.0 144.3 149.0L144.3 149.0Q144.9 149.0 145.3 149.3Q145.7 149.5 145.9 150.2L145.9 150.2L149.8 161.8L149.8 161.8L153.8 150.2Q154.0 149.5 154.3 149.3Q154.7 149.0 155.3 149.0L155.3 149.0Q156.0 149.0 156.4 149.4Q156.8 149.8 156.8 150.4L156.8 150.4Q156.8 150.8 156.7 151.3L156.7 151.3L151.3 165.4Q150.3 168.2 149.0 169.3Q147.8 170.4 145.6 170.4ZM161.3 161.1L161.3 161.1Q162.0 161.1 162.4 161.5Q162.8 161.8 162.8 162.4L162.8 162.4Q162.8 162.8 162.7 163.3L162.7 163.3L161.4 168.3Q161.1 169.4 160.0 169.4L160.0 169.4Q159.5 169.4 159.1 169.1Q158.8 168.7 158.8 168.2L158.8 168.2Q158.8 168.1 158.8 167.8L158.8 167.8L159.8 162.4Q160 161.1 161.3 161.1Z M179.9 164.9L179.9 164.9Q179.2 164.9 178.7 164.5Q178.3 164.0 178.3 163.3L178.3 163.3L178.3 146.9L178.2 146.9L174.6 149.4Q174.1 149.7 173.6 149.7L173.6 149.7Q173.1 149.7 172.7 149.4Q172.4 149.0 172.4 148.5L172.4 148.5Q172.4 147.7 173.2 147.1L173.2 147.1L177.6 144.0Q178.2 143.6 178.7 143.4Q179.1 143.2 179.7 143.2L179.7 143.2Q180.5 143.2 181.0 143.7Q181.5 144.2 181.5 145.1L181.5 145.1L181.5 163.3Q181.5 164.0 181.1 164.5Q180.6 164.9 179.9 164.9ZM200.3 162.1Q198.2 165.1 194.4 165.1Q190.6 165.1 188.4 162.1Q186.3 159.2 186.3 154.1L186.3 154.1Q186.3 149.0 188.5 146.1Q190.6 143.1 194.4 143.1L194.4 143.1Q198.2 143.1 200.3 146.1Q202.5 149.0 202.5 154.1L202.5 154.1Q202.5 159.1 200.3 162.1ZM194.4 162.3L194.4 162.3Q196.7 162.3 197.9 160.1Q199.2 157.9 199.2 154.1L199.2 154.1Q199.2 150.3 197.9 148.1Q196.7 145.9 194.4 145.9Q192.1 145.9 190.9 148.1Q189.6 150.3 189.6 154.1L189.6 154.1Q189.6 157.9 190.9 160.1Q192.1 162.3 194.4 162.3Z M214.4 164.5Q214.0 164.9 213.3 164.9Q212.6 164.9 212.2 164.5Q211.8 164.1 211.8 163.3L211.8 163.3L211.8 145.4Q211.8 144.4 212.3 143.9Q212.9 143.3 213.9 143.3L213.9 143.3Q214.7 143.3 215.2 143.7Q215.8 144.1 216.1 145.0L216.1 145.0L222.4 160.2L222.5 160.2L228.8 145.0Q229.1 144.1 229.7 143.7Q230.2 143.3 231.1 143.3L231.1 143.3Q232.0 143.3 232.6 143.8Q233.2 144.4 233.2 145.4L233.2 145.4L233.2 163.3Q233.2 164.1 232.8 164.5Q232.3 164.9 231.7 164.9L231.7 164.9Q231.0 164.9 230.6 164.5Q230.2 164.1 230.2 163.3L230.2 163.3L230.2 149.1L230.0 149.1L224.2 163.3Q223.6 164.5 222.5 164.5L222.5 164.5Q221.3 164.5 220.8 163.3L220.8 163.3L214.9 149.1L214.8 149.1L214.8 163.3Q214.8 164.1 214.4 164.5ZM241.2 164.9L241.2 164.9Q238.9 164.9 237.5 163.6Q236.0 162.3 236.0 160.3L236.0 160.3Q236.0 158.3 237.5 157.1Q239.0 155.9 241.8 155.7L241.8 155.7L246.0 155.5L246.0 154.3Q246.0 153.0 245.2 152.3Q244.4 151.6 242.9 151.6L242.9 151.6Q241.8 151.6 241.0 152.0Q240.2 152.5 239.5 153.5L239.5 153.5Q239.0 154.2 238.2 154.2L238.2 154.2Q237.6 154.2 237.2 153.8Q236.8 153.4 236.8 152.9L236.8 152.9Q236.8 152.3 237.1 151.8L237.1 151.8Q237.7 150.5 239.3 149.8Q240.9 149.0 243.0 149.0L243.0 149.0Q245.8 149.0 247.5 150.4Q249.2 151.7 249.2 154.0L249.2 154.0L249.2 163.3Q249.2 164.1 248.7 164.5Q248.3 164.9 247.6 164.9L247.6 164.9Q247.0 164.9 246.6 164.5Q246.1 164.1 246.1 163.4L246.1 163.4L246.1 162.1L246.0 162.1Q245.4 163.4 244.0 164.2Q242.7 164.9 241.2 164.9ZM242.0 162.4L242.0 162.4Q243.7 162.4 244.9 161.4Q246.0 160.4 246.0 158.9L246.0 158.9L246.0 157.7L242.2 157.9Q240.8 158.0 240.0 158.6Q239.2 159.2 239.2 160.2L239.2 160.2Q239.2 161.2 240.0 161.8Q240.8 162.4 242.0 162.4ZM254.1 170.4L254.1 170.4Q253.0 170.4 252.4 170.0Q251.8 169.6 251.8 168.9L251.8 168.9Q251.8 168.4 252.2 168.1Q252.5 167.8 253.1 167.8L253.1 167.8Q253.2 167.8 253.5 167.8Q253.7 167.8 253.9 167.8L253.9 167.8Q255.5 167.8 256.2 165.7L256.2 165.7L256.5 164.8L251.4 151.3Q251.2 150.9 251.2 150.4L251.2 150.4Q251.2 149.8 251.7 149.4Q252.1 149.0 252.8 149.0L252.8 149.0Q253.4 149.0 253.8 149.3Q254.1 149.5 254.3 150.2L254.3 150.2L258.3 161.8L258.3 161.8L262.2 150.2Q262.4 149.5 262.8 149.3Q263.2 149.0 263.8 149.0L263.8 149.0Q264.4 149.0 264.9 149.4Q265.3 149.8 265.3 150.4L265.3 150.4Q265.3 150.8 265.1 151.3L265.1 151.3L259.8 165.4Q258.8 168.2 257.5 169.3Q256.3 170.4 254.1 170.4Z M286.7 164.7L275.0 164.7Q274.3 164.7 273.9 164.3Q273.5 163.9 273.5 163.3L273.5 163.3Q273.5 162.8 273.7 162.5Q273.9 162.1 274.4 161.6L274.4 161.6L281.0 154.9Q283.1 152.8 283.8 151.7Q284.4 150.6 284.4 149.3L284.4 149.3Q284.4 147.8 283.4 146.8Q282.4 145.8 280.8 145.8L280.8 145.8Q277.6 145.8 276.5 149.0L276.5 149.0Q276.3 149.5 275.9 149.8Q275.6 150.0 275.0 150.0L275.0 150.0Q274.4 150.0 274.0 149.6Q273.6 149.3 273.6 148.6L273.6 148.6Q273.6 148.3 273.7 148.0L273.7 148.0Q273.8 147.1 274.4 146.3Q274.9 145.4 275.8 144.7Q276.7 144.0 278.0 143.6Q279.3 143.1 280.8 143.1L280.8 143.1Q283.8 143.1 285.7 144.8Q287.7 146.5 287.7 149.1L287.7 149.1Q287.7 150.9 286.7 152.5Q285.7 154.0 283.0 156.8L283.0 156.8L277.9 161.8L277.9 161.9L286.7 161.9Q287.4 161.9 287.8 162.3Q288.2 162.7 288.2 163.3L288.2 163.3Q288.2 163.9 287.8 164.3Q287.4 164.7 286.7 164.7L286.7 164.7ZM304.6 162.1Q302.5 165.1 298.7 165.1Q294.9 165.1 292.7 162.1Q290.6 159.2 290.6 154.1L290.6 154.1Q290.6 149.0 292.7 146.1Q294.9 143.1 298.7 143.1L298.7 143.1Q302.4 143.1 304.6 146.1Q306.7 149.0 306.7 154.1L306.7 154.1Q306.7 159.1 304.6 162.1ZM298.7 162.3L298.7 162.3Q300.9 162.3 302.2 160.1Q303.4 157.9 303.4 154.1L303.4 154.1Q303.4 150.3 302.2 148.1Q300.9 145.9 298.7 145.9Q296.4 145.9 295.1 148.1Q293.9 150.3 293.9 154.1L293.9 154.1Q293.9 157.9 295.1 160.1Q296.4 162.3 298.7 162.3ZM322.8 164.7L311.1 164.7Q310.4 164.7 310 164.3Q309.6 163.9 309.6 163.3L309.6 163.3Q309.6 162.8 309.8 162.5Q310.0 162.1 310.5 161.6L310.5 161.6L317.1 154.9Q319.2 152.8 319.9 151.7Q320.5 150.6 320.5 149.3L320.5 149.3Q320.5 147.8 319.5 146.8Q318.5 145.8 316.9 145.8L316.9 145.8Q313.7 145.8 312.6 149.0L312.6 149.0Q312.4 149.5 312.0 149.8Q311.7 150.0 311.1 150.0L311.1 150.0Q310.5 150.0 310.1 149.6Q309.7 149.3 309.7 148.6L309.7 148.6Q309.7 148.3 309.8 148.0L309.8 148.0Q309.9 147.1 310.5 146.3Q311.0 145.4 311.9 144.7Q312.8 144.0 314.1 143.6Q315.4 143.1 316.9 143.1L316.9 143.1Q319.9 143.1 321.8 144.8Q323.8 146.5 323.8 149.1L323.8 149.1Q323.8 150.9 322.8 152.5Q321.8 154.0 319.1 156.8L319.1 156.8L314.0 161.8L314.0 161.9L322.8 161.9Q323.5 161.9 323.9 162.3Q324.3 162.7 324.3 163.3L324.3 163.3Q324.3 163.9 323.9 164.3Q323.5 164.7 322.8 164.7L322.8 164.7ZM334.6 165.1L334.6 165.1Q332.2 165.1 330.3 164.0Q328.4 162.9 327.7 161.2L327.7 161.2Q327.3 160.5 327.3 159.8L327.3 159.8Q327.3 159.1 327.7 158.7Q328.1 158.3 328.8 158.3L328.8 158.3Q329.3 158.3 329.7 158.6Q330.0 158.8 330.3 159.4L330.3 159.4Q330.8 160.8 331.9 161.5Q333.0 162.3 334.6 162.3L334.6 162.3Q336.6 162.3 337.9 161.0Q339.1 159.8 339.1 157.8L339.1 157.8Q339.1 155.8 337.9 154.6Q336.6 153.4 334.6 153.4L334.6 153.4Q332.5 153.4 331.2 154.7L331.2 154.7Q330.5 155.5 330.1 155.6Q329.8 155.8 329.2 155.8L329.2 155.8Q328.4 155.8 328.0 155.4Q327.6 154.9 327.6 154.2L327.6 154.2L327.6 153.9L328.3 145.8Q328.4 144.6 329.0 144.0Q329.6 143.5 330.8 143.5L330.8 143.5L339.8 143.5Q340.5 143.5 340.9 143.9Q341.3 144.3 341.3 144.9Q341.3 145.5 340.9 145.9Q340.5 146.3 339.8 146.3L339.8 146.3L331.2 146.3L330.6 152.9L330.6 152.9Q331.3 151.9 332.6 151.3Q333.8 150.8 335.4 150.8L335.4 150.8Q338.4 150.8 340.4 152.7Q342.3 154.6 342.3 157.7L342.3 157.7Q342.3 161.0 340.2 163.0Q338.0 165.1 334.6 165.1Z "/><mask id="satori_om-id-0-0-1"><rect x="40" y="217" width="1120" height="83" fill="#fff"/></mask><path fill="#224d67" d="M47.4 280.1L47.4 280.1Q45.7 280.1 44.7 279.1Q43.7 278.1 43.7 276.3L43.7 276.3L43.7 240.7Q43.7 238.9 44.8 237.8Q45.8 236.8 47.6 236.8L47.6 236.8Q48.9 236.8 49.8 237.3Q50.7 237.8 51.6 239.1L51.6 239.1L71.3 266.9L71.5 266.9L71.5 240.6Q71.5 238.8 72.5 237.8Q73.5 236.8 75.2 236.8L75.2 236.8Q76.9 236.8 77.8 237.8Q78.8 238.8 78.8 240.6L78.8 240.6L78.8 276.3Q78.8 278.1 77.8 279.1Q76.8 280.1 75.0 280.1L75.0 280.1Q73.7 280.1 72.8 279.6Q71.9 279.1 71.0 277.8L71.0 277.8L51.3 249.9L51.0 249.9L51.0 276.3Q51.0 278.1 50.0 279.1Q49.1 280.1 47.4 280.1ZM110.2 275.9Q106.2 280.2 99.3 280.2Q92.4 280.2 88.3 275.9Q84.2 271.6 84.2 264.1L84.2 264.1Q84.2 256.6 88.3 252.2Q92.4 247.9 99.3 247.9L99.3 247.9Q106.1 247.9 110.2 252.2Q114.3 256.6 114.3 264.1L114.3 264.1Q114.3 271.6 110.2 275.9ZM93.7 271.7Q95.8 274.4 99.3 274.4Q102.8 274.4 104.8 271.7Q106.9 269.0 106.9 264.1L106.9 264.1Q106.9 259.2 104.8 256.4Q102.8 253.7 99.3 253.7L99.3 253.7Q95.8 253.7 93.7 256.4Q91.7 259.2 91.7 264.1L91.7 264.1Q91.7 269.0 93.7 271.7Z M135.5 280.1L135.5 280.1Q133.8 280.1 132.7 279.0Q131.7 278.0 131.7 276.2L131.7 276.2L131.7 241.2Q131.7 239.4 132.7 238.3Q133.8 237.3 135.5 237.3L135.5 237.3L148.2 237.3Q154.5 237.3 158.4 241.2Q162.4 245.1 162.4 251.5L162.4 251.5Q162.4 257.8 158.3 261.7Q154.3 265.6 147.8 265.6L147.8 265.6L139.3 265.6L139.3 276.2Q139.3 278.0 138.3 279.1Q137.3 280.1 135.5 280.1ZM139.3 243.5L139.3 259.5L146.1 259.5Q150.2 259.5 152.5 257.4Q154.7 255.3 154.7 251.5L154.7 251.5Q154.7 247.6 152.5 245.6Q150.2 243.5 146.2 243.5L146.2 243.5L139.3 243.5ZM176.3 280.1L176.3 280.1Q171.7 280.1 168.8 277.5Q165.9 274.9 165.9 270.7L165.9 270.7Q165.9 266.6 169.0 264.2Q172.0 261.8 177.7 261.4L177.7 261.4L186.0 260.9L186.0 258.7Q186.0 256.3 184.4 254.9Q182.9 253.6 180.2 253.6L180.2 253.6Q178.0 253.6 176.5 254.4Q175 255.2 173.7 257.2L173.7 257.2Q172.5 258.7 170.7 258.7L170.7 258.7Q169.3 258.7 168.5 257.9Q167.6 257.1 167.6 255.8L167.6 255.8Q167.6 254.8 168.1 253.8L168.1 253.8Q169.3 251.1 172.6 249.5Q176.0 247.9 180.4 247.9L180.4 247.9Q186.2 247.9 189.7 250.7Q193.2 253.5 193.2 258.2L193.2 258.2L193.2 276.5Q193.2 278.2 192.2 279.2Q191.2 280.2 189.6 280.2L189.6 280.2Q188.1 280.2 187.2 279.3Q186.2 278.4 186.1 276.8L186.1 276.8L186.1 274.6L186.0 274.6Q184.7 277.1 182.0 278.6Q179.3 280.1 176.3 280.1ZM178.5 274.6L178.5 274.6Q181.6 274.6 183.8 272.7Q186.0 270.8 186.0 268.1L186.0 268.1L186.0 265.7L178.8 266.1Q176.1 266.3 174.7 267.4Q173.2 268.6 173.2 270.4L173.2 270.4Q173.2 272.3 174.7 273.4Q176.1 274.6 178.5 274.6ZM203.5 291.1L203.5 291.1Q201.0 291.1 199.7 290.2Q198.4 289.3 198.4 287.7L198.4 287.7Q198.4 286.6 199.2 285.9Q199.9 285.2 201.2 285.2L201.2 285.2Q201.5 285.2 201.9 285.2Q202.4 285.2 202.7 285.2L202.7 285.2Q205.7 285.2 207.2 281.7L207.2 281.7L207.7 280.1L197.5 253.4Q197.1 252.2 197.1 251.3L197.1 251.3Q197.1 249.8 198.2 248.9Q199.3 247.9 200.9 247.9L200.9 247.9Q202.2 247.9 203.1 248.6Q203.9 249.3 204.4 250.8L204.4 250.8L211.8 273.4L211.9 273.4L219.3 250.8Q219.8 249.3 220.6 248.6Q221.4 247.9 222.8 247.9L222.8 247.9Q224.4 247.9 225.4 248.8Q226.4 249.8 226.4 251.2L226.4 251.2Q226.4 252.2 225.9 253.3L225.9 253.3L215.7 280.7Q213.6 286.5 210.9 288.8Q208.1 291.1 203.5 291.1ZM242.3 280.2L242.3 280.2Q237.5 280.2 234.2 278.5Q230.8 276.8 229.7 274.0L229.7 274.0Q229.4 273.2 229.4 272.5L229.4 272.5Q229.4 271.2 230.2 270.4Q231.1 269.6 232.4 269.6L232.4 269.6Q234.2 269.6 235.6 271.4L235.6 271.4Q236.8 273.3 238.4 274.1Q240.0 274.9 242.6 274.9L242.6 274.9Q245.2 274.9 246.7 273.9Q248.2 272.8 248.2 271.1L248.2 271.1Q248.2 269.7 247.2 268.8Q246.3 268.0 243.9 267.4L243.9 267.4L238.8 266.3Q229.8 264.3 229.8 257.4L229.8 257.4Q229.8 253.1 233.2 250.5Q236.7 247.9 242.4 247.9L242.4 247.9Q246.8 247.9 250.1 249.8Q253.3 251.6 254.0 254.4L254.0 254.4Q254.2 255.0 254.2 255.5L254.2 255.5Q254.2 256.6 253.4 257.4Q252.7 258.1 251.3 258.1L251.3 258.1Q249.5 258.1 248.6 256.7L248.6 256.7Q247.4 255.0 245.9 254.1Q244.5 253.2 242.3 253.2L242.3 253.2Q239.9 253.2 238.4 254.3Q236.9 255.3 236.9 257.0L236.9 257.0Q236.9 259.8 241.4 260.8L241.4 260.8L246.4 261.9Q251.3 263.0 253.4 264.9Q255.6 266.9 255.6 270.3L255.6 270.3Q255.6 274.8 251.9 277.5Q248.3 280.2 242.3 280.2ZM266.7 279.2Q265.7 280.2 264.0 280.2Q262.4 280.2 261.4 279.2Q260.4 278.1 260.4 276.3L260.4 276.3L260.4 240.6Q260.4 238.7 261.4 237.7Q262.4 236.7 264.0 236.7Q265.7 236.7 266.7 237.7Q267.7 238.7 267.7 240.6L267.7 240.6L267.7 276.3Q267.7 278.1 266.7 279.2ZM280.6 243.0Q279.4 244.2 277.7 244.2Q276.0 244.2 274.8 243.0Q273.6 241.8 273.6 240.2L273.6 240.2Q273.6 238.5 274.8 237.4Q276.0 236.2 277.7 236.2L277.7 236.2Q279.4 236.2 280.6 237.4Q281.8 238.5 281.8 240.2L281.8 240.2Q281.8 241.8 280.6 243.0ZM280.4 279.1Q279.4 280.2 277.7 280.2Q276.0 280.2 275.0 279.1Q274.1 278.1 274.1 276.3L274.1 276.3L274.1 251.7Q274.1 250.0 275.0 248.9Q276.0 247.9 277.7 247.9Q279.4 247.9 280.4 248.9Q281.3 250.0 281.3 251.8L281.3 251.8L281.3 276.3Q281.3 278.1 280.4 279.1ZM293.8 289.6Q292.7 290.6 291.1 290.6Q289.5 290.6 288.5 289.6Q287.5 288.6 287.5 286.8L287.5 286.8L287.5 251.7Q287.5 249.9 288.5 248.9Q289.4 247.9 291.0 247.9L291.0 247.9Q292.6 247.9 293.6 248.9Q294.6 249.9 294.6 251.7L294.6 251.7L294.6 253.9L294.7 253.9Q296.1 251.1 298.6 249.6Q301.2 248.0 304.5 248.0L304.5 248.0Q310.4 248.0 313.9 252.3Q317.4 256.6 317.4 264.1L317.4 264.1Q317.4 271.5 314.0 275.8Q310.5 280.1 304.6 280.1L304.6 280.1Q301.3 280.1 298.8 278.6Q296.2 277.1 294.9 274.4L294.9 274.4L294.8 274.4L294.8 286.8Q294.8 288.6 293.8 289.6ZM302.3 274.1L302.3 274.1Q305.8 274.1 307.9 271.4Q309.9 268.7 309.9 264.1L309.9 264.1Q309.9 259.5 307.9 256.7Q305.8 254.0 302.3 254.0L302.3 254.0Q298.9 254.0 296.8 256.8Q294.7 259.5 294.7 264.1L294.7 264.1Q294.7 268.6 296.8 271.4Q298.9 274.1 302.3 274.1Z M338.6 280.1L338.6 280.1Q336.9 280.1 335.9 279.0Q334.8 278.0 334.8 276.2L334.8 276.2L334.8 240.7Q334.8 238.9 335.9 237.8Q336.9 236.8 338.6 236.8L338.6 236.8Q340.4 236.8 341.4 237.8Q342.4 238.9 342.4 240.7L342.4 240.7L342.4 276.2Q342.4 278.0 341.4 279.1Q340.4 280.1 338.6 280.1ZM361.1 280.2L361.1 280.2Q356.3 280.2 352.9 278.5Q349.6 276.8 348.4 274.0L348.4 274.0Q348.1 273.2 348.1 272.5L348.1 272.5Q348.1 271.2 349.0 270.4Q349.8 269.6 351.2 269.6L351.2 269.6Q353.0 269.6 354.4 271.4L354.4 271.4Q355.6 273.3 357.2 274.1Q358.8 274.9 361.4 274.9L361.4 274.9Q363.9 274.9 365.5 273.9Q367.0 272.8 367.0 271.1L367.0 271.1Q367.0 269.7 366.0 268.8Q365.0 268.0 362.6 267.4L362.6 267.4L357.6 266.3Q348.6 264.3 348.6 257.4L348.6 257.4Q348.6 253.1 352.0 250.5Q355.5 247.9 361.2 247.9L361.2 247.9Q365.6 247.9 368.8 249.8Q372.1 251.6 372.8 254.4L372.8 254.4Q372.9 255.0 372.9 255.5L372.9 255.5Q372.9 256.6 372.2 257.4Q371.5 258.1 370.1 258.1L370.1 258.1Q368.3 258.1 367.3 256.7L367.3 256.7Q366.2 255.0 364.7 254.1Q363.2 253.2 361.0 253.2L361.0 253.2Q358.6 253.2 357.1 254.3Q355.6 255.3 355.6 257.0L355.6 257.0Q355.6 259.8 360.2 260.8L360.2 260.8L365.2 261.9Q370.1 263.0 372.2 264.9Q374.3 266.9 374.3 270.3L374.3 270.3Q374.3 274.8 370.7 277.5Q367.0 280.2 361.1 280.2ZM390.9 280.2L390.9 280.2Q386.1 280.2 382.7 278.5Q379.4 276.8 378.3 274.0L378.3 274.0Q378.0 273.2 378.0 272.5L378.0 272.5Q378.0 271.2 378.8 270.4Q379.7 269.6 381.0 269.6L381.0 269.6Q382.8 269.6 384.2 271.4L384.2 271.4Q385.4 273.3 387.0 274.1Q388.6 274.9 391.2 274.9L391.2 274.9Q393.8 274.9 395.3 273.9Q396.8 272.8 396.8 271.1L396.8 271.1Q396.8 269.7 395.8 268.8Q394.8 268.0 392.5 267.4L392.5 267.4L387.4 266.3Q378.4 264.3 378.4 257.4L378.4 257.4Q378.4 253.1 381.8 250.5Q385.3 247.9 391.0 247.9L391.0 247.9Q395.4 247.9 398.7 249.8Q401.9 251.6 402.6 254.4L402.6 254.4Q402.8 255.0 402.8 255.5L402.8 255.5Q402.8 256.6 402.0 257.4Q401.3 258.1 399.9 258.1L399.9 258.1Q398.1 258.1 397.2 256.7L397.2 256.7Q396.0 255.0 394.5 254.1Q393.1 253.2 390.9 253.2L390.9 253.2Q388.5 253.2 387.0 254.3Q385.5 255.3 385.5 257.0L385.5 257.0Q385.5 259.8 390.0 260.8L390.0 260.8L395.0 261.9Q399.9 263.0 402.0 264.9Q404.2 266.9 404.2 270.3L404.2 270.3Q404.2 274.8 400.5 277.5Q396.9 280.2 390.9 280.2ZM419.6 280.1L419.6 280.1Q414.6 280.1 411.6 277.0Q408.6 274.0 408.6 268.6L408.6 268.6L408.6 251.7Q408.6 250.0 409.6 248.9Q410.6 247.9 412.2 247.9Q413.9 247.9 414.9 248.9Q415.9 250.0 415.9 251.8L415.9 251.8L415.9 267.1Q415.9 270.5 417.5 272.2Q419.1 274.0 422.2 274.0L422.2 274.0Q425.3 274.0 427.2 271.9Q429.0 269.9 429.0 266.5L429.0 266.5L429.0 251.7Q429.0 250.0 430.0 248.9Q431.0 247.9 432.7 247.9L432.7 247.9Q434.3 247.9 435.3 248.9Q436.3 250.0 436.3 251.8L436.3 251.8L436.3 276.5Q436.3 278.2 435.3 279.2Q434.4 280.2 432.8 280.2L432.8 280.2Q431.2 280.2 430.2 279.2Q429.3 278.2 429.3 276.5L429.3 276.5L429.3 274.2L429.1 274.2Q426.5 280.1 419.6 280.1ZM456.0 280.2L456.0 280.2Q448.9 280.2 444.9 276.0Q441.0 271.7 441.0 264.2L441.0 264.2Q441.0 256.7 444.9 252.3Q448.9 247.9 455.6 247.9L455.6 247.9Q462.0 247.9 466.0 251.9Q469.9 256.0 469.9 262.4L469.9 262.4Q469.9 264.0 469.0 264.9Q468.1 265.8 466.5 265.8L466.5 265.8L448.2 265.8L448.2 266.0Q448.2 269.9 450.3 272.3Q452.4 274.6 456.0 274.6L456.0 274.6Q458.4 274.6 460.2 273.6Q462.0 272.7 463.8 270.4L463.8 270.4Q464.8 269.3 466.2 269.3L466.2 269.3Q467.5 269.3 468.3 270.0Q469.1 270.8 469.1 272.1L469.1 272.1Q469.1 272.9 468.6 273.9L468.6 273.9Q467.1 276.9 463.8 278.5Q460.5 280.2 456.0 280.2ZM448.3 261.0L448.3 261.0L462.8 261.0Q462.7 257.6 460.7 255.6Q458.7 253.5 455.7 253.5Q452.6 253.5 450.5 255.6Q448.5 257.7 448.3 261.0ZM486.2 280.1L486.2 280.1Q480.3 280.1 476.8 275.7Q473.3 271.4 473.3 264.0L473.3 264.0Q473.3 256.7 476.8 252.3Q480.3 248.0 486.2 248.0L486.2 248.0Q489.5 248.0 492.0 249.5Q494.6 251.1 495.8 253.7L495.8 253.7L496.0 253.7L496.0 240.6Q496.0 238.7 497.0 237.7Q498.0 236.7 499.6 236.7Q501.3 236.7 502.3 237.7Q503.3 238.7 503.3 240.6L503.3 240.6L503.3 276.5Q503.3 278.2 502.3 279.2Q501.3 280.2 499.7 280.2L499.7 280.2Q498.1 280.2 497.0 279.2Q496.0 278.2 496.0 276.5L496.0 276.5L496.0 274.1L495.9 274.1Q494.7 276.9 492.2 278.5Q489.7 280.1 486.2 280.1ZM488.4 274.1L488.4 274.1Q491.9 274.1 494.0 271.4Q496.0 268.7 496.0 264.1L496.0 264.1Q496.0 259.5 494.0 256.7Q491.9 254.0 488.4 254.0L488.4 254.0Q484.9 254.0 482.9 256.7Q480.8 259.4 480.8 264.1L480.8 264.1Q480.8 268.7 482.8 271.4Q484.9 274.1 488.4 274.1Z M539.9 279.6L525.9 279.6Q524.2 279.6 523.2 278.5Q522.2 277.5 522.2 275.7L522.2 275.7L522.2 241.2Q522.2 239.4 523.2 238.3Q524.2 237.3 525.9 237.3L525.9 237.3L539.7 237.3Q545.5 237.3 548.9 240.2Q552.3 243.0 552.3 247.8L552.3 247.8Q552.3 251.2 550.1 253.9Q547.9 256.5 544.6 257.0L544.6 257.0L544.6 257.3Q549.0 257.7 551.7 260.5Q554.4 263.4 554.4 267.6L554.4 267.6Q554.4 273.2 550.5 276.4Q546.7 279.6 539.9 279.6L539.9 279.6ZM529.7 243.2L529.7 255.1L536.6 255.1Q540.6 255.1 542.7 253.5Q544.9 251.9 544.9 249.0L544.9 249.0Q544.9 246.2 543.0 244.7Q541.2 243.2 537.8 243.2L537.8 243.2L529.7 243.2ZM529.7 260.5L529.7 273.7L538.2 273.7Q542.3 273.7 544.5 272.0Q546.7 270.3 546.7 267.0L546.7 267.0Q546.7 263.8 544.4 262.1Q542.2 260.5 537.8 260.5L537.8 260.5L529.7 260.5ZM572.9 280.2L572.9 280.2Q565.7 280.2 561.7 276.0Q557.8 271.7 557.8 264.2L557.8 264.2Q557.8 256.7 561.7 252.3Q565.7 247.9 572.4 247.9L572.4 247.9Q578.8 247.9 582.8 251.9Q586.7 256.0 586.7 262.4L586.7 262.4Q586.7 264.0 585.8 264.9Q585.0 265.8 583.3 265.8L583.3 265.8L565.0 265.8L565.0 266.0Q565.0 269.9 567.1 272.3Q569.2 274.6 572.8 274.6L572.8 274.6Q575.3 274.6 577.0 273.6Q578.8 272.7 580.6 270.4L580.6 270.4Q581.6 269.3 583.0 269.3L583.0 269.3Q584.3 269.3 585.1 270.0Q585.9 270.8 585.9 272.1L585.9 272.1Q585.9 272.9 585.4 273.9L585.4 273.9Q583.9 276.9 580.6 278.5Q577.3 280.2 572.9 280.2ZM565.1 261.0L565.1 261.0L579.6 261.0Q579.5 257.6 577.5 255.6Q575.5 253.5 572.5 253.5Q569.4 253.5 567.3 255.6Q565.3 257.7 565.1 261.0ZM599.8 279.2Q598.8 280.2 597.1 280.2Q595.4 280.2 594.4 279.2Q593.4 278.2 593.4 276.4L593.4 276.4L593.4 254.1L591.5 254.1Q590.3 254.1 589.5 253.4Q588.7 252.7 588.7 251.4L588.7 251.4Q588.7 250.1 589.5 249.4Q590.3 248.6 591.5 248.6L591.5 248.6L593.4 248.6L593.4 245.9Q593.4 237.0 602.0 237.0L602.0 237.0Q604.8 237.0 606.2 237.8Q607.6 238.6 607.6 240.0L607.6 240.0Q607.6 241.7 606.0 242.1L606.0 242.1Q605.3 242.3 604.4 242.3L604.4 242.3Q602.4 242.4 601.5 243.3Q600.6 244.2 600.6 246.2L600.6 246.2L600.6 248.6L604.6 248.6Q605.8 248.6 606.6 249.4Q607.3 250.1 607.3 251.4L607.3 251.4Q607.3 252.7 606.6 253.4Q605.8 254.1 604.6 254.1L604.6 254.1L600.7 254.1L600.7 276.4Q600.7 278.2 599.8 279.2ZM636.3 275.9Q632.3 280.2 625.4 280.2Q618.5 280.2 614.4 275.9Q610.4 271.6 610.4 264.1L610.4 264.1Q610.4 256.6 614.5 252.2Q618.6 247.9 625.4 247.9L625.4 247.9Q632.2 247.9 636.3 252.2Q640.4 256.6 640.4 264.1L640.4 264.1Q640.4 271.6 636.3 275.9ZM619.8 271.7Q621.9 274.4 625.4 274.4Q628.9 274.4 630.9 271.7Q633.0 269.0 633.0 264.1L633.0 264.1Q633.0 259.2 630.9 256.4Q628.9 253.7 625.4 253.7L625.4 253.7Q621.9 253.7 619.8 256.4Q617.8 259.2 617.8 264.1L617.8 264.1Q617.8 269.0 619.8 271.7ZM651.4 279.1Q650.4 280.2 648.7 280.2Q647.1 280.2 646.1 279.1Q645.1 278.1 645.1 276.3L645.1 276.3L645.1 251.6Q645.1 249.9 646.0 248.9Q647.0 247.9 648.6 247.9L648.6 247.9Q650.1 247.9 651.1 248.9Q652.0 249.9 652.0 251.6L652.0 251.6L652.0 254.0L652.2 254.0Q652.8 251.3 654.7 249.6Q656.5 248.0 658.8 248.0L658.8 248.0Q660.5 248.0 661.4 248.8L661.4 248.8Q662.4 249.6 662.4 251.4L662.4 251.4Q662.4 253.1 661.4 254.0L661.4 254.0Q660.3 254.9 658.1 255.0L658.1 255.0Q652.4 255.0 652.4 261.4L652.4 261.4L652.4 276.3Q652.4 278.1 651.4 279.1ZM679.5 280.2L679.5 280.2Q672.4 280.2 668.4 276.0Q664.4 271.7 664.4 264.2L664.4 264.2Q664.4 256.7 668.4 252.3Q672.4 247.9 679.1 247.9L679.1 247.9Q685.5 247.9 689.4 251.9Q693.4 256.0 693.4 262.4L693.4 262.4Q693.4 264.0 692.5 264.9Q691.6 265.8 690.0 265.8L690.0 265.8L671.7 265.8L671.7 266.0Q671.7 269.9 673.8 272.3Q675.9 274.6 679.5 274.6L679.5 274.6Q681.9 274.6 683.7 273.6Q685.5 272.7 687.2 270.4L687.2 270.4Q688.3 269.3 689.7 269.3L689.7 269.3Q690.9 269.3 691.8 270.0Q692.6 270.8 692.6 272.1L692.6 272.1Q692.6 272.9 692.1 273.9L692.1 273.9Q690.6 276.9 687.3 278.5Q683.9 280.2 679.5 280.2ZM671.8 261.0L671.8 261.0L686.3 261.0Q686.1 257.6 684.2 255.6Q682.2 253.5 679.1 253.5Q676.1 253.5 674.0 255.6Q672.0 257.7 671.8 261.0Z M724.9 280.1L724.9 280.1Q723.2 280.1 722.2 279.1Q721.2 278.0 721.2 276.2L721.2 276.2L721.2 243.7L711.5 243.7Q710.0 243.7 709.0 242.8Q708.1 242.0 708.1 240.5Q708.1 239.0 709.0 238.2Q709.9 237.3 711.5 237.3L711.5 237.3L738.4 237.3Q740.0 237.3 740.9 238.2Q741.8 239.0 741.8 240.5Q741.8 242.0 740.9 242.8Q739.9 243.7 738.4 243.7L738.4 243.7L728.7 243.7L728.7 276.2Q728.7 278.0 727.7 279.1Q726.7 280.1 724.9 280.1ZM759.6 280.2L759.6 280.2Q752.4 280.2 748.5 276.0Q744.5 271.7 744.5 264.2L744.5 264.2Q744.5 256.7 748.5 252.3Q752.4 247.9 759.2 247.9L759.2 247.9Q765.5 247.9 769.5 251.9Q773.4 256.0 773.4 262.4L773.4 262.4Q773.4 264.0 772.6 264.9Q771.7 265.8 770.0 265.8L770.0 265.8L751.7 265.8L751.7 266.0Q751.7 269.9 753.8 272.3Q756.0 274.6 759.5 274.6L759.5 274.6Q762.0 274.6 763.7 273.6Q765.5 272.7 767.3 270.4L767.3 270.4Q768.3 269.3 769.7 269.3L769.7 269.3Q771.0 269.3 771.8 270.0Q772.7 270.8 772.7 272.1L772.7 272.1Q772.7 272.9 772.2 273.9L772.2 273.9Q770.6 276.9 767.3 278.5Q764.0 280.2 759.6 280.2ZM751.8 261.0L751.8 261.0L766.3 261.0Q766.2 257.6 764.2 255.6Q762.3 253.5 759.2 253.5Q756.1 253.5 754.1 255.6Q752.0 257.7 751.8 261.0ZM784.4 279.1Q783.4 280.2 781.8 280.2Q780.1 280.2 779.1 279.1Q778.1 278.1 778.1 276.3L778.1 276.3L778.1 251.6Q778.1 249.9 779.1 248.9Q780.0 247.9 781.6 247.9L781.6 247.9Q783.1 247.9 784.1 248.9Q785.1 249.9 785.1 251.6L785.1 251.6L785.1 254.0L785.2 254.0Q785.9 251.3 787.7 249.6Q789.5 248.0 791.9 248.0L791.9 248.0Q793.6 248.0 794.5 248.8L794.5 248.8Q795.5 249.6 795.5 251.4L795.5 251.4Q795.5 253.1 794.4 254.0L794.4 254.0Q793.3 254.9 791.2 255.0L791.2 255.0Q785.4 255.0 785.4 261.4L785.4 261.4L785.4 276.3Q785.4 278.1 784.4 279.1ZM802.4 280.2L802.4 280.2Q800.7 280.2 799.7 279.2Q798.8 278.1 798.8 276.3L798.8 276.3L798.8 251.6Q798.8 249.9 799.7 248.9Q800.7 247.9 802.2 247.9Q803.8 247.9 804.8 248.9Q805.8 249.9 805.8 251.6L805.8 251.6L805.8 253.9L805.9 253.9Q806.9 251.2 809.3 249.5Q811.6 247.9 814.8 247.9L814.8 247.9Q818.0 247.9 820.3 249.6Q822.6 251.2 823.4 254.2L823.4 254.2L823.6 254.2Q824.7 251.3 827.3 249.6Q829.9 247.9 833.3 247.9L833.3 247.9Q837.9 247.9 840.6 250.8Q843.4 253.6 843.4 258.3L843.4 258.3L843.4 276.3Q843.4 278.1 842.4 279.1Q841.4 280.2 839.8 280.2L839.8 280.2Q838.1 280.2 837.1 279.1Q836.1 278.1 836.1 276.3L836.1 276.3L836.1 260.1Q836.1 257.2 834.7 255.6Q833.2 254.1 830.5 254.1L830.5 254.1Q827.9 254.1 826.3 255.8Q824.6 257.6 824.6 260.4L824.6 260.4L824.6 276.3Q824.6 278.1 823.7 279.2Q822.7 280.2 821.1 280.2L821.1 280.2Q819.4 280.2 818.5 279.2Q817.5 278.1 817.5 276.3L817.5 276.3L817.5 259.7Q817.5 257.1 816.1 255.6Q814.6 254.1 812.0 254.1L812.0 254.1Q809.4 254.1 807.7 255.9Q806.1 257.8 806.1 260.6L806.1 260.6L806.1 276.3Q806.1 278.1 805.0 279.1Q804.0 280.2 802.4 280.2ZM855.9 243.0Q854.7 244.2 853.0 244.2Q851.3 244.2 850.2 243.0Q849.0 241.8 849.0 240.2L849.0 240.2Q849.0 238.5 850.2 237.4Q851.3 236.2 853.0 236.2L853.0 236.2Q854.8 236.2 855.9 237.4Q857.1 238.5 857.1 240.2L857.1 240.2Q857.1 241.8 855.9 243.0ZM855.7 279.1Q854.7 280.2 853.0 280.2Q851.4 280.2 850.4 279.1Q849.4 278.1 849.4 276.3L849.4 276.3L849.4 251.7Q849.4 250.0 850.4 248.9Q851.4 247.9 853.0 247.9Q854.7 247.9 855.7 248.9Q856.7 250.0 856.7 251.8L856.7 251.8L856.7 276.3Q856.7 278.1 855.7 279.1ZM869.1 279.2Q868.1 280.2 866.5 280.2Q864.8 280.2 863.8 279.2Q862.8 278.1 862.8 276.3L862.8 276.3L862.8 251.6Q862.8 249.9 863.8 248.9Q864.7 247.9 866.3 247.9Q867.9 247.9 868.9 248.9Q869.9 249.9 869.9 251.6L869.9 251.6L869.9 253.8L870.1 253.8Q872.7 247.9 879.7 247.9L879.7 247.9Q884.8 247.9 887.7 251.0Q890.5 254.1 890.5 259.5L890.5 259.5L890.5 276.3Q890.5 278.1 889.5 279.2Q888.5 280.2 886.9 280.2Q885.2 280.2 884.2 279.2Q883.2 278.1 883.2 276.3L883.2 276.3L883.2 261.0Q883.2 257.6 881.6 255.9Q880.1 254.1 877.0 254.1L877.0 254.1Q873.8 254.1 872.0 256.2Q870.1 258.2 870.1 261.6L870.1 261.6L870.1 276.3Q870.1 278.1 869.1 279.2ZM905.4 280.1L905.4 280.1Q900.9 280.1 898.0 277.5Q895.1 274.9 895.1 270.7L895.1 270.7Q895.1 266.6 898.1 264.2Q901.2 261.8 906.9 261.4L906.9 261.4L915.1 260.9L915.1 258.7Q915.1 256.3 913.6 254.9Q912.0 253.6 909.3 253.6L909.3 253.6Q907.1 253.6 905.6 254.4Q904.1 255.2 902.8 257.2L902.8 257.2Q901.7 258.7 899.8 258.7L899.8 258.7Q898.5 258.7 897.6 257.9Q896.8 257.1 896.8 255.8L896.8 255.8Q896.8 254.8 897.3 253.8L897.3 253.8Q898.4 251.1 901.8 249.5Q905.1 247.9 909.6 247.9L909.6 247.9Q915.4 247.9 918.8 250.7Q922.3 253.5 922.3 258.2L922.3 258.2L922.3 276.5Q922.3 278.2 921.3 279.2Q920.3 280.2 918.8 280.2L918.8 280.2Q917.2 280.2 916.3 279.3Q915.4 278.4 915.3 276.8L915.3 276.8L915.3 274.6L915.1 274.6Q913.8 277.1 911.1 278.6Q908.5 280.1 905.4 280.1ZM907.7 274.6L907.7 274.6Q910.8 274.6 912.9 272.7Q915.1 270.8 915.1 268.1L915.1 268.1L915.1 265.7L907.9 266.1Q905.3 266.3 903.8 267.4Q902.4 268.6 902.4 270.4L902.4 270.4Q902.4 272.3 903.8 273.4Q905.3 274.6 907.7 274.6ZM930.2 271.9L930.2 271.9L930.2 254.1L928.2 254.1Q926.9 254.1 926.1 253.4Q925.3 252.6 925.3 251.3L925.3 251.3Q925.3 250.0 926.1 249.3Q926.8 248.5 928.2 248.5L928.2 248.5L930.2 248.5L930.2 244.4Q930.2 242.6 931.2 241.6Q932.1 240.6 933.8 240.6L933.8 240.6Q935.5 240.6 936.5 241.6Q937.5 242.6 937.5 244.4L937.5 244.4L937.5 248.5L940.8 248.5Q942.2 248.5 943.0 249.3Q943.8 250.0 943.8 251.3L943.8 251.3Q943.8 252.6 943.0 253.4Q942.2 254.1 940.8 254.1L940.8 254.1L937.5 254.1L937.5 270.3Q937.5 272.1 938.2 272.9Q938.8 273.7 940.4 273.9L940.4 273.9L940.9 273.9Q943.9 274.2 943.9 276.6L943.9 276.6Q943.9 278.2 942.5 279.1Q941.2 279.9 938.7 279.9L938.7 279.9L938.4 279.9Q930.2 279.9 930.2 271.9ZM955.0 243.0Q953.8 244.2 952.1 244.2Q950.4 244.2 949.2 243.0Q948.1 241.8 948.1 240.2L948.1 240.2Q948.1 238.5 949.2 237.4Q950.4 236.2 952.1 236.2L952.1 236.2Q953.8 236.2 955 237.4Q956.2 238.5 956.2 240.2L956.2 240.2Q956.2 241.8 955.0 243.0ZM954.8 279.1Q953.8 280.2 952.1 280.2Q950.4 280.2 949.4 279.1Q948.5 278.1 948.5 276.3L948.5 276.3L948.5 251.7Q948.5 250.0 949.4 248.9Q950.4 247.9 952.1 247.9Q953.8 247.9 954.8 248.9Q955.8 250.0 955.8 251.8L955.8 251.8L955.8 276.3Q955.8 278.1 954.8 279.1ZM986.6 275.9Q982.5 280.2 975.6 280.2Q968.7 280.2 964.7 275.9Q960.6 271.6 960.6 264.1L960.6 264.1Q960.6 256.6 964.7 252.2Q968.8 247.9 975.6 247.9L975.6 247.9Q982.5 247.9 986.6 252.2Q990.7 256.6 990.7 264.1L990.7 264.1Q990.7 271.6 986.6 275.9ZM970.1 271.7Q972.1 274.4 975.6 274.4Q979.1 274.4 981.2 271.7Q983.2 269.0 983.2 264.1L983.2 264.1Q983.2 259.2 981.2 256.4Q979.1 253.7 975.6 253.7L975.6 253.7Q972.1 253.7 970.1 256.4Q968.0 259.2 968.0 264.1L968.0 264.1Q968.0 269.0 970.1 271.7ZM1001.6 279.2Q1000.6 280.2 999.0 280.2Q997.3 280.2 996.3 279.2Q995.3 278.1 995.3 276.3L995.3 276.3L995.3 251.6Q995.3 249.9 996.3 248.9Q997.2 247.9 998.8 247.9Q1000.4 247.9 1001.4 248.9Q1002.4 249.9 1002.4 251.6L1002.4 251.6L1002.4 253.8L1002.6 253.8Q1005.2 247.9 1012.2 247.9L1012.2 247.9Q1017.3 247.9 1020.2 251.0Q1023.0 254.1 1023.0 259.5L1023.0 259.5L1023.0 276.3Q1023.0 278.1 1022.0 279.2Q1021.0 280.2 1019.4 280.2Q1017.7 280.2 1016.7 279.2Q1015.7 278.1 1015.7 276.3L1015.7 276.3L1015.7 261.0Q1015.7 257.6 1014.1 255.9Q1012.6 254.1 1009.5 254.1L1009.5 254.1Q1006.4 254.1 1004.5 256.2Q1002.6 258.2 1002.6 261.6L1002.6 261.6L1002.6 276.3Q1002.6 278.1 1001.6 279.2Z "/><defs><clipPath id="satori_bc-id-0-1"><rect x="0" y="441" width="1200" height="189"/></clipPath></defs><mask id="satori_om-id-0-1"><rect x="0" y="442" width="1200" height="188" fill="#fff"/><path width="1200" height="189" fill="none" stroke="#000" stroke-width="2" d="M0,441 A0,0 0 0 1 0,441 h1200 A0,0 0 0 1 1200,441"/></mask><path width="1200" height="189" clip-path="url(#satori_bc-id-0-1)" fill="none" stroke="#dbdbdb" stroke-width="2" d="M0,441 A0,0 0 0 1 0,441 h1200 A0,0 0 0 1 1200,441"/><mask id="satori_om-id-0-1-0"><rect x="40" y="482" width="292" height="108" fill="#fff"/></mask><clipPath id="satori_cp-id-0-1-0-0"><rect x="40" y="504" width="64" height="64"/></clipPath><mask id="satori_om-id-0-1-0-0"><rect x="40" y="504" width="64" height="64" fill="#fff"/></mask><image x="40" y="504" width="64" height="64" href="data:image/svg+xml;utf8,%3Csvg  xmlns=%22http://www.w3.org/2000/svg%22 width=%2264%22 height=%2264%22 viewBox=%220 0 128 128%22%3E%3Cpath fill=%22%23224d67%22 d=%22M22.5 14.8c2.9 1.3 99 44 99 44c2.7 1.2 2.9 3.1 2 12.4c-1 10.5-1.9 37.8-40.2 42.9c-24.6 3.2-55.9-4.3-70.9-27.2C-6 58.8 11 23.4 14.8 17.7c2.4-3.5 4.8-4.2 7.7-2.9%22%3E%3C/path%3E%3Cpath fill=%22%23f0f4c3%22 d=%22M121.5 58.8c-.3-.2-92-40.8-98.9-43.9C9.6 31.5-3.8 76 27.9 96.2c33.6 21.5 78.7-10.2 93.6-37.4%22%3E%3C/path%3E%3Cpath fill=%22%23f0f4c3%22 d=%22M117.7 57c-.3-.2-86.7-38.4-93.2-41.3c-12.2 15.5-23.9 59.1 5.7 78c31.4 20.2 73.6-11.2 87.5-36.7%22%3E%3C/path%3E%3Cpath fill=%22%23cb2a42%22 d=%22M56.2 37.6L19.5 48.2c-2.5.8-4.4 2.8-5 5.3c-1.9 8.5.8 23.3 8.9 29.8c3.5 2.7 8.6 1.8 10.8-2.1L58.5 41c1.3-1.7.5-4.2-2.3-3.4m14.3 2.9s14.6 30.1 16 33s6.3 4.7 9.9 2.8c10.7-5.6 15.5-12.4 19.2-20.2c-8.9-3.9-42.4-18.8-42.4-18.8c-2.4-1.1-4 .6-2.7 3.2m-8.6 1.9C60.3 45.1 39.5 81 37.6 84.1c-1.9 3.2-.7 7.5 2.7 9.2c12.3 6.5 30.9.4 39.6-7c2.2-1.9 4.5-5.1 3.2-8.2S68.9 44.6 67.8 42.3c-1.2-2.7-4.1-2.8-5.9.1%22%3E%3C/path%3E%3Cpath fill=%22%23f0f4c3%22 d=%22M52.2 42.2c-1.4.4-10.1 3-11.1 3.4c-1.4.5-2.2 1.7-1.9 2.5c.3.9 1.7 1.1 3.1.6c.8-.3 7.1-3.9 9.5-5.2c-3.1 2.4-10.2 9.4-11.1 10.3c-1.4 1.5-1.7 3.4-.8 4.3c1 .9 2.9.5 4.3-1c1.2-1.3 8.5-12.8 9.1-13.9s.4-1.4-1.1-1m10.1 16.4c0-2.2 1.4-10.3 1.8-12.3c.4-1.6 1.5-1.8 1.8.5s1.7 9.7 1.7 11.8s-1.2 3.3-2.7 3.3c-1.4 0-2.6-1.1-2.6-3.3M79.9 49c-1.2-1.8-3.3-4.9-4.1-6.1c-.7-1.2.1-2.1 1.8-.9s4 2.9 5.4 4c1.6 1.3 1.9 3 .8 4s-2.7.8-3.9-1%22%3E%3C/path%3E%3Cellipse cx=%2287.3%22 cy=%22103.12%22 fill=%22%23cb2a42%22 rx=%223.4%22 ry=%222.3%22 transform=%22rotate(-27.098 87.298 103.126)%22%3E%3C/ellipse%3E%3Cellipse cx=%2298.89%22 cy=%22103.82%22 fill=%22%23cb2a42%22 rx=%223.4%22 ry=%222.3%22 transform=%22rotate(-30.642 98.887 103.818)%22%3E%3C/ellipse%3E%3Cellipse cx=%22102.02%22 cy=%2293.8%22 fill=%22%23cb2a42%22 rx=%223.4%22 ry=%222.3%22 transform=%22rotate(-37.16 102.017 93.797)%22%3E%3C/ellipse%3E%3Cpath fill=%22%23cb2a42%22 d=%22M57.6 30.3c-8.3-3.7-24.4-10.7-29.6-13c-3.6 2.2-9.7 11.4-11.2 21.2c-.6 3.6 1.7 5.9 5.3 4.9c0 0 33.7-9.3 35.3-9.7c1.6-.5 2-2.6.2-3.4%22%3E%3C/path%3E%3C/svg%3E" preserveAspectRatio="none" clip-path="url(#satori_cp-id-0-1-0-0)" mask="url(#satori_om-id-0-1-0-0)"/><mask id="satori_om-id-0-1-0-0-0"><rect x="40" y="504" width="0" height="64" fill="#fff"/></mask><mask id="satori_om-id-0-1-0-0-1"><rect x="40" y="504" width="0" height="64" fill="#fff"/></mask><mask id="satori_om-id-0-1-0-0-2"><rect x="40" y="504" width="0" height="64" fill="#fff"/></mask><mask id="satori_om-id-0-1-0-0-3"><rect x="40" y="504" width="0" height="64" fill="#fff"/></mask><mask id="satori_om-id-0-1-0-0-4"><rect x="40" y="504" width="0" height="64" fill="#fff"/></mask><mask id="satori_om-id-0-1-0-0-5"><rect x="40" y="504" width="0" height="64" fill="#fff"/></mask><mask id="satori_om-id-0-1-0-0-6"><rect x="40" y="504" width="0" height="64" fill="#fff"/></mask><mask id="satori_om-id-0-1-0-0-7"><rect x="40" y="504" width="0" height="64" fill="#fff"/></mask><mask id="satori_om-id-0-1-0-0-8"><rect x="40" y="504" width="0" height="64" fill="#fff"/></mask><mask id="satori_om-id-0-1-0-1"><rect x="116" y="512" width="216" height="48" fill="#fff"/></mask><path fill="#545454" d="M121.1 553.5L121.1 553.5Q119.4 553.5 118.4 552.6Q117.5 551.7 117.5 550.2L117.5 550.2Q117.5 549.3 117.9 547.9L117.9 547.9L127.2 522.8Q127.9 520.7 129.2 519.7Q130.5 518.8 132.5 518.8L132.5 518.8Q134.6 518.8 135.9 519.7Q137.2 520.7 137.9 522.8L137.9 522.8L147.2 547.9Q147.6 549.2 147.6 550.2L147.6 550.2Q147.6 551.6 146.6 552.6Q145.6 553.5 144.1 553.5L144.1 553.5Q142.6 553.5 141.7 552.8Q140.9 552.1 140.4 550.4L140.4 550.4L138.6 545.0L126.4 545.0L124.6 550.3Q124.2 552.0 123.3 552.8Q122.5 553.5 121.1 553.5ZM132.4 525.7L128.0 539.6L137 539.6L132.5 525.7L132.4 525.7ZM159.1 552.6Q158.2 553.6 156.6 553.6Q155.0 553.6 154.1 552.6Q153.2 551.7 153.2 550.0L153.2 550.0L153.2 533.1L151.9 533.1Q150.8 533.1 150.1 532.4Q149.4 531.7 149.4 530.6Q149.4 529.4 150.1 528.7Q150.8 528.1 151.9 528.1L151.9 528.1L153.2 528.1L153.2 526.2Q153.2 522.5 155.0 520.7Q156.7 519.0 160.3 518.9L160.3 518.9Q163.0 518.9 164.2 519.7Q165.5 520.4 165.5 521.7L165.5 521.7Q165.5 523.1 164.1 523.5L164.1 523.5Q163.5 523.7 162.8 523.7L162.8 523.7Q161.2 523.7 160.5 524.4Q159.9 525.1 159.9 526.5L159.9 526.5L159.9 528.1L162.7 528.1Q163.8 528.1 164.5 528.7Q165.2 529.4 165.2 530.6Q165.2 531.7 164.5 532.4Q163.8 533.1 162.7 533.1L162.7 533.1L160.0 533.1L160.0 550.0Q160.0 551.7 159.1 552.6ZM170.3 546.6L170.3 546.6L170.3 533.1L168.9 533.1Q167.7 533.1 167.0 532.4Q166.3 531.7 166.3 530.5Q166.3 529.3 167.0 528.6Q167.7 527.9 168.9 527.9L168.9 527.9L170.3 527.9L170.3 525.1Q170.3 523.5 171.2 522.5Q172.1 521.6 173.7 521.6Q175.3 521.6 176.2 522.5Q177.1 523.5 177.1 525.1L177.1 525.1L177.1 527.9L179.5 527.9Q180.7 527.9 181.4 528.6Q182.1 529.3 182.1 530.5Q182.1 531.7 181.4 532.4Q180.7 533.1 179.5 533.1L179.5 533.1L177.1 533.1L177.1 545.1Q177.1 546.5 177.6 547.1Q178.1 547.7 179.2 547.8L179.2 547.8L179.6 547.8Q180.9 548.0 181.6 548.5Q182.2 549.1 182.2 550.3L182.2 550.3Q182.2 551.8 180.9 552.6Q179.6 553.3 177.4 553.3L177.4 553.3L177.1 553.3Q170.3 553.3 170.3 546.6ZM197.0 553.6L197.0 553.6Q191.2 553.6 187.9 550.2Q184.6 546.7 184.6 540.6L184.6 540.6Q184.6 534.5 187.9 531.0Q191.1 527.4 196.7 527.4L196.7 527.4Q202.0 527.4 205.3 530.7Q208.6 533.9 208.6 539.1L208.6 539.1Q208.6 540.5 207.9 541.3Q207.1 542.1 205.6 542.1L205.6 542.1L191.3 542.1L191.3 542.4Q191.3 545.2 192.9 546.9Q194.4 548.5 197.0 548.5L197.0 548.5Q198.9 548.5 200.3 547.8Q201.6 547.2 203.0 545.5L203.0 545.5Q204.0 544.5 205.3 544.5L205.3 544.5Q206.4 544.5 207.2 545.2Q207.9 545.9 207.9 547.0L207.9 547.0Q207.9 547.8 207.5 548.7L207.5 548.7Q206.2 551 203.4 552.3Q200.7 553.6 197.0 553.6ZM191.4 537.9L191.4 537.9L202.0 537.9Q201.9 535.4 200.5 533.9Q199.0 532.5 196.8 532.5Q194.5 532.5 193.1 534.0Q191.6 535.5 191.4 537.9ZM215.6 553.6L215.6 553.6Q214.0 553.6 213.1 552.6Q212.1 551.7 212.1 550.0L212.1 550.0L212.1 530.9Q212.1 529.3 213.0 528.3Q213.9 527.4 215.4 527.4L215.4 527.4Q216.9 527.4 217.8 528.3Q218.7 529.3 218.7 530.9L218.7 530.9L218.7 532.5L218.8 532.5Q219.3 530.2 220.7 528.9Q222.1 527.5 224.0 527.5L224.0 527.5Q225.4 527.5 226.2 528.2L226.2 528.2Q227.2 528.9 227.2 530.7L227.2 530.7Q227.2 532.3 226.2 533.2L226.2 533.2Q225.2 534.0 223.2 534.1L223.2 534.1Q221.0 534.1 220.0 535.3Q219.0 536.5 219.0 538.8L219.0 538.8L219.0 550.0Q219.0 551.7 218.1 552.6Q217.2 553.6 215.6 553.6ZM242.6 553.6L242.6 553.6Q237.5 553.6 234.1 551.8Q230.8 550.0 229.7 547.1L229.7 547.1Q229.4 546.1 229.4 545.2L229.4 545.2Q229.4 543.8 230.2 543.0Q231.1 542.1 232.5 542.1L232.5 542.1Q233.6 542.1 234.3 542.6Q235.1 543.1 235.7 544.2L235.7 544.2Q236.5 546.1 238.4 547.0Q240.2 547.9 242.7 547.9L242.7 547.9Q245.6 547.9 247.3 546.7Q249.1 545.5 249.1 543.6L249.1 543.6Q249.1 541.9 247.8 540.9Q246.4 539.9 243.3 539.3L243.3 539.3L239.7 538.6Q229.6 536.6 229.6 528.9L229.6 528.9Q229.6 525.9 231.3 523.5Q232.9 521.2 235.9 519.9Q238.8 518.7 242.5 518.7L242.5 518.7Q247.2 518.7 250.5 520.5Q253.8 522.4 254.9 525.7L254.9 525.7Q255.1 526.4 255.1 527.2L255.1 527.2Q255.1 528.5 254.3 529.3Q253.5 530.1 252.1 530.1L252.1 530.1Q250.9 530.1 250.1 529.6Q249.4 529.1 248.8 528.0L248.8 528.0Q247.2 524.4 242.5 524.4L242.5 524.4Q239.9 524.4 238.3 525.5Q236.7 526.6 236.7 528.5L236.7 528.5Q236.7 530.1 238.1 531.1Q239.4 532.1 242.4 532.7L242.4 532.7L245.9 533.4Q251.3 534.5 253.7 536.7Q256.2 539.0 256.2 542.8L256.2 542.8Q256.2 547.8 252.5 550.7Q248.9 553.6 242.6 553.6ZM266.0 552.6Q265.0 553.6 263.5 553.6Q261.9 553.6 261.0 552.6Q260.1 551.7 260.1 550.0L260.1 550.0L260.1 522.2Q260.1 520.6 261.0 519.7Q261.9 518.7 263.4 518.7L263.4 518.7Q265.0 518.7 265.9 519.7Q266.8 520.6 266.8 522.2L266.8 522.2L266.8 532.4L266.9 532.4Q267.9 530.0 270.0 528.7Q272 527.5 274.8 527.5L274.8 527.5Q279.0 527.5 281.3 530.0Q283.6 532.5 283.6 536.9L283.6 536.9L283.6 550.0Q283.6 551.7 282.7 552.6Q281.7 553.6 280.2 553.6Q278.6 553.6 277.7 552.6Q276.8 551.7 276.8 550.0L276.8 550.0L276.8 538.3Q276.8 535.9 275.6 534.5Q274.3 533.1 272.0 533.1L272.0 533.1Q269.7 533.1 268.3 534.7Q266.9 536.2 266.9 538.7L266.9 538.7L266.9 550.0Q266.9 551.7 266.0 552.6ZM294.1 523.8Q293.0 524.8 291.5 524.8Q290.0 524.8 288.9 523.8Q287.8 522.8 287.8 521.3L287.8 521.3Q287.8 519.8 288.9 518.8Q290.0 517.7 291.5 517.7Q293.0 517.7 294.1 518.8Q295.2 519.8 295.2 521.3L295.2 521.3Q295.2 522.8 294.1 523.8ZM294.0 552.6Q293.1 553.6 291.5 553.6Q289.9 553.6 289.0 552.6Q288.1 551.7 288.1 550.0L288.1 550.0L288.1 531.0Q288.1 529.3 289.0 528.4Q289.9 527.4 291.5 527.4Q293.1 527.4 294.0 528.4Q294.9 529.3 294.9 531.0L294.9 531.0L294.9 550.0Q294.9 551.7 294.0 552.6ZM307.2 552.6Q306.3 553.6 304.7 553.6Q303.1 553.6 302.2 552.6Q301.3 551.7 301.3 550.0L301.3 550.0L301.3 533.1L300.0 533.1Q298.9 533.1 298.2 532.4Q297.5 531.7 297.5 530.6Q297.5 529.4 298.2 528.7Q298.9 528.1 300.0 528.1L300.0 528.1L301.3 528.1L301.3 526.2Q301.3 522.5 303.1 520.7Q304.9 519.0 308.5 518.9L308.5 518.9Q311.1 518.9 312.4 519.7Q313.6 520.4 313.6 521.7L313.6 521.7Q313.6 523.1 312.2 523.5L312.2 523.5Q311.6 523.7 310.9 523.7L310.9 523.7Q309.4 523.7 308.7 524.4Q308.0 525.1 308.0 526.5L308.0 526.5L308.0 528.1L310.9 528.1Q312.0 528.1 312.7 528.7Q313.4 529.4 313.4 530.6Q313.4 531.7 312.7 532.4Q312.0 533.1 310.9 533.1L310.9 533.1L308.1 533.1L308.1 550.0Q308.1 551.7 307.2 552.6ZM318.4 546.6L318.4 546.6L318.4 533.1L317.1 533.1Q315.9 533.1 315.1 532.4Q314.4 531.7 314.4 530.5Q314.4 529.3 315.1 528.6Q315.9 527.9 317.1 527.9L317.1 527.9L318.4 527.9L318.4 525.1Q318.4 523.5 319.3 522.5Q320.2 521.6 321.8 521.6Q323.4 521.6 324.3 522.5Q325.2 523.5 325.2 525.1L325.2 525.1L325.2 527.9L327.6 527.9Q328.9 527.9 329.6 528.6Q330.3 529.3 330.3 530.5Q330.3 531.7 329.6 532.4Q328.9 533.1 327.6 533.1L327.6 533.1L325.2 533.1L325.2 545.1Q325.2 546.5 325.7 547.1Q326.2 547.7 327.3 547.8L327.3 547.8L327.8 547.8Q329.1 548.0 329.7 548.5Q330.4 549.1 330.4 550.3L330.4 550.3Q330.4 551.8 329.0 552.6Q327.7 553.3 325.5 553.3L325.5 553.3L325.3 553.3Q318.4 553.3 318.4 546.6Z "/><mask id="satori_om-id-0-1-1"><rect x="924" y="524" width="236" height="36" fill="#fff"/></mask><path fill="#8e8e8e" d="M927.9 552.6Q927.5 552.9 927.0 552.9Q926.4 552.9 926.1 552.6Q925.8 552.2 925.8 551.7L925.8 551.7L925.8 532.6Q925.8 532.0 926.1 531.6Q926.5 531.3 927.1 531.3Q927.6 531.3 928.0 531.6Q928.3 532.0 928.3 532.6L928.3 532.6L928.3 540.0L928.4 540.0Q929.1 538.7 930.4 537.9Q931.7 537.2 933.3 537.2L933.3 537.2Q936.2 537.2 937.9 539.3Q939.7 541.5 939.7 545.0L939.7 545.0Q939.7 548.6 937.9 550.8Q936.2 552.9 933.2 552.9L933.2 552.9Q931.6 552.9 930.3 552.2Q929.0 551.4 928.3 550.1L928.3 550.1L928.2 550.1L928.2 551.7Q928.2 552.2 927.9 552.6ZM932.7 550.7L932.7 550.7Q934.8 550.7 935.9 549.2Q937.1 547.7 937.1 545.0L937.1 545.0Q937.1 542.5 935.9 540.9Q934.8 539.4 932.7 539.4L932.7 539.4Q930.8 539.4 929.6 541.0Q928.3 542.5 928.3 545.0L928.3 545.0Q928.3 547.6 929.6 549.1Q930.8 550.7 932.7 550.7ZM943.8 558.4L943.8 558.4Q942.9 558.4 942.4 558.0Q941.9 557.7 941.9 557.1L941.9 557.1Q941.9 556.7 942.1 556.4Q942.4 556.2 942.9 556.2L942.9 556.2Q943.1 556.2 943.3 556.2Q943.5 556.2 943.7 556.2L943.7 556.2Q945.4 556.2 946.2 553.7L946.2 553.7L946.6 552.7L941.3 539.0Q941.2 538.6 941.2 538.3L941.2 538.3Q941.2 537.8 941.6 537.5Q941.9 537.2 942.5 537.2L942.5 537.2Q943.4 537.2 943.7 538.1L943.7 538.1L947.9 550.1L948.0 550.1L952.2 538.1Q952.3 537.6 952.6 537.4Q952.9 537.2 953.4 537.2L953.4 537.2Q953.9 537.2 954.3 537.5Q954.6 537.8 954.6 538.3L954.6 538.3Q954.6 538.6 954.5 539.0L954.5 539.0L948.9 553.7Q947.9 556.4 946.8 557.4Q945.7 558.4 943.8 558.4Z M965.7 552.5Q965.3 552.9 964.7 552.9Q964.1 552.9 963.8 552.5Q963.4 552.1 963.4 551.5L963.4 551.5L963.4 532.9Q963.4 532.3 963.8 531.9Q964.1 531.5 964.7 531.5L964.7 531.5L970.9 531.5Q973.9 531.5 975.8 533.4Q977.7 535.3 977.7 538.3L977.7 538.3Q977.7 541.3 975.8 543.2Q973.9 545.1 970.9 545.1L970.9 545.1L966.0 545.1L966.0 551.5Q966.0 552.1 965.7 552.5ZM966.0 533.9L966.0 542.8L970.3 542.8Q972.5 542.8 973.8 541.6Q975.0 540.4 975.0 538.3Q975.0 536.2 973.8 535.0Q972.5 533.9 970.3 533.9L970.3 533.9L966.0 533.9ZM984.8 552.9L984.8 552.9Q982.5 552.9 981.1 551.7Q979.7 550.4 979.7 548.4L979.7 548.4Q979.7 546.4 981.2 545.2Q982.6 544.1 985.2 543.9L985.2 543.9L989.6 543.7L989.6 542.4Q989.6 541.0 988.7 540.2Q987.9 539.4 986.3 539.4L986.3 539.4Q985.0 539.4 984.1 539.9Q983.3 540.4 982.6 541.5L982.6 541.5Q982.3 542.1 981.6 542.1L981.6 542.1Q981.1 542.1 980.8 541.8Q980.5 541.5 980.5 541.0Q980.5 540.5 980.8 539.9L980.8 539.9Q981.4 538.7 982.9 537.9Q984.5 537.2 986.3 537.2L986.3 537.2Q989.0 537.2 990.6 538.5Q992.2 539.9 992.2 542.1L992.2 542.1L992.2 551.6Q992.2 552.2 991.8 552.6Q991.5 552.9 991.0 552.9L991.0 552.9Q990.4 552.9 990.1 552.6Q989.7 552.2 989.7 551.6L989.7 551.6L989.7 550.0L989.7 550.0Q989.0 551.3 987.7 552.1Q986.3 552.9 984.8 552.9ZM985.3 550.8L985.3 550.8Q987.1 550.8 988.4 549.6Q989.6 548.5 989.6 546.9L989.6 546.9L989.6 545.6L985.5 545.9Q984.0 546.0 983.1 546.6Q982.3 547.3 982.3 548.4Q982.3 549.4 983.1 550.1Q984.0 550.8 985.3 550.8ZM996.2 549.1L996.2 549.1L996.2 539.5L994.9 539.5Q994.4 539.5 994.1 539.3Q993.8 539.0 993.8 538.5L993.8 538.5Q993.8 538.0 994.1 537.7Q994.4 537.4 994.9 537.4L994.9 537.4L996.2 537.4L996.2 534.8Q996.2 534.2 996.6 533.8Q996.9 533.5 997.5 533.5Q998.0 533.5 998.4 533.8Q998.8 534.2 998.8 534.8L998.8 534.8L998.8 537.4L1000.7 537.4Q1001.3 537.4 1001.6 537.7Q1001.9 538.0 1001.9 538.5L1001.9 538.5Q1001.9 539.0 1001.6 539.3Q1001.3 539.5 1000.7 539.5L1000.7 539.5L998.8 539.5L998.8 548.6Q998.8 549.6 999.2 550.0Q999.6 550.5 1000.5 550.6L1000.5 550.6L1000.7 550.6Q1001.9 550.7 1001.9 551.6L1001.9 551.6Q1001.9 552.2 1001.5 552.5Q1001.1 552.8 1000.1 552.8L1000.1 552.8L999.9 552.8Q996.2 552.8 996.2 549.1ZM1006.6 552.5Q1006.3 552.9 1005.7 552.9Q1005.2 552.9 1004.8 552.5Q1004.4 552.2 1004.4 551.6L1004.4 551.6L1004.4 538.5Q1004.4 537.9 1004.8 537.5Q1005.1 537.2 1005.6 537.2Q1006.2 537.2 1006.5 537.5Q1006.8 537.9 1006.8 538.5L1006.8 538.5L1006.8 539.9L1006.9 539.9Q1007.2 538.7 1008.2 537.9Q1009.2 537.2 1010.4 537.2L1010.4 537.2Q1011.2 537.2 1011.6 537.5L1011.6 537.5Q1011.9 537.8 1011.9 538.4L1011.9 538.4Q1011.9 539.0 1011.5 539.3L1011.5 539.3Q1011.1 539.6 1010.3 539.6L1010.3 539.6Q1008.6 539.6 1007.8 540.6Q1007.0 541.6 1007.0 543.2L1007.0 543.2L1007.0 551.6Q1007.0 552.2 1006.6 552.5ZM1015.1 534.9L1015.1 534.9Q1014.4 534.9 1014.0 534.4Q1013.5 533.9 1013.5 533.3L1013.5 533.3Q1013.5 532.6 1014.0 532.2Q1014.4 531.7 1015.1 531.7L1015.1 531.7Q1015.7 531.7 1016.2 532.2Q1016.7 532.6 1016.7 533.3L1016.7 533.3Q1016.7 533.9 1016.2 534.4Q1015.7 534.9 1015.1 534.9ZM1016.0 552.5Q1015.6 552.9 1015.1 552.9Q1014.5 552.9 1014.2 552.5Q1013.8 552.2 1013.8 551.6L1013.8 551.6L1013.8 538.5Q1013.8 537.9 1014.2 537.5Q1014.5 537.2 1015.1 537.2Q1015.6 537.2 1016.0 537.5Q1016.4 537.9 1016.4 538.5L1016.4 538.5L1016.4 551.6Q1016.4 552.2 1016.0 552.5ZM1026.1 552.9L1026.1 552.9Q1022.9 552.9 1021.0 550.8Q1019.1 548.7 1019.1 545.1Q1019.1 541.5 1021.0 539.3Q1022.9 537.2 1026.1 537.2L1026.1 537.2Q1028.2 537.2 1029.9 538.2Q1031.6 539.3 1032.0 540.9L1032.0 540.9Q1032.1 541.2 1032.1 541.4L1032.1 541.4Q1032.1 542.0 1031.8 542.3Q1031.5 542.6 1031.0 542.6L1031.0 542.6Q1030.6 542.6 1030.3 542.4Q1030.1 542.2 1029.8 541.7L1029.8 541.7Q1028.6 539.4 1026.1 539.4L1026.1 539.4Q1024.1 539.4 1022.9 541.0Q1021.6 542.5 1021.6 545.0L1021.6 545.0Q1021.6 547.6 1022.9 549.2Q1024.1 550.7 1026.1 550.7L1026.1 550.7Q1027.4 550.7 1028.3 550.1Q1029.2 549.6 1029.8 548.4L1029.8 548.4Q1030.1 547.9 1030.3 547.7Q1030.6 547.5 1031.0 547.5L1031.0 547.5Q1031.5 547.5 1031.8 547.8Q1032.1 548.2 1032.1 548.7L1032.1 548.7Q1032.1 548.9 1032.0 549.3L1032.0 549.3Q1031.4 550.9 1029.8 551.9Q1028.2 552.9 1026.1 552.9ZM1041.2 552.9L1041.2 552.9Q1037.8 552.9 1036.0 550.9Q1034.1 548.8 1034.1 545.1L1034.1 545.1Q1034.1 541.5 1036.0 539.3Q1037.8 537.2 1041.0 537.2L1041.0 537.2Q1043.9 537.2 1045.8 539.1Q1047.6 541.1 1047.6 544.3L1047.6 544.3Q1047.6 544.9 1047.3 545.3Q1046.9 545.7 1046.2 545.7L1046.2 545.7L1036.7 545.7Q1036.7 548.0 1037.9 549.4Q1039.1 550.7 1041.1 550.7L1041.1 550.7Q1042.5 550.7 1043.4 550.2Q1044.3 549.6 1045.2 548.3L1045.2 548.3Q1045.6 547.8 1046.2 547.8L1046.2 547.8Q1046.7 547.8 1047.0 548.1Q1047.3 548.4 1047.3 548.9L1047.3 548.9Q1047.3 549.2 1047.1 549.7L1047.1 549.7Q1046.4 551.2 1044.8 552.1Q1043.3 552.9 1041.2 552.9ZM1036.7 543.7L1036.7 543.7L1045.0 543.7Q1045.0 541.8 1043.8 540.6Q1042.7 539.4 1041.0 539.4L1041.0 539.4Q1039.2 539.4 1038.0 540.6Q1036.8 541.8 1036.7 543.7Z M1059.0 552.5Q1058.7 552.9 1058.1 552.9Q1057.5 552.9 1057.1 552.5Q1056.7 552.1 1056.7 551.5L1056.7 551.5L1056.7 532.7Q1056.7 532.1 1057.1 531.7Q1057.5 531.3 1058.1 531.3Q1058.7 531.3 1059.0 531.7Q1059.4 532.1 1059.4 532.7L1059.4 532.7L1059.4 541.8L1059.5 541.8L1068.9 531.8Q1069.4 531.3 1070.0 531.3L1070.0 531.3Q1070.5 531.3 1070.9 531.7Q1071.2 532.0 1071.2 532.5L1071.2 532.5Q1071.2 533.0 1070.9 533.3L1070.9 533.3L1063.6 540.9L1071.7 550.6Q1072.1 551.1 1072.1 551.6L1072.1 551.6Q1072.1 552.2 1071.7 552.5Q1071.3 552.9 1070.8 552.9L1070.8 552.9Q1070.1 552.9 1069.6 552.2L1069.6 552.2L1061.7 542.8L1059.4 545.3L1059.4 551.5Q1059.4 552.1 1059.0 552.5ZM1081.2 552.9L1081.2 552.9Q1077.8 552.9 1075.9 550.9Q1074.1 548.8 1074.1 545.1L1074.1 545.1Q1074.1 541.5 1075.9 539.3Q1077.8 537.2 1081.0 537.2L1081.0 537.2Q1083.9 537.2 1085.8 539.1Q1087.6 541.1 1087.6 544.3L1087.6 544.3Q1087.6 544.9 1087.2 545.3Q1086.9 545.7 1086.2 545.7L1086.2 545.7L1076.7 545.7Q1076.7 548.0 1077.9 549.4Q1079.1 550.7 1081.1 550.7L1081.1 550.7Q1082.5 550.7 1083.4 550.2Q1084.3 549.6 1085.2 548.3L1085.2 548.3Q1085.6 547.8 1086.2 547.8L1086.2 547.8Q1086.7 547.8 1087.0 548.1Q1087.3 548.4 1087.3 548.9L1087.3 548.9Q1087.3 549.2 1087.1 549.7L1087.1 549.7Q1086.4 551.2 1084.8 552.1Q1083.3 552.9 1081.2 552.9ZM1076.7 543.7L1076.7 543.7L1085.0 543.7Q1084.9 541.8 1083.8 540.6Q1082.7 539.4 1080.9 539.4L1080.9 539.4Q1079.1 539.4 1078.0 540.6Q1076.8 541.8 1076.7 543.7ZM1092.4 552.5Q1092.0 552.9 1091.4 552.9Q1090.9 552.9 1090.5 552.5Q1090.2 552.2 1090.2 551.6L1090.2 551.6L1090.2 538.5Q1090.2 537.9 1090.5 537.5Q1090.8 537.2 1091.4 537.2Q1091.9 537.2 1092.2 537.5Q1092.6 537.9 1092.6 538.5L1092.6 538.5L1092.6 539.9L1092.6 539.9Q1093.3 538.6 1094.5 537.9Q1095.8 537.2 1097.5 537.2L1097.5 537.2Q1100.0 537.2 1101.3 538.7Q1102.7 540.2 1102.7 542.8L1102.7 542.8L1102.7 551.6Q1102.7 552.2 1102.4 552.5Q1102.0 552.9 1101.5 552.9Q1100.9 552.9 1100.6 552.5Q1100.2 552.2 1100.2 551.6L1100.2 551.6L1100.2 543.2Q1100.2 541.4 1099.3 540.4Q1098.4 539.4 1096.7 539.4L1096.7 539.4Q1094.9 539.4 1093.8 540.6Q1092.7 541.8 1092.7 543.7L1092.7 543.7L1092.7 551.6Q1092.7 552.2 1092.4 552.5ZM1108.2 552.5Q1107.8 552.9 1107.3 552.9Q1106.7 552.9 1106.3 552.5Q1106.0 552.2 1106.0 551.6L1106.0 551.6L1106.0 538.5Q1106.0 537.9 1106.3 537.5Q1106.7 537.2 1107.2 537.2Q1107.7 537.2 1108.0 537.5Q1108.4 537.9 1108.4 538.5L1108.4 538.5L1108.4 539.9L1108.4 539.9Q1109.0 538.6 1110.1 537.9Q1111.3 537.2 1112.8 537.2L1112.8 537.2Q1114.3 537.2 1115.4 537.9Q1116.5 538.7 1117.0 540.1L1117.0 540.1L1117.1 540.1Q1117.7 538.7 1119.0 537.9Q1120.3 537.2 1121.9 537.2L1121.9 537.2Q1124.1 537.2 1125.5 538.5Q1126.8 539.9 1126.8 542.1L1126.8 542.1L1126.8 551.6Q1126.8 552.2 1126.5 552.5Q1126.1 552.9 1125.6 552.9Q1125.0 552.9 1124.6 552.5Q1124.3 552.2 1124.3 551.6L1124.3 551.6L1124.3 542.7Q1124.3 541.2 1123.5 540.3Q1122.6 539.4 1121.1 539.4Q1119.6 539.4 1118.6 540.4Q1117.7 541.4 1117.7 543.0L1117.7 543.0L1117.7 551.6Q1117.7 552.2 1117.3 552.5Q1117.0 552.9 1116.4 552.9Q1115.8 552.9 1115.5 552.5Q1115.1 552.2 1115.1 551.6L1115.1 551.6L1115.1 542.5Q1115.1 541.1 1114.3 540.2Q1113.4 539.4 1112.0 539.4L1112.0 539.4Q1110.5 539.4 1109.5 540.5Q1108.5 541.5 1108.5 543.1L1108.5 543.1L1108.5 551.6Q1108.5 552.2 1108.2 552.5ZM1136.4 552.9L1136.4 552.9Q1133.2 552.9 1131.3 550.8Q1129.3 548.7 1129.3 545.0Q1129.3 541.4 1131.3 539.3Q1133.2 537.2 1136.4 537.2L1136.4 537.2Q1139.6 537.2 1141.5 539.3Q1143.4 541.4 1143.4 545.0L1143.4 545.0Q1143.4 548.7 1141.5 550.8Q1139.6 552.9 1136.4 552.9ZM1133.1 549.2Q1134.3 550.7 1136.4 550.7Q1138.4 550.7 1139.6 549.2Q1140.8 547.7 1140.8 545.0Q1140.8 542.4 1139.6 540.9Q1138.4 539.4 1136.4 539.4Q1134.3 539.4 1133.1 540.9Q1131.9 542.4 1131.9 545.0Q1131.9 547.7 1133.1 549.2ZM1152.5 535.6L1152.5 535.6Q1152.1 535.6 1151.9 535.4Q1151.6 535.2 1151.6 534.8Q1151.6 534.5 1151.8 534.2L1151.8 534.2L1154.0 531.1Q1154.3 530.6 1154.6 530.5Q1154.8 530.3 1155.1 530.3L1155.1 530.3Q1155.6 530.3 1155.9 530.6Q1156.2 530.9 1156.2 531.3L1156.2 531.3Q1156.2 531.7 1155.9 532.1L1155.9 532.1L1153.4 535.1Q1153.0 535.6 1152.5 535.6ZM1152.4 552.9L1152.4 552.9Q1149.0 552.9 1147.1 550.9Q1145.3 548.8 1145.3 545.1L1145.3 545.1Q1145.3 541.5 1147.1 539.3Q1149.0 537.2 1152.2 537.2L1152.2 537.2Q1155.1 537.2 1156.9 539.1Q1158.8 541.1 1158.8 544.3L1158.8 544.3Q1158.8 544.9 1158.4 545.3Q1158.1 545.7 1157.4 545.7L1157.4 545.7L1147.9 545.7Q1147.9 548.0 1149.1 549.4Q1150.2 550.7 1152.3 550.7L1152.3 550.7Q1153.6 550.7 1154.6 550.2Q1155.5 549.6 1156.4 548.3L1156.4 548.3Q1156.8 547.8 1157.3 547.8L1157.3 547.8Q1157.9 547.8 1158.2 548.1Q1158.5 548.4 1158.5 548.9L1158.5 548.9Q1158.5 549.2 1158.3 549.7L1158.3 549.7Q1157.6 551.2 1156.0 552.1Q1154.5 552.9 1152.4 552.9ZM1147.9 543.7L1147.9 543.7L1156.2 543.7Q1156.1 541.8 1155.0 540.6Q1153.9 539.4 1152.1 539.4L1152.1 539.4Q1150.3 539.4 1149.2 540.6Q1148.0 541.8 1147.9 543.7Z "/></svg>