<svg width="1200" height="630" viewBox="0 0 1200 630" xmlns="http://www.w3.org/2000/svg"><mask id="satori_om-id"><rect x="0" y="0" width="1200" height="630" fill="#fff"/></mask><mask id="satori_om-id-0"><rect x="0" y="0" width="1200" height="630" fill="#fff"/></mask><rect x="0" y="0" width="1200" height="630" fill="#f2f2f2"/><mask id="satori_om-id-0-0"><rect x="0" y="0" width="1200" height="441" fill="#fff"/></mask><mask id="satori_om-id-0-0-0"><rect x="40" y="136" width="1120" height="36" fill="#fff"/></mask><path fill="#8e8e8e" d="M49.2 165.0L49.2 165.0Q46.2 165.0 44.1 163.9Q42.1 162.7 41.4 160.8L41.4 160.8Q41.2 160.2 41.2 159.8L41.2 159.8Q41.2 159.0 41.6 158.6Q42.1 158.2 42.7 158.2L42.7 158.2Q43.8 158.2 44.3 159.3L44.3 159.3Q44.8 160.8 46.1 161.5Q47.4 162.2 49.3 162.2L49.3 162.2Q51.3 162.2 52.6 161.3Q53.9 160.4 53.9 159.0L53.9 159.0Q53.9 157.7 53.0 156.9Q52.1 156.1 50.0 155.7L50.0 155.7L47.6 155.2Q44.5 154.5 43.0 153.1Q41.5 151.6 41.5 149.3L41.5 149.3Q41.5 146.6 43.7 144.9Q45.8 143.2 49.2 143.2L49.2 143.2Q51.9 143.2 53.9 144.4Q55.9 145.6 56.5 147.7L56.5 147.7Q56.6 148.0 56.6 148.5L56.6 148.5Q56.6 149.1 56.2 149.5Q55.8 149.9 55.2 149.9L55.2 149.9Q54.1 149.9 53.6 148.8L53.6 148.8Q52.6 146.0 49.1 146.0L49.1 146.0Q47.3 146.0 46.0 146.8Q44.8 147.7 44.8 149.1L44.8 149.1Q44.8 150.3 45.7 151.1Q46.7 151.8 48.7 152.3L48.7 152.3L51.0 152.7Q54.3 153.4 55.8 154.8Q57.2 156.2 57.2 158.5L57.2 158.5Q57.2 161.5 55.0 163.3Q52.9 165.0 49.2 165.0ZM65.1 164.9L65.1 164.9Q62.6 164.9 61.2 163.4Q59.7 161.9 59.7 159.2L59.7 159.2L59.7 150.7Q59.7 149.9 60.1 149.4Q60.6 149.0 61.3 149.0L61.3 149.0Q62.0 149.0 62.4 149.4Q62.9 149.9 62.9 150.7L62.9 150.7L62.9 158.6Q62.9 160.4 63.7 161.3Q64.6 162.2 66.2 162.2L66.2 162.2Q67.9 162.2 68.9 161.1Q69.8 160.0 69.8 158.2L69.8 158.2L69.8 150.7Q69.8 149.9 70.3 149.4Q70.7 149.0 71.4 149.0L71.4 149.0Q72.1 149.0 72.6 149.4Q73.0 149.9 73.0 150.7L73.0 150.7L73.0 163.3Q73.0 164.1 72.6 164.5Q72.2 164.9 71.5 164.9Q70.8 164.9 70.4 164.5Q70.0 164.1 70.0 163.3L70.0 163.3L70.0 162.1L69.9 162.1Q68.6 164.9 65.1 164.9ZM77.7 164.9L77.7 164.9Q77.0 164.9 76.6 164.5Q76.1 164.0 76.1 163.3L76.1 163.3L76.1 150.6Q76.1 149.8 76.5 149.4Q76.9 149.0 77.6 149.0Q78.3 149.0 78.7 149.4Q79.2 149.9 79.2 150.6L79.2 150.6L79.2 151.8L79.2 151.8Q80.6 149.0 84.1 149.0L84.1 149.0Q86.6 149.0 88.0 150.5Q89.4 152.0 89.4 154.7L89.4 154.7L89.4 163.3Q89.4 164.0 89.0 164.5Q88.5 164.9 87.8 164.9L87.8 164.9Q87.1 164.9 86.7 164.5Q86.2 164.0 86.2 163.3L86.2 163.3L86.2 155.3Q86.2 153.5 85.4 152.6Q84.6 151.7 82.9 151.7L82.9 151.7Q81.3 151.7 80.3 152.8Q79.3 153.9 79.3 155.7L79.3 155.7L79.3 163.3Q79.3 164.0 78.8 164.5Q78.4 164.9 77.7 164.9ZM98.2 164.9L98.2 164.9Q95.3 164.9 93.5 162.8Q91.8 160.6 91.8 157.0Q91.8 153.3 93.5 151.2Q95.3 149.0 98.2 149.0L98.2 149.0Q99.8 149.0 101.1 149.8Q102.4 150.5 103.0 151.8L103.0 151.8L103.1 151.8L103.1 144.9Q103.1 144.1 103.5 143.7Q104.0 143.2 104.7 143.2L104.7 143.2Q105.4 143.2 105.8 143.7Q106.3 144.2 106.3 144.9L106.3 144.9L106.3 163.4Q106.3 164.1 105.9 164.5Q105.4 164.9 104.7 164.9L104.7 164.9Q104.0 164.9 103.6 164.5Q103.1 164.1 103.1 163.4L103.1 163.4L103.1 161.9L103.1 161.9Q102.4 163.3 101.2 164.1Q100.0 164.9 98.2 164.9ZM99.1 162.2L99.1 162.2Q100.9 162.2 102.0 160.8Q103.1 159.4 103.1 157.0L103.1 157.0Q103.1 154.6 102.0 153.1Q100.9 151.7 99.1 151.7L99.1 151.7Q97.2 151.7 96.1 153.1Q95.0 154.5 95.0 157.0L95.0 157.0Q95.0 159.4 96.1 160.8Q97.2 162.2 99.1 162.2ZM114.0 164.9L114.0 164.9Q111.8 164.9 110.3 163.6Q108.9 162.3 108.9 160.3L108.9 160.3Q108.9 158.3 110.4 157.1Q111.9 155.9 114.6 155.7L114.6 155.7L118.9 155.5L118.9 154.3Q118.9 153.0 118.0 152.3Q117.2 151.6 115.8 151.6L115.8 151.6Q114.6 151.6 113.8 152.0Q113.0 152.5 112.3 153.5L112.3 153.5Q111.9 154.2 111.1 154.2L111.1 154.2Q110.5 154.2 110.1 153.8Q109.7 153.4 109.7 152.9L109.7 152.9Q109.7 152.3 110.0 151.8L110.0 151.8Q110.6 150.5 112.2 149.8Q113.8 149.0 115.9 149.0L115.9 149.0Q118.7 149.0 120.3 150.4Q122.0 151.7 122.0 154.0L122.0 154.0L122.0 163.3Q122.0 164.1 121.6 164.5Q121.2 164.9 120.5 164.9L120.5 164.9Q119.8 164.9 119.4 164.5Q119.0 164.1 119.0 163.4L119.0 163.4L119.0 162.1L118.9 162.1Q118.2 163.4 116.9 164.2Q115.6 164.9 114.0 164.9ZM114.9 162.4L114.9 162.4Q116.6 162.4 117.7 161.4Q118.9 160.4 118.9 158.9L118.9 158.9L118.9 157.7L115.0 157.9Q113.6 158.0 112.9 158.6Q112.1 159.2 112.1 160.2L112.1 160.2Q112.1 161.2 112.9 161.8Q113.6 162.4 114.9 162.4ZM127.0 170.4L127.0 170.4Q125.9 170.4 125.3 170.0Q124.7 169.6 124.7 168.9L124.7 168.9Q124.7 168.4 125.0 168.1Q125.4 167.8 125.9 167.8L125.9 167.8Q126.1 167.8 126.3 167.8Q126.6 167.8 126.7 167.8L126.7 167.8Q128.3 167.8 129.1 165.7L129.1 165.7L129.4 164.8L124.2 151.3Q124.1 150.9 124.1 150.4L124.1 150.4Q124.1 149.8 124.5 149.4Q125.0 149.0 125.7 149.0L125.7 149.0Q126.3 149.0 126.6 149.3Q127.0 149.5 127.2 150.2L127.2 150.2L131.1 161.8L131.2 161.8L135.1 150.2Q135.3 149.5 135.6 149.3Q136.0 149.0 136.6 149.0L136.6 149.0Q137.3 149.0 137.7 149.4Q138.1 149.8 138.1 150.4L138.1 150.4Q138.1 150.8 138.0 151.3L138.0 151.3L132.6 165.4Q131.6 168.2 130.4 169.3Q129.1 170.4 127.0 170.4ZM142.6 161.1L142.6 161.1Q143.3 161.1 143.7 161.5Q144.1 161.8 144.1 162.4L144.1 162.4Q144.1 162.8 144.0 163.3L144.0 163.3L142.7 168.3Q142.4 169.4 141.4 169.4L141.4 169.4Q140.8 169.4 140.5 169.1Q140.1 168.7 140.1 168.2L140.1 168.2Q140.1 168.1 140.2 167.8L140.2 167.8L141.1 162.4Q141.3 161.1 142.6 161.1Z M161.2 164.9L161.2 164.9Q160.5 164.9 160.1 164.5Q159.6 164.0 159.6 163.3L159.6 163.3L159.6 146.9L159.5 146.9L155.9 149.4Q155.4 149.7 154.9 149.7L154.9 149.7Q154.4 149.7 154.0 149.4Q153.7 149.0 153.7 148.5L153.7 148.5Q153.7 147.7 154.5 147.1L154.5 147.1L158.9 144.0Q159.5 143.6 160.0 143.4Q160.4 143.2 161.0 143.2L161.0 143.2Q161.8 143.2 162.3 143.7Q162.8 144.2 162.8 145.1L162.8 145.1L162.8 163.3Q162.8 164.0 162.4 164.5Q161.9 164.9 161.2 164.9ZM175.6 165.1L175.6 165.1Q172.1 165.1 169.9 163.3Q167.6 161.6 167.6 159.0L167.6 159.0Q167.6 156.9 168.9 155.5Q170.2 154.0 172.3 153.5L172.3 153.5L172.3 153.5Q170.5 152.9 169.4 151.7Q168.4 150.4 168.4 148.7L168.4 148.7Q168.4 146.3 170.4 144.7Q172.5 143.1 175.6 143.1L175.6 143.1Q178.8 143.1 180.8 144.7Q182.8 146.3 182.8 148.8L182.8 148.8Q182.8 150.4 181.8 151.7Q180.7 152.9 178.9 153.5L178.9 153.5L178.9 153.5Q181.0 154 182.3 155.5Q183.6 157.0 183.6 159.0L183.6 159.0Q183.6 160.7 182.6 162.1Q181.6 163.5 179.8 164.3Q177.9 165.1 175.6 165.1ZM175.6 152.4L175.6 152.4Q177.4 152.4 178.5 151.4Q179.6 150.5 179.6 149.0L179.6 149.0Q179.6 147.6 178.5 146.7Q177.4 145.7 175.6 145.7L175.6 145.7Q173.9 145.7 172.8 146.7Q171.6 147.6 171.6 149.0L171.6 149.0Q171.6 150.5 172.8 151.4Q173.9 152.4 175.6 152.4ZM172.3 161.4Q173.6 162.4 175.6 162.4Q177.6 162.4 178.9 161.4Q180.2 160.3 180.2 158.7L180.2 158.7Q180.2 157.1 178.9 156.0Q177.6 155.0 175.6 155.0Q173.6 155.0 172.3 156.0Q171.0 157.1 171.0 158.7L171.0 158.7Q171.0 160.3 172.3 161.4Z M195.5 164.5Q195.1 164.9 194.4 164.9Q193.7 164.9 193.3 164.5Q192.9 164.1 192.9 163.3L192.9 163.3L192.9 145.4Q192.9 144.4 193.5 143.9Q194.0 143.3 195.0 143.3L195.0 143.3Q195.9 143.3 196.4 143.7Q196.9 144.1 197.3 145.0L197.3 145.0L203.5 160.2L203.7 160.2L209.9 145.0Q210.3 144.1 210.8 143.7Q211.4 143.3 212.2 143.3L212.2 143.3Q213.2 143.3 213.7 143.8Q214.3 144.4 214.3 145.4L214.3 145.4L214.3 163.3Q214.3 164.1 213.9 164.5Q213.5 164.9 212.8 164.9L212.8 164.9Q212.1 164.9 211.7 164.5Q211.3 164.1 211.3 163.3L211.3 163.3L211.3 149.1L211.2 149.1L205.3 163.3Q204.8 164.5 203.6 164.5L203.6 164.5Q202.4 164.5 201.9 163.3L201.9 163.3L196.0 149.1L195.9 149.1L195.9 163.3Q195.9 164.1 195.5 164.5ZM222.3 164.9L222.3 164.9Q220.1 164.9 218.6 163.6Q217.2 162.3 217.2 160.3L217.2 160.3Q217.2 158.3 218.7 157.1Q220.2 155.9 222.9 155.7L222.9 155.7L227.1 155.5L227.1 154.3Q227.1 153.0 226.3 152.3Q225.5 151.6 224.1 151.6L224.1 151.6Q222.9 151.6 222.1 152.0Q221.3 152.5 220.6 153.5L220.6 153.5Q220.2 154.2 219.4 154.2L219.4 154.2Q218.8 154.2 218.4 153.8Q218.0 153.4 218.0 152.9L218.0 152.9Q218.0 152.3 218.3 151.8L218.3 151.8Q218.9 150.5 220.5 149.8Q222.1 149.0 224.2 149.0L224.2 149.0Q227.0 149.0 228.6 150.4Q230.3 151.7 230.3 154.0L230.3 154.0L230.3 163.3Q230.3 164.1 229.9 164.5Q229.4 164.9 228.8 164.9L228.8 164.9Q228.1 164.9 227.7 164.5Q227.3 164.1 227.3 163.4L227.3 163.4L227.3 162.1L227.2 162.1Q226.5 163.4 225.2 164.2Q223.9 164.9 222.3 164.9ZM223.2 162.4L223.2 162.4Q224.9 162.4 226.0 161.4Q227.1 160.4 227.1 158.9L227.1 158.9L227.1 157.7L223.3 157.9Q221.9 158.0 221.1 158.6Q220.4 159.2 220.4 160.2L220.4 160.2Q220.4 161.2 221.2 161.8Q221.9 162.4 223.2 162.4ZM235.3 170.4L235.3 170.4Q234.2 170.4 233.6 170.0Q233.0 169.6 233.0 168.9L233.0 168.9Q233.0 168.4 233.3 168.1Q233.7 167.8 234.2 167.8L234.2 167.8Q234.4 167.8 234.6 167.8Q234.9 167.8 235.0 167.8L235.0 167.8Q236.6 167.8 237.4 165.7L237.4 165.7L237.7 164.8L232.5 151.3Q232.3 150.9 232.3 150.4L232.3 150.4Q232.3 149.8 232.8 149.4Q233.3 149.0 234.0 149.0L234.0 149.0Q234.6 149.0 234.9 149.3Q235.3 149.5 235.5 150.2L235.5 150.2L239.4 161.8L239.5 161.8L243.4 150.2Q243.6 149.5 243.9 149.3Q244.3 149.0 244.9 149.0L244.9 149.0Q245.6 149.0 246.0 149.4Q246.4 149.8 246.4 150.4L246.4 150.4Q246.4 150.8 246.3 151.3L246.3 151.3L240.9 165.4Q239.9 168.2 238.7 169.3Q237.4 170.4 235.3 170.4Z M267.9 164.7L256.2 164.7Q255.5 164.7 255.1 164.3Q254.6 163.9 254.6 163.3L254.6 163.3Q254.6 162.8 254.8 162.5Q255.0 162.1 255.6 161.6L255.6 161.6L262.2 154.9Q264.2 152.8 264.9 151.7Q265.6 150.6 265.6 149.3L265.6 149.3Q265.6 147.8 264.5 146.8Q263.5 145.8 261.9 145.8L261.9 145.8Q258.8 145.8 257.7 149.0L257.7 149.0Q257.4 149.5 257.1 149.8Q256.8 150.0 256.2 150.0L256.2 150.0Q255.5 150.0 255.1 149.6Q254.7 149.3 254.7 148.6L254.7 148.6Q254.7 148.3 254.8 148.0L254.8 148.0Q255.0 147.1 255.5 146.3Q256.1 145.4 257.0 144.7Q257.8 144.0 259.1 143.6Q260.4 143.1 261.9 143.1L261.9 143.1Q265.0 143.1 266.9 144.8Q268.8 146.5 268.8 149.1L268.8 149.1Q268.8 150.9 267.8 152.5Q266.9 154.0 264.1 156.8L264.1 156.8L259.1 161.8L259.1 161.9L267.9 161.9Q268.5 161.9 268.9 162.3Q269.3 162.7 269.3 163.3L269.3 163.3Q269.3 163.9 268.9 164.3Q268.5 164.7 267.9 164.7L267.9 164.7ZM285.7 162.1Q283.6 165.1 279.8 165.1Q276.0 165.1 273.9 162.1Q271.7 159.2 271.7 154.1L271.7 154.1Q271.7 149.0 273.9 146.1Q276.0 143.1 279.8 143.1L279.8 143.1Q283.6 143.1 285.7 146.1Q287.9 149.0 287.9 154.1L287.9 154.1Q287.9 159.1 285.7 162.1ZM279.8 162.3L279.8 162.3Q282.1 162.3 283.3 160.1Q284.6 157.9 284.6 154.1L284.6 154.1Q284.6 150.3 283.3 148.1Q282.1 145.9 279.8 145.9Q277.6 145.9 276.3 148.1Q275.0 150.3 275.0 154.1L275.0 154.1Q275.0 157.9 276.3 160.1Q277.5 162.3 279.8 162.3ZM304.0 164.7L292.3 164.7Q291.6 164.7 291.1 164.3Q290.7 163.9 290.7 163.3L290.7 163.3Q290.7 162.8 290.9 162.5Q291.1 162.1 291.6 161.6L291.6 161.6L298.3 154.9Q300.3 152.8 301.0 151.7Q301.7 150.6 301.7 149.3L301.7 149.3Q301.7 147.8 300.6 146.8Q299.6 145.8 298.0 145.8L298.0 145.8Q294.9 145.8 293.8 149.0L293.8 149.0Q293.5 149.5 293.2 149.8Q292.8 150.0 292.3 150.0L292.3 150.0Q291.6 150.0 291.2 149.6Q290.8 149.3 290.8 148.6L290.8 148.6Q290.8 148.3 290.9 148.0L290.9 148.0Q291.1 147.1 291.6 146.3Q292.2 145.4 293.1 144.7Q293.9 144.0 295.2 143.6Q296.5 143.1 298.0 143.1L298.0 143.1Q301.0 143.1 303.0 144.8Q304.9 146.5 304.9 149.1L304.9 149.1Q304.9 150.9 303.9 152.5Q303.0 154.0 300.2 156.8L300.2 156.8L295.2 161.8L295.2 161.9L304.0 161.9Q304.6 161.9 305.0 162.3Q305.4 162.7 305.4 163.3L305.4 163.3Q305.4 163.9 305.0 164.3Q304.6 164.7 304.0 164.7L304.0 164.7ZM315.7 165.1L315.7 165.1Q313.4 165.1 311.5 164.0Q309.6 162.9 308.8 161.2L308.8 161.2Q308.5 160.5 308.5 159.8L308.5 159.8Q308.5 159.1 308.9 158.7Q309.3 158.3 309.9 158.3L309.9 158.3Q310.5 158.3 310.8 158.6Q311.2 158.8 311.4 159.4L311.4 159.4Q311.9 160.8 313.1 161.5Q314.2 162.3 315.8 162.3L315.8 162.3Q317.8 162.3 319.0 161.0Q320.3 159.8 320.3 157.8L320.3 157.8Q320.3 155.8 319.0 154.6Q317.7 153.4 315.8 153.4L315.8 153.4Q313.7 153.4 312.3 154.7L312.3 154.7Q311.6 155.5 311.3 155.6Q310.9 155.8 310.3 155.8L310.3 155.8Q309.6 155.8 309.2 155.4Q308.7 154.9 308.8 154.2L308.8 154.2L308.8 153.9L309.5 145.8Q309.6 144.6 310.2 144.0Q310.8 143.5 312.0 143.5L312.0 143.5L321.0 143.5Q321.6 143.5 322.0 143.9Q322.4 144.3 322.4 144.9Q322.4 145.5 322.0 145.9Q321.6 146.3 321.0 146.3L321.0 146.3L312.3 146.3L311.7 152.9L311.8 152.9Q312.5 151.9 313.7 151.3Q315.0 150.8 316.5 150.8L316.5 150.8Q319.6 150.8 321.5 152.7Q323.5 154.6 323.5 157.7L323.5 157.7Q323.5 161.0 321.3 163.0Q319.2 165.1 315.7 165.1Z "/><mask id="satori_om-id-0-0-1"><rect x="40" y="217" width="1120" height="83" fill="#fff"/></mask><path fill="#224d67" d="M47.5 280.1L47.5 280.1Q45.7 280.1 44.7 279.0Q43.7 278.0 43.7 276.2L43.7 276.2L43.7 241.2Q43.7 239.4 44.7 238.3Q45.7 237.3 47.5 237.3L47.5 237.3L60.2 237.3Q66.5 237.3 70.4 241.2Q74.4 245.1 74.4 251.5L74.4 251.5Q74.4 257.8 70.3 261.7Q66.3 265.6 59.8 265.6L59.8 265.6L51.3 265.6L51.3 276.2Q51.3 278.0 50.3 279.1Q49.3 280.1 47.5 280.1ZM51.3 243.5L51.3 259.5L58.1 259.5Q62.2 259.5 64.5 257.4Q66.7 255.3 66.7 251.5L66.7 251.5Q66.7 247.6 64.5 245.6Q62.2 243.5 58.2 243.5L58.2 243.5L51.3 243.5ZM88.3 280.1L88.3 280.1Q83.7 280.1 80.8 277.5Q77.9 274.9 77.9 270.7L77.9 270.7Q77.9 266.6 81.0 264.2Q84.0 261.8 89.7 261.4L89.7 261.4L97.9 260.9L97.9 258.7Q97.9 256.3 96.4 254.9Q94.9 253.6 92.1 253.6L92.1 253.6Q90.0 253.6 88.5 254.4Q87.0 255.2 85.6 257.2L85.6 257.2Q84.5 258.7 82.7 258.7L82.7 258.7Q81.3 258.7 80.5 257.9Q79.6 257.1 79.6 255.8L79.6 255.8Q79.6 254.8 80.1 253.8L80.1 253.8Q81.3 251.1 84.6 249.5Q88.0 247.9 92.4 247.9L92.4 247.9Q98.2 247.9 101.7 250.7Q105.2 253.5 105.2 258.2L105.2 258.2L105.2 276.5Q105.2 278.2 104.2 279.2Q103.2 280.2 101.6 280.2L101.6 280.2Q100.1 280.2 99.2 279.3Q98.2 278.4 98.1 276.8L98.1 276.8L98.1 274.6L98.0 274.6Q96.7 277.1 94.0 278.6Q91.3 280.1 88.3 280.1ZM90.5 274.6L90.5 274.6Q93.6 274.6 95.8 272.7Q97.9 270.8 97.9 268.1L97.9 268.1L97.9 265.7L90.7 266.1Q88.1 266.3 86.7 267.4Q85.2 268.6 85.2 270.4L85.2 270.4Q85.2 272.3 86.7 273.4Q88.1 274.6 90.5 274.6ZM117.3 279.1Q116.3 280.2 114.6 280.2Q113.0 280.2 112.0 279.1Q111.0 278.1 111.0 276.3L111.0 276.3L111.0 251.6Q111.0 249.9 112.0 248.9Q112.9 247.9 114.5 247.9L114.5 247.9Q116.0 247.9 117.0 248.9Q118.0 249.9 118.0 251.6L118.0 251.6L118.0 254.0L118.1 254.0Q118.8 251.3 120.6 249.6Q122.4 248.0 124.8 248.0L124.8 248.0Q126.5 248.0 127.3 248.8L127.3 248.8Q128.4 249.6 128.4 251.4L128.4 251.4Q128.4 253.1 127.3 254.0L127.3 254.0Q126.2 254.9 124.1 255.0L124.1 255.0Q118.3 255.0 118.3 261.4L118.3 261.4L118.3 276.3Q118.3 278.1 117.3 279.1ZM133.7 271.9L133.7 271.9L133.7 254.1L131.7 254.1Q130.4 254.1 129.6 253.4Q128.8 252.6 128.8 251.3L128.8 251.3Q128.8 250.0 129.5 249.3Q130.3 248.5 131.7 248.5L131.7 248.5L133.7 248.5L133.7 244.4Q133.7 242.6 134.6 241.6Q135.6 240.6 137.3 240.6L137.3 240.6Q139.0 240.6 140.0 241.6Q141.0 242.6 141.0 244.4L141.0 244.4L141.0 248.5L144.3 248.5Q145.7 248.5 146.5 249.3Q147.3 250.0 147.3 251.3L147.3 251.3Q147.3 252.6 146.5 253.4Q145.7 254.1 144.3 254.1L144.3 254.1L141.0 254.1L141.0 270.3Q141.0 272.1 141.6 272.9Q142.3 273.7 143.9 273.9L143.9 273.9L144.4 273.9Q147.3 274.2 147.3 276.6L147.3 276.6Q147.3 278.2 146.0 279.1Q144.6 279.9 142.1 279.9L142.1 279.9L141.8 279.9Q133.7 279.9 133.7 271.9ZM158.5 243.0Q157.3 244.2 155.6 244.2Q153.9 244.2 152.7 243.0Q151.5 241.8 151.5 240.2L151.5 240.2Q151.5 238.5 152.7 237.4Q153.9 236.2 155.6 236.2L155.6 236.2Q157.3 236.2 158.5 237.4Q159.6 238.5 159.6 240.2L159.6 240.2Q159.6 241.8 158.5 243.0ZM158.2 279.1Q157.2 280.2 155.6 280.2Q153.9 280.2 152.9 279.1Q151.9 278.1 151.9 276.3L151.9 276.3L151.9 251.7Q151.9 250.0 152.9 248.9Q153.9 247.9 155.6 247.9Q157.2 247.9 158.2 248.9Q159.2 250.0 159.2 251.8L159.2 251.8L159.2 276.3Q159.2 278.1 158.2 279.1ZM174.5 280.1L174.5 280.1Q169.9 280.1 167.0 277.5Q164.1 274.9 164.1 270.7L164.1 270.7Q164.1 266.6 167.2 264.2Q170.2 261.8 175.9 261.4L175.9 261.4L184.1 260.9L184.1 258.7Q184.1 256.3 182.6 254.9Q181.1 253.6 178.3 253.6L178.3 253.6Q176.2 253.6 174.7 254.4Q173.2 255.2 171.8 257.2L171.8 257.2Q170.7 258.7 168.9 258.7L168.9 258.7Q167.5 258.7 166.7 257.9Q165.8 257.1 165.8 255.8L165.8 255.8Q165.8 254.8 166.3 253.8L166.3 253.8Q167.5 251.1 170.8 249.5Q174.2 247.9 178.6 247.9L178.6 247.9Q184.4 247.9 187.9 250.7Q191.3 253.5 191.3 258.2L191.3 258.2L191.3 276.5Q191.3 278.2 190.4 279.2Q189.4 280.2 187.8 280.2L187.8 280.2Q186.3 280.2 185.3 279.3Q184.4 278.4 184.3 276.8L184.3 276.8L184.3 274.6L184.2 274.6Q182.9 277.1 180.2 278.6Q177.5 280.1 174.5 280.1ZM176.7 274.6L176.7 274.6Q179.8 274.6 182.0 272.7Q184.1 270.8 184.1 268.1L184.1 268.1L184.1 265.7L176.9 266.1Q174.3 266.3 172.8 267.4Q171.4 268.6 171.4 270.4L171.4 270.4Q171.4 272.3 172.8 273.4Q174.3 274.6 176.7 274.6ZM203.7 279.2Q202.7 280.2 201.1 280.2Q199.4 280.2 198.4 279.2Q197.4 278.1 197.4 276.3L197.4 276.3L197.4 240.6Q197.4 238.7 198.4 237.7Q199.4 236.7 201.1 236.7Q202.7 236.7 203.7 237.7Q204.7 238.7 204.7 240.6L204.7 240.6L204.7 276.3Q204.7 278.1 203.7 279.2Z M227.4 280.1L227.4 280.1Q225.7 280.1 224.7 279.0Q223.7 278.0 223.7 276.2L223.7 276.2L223.7 241.2Q223.7 239.4 224.7 238.3Q225.7 237.3 227.4 237.3L227.4 237.3L240.1 237.3Q246.4 237.3 250.4 241.2Q254.3 245.1 254.3 251.5L254.3 251.5Q254.3 257.8 250.3 261.7Q246.2 265.6 239.8 265.6L239.8 265.6L231.2 265.6L231.2 276.2Q231.2 278.0 230.2 279.1Q229.2 280.1 227.4 280.1ZM231.2 243.5L231.2 259.5L238.1 259.5Q242.1 259.5 244.4 257.4Q246.7 255.3 246.7 251.5L246.7 251.5Q246.7 247.6 244.4 245.6Q242.2 243.5 238.1 243.5L238.1 243.5L231.2 243.5ZM268.2 280.1L268.2 280.1Q263.7 280.1 260.8 277.5Q257.9 274.9 257.9 270.7L257.9 270.7Q257.9 266.6 260.9 264.2Q264.0 261.8 269.7 261.4L269.7 261.4L277.9 260.9L277.9 258.7Q277.9 256.3 276.4 254.9Q274.8 253.6 272.1 253.6L272.1 253.6Q269.9 253.6 268.4 254.4Q266.9 255.2 265.6 257.2L265.6 257.2Q264.5 258.7 262.6 258.7L262.6 258.7Q261.3 258.7 260.4 257.9Q259.6 257.1 259.6 255.8L259.6 255.8Q259.6 254.8 260.0 253.8L260.0 253.8Q261.2 251.1 264.6 249.5Q267.9 247.9 272.4 247.9L272.4 247.9Q278.2 247.9 281.6 250.7Q285.1 253.5 285.1 258.2L285.1 258.2L285.1 276.5Q285.1 278.2 284.1 279.2Q283.1 280.2 281.6 280.2L281.6 280.2Q280.0 280.2 279.1 279.3Q278.2 278.4 278.1 276.8L278.1 276.8L278.1 274.6L277.9 274.6Q276.6 277.1 273.9 278.6Q271.3 280.1 268.2 280.1ZM270.4 274.6L270.4 274.6Q273.6 274.6 275.7 272.7Q277.9 270.8 277.9 268.1L277.9 268.1L277.9 265.7L270.7 266.1Q268.0 266.3 266.6 267.4Q265.1 268.6 265.1 270.4L265.1 270.4Q265.1 272.3 266.6 273.4Q268.0 274.6 270.4 274.6ZM295.4 291.1L295.4 291.1Q292.9 291.1 291.6 290.2Q290.3 289.3 290.3 287.7L290.3 287.7Q290.3 286.6 291.1 285.9Q291.8 285.2 293.1 285.2L293.1 285.2Q293.4 285.2 293.9 285.2Q294.3 285.2 294.7 285.2L294.7 285.2Q297.7 285.2 299.1 281.7L299.1 281.7L299.6 280.1L289.5 253.4Q289.1 252.2 289.1 251.3L289.1 251.3Q289.1 249.8 290.1 248.9Q291.2 247.9 292.8 247.9L292.8 247.9Q294.2 247.9 295 248.6Q295.8 249.3 296.3 250.8L296.3 250.8L303.7 273.4L303.8 273.4L311.2 250.8Q311.7 249.3 312.5 248.6Q313.4 247.9 314.7 247.9L314.7 247.9Q316.3 247.9 317.3 248.8Q318.3 249.8 318.3 251.2L318.3 251.2Q318.3 252.2 317.9 253.3L317.9 253.3L307.7 280.7Q305.5 286.5 302.8 288.8Q300.1 291.1 295.4 291.1ZM325.9 280.2L325.9 280.2Q324.2 280.2 323.3 279.2Q322.3 278.1 322.3 276.3L322.3 276.3L322.3 251.6Q322.3 249.9 323.2 248.9Q324.2 247.9 325.8 247.9Q327.3 247.9 328.3 248.9Q329.3 249.9 329.3 251.6L329.3 251.6L329.3 253.9L329.4 253.9Q330.4 251.2 332.8 249.5Q335.1 247.9 338.3 247.9L338.3 247.9Q341.6 247.9 343.8 249.6Q346.1 251.2 346.9 254.2L346.9 254.2L347.1 254.2Q348.2 251.3 350.8 249.6Q353.4 247.9 356.8 247.9L356.8 247.9Q361.4 247.9 364.2 250.8Q366.9 253.6 366.9 258.3L366.9 258.3L366.9 276.3Q366.9 278.1 365.9 279.1Q364.9 280.2 363.3 280.2L363.3 280.2Q361.6 280.2 360.6 279.1Q359.6 278.1 359.6 276.3L359.6 276.3L359.6 260.1Q359.6 257.2 358.2 255.6Q356.7 254.1 354.1 254.1L354.1 254.1Q351.4 254.1 349.8 255.8Q348.1 257.6 348.1 260.4L348.1 260.4L348.1 276.3Q348.1 278.1 347.2 279.2Q346.2 280.2 344.6 280.2L344.6 280.2Q342.9 280.2 342.0 279.2Q341.1 278.1 341.1 276.3L341.1 276.3L341.1 259.7Q341.1 257.1 339.6 255.6Q338.1 254.1 335.5 254.1L335.5 254.1Q332.9 254.1 331.2 255.9Q329.6 257.8 329.6 260.6L329.6 260.6L329.6 276.3Q329.6 278.1 328.6 279.1Q327.5 280.2 325.9 280.2ZM386.6 280.2L386.6 280.2Q379.4 280.2 375.4 276.0Q371.5 271.7 371.5 264.2L371.5 264.2Q371.5 256.7 375.4 252.3Q379.4 247.9 386.1 247.9L386.1 247.9Q392.5 247.9 396.5 251.9Q400.4 256.0 400.4 262.4L400.4 262.4Q400.4 264.0 399.5 264.9Q398.7 265.8 397.0 265.8L397.0 265.8L378.7 265.8L378.7 266.0Q378.7 269.9 380.8 272.3Q382.9 274.6 386.5 274.6L386.5 274.6Q389.0 274.6 390.7 273.6Q392.5 272.7 394.3 270.4L394.3 270.4Q395.3 269.3 396.7 269.3L396.7 269.3Q398.0 269.3 398.8 270.0Q399.6 270.8 399.6 272.1L399.6 272.1Q399.6 272.9 399.2 273.9L399.2 273.9Q397.6 276.9 394.3 278.5Q391.0 280.2 386.6 280.2ZM378.8 261.0L378.8 261.0L393.3 261.0Q393.2 257.6 391.2 255.6Q389.2 253.5 386.2 253.5Q383.1 253.5 381.0 255.6Q379.0 257.7 378.8 261.0ZM411.4 279.2Q410.4 280.2 408.8 280.2Q407.1 280.2 406.1 279.2Q405.1 278.1 405.1 276.3L405.1 276.3L405.1 251.6Q405.1 249.9 406.1 248.9Q407.0 247.9 408.6 247.9Q410.2 247.9 411.2 248.9Q412.2 249.9 412.2 251.6L412.2 251.6L412.2 253.8L412.4 253.8Q415 247.9 422.0 247.9L422.0 247.9Q427.1 247.9 430.0 251.0Q432.8 254.1 432.8 259.5L432.8 259.5L432.8 276.3Q432.8 278.1 431.8 279.2Q430.8 280.2 429.2 280.2Q427.5 280.2 426.5 279.2Q425.5 278.1 425.5 276.3L425.5 276.3L425.5 261.0Q425.5 257.6 423.9 255.9Q422.4 254.1 419.3 254.1L419.3 254.1Q416.1 254.1 414.3 256.2Q412.4 258.2 412.4 261.6L412.4 261.6L412.4 276.3Q412.4 278.1 411.4 279.2ZM440.6 271.9L440.6 271.9L440.6 254.1L438.7 254.1Q437.3 254.1 436.5 253.4Q435.7 252.6 435.7 251.3L435.7 251.3Q435.7 250.0 436.5 249.3Q437.3 248.5 438.7 248.5L438.7 248.5L440.6 248.5L440.6 244.4Q440.6 242.6 441.6 241.6Q442.6 240.6 444.3 240.6L444.3 240.6Q446.0 240.6 446.9 241.6Q447.9 242.6 447.9 244.4L447.9 244.4L447.9 248.5L451.3 248.5Q452.7 248.5 453.5 249.3Q454.2 250.0 454.2 251.3L454.2 251.3Q454.2 252.6 453.4 253.4Q452.6 254.1 451.3 254.1L451.3 254.1L447.9 254.1L447.9 270.3Q447.9 272.1 448.6 272.9Q449.3 273.7 450.9 273.9L450.9 273.9L451.4 273.9Q454.3 274.2 454.3 276.6L454.3 276.6Q454.3 278.2 453.0 279.1Q451.6 279.9 449.1 279.9L449.1 279.9L448.8 279.9Q440.6 279.9 440.6 271.9Z M485.6 280.1L485.6 280.1Q483.8 280.1 482.8 279.1Q481.8 278.0 481.8 276.2L481.8 276.2L481.8 243.7L472.2 243.7Q470.6 243.7 469.7 242.8Q468.7 242.0 468.7 240.5Q468.7 239.0 469.6 238.2Q470.6 237.3 472.2 237.3L472.2 237.3L499.0 237.3Q500.6 237.3 501.5 238.2Q502.5 239.0 502.5 240.5Q502.5 242.0 501.5 242.8Q500.6 243.7 499.0 243.7L499.0 243.7L489.4 243.7L489.4 276.2Q489.4 278.0 488.4 279.1Q487.4 280.1 485.6 280.1ZM515.5 280.1L515.5 280.1Q511.0 280.1 508.1 277.5Q505.1 274.9 505.1 270.7L505.1 270.7Q505.1 266.6 508.2 264.2Q511.3 261.8 517.0 261.4L517.0 261.4L525.2 260.9L525.2 258.7Q525.2 256.3 523.6 254.9Q522.1 253.6 519.4 253.6L519.4 253.6Q517.2 253.6 515.7 254.4Q514.2 255.2 512.9 257.2L512.9 257.2Q511.8 258.7 509.9 258.7L509.9 258.7Q508.6 258.7 507.7 257.9Q506.8 257.1 506.8 255.8L506.8 255.8Q506.8 254.8 507.3 253.8L507.3 253.8Q508.5 251.1 511.9 249.5Q515.2 247.9 519.7 247.9L519.7 247.9Q525.4 247.9 528.9 250.7Q532.4 253.5 532.4 258.2L532.4 258.2L532.4 276.5Q532.4 278.2 531.4 279.2Q530.4 280.2 528.8 280.2L528.8 280.2Q527.3 280.2 526.4 279.3Q525.4 278.4 525.4 276.8L525.4 276.8L525.4 274.6L525.2 274.6Q523.9 277.1 521.2 278.6Q518.6 280.1 515.5 280.1ZM517.7 274.6L517.7 274.6Q520.8 274.6 523.0 272.7Q525.2 270.8 525.2 268.1L525.2 268.1L525.2 265.7L518.0 266.1Q515.3 266.3 513.9 267.4Q512.4 268.6 512.4 270.4L512.4 270.4Q512.4 272.3 513.9 273.4Q515.3 274.6 517.7 274.6ZM551.9 280.2L551.9 280.2Q545.1 280.2 541.0 275.9Q537.0 271.5 537.0 264.1L537.0 264.1Q537.0 256.7 541.0 252.3Q545.0 247.9 551.8 247.9L551.8 247.9Q556.4 247.9 559.9 250.0Q563.5 252.1 564.6 255.4L564.6 255.4Q565 256.4 565 257.1L565 257.1Q565 258.5 564.1 259.3Q563.2 260.1 561.9 260.1L561.9 260.1Q560.8 260.1 560.0 259.6Q559.3 259.1 558.7 258.0L558.7 258.0Q556.4 253.8 552.1 253.8L552.1 253.8Q548.5 253.8 546.5 256.6Q544.4 259.3 544.4 264.1L544.4 264.1Q544.4 268.9 546.4 271.6Q548.5 274.3 552.0 274.3L552.0 274.3Q556.4 274.3 558.6 270.3L558.6 270.3Q559.4 269.1 560.1 268.6Q560.8 268.1 562.0 268.1L562.0 268.1Q563.3 268.1 564.2 268.9Q565.1 269.7 565.1 271.1L565.1 271.1Q565.1 271.9 564.6 272.9L564.6 272.9Q563.3 276.1 559.8 278.2Q556.3 280.2 551.9 280.2ZM572.0 271.9L572.0 271.9L572.0 254.1L570.0 254.1Q568.7 254.1 567.9 253.4Q567.1 252.6 567.1 251.3L567.1 251.3Q567.1 250.0 567.9 249.3Q568.7 248.5 570.0 248.5L570.0 248.5L572.0 248.5L572.0 244.4Q572.0 242.6 573.0 241.6Q574.0 240.6 575.7 240.6L575.7 240.6Q577.3 240.6 578.3 241.6Q579.3 242.6 579.3 244.4L579.3 244.4L579.3 248.5L582.7 248.5Q584.0 248.5 584.8 249.3Q585.6 250.0 585.6 251.3L585.6 251.3Q585.6 252.6 584.8 253.4Q584.0 254.1 582.7 254.1L582.7 254.1L579.3 254.1L579.3 270.3Q579.3 272.1 580.0 272.9Q580.6 273.7 582.2 273.9L582.2 273.9L582.8 273.9Q585.7 274.2 585.7 276.6L585.7 276.6Q585.7 278.2 584.3 279.1Q583.0 279.9 580.5 279.9L580.5 279.9L580.2 279.9Q572.0 279.9 572.0 271.9ZM596.8 243.0Q595.6 244.2 593.9 244.2Q592.2 244.2 591.0 243.0Q589.9 241.8 589.9 240.2L589.9 240.2Q589.9 238.5 591.0 237.4Q592.2 236.2 593.9 236.2L593.9 236.2Q595.6 236.2 596.8 237.4Q598.0 238.5 598.0 240.2L598.0 240.2Q598.0 241.8 596.8 243.0ZM596.6 279.1Q595.6 280.2 593.9 280.2Q592.2 280.2 591.3 279.1Q590.3 278.1 590.3 276.3L590.3 276.3L590.3 251.7Q590.3 250.0 591.3 248.9Q592.2 247.9 593.9 247.9Q595.6 247.9 596.6 248.9Q597.6 250.0 597.6 251.8L597.6 251.8L597.6 276.3Q597.6 278.1 596.6 279.1ZM617.4 280.2L617.4 280.2Q610.5 280.2 606.5 275.9Q602.4 271.5 602.4 264.1L602.4 264.1Q602.4 256.7 606.5 252.3Q610.5 247.9 617.3 247.9L617.3 247.9Q621.8 247.9 625.4 250.0Q629.0 252.1 630.1 255.4L630.1 255.4Q630.4 256.4 630.4 257.1L630.4 257.1Q630.4 258.5 629.6 259.3Q628.7 260.1 627.3 260.1L627.3 260.1Q626.2 260.1 625.5 259.6Q624.8 259.1 624.1 258.0L624.1 258.0Q621.8 253.8 617.5 253.8L617.5 253.8Q614.0 253.8 611.9 256.6Q609.8 259.3 609.8 264.1L609.8 264.1Q609.8 268.9 611.9 271.6Q614.0 274.3 617.5 274.3L617.5 274.3Q621.8 274.3 624.1 270.3L624.1 270.3Q624.9 269.1 625.6 268.6Q626.3 268.1 627.5 268.1L627.5 268.1Q628.8 268.1 629.7 268.9Q630.5 269.7 630.5 271.1L630.5 271.1Q630.5 271.9 630.1 272.9L630.1 272.9Q628.8 276.1 625.2 278.2Q621.7 280.2 617.4 280.2ZM647.4 280.2L647.4 280.2Q642.6 280.2 639.2 278.5Q635.9 276.8 634.8 274.0L634.8 274.0Q634.5 273.2 634.5 272.5L634.5 272.5Q634.5 271.2 635.3 270.4Q636.2 269.6 637.5 269.6L637.5 269.6Q639.3 269.6 640.7 271.4L640.7 271.4Q641.9 273.3 643.5 274.1Q645.1 274.9 647.7 274.9L647.7 274.9Q650.3 274.9 651.8 273.9Q653.3 272.8 653.3 271.1L653.3 271.1Q653.3 269.7 652.3 268.8Q651.3 268.0 649.0 267.4L649.0 267.4L643.9 266.3Q634.9 264.3 634.9 257.4L634.9 257.4Q634.9 253.1 638.3 250.5Q641.8 247.9 647.5 247.9L647.5 247.9Q651.9 247.9 655.1 249.8Q658.4 251.6 659.1 254.4L659.1 254.4Q659.2 255.0 659.2 255.5L659.2 255.5Q659.2 256.6 658.5 257.4Q657.8 258.1 656.4 258.1L656.4 258.1Q654.6 258.1 653.7 256.7L653.7 256.7Q652.5 255.0 651.0 254.1Q649.6 253.2 647.4 253.2L647.4 253.2Q645.0 253.2 643.5 254.3Q642.0 255.3 642.0 257.0L642.0 257.0Q642.0 259.8 646.5 260.8L646.5 260.8L651.5 261.9Q656.4 263.0 658.5 264.9Q660.7 266.9 660.7 270.3L660.7 270.3Q660.7 274.8 657.0 277.5Q653.4 280.2 647.4 280.2Z "/><defs><clipPath id="satori_bc-id-0-1"><rect x="0" y="441" width="1200" height="189"/></clipPath></defs><mask id="satori_om-id-0-1"><rect x="0" y="442" width="1200" height="188" fill="#fff"/><path width="1200" height="189" fill="none" stroke="#000" stroke-width="2" d="M0,441 A0,0 0 0 1 0,441 h1200 A0,0 0 0 1 1200,441"/></mask><path width="1200" height="189" clip-path="url(#satori_bc-id-0-1)" fill="none" stroke="#dbdbdb" stroke-width="2" d="M0,441 A0,0 0 0 1 0,441 h1200 A0,0 0 0 1 1200,441"/><mask id="satori_om-id-0-1-0"><rect x="40" y="482" width="292" height="108" fill="#fff"/></mask><clipPath id="satori_cp-id-0-1-0-0"><rect x="40" y="504" width="64" height="64"/></clipPath><mask id="satori_om-id-0-1-0-0"><rect x="40" y="504" width="64" height="64" fill="#fff"/></mask><image x="40" y="504" width="64" height="64" href="data:image/svg+xml;utf8,%3Csvg  xmlns=%22http://www.w3.org/2000/svg%22 width=%2264%22 height=%2264%22 viewBox=%220 0 128 128%22%3E%3Cpath fill=%22%23224d67%22 d=%22M22.5 14.8c2.9 1.3 99 44 99 44c2.7 1.2 2.9 3.1 2 12.4c-1 10.5-1.9 37.8-40.2 42.9c-24.6 3.2-55.9-4.3-70.9-27.2C-6 58.8 11 23.4 14.8 17.7c2.4-3.5 4.8-4.2 7.7-2.9%22%3E%3C/path%3E%3Cpath fill=%22%23f0f4c3%22 d=%22M121.5 58.8c-.3-.2-92-40.8-98.9-43.9C9.6 31.5-3.8 76 27.9 96.2c33.6 21.5 78.7-10.2 93.6-37.4%22%3E%3C/path%3E%3Cpath fill=%22%23f0f4c3%22 d=%22M117.7 57c-.3-.2-86.7-38.4-93.2-41.3c-12.2 15.5-23.9 59.1 5.7 78c31.4 20.2 73.6-11.2 87.5-36.7%22%3E%3C/path%3E%3Cpath fill=%22%23cb2a42%22 d=%22M56.2 37.6L19.5 48.2c-2.5.8-4.4 2.8-5 5.3c-1.9 8.5.8 23.3 8.9 29.8c3.5 2.7 8.6 1.8 10.8-2.1L58.5 41c1.3-1.7.5-4.2-2.3-3.4m14.3 2.9s14.6 30.1 16 33s6.3 4.7 9.9 2.8c10.7-5.6 15.5-12.4 19.2-20.2c-8.9-3.9-42.4-18.8-42.4-18.8c-2.4-1.1-4 .6-2.7 3.2m-8.6 1.9C60.3 45.1 39.5 81 37.6 84.1c-1.9 3.2-.7 7.5 2.7 9.2c12.3 6.5 30.9.4 39.6-7c2.2-1.9 4.5-5.1 3.2-8.2S68.9 44.6 67.8 42.3c-1.2-2.7-4.1-2.8-5.9.1%22%3E%3C/path%3E%3Cpath fill=%22%23f0f4c3%22 d=%22M52.2 42.2c-1.4.4-10.1 3-11.1 3.4c-1.4.5-2.2 1.7-1.9 2.5c.3.9 1.7 1.1 3.1.6c.8-.3 7.1-3.9 9.5-5.2c-3.1 2.4-10.2 9.4-11.1 10.3c-1.4 1.5-1.7 3.4-.8 4.3c1 .9 2.9.5 4.3-1c1.2-1.3 8.5-12.8 9.1-13.9s.4-1.4-1.1-1m10.1 16.4c0-2.2 1.4-10.3 1.8-12.3c.4-1.6 1.5-1.8 1.8.5s1.7 9.7 1.7 11.8s-1.2 3.3-2.7 3.3c-1.4 0-2.6-1.1-2.6-3.3M79.9 49c-1.2-1.8-3.3-4.9-4.1-6.1c-.7-1.2.1-2.1 1.8-.9s4 2.9 5.4 4c1.6 1.3 1.9 3 .8 4s-2.7.8-3.9-1%22%3E%3C/path%3E%3Cellipse cx=%2287.3%22 cy=%22103.12%22 fill=%22%23cb2a42%22 rx=%223.4%22 ry=%222.3%22 transform=%22rotate(-27.098 87.298 103.126)%22%3E%3C/ellipse%3E%3Cellipse cx=%2298.89%22 cy=%22103.82%22 fill=%22%23cb2a42%22 rx=%223.4%22 ry=%222.3%22 transform=%22rotate(-30.642 98.887 103.818)%22%3E%3C/ellipse%3E%3Cellipse cx=%22102.02%22 cy=%2293.8%22 fill=%22%23cb2a42%22 rx=%223.4%22 ry=%222.3%22 transform=%22rotate(-37.16 102.017 93.797)%22%3E%3C/ellipse%3E%3Cpath fill=%22%23cb2a42%22 d=%22M57.6 30.3c-8.3-3.7-24.4-10.7-29.6-13c-3.6 2.2-9.7 11.4-11.2 21.2c-.6 3.6 1.7 5.9 5.3 4.9c0 0 33.7-9.3 35.3-9.7c1.6-.5 2-2.6.2-3.4%22%3E%3C/path%3E%3C/svg%3E" preserveAspectRatio="none" clip-path="url(#satori_cp-id-0-1-0-0)" mask="url(#satori_om-id-0-1-0-0)"/><mask id="satori_om-id-0-1-0-0-0"><rect x="40" y="504" width="0" height="64" fill="#fff"/></mask><mask id="satori_om-id-0-1-0-0-1"><rect x="40" y="504" width="0" height="64" fill="#fff"/></mask><mask id="satori_om-id-0-1-0-0-2"><rect x="40" y="504" width="0" height="64" fill="#fff"/></mask><mask id="satori_om-id-0-1-0-0-3"><rect x="40" y="504" width="0" height="64" fill="#fff"/></mask><mask id="satori_om-id-0-1-0-0-4"><rect x="40" y="504" width="0" height="64" fill="#fff"/></mask><mask id="satori_om-id-0-1-0-0-5"><rect x="40" y="504" width="0" height="64" fill="#fff"/></mask><mask id="satori_om-id-0-1-0-0-6"><rect x="40" y="504" width="0" height="64" fill="#fff"/></mask><mask id="satori_om-id-0-1-0-0-7"><rect x="40" y="504" width="0" height="64" fill="#fff"/></mask><mask id="satori_om-id-0-1-0-0-8"><rect x="40" y="504" width="0" height="64" fill="#fff"/></mask><mask id="satori_om-id-0-1-0-1"><rect x="116" y="512" width="216" height="48" fill="#fff"/></mask><path fill="#545454" d="M121.1 553.5L121.1 553.5Q119.4 553.5 118.4 552.6Q117.5 551.7 117.5 550.2L117.5 550.2Q117.5 549.3 117.9 547.9L117.9 547.9L127.2 522.8Q127.9 520.7 129.2 519.7Q130.5 518.8 132.5 518.8L132.5 518.8Q134.6 518.8 135.9 519.7Q137.2 520.7 137.9 522.8L137.9 522.8L147.2 547.9Q147.6 549.2 147.6 550.2L147.6 550.2Q147.6 551.6 146.6 552.6Q145.6 553.5 144.1 553.5L144.1 553.5Q142.6 553.5 141.7 552.8Q140.9 552.1 140.4 550.4L140.4 550.4L138.6 545.0L126.4 545.0L124.6 550.3Q124.2 552.0 123.3 552.8Q122.5 553.5 121.1 553.5ZM132.4 525.7L128.0 539.6L137 539.6L132.5 525.7L132.4 525.7ZM159.1 552.6Q158.2 553.6 156.6 553.6Q155.0 553.6 154.1 552.6Q153.2 551.7 153.2 550.0L153.2 550.0L153.2 533.1L151.9 533.1Q150.8 533.1 150.1 532.4Q149.4 531.7 149.4 530.6Q149.4 529.4 150.1 528.7Q150.8 528.1 151.9 528.1L151.9 528.1L153.2 528.1L153.2 526.2Q153.2 522.5 155.0 520.7Q156.7 519.0 160.3 518.9L160.3 518.9Q163.0 518.9 164.2 519.7Q165.5 520.4 165.5 521.7L165.5 521.7Q165.5 523.1 164.1 523.5L164.1 523.5Q163.5 523.7 162.8 523.7L162.8 523.7Q161.2 523.7 160.5 524.4Q159.9 525.1 159.9 526.5L159.9 526.5L159.9 528.1L162.7 528.1Q163.8 528.1 164.5 528.7Q165.2 529.4 165.2 530.6Q165.2 531.7 164.5 532.4Q163.8 533.1 162.7 533.1L162.7 533.1L160.0 533.1L160.0 550.0Q160.0 551.7 159.1 552.6ZM170.3 546.6L170.3 546.6L170.3 533.1L168.9 533.1Q167.7 533.1 167.0 532.4Q166.3 531.7 166.3 530.5Q166.3 529.3 167.0 528.6Q167.7 527.9 168.9 527.9L168.9 527.9L170.3 527.9L170.3 525.1Q170.3 523.5 171.2 522.5Q172.1 521.6 173.7 521.6Q175.3 521.6 176.2 522.5Q177.1 523.5 177.1 525.1L177.1 525.1L177.1 527.9L179.5 527.9Q180.7 527.9 181.4 528.6Q182.1 529.3 182.1 530.5Q182.1 531.7 181.4 532.4Q180.7 533.1 179.5 533.1L179.5 533.1L177.1 533.1L177.1 545.1Q177.1 546.5 177.6 547.1Q178.1 547.7 179.2 547.8L179.2 547.8L179.6 547.8Q180.9 548.0 181.6 548.5Q182.2 549.1 182.2 550.3L182.2 550.3Q182.2 551.8 180.9 552.6Q179.6 553.3 177.4 553.3L177.4 553.3L177.1 553.3Q170.3 553.3 170.3 546.6ZM197.0 553.6L197.0 553.6Q191.2 553.6 187.9 550.2Q184.6 546.7 184.6 540.6L184.6 540.6Q184.6 534.5 187.9 531.0Q191.1 527.4 196.7 527.4L196.7 527.4Q202.0 527.4 205.3 530.7Q208.6 533.9 208.6 539.1L208.6 539.1Q208.6 540.5 207.9 541.3Q207.1 542.1 205.6 542.1L205.6 542.1L191.3 542.1L191.3 542.4Q191.3 545.2 192.9 546.9Q194.4 548.5 197.0 548.5L197.0 548.5Q198.9 548.5 200.3 547.8Q201.6 547.2 203.0 545.5L203.0 545.5Q204.0 544.5 205.3 544.5L205.3 544.5Q206.4 544.5 207.2 545.2Q207.9 545.9 207.9 547.0L207.9 547.0Q207.9 547.8 207.5 548.7L207.5 548.7Q206.2 551 203.4 552.3Q200.7 553.6 197.0 553.6ZM191.4 537.9L191.4 537.9L202.0 537.9Q201.9 535.4 200.5 533.9Q199.0 532.5 196.8 532.5Q194.5 532.5 193.1 534.0Q191.6 535.5 191.4 537.9ZM215.6 553.6L215.6 553.6Q214.0 553.6 213.1 552.6Q212.1 551.7 212.1 550.0L212.1 550.0L212.1 530.9Q212.1 529.3 213.0 528.3Q213.9 527.4 215.4 527.4L215.4 527.4Q216.9 527.4 217.8 528.3Q218.7 529.3 218.7 530.9L218.7 530.9L218.7 532.5L218.8 532.5Q219.3 530.2 220.7 528.9Q222.1 527.5 224.0 527.5L224.0 527.5Q225.4 527.5 226.2 528.2L226.2 528.2Q227.2 528.9 227.2 530.7L227.2 530.7Q227.2 532.3 226.2 533.2L226.2 533.2Q225.2 534.0 223.2 534.1L223.2 534.1Q221.0 534.1 220.0 535.3Q219.0 536.5 219.0 538.8L219.0 538.8L219.0 550.0Q219.0 551.7 218.1 552.6Q217.2 553.6 215.6 553.6ZM242.6 553.6L242.6 553.6Q237.5 553.6 234.1 551.8Q230.8 550.0 229.7 547.1L229.7 547.1Q229.4 546.1 229.4 545.2L229.4 545.2Q229.4 543.8 230.2 543.0Q231.1 542.1 232.5 542.1L232.5 542.1Q233.6 542.1 234.3 542.6Q235.1 543.1 235.7 544.2L235.7 544.2Q236.5 546.1 238.4 547.0Q240.2 547.9 242.7 547.9L242.7 547.9Q245.6 547.9 247.3 546.7Q249.1 545.5 249.1 543.6L249.1 543.6Q249.1 541.9 247.8 540.9Q246.4 539.9 243.3 539.3L243.3 539.3L239.7 538.6Q229.6 536.6 229.6 528.9L229.6 528.9Q229.6 525.9 231.3 523.5Q232.9 521.2 235.9 519.9Q238.8 518.7 242.5 518.7L242.5 518.7Q247.2 518.7 250.5 520.5Q253.8 522.4 254.9 525.7L254.9 525.7Q255.1 526.4 255.1 527.2L255.1 527.2Q255.1 528.5 254.3 529.3Q253.5 530.1 252.1 530.1L252.1 530.1Q250.9 530.1 250.1 529.6Q249.4 529.1 248.8 528.0L248.8 528.0Q247.2 524.4 242.5 524.4L242.5 524.4Q239.9 524.4 238.3 525.5Q236.7 526.6 236.7 528.5L236.7 528.5Q236.7 530.1 238.1 531.1Q239.4 532.1 242.4 532.7L242.4 532.7L245.9 533.4Q251.3 534.5 253.7 536.7Q256.2 539.0 256.2 542.8L256.2 542.8Q256.2 547.8 252.5 550.7Q248.9 553.6 242.6 553.6ZM266.0 552.6Q265.0 553.6 263.5 553.6Q261.9 553.6 261.0 552.6Q260.1 551.7 260.1 550.0L260.1 550.0L260.1 522.2Q260.1 520.6 261.0 519.7Q261.9 518.7 263.4 518.7L263.4 518.7Q265.0 518.7 265.9 519.7Q266.8 520.6 266.8 522.2L266.8 522.2L266.8 532.4L266.9 532.4Q267.9 530.0 270.0 528.7Q272 527.5 274.8 527.5L274.8 527.5Q279.0 527.5 281.3 530.0Q283.6 532.5 283.6 536.9L283.6 536.9L283.6 550.0Q283.6 551.7 282.7 552.6Q281.7 553.6 280.2 553.6Q278.6 553.6 277.7 552.6Q276.8 551.7 276.8 550.0L276.8 550.0L276.8 538.3Q276.8 535.9 275.6 534.5Q274.3 533.1 272.0 533.1L272.0 533.1Q269.7 533.1 268.3 534.7Q266.9 536.2 266.9 538.7L266.9 538.7L266.9 550.0Q266.9 551.7 266.0 552.6ZM294.1 523.8Q293.0 524.8 291.5 524.8Q290.0 524.8 288.9 523.8Q287.8 522.8 287.8 521.3L287.8 521.3Q287.8 519.8 288.9 518.8Q290.0 517.7 291.5 517.7Q293.0 517.7 294.1 518.8Q295.2 519.8 295.2 521.3L295.2 521.3Q295.2 522.8 294.1 523.8ZM294.0 552.6Q293.1 553.6 291.5 553.6Q289.9 553.6 289.0 552.6Q288.1 551.7 288.1 550.0L288.1 550.0L288.1 531.0Q288.1 529.3 289.0 528.4Q289.9 527.4 291.5 527.4Q293.1 527.4 294.0 528.4Q294.9 529.3 294.9 531.0L294.9 531.0L294.9 550.0Q294.9 551.7 294.0 552.6ZM307.2 552.6Q306.3 553.6 304.7 553.6Q303.1 553.6 302.2 552.6Q301.3 551.7 301.3 550.0L301.3 550.0L301.3 533.1L300.0 533.1Q298.9 533.1 298.2 532.4Q297.5 531.7 297.5 530.6Q297.5 529.4 298.2 528.7Q298.9 528.1 300.0 528.1L300.0 528.1L301.3 528.1L301.3 526.2Q301.3 522.5 303.1 520.7Q304.9 519.0 308.5 518.9L308.5 518.9Q311.1 518.9 312.4 519.7Q313.6 520.4 313.6 521.7L313.6 521.7Q313.6 523.1 312.2 523.5L312.2 523.5Q311.6 523.7 310.9 523.7L310.9 523.7Q309.4 523.7 308.7 524.4Q308.0 525.1 308.0 526.5L308.0 526.5L308.0 528.1L310.9 528.1Q312.0 528.1 312.7 528.7Q313.4 529.4 313.4 530.6Q313.4 531.7 312.7 532.4Q312.0 533.1 310.9 533.1L310.9 533.1L308.1 533.1L308.1 550.0Q308.1 551.7 307.2 552.6ZM318.4 546.6L318.4 546.6L318.4 533.1L317.1 533.1Q315.9 533.1 315.1 532.4Q314.4 531.7 314.4 530.5Q314.4 529.3 315.1 528.6Q315.9 527.9 317.1 527.9L317.1 527.9L318.4 527.9L318.4 525.1Q318.4 523.5 319.3 522.5Q320.2 521.6 321.8 521.6Q323.4 521.6 324.3 522.5Q325.2 523.5 325.2 525.1L325.2 525.1L325.2 527.9L327.6 527.9Q328.9 527.9 329.6 528.6Q330.3 529.3 330.3 530.5Q330.3 531.7 329.6 532.4Q328.9 533.1 327.6 533.1L327.6 533.1L325.2 533.1L325.2 545.1Q325.2 546.5 325.7 547.1Q326.2 547.7 327.3 547.8L327.3 547.8L327.8 547.8Q329.1 548.0 329.7 548.5Q330.4 549.1 330.4 550.3L330.4 550.3Q330.4 551.8 329.0 552.6Q327.7 553.3 325.5 553.3L325.5 553.3L325.3 553.3Q318.4 553.3 318.4 546.6Z "/><mask id="satori_om-id-0-1-1"><rect x="924" y="524" width="236" height="36" fill="#fff"/></mask><path fill="#8e8e8e" d="M927.9 552.6Q927.5 552.9 927.0 552.9Q926.4 552.9 926.1 552.6Q925.8 552.2 925.8 551.7L925.8 551.7L925.8 532.6Q925.8 532.0 926.1 531.6Q926.5 531.3 927.1 531.3Q927.6 531.3 928.0 531.6Q928.3 532.0 928.3 532.6L928.3 532.6L928.3 540.0L928.4 540.0Q929.1 538.7 930.4 537.9Q931.7 537.2 933.3 537.2L933.3 537.2Q936.2 537.2 937.9 539.3Q939.7 541.5 939.7 545.0L939.7 545.0Q939.7 548.6 937.9 550.8Q936.2 552.9 933.2 552.9L933.2 552.9Q931.6 552.9 930.3 552.2Q929.0 551.4 928.3 550.1L928.3 550.1L928.2 550.1L928.2 551.7Q928.2 552.2 927.9 552.6ZM932.7 550.7L932.7 550.7Q934.8 550.7 935.9 549.2Q937.1 547.7 937.1 545.0L937.1 545.0Q937.1 542.5 935.9 540.9Q934.8 539.4 932.7 539.4L932.7 539.4Q930.8 539.4 929.6 541.0Q928.3 542.5 928.3 545.0L928.3 545.0Q928.3 547.6 929.6 549.1Q930.8 550.7 932.7 550.7ZM943.8 558.4L943.8 558.4Q942.9 558.4 942.4 558.0Q941.9 557.7 941.9 557.1L941.9 557.1Q941.9 556.7 942.1 556.4Q942.4 556.2 942.9 556.2L942.9 556.2Q943.1 556.2 943.3 556.2Q943.5 556.2 943.7 556.2L943.7 556.2Q945.4 556.2 946.2 553.7L946.2 553.7L946.6 552.7L941.3 539.0Q941.2 538.6 941.2 538.3L941.2 538.3Q941.2 537.8 941.6 537.5Q941.9 537.2 942.5 537.2L942.5 537.2Q943.4 537.2 943.7 538.1L943.7 538.1L947.9 550.1L948.0 550.1L952.2 538.1Q952.3 537.6 952.6 537.4Q952.9 537.2 953.4 537.2L953.4 537.2Q953.9 537.2 954.3 537.5Q954.6 537.8 954.6 538.3L954.6 538.3Q954.6 538.6 954.5 539.0L954.5 539.0L948.9 553.7Q947.9 556.4 946.8 557.4Q945.7 558.4 943.8 558.4Z M965.7 552.5Q965.3 552.9 964.7 552.9Q964.1 552.9 963.8 552.5Q963.4 552.1 963.4 551.5L963.4 551.5L963.4 532.9Q963.4 532.3 963.8 531.9Q964.1 531.5 964.7 531.5L964.7 531.5L970.9 531.5Q973.9 531.5 975.8 533.4Q977.7 535.3 977.7 538.3L977.7 538.3Q977.7 541.3 975.8 543.2Q973.9 545.1 970.9 545.1L970.9 545.1L966.0 545.1L966.0 551.5Q966.0 552.1 965.7 552.5ZM966.0 533.9L966.0 542.8L970.3 542.8Q972.5 542.8 973.8 541.6Q975.0 540.4 975.0 538.3Q975.0 536.2 973.8 535.0Q972.5 533.9 970.3 533.9L970.3 533.9L966.0 533.9ZM984.8 552.9L984.8 552.9Q982.5 552.9 981.1 551.7Q979.7 550.4 979.7 548.4L979.7 548.4Q979.7 546.4 981.2 545.2Q982.6 544.1 985.2 543.9L985.2 543.9L989.6 543.7L989.6 542.4Q989.6 541.0 988.7 540.2Q987.9 539.4 986.3 539.4L986.3 539.4Q985.0 539.4 984.1 539.9Q983.3 540.4 982.6 541.5L982.6 541.5Q982.3 542.1 981.6 542.1L981.6 542.1Q981.1 542.1 980.8 541.8Q980.5 541.5 980.5 541.0Q980.5 540.5 980.8 539.9L980.8 539.9Q981.4 538.7 982.9 537.9Q984.5 537.2 986.3 537.2L986.3 537.2Q989.0 537.2 990.6 538.5Q992.2 539.9 992.2 542.1L992.2 542.1L992.2 551.6Q992.2 552.2 991.8 552.6Q991.5 552.9 991.0 552.9L991.0 552.9Q990.4 552.9 990.1 552.6Q989.7 552.2 989.7 551.6L989.7 551.6L989.7 550.0L989.7 550.0Q989.0 551.3 987.7 552.1Q986.3 552.9 984.8 552.9ZM985.3 550.8L985.3 550.8Q987.1 550.8 988.4 549.6Q989.6 548.5 989.6 546.9L989.6 546.9L989.6 545.6L985.5 545.9Q984.0 546.0 983.1 546.6Q982.3 547.3 982.3 548.4Q982.3 549.4 983.1 550.1Q984.0 550.8 985.3 550.8ZM996.2 549.1L996.2 549.1L996.2 539.5L994.9 539.5Q994.4 539.5 994.1 539.3Q993.8 539.0 993.8 538.5L993.8 538.5Q993.8 538.0 994.1 537.7Q994.4 537.4 994.9 537.4L994.9 537.4L996.2 537.4L996.2 534.8Q996.2 534.2 996.6 533.8Q996.9 533.5 997.5 533.5Q998.0 533.5 998.4 533.8Q998.8 534.2 998.8 534.8L998.8 534.8L998.8 537.4L1000.7 537.4Q1001.3 537.4 1001.6 537.7Q1001.9 538.0 1001.9 538.5L1001.9 538.5Q1001.9 539.0 1001.6 539.3Q1001.3 539.5 1000.7 539.5L1000.7 539.5L998.8 539.5L998.8 548.6Q998.8 549.6 999.2 550.0Q999.6 550.5 1000.5 550.6L1000.5 550.6L1000.7 550.6Q1001.9 550.7 1001.9 551.6L1001.9 551.6Q1001.9 552.2 1001.5 552.5Q1001.1 552.8 1000.1 552.8L1000.1 552.8L999.9 552.8Q996.2 552.8 996.2 549.1ZM1006.6 552.5Q1006.3 552.9 1005.7 552.9Q1005.2 552.9 1004.8 552.5Q1004.4 552.2 1004.4 551.6L1004.4 551.6L1004.4 538.5Q1004.4 537.9 1004.8 537.5Q1005.1 537.2 1005.6 537.2Q1006.2 537.2 1006.5 537.5Q1006.8 537.9 1006.8 538.5L1006.8 538.5L1006.8 539.9L1006.9 539.9Q1007.2 538.7 1008.2 537.9Q1009.2 537.2 1010.4 537.2L1010.4 537.2Q1011.2 537.2 1011.6 537.5L1011.6 537.5Q1011.9 537.8 1011.9 538.4L1011.9 538.4Q1011.9 539.0 1011.5 539.3L1011.5 539.3Q1011.1 539.6 1010.3 539.6L1010.3 539.6Q1008.6 539.6 1007.8 540.6Q1007.0 541.6 1007.0 543.2L1007.0 543.2L1007.0 551.6Q1007.0 552.2 1006.6 552.5ZM1015.1 534.9L1015.1 534.9Q1014.4 534.9 1014.0 534.4Q1013.5 533.9 1013.5 533.3L1013.5 533.3Q1013.5 532.6 1014.0 532.2Q1014.4 531.7 1015.1 531.7L1015.1 531.7Q1015.7 531.7 1016.2 532.2Q1016.7 532.6 1016.7 533.3L1016.7 533.3Q1016.7 533.9 1016.2 534.4Q1015.7 534.9 1015.1 534.9ZM1016.0 552.5Q1015.6 552.9 1015.1 552.9Q1014.5 552.9 1014.2 552.5Q1013.8 552.2 1013.8 551.6L1013.8 551.6L1013.8 538.5Q1013.8 537.9 1014.2 537.5Q1014.5 537.2 1015.1 537.2Q1015.6 537.2 1016.0 537.5Q1016.4 537.9 1016.4 538.5L1016.4 538.5L1016.4 551.6Q1016.4 552.2 1016.0 552.5ZM1026.1 552.9L1026.1 552.9Q1022.9 552.9 1021.0 550.8Q1019.1 548.7 1019.1 545.1Q1019.1 541.5 1021.0 539.3Q1022.9 537.2 1026.1 537.2L1026.1 537.2Q1028.2 537.2 1029.9 538.2Q1031.6 539.3 1032.0 540.9L1032.0 540.9Q1032.1 541.2 1032.1 541.4L1032.1 541.4Q1032.1 542.0 1031.8 542.3Q1031.5 542.6 1031.0 542.6L1031.0 542.6Q1030.6 542.6 1030.3 542.4Q1030.1 542.2 1029.8 541.7L1029.8 541.7Q1028.6 539.4 1026.1 539.4L1026.1 539.4Q1024.1 539.4 1022.9 541.0Q1021.6 542.5 1021.6 545.0L1021.6 545.0Q1021.6 547.6 1022.9 549.2Q1024.1 550.7 1026.1 550.7L1026.1 550.7Q1027.4 550.7 1028.3 550.1Q1029.2 549.6 1029.8 548.4L1029.8 548.4Q1030.1 547.9 1030.3 547.7Q1030.6 547.5 1031.0 547.5L1031.0 547.5Q1031.5 547.5 1031.8 547.8Q1032.1 548.2 1032.1 548.7L1032.1 548.7Q1032.1 548.9 1032.0 549.3L1032.0 549.3Q1031.4 550.9 1029.8 551.9Q1028.2 552.9 1026.1 552.9ZM1041.2 552.9L1041.2 552.9Q1037.8 552.9 1036.0 550.9Q1034.1 548.8 1034.1 545.1L1034.1 545.1Q1034.1 541.5 1036.0 539.3Q1037.8 537.2 1041.0 537.2L1041.0 537.2Q1043.9 537.2 1045.8 539.1Q1047.6 541.1 1047.6 544.3L1047.6 544.3Q1047.6 544.9 1047.3 545.3Q1046.9 545.7 1046.2 545.7L1046.2 545.7L1036.7 545.7Q1036.7 548.0 1037.9 549.4Q1039.1 550.7 1041.1 550.7L1041.1 550.7Q1042.5 550.7 1043.4 550.2Q1044.3 549.6 1045.2 548.3L1045.2 548.3Q1045.6 547.8 1046.2 547.8L1046.2 547.8Q1046.7 547.8 1047.0 548.1Q1047.3 548.4 1047.3 548.9L1047.3 548.9Q1047.3 549.2 1047.1 549.7L1047.1 549.7Q1046.4 551.2 1044.8 552.1Q1043.3 552.9 1041.2 552.9ZM1036.7 543.7L1036.7 543.7L1045.0 543.7Q1045.0 541.8 1043.8 540.6Q1042.7 539.4 1041.0 539.4L1041.0 539.4Q1039.2 539.4 1038.0 540.6Q1036.8 541.8 1036.7 543.7Z M1059.0 552.5Q1058.7 552.9 1058.1 552.9Q1057.5 552.9 1057.1 552.5Q1056.7 552.1 1056.7 551.5L1056.7 551.5L1056.7 532.7Q1056.7 532.1 1057.1 531.7Q1057.5 531.3 1058.1 531.3Q1058.7 531.3 1059.0 531.7Q1059.4 532.1 1059.4 532.7L1059.4 532.7L1059.4 541.8L1059.5 541.8L1068.9 531.8Q1069.4 531.3 1070.0 531.3L1070.0 531.3Q1070.5 531.3 1070.9 531.7Q1071.2 532.0 1071.2 532.5L1071.2 532.5Q1071.2 533.0 1070.9 533.3L1070.9 533.3L1063.6 540.9L1071.7 550.6Q1072.1 551.1 1072.1 551.6L1072.1 551.6Q1072.1 552.2 1071.7 552.5Q1071.3 552.9 1070.8 552.9L1070.8 552.9Q1070.1 552.9 1069.6 552.2L1069.6 552.2L1061.7 542.8L1059.4 545.3L1059.4 551.5Q1059.4 552.1 1059.0 552.5ZM1081.2 552.9L1081.2 552.9Q1077.8 552.9 1075.9 550.9Q1074.1 548.8 1074.1 545.1L1074.1 545.1Q1074.1 541.5 1075.9 539.3Q1077.8 537.2 1081.0 537.2L1081.0 537.2Q1083.9 537.2 1085.8 539.1Q1087.6 541.1 1087.6 544.3L1087.6 544.3Q1087.6 544.9 1087.2 545.3Q1086.9 545.7 1086.2 545.7L1086.2 545.7L1076.7 545.7Q1076.7 548.0 1077.9 549.4Q1079.1 550.7 1081.1 550.7L1081.1 550.7Q1082.5 550.7 1083.4 550.2Q1084.3 549.6 1085.2 548.3L1085.2 548.3Q1085.6 547.8 1086.2 547.8L1086.2 547.8Q1086.7 547.8 1087.0 548.1Q1087.3 548.4 1087.3 548.9L1087.3 548.9Q1087.3 549.2 1087.1 549.7L1087.1 549.7Q1086.4 551.2 1084.8 552.1Q1083.3 552.9 1081.2 552.9ZM1076.7 543.7L1076.7 543.7L1085.0 543.7Q1084.9 541.8 1083.8 540.6Q1082.7 539.4 1080.9 539.4L1080.9 539.4Q1079.1 539.4 1078.0 540.6Q1076.8 541.8 1076.7 543.7ZM1092.4 552.5Q1092.0 552.9 1091.4 552.9Q1090.9 552.9 1090.5 552.5Q1090.2 552.2 1090.2 551.6L1090.2 551.6L1090.2 538.5Q1090.2 537.9 1090.5 537.5Q1090.8 537.2 1091.4 537.2Q1091.9 537.2 1092.2 537.5Q1092.6 537.9 1092.6 538.5L1092.6 538.5L1092.6 539.9L1092.6 539.9Q1093.3 538.6 1094.5 537.9Q1095.8 537.2 1097.5 537.2L1097.5 537.2Q1100.0 537.2 1101.3 538.7Q1102.7 540.2 1102.7 542.8L1102.7 542.8L1102.7 551.6Q1102.7 552.2 1102.4 552.5Q1102.0 552.9 1101.5 552.9Q1100.9 552.9 1100.6 552.5Q1100.2 552.2 1100.2 551.6L1100.2 551.6L1100.2 543.2Q1100.2 541.4 1099.3 540.4Q1098.4 539.4 1096.7 539.4L1096.7 539.4Q1094.9 539.4 1093.8 540.6Q1092.7 541.8 1092.7 543.7L1092.7 543.7L1092.7 551.6Q1092.7 552.2 1092.4 552.5ZM1108.2 552.5Q1107.8 552.9 1107.3 552.9Q1106.7 552.9 1106.3 552.5Q1106.0 552.2 1106.0 551.6L1106.0 551.6L1106.0 538.5Q1106.0 537.9 1106.3 537.5Q1106.7 537.2 1107.2 537.2Q1107.7 537.2 1108.0 537.5Q1108.4 537.9 1108.4 538.5L1108.4 538.5L1108.4 539.9L1108.4 539.9Q1109.0 538.6 1110.1 537.9Q1111.3 537.2 1112.8 537.2L1112.8 537.2Q1114.3 537.2 1115.4 537.9Q1116.5 538.7 1117.0 540.1L1117.0 540.1L1117.1 540.1Q1117.7 538.7 1119.0 537.9Q1120.3 537.2 1121.9 537.2L1121.9 537.2Q1124.1 537.2 1125.5 538.5Q1126.8 539.9 1126.8 542.1L1126.8 542.1L1126.8 551.6Q1126.8 552.2 1126.5 552.5Q1126.1 552.9 1125.6 552.9Q1125.0 552.9 1124.6 552.5Q1124.3 552.2 1124.3 551.6L1124.3 551.6L1124.3 542.7Q1124.3 541.2 1123.5 540.3Q1122.6 539.4 1121.1 539.4Q1119.6 539.4 1118.6 540.4Q1117.7 541.4 1117.7 543.0L1117.7 543.0L1117.7 551.6Q1117.7 552.2 1117.3 552.5Q1117.0 552.9 1116.4 552.9Q1115.8 552.9 1115.5 552.5Q1115.1 552.2 1115.1 551.6L1115.1 551.6L1115.1 542.5Q1115.1 541.1 1114.3 540.2Q1113.4 539.4 1112.0 539.4L1112.0 539.4Q1110.5 539.4 1109.5 540.5Q1108.5 541.5 1108.5 543.1L1108.5 543.1L1108.5 551.6Q1108.5 552.2 1108.2 552.5ZM1136.4 552.9L1136.4 552.9Q1133.2 552.9 1131.3 550.8Q1129.3 548.7 1129.3 545.0Q1129.3 541.4 1131.3 539.3Q1133.2 537.2 1136.4 537.2L1136.4 537.2Q1139.6 537.2 1141.5 539.3Q1143.4 541.4 1143.4 545.0L1143.4 545.0Q1143.4 548.7 1141.5 550.8Q1139.6 552.9 1136.4 552.9ZM1133.1 549.2Q1134.3 550.7 1136.4 550.7Q1138.4 550.7 1139.6 549.2Q1140.8 547.7 1140.8 545.0Q1140.8 542.4 1139.6 540.9Q1138.4 539.4 1136.4 539.4Q1134.3 539.4 1133.1 540.9Q1131.9 542.4 1131.9 545.0Q1131.9 547.7 1133.1 549.2ZM1152.5 535.6L1152.5 535.6Q1152.1 535.6 1151.9 535.4Q1151.6 535.2 1151.6 534.8Q1151.6 534.5 1151.8 534.2L1151.8 534.2L1154.0 531.1Q1154.3 530.6 1154.6 530.5Q1154.8 530.3 1155.1 530.3L1155.1 530.3Q1155.6 530.3 1155.9 530.6Q1156.2 530.9 1156.2 531.3L1156.2 531.3Q1156.2 531.7 1155.9 532.1L1155.9 532.1L1153.4 535.1Q1153.0 535.6 1152.5 535.6ZM1152.4 552.9L1152.4 552.9Q1149.0 552.9 1147.1 550.9Q1145.3 548.8 1145.3 545.1L1145.3 545.1Q1145.3 541.5 1147.1 539.3Q1149.0 537.2 1152.2 537.2L1152.2 537.2Q1155.1 537.2 1156.9 539.1Q1158.8 541.1 1158.8 544.3L1158.8 544.3Q1158.8 544.9 1158.4 545.3Q1158.1 545.7 1157.4 545.7L1157.4 545.7L1147.9 545.7Q1147.9 548.0 1149.1 549.4Q1150.2 550.7 1152.3 550.7L1152.3 550.7Q1153.6 550.7 1154.6 550.2Q1155.5 549.6 1156.4 548.3L1156.4 548.3Q1156.8 547.8 1157.3 547.8L1157.3 547.8Q1157.9 547.8 1158.2 548.1Q1158.5 548.4 1158.5 548.9L1158.5 548.9Q1158.5 549.2 1158.3 549.7L1158.3 549.7Q1157.6 551.2 1156.0 552.1Q1154.5 552.9 1152.4 552.9ZM1147.9 543.7L1147.9 543.7L1156.2 543.7Q1156.1 541.8 1155.0 540.6Q1153.9 539.4 1152.1 539.4L1152.1 539.4Q1150.3 539.4 1149.2 540.6Q1148.0 541.8 1147.9 543.7Z "/></svg>