<svg width="1200" height="630" viewBox="0 0 1200 630" xmlns="http://www.w3.org/2000/svg"><mask id="satori_om-id"><rect x="0" y="0" width="1200" height="630" fill="#fff"/></mask><mask id="satori_om-id-0"><rect x="0" y="0" width="1200" height="630" fill="#fff"/></mask><rect x="0" y="0" width="1200" height="630" fill="#f2f2f2"/><mask id="satori_om-id-0-0"><rect x="0" y="0" width="1200" height="441" fill="#fff"/></mask><mask id="satori_om-id-0-0-0"><rect x="40" y="136" width="1120" height="36" fill="#fff"/></mask><path fill="#8e8e8e" d="M50.0 164.4Q49.6 164.9 48.8 164.9Q48.1 164.9 47.6 164.4Q47.2 164.0 47.2 163.2L47.2 163.2L47.2 146.4L42.0 146.4Q41.3 146.4 40.9 146.0Q40.5 145.6 40.5 144.9Q40.5 144.3 40.9 143.9Q41.3 143.5 42.0 143.5L42.0 143.5L55.6 143.5Q56.3 143.5 56.8 143.9Q57.2 144.3 57.2 144.9Q57.2 145.6 56.8 146.0Q56.3 146.4 55.6 146.4L55.6 146.4L50.5 146.4L50.5 163.2Q50.5 164.0 50.0 164.4ZM64.6 164.9L64.6 164.9Q62.0 164.9 60.6 163.4Q59.1 161.9 59.1 159.2L59.1 159.2L59.1 150.7Q59.1 149.9 59.6 149.4Q60.0 149.0 60.7 149.0L60.7 149.0Q61.4 149.0 61.9 149.4Q62.3 149.9 62.3 150.7L62.3 150.7L62.3 158.6Q62.3 160.4 63.1 161.3Q64.0 162.2 65.6 162.2L65.6 162.2Q67.3 162.2 68.3 161.1Q69.3 160.0 69.3 158.2L69.3 158.2L69.3 150.7Q69.3 149.9 69.7 149.4Q70.1 149.0 70.8 149.0L70.8 149.0Q71.6 149.0 72.0 149.4Q72.4 149.9 72.4 150.7L72.4 150.7L72.4 163.3Q72.4 164.1 72.0 164.5Q71.6 164.9 70.9 164.9Q70.2 164.9 69.8 164.5Q69.4 164.1 69.4 163.3L69.4 163.3L69.4 162.1L69.3 162.1Q68.0 164.9 64.6 164.9ZM82.2 165.0L82.2 165.0Q78.7 165.0 76.8 162.9Q74.9 160.8 74.9 157.0L74.9 157.0Q74.9 153.4 76.8 151.2Q78.7 149.0 82.0 149.0L82.0 149.0Q85.1 149.0 87.0 151.0Q88.9 153.0 88.9 156.1L88.9 156.1Q88.9 156.9 88.5 157.3Q88.1 157.8 87.4 157.8L87.4 157.8L78.1 157.8L78.1 157.8Q78.1 159.9 79.2 161.2Q80.3 162.4 82.2 162.4L82.2 162.4Q83.4 162.4 84.4 161.9Q85.3 161.4 86.1 160.2L86.1 160.2Q86.6 159.6 87.3 159.6L87.3 159.6Q87.8 159.6 88.2 160.0Q88.6 160.3 88.6 160.9L88.6 160.9Q88.6 161.3 88.4 161.8L88.4 161.8Q87.6 163.3 86.0 164.1Q84.4 165.0 82.2 165.0ZM78.1 155.5L78.1 155.5L85.8 155.5Q85.7 153.7 84.7 152.6Q83.7 151.5 82.0 151.5L82.0 151.5Q80.4 151.5 79.3 152.6Q78.2 153.7 78.1 155.5ZM97.1 165.0L97.1 165.0Q94.8 165.0 93.2 164.1Q91.6 163.3 91.1 161.8L91.1 161.8Q90.9 161.5 90.9 161.2L90.9 161.2Q90.9 160.6 91.3 160.2Q91.7 159.9 92.3 159.9L92.3 159.9Q93.1 159.9 93.7 160.7L93.7 160.7Q94.3 161.7 95.1 162.1Q95.9 162.5 97.2 162.5L97.2 162.5Q98.6 162.5 99.4 162.0Q100.2 161.4 100.2 160.5L100.2 160.5Q100.2 159.7 99.7 159.3Q99.2 158.8 98.0 158.5L98.0 158.5L95.6 158.0Q91.1 156.9 91.1 153.6L91.1 153.6Q91.1 151.5 92.8 150.2Q94.4 149.0 97.2 149.0L97.2 149.0Q99.3 149.0 100.8 149.9Q102.4 150.8 102.7 152.2L102.7 152.2Q102.8 152.6 102.8 152.7L102.8 152.7Q102.8 153.2 102.4 153.5Q102.1 153.9 101.5 153.9L101.5 153.9Q100.7 153.9 100.2 153.2L100.2 153.2Q99.7 152.3 99.0 151.8Q98.2 151.4 97.1 151.4L97.1 151.4Q95.8 151.4 95.0 152.0Q94.2 152.5 94.2 153.4L94.2 153.4Q94.2 154.9 96.6 155.5L96.6 155.5L99.0 156.0Q101.4 156.6 102.4 157.5Q103.4 158.5 103.4 160.2L103.4 160.2Q103.4 162.3 101.7 163.6Q99.9 165.0 97.1 165.0ZM111.7 164.9L111.7 164.9Q108.7 164.9 107.0 162.8Q105.2 160.6 105.2 157.0Q105.2 153.3 107.0 151.2Q108.7 149.0 111.6 149.0L111.6 149.0Q113.3 149.0 114.5 149.8Q115.8 150.5 116.5 151.8L116.5 151.8L116.5 151.8L116.5 144.9Q116.5 144.1 117.0 143.7Q117.4 143.2 118.1 143.2L118.1 143.2Q118.8 143.2 119.3 143.7Q119.7 144.2 119.7 144.9L119.7 144.9L119.7 163.4Q119.7 164.1 119.3 164.5Q118.9 164.9 118.1 164.9L118.1 164.9Q117.5 164.9 117.0 164.5Q116.5 164.1 116.5 163.4L116.5 163.4L116.5 161.9L116.5 161.9Q115.9 163.3 114.6 164.1Q113.4 164.9 111.7 164.9ZM112.5 162.2L112.5 162.2Q114.3 162.2 115.5 160.8Q116.6 159.4 116.6 157.0L116.6 157.0Q116.6 154.6 115.5 153.1Q114.3 151.7 112.5 151.7L112.5 151.7Q110.6 151.7 109.5 153.1Q108.4 154.5 108.4 157.0L108.4 157.0Q108.4 159.4 109.5 160.8Q110.6 162.2 112.5 162.2ZM127.5 164.9L127.5 164.9Q125.2 164.9 123.8 163.6Q122.3 162.3 122.3 160.3L122.3 160.3Q122.3 158.3 123.8 157.1Q125.3 155.9 128.1 155.7L128.1 155.7L132.3 155.5L132.3 154.3Q132.3 153.0 131.5 152.3Q130.6 151.6 129.2 151.6L129.2 151.6Q128.0 151.6 127.2 152.0Q126.4 152.5 125.8 153.5L125.8 153.5Q125.3 154.2 124.5 154.2L124.5 154.2Q123.9 154.2 123.5 153.8Q123.1 153.4 123.1 152.9L123.1 152.9Q123.1 152.3 123.4 151.8L123.4 151.8Q124.0 150.5 125.6 149.8Q127.2 149.0 129.3 149.0L129.3 149.0Q132.1 149.0 133.8 150.4Q135.4 151.7 135.4 154.0L135.4 154.0L135.4 163.3Q135.4 164.1 135.0 164.5Q134.6 164.9 133.9 164.9L133.9 164.9Q133.3 164.9 132.8 164.5Q132.4 164.1 132.4 163.4L132.4 163.4L132.4 162.1L132.3 162.1Q131.7 163.4 130.3 164.2Q129.0 164.9 127.5 164.9ZM128.3 162.4L128.3 162.4Q130 162.4 131.1 161.4Q132.3 160.4 132.3 158.9L132.3 158.9L132.3 157.7L128.5 157.9Q127.1 158.0 126.3 158.6Q125.5 159.2 125.5 160.2L125.5 160.2Q125.5 161.2 126.3 161.8Q127.1 162.4 128.3 162.4ZM140.4 170.4L140.4 170.4Q139.3 170.4 138.7 170.0Q138.1 169.6 138.1 168.9L138.1 168.9Q138.1 168.4 138.5 168.1Q138.8 167.8 139.4 167.8L139.4 167.8Q139.5 167.8 139.8 167.8Q140.0 167.8 140.2 167.8L140.2 167.8Q141.8 167.8 142.5 165.7L142.5 165.7L142.8 164.8L137.7 151.3Q137.5 150.9 137.5 150.4L137.5 150.4Q137.5 149.8 137.9 149.4Q138.4 149.0 139.1 149.0L139.1 149.0Q139.7 149.0 140.1 149.3Q140.4 149.5 140.6 150.2L140.6 150.2L144.5 161.8L144.6 161.8L148.5 150.2Q148.7 149.5 149.1 149.3Q149.4 149.0 150.0 149.0L150.0 149.0Q150.7 149.0 151.1 149.4Q151.6 149.8 151.6 150.4L151.6 150.4Q151.6 150.8 151.4 151.3L151.4 151.3L146.1 165.4Q145.0 168.2 143.8 169.3Q142.5 170.4 140.4 170.4ZM156.0 161.1L156.0 161.1Q156.7 161.1 157.1 161.5Q157.5 161.8 157.5 162.4L157.5 162.4Q157.5 162.8 157.4 163.3L157.4 163.3L156.1 168.3Q155.9 169.4 154.8 169.4L154.8 169.4Q154.2 169.4 153.9 169.1Q153.5 168.7 153.6 168.2L153.6 168.2Q153.6 168.1 153.6 167.8L153.6 167.8L154.5 162.4Q154.8 161.1 156.0 161.1Z M180.9 164.7L169.2 164.7Q168.5 164.7 168.1 164.3Q167.7 163.9 167.7 163.3L167.7 163.3Q167.7 162.8 167.8 162.5Q168.0 162.1 168.6 161.6L168.6 161.6L175.2 154.9Q177.2 152.8 177.9 151.7Q178.6 150.6 178.6 149.3L178.6 149.3Q178.6 147.8 177.6 146.8Q176.5 145.8 174.9 145.8L174.9 145.8Q171.8 145.8 170.7 149.0L170.7 149.0Q170.4 149.5 170.1 149.8Q169.8 150.0 169.2 150.0L169.2 150.0Q168.5 150.0 168.1 149.6Q167.7 149.3 167.7 148.6L167.7 148.6Q167.7 148.3 167.8 148.0L167.8 148.0Q168.0 147.1 168.6 146.3Q169.1 145.4 170.0 144.7Q170.8 144.0 172.1 143.6Q173.4 143.1 174.9 143.1L174.9 143.1Q178.0 143.1 179.9 144.8Q181.8 146.5 181.8 149.1L181.8 149.1Q181.8 150.9 180.9 152.5Q179.9 154.0 177.2 156.8L177.2 156.8L172.1 161.8L172.1 161.9L180.9 161.9Q181.5 161.9 181.9 162.3Q182.3 162.7 182.3 163.3L182.3 163.3Q182.3 163.9 181.9 164.3Q181.5 164.7 180.9 164.7L180.9 164.7ZM198.8 162.1Q196.6 165.1 192.8 165.1Q189.0 165.1 186.9 162.1Q184.7 159.2 184.7 154.1L184.7 154.1Q184.7 149.0 186.9 146.1Q189.0 143.1 192.8 143.1L192.8 143.1Q196.6 143.1 198.7 146.1Q200.9 149.0 200.9 154.1L200.9 154.1Q200.9 159.1 198.8 162.1ZM192.8 162.3L192.8 162.3Q195.1 162.3 196.3 160.1Q197.6 157.9 197.6 154.1L197.6 154.1Q197.6 150.3 196.3 148.1Q195.1 145.9 192.8 145.9Q190.6 145.9 189.3 148.1Q188.1 150.3 188.1 154.1L188.1 154.1Q188.1 157.9 189.3 160.1Q190.5 162.3 192.8 162.3Z M212.8 164.5Q212.4 164.9 211.7 164.9Q211.0 164.9 210.6 164.5Q210.2 164.1 210.2 163.3L210.2 163.3L210.2 145.4Q210.2 144.4 210.8 143.9Q211.3 143.3 212.3 143.3L212.3 143.3Q213.1 143.3 213.7 143.7Q214.2 144.1 214.6 145.0L214.6 145.0L220.8 160.2L221.0 160.2L227.2 145.0Q227.6 144.1 228.1 143.7Q228.7 143.3 229.5 143.3L229.5 143.3Q230.5 143.3 231.0 143.8Q231.6 144.4 231.6 145.4L231.6 145.4L231.6 163.3Q231.6 164.1 231.2 164.5Q230.8 164.9 230.1 164.9L230.1 164.9Q229.4 164.9 229.0 164.5Q228.6 164.1 228.6 163.3L228.6 163.3L228.6 149.1L228.5 149.1L222.6 163.3Q222.1 164.5 220.9 164.5L220.9 164.5Q219.7 164.5 219.2 163.3L219.2 163.3L213.3 149.1L213.2 149.1L213.2 163.3Q213.2 164.1 212.8 164.5ZM239.6 164.9L239.6 164.9Q237.3 164.9 235.9 163.6Q234.5 162.3 234.5 160.3L234.5 160.3Q234.5 158.3 236.0 157.1Q237.5 155.9 240.2 155.7L240.2 155.7L244.4 155.5L244.4 154.3Q244.4 153.0 243.6 152.3Q242.8 151.6 241.3 151.6L241.3 151.6Q240.2 151.6 239.4 152.0Q238.6 152.5 237.9 153.5L237.9 153.5Q237.5 154.2 236.6 154.2L236.6 154.2Q236.0 154.2 235.7 153.8Q235.3 153.4 235.3 152.9L235.3 152.9Q235.3 152.3 235.6 151.8L235.6 151.8Q236.2 150.5 237.8 149.8Q239.4 149.0 241.5 149.0L241.5 149.0Q244.3 149.0 245.9 150.4Q247.6 151.7 247.6 154.0L247.6 154.0L247.6 163.3Q247.6 164.1 247.2 164.5Q246.7 164.9 246.1 164.9L246.1 164.9Q245.4 164.9 245.0 164.5Q244.6 164.1 244.6 163.4L244.6 163.4L244.6 162.1L244.5 162.1Q243.8 163.4 242.5 164.2Q241.1 164.9 239.6 164.9ZM240.5 162.4L240.5 162.4Q242.1 162.4 243.3 161.4Q244.4 160.4 244.4 158.9L244.4 158.9L244.4 157.7L240.6 157.9Q239.2 158.0 238.4 158.6Q237.7 159.2 237.7 160.2L237.7 160.2Q237.7 161.2 238.4 161.8Q239.2 162.4 240.5 162.4ZM252.5 170.4L252.5 170.4Q251.5 170.4 250.9 170.0Q250.3 169.6 250.3 168.9L250.3 168.9Q250.3 168.4 250.6 168.1Q250.9 167.8 251.5 167.8L251.5 167.8Q251.7 167.8 251.9 167.8Q252.1 167.8 252.3 167.8L252.3 167.8Q253.9 167.8 254.7 165.7L254.7 165.7L255.0 164.8L249.8 151.3Q249.6 150.9 249.6 150.4L249.6 150.4Q249.6 149.8 250.1 149.4Q250.5 149.0 251.2 149.0L251.2 149.0Q251.8 149.0 252.2 149.3Q252.6 149.5 252.8 150.2L252.8 150.2L256.7 161.8L256.7 161.8L260.7 150.2Q260.9 149.5 261.2 149.3Q261.6 149.0 262.2 149.0L262.2 149.0Q262.9 149.0 263.3 149.4Q263.7 149.8 263.7 150.4L263.7 150.4Q263.7 150.8 263.6 151.3L263.6 151.3L258.2 165.4Q257.2 168.2 255.9 169.3Q254.7 170.4 252.5 170.4Z M285.2 164.7L273.5 164.7Q272.7 164.7 272.3 164.3Q271.9 163.9 271.9 163.3L271.9 163.3Q271.9 162.8 272.1 162.5Q272.3 162.1 272.8 161.6L272.8 161.6L279.4 154.9Q281.5 152.8 282.2 151.7Q282.9 150.6 282.9 149.3L282.9 149.3Q282.9 147.8 281.8 146.8Q280.8 145.8 279.2 145.8L279.2 145.8Q276.1 145.8 274.9 149.0L274.9 149.0Q274.7 149.5 274.4 149.8Q274.0 150.0 273.5 150.0L273.5 150.0Q272.8 150.0 272.4 149.6Q272.0 149.3 272.0 148.6L272.0 148.6Q272.0 148.3 272.1 148.0L272.1 148.0Q272.3 147.1 272.8 146.3Q273.4 145.4 274.2 144.7Q275.1 144.0 276.4 143.6Q277.7 143.1 279.2 143.1L279.2 143.1Q282.2 143.1 284.2 144.8Q286.1 146.5 286.1 149.1L286.1 149.1Q286.1 150.9 285.1 152.5Q284.1 154.0 281.4 156.8L281.4 156.8L276.4 161.8L276.4 161.9L285.2 161.9Q285.8 161.9 286.2 162.3Q286.6 162.7 286.6 163.3L286.6 163.3Q286.6 163.9 286.2 164.3Q285.8 164.7 285.2 164.7L285.2 164.7ZM303.0 162.1Q300.9 165.1 297.1 165.1Q293.3 165.1 291.1 162.1Q289.0 159.2 289.0 154.1L289.0 154.1Q289.0 149.0 291.2 146.1Q293.3 143.1 297.1 143.1L297.1 143.1Q300.9 143.1 303.0 146.1Q305.2 149.0 305.2 154.1L305.2 154.1Q305.2 159.1 303.0 162.1ZM297.1 162.3L297.1 162.3Q299.4 162.3 300.6 160.1Q301.9 157.9 301.9 154.1L301.9 154.1Q301.9 150.3 300.6 148.1Q299.4 145.9 297.1 145.9Q294.8 145.9 293.6 148.1Q292.3 150.3 292.3 154.1L292.3 154.1Q292.3 157.9 293.6 160.1Q294.8 162.3 297.1 162.3ZM321.3 164.7L309.6 164.7Q308.8 164.7 308.4 164.3Q308.0 163.9 308.0 163.3L308.0 163.3Q308.0 162.8 308.2 162.5Q308.4 162.1 308.9 161.6L308.9 161.6L315.5 154.9Q317.6 152.8 318.3 151.7Q319.0 150.6 319.0 149.3L319.0 149.3Q319.0 147.8 317.9 146.8Q316.9 145.8 315.3 145.8L315.3 145.8Q312.2 145.8 311.0 149.0L311.0 149.0Q310.8 149.5 310.5 149.8Q310.1 150.0 309.6 150.0L309.6 150.0Q308.9 150.0 308.5 149.6Q308.1 149.3 308.1 148.6L308.1 148.6Q308.1 148.3 308.2 148.0L308.2 148.0Q308.4 147.1 308.9 146.3Q309.5 145.4 310.3 144.7Q311.2 144.0 312.5 143.6Q313.8 143.1 315.3 143.1L315.3 143.1Q318.3 143.1 320.3 144.8Q322.2 146.5 322.2 149.1L322.2 149.1Q322.2 150.9 321.2 152.5Q320.2 154.0 317.5 156.8L317.5 156.8L312.5 161.8L312.5 161.9L321.3 161.9Q321.9 161.9 322.3 162.3Q322.7 162.7 322.7 163.3L322.7 163.3Q322.7 163.9 322.3 164.3Q321.9 164.7 321.3 164.7L321.3 164.7ZM333.0 165.1L333.0 165.1Q330.6 165.1 328.8 164.0Q326.9 162.9 326.1 161.2L326.1 161.2Q325.8 160.5 325.8 159.8L325.8 159.8Q325.8 159.1 326.2 158.7Q326.6 158.3 327.2 158.3L327.2 158.3Q327.8 158.3 328.1 158.6Q328.5 158.8 328.7 159.4L328.7 159.4Q329.2 160.8 330.3 161.5Q331.5 162.3 333.1 162.3L333.1 162.3Q335.0 162.3 336.3 161.0Q337.6 159.8 337.6 157.8L337.6 157.8Q337.6 155.8 336.3 154.6Q335.0 153.4 333.1 153.4L333.1 153.4Q330.9 153.4 329.6 154.7L329.6 154.7Q328.9 155.5 328.6 155.6Q328.2 155.8 327.6 155.8L327.6 155.8Q326.9 155.8 326.4 155.4Q326.0 154.9 326.1 154.2L326.1 154.2L326.1 153.9L326.8 145.8Q326.9 144.6 327.5 144.0Q328.1 143.5 329.3 143.5L329.3 143.5L338.3 143.5Q338.9 143.5 339.3 143.9Q339.7 144.3 339.7 144.9Q339.7 145.5 339.3 145.9Q338.9 146.3 338.3 146.3L338.3 146.3L329.6 146.3L329.0 152.9L329.1 152.9Q329.7 151.9 331.0 151.3Q332.3 150.8 333.8 150.8L333.8 150.8Q336.9 150.8 338.8 152.7Q340.8 154.6 340.8 157.7L340.8 157.7Q340.8 161.0 338.6 163.0Q336.4 165.1 333.0 165.1Z "/><mask id="satori_om-id-0-0-1"><rect x="40" y="217" width="1120" height="83" fill="#fff"/></mask><path fill="#224d67" d="M47.5 280.1L47.5 280.1Q45.7 280.1 44.7 279.0Q43.7 278.0 43.7 276.2L43.7 276.2L43.7 241.2Q43.7 239.4 44.7 238.3Q45.7 237.3 47.5 237.3L47.5 237.3L60.2 237.3Q66.5 237.3 70.4 241.2Q74.4 245.1 74.4 251.5L74.4 251.5Q74.4 257.8 70.3 261.7Q66.3 265.6 59.8 265.6L59.8 265.6L51.3 265.6L51.3 276.2Q51.3 278.0 50.3 279.1Q49.3 280.1 47.5 280.1ZM51.3 243.5L51.3 259.5L58.1 259.5Q62.2 259.5 64.5 257.4Q66.7 255.3 66.7 251.5L66.7 251.5Q66.7 247.6 64.5 245.6Q62.2 243.5 58.2 243.5L58.2 243.5L51.3 243.5ZM85.5 279.1Q84.5 280.2 82.8 280.2Q81.1 280.2 80.2 279.1Q79.2 278.1 79.2 276.3L79.2 276.3L79.2 251.6Q79.2 249.9 80.1 248.9Q81.1 247.9 82.7 247.9L82.7 247.9Q84.2 247.9 85.1 248.9Q86.1 249.9 86.1 251.6L86.1 251.6L86.1 254.0L86.3 254.0Q86.9 251.3 88.7 249.6Q90.6 248.0 92.9 248.0L92.9 248.0Q94.6 248.0 95.5 248.8L95.5 248.8Q96.5 249.6 96.5 251.4L96.5 251.4Q96.5 253.1 95.4 254.0L95.4 254.0Q94.4 254.9 92.2 255.0L92.2 255.0Q86.5 255.0 86.5 261.4L86.5 261.4L86.5 276.3Q86.5 278.1 85.5 279.1ZM113.6 280.2L113.6 280.2Q106.5 280.2 102.5 276.0Q98.5 271.7 98.5 264.2L98.5 264.2Q98.5 256.7 102.5 252.3Q106.5 247.9 113.2 247.9L113.2 247.9Q119.5 247.9 123.5 251.9Q127.5 256.0 127.5 262.4L127.5 262.4Q127.5 264.0 126.6 264.9Q125.7 265.8 124.1 265.8L124.1 265.8L105.8 265.8L105.8 266.0Q105.8 269.9 107.9 272.3Q110.0 274.6 113.5 274.6L113.5 274.6Q116.0 274.6 117.8 273.6Q119.5 272.7 121.3 270.4L121.3 270.4Q122.4 269.3 123.8 269.3L123.8 269.3Q125.0 269.3 125.9 270.0Q126.7 270.8 126.7 272.1L126.7 272.1Q126.7 272.9 126.2 273.9L126.2 273.9Q124.6 276.9 121.3 278.5Q118.0 280.2 113.6 280.2ZM105.8 261.0L105.8 261.0L120.3 261.0Q120.2 257.6 118.3 255.6Q116.3 253.5 113.2 253.5Q110.1 253.5 108.1 255.6Q106.0 257.7 105.8 261.0ZM144.2 280.2L144.2 280.2Q139.3 280.2 136.0 278.5Q132.6 276.8 131.5 274.0L131.5 274.0Q131.2 273.2 131.2 272.5L131.2 272.5Q131.2 271.2 132.1 270.4Q132.9 269.6 134.2 269.6L134.2 269.6Q136.1 269.6 137.4 271.4L137.4 271.4Q138.7 273.3 140.3 274.1Q141.9 274.9 144.4 274.9L144.4 274.9Q147.0 274.9 148.5 273.9Q150.1 272.8 150.1 271.1L150.1 271.1Q150.1 269.7 149.1 268.8Q148.1 268.0 145.7 267.4L145.7 267.4L140.7 266.3Q131.6 264.3 131.6 257.4L131.6 257.4Q131.6 253.1 135.1 250.5Q138.5 247.9 144.3 247.9L144.3 247.9Q148.7 247.9 151.9 249.8Q155.1 251.6 155.8 254.4L155.8 254.4Q156.0 255.0 156.0 255.5L156.0 255.5Q156.0 256.6 155.3 257.4Q154.5 258.1 153.2 258.1L153.2 258.1Q151.3 258.1 150.4 256.7L150.4 256.7Q149.2 255.0 147.8 254.1Q146.3 253.2 144.1 253.2L144.1 253.2Q141.7 253.2 140.2 254.3Q138.7 255.3 138.7 257.0L138.7 257.0Q138.7 259.8 143.3 260.8L143.3 260.8L148.2 261.9Q153.1 263.0 155.3 264.9Q157.4 266.9 157.4 270.3L157.4 270.3Q157.4 274.8 153.7 277.5Q150.1 280.2 144.2 280.2ZM174.0 280.2L174.0 280.2Q169.1 280.2 165.8 278.5Q162.5 276.8 161.3 274.0L161.3 274.0Q161.0 273.2 161.0 272.5L161.0 272.5Q161.0 271.2 161.9 270.4Q162.7 269.6 164.1 269.6L164.1 269.6Q165.9 269.6 167.2 271.4L167.2 271.4Q168.5 273.3 170.1 274.1Q171.7 274.9 174.2 274.9L174.2 274.9Q176.8 274.9 178.4 273.9Q179.9 272.8 179.9 271.1L179.9 271.1Q179.9 269.7 178.9 268.8Q177.9 268.0 175.5 267.4L175.5 267.4L170.5 266.3Q161.4 264.3 161.4 257.4L161.4 257.4Q161.4 253.1 164.9 250.5Q168.3 247.9 174.1 247.9L174.1 247.9Q178.5 247.9 181.7 249.8Q184.9 251.6 185.7 254.4L185.7 254.4Q185.8 255.0 185.8 255.5L185.8 255.5Q185.8 256.6 185.1 257.4Q184.3 258.1 183.0 258.1L183.0 258.1Q181.2 258.1 180.2 256.7L180.2 256.7Q179.1 255.0 177.6 254.1Q176.1 253.2 173.9 253.2L173.9 253.2Q171.5 253.2 170.0 254.3Q168.5 255.3 168.5 257.0L168.5 257.0Q168.5 259.8 173.1 260.8L173.1 260.8L178.0 261.9Q183.0 263.0 185.1 264.9Q187.2 266.9 187.2 270.3L187.2 270.3Q187.2 274.8 183.6 277.5Q179.9 280.2 174.0 280.2ZM202.7 280.1L202.7 280.1Q197.6 280.1 194.6 277.0Q191.7 274.0 191.7 268.6L191.7 268.6L191.7 251.7Q191.7 250.0 192.7 248.9Q193.7 247.9 195.3 247.9Q196.9 247.9 198.0 248.9Q199.0 250.0 199.0 251.8L199.0 251.8L199.0 267.1Q199.0 270.5 200.6 272.2Q202.2 274.0 205.2 274.0L205.2 274.0Q208.4 274.0 210.2 271.9Q212.1 269.9 212.1 266.5L212.1 266.5L212.1 251.7Q212.1 250.0 213.1 248.9Q214.1 247.9 215.7 247.9L215.7 247.9Q217.3 247.9 218.3 248.9Q219.4 250.0 219.4 251.8L219.4 251.8L219.4 276.5Q219.4 278.2 218.4 279.2Q217.5 280.2 215.9 280.2L215.9 280.2Q214.3 280.2 213.3 279.2Q212.3 278.2 212.3 276.5L212.3 276.5L212.3 274.2L212.2 274.2Q209.6 280.1 202.7 280.1ZM231.6 279.1Q230.6 280.2 228.9 280.2Q227.3 280.2 226.3 279.1Q225.3 278.1 225.3 276.3L225.3 276.3L225.3 251.6Q225.3 249.9 226.3 248.9Q227.2 247.9 228.8 247.9L228.8 247.9Q230.3 247.9 231.3 248.9Q232.2 249.9 232.2 251.6L232.2 251.6L232.2 254.0L232.4 254.0Q233.0 251.3 234.9 249.6Q236.7 248.0 239.0 248.0L239.0 248.0Q240.7 248.0 241.6 248.8L241.6 248.8Q242.6 249.6 242.6 251.4L242.6 251.4Q242.6 253.1 241.6 254.0L241.6 254.0Q240.5 254.9 238.3 255.0L238.3 255.0Q232.6 255.0 232.6 261.4L232.6 261.4L232.6 276.3Q232.6 278.1 231.6 279.1ZM259.7 280.2L259.7 280.2Q252.6 280.2 248.6 276.0Q244.6 271.7 244.6 264.2L244.6 264.2Q244.6 256.7 248.6 252.3Q252.6 247.9 259.3 247.9L259.3 247.9Q265.7 247.9 269.6 251.9Q273.6 256.0 273.6 262.4L273.6 262.4Q273.6 264.0 272.7 264.9Q271.8 265.8 270.2 265.8L270.2 265.8L251.9 265.8L251.9 266.0Q251.9 269.9 254.0 272.3Q256.1 274.6 259.7 274.6L259.7 274.6Q262.1 274.6 263.9 273.6Q265.7 272.7 267.4 270.4L267.4 270.4Q268.5 269.3 269.9 269.3L269.9 269.3Q271.2 269.3 272.0 270.0Q272.8 270.8 272.8 272.1L272.8 272.1Q272.8 272.9 272.3 273.9L272.3 273.9Q270.8 276.9 267.5 278.5Q264.2 280.2 259.7 280.2ZM252.0 261.0L252.0 261.0L266.5 261.0Q266.3 257.6 264.4 255.6Q262.4 253.5 259.3 253.5Q256.3 253.5 254.2 255.6Q252.2 257.7 252.0 261.0Z M292.3 271.9L292.3 271.9L292.3 254.1L290.4 254.1Q289.0 254.1 288.2 253.4Q287.4 252.6 287.4 251.3L287.4 251.3Q287.4 250.0 288.2 249.3Q289.0 248.5 290.4 248.5L290.4 248.5L292.3 248.5L292.3 244.4Q292.3 242.6 293.3 241.6Q294.3 240.6 296.0 240.6L296.0 240.6Q297.7 240.6 298.6 241.6Q299.6 242.6 299.6 244.4L299.6 244.4L299.6 248.5L303.0 248.5Q304.4 248.5 305.2 249.3Q305.9 250.0 305.9 251.3L305.9 251.3Q305.9 252.6 305.1 253.4Q304.3 254.1 303.0 254.1L303.0 254.1L299.6 254.1L299.6 270.3Q299.6 272.1 300.3 272.9Q301.0 273.7 302.6 273.9L302.6 273.9L303.1 273.9Q306.0 274.2 306.0 276.6L306.0 276.6Q306.0 278.2 304.7 279.1Q303.3 279.9 300.8 279.9L300.8 279.9L300.5 279.9Q292.3 279.9 292.3 271.9ZM335.1 275.9Q331.1 280.2 324.2 280.2Q317.3 280.2 313.2 275.9Q309.2 271.6 309.2 264.1L309.2 264.1Q309.2 256.6 313.3 252.2Q317.4 247.9 324.2 247.9L324.2 247.9Q331.0 247.9 335.1 252.2Q339.2 256.6 339.2 264.1L339.2 264.1Q339.2 271.6 335.1 275.9ZM318.6 271.7Q320.7 274.4 324.2 274.4Q327.7 274.4 329.7 271.7Q331.8 269.0 331.8 264.1L331.8 264.1Q331.8 259.2 329.7 256.4Q327.7 253.7 324.2 253.7L324.2 253.7Q320.7 253.7 318.6 256.4Q316.6 259.2 316.6 264.1L316.6 264.1Q316.6 269.0 318.6 271.7Z M375.3 280.3L375.3 280.3Q366.0 280.3 360.6 274.4Q355.2 268.6 355.2 258.5L355.2 258.5Q355.2 248.4 360.6 242.5Q366.0 236.6 375.3 236.6L375.3 236.6Q384.5 236.6 389.9 242.5Q395.3 248.4 395.3 258.5L395.3 258.5Q395.3 264.2 393.5 268.7Q391.7 273.2 388.2 275.9L388.2 275.9L390.9 279.7Q391.7 280.8 391.7 281.9L391.7 281.9Q391.7 283.2 390.8 284.0Q389.9 284.9 388.5 284.9L388.5 284.9Q386.8 284.9 385.7 283.2L385.7 283.2L382.7 279.1Q379.4 280.3 375.3 280.3ZM375.3 273.9L375.3 273.9Q377.0 273.9 378.8 273.4L378.8 273.4L376.5 270.1Q375.7 269.0 375.7 267.9L375.7 267.9Q375.7 266.7 376.6 265.9Q377.4 265.0 378.7 265.0L378.7 265.0Q380.3 265.0 381.3 266.4L381.3 266.4L383.7 269.7Q387.6 265.7 387.6 258.5L387.6 258.5Q387.6 251.4 384.3 247.2Q380.9 243.0 375.3 243.0Q369.6 243.0 366.3 247.2Q362.9 251.4 362.9 258.5Q362.9 265.5 366.3 269.7Q369.6 273.9 375.3 273.9ZM411.5 280.1L411.5 280.1Q406.4 280.1 403.4 277.0Q400.4 274.0 400.4 268.6L400.4 268.6L400.4 251.7Q400.4 250.0 401.4 248.9Q402.4 247.9 404.1 247.9Q405.7 247.9 406.7 248.9Q407.7 250.0 407.7 251.8L407.7 251.8L407.7 267.1Q407.7 270.5 409.3 272.2Q410.9 274.0 414.0 274.0L414.0 274.0Q417.1 274.0 419.0 271.9Q420.8 269.9 420.8 266.5L420.8 266.5L420.8 251.7Q420.8 250.0 421.8 248.9Q422.9 247.9 424.5 247.9L424.5 247.9Q426.1 247.9 427.1 248.9Q428.1 250.0 428.1 251.8L428.1 251.8L428.1 276.5Q428.1 278.2 427.2 279.2Q426.2 280.2 424.6 280.2L424.6 280.2Q423.0 280.2 422.1 279.2Q421.1 278.2 421.1 276.5L421.1 276.5L421.1 274.2L420.9 274.2Q418.4 280.1 411.5 280.1ZM440.8 243.0Q439.6 244.2 437.9 244.2Q436.2 244.2 435.0 243.0Q433.8 241.8 433.8 240.2L433.8 240.2Q433.8 238.5 435.0 237.4Q436.2 236.2 437.9 236.2L437.9 236.2Q439.6 236.2 440.8 237.4Q442.0 238.5 442.0 240.2L442.0 240.2Q442.0 241.8 440.8 243.0ZM440.5 279.1Q439.6 280.2 437.9 280.2Q436.2 280.2 435.2 279.1Q434.2 278.1 434.2 276.3L434.2 276.3L434.2 251.7Q434.2 250.0 435.2 248.9Q436.2 247.9 437.9 247.9Q439.6 247.9 440.5 248.9Q441.5 250.0 441.5 251.8L441.5 251.8L441.5 276.3Q441.5 278.1 440.5 279.1ZM449.7 271.9L449.7 271.9L449.7 254.1L447.7 254.1Q446.4 254.1 445.6 253.4Q444.8 252.6 444.8 251.3L444.8 251.3Q444.8 250.0 445.6 249.3Q446.3 248.5 447.7 248.5L447.7 248.5L449.7 248.5L449.7 244.4Q449.7 242.6 450.7 241.6Q451.7 240.6 453.3 240.6L453.3 240.6Q455.0 240.6 456.0 241.6Q457.0 242.6 457.0 244.4L457.0 244.4L457.0 248.5L460.4 248.5Q461.7 248.5 462.5 249.3Q463.3 250.0 463.3 251.3L463.3 251.3Q463.3 252.6 462.5 253.4Q461.7 254.1 460.4 254.1L460.4 254.1L457.0 254.1L457.0 270.3Q457.0 272.1 457.7 272.9Q458.3 273.7 459.9 273.9L459.9 273.9L460.4 273.9Q463.4 274.2 463.4 276.6L463.4 276.6Q463.4 278.2 462.0 279.1Q460.7 279.9 458.2 279.9L458.2 279.9L457.9 279.9Q449.7 279.9 449.7 271.9Z M492.9 280.1L492.9 280.1Q491.2 280.1 490.1 279.2Q489.1 278.3 488.6 276.3L488.6 276.3L479.2 242.6Q478.8 241.3 478.8 240.2L478.8 240.2Q478.8 238.7 479.8 237.7Q480.8 236.8 482.5 236.8L482.5 236.8Q485.5 236.8 486.2 240.0L486.2 240.0L493.3 269.3L493.5 269.3L501.3 240.4Q501.7 238.5 502.7 237.7Q503.7 236.8 505.4 236.8L505.4 236.8Q508.5 236.8 509.4 240.3L509.4 240.3L517.2 269.3L517.4 269.3L524.5 240.0Q525.2 236.8 528.1 236.8L528.1 236.8Q529.8 236.8 530.8 237.7Q531.8 238.7 531.8 240.2L531.8 240.2Q531.8 241.2 531.5 242.6L531.5 242.6L522.1 276.3Q521.5 278.3 520.5 279.2Q519.5 280.1 517.7 280.1L517.7 280.1Q515.9 280.1 514.9 279.2Q513.8 278.3 513.3 276.3L513.3 276.3L505.5 249.0L505.2 249.0L497.4 276.3Q496.8 278.3 495.8 279.2Q494.7 280.1 492.9 280.1ZM543.5 243.0Q542.3 244.2 540.6 244.2Q538.9 244.2 537.8 243.0Q536.6 241.8 536.6 240.2L536.6 240.2Q536.6 238.5 537.8 237.4Q538.9 236.2 540.6 236.2L540.6 236.2Q542.4 236.2 543.5 237.4Q544.7 238.5 544.7 240.2L544.7 240.2Q544.7 241.8 543.5 243.0ZM543.3 279.1Q542.3 280.2 540.6 280.2Q539.0 280.2 538.0 279.1Q537.0 278.1 537.0 276.3L537.0 276.3L537.0 251.7Q537.0 250.0 538.0 248.9Q539.0 247.9 540.6 247.9Q542.3 247.9 543.3 248.9Q544.3 250.0 544.3 251.8L544.3 251.8L544.3 276.3Q544.3 278.1 543.3 279.1ZM552.4 271.9L552.4 271.9L552.4 254.1L550.5 254.1Q549.1 254.1 548.3 253.4Q547.5 252.6 547.5 251.3L547.5 251.3Q547.5 250.0 548.3 249.3Q549.1 248.5 550.5 248.5L550.5 248.5L552.4 248.5L552.4 244.4Q552.4 242.6 553.4 241.6Q554.4 240.6 556.1 240.6L556.1 240.6Q557.8 240.6 558.7 241.6Q559.7 242.6 559.7 244.4L559.7 244.4L559.7 248.5L563.1 248.5Q564.5 248.5 565.2 249.3Q566.0 250.0 566.0 251.3L566.0 251.3Q566.0 252.6 565.2 253.4Q564.4 254.1 563.1 254.1L563.1 254.1L559.7 254.1L559.7 270.3Q559.7 272.1 560.4 272.9Q561.1 273.7 562.7 273.9L562.7 273.9L563.2 273.9Q566.1 274.2 566.1 276.6L566.1 276.6Q566.1 278.2 564.8 279.1Q563.4 279.9 560.9 279.9L560.9 279.9L560.6 279.9Q552.4 279.9 552.4 271.9ZM577.0 279.2Q576.0 280.2 574.4 280.2Q572.8 280.2 571.8 279.2Q570.7 278.1 570.7 276.3L570.7 276.3L570.7 240.5Q570.7 238.7 571.7 237.7Q572.7 236.7 574.3 236.7L574.3 236.7Q576.0 236.7 577.0 237.7Q577.9 238.7 577.9 240.5L577.9 240.5L577.9 253.9L578.1 253.9Q579.4 251.0 581.9 249.5Q584.4 247.9 587.9 247.9L587.9 247.9Q593.0 247.9 595.9 251.1Q598.8 254.2 598.8 259.6L598.8 259.6L598.8 276.3Q598.8 278.1 597.8 279.2Q596.8 280.2 595.1 280.2Q593.5 280.2 592.5 279.2Q591.5 278.1 591.5 276.3L591.5 276.3L591.5 261.1Q591.5 257.8 589.9 255.9Q588.2 254.1 585.1 254.1L585.1 254.1Q581.8 254.1 579.9 256.2Q578.0 258.3 578.0 261.7L578.0 261.7L578.0 276.3Q578.0 278.1 577.0 279.2ZM629.3 275.9Q625.2 280.2 618.3 280.2Q611.5 280.2 607.4 275.9Q603.3 271.6 603.3 264.1L603.3 264.1Q603.3 256.6 607.4 252.2Q611.5 247.9 618.3 247.9L618.3 247.9Q625.2 247.9 629.3 252.2Q633.4 256.6 633.4 264.1L633.4 264.1Q633.4 271.6 629.3 275.9ZM612.8 271.7Q614.8 274.4 618.3 274.4Q621.9 274.4 623.9 271.7Q626.0 269.0 626.0 264.1L626.0 264.1Q626.0 259.2 623.9 256.4Q621.9 253.7 618.3 253.7L618.3 253.7Q614.9 253.7 612.8 256.4Q610.7 259.2 610.7 264.1L610.7 264.1Q610.7 269.0 612.8 271.7ZM648.9 280.1L648.9 280.1Q643.9 280.1 640.9 277.0Q637.9 274.0 637.9 268.6L637.9 268.6L637.9 251.7Q637.9 250.0 638.9 248.9Q639.9 247.9 641.6 247.9Q643.2 247.9 644.2 248.9Q645.2 250.0 645.2 251.8L645.2 251.8L645.2 267.1Q645.2 270.5 646.8 272.2Q648.4 274.0 651.5 274.0L651.5 274.0Q654.6 274.0 656.5 271.9Q658.3 269.9 658.3 266.5L658.3 266.5L658.3 251.7Q658.3 250.0 659.3 248.9Q660.3 247.9 662.0 247.9L662.0 247.9Q663.6 247.9 664.6 248.9Q665.6 250.0 665.6 251.8L665.6 251.8L665.6 276.5Q665.6 278.2 664.7 279.2Q663.7 280.2 662.1 280.2L662.1 280.2Q660.5 280.2 659.5 279.2Q658.6 278.2 658.6 276.5L658.6 276.5L658.6 274.2L658.4 274.2Q655.8 280.1 648.9 280.1ZM673.6 271.9L673.6 271.9L673.6 254.1L671.6 254.1Q670.3 254.1 669.5 253.4Q668.7 252.6 668.7 251.3L668.7 251.3Q668.7 250.0 669.5 249.3Q670.2 248.5 671.6 248.5L671.6 248.5L673.6 248.5L673.6 244.4Q673.6 242.6 674.6 241.6Q675.5 240.6 677.2 240.6L677.2 240.6Q678.9 240.6 679.9 241.6Q680.9 242.6 680.9 244.4L680.9 244.4L680.9 248.5L684.2 248.5Q685.6 248.5 686.4 249.3Q687.2 250.0 687.2 251.3L687.2 251.3Q687.2 252.6 686.4 253.4Q685.6 254.1 684.2 254.1L684.2 254.1L680.9 254.1L680.9 270.3Q680.9 272.1 681.5 272.9Q682.2 273.7 683.8 273.9L683.8 273.9L684.3 273.9Q687.3 274.2 687.3 276.6L687.3 276.6Q687.3 278.2 685.9 279.1Q684.6 279.9 682.0 279.9L682.0 279.9L681.7 279.9Q673.6 279.9 673.6 271.9Z M719.9 279.6L708.2 279.6Q706.4 279.6 705.4 278.5Q704.4 277.5 704.4 275.7L704.4 275.7L704.4 241.2Q704.4 239.4 705.4 238.3Q706.4 237.3 708.2 237.3L708.2 237.3L719.9 237.3Q729.4 237.3 734.7 242.8Q740.0 248.3 740.0 258.3L740.0 258.3Q740.0 268.4 734.7 274.0Q729.4 279.6 719.9 279.6L719.9 279.6ZM712.0 243.7L712.0 273.2L719.1 273.2Q725.5 273.2 728.9 269.4Q732.3 265.6 732.3 258.4L732.3 258.4Q732.3 251.3 728.8 247.5Q725.4 243.7 719.1 243.7L719.1 243.7L712.0 243.7ZM769.9 275.9Q765.8 280.2 758.9 280.2Q752.1 280.2 748.0 275.9Q743.9 271.6 743.9 264.1L743.9 264.1Q743.9 256.6 748.0 252.2Q752.1 247.9 758.9 247.9L758.9 247.9Q765.8 247.9 769.9 252.2Q774.0 256.6 774.0 264.1L774.0 264.1Q774.0 271.6 769.9 275.9ZM753.4 271.7Q755.4 274.4 758.9 274.4Q762.5 274.4 764.5 271.7Q766.6 269.0 766.6 264.1L766.6 264.1Q766.6 259.2 764.5 256.4Q762.5 253.7 758.9 253.7L758.9 253.7Q755.5 253.7 753.4 256.4Q751.3 259.2 751.3 264.1L751.3 264.1Q751.3 269.0 753.4 271.7ZM792.3 280.2L792.3 280.2Q785.5 280.2 781.4 275.9Q777.4 271.5 777.4 264.1L777.4 264.1Q777.4 256.7 781.4 252.3Q785.5 247.9 792.3 247.9L792.3 247.9Q796.8 247.9 800.4 250.0Q803.9 252.1 805.0 255.4L805.0 255.4Q805.4 256.4 805.4 257.1L805.4 257.1Q805.4 258.5 804.5 259.3Q803.6 260.1 802.3 260.1L802.3 260.1Q801.2 260.1 800.5 259.6Q799.7 259.1 799.1 258.0L799.1 258.0Q796.8 253.8 792.5 253.8L792.5 253.8Q788.9 253.8 786.9 256.6Q784.8 259.3 784.8 264.1L784.8 264.1Q784.8 268.9 786.9 271.6Q788.9 274.3 792.4 274.3L792.4 274.3Q796.8 274.3 799.1 270.3L799.1 270.3Q799.8 269.1 800.5 268.6Q801.3 268.1 802.4 268.1L802.4 268.1Q803.7 268.1 804.6 268.9Q805.5 269.7 805.5 271.1L805.5 271.1Q805.5 271.9 805.1 272.9L805.1 272.9Q803.7 276.1 800.2 278.2Q796.7 280.2 792.3 280.2ZM821.3 280.1L821.3 280.1Q816.2 280.1 813.2 277.0Q810.2 274.0 810.2 268.6L810.2 268.6L810.2 251.7Q810.2 250.0 811.2 248.9Q812.2 247.9 813.9 247.9Q815.5 247.9 816.5 248.9Q817.5 250.0 817.5 251.8L817.5 251.8L817.5 267.1Q817.5 270.5 819.1 272.2Q820.7 274.0 823.8 274.0L823.8 274.0Q826.9 274.0 828.8 271.9Q830.6 269.9 830.6 266.5L830.6 266.5L830.6 251.7Q830.6 250.0 831.6 248.9Q832.7 247.9 834.3 247.9L834.3 247.9Q835.9 247.9 836.9 248.9Q837.9 250.0 837.9 251.8L837.9 251.8L837.9 276.5Q837.9 278.2 837.0 279.2Q836.0 280.2 834.4 280.2L834.4 280.2Q832.8 280.2 831.9 279.2Q830.9 278.2 830.9 276.5L830.9 276.5L830.9 274.2L830.8 274.2Q828.2 280.1 821.3 280.1ZM847.5 280.2L847.5 280.2Q845.8 280.2 844.9 279.2Q843.9 278.1 843.9 276.3L843.9 276.3L843.9 251.6Q843.9 249.9 844.8 248.9Q845.8 247.9 847.4 247.9Q848.9 247.9 849.9 248.9Q850.9 249.9 850.9 251.6L850.9 251.6L850.9 253.9L851.0 253.9Q852.1 251.2 854.4 249.5Q856.7 247.9 859.9 247.9L859.9 247.9Q863.2 247.9 865.4 249.6Q867.7 251.2 868.5 254.2L868.5 254.2L868.7 254.2Q869.8 251.3 872.4 249.6Q875.0 247.9 878.4 247.9L878.4 247.9Q883.0 247.9 885.8 250.8Q888.5 253.6 888.5 258.3L888.5 258.3L888.5 276.3Q888.5 278.1 887.5 279.1Q886.5 280.2 884.9 280.2L884.9 280.2Q883.2 280.2 882.2 279.1Q881.2 278.1 881.2 276.3L881.2 276.3L881.2 260.1Q881.2 257.2 879.8 255.6Q878.3 254.1 875.7 254.1L875.7 254.1Q873.0 254.1 871.4 255.8Q869.7 257.6 869.7 260.4L869.7 260.4L869.7 276.3Q869.7 278.1 868.8 279.2Q867.8 280.2 866.2 280.2L866.2 280.2Q864.5 280.2 863.6 279.2Q862.7 278.1 862.7 276.3L862.7 276.3L862.7 259.7Q862.7 257.1 861.2 255.6Q859.7 254.1 857.1 254.1L857.1 254.1Q854.5 254.1 852.8 255.9Q851.2 257.8 851.2 260.6L851.2 260.6L851.2 276.3Q851.2 278.1 850.2 279.1Q849.2 280.2 847.5 280.2ZM908.2 280.2L908.2 280.2Q901.0 280.2 897.1 276.0Q893.1 271.7 893.1 264.2L893.1 264.2Q893.1 256.7 897.1 252.3Q901.0 247.9 907.7 247.9L907.7 247.9Q914.1 247.9 918.1 251.9Q922.0 256.0 922.0 262.4L922.0 262.4Q922.0 264.0 921.1 264.9Q920.3 265.8 918.6 265.8L918.6 265.8L900.3 265.8L900.3 266.0Q900.3 269.9 902.4 272.3Q904.6 274.6 908.1 274.6L908.1 274.6Q910.6 274.6 912.3 273.6Q914.1 272.7 915.9 270.4L915.9 270.4Q916.9 269.3 918.3 269.3L918.3 269.3Q919.6 269.3 920.4 270.0Q921.3 270.8 921.3 272.1L921.3 272.1Q921.3 272.9 920.8 273.9L920.8 273.9Q919.2 276.9 915.9 278.5Q912.6 280.2 908.2 280.2ZM900.4 261.0L900.4 261.0L914.9 261.0Q914.8 257.6 912.8 255.6Q910.8 253.5 907.8 253.5Q904.7 253.5 902.6 255.6Q900.6 257.7 900.4 261.0ZM933.0 279.2Q932.0 280.2 930.4 280.2Q928.7 280.2 927.7 279.2Q926.7 278.1 926.7 276.3L926.7 276.3L926.7 251.6Q926.7 249.9 927.7 248.9Q928.6 247.9 930.2 247.9Q931.8 247.9 932.8 248.9Q933.8 249.9 933.8 251.6L933.8 251.6L933.8 253.8L934.0 253.8Q936.6 247.9 943.6 247.9L943.6 247.9Q948.7 247.9 951.6 251.0Q954.4 254.1 954.4 259.5L954.4 259.5L954.4 276.3Q954.4 278.1 953.4 279.2Q952.4 280.2 950.8 280.2Q949.1 280.2 948.1 279.2Q947.1 278.1 947.1 276.3L947.1 276.3L947.1 261.0Q947.1 257.6 945.5 255.9Q944.0 254.1 940.9 254.1L940.9 254.1Q937.7 254.1 935.9 256.2Q934.0 258.2 934.0 261.6L934.0 261.6L934.0 276.3Q934.0 278.1 933.0 279.2ZM962.2 271.9L962.2 271.9L962.2 254.1L960.3 254.1Q958.9 254.1 958.1 253.4Q957.3 252.6 957.3 251.3L957.3 251.3Q957.3 250.0 958.1 249.3Q958.9 248.5 960.3 248.5L960.3 248.5L962.2 248.5L962.2 244.4Q962.2 242.6 963.2 241.6Q964.2 240.6 965.9 240.6L965.9 240.6Q967.6 240.6 968.5 241.6Q969.5 242.6 969.5 244.4L969.5 244.4L969.5 248.5L972.9 248.5Q974.3 248.5 975.1 249.3Q975.8 250.0 975.8 251.3L975.8 251.3Q975.8 252.6 975.0 253.4Q974.2 254.1 972.9 254.1L972.9 254.1L969.5 254.1L969.5 270.3Q969.5 272.1 970.2 272.9Q970.9 273.7 972.5 273.9L972.5 273.9L973.0 273.9Q975.9 274.2 975.9 276.6L975.9 276.6Q975.9 278.2 974.6 279.1Q973.2 279.9 970.7 279.9L970.7 279.9L970.4 279.9Q962.2 279.9 962.2 271.9ZM989.5 280.1L989.5 280.1Q984.9 280.1 982.0 277.5Q979.1 274.9 979.1 270.7L979.1 270.7Q979.1 266.6 982.1 264.2Q985.2 261.8 990.9 261.4L990.9 261.4L999.1 260.9L999.1 258.7Q999.1 256.3 997.6 254.9Q996.0 253.6 993.3 253.6L993.3 253.6Q991.2 253.6 989.7 254.4Q988.2 255.2 986.8 257.2L986.8 257.2Q985.7 258.7 983.9 258.7L983.9 258.7Q982.5 258.7 981.6 257.9Q980.8 257.1 980.8 255.8L980.8 255.8Q980.8 254.8 981.3 253.8L981.3 253.8Q982.5 251.1 985.8 249.5Q989.2 247.9 993.6 247.9L993.6 247.9Q999.4 247.9 1002.9 250.7Q1006.3 253.5 1006.3 258.2L1006.3 258.2L1006.3 276.5Q1006.3 278.2 1005.3 279.2Q1004.4 280.2 1002.8 280.2L1002.8 280.2Q1001.3 280.2 1000.3 279.3Q999.4 278.4 999.3 276.8L999.3 276.8L999.3 274.6L999.2 274.6Q997.8 277.1 995.2 278.6Q992.5 280.1 989.5 280.1ZM991.7 274.6L991.7 274.6Q994.8 274.6 997.0 272.7Q999.1 270.8 999.1 268.1L999.1 268.1L999.1 265.7L991.9 266.1Q989.3 266.3 987.8 267.4Q986.4 268.6 986.4 270.4L986.4 270.4Q986.4 272.3 987.8 273.4Q989.3 274.6 991.7 274.6ZM1014.2 271.9L1014.2 271.9L1014.2 254.1L1012.2 254.1Q1010.9 254.1 1010.1 253.4Q1009.3 252.6 1009.3 251.3L1009.3 251.3Q1009.3 250.0 1010.1 249.3Q1010.9 248.5 1012.2 248.5L1012.2 248.5L1014.2 248.5L1014.2 244.4Q1014.2 242.6 1015.2 241.6Q1016.2 240.6 1017.9 240.6L1017.9 240.6Q1019.5 240.6 1020.5 241.6Q1021.5 242.6 1021.5 244.4L1021.5 244.4L1021.5 248.5L1024.9 248.5Q1026.3 248.5 1027.0 249.3Q1027.8 250.0 1027.8 251.3L1027.8 251.3Q1027.8 252.6 1027.0 253.4Q1026.2 254.1 1024.9 254.1L1024.9 254.1L1021.5 254.1L1021.5 270.3Q1021.5 272.1 1022.2 272.9Q1022.9 273.7 1024.4 273.9L1024.4 273.9L1025.0 273.9Q1027.9 274.2 1027.9 276.6L1027.9 276.6Q1027.9 278.2 1026.5 279.1Q1025.2 279.9 1022.7 279.9L1022.7 279.9L1022.4 279.9Q1014.2 279.9 1014.2 271.9ZM1039.0 243.0Q1037.8 244.2 1036.1 244.2Q1034.4 244.2 1033.3 243.0Q1032.1 241.8 1032.1 240.2L1032.1 240.2Q1032.1 238.5 1033.3 237.4Q1034.4 236.2 1036.1 236.2L1036.1 236.2Q1037.9 236.2 1039.0 237.4Q1040.2 238.5 1040.2 240.2L1040.2 240.2Q1040.2 241.8 1039.0 243.0ZM1038.8 279.1Q1037.8 280.2 1036.1 280.2Q1034.5 280.2 1033.5 279.1Q1032.5 278.1 1032.5 276.3L1032.5 276.3L1032.5 251.7Q1032.5 250.0 1033.5 248.9Q1034.5 247.9 1036.1 247.9Q1037.8 247.9 1038.8 248.9Q1039.8 250.0 1039.8 251.8L1039.8 251.8L1039.8 276.3Q1039.8 278.1 1038.8 279.1ZM1070.6 275.9Q1066.5 280.2 1059.6 280.2Q1052.8 280.2 1048.7 275.9Q1044.6 271.6 1044.6 264.1L1044.6 264.1Q1044.6 256.6 1048.7 252.2Q1052.8 247.9 1059.6 247.9L1059.6 247.9Q1066.5 247.9 1070.6 252.2Q1074.7 256.6 1074.7 264.1L1074.7 264.1Q1074.7 271.6 1070.6 275.9ZM1054.1 271.7Q1056.1 274.4 1059.6 274.4Q1063.2 274.4 1065.2 271.7Q1067.3 269.0 1067.3 264.1L1067.3 264.1Q1067.3 259.2 1065.2 256.4Q1063.2 253.7 1059.6 253.7L1059.6 253.7Q1056.2 253.7 1054.1 256.4Q1052.0 259.2 1052.0 264.1L1052.0 264.1Q1052.0 269.0 1054.1 271.7ZM1085.6 279.2Q1084.6 280.2 1083.0 280.2Q1081.4 280.2 1080.4 279.2Q1079.4 278.1 1079.4 276.3L1079.4 276.3L1079.4 251.6Q1079.4 249.9 1080.3 248.9Q1081.2 247.9 1082.9 247.9Q1084.5 247.9 1085.5 248.9Q1086.5 249.9 1086.5 251.6L1086.5 251.6L1086.5 253.8L1086.6 253.8Q1089.2 247.9 1096.3 247.9L1096.3 247.9Q1101.4 247.9 1104.2 251.0Q1107.0 254.1 1107.0 259.5L1107.0 259.5L1107.0 276.3Q1107.0 278.1 1106.0 279.2Q1105.0 280.2 1103.4 280.2Q1101.7 280.2 1100.7 279.2Q1099.7 278.1 1099.7 276.3L1099.7 276.3L1099.7 261.0Q1099.7 257.6 1098.2 255.9Q1096.6 254.1 1093.5 254.1L1093.5 254.1Q1090.4 254.1 1088.5 256.2Q1086.7 258.2 1086.7 261.6L1086.7 261.6L1086.7 276.3Q1086.7 278.1 1085.6 279.2Z "/><defs><clipPath id="satori_bc-id-0-1"><rect x="0" y="441" width="1200" height="189"/></clipPath></defs><mask id="satori_om-id-0-1"><rect x="0" y="442" width="1200" height="188" fill="#fff"/><path width="1200" height="189" fill="none" stroke="#000" stroke-width="2" d="M0,441 A0,0 0 0 1 0,441 h1200 A0,0 0 0 1 1200,441"/></mask><path width="1200" height="189" clip-path="url(#satori_bc-id-0-1)" fill="none" stroke="#dbdbdb" stroke-width="2" d="M0,441 A0,0 0 0 1 0,441 h1200 A0,0 0 0 1 1200,441"/><mask id="satori_om-id-0-1-0"><rect x="40" y="482" width="292" height="108" fill="#fff"/></mask><clipPath id="satori_cp-id-0-1-0-0"><rect x="40" y="504" width="64" height="64"/></clipPath><mask id="satori_om-id-0-1-0-0"><rect x="40" y="504" width="64" height="64" fill="#fff"/></mask><image x="40" y="504" width="64" height="64" href="data:image/svg+xml;utf8,%3Csvg  xmlns=%22http://www.w3.org/2000/svg%22 width=%2264%22 height=%2264%22 viewBox=%220 0 128 128%22%3E%3Cpath fill=%22%23224d67%22 d=%22M22.5 14.8c2.9 1.3 99 44 99 44c2.7 1.2 2.9 3.1 2 12.4c-1 10.5-1.9 37.8-40.2 42.9c-24.6 3.2-55.9-4.3-70.9-27.2C-6 58.8 11 23.4 14.8 17.7c2.4-3.5 4.8-4.2 7.7-2.9%22%3E%3C/path%3E%3Cpath fill=%22%23f0f4c3%22 d=%22M121.5 58.8c-.3-.2-92-40.8-98.9-43.9C9.6 31.5-3.8 76 27.9 96.2c33.6 21.5 78.7-10.2 93.6-37.4%22%3E%3C/path%3E%3Cpath fill=%22%23f0f4c3%22 d=%22M117.7 57c-.3-.2-86.7-38.4-93.2-41.3c-12.2 15.5-23.9 59.1 5.7 78c31.4 20.2 73.6-11.2 87.5-36.7%22%3E%3C/path%3E%3Cpath fill=%22%23cb2a42%22 d=%22M56.2 37.6L19.5 48.2c-2.5.8-4.4 2.8-5 5.3c-1.9 8.5.8 23.3 8.9 29.8c3.5 2.7 8.6 1.8 10.8-2.1L58.5 41c1.3-1.7.5-4.2-2.3-3.4m14.3 2.9s14.6 30.1 16 33s6.3 4.7 9.9 2.8c10.7-5.6 15.5-12.4 19.2-20.2c-8.9-3.9-42.4-18.8-42.4-18.8c-2.4-1.1-4 .6-2.7 3.2m-8.6 1.9C60.3 45.1 39.5 81 37.6 84.1c-1.9 3.2-.7 7.5 2.7 9.2c12.3 6.5 30.9.4 39.6-7c2.2-1.9 4.5-5.1 3.2-8.2S68.9 44.6 67.8 42.3c-1.2-2.7-4.1-2.8-5.9.1%22%3E%3C/path%3E%3Cpath fill=%22%23f0f4c3%22 d=%22M52.2 42.2c-1.4.4-10.1 3-11.1 3.4c-1.4.5-2.2 1.7-1.9 2.5c.3.9 1.7 1.1 3.1.6c.8-.3 7.1-3.9 9.5-5.2c-3.1 2.4-10.2 9.4-11.1 10.3c-1.4 1.5-1.7 3.4-.8 4.3c1 .9 2.9.5 4.3-1c1.2-1.3 8.5-12.8 9.1-13.9s.4-1.4-1.1-1m10.1 16.4c0-2.2 1.4-10.3 1.8-12.3c.4-1.6 1.5-1.8 1.8.5s1.7 9.7 1.7 11.8s-1.2 3.3-2.7 3.3c-1.4 0-2.6-1.1-2.6-3.3M79.9 49c-1.2-1.8-3.3-4.9-4.1-6.1c-.7-1.2.1-2.1 1.8-.9s4 2.9 5.4 4c1.6 1.3 1.9 3 .8 4s-2.7.8-3.9-1%22%3E%3C/path%3E%3Cellipse cx=%2287.3%22 cy=%22103.12%22 fill=%22%23cb2a42%22 rx=%223.4%22 ry=%222.3%22 transform=%22rotate(-27.098 87.298 103.126)%22%3E%3C/ellipse%3E%3Cellipse cx=%2298.89%22 cy=%22103.82%22 fill=%22%23cb2a42%22 rx=%223.4%22 ry=%222.3%22 transform=%22rotate(-30.642 98.887 103.818)%22%3E%3C/ellipse%3E%3Cellipse cx=%22102.02%22 cy=%2293.8%22 fill=%22%23cb2a42%22 rx=%223.4%22 ry=%222.3%22 transform=%22rotate(-37.16 102.017 93.797)%22%3E%3C/ellipse%3E%3Cpath fill=%22%23cb2a42%22 d=%22M57.6 30.3c-8.3-3.7-24.4-10.7-29.6-13c-3.6 2.2-9.7 11.4-11.2 21.2c-.6 3.6 1.7 5.9 5.3 4.9c0 0 33.7-9.3 35.3-9.7c1.6-.5 2-2.6.2-3.4%22%3E%3C/path%3E%3C/svg%3E" preserveAspectRatio="none" clip-path="url(#satori_cp-id-0-1-0-0)" mask="url(#satori_om-id-0-1-0-0)"/><mask id="satori_om-id-0-1-0-0-0"><rect x="40" y="504" width="0" height="64" fill="#fff"/></mask><mask id="satori_om-id-0-1-0-0-1"><rect x="40" y="504" width="0" height="64" fill="#fff"/></mask><mask id="satori_om-id-0-1-0-0-2"><rect x="40" y="504" width="0" height="64" fill="#fff"/></mask><mask id="satori_om-id-0-1-0-0-3"><rect x="40" y="504" width="0" height="64" fill="#fff"/></mask><mask id="satori_om-id-0-1-0-0-4"><rect x="40" y="504" width="0" height="64" fill="#fff"/></mask><mask id="satori_om-id-0-1-0-0-5"><rect x="40" y="504" width="0" height="64" fill="#fff"/></mask><mask id="satori_om-id-0-1-0-0-6"><rect x="40" y="504" width="0" height="64" fill="#fff"/></mask><mask id="satori_om-id-0-1-0-0-7"><rect x="40" y="504" width="0" height="64" fill="#fff"/></mask><mask id="satori_om-id-0-1-0-0-8"><rect x="40" y="504" width="0" height="64" fill="#fff"/></mask><mask id="satori_om-id-0-1-0-1"><rect x="116" y="512" width="216" height="48" fill="#fff"/></mask><path fill="#545454" d="M121.1 553.5L121.1 553.5Q119.4 553.5 118.4 552.6Q117.5 551.7 117.5 550.2L117.5 550.2Q117.5 549.3 117.9 547.9L117.9 547.9L127.2 522.8Q127.9 520.7 129.2 519.7Q130.5 518.8 132.5 518.8L132.5 518.8Q134.6 518.8 135.9 519.7Q137.2 520.7 137.9 522.8L137.9 522.8L147.2 547.9Q147.6 549.2 147.6 550.2L147.6 550.2Q147.6 551.6 146.6 552.6Q145.6 553.5 144.1 553.5L144.1 553.5Q142.6 553.5 141.7 552.8Q140.9 552.1 140.4 550.4L140.4 550.4L138.6 545.0L126.4 545.0L124.6 550.3Q124.2 552.0 123.3 552.8Q122.5 553.5 121.1 553.5ZM132.4 525.7L128.0 539.6L137 539.6L132.5 525.7L132.4 525.7ZM159.1 552.6Q158.2 553.6 156.6 553.6Q155.0 553.6 154.1 552.6Q153.2 551.7 153.2 550.0L153.2 550.0L153.2 533.1L151.9 533.1Q150.8 533.1 150.1 532.4Q149.4 531.7 149.4 530.6Q149.4 529.4 150.1 528.7Q150.8 528.1 151.9 528.1L151.9 528.1L153.2 528.1L153.2 526.2Q153.2 522.5 155.0 520.7Q156.7 519.0 160.3 518.9L160.3 518.9Q163.0 518.9 164.2 519.7Q165.5 520.4 165.5 521.7L165.5 521.7Q165.5 523.1 164.1 523.5L164.1 523.5Q163.5 523.7 162.8 523.7L162.8 523.7Q161.2 523.7 160.5 524.4Q159.9 525.1 159.9 526.5L159.9 526.5L159.9 528.1L162.7 528.1Q163.8 528.1 164.5 528.7Q165.2 529.4 165.2 530.6Q165.2 531.7 164.5 532.4Q163.8 533.1 162.7 533.1L162.7 533.1L160.0 533.1L160.0 550.0Q160.0 551.7 159.1 552.6ZM170.3 546.6L170.3 546.6L170.3 533.1L168.9 533.1Q167.7 533.1 167.0 532.4Q166.3 531.7 166.3 530.5Q166.3 529.3 167.0 528.6Q167.7 527.9 168.9 527.9L168.9 527.9L170.3 527.9L170.3 525.1Q170.3 523.5 171.2 522.5Q172.1 521.6 173.7 521.6Q175.3 521.6 176.2 522.5Q177.1 523.5 177.1 525.1L177.1 525.1L177.1 527.9L179.5 527.9Q180.7 527.9 181.4 528.6Q182.1 529.3 182.1 530.5Q182.1 531.7 181.4 532.4Q180.7 533.1 179.5 533.1L179.5 533.1L177.1 533.1L177.1 545.1Q177.1 546.5 177.6 547.1Q178.1 547.7 179.2 547.8L179.2 547.8L179.6 547.8Q180.9 548.0 181.6 548.5Q182.2 549.1 182.2 550.3L182.2 550.3Q182.2 551.8 180.9 552.6Q179.6 553.3 177.4 553.3L177.4 553.3L177.1 553.3Q170.3 553.3 170.3 546.6ZM197.0 553.6L197.0 553.6Q191.2 553.6 187.9 550.2Q184.6 546.7 184.6 540.6L184.6 540.6Q184.6 534.5 187.9 531.0Q191.1 527.4 196.7 527.4L196.7 527.4Q202.0 527.4 205.3 530.7Q208.6 533.9 208.6 539.1L208.6 539.1Q208.6 540.5 207.9 541.3Q207.1 542.1 205.6 542.1L205.6 542.1L191.3 542.1L191.3 542.4Q191.3 545.2 192.9 546.9Q194.4 548.5 197.0 548.5L197.0 548.5Q198.9 548.5 200.3 547.8Q201.6 547.2 203.0 545.5L203.0 545.5Q204.0 544.5 205.3 544.5L205.3 544.5Q206.4 544.5 207.2 545.2Q207.9 545.9 207.9 547.0L207.9 547.0Q207.9 547.8 207.5 548.7L207.5 548.7Q206.2 551 203.4 552.3Q200.7 553.6 197.0 553.6ZM191.4 537.9L191.4 537.9L202.0 537.9Q201.9 535.4 200.5 533.9Q199.0 532.5 196.8 532.5Q194.5 532.5 193.1 534.0Q191.6 535.5 191.4 537.9ZM215.6 553.6L215.6 553.6Q214.0 553.6 213.1 552.6Q212.1 551.7 212.1 550.0L212.1 550.0L212.1 530.9Q212.1 529.3 213.0 528.3Q213.9 527.4 215.4 527.4L215.4 527.4Q216.9 527.4 217.8 528.3Q218.7 529.3 218.7 530.9L218.7 530.9L218.7 532.5L218.8 532.5Q219.3 530.2 220.7 528.9Q222.1 527.5 224.0 527.5L224.0 527.5Q225.4 527.5 226.2 528.2L226.2 528.2Q227.2 528.9 227.2 530.7L227.2 530.7Q227.2 532.3 226.2 533.2L226.2 533.2Q225.2 534.0 223.2 534.1L223.2 534.1Q221.0 534.1 220.0 535.3Q219.0 536.5 219.0 538.8L219.0 538.8L219.0 550.0Q219.0 551.7 218.1 552.6Q217.2 553.6 215.6 553.6ZM242.6 553.6L242.6 553.6Q237.5 553.6 234.1 551.8Q230.8 550.0 229.7 547.1L229.7 547.1Q229.4 546.1 229.4 545.2L229.4 545.2Q229.4 543.8 230.2 543.0Q231.1 542.1 232.5 542.1L232.5 542.1Q233.6 542.1 234.3 542.6Q235.1 543.1 235.7 544.2L235.7 544.2Q236.5 546.1 238.4 547.0Q240.2 547.9 242.7 547.9L242.7 547.9Q245.6 547.9 247.3 546.7Q249.1 545.5 249.1 543.6L249.1 543.6Q249.1 541.9 247.8 540.9Q246.4 539.9 243.3 539.3L243.3 539.3L239.7 538.6Q229.6 536.6 229.6 528.9L229.6 528.9Q229.6 525.9 231.3 523.5Q232.9 521.2 235.9 519.9Q238.8 518.7 242.5 518.7L242.5 518.7Q247.2 518.7 250.5 520.5Q253.8 522.4 254.9 525.7L254.9 525.7Q255.1 526.4 255.1 527.2L255.1 527.2Q255.1 528.5 254.3 529.3Q253.5 530.1 252.1 530.1L252.1 530.1Q250.9 530.1 250.1 529.6Q249.4 529.1 248.8 528.0L248.8 528.0Q247.2 524.4 242.5 524.4L242.5 524.4Q239.9 524.4 238.3 525.5Q236.7 526.6 236.7 528.5L236.7 528.5Q236.7 530.1 238.1 531.1Q239.4 532.1 242.4 532.7L242.4 532.7L245.9 533.4Q251.3 534.5 253.7 536.7Q256.2 539.0 256.2 542.8L256.2 542.8Q256.2 547.8 252.5 550.7Q248.9 553.6 242.6 553.6ZM266.0 552.6Q265.0 553.6 263.5 553.6Q261.9 553.6 261.0 552.6Q260.1 551.7 260.1 550.0L260.1 550.0L260.1 522.2Q260.1 520.6 261.0 519.7Q261.9 518.7 263.4 518.7L263.4 518.7Q265.0 518.7 265.9 519.7Q266.8 520.6 266.8 522.2L266.8 522.2L266.8 532.4L266.9 532.4Q267.9 530.0 270.0 528.7Q272 527.5 274.8 527.5L274.8 527.5Q279.0 527.5 281.3 530.0Q283.6 532.5 283.6 536.9L283.6 536.9L283.6 550.0Q283.6 551.7 282.7 552.6Q281.7 553.6 280.2 553.6Q278.6 553.6 277.7 552.6Q276.8 551.7 276.8 550.0L276.8 550.0L276.8 538.3Q276.8 535.9 275.6 534.5Q274.3 533.1 272.0 533.1L272.0 533.1Q269.7 533.1 268.3 534.7Q266.9 536.2 266.9 538.7L266.9 538.7L266.9 550.0Q266.9 551.7 266.0 552.6ZM294.1 523.8Q293.0 524.8 291.5 524.8Q290.0 524.8 288.9 523.8Q287.8 522.8 287.8 521.3L287.8 521.3Q287.8 519.8 288.9 518.8Q290.0 517.7 291.5 517.7Q293.0 517.7 294.1 518.8Q295.2 519.8 295.2 521.3L295.2 521.3Q295.2 522.8 294.1 523.8ZM294.0 552.6Q293.1 553.6 291.5 553.6Q289.9 553.6 289.0 552.6Q288.1 551.7 288.1 550.0L288.1 550.0L288.1 531.0Q288.1 529.3 289.0 528.4Q289.9 527.4 291.5 527.4Q293.1 527.4 294.0 528.4Q294.9 529.3 294.9 531.0L294.9 531.0L294.9 550.0Q294.9 551.7 294.0 552.6ZM307.2 552.6Q306.3 553.6 304.7 553.6Q303.1 553.6 302.2 552.6Q301.3 551.7 301.3 550.0L301.3 550.0L301.3 533.1L300.0 533.1Q298.9 533.1 298.2 532.4Q297.5 531.7 297.5 530.6Q297.5 529.4 298.2 528.7Q298.9 528.1 300.0 528.1L300.0 528.1L301.3 528.1L301.3 526.2Q301.3 522.5 303.1 520.7Q304.9 519.0 308.5 518.9L308.5 518.9Q311.1 518.9 312.4 519.7Q313.6 520.4 313.6 521.7L313.6 521.7Q313.6 523.1 312.2 523.5L312.2 523.5Q311.6 523.7 310.9 523.7L310.9 523.7Q309.4 523.7 308.7 524.4Q308.0 525.1 308.0 526.5L308.0 526.5L308.0 528.1L310.9 528.1Q312.0 528.1 312.7 528.7Q313.4 529.4 313.4 530.6Q313.4 531.7 312.7 532.4Q312.0 533.1 310.9 533.1L310.9 533.1L308.1 533.1L308.1 550.0Q308.1 551.7 307.2 552.6ZM318.4 546.6L318.4 546.6L318.4 533.1L317.1 533.1Q315.9 533.1 315.1 532.4Q314.4 531.7 314.4 530.5Q314.4 529.3 315.1 528.6Q315.9 527.9 317.1 527.9L317.1 527.9L318.4 527.9L318.4 525.1Q318.4 523.5 319.3 522.5Q320.2 521.6 321.8 521.6Q323.4 521.6 324.3 522.5Q325.2 523.5 325.2 525.1L325.2 525.1L325.2 527.9L327.6 527.9Q328.9 527.9 329.6 528.6Q330.3 529.3 330.3 530.5Q330.3 531.7 329.6 532.4Q328.9 533.1 327.6 533.1L327.6 533.1L325.2 533.1L325.2 545.1Q325.2 546.5 325.7 547.1Q326.2 547.7 327.3 547.8L327.3 547.8L327.8 547.8Q329.1 548.0 329.7 548.5Q330.4 549.1 330.4 550.3L330.4 550.3Q330.4 551.8 329.0 552.6Q327.7 553.3 325.5 553.3L325.5 553.3L325.3 553.3Q318.4 553.3 318.4 546.6Z "/><mask id="satori_om-id-0-1-1"><rect x="924" y="524" width="236" height="36" fill="#fff"/></mask><path fill="#8e8e8e" d="M927.9 552.6Q927.5 552.9 927.0 552.9Q926.4 552.9 926.1 552.6Q925.8 552.2 925.8 551.7L925.8 551.7L925.8 532.6Q925.8 532.0 926.1 531.6Q926.5 531.3 927.1 531.3Q927.6 531.3 928.0 531.6Q928.3 532.0 928.3 532.6L928.3 532.6L928.3 540.0L928.4 540.0Q929.1 538.7 930.4 537.9Q931.7 537.2 933.3 537.2L933.3 537.2Q936.2 537.2 937.9 539.3Q939.7 541.5 939.7 545.0L939.7 545.0Q939.7 548.6 937.9 550.8Q936.2 552.9 933.2 552.9L933.2 552.9Q931.6 552.9 930.3 552.2Q929.0 551.4 928.3 550.1L928.3 550.1L928.2 550.1L928.2 551.7Q928.2 552.2 927.9 552.6ZM932.7 550.7L932.7 550.7Q934.8 550.7 935.9 549.2Q937.1 547.7 937.1 545.0L937.1 545.0Q937.1 542.5 935.9 540.9Q934.8 539.4 932.7 539.4L932.7 539.4Q930.8 539.4 929.6 541.0Q928.3 542.5 928.3 545.0L928.3 545.0Q928.3 547.6 929.6 549.1Q930.8 550.7 932.7 550.7ZM943.8 558.4L943.8 558.4Q942.9 558.4 942.4 558.0Q941.9 557.7 941.9 557.1L941.9 557.1Q941.9 556.7 942.1 556.4Q942.4 556.2 942.9 556.2L942.9 556.2Q943.1 556.2 943.3 556.2Q943.5 556.2 943.7 556.2L943.7 556.2Q945.4 556.2 946.2 553.7L946.2 553.7L946.6 552.7L941.3 539.0Q941.2 538.6 941.2 538.3L941.2 538.3Q941.2 537.8 941.6 537.5Q941.9 537.2 942.5 537.2L942.5 537.2Q943.4 537.2 943.7 538.1L943.7 538.1L947.9 550.1L948.0 550.1L952.2 538.1Q952.3 537.6 952.6 537.4Q952.9 537.2 953.4 537.2L953.4 537.2Q953.9 537.2 954.3 537.5Q954.6 537.8 954.6 538.3L954.6 538.3Q954.6 538.6 954.5 539.0L954.5 539.0L948.9 553.7Q947.9 556.4 946.8 557.4Q945.7 558.4 943.8 558.4Z M965.7 552.5Q965.3 552.9 964.7 552.9Q964.1 552.9 963.8 552.5Q963.4 552.1 963.4 551.5L963.4 551.5L963.4 532.9Q963.4 532.3 963.8 531.9Q964.1 531.5 964.7 531.5L964.7 531.5L970.9 531.5Q973.9 531.5 975.8 533.4Q977.7 535.3 977.7 538.3L977.7 538.3Q977.7 541.3 975.8 543.2Q973.9 545.1 970.9 545.1L970.9 545.1L966.0 545.1L966.0 551.5Q966.0 552.1 965.7 552.5ZM966.0 533.9L966.0 542.8L970.3 542.8Q972.5 542.8 973.8 541.6Q975.0 540.4 975.0 538.3Q975.0 536.2 973.8 535.0Q972.5 533.9 970.3 533.9L970.3 533.9L966.0 533.9ZM984.8 552.9L984.8 552.9Q982.5 552.9 981.1 551.7Q979.7 550.4 979.7 548.4L979.7 548.4Q979.7 546.4 981.2 545.2Q982.6 544.1 985.2 543.9L985.2 543.9L989.6 543.7L989.6 542.4Q989.6 541.0 988.7 540.2Q987.9 539.4 986.3 539.4L986.3 539.4Q985.0 539.4 984.1 539.9Q983.3 540.4 982.6 541.5L982.6 541.5Q982.3 542.1 981.6 542.1L981.6 542.1Q981.1 542.1 980.8 541.8Q980.5 541.5 980.5 541.0Q980.5 540.5 980.8 539.9L980.8 539.9Q981.4 538.7 982.9 537.9Q984.5 537.2 986.3 537.2L986.3 537.2Q989.0 537.2 990.6 538.5Q992.2 539.9 992.2 542.1L992.2 542.1L992.2 551.6Q992.2 552.2 991.8 552.6Q991.5 552.9 991.0 552.9L991.0 552.9Q990.4 552.9 990.1 552.6Q989.7 552.2 989.7 551.6L989.7 551.6L989.7 550.0L989.7 550.0Q989.0 551.3 987.7 552.1Q986.3 552.9 984.8 552.9ZM985.3 550.8L985.3 550.8Q987.1 550.8 988.4 549.6Q989.6 548.5 989.6 546.9L989.6 546.9L989.6 545.6L985.5 545.9Q984.0 546.0 983.1 546.6Q982.3 547.3 982.3 548.4Q982.3 549.4 983.1 550.1Q984.0 550.8 985.3 550.8ZM996.2 549.1L996.2 549.1L996.2 539.5L994.9 539.5Q994.4 539.5 994.1 539.3Q993.8 539.0 993.8 538.5L993.8 538.5Q993.8 538.0 994.1 537.7Q994.4 537.4 994.9 537.4L994.9 537.4L996.2 537.4L996.2 534.8Q996.2 534.2 996.6 533.8Q996.9 533.5 997.5 533.5Q998.0 533.5 998.4 533.8Q998.8 534.2 998.8 534.8L998.8 534.8L998.8 537.4L1000.7 537.4Q1001.3 537.4 1001.6 537.7Q1001.9 538.0 1001.9 538.5L1001.9 538.5Q1001.9 539.0 1001.6 539.3Q1001.3 539.5 1000.7 539.5L1000.7 539.5L998.8 539.5L998.8 548.6Q998.8 549.6 999.2 550.0Q999.6 550.5 1000.5 550.6L1000.5 550.6L1000.7 550.6Q1001.9 550.7 1001.9 551.6L1001.9 551.6Q1001.9 552.2 1001.5 552.5Q1001.1 552.8 1000.1 552.8L1000.1 552.8L999.9 552.8Q996.2 552.8 996.2 549.1ZM1006.6 552.5Q1006.3 552.9 1005.7 552.9Q1005.2 552.9 1004.8 552.5Q1004.4 552.2 1004.4 551.6L1004.4 551.6L1004.4 538.5Q1004.4 537.9 1004.8 537.5Q1005.1 537.2 1005.6 537.2Q1006.2 537.2 1006.5 537.5Q1006.8 537.9 1006.8 538.5L1006.8 538.5L1006.8 539.9L1006.9 539.9Q1007.2 538.7 1008.2 537.9Q1009.2 537.2 1010.4 537.2L1010.4 537.2Q1011.2 537.2 1011.6 537.5L1011.6 537.5Q1011.9 537.8 1011.9 538.4L1011.9 538.4Q1011.9 539.0 1011.5 539.3L1011.5 539.3Q1011.1 539.6 1010.3 539.6L1010.3 539.6Q1008.6 539.6 1007.8 540.6Q1007.0 541.6 1007.0 543.2L1007.0 543.2L1007.0 551.6Q1007.0 552.2 1006.6 552.5ZM1015.1 534.9L1015.1 534.9Q1014.4 534.9 1014.0 534.4Q1013.5 533.9 1013.5 533.3L1013.5 533.3Q1013.5 532.6 1014.0 532.2Q1014.4 531.7 1015.1 531.7L1015.1 531.7Q1015.7 531.7 1016.2 532.2Q1016.7 532.6 1016.7 533.3L1016.7 533.3Q1016.7 533.9 1016.2 534.4Q1015.7 534.9 1015.1 534.9ZM1016.0 552.5Q1015.6 552.9 1015.1 552.9Q1014.5 552.9 1014.2 552.5Q1013.8 552.2 1013.8 551.6L1013.8 551.6L1013.8 538.5Q1013.8 537.9 1014.2 537.5Q1014.5 537.2 1015.1 537.2Q1015.6 537.2 1016.0 537.5Q1016.4 537.9 1016.4 538.5L1016.4 538.5L1016.4 551.6Q1016.4 552.2 1016.0 552.5ZM1026.1 552.9L1026.1 552.9Q1022.9 552.9 1021.0 550.8Q1019.1 548.7 1019.1 545.1Q1019.1 541.5 1021.0 539.3Q1022.9 537.2 1026.1 537.2L1026.1 537.2Q1028.2 537.2 1029.9 538.2Q1031.6 539.3 1032.0 540.9L1032.0 540.9Q1032.1 541.2 1032.1 541.4L1032.1 541.4Q1032.1 542.0 1031.8 542.3Q1031.5 542.6 1031.0 542.6L1031.0 542.6Q1030.6 542.6 1030.3 542.4Q1030.1 542.2 1029.8 541.7L1029.8 541.7Q1028.6 539.4 1026.1 539.4L1026.1 539.4Q1024.1 539.4 1022.9 541.0Q1021.6 542.5 1021.6 545.0L1021.6 545.0Q1021.6 547.6 1022.9 549.2Q1024.1 550.7 1026.1 550.7L1026.1 550.7Q1027.4 550.7 1028.3 550.1Q1029.2 549.6 1029.8 548.4L1029.8 548.4Q1030.1 547.9 1030.3 547.7Q1030.6 547.5 1031.0 547.5L1031.0 547.5Q1031.5 547.5 1031.8 547.8Q1032.1 548.2 1032.1 548.7L1032.1 548.7Q1032.1 548.9 1032.0 549.3L1032.0 549.3Q1031.4 550.9 1029.8 551.9Q1028.2 552.9 1026.1 552.9ZM1041.2 552.9L1041.2 552.9Q1037.8 552.9 1036.0 550.9Q1034.1 548.8 1034.1 545.1L1034.1 545.1Q1034.1 541.5 1036.0 539.3Q1037.8 537.2 1041.0 537.2L1041.0 537.2Q1043.9 537.2 1045.8 539.1Q1047.6 541.1 1047.6 544.3L1047.6 544.3Q1047.6 544.9 1047.3 545.3Q1046.9 545.7 1046.2 545.7L1046.2 545.7L1036.7 545.7Q1036.7 548.0 1037.9 549.4Q1039.1 550.7 1041.1 550.7L1041.1 550.7Q1042.5 550.7 1043.4 550.2Q1044.3 549.6 1045.2 548.3L1045.2 548.3Q1045.6 547.8 1046.2 547.8L1046.2 547.8Q1046.7 547.8 1047.0 548.1Q1047.3 548.4 1047.3 548.9L1047.3 548.9Q1047.3 549.2 1047.1 549.7L1047.1 549.7Q1046.4 551.2 1044.8 552.1Q1043.3 552.9 1041.2 552.9ZM1036.7 543.7L1036.7 543.7L1045.0 543.7Q1045.0 541.8 1043.8 540.6Q1042.7 539.4 1041.0 539.4L1041.0 539.4Q1039.2 539.4 1038.0 540.6Q1036.8 541.8 1036.7 543.7Z M1059.0 552.5Q1058.7 552.9 1058.1 552.9Q1057.5 552.9 1057.1 552.5Q1056.7 552.1 1056.7 551.5L1056.7 551.5L1056.7 532.7Q1056.7 532.1 1057.1 531.7Q1057.5 531.3 1058.1 531.3Q1058.7 531.3 1059.0 531.7Q1059.4 532.1 1059.4 532.7L1059.4 532.7L1059.4 541.8L1059.5 541.8L1068.9 531.8Q1069.4 531.3 1070.0 531.3L1070.0 531.3Q1070.5 531.3 1070.9 531.7Q1071.2 532.0 1071.2 532.5L1071.2 532.5Q1071.2 533.0 1070.9 533.3L1070.9 533.3L1063.6 540.9L1071.7 550.6Q1072.1 551.1 1072.1 551.6L1072.1 551.6Q1072.1 552.2 1071.7 552.5Q1071.3 552.9 1070.8 552.9L1070.8 552.9Q1070.1 552.9 1069.6 552.2L1069.6 552.2L1061.7 542.8L1059.4 545.3L1059.4 551.5Q1059.4 552.1 1059.0 552.5ZM1081.2 552.9L1081.2 552.9Q1077.8 552.9 1075.9 550.9Q1074.1 548.8 1074.1 545.1L1074.1 545.1Q1074.1 541.5 1075.9 539.3Q1077.8 537.2 1081.0 537.2L1081.0 537.2Q1083.9 537.2 1085.8 539.1Q1087.6 541.1 1087.6 544.3L1087.6 544.3Q1087.6 544.9 1087.2 545.3Q1086.9 545.7 1086.2 545.7L1086.2 545.7L1076.7 545.7Q1076.7 548.0 1077.9 549.4Q1079.1 550.7 1081.1 550.7L1081.1 550.7Q1082.5 550.7 1083.4 550.2Q1084.3 549.6 1085.2 548.3L1085.2 548.3Q1085.6 547.8 1086.2 547.8L1086.2 547.8Q1086.7 547.8 1087.0 548.1Q1087.3 548.4 1087.3 548.9L1087.3 548.9Q1087.3 549.2 1087.1 549.7L1087.1 549.7Q1086.4 551.2 1084.8 552.1Q1083.3 552.9 1081.2 552.9ZM1076.7 543.7L1076.7 543.7L1085.0 543.7Q1084.9 541.8 1083.8 540.6Q1082.7 539.4 1080.9 539.4L1080.9 539.4Q1079.1 539.4 1078.0 540.6Q1076.8 541.8 1076.7 543.7ZM1092.4 552.5Q1092.0 552.9 1091.4 552.9Q1090.9 552.9 1090.5 552.5Q1090.2 552.2 1090.2 551.6L1090.2 551.6L1090.2 538.5Q1090.2 537.9 1090.5 537.5Q1090.8 537.2 1091.4 537.2Q1091.9 537.2 1092.2 537.5Q1092.6 537.9 1092.6 538.5L1092.6 538.5L1092.6 539.9L1092.6 539.9Q1093.3 538.6 1094.5 537.9Q1095.8 537.2 1097.5 537.2L1097.5 537.2Q1100.0 537.2 1101.3 538.7Q1102.7 540.2 1102.7 542.8L1102.7 542.8L1102.7 551.6Q1102.7 552.2 1102.4 552.5Q1102.0 552.9 1101.5 552.9Q1100.9 552.9 1100.6 552.5Q1100.2 552.2 1100.2 551.6L1100.2 551.6L1100.2 543.2Q1100.2 541.4 1099.3 540.4Q1098.4 539.4 1096.7 539.4L1096.7 539.4Q1094.9 539.4 1093.8 540.6Q1092.7 541.8 1092.7 543.7L1092.7 543.7L1092.7 551.6Q1092.7 552.2 1092.4 552.5ZM1108.2 552.5Q1107.8 552.9 1107.3 552.9Q1106.7 552.9 1106.3 552.5Q1106.0 552.2 1106.0 551.6L1106.0 551.6L1106.0 538.5Q1106.0 537.9 1106.3 537.5Q1106.7 537.2 1107.2 537.2Q1107.7 537.2 1108.0 537.5Q1108.4 537.9 1108.4 538.5L1108.4 538.5L1108.4 539.9L1108.4 539.9Q1109.0 538.6 1110.1 537.9Q1111.3 537.2 1112.8 537.2L1112.8 537.2Q1114.3 537.2 1115.4 537.9Q1116.5 538.7 1117.0 540.1L1117.0 540.1L1117.1 540.1Q1117.7 538.7 1119.0 537.9Q1120.3 537.2 1121.9 537.2L1121.9 537.2Q1124.1 537.2 1125.5 538.5Q1126.8 539.9 1126.8 542.1L1126.8 542.1L1126.8 551.6Q1126.8 552.2 1126.5 552.5Q1126.1 552.9 1125.6 552.9Q1125.0 552.9 1124.6 552.5Q1124.3 552.2 1124.3 551.6L1124.3 551.6L1124.3 542.7Q1124.3 541.2 1123.5 540.3Q1122.6 539.4 1121.1 539.4Q1119.6 539.4 1118.6 540.4Q1117.7 541.4 1117.7 543.0L1117.7 543.0L1117.7 551.6Q1117.7 552.2 1117.3 552.5Q1117.0 552.9 1116.4 552.9Q1115.8 552.9 1115.5 552.5Q1115.1 552.2 1115.1 551.6L1115.1 551.6L1115.1 542.5Q1115.1 541.1 1114.3 540.2Q1113.4 539.4 1112.0 539.4L1112.0 539.4Q1110.5 539.4 1109.5 540.5Q1108.5 541.5 1108.5 543.1L1108.5 543.1L1108.5 551.6Q1108.5 552.2 1108.2 552.5ZM1136.4 552.9L1136.4 552.9Q1133.2 552.9 1131.3 550.8Q1129.3 548.7 1129.3 545.0Q1129.3 541.4 1131.3 539.3Q1133.2 537.2 1136.4 537.2L1136.4 537.2Q1139.6 537.2 1141.5 539.3Q1143.4 541.4 1143.4 545.0L1143.4 545.0Q1143.4 548.7 1141.5 550.8Q1139.6 552.9 1136.4 552.9ZM1133.1 549.2Q1134.3 550.7 1136.4 550.7Q1138.4 550.7 1139.6 549.2Q1140.8 547.7 1140.8 545.0Q1140.8 542.4 1139.6 540.9Q1138.4 539.4 1136.4 539.4Q1134.3 539.4 1133.1 540.9Q1131.9 542.4 1131.9 545.0Q1131.9 547.7 1133.1 549.2ZM1152.5 535.6L1152.5 535.6Q1152.1 535.6 1151.9 535.4Q1151.6 535.2 1151.6 534.8Q1151.6 534.5 1151.8 534.2L1151.8 534.2L1154.0 531.1Q1154.3 530.6 1154.6 530.5Q1154.8 530.3 1155.1 530.3L1155.1 530.3Q1155.6 530.3 1155.9 530.6Q1156.2 530.9 1156.2 531.3L1156.2 531.3Q1156.2 531.7 1155.9 532.1L1155.9 532.1L1153.4 535.1Q1153.0 535.6 1152.5 535.6ZM1152.4 552.9L1152.4 552.9Q1149.0 552.9 1147.1 550.9Q1145.3 548.8 1145.3 545.1L1145.3 545.1Q1145.3 541.5 1147.1 539.3Q1149.0 537.2 1152.2 537.2L1152.2 537.2Q1155.1 537.2 1156.9 539.1Q1158.8 541.1 1158.8 544.3L1158.8 544.3Q1158.8 544.9 1158.4 545.3Q1158.1 545.7 1157.4 545.7L1157.4 545.7L1147.9 545.7Q1147.9 548.0 1149.1 549.4Q1150.2 550.7 1152.3 550.7L1152.3 550.7Q1153.6 550.7 1154.6 550.2Q1155.5 549.6 1156.4 548.3L1156.4 548.3Q1156.8 547.8 1157.3 547.8L1157.3 547.8Q1157.9 547.8 1158.2 548.1Q1158.5 548.4 1158.5 548.9L1158.5 548.9Q1158.5 549.2 1158.3 549.7L1158.3 549.7Q1157.6 551.2 1156.0 552.1Q1154.5 552.9 1152.4 552.9ZM1147.9 543.7L1147.9 543.7L1156.2 543.7Q1156.1 541.8 1155.0 540.6Q1153.9 539.4 1152.1 539.4L1152.1 539.4Q1150.3 539.4 1149.2 540.6Q1148.0 541.8 1147.9 543.7Z "/></svg>