<svg width="1200" height="630" viewBox="0 0 1200 630" xmlns="http://www.w3.org/2000/svg"><mask id="satori_om-id"><rect x="0" y="0" width="1200" height="630" fill="#fff"/></mask><mask id="satori_om-id-0"><rect x="0" y="0" width="1200" height="630" fill="#fff"/></mask><rect x="0" y="0" width="1200" height="630" fill="#f2f2f2"/><mask id="satori_om-id-0-0"><rect x="0" y="0" width="1200" height="441" fill="#fff"/></mask><mask id="satori_om-id-0-0-0"><rect x="40" y="136" width="1120" height="36" fill="#fff"/></mask><path fill="#8e8e8e" d="M50.0 164.4Q49.6 164.9 48.8 164.9Q48.1 164.9 47.6 164.4Q47.2 164.0 47.2 163.2L47.2 163.2L47.2 146.4L42.0 146.4Q41.3 146.4 40.9 146.0Q40.5 145.6 40.5 144.9Q40.5 144.3 40.9 143.9Q41.3 143.5 42.0 143.5L42.0 143.5L55.6 143.5Q56.3 143.5 56.8 143.9Q57.2 144.3 57.2 144.9Q57.2 145.6 56.8 146.0Q56.3 146.4 55.6 146.4L55.6 146.4L50.5 146.4L50.5 163.2Q50.5 164.0 50.0 164.4ZM64.6 164.9L64.6 164.9Q62.0 164.9 60.6 163.4Q59.1 161.9 59.1 159.2L59.1 159.2L59.1 150.7Q59.1 149.9 59.6 149.4Q60.0 149.0 60.7 149.0L60.7 149.0Q61.4 149.0 61.9 149.4Q62.3 149.9 62.3 150.7L62.3 150.7L62.3 158.6Q62.3 160.4 63.1 161.3Q64.0 162.2 65.6 162.2L65.6 162.2Q67.3 162.2 68.3 161.1Q69.3 160.0 69.3 158.2L69.3 158.2L69.3 150.7Q69.3 149.9 69.7 149.4Q70.1 149.0 70.8 149.0L70.8 149.0Q71.6 149.0 72.0 149.4Q72.4 149.9 72.4 150.7L72.4 150.7L72.4 163.3Q72.4 164.1 72.0 164.5Q71.6 164.9 70.9 164.9Q70.2 164.9 69.8 164.5Q69.4 164.1 69.4 163.3L69.4 163.3L69.4 162.1L69.3 162.1Q68.0 164.9 64.6 164.9ZM82.2 165.0L82.2 165.0Q78.7 165.0 76.8 162.9Q74.9 160.8 74.9 157.0L74.9 157.0Q74.9 153.4 76.8 151.2Q78.7 149.0 82.0 149.0L82.0 149.0Q85.1 149.0 87.0 151.0Q88.9 153.0 88.9 156.1L88.9 156.1Q88.9 156.9 88.5 157.3Q88.1 157.8 87.4 157.8L87.4 157.8L78.1 157.8L78.1 157.8Q78.1 159.9 79.2 161.2Q80.3 162.4 82.2 162.4L82.2 162.4Q83.4 162.4 84.4 161.9Q85.3 161.4 86.1 160.2L86.1 160.2Q86.6 159.6 87.3 159.6L87.3 159.6Q87.8 159.6 88.2 160.0Q88.6 160.3 88.6 160.9L88.6 160.9Q88.6 161.3 88.4 161.8L88.4 161.8Q87.6 163.3 86.0 164.1Q84.4 165.0 82.2 165.0ZM78.1 155.5L78.1 155.5L85.8 155.5Q85.7 153.7 84.7 152.6Q83.7 151.5 82.0 151.5L82.0 151.5Q80.4 151.5 79.3 152.6Q78.2 153.7 78.1 155.5ZM97.1 165.0L97.1 165.0Q94.8 165.0 93.2 164.1Q91.6 163.3 91.1 161.8L91.1 161.8Q90.9 161.5 90.9 161.2L90.9 161.2Q90.9 160.6 91.3 160.2Q91.7 159.9 92.3 159.9L92.3 159.9Q93.1 159.9 93.7 160.7L93.7 160.7Q94.3 161.7 95.1 162.1Q95.9 162.5 97.2 162.5L97.2 162.5Q98.6 162.5 99.4 162.0Q100.2 161.4 100.2 160.5L100.2 160.5Q100.2 159.7 99.7 159.3Q99.2 158.8 98.0 158.5L98.0 158.5L95.6 158.0Q91.1 156.9 91.1 153.6L91.1 153.6Q91.1 151.5 92.8 150.2Q94.4 149.0 97.2 149.0L97.2 149.0Q99.3 149.0 100.8 149.9Q102.4 150.8 102.7 152.2L102.7 152.2Q102.8 152.6 102.8 152.7L102.8 152.7Q102.8 153.2 102.4 153.5Q102.1 153.9 101.5 153.9L101.5 153.9Q100.7 153.9 100.2 153.2L100.2 153.2Q99.7 152.3 99.0 151.8Q98.2 151.4 97.1 151.4L97.1 151.4Q95.8 151.4 95.0 152.0Q94.2 152.5 94.2 153.4L94.2 153.4Q94.2 154.9 96.6 155.5L96.6 155.5L99.0 156.0Q101.4 156.6 102.4 157.5Q103.4 158.5 103.4 160.2L103.4 160.2Q103.4 162.3 101.7 163.6Q99.9 165.0 97.1 165.0ZM111.7 164.9L111.7 164.9Q108.7 164.9 107.0 162.8Q105.2 160.6 105.2 157.0Q105.2 153.3 107.0 151.2Q108.7 149.0 111.6 149.0L111.6 149.0Q113.3 149.0 114.5 149.8Q115.8 150.5 116.5 151.8L116.5 151.8L116.5 151.8L116.5 144.9Q116.5 144.1 117.0 143.7Q117.4 143.2 118.1 143.2L118.1 143.2Q118.8 143.2 119.3 143.7Q119.7 144.2 119.7 144.9L119.7 144.9L119.7 163.4Q119.7 164.1 119.3 164.5Q118.9 164.9 118.1 164.9L118.1 164.9Q117.5 164.9 117.0 164.5Q116.5 164.1 116.5 163.4L116.5 163.4L116.5 161.9L116.5 161.9Q115.9 163.3 114.6 164.1Q113.4 164.9 111.7 164.9ZM112.5 162.2L112.5 162.2Q114.3 162.2 115.5 160.8Q116.6 159.4 116.6 157.0L116.6 157.0Q116.6 154.6 115.5 153.1Q114.3 151.7 112.5 151.7L112.5 151.7Q110.6 151.7 109.5 153.1Q108.4 154.5 108.4 157.0L108.4 157.0Q108.4 159.4 109.5 160.8Q110.6 162.2 112.5 162.2ZM127.5 164.9L127.5 164.9Q125.2 164.9 123.8 163.6Q122.3 162.3 122.3 160.3L122.3 160.3Q122.3 158.3 123.8 157.1Q125.3 155.9 128.1 155.7L128.1 155.7L132.3 155.5L132.3 154.3Q132.3 153.0 131.5 152.3Q130.6 151.6 129.2 151.6L129.2 151.6Q128.0 151.6 127.2 152.0Q126.4 152.5 125.8 153.5L125.8 153.5Q125.3 154.2 124.5 154.2L124.5 154.2Q123.9 154.2 123.5 153.8Q123.1 153.4 123.1 152.9L123.1 152.9Q123.1 152.3 123.4 151.8L123.4 151.8Q124.0 150.5 125.6 149.8Q127.2 149.0 129.3 149.0L129.3 149.0Q132.1 149.0 133.8 150.4Q135.4 151.7 135.4 154.0L135.4 154.0L135.4 163.3Q135.4 164.1 135.0 164.5Q134.6 164.9 133.9 164.9L133.9 164.9Q133.3 164.9 132.8 164.5Q132.4 164.1 132.4 163.4L132.4 163.4L132.4 162.1L132.3 162.1Q131.7 163.4 130.3 164.2Q129.0 164.9 127.5 164.9ZM128.3 162.4L128.3 162.4Q130 162.4 131.1 161.4Q132.3 160.4 132.3 158.9L132.3 158.9L132.3 157.7L128.5 157.9Q127.1 158.0 126.3 158.6Q125.5 159.2 125.5 160.2L125.5 160.2Q125.5 161.2 126.3 161.8Q127.1 162.4 128.3 162.4ZM140.4 170.4L140.4 170.4Q139.3 170.4 138.7 170.0Q138.1 169.6 138.1 168.9L138.1 168.9Q138.1 168.4 138.5 168.1Q138.8 167.8 139.4 167.8L139.4 167.8Q139.5 167.8 139.8 167.8Q140.0 167.8 140.2 167.8L140.2 167.8Q141.8 167.8 142.5 165.7L142.5 165.7L142.8 164.8L137.7 151.3Q137.5 150.9 137.5 150.4L137.5 150.4Q137.5 149.8 137.9 149.4Q138.4 149.0 139.1 149.0L139.1 149.0Q139.7 149.0 140.1 149.3Q140.4 149.5 140.6 150.2L140.6 150.2L144.5 161.8L144.6 161.8L148.5 150.2Q148.7 149.5 149.1 149.3Q149.4 149.0 150.0 149.0L150.0 149.0Q150.7 149.0 151.1 149.4Q151.6 149.8 151.6 150.4L151.6 150.4Q151.6 150.8 151.4 151.3L151.4 151.3L146.1 165.4Q145.0 168.2 143.8 169.3Q142.5 170.4 140.4 170.4ZM156.0 161.1L156.0 161.1Q156.7 161.1 157.1 161.5Q157.5 161.8 157.5 162.4L157.5 162.4Q157.5 162.8 157.4 163.3L157.4 163.3L156.1 168.3Q155.9 169.4 154.8 169.4L154.8 169.4Q154.2 169.4 153.9 169.1Q153.5 168.7 153.6 168.2L153.6 168.2Q153.6 168.1 153.6 167.8L153.6 167.8L154.5 162.4Q154.8 161.1 156.0 161.1Z M174.7 164.9L174.7 164.9Q173.9 164.9 173.5 164.5Q173.1 164.0 173.1 163.3L173.1 163.3L173.1 146.9L173.0 146.9L169.3 149.4Q168.9 149.7 168.3 149.7L168.3 149.7Q167.8 149.7 167.5 149.4Q167.1 149.0 167.1 148.5L167.1 148.5Q167.1 147.7 167.9 147.1L167.9 147.1L172.3 144.0Q173.0 143.6 173.4 143.4Q173.9 143.2 174.4 143.2L174.4 143.2Q175.3 143.2 175.8 143.7Q176.3 144.2 176.3 145.1L176.3 145.1L176.3 163.3Q176.3 164.0 175.8 164.5Q175.4 164.9 174.7 164.9ZM189.0 165.1L189.0 165.1Q186.6 165.1 184.7 164.0Q182.8 162.9 182.1 161.2L182.1 161.2Q181.7 160.5 181.7 159.8L181.7 159.8Q181.7 159.1 182.1 158.7Q182.5 158.3 183.2 158.3L183.2 158.3Q183.7 158.3 184.1 158.6Q184.4 158.8 184.7 159.4L184.7 159.4Q185.2 160.8 186.3 161.5Q187.4 162.3 189.0 162.3L189.0 162.3Q191.0 162.3 192.3 161.0Q193.5 159.8 193.5 157.8L193.5 157.8Q193.5 155.8 192.3 154.6Q191.0 153.4 189.0 153.4L189.0 153.4Q186.9 153.4 185.6 154.7L185.6 154.7Q184.9 155.5 184.5 155.6Q184.2 155.8 183.6 155.8L183.6 155.8Q182.8 155.8 182.4 155.4Q182.0 154.9 182.0 154.2L182.0 154.2L182.0 153.9L182.7 145.8Q182.8 144.6 183.4 144.0Q184.0 143.5 185.2 143.5L185.2 143.5L194.2 143.5Q194.9 143.5 195.3 143.9Q195.7 144.3 195.7 144.9Q195.7 145.5 195.3 145.9Q194.9 146.3 194.2 146.3L194.2 146.3L185.6 146.3L185.0 152.9L185.0 152.9Q185.7 151.9 187.0 151.3Q188.2 150.8 189.8 150.8L189.8 150.8Q192.8 150.8 194.8 152.7Q196.7 154.6 196.7 157.7L196.7 157.7Q196.7 161.0 194.6 163.0Q192.4 165.1 189.0 165.1Z M206.3 164.9L206.3 164.9Q205.6 164.9 205.1 164.5Q204.7 164.1 204.7 163.4L204.7 163.4Q204.7 163.0 204.9 162.4L204.9 162.4L211.3 145.0Q211.9 143.3 213.6 143.3L213.6 143.3Q214.5 143.3 215.0 143.7Q215.6 144.1 215.9 145.0L215.9 145.0L222.4 162.4Q222.6 163.0 222.6 163.4L222.6 163.4Q222.6 164.0 222.1 164.5Q221.6 164.9 220.9 164.9L220.9 164.9Q220.3 164.9 219.9 164.6Q219.5 164.3 219.3 163.6L219.3 163.6L217.7 159.0L209.6 159.0L208.0 163.5Q207.7 164.3 207.4 164.6Q207.0 164.9 206.3 164.9ZM213.6 147.0L210.4 156.3L216.8 156.3L213.6 147.0L213.6 147.0ZM227.7 169.7Q227.3 170.1 226.6 170.1Q225.9 170.1 225.4 169.7Q225.0 169.2 225.0 168.4L225.0 168.4L225.0 150.6Q225.0 149.9 225.4 149.4Q225.8 149.0 226.5 149.0L226.5 149.0Q227.2 149.0 227.6 149.4Q228.0 149.9 228.0 150.6L228.0 150.6L228.0 151.9L228.1 151.9Q228.8 150.6 230.1 149.8Q231.4 149.0 233.0 149.0L233.0 149.0Q236.0 149.0 237.7 151.2Q239.5 153.3 239.5 157.0Q239.5 160.6 237.7 162.8Q236.0 164.9 233.1 164.9L233.1 164.9Q231.4 164.9 230.2 164.2Q228.9 163.4 228.2 162.1L228.2 162.1L228.1 162.1L228.1 168.4Q228.1 169.2 227.7 169.7ZM232.2 162.2L232.2 162.2Q234.0 162.2 235.1 160.8Q236.2 159.4 236.2 157.0L236.2 157.0Q236.2 154.5 235.1 153.1Q234.0 151.7 232.2 151.7L232.2 151.7Q230.4 151.7 229.2 153.1Q228.1 154.6 228.1 157.0L228.1 157.0Q228.1 159.4 229.2 160.8Q230.3 162.2 232.2 162.2ZM243.5 164.9L243.5 164.9Q242.8 164.9 242.4 164.5Q241.9 164.0 241.9 163.3L241.9 163.3L241.9 150.6Q241.9 149.9 242.3 149.4Q242.8 149.0 243.4 149.0L243.4 149.0Q244.1 149.0 244.5 149.4Q244.9 149.9 244.9 150.6L244.9 150.6L244.9 151.9L245.0 151.9Q245.3 150.6 246.3 149.8Q247.2 149.0 248.4 149.0L248.4 149.0Q249.2 149.0 249.6 149.4L249.6 149.4Q250.1 149.7 250.1 150.5L250.1 150.5Q250.1 151.2 249.6 151.6L249.6 151.6Q249.1 152.0 248.1 152.0L248.1 152.0Q246.6 152.0 245.8 153.0Q245.1 153.9 245.1 155.4L245.1 155.4L245.1 163.3Q245.1 164.0 244.7 164.5Q244.2 164.9 243.5 164.9ZM254.8 146.4Q254.2 146.9 253.5 146.9Q252.7 146.9 252.2 146.4Q251.6 145.9 251.6 145.1L251.6 145.1Q251.6 144.3 252.2 143.8Q252.7 143.3 253.5 143.3L253.5 143.3Q254.2 143.3 254.8 143.8Q255.3 144.3 255.3 145.1L255.3 145.1Q255.3 145.9 254.8 146.4ZM254.6 164.5Q254.2 164.9 253.5 164.9Q252.7 164.9 252.3 164.5Q251.9 164.0 251.9 163.3L251.9 163.3L251.9 150.7Q251.9 149.9 252.3 149.4Q252.7 149.0 253.5 149.0Q254.2 149.0 254.6 149.4Q255.0 149.9 255.0 150.7L255.0 150.7L255.0 163.3Q255.0 164.0 254.6 164.5ZM261.1 164.5Q260.7 164.9 260.0 164.9Q259.3 164.9 258.8 164.5Q258.4 164.0 258.4 163.3L258.4 163.3L258.4 144.9Q258.4 144.2 258.8 143.7Q259.3 143.2 260.0 143.2Q260.7 143.2 261.1 143.7Q261.6 144.2 261.6 144.9L261.6 144.9L261.6 163.3Q261.6 164.0 261.1 164.5Z M284.1 164.7L272.5 164.7Q271.7 164.7 271.3 164.3Q270.9 163.9 270.9 163.3L270.9 163.3Q270.9 162.8 271.1 162.5Q271.3 162.1 271.8 161.6L271.8 161.6L278.4 154.9Q280.5 152.8 281.2 151.7Q281.8 150.6 281.8 149.3L281.8 149.3Q281.8 147.8 280.8 146.8Q279.8 145.8 278.2 145.8L278.2 145.8Q275.0 145.8 273.9 149.0L273.9 149.0Q273.7 149.5 273.3 149.8Q273.0 150.0 272.4 150.0L272.4 150.0Q271.8 150.0 271.4 149.6Q271.0 149.3 271.0 148.6L271.0 148.6Q271.0 148.3 271.1 148.0L271.1 148.0Q271.3 147.1 271.8 146.3Q272.4 145.4 273.2 144.7Q274.1 144.0 275.4 143.6Q276.7 143.1 278.2 143.1L278.2 143.1Q281.2 143.1 283.1 144.8Q285.1 146.5 285.1 149.1L285.1 149.1Q285.1 150.9 284.1 152.5Q283.1 154.0 280.4 156.8L280.4 156.8L275.4 161.8L275.4 161.9L284.1 161.9Q284.8 161.9 285.2 162.3Q285.6 162.7 285.6 163.3L285.6 163.3Q285.6 163.9 285.2 164.3Q284.8 164.7 284.1 164.7L284.1 164.7ZM302.0 162.1Q299.9 165.1 296.1 165.1Q292.3 165.1 290.1 162.1Q288.0 159.2 288.0 154.1L288.0 154.1Q288.0 149.0 290.1 146.1Q292.3 143.1 296.1 143.1L296.1 143.1Q299.8 143.1 302.0 146.1Q304.1 149.0 304.1 154.1L304.1 154.1Q304.1 159.1 302.0 162.1ZM296.1 162.3L296.1 162.3Q298.3 162.3 299.6 160.1Q300.8 157.9 300.8 154.1L300.8 154.1Q300.8 150.3 299.6 148.1Q298.3 145.9 296.1 145.9Q293.8 145.9 292.6 148.1Q291.3 150.3 291.3 154.1L291.3 154.1Q291.3 157.9 292.5 160.1Q293.8 162.3 296.1 162.3ZM320.2 164.7L308.5 164.7Q307.8 164.7 307.4 164.3Q307.0 163.9 307.0 163.3L307.0 163.3Q307.0 162.8 307.2 162.5Q307.4 162.1 307.9 161.6L307.9 161.6L314.5 154.9Q316.6 152.8 317.3 151.7Q317.9 150.6 317.9 149.3L317.9 149.3Q317.9 147.8 316.9 146.8Q315.9 145.8 314.3 145.8L314.3 145.8Q311.1 145.8 310.0 149.0L310.0 149.0Q309.8 149.5 309.4 149.8Q309.1 150.0 308.5 150.0L308.5 150.0Q307.9 150.0 307.5 149.6Q307.1 149.3 307.1 148.6L307.1 148.6Q307.1 148.3 307.2 148.0L307.2 148.0Q307.3 147.1 307.9 146.3Q308.4 145.4 309.3 144.7Q310.2 144.0 311.5 143.6Q312.8 143.1 314.3 143.1L314.3 143.1Q317.3 143.1 319.2 144.8Q321.2 146.5 321.2 149.1L321.2 149.1Q321.2 150.9 320.2 152.5Q319.2 154.0 316.5 156.8L316.5 156.8L311.5 161.8L311.5 161.9L320.2 161.9Q320.9 161.9 321.3 162.3Q321.7 162.7 321.7 163.3L321.7 163.3Q321.7 163.9 321.3 164.3Q320.9 164.7 320.2 164.7L320.2 164.7ZM332.0 165.1L332.0 165.1Q329.6 165.1 327.7 164.0Q325.8 162.9 325.1 161.2L325.1 161.2Q324.8 160.5 324.8 159.8L324.8 159.8Q324.8 159.1 325.1 158.7Q325.5 158.3 326.2 158.3L326.2 158.3Q326.7 158.3 327.1 158.6Q327.4 158.8 327.7 159.4L327.7 159.4Q328.2 160.8 329.3 161.5Q330.4 162.3 332.0 162.3L332.0 162.3Q334.0 162.3 335.3 161.0Q336.5 159.8 336.5 157.8L336.5 157.8Q336.5 155.8 335.3 154.6Q334.0 153.4 332.0 153.4L332.0 153.4Q329.9 153.4 328.6 154.7L328.6 154.7Q327.9 155.5 327.5 155.6Q327.2 155.8 326.6 155.8L326.6 155.8Q325.8 155.8 325.4 155.4Q325 154.9 325.0 154.2L325.0 154.2L325.0 153.9L325.7 145.8Q325.8 144.6 326.4 144.0Q327.0 143.5 328.3 143.5L328.3 143.5L337.2 143.5Q337.9 143.5 338.3 143.9Q338.7 144.3 338.7 144.9Q338.7 145.5 338.3 145.9Q337.9 146.3 337.2 146.3L337.2 146.3L328.6 146.3L328.0 152.9L328.0 152.9Q328.7 151.9 330.0 151.3Q331.2 150.8 332.8 150.8L332.8 150.8Q335.9 150.8 337.8 152.7Q339.8 154.6 339.8 157.7L339.8 157.7Q339.8 161.0 337.6 163.0Q335.4 165.1 332.0 165.1Z "/><mask id="satori_om-id-0-0-1"><rect x="40" y="217" width="1120" height="83" fill="#fff"/></mask><path fill="#224d67" d="M57.8 280.1L57.8 280.1Q56.1 280.1 55.1 279.1Q54.1 278.0 54.1 276.2L54.1 276.2L54.1 243.7L44.4 243.7Q42.8 243.7 41.9 242.8Q40.9 242.0 40.9 240.5Q40.9 239.0 41.9 238.2Q42.8 237.3 44.4 237.3L44.4 237.3L71.3 237.3Q72.8 237.3 73.8 238.2Q74.7 239.0 74.7 240.5Q74.7 242.0 73.8 242.8Q72.8 243.7 71.3 243.7L71.3 243.7L61.6 243.7L61.6 276.2Q61.6 278.0 60.6 279.1Q59.6 280.1 57.8 280.1ZM87.8 280.1L87.8 280.1Q83.2 280.1 80.3 277.5Q77.4 274.9 77.4 270.7L77.4 270.7Q77.4 266.6 80.4 264.2Q83.5 261.8 89.2 261.4L89.2 261.4L97.4 260.9L97.4 258.7Q97.4 256.3 95.9 254.9Q94.3 253.6 91.6 253.6L91.6 253.6Q89.5 253.6 88.0 254.4Q86.5 255.2 85.1 257.2L85.1 257.2Q84.0 258.7 82.2 258.7L82.2 258.7Q80.8 258.7 79.9 257.9Q79.1 257.1 79.1 255.8L79.1 255.8Q79.1 254.8 79.6 253.8L79.6 253.8Q80.8 251.1 84.1 249.5Q87.5 247.9 91.9 247.9L91.9 247.9Q97.7 247.9 101.2 250.7Q104.6 253.5 104.6 258.2L104.6 258.2L104.6 276.5Q104.6 278.2 103.6 279.2Q102.7 280.2 101.1 280.2L101.1 280.2Q99.6 280.2 98.6 279.3Q97.7 278.4 97.6 276.8L97.6 276.8L97.6 274.6L97.5 274.6Q96.1 277.1 93.5 278.6Q90.8 280.1 87.8 280.1ZM90.0 274.6L90.0 274.6Q93.1 274.6 95.3 272.7Q97.4 270.8 97.4 268.1L97.4 268.1L97.4 265.7L90.2 266.1Q87.6 266.3 86.1 267.4Q84.7 268.6 84.7 270.4L84.7 270.4Q84.7 272.3 86.1 273.4Q87.6 274.6 90.0 274.6ZM117.0 279.2Q116.0 280.2 114.4 280.2Q112.7 280.2 111.7 279.2Q110.7 278.1 110.7 276.3L110.7 276.3L110.7 240.6Q110.7 238.7 111.7 237.7Q112.7 236.7 114.4 236.7Q116.0 236.7 117.0 237.7Q118.0 238.7 118.0 240.6L118.0 240.6L118.0 276.3Q118.0 278.1 117.0 279.2ZM130.7 279.2Q129.7 280.2 128.1 280.2Q126.4 280.2 125.4 279.2Q124.4 278.1 124.4 276.3L124.4 276.3L124.4 240.6Q124.4 238.7 125.4 237.7Q126.4 236.7 128.1 236.7Q129.7 236.7 130.7 237.7Q131.7 238.7 131.7 240.6L131.7 240.6L131.7 261.4L131.8 261.4L144.0 249.3Q145.3 247.9 146.8 247.9L146.8 247.9Q148.2 247.9 149.1 248.8Q150.0 249.7 150.0 251.0L150.0 251.0Q150.0 252.5 148.7 253.7L148.7 253.7L139.8 262.1L149.6 274.3Q150.6 275.7 150.6 276.9L150.6 276.9Q150.6 278.3 149.6 279.3Q148.6 280.2 147.1 280.2L147.1 280.2Q146.0 280.2 145.3 279.7Q144.6 279.3 143.8 278.1L143.8 278.1L134.5 266.3L131.7 268.9L131.7 276.3Q131.7 278.1 130.7 279.2Z M169.3 271.9L169.3 271.9L169.3 254.1L167.4 254.1Q166.0 254.1 165.2 253.4Q164.5 252.6 164.5 251.3L164.5 251.3Q164.5 250.0 165.2 249.3Q166.0 248.5 167.4 248.5L167.4 248.5L169.3 248.5L169.3 244.4Q169.3 242.6 170.3 241.6Q171.3 240.6 173.0 240.6L173.0 240.6Q174.7 240.6 175.7 241.6Q176.6 242.6 176.6 244.4L176.6 244.4L176.6 248.5L180.0 248.5Q181.4 248.5 182.2 249.3Q182.9 250.0 182.9 251.3L182.9 251.3Q182.9 252.6 182.1 253.4Q181.4 254.1 180.0 254.1L180.0 254.1L176.6 254.1L176.6 270.3Q176.6 272.1 177.3 272.9Q178.0 273.7 179.6 273.9L179.6 273.9L180.1 273.9Q183.0 274.2 183.0 276.6L183.0 276.6Q183.0 278.2 181.7 279.1Q180.3 279.9 177.8 279.9L177.8 279.9L177.5 279.9Q169.3 279.9 169.3 271.9ZM212.1 275.9Q208.1 280.2 201.2 280.2Q194.3 280.2 190.2 275.9Q186.2 271.6 186.2 264.1L186.2 264.1Q186.2 256.6 190.3 252.2Q194.4 247.9 201.2 247.9L201.2 247.9Q208.0 247.9 212.1 252.2Q216.2 256.6 216.2 264.1L216.2 264.1Q216.2 271.6 212.1 275.9ZM195.6 271.7Q197.7 274.4 201.2 274.4Q204.7 274.4 206.8 271.7Q208.8 269.0 208.8 264.1L208.8 264.1Q208.8 259.2 206.8 256.4Q204.7 253.7 201.2 253.7L201.2 253.7Q197.7 253.7 195.6 256.4Q193.6 259.2 193.6 264.1L193.6 264.1Q193.6 269.0 195.6 271.7Z M234.9 271.9L234.9 271.9L234.9 254.1L233.0 254.1Q231.6 254.1 230.8 253.4Q230.0 252.6 230.0 251.3L230.0 251.3Q230.0 250.0 230.8 249.3Q231.6 248.5 233.0 248.5L233.0 248.5L234.9 248.5L234.9 244.4Q234.9 242.6 235.9 241.6Q236.9 240.6 238.6 240.6L238.6 240.6Q240.3 240.6 241.3 241.6Q242.2 242.6 242.2 244.4L242.2 244.4L242.2 248.5L245.6 248.5Q247.0 248.5 247.8 249.3Q248.5 250.0 248.5 251.3L248.5 251.3Q248.5 252.6 247.7 253.4Q247.0 254.1 245.6 254.1L245.6 254.1L242.2 254.1L242.2 270.3Q242.2 272.1 242.9 272.9Q243.6 273.7 245.2 273.9L245.2 273.9L245.7 273.9Q248.6 274.2 248.6 276.6L248.6 276.6Q248.6 278.2 247.3 279.1Q245.9 279.9 243.4 279.9L243.4 279.9L243.1 279.9Q234.9 279.9 234.9 271.9ZM259.6 279.2Q258.6 280.2 256.9 280.2Q255.3 280.2 254.3 279.2Q253.3 278.1 253.3 276.3L253.3 276.3L253.3 240.5Q253.3 238.7 254.2 237.7Q255.2 236.7 256.9 236.7L256.9 236.7Q258.6 236.7 259.5 237.7Q260.5 238.7 260.5 240.5L260.5 240.5L260.5 253.9L260.6 253.9Q261.9 251.0 264.4 249.5Q266.9 247.9 270.4 247.9L270.4 247.9Q275.5 247.9 278.4 251.1Q281.3 254.2 281.3 259.6L281.3 259.6L281.3 276.3Q281.3 278.1 280.3 279.2Q279.3 280.2 277.6 280.2Q276.0 280.2 275.0 279.2Q274.0 278.1 274.0 276.3L274.0 276.3L274.0 261.1Q274.0 257.8 272.4 255.9Q270.7 254.1 267.6 254.1L267.6 254.1Q264.3 254.1 262.4 256.2Q260.5 258.3 260.5 261.7L260.5 261.7L260.5 276.3Q260.5 278.1 259.6 279.2ZM300.9 280.2L300.9 280.2Q293.8 280.2 289.8 276.0Q285.8 271.7 285.8 264.2L285.8 264.2Q285.8 256.7 289.8 252.3Q293.8 247.9 300.5 247.9L300.5 247.9Q306.9 247.9 310.8 251.9Q314.8 256.0 314.8 262.4L314.8 262.4Q314.8 264.0 313.9 264.9Q313.0 265.8 311.4 265.8L311.4 265.8L293.1 265.8L293.1 266.0Q293.1 269.9 295.2 272.3Q297.3 274.6 300.9 274.6L300.9 274.6Q303.3 274.6 305.1 273.6Q306.9 272.7 308.6 270.4L308.6 270.4Q309.7 269.3 311.1 269.3L311.1 269.3Q312.3 269.3 313.2 270.0Q314.0 270.8 314.0 272.1L314.0 272.1Q314.0 272.9 313.5 273.9L313.5 273.9Q312.0 276.9 308.7 278.5Q305.3 280.2 300.9 280.2ZM293.2 261.0L293.2 261.0L307.7 261.0Q307.5 257.6 305.6 255.6Q303.6 253.5 300.5 253.5Q297.5 253.5 295.4 255.6Q293.4 257.7 293.2 261.0Z M350.0 279.6L336.0 279.6Q334.3 279.6 333.2 278.5Q332.2 277.5 332.2 275.7L332.2 275.7L332.2 241.2Q332.2 239.4 333.2 238.3Q334.3 237.3 336.0 237.3L336.0 237.3L349.8 237.3Q355.6 237.3 359.0 240.2Q362.4 243.0 362.4 247.8L362.4 247.8Q362.4 251.2 360.2 253.9Q358.0 256.5 354.7 257.0L354.7 257.0L354.7 257.3Q359.0 257.7 361.8 260.5Q364.5 263.4 364.5 267.6L364.5 267.6Q364.5 273.2 360.6 276.4Q356.7 279.6 350.0 279.6L350.0 279.6ZM339.8 243.2L339.8 255.1L346.7 255.1Q350.7 255.1 352.8 253.5Q354.9 251.9 354.9 249.0L354.9 249.0Q354.9 246.2 353.1 244.7Q351.3 243.2 347.9 243.2L347.9 243.2L339.8 243.2ZM339.8 260.5L339.8 273.7L348.2 273.7Q352.4 273.7 354.6 272.0Q356.8 270.3 356.8 267.0L356.8 267.0Q356.8 263.8 354.5 262.1Q352.3 260.5 347.9 260.5L347.9 260.5L339.8 260.5ZM393.8 275.9Q389.7 280.2 382.9 280.2Q376.0 280.2 371.9 275.9Q367.8 271.6 367.8 264.1L367.8 264.1Q367.8 256.6 371.9 252.2Q376.0 247.9 382.9 247.9L382.9 247.9Q389.7 247.9 393.8 252.2Q397.9 256.6 397.9 264.1L397.9 264.1Q397.9 271.6 393.8 275.9ZM377.3 271.7Q379.3 274.4 382.9 274.4Q386.4 274.4 388.4 271.7Q390.5 269.0 390.5 264.1L390.5 264.1Q390.5 259.2 388.4 256.4Q386.4 253.7 382.9 253.7L382.9 253.7Q379.4 253.7 377.3 256.4Q375.2 259.2 375.2 264.1L375.2 264.1Q375.2 269.0 377.3 271.7ZM414.6 280.2L414.6 280.2Q409.7 280.2 406.4 278.5Q403.0 276.8 401.9 274.0L401.9 274.0Q401.6 273.2 401.6 272.5L401.6 272.5Q401.6 271.2 402.5 270.4Q403.3 269.6 404.7 269.6L404.7 269.6Q406.5 269.6 407.8 271.4L407.8 271.4Q409.1 273.3 410.7 274.1Q412.3 274.9 414.8 274.9L414.8 274.9Q417.4 274.9 418.9 273.9Q420.5 272.8 420.5 271.1L420.5 271.1Q420.5 269.7 419.5 268.8Q418.5 268.0 416.1 267.4L416.1 267.4L411.1 266.3Q402.0 264.3 402.0 257.4L402.0 257.4Q402.0 253.1 405.5 250.5Q408.9 247.9 414.7 247.9L414.7 247.9Q419.1 247.9 422.3 249.8Q425.5 251.6 426.3 254.4L426.3 254.4Q426.4 255.0 426.4 255.5L426.4 255.5Q426.4 256.6 425.7 257.4Q424.9 258.1 423.6 258.1L423.6 258.1Q421.7 258.1 420.8 256.7L420.8 256.7Q419.7 255.0 418.2 254.1Q416.7 253.2 414.5 253.2L414.5 253.2Q412.1 253.2 410.6 254.3Q409.1 255.3 409.1 257.0L409.1 257.0Q409.1 259.8 413.7 260.8L413.7 260.8L418.6 261.9Q423.6 263.0 425.7 264.9Q427.8 266.9 427.8 270.3L427.8 270.3Q427.8 274.8 424.2 277.5Q420.5 280.2 414.6 280.2ZM444.4 280.2L444.4 280.2Q439.6 280.2 436.2 278.5Q432.9 276.8 431.7 274.0L431.7 274.0Q431.4 273.2 431.4 272.5L431.4 272.5Q431.4 271.2 432.3 270.4Q433.1 269.6 434.5 269.6L434.5 269.6Q436.3 269.6 437.6 271.4L437.6 271.4Q438.9 273.3 440.5 274.1Q442.1 274.9 444.6 274.9L444.6 274.9Q447.2 274.9 448.8 273.9Q450.3 272.8 450.3 271.1L450.3 271.1Q450.3 269.7 449.3 268.8Q448.3 268.0 445.9 267.4L445.9 267.4L440.9 266.3Q431.8 264.3 431.8 257.4L431.8 257.4Q431.8 253.1 435.3 250.5Q438.8 247.9 444.5 247.9L444.5 247.9Q448.9 247.9 452.1 249.8Q455.3 251.6 456.1 254.4L456.1 254.4Q456.2 255.0 456.2 255.5L456.2 255.5Q456.2 256.6 455.5 257.4Q454.8 258.1 453.4 258.1L453.4 258.1Q451.6 258.1 450.6 256.7L450.6 256.7Q449.5 255.0 448.0 254.1Q446.5 253.2 444.3 253.2L444.3 253.2Q441.9 253.2 440.4 254.3Q438.9 255.3 438.9 257.0L438.9 257.0Q438.9 259.8 443.5 260.8L443.5 260.8L448.5 261.9Q453.4 263.0 455.5 264.9Q457.6 266.9 457.6 270.3L457.6 270.3Q457.6 274.8 454.0 277.5Q450.3 280.2 444.4 280.2Z M487.4 280.1L487.4 280.1Q485.6 280.1 484.6 279.2Q483.6 278.3 483.0 276.3L483.0 276.3L473.6 242.6Q473.2 241.3 473.2 240.2L473.2 240.2Q473.2 238.7 474.3 237.7Q475.3 236.8 477.0 236.8L477.0 236.8Q479.9 236.8 480.6 240.0L480.6 240.0L487.7 269.3L487.9 269.3L495.7 240.4Q496.2 238.5 497.1 237.7Q498.1 236.8 499.8 236.8L499.8 236.8Q502.9 236.8 503.8 240.3L503.8 240.3L511.6 269.3L511.8 269.3L518.9 240.0Q519.6 236.8 522.5 236.8L522.5 236.8Q524.2 236.8 525.3 237.7Q526.3 238.7 526.3 240.2L526.3 240.2Q526.3 241.2 525.9 242.6L525.9 242.6L516.5 276.3Q516.0 278.3 514.9 279.2Q513.9 280.1 512.2 280.1L512.2 280.1Q510.4 280.1 509.3 279.2Q508.3 278.3 507.7 276.3L507.7 276.3L499.9 249.0L499.6 249.0L491.8 276.3Q491.3 278.3 490.2 279.2Q489.2 280.1 487.4 280.1ZM537.8 279.2Q536.8 280.2 535.1 280.2Q533.5 280.2 532.5 279.2Q531.5 278.1 531.5 276.3L531.5 276.3L531.5 240.5Q531.5 238.7 532.4 237.7Q533.4 236.7 535.1 236.7L535.1 236.7Q536.8 236.7 537.7 237.7Q538.7 238.7 538.7 240.5L538.7 240.5L538.7 253.9L538.8 253.9Q540.1 251.0 542.6 249.5Q545.1 247.9 548.6 247.9L548.6 247.9Q553.7 247.9 556.6 251.1Q559.5 254.2 559.5 259.6L559.5 259.6L559.5 276.3Q559.5 278.1 558.5 279.2Q557.5 280.2 555.8 280.2Q554.2 280.2 553.2 279.2Q552.2 278.1 552.2 276.3L552.2 276.3L552.2 261.1Q552.2 257.8 550.6 255.9Q548.9 254.1 545.8 254.1L545.8 254.1Q542.5 254.1 540.6 256.2Q538.8 258.3 538.8 261.7L538.8 261.7L538.8 276.3Q538.8 278.1 537.8 279.2ZM579.1 280.2L579.1 280.2Q572.0 280.2 568.0 276.0Q564.0 271.7 564.0 264.2L564.0 264.2Q564.0 256.7 568.0 252.3Q572.0 247.9 578.7 247.9L578.7 247.9Q585.1 247.9 589.0 251.9Q593.0 256.0 593.0 262.4L593.0 262.4Q593.0 264.0 592.1 264.9Q591.2 265.8 589.6 265.8L589.6 265.8L571.3 265.8L571.3 266.0Q571.3 269.9 573.4 272.3Q575.5 274.6 579.1 274.6L579.1 274.6Q581.5 274.6 583.3 273.6Q585.1 272.7 586.8 270.4L586.8 270.4Q587.9 269.3 589.3 269.3L589.3 269.3Q590.5 269.3 591.4 270.0Q592.2 270.8 592.2 272.1L592.2 272.1Q592.2 272.9 591.7 273.9L591.7 273.9Q590.2 276.9 586.9 278.5Q583.5 280.2 579.1 280.2ZM571.4 261.0L571.4 261.0L585.9 261.0Q585.7 257.6 583.8 255.6Q581.8 253.5 578.7 253.5Q575.7 253.5 573.6 255.6Q571.6 257.7 571.4 261.0ZM604.0 279.2Q603.0 280.2 601.3 280.2Q599.7 280.2 598.7 279.2Q597.7 278.1 597.7 276.3L597.7 276.3L597.7 251.6Q597.7 249.9 598.6 248.9Q599.6 247.9 601.2 247.9Q602.8 247.9 603.8 248.9Q604.8 249.9 604.8 251.6L604.8 251.6L604.8 253.8L604.9 253.8Q607.6 247.9 614.6 247.9L614.6 247.9Q619.7 247.9 622.5 251.0Q625.4 254.1 625.4 259.5L625.4 259.5L625.4 276.3Q625.4 278.1 624.4 279.2Q623.4 280.2 621.7 280.2Q620.1 280.2 619.1 279.2Q618.1 278.1 618.1 276.3L618.1 276.3L618.1 261.0Q618.1 257.6 616.5 255.9Q614.9 254.1 611.8 254.1L611.8 254.1Q608.7 254.1 606.9 256.2Q605.0 258.2 605.0 261.6L605.0 261.6L605.0 276.3Q605.0 278.1 604.0 279.2Z M647.7 280.1L647.7 280.1Q645.9 280.1 644.9 279.0Q643.9 278.0 643.9 276.2L643.9 276.2L643.9 240.7Q643.9 238.9 644.9 237.8Q645.9 236.8 647.7 236.8L647.7 236.8Q649.5 236.8 650.5 237.8Q651.5 238.9 651.5 240.7L651.5 240.7L651.5 254.9L672.1 254.9L672.1 240.7Q672.1 238.9 673.0 237.8Q674.0 236.8 675.8 236.8L675.8 236.8Q677.6 236.8 678.6 237.8Q679.6 238.9 679.6 240.7L679.6 240.7L679.6 276.2Q679.6 278.0 678.6 279.1Q677.6 280.1 675.8 280.1L675.8 280.1Q674.0 280.1 673.0 279.1Q672.1 278.0 672.1 276.2L672.1 276.2L672.1 261.2L651.5 261.2L651.5 276.2Q651.5 278.0 650.5 279.1Q649.5 280.1 647.7 280.1ZM693.6 279.1Q692.6 280.2 690.8 280.2Q689.0 280.2 688.0 279.1Q687.0 278.1 687.0 276.2L687.0 276.2L687.0 241.2Q687.0 239.4 688.0 238.3Q689.0 237.3 690.8 237.3L690.8 237.3L703.8 237.3Q710.6 237.3 714.5 240.8Q718.4 244.4 718.4 250.5L718.4 250.5Q718.4 254.6 716.4 257.8Q714.4 261.0 710.7 262.4L710.7 262.4L717.4 274.1Q718.2 275.5 718.2 276.7L718.2 276.7Q718.2 278.2 717.1 279.2Q716.1 280.2 714.4 280.2L714.4 280.2Q713.1 280.2 712.3 279.6Q711.5 279.0 710.6 277.4L710.6 277.4L703.0 263.7L694.6 263.7L694.6 276.2Q694.6 278.1 693.6 279.1ZM694.6 243.4L694.6 257.9L703.1 257.9Q706.7 257.9 708.7 256.0Q710.7 254.1 710.7 250.6L710.7 250.6Q710.7 247.3 708.6 245.4Q706.5 243.4 703.0 243.4L703.0 243.4L694.6 243.4Z M740.3 280.1L740.3 280.1Q738.6 280.1 737.5 279.0Q736.5 278.0 736.5 276.2L736.5 276.2L736.5 240.7Q736.5 238.9 737.5 237.8Q738.6 236.8 740.3 236.8L740.3 236.8Q742.1 236.8 743.1 237.8Q744.1 238.9 744.1 240.7L744.1 240.7L744.1 276.2Q744.1 278.0 743.1 279.1Q742.1 280.1 740.3 280.1ZM762.8 280.2L762.8 280.2Q757.9 280.2 754.6 278.5Q751.3 276.8 750.1 274.0L750.1 274.0Q749.8 273.2 749.8 272.5L749.8 272.5Q749.8 271.2 750.7 270.4Q751.5 269.6 752.9 269.6L752.9 269.6Q754.7 269.6 756.0 271.4L756.0 271.4Q757.3 273.3 758.9 274.1Q760.5 274.9 763.0 274.9L763.0 274.9Q765.6 274.9 767.2 273.9Q768.7 272.8 768.7 271.1L768.7 271.1Q768.7 269.7 767.7 268.8Q766.7 268.0 764.3 267.4L764.3 267.4L759.3 266.3Q750.2 264.3 750.2 257.4L750.2 257.4Q750.2 253.1 753.7 250.5Q757.2 247.9 762.9 247.9L762.9 247.9Q767.3 247.9 770.5 249.8Q773.7 251.6 774.5 254.4L774.5 254.4Q774.6 255.0 774.6 255.5L774.6 255.5Q774.6 256.6 773.9 257.4Q773.2 258.1 771.8 258.1L771.8 258.1Q770.0 258.1 769.0 256.7L769.0 256.7Q767.9 255.0 766.4 254.1Q764.9 253.2 762.7 253.2L762.7 253.2Q760.3 253.2 758.8 254.3Q757.3 255.3 757.3 257.0L757.3 257.0Q757.3 259.8 761.9 260.8L761.9 260.8L766.9 261.9Q771.8 263.0 773.9 264.9Q776.0 266.9 776.0 270.3L776.0 270.3Q776.0 274.8 772.4 277.5Q768.7 280.2 762.8 280.2Z M804.1 280.3L804.1 280.3Q799.6 280.3 796.3 278.3Q792.9 276.2 791.5 272.7L791.5 272.7Q790.9 270.9 790.9 269.4L790.9 269.4Q790.9 267.7 791.8 266.8Q792.8 265.8 794.4 265.8L794.4 265.8Q795.8 265.8 796.7 266.5Q797.6 267.2 798.0 268.9L798.0 268.9Q798.7 271.2 800.2 272.4Q801.8 273.7 804.0 273.7L804.0 273.7Q807.1 273.7 808.7 271.9Q810.3 270.1 810.3 266.6L810.3 266.6L810.3 240.7Q810.3 238.9 811.3 237.8Q812.3 236.8 814.1 236.8L814.1 236.8Q815.8 236.8 816.8 237.8Q817.8 238.9 817.8 240.7L817.8 240.7L817.8 266.7Q817.8 273.1 814.2 276.7Q810.6 280.3 804.1 280.3ZM835.6 280.1L835.6 280.1Q830.5 280.1 827.6 277.0Q824.6 274.0 824.6 268.6L824.6 268.6L824.6 251.7Q824.6 250.0 825.6 248.9Q826.6 247.9 828.2 247.9Q829.9 247.9 830.9 248.9Q831.9 250.0 831.9 251.8L831.9 251.8L831.9 267.1Q831.9 270.5 833.5 272.2Q835.1 274.0 838.2 274.0L838.2 274.0Q841.3 274.0 843.1 271.9Q845.0 269.9 845.0 266.5L845.0 266.5L845.0 251.7Q845.0 250.0 846.0 248.9Q847.0 247.9 848.7 247.9L848.7 247.9Q850.3 247.9 851.3 248.9Q852.3 250.0 852.3 251.8L852.3 251.8L852.3 276.5Q852.3 278.2 851.3 279.2Q850.4 280.2 848.8 280.2L848.8 280.2Q847.2 280.2 846.2 279.2Q845.3 278.2 845.3 276.5L845.3 276.5L845.3 274.2L845.1 274.2Q842.5 280.1 835.6 280.1ZM870.2 280.2L870.2 280.2Q865.4 280.2 862.0 278.5Q858.7 276.8 857.6 274.0L857.6 274.0Q857.3 273.2 857.3 272.5L857.3 272.5Q857.3 271.2 858.1 270.4Q859.0 269.6 860.3 269.6L860.3 269.6Q862.1 269.6 863.5 271.4L863.5 271.4Q864.7 273.3 866.3 274.1Q867.9 274.9 870.5 274.9L870.5 274.9Q873.1 274.9 874.6 273.9Q876.1 272.8 876.1 271.1L876.1 271.1Q876.1 269.7 875.1 268.8Q874.1 268.0 871.8 267.4L871.8 267.4L866.7 266.3Q857.7 264.3 857.7 257.4L857.7 257.4Q857.7 253.1 861.1 250.5Q864.6 247.9 870.3 247.9L870.3 247.9Q874.7 247.9 877.9 249.8Q881.2 251.6 881.9 254.4L881.9 254.4Q882.1 255.0 882.1 255.5L882.1 255.5Q882.1 256.6 881.3 257.4Q880.6 258.1 879.2 258.1L879.2 258.1Q877.4 258.1 876.5 256.7L876.5 256.7Q875.3 255.0 873.8 254.1Q872.4 253.2 870.2 253.2L870.2 253.2Q867.8 253.2 866.3 254.3Q864.8 255.3 864.8 257.0L864.8 257.0Q864.8 259.8 869.3 260.8L869.3 260.8L874.3 261.9Q879.2 263.0 881.3 264.9Q883.5 266.9 883.5 270.3L883.5 270.3Q883.5 274.8 879.8 277.5Q876.2 280.2 870.2 280.2ZM890.1 271.9L890.1 271.9L890.1 254.1L888.1 254.1Q886.8 254.1 886.0 253.4Q885.2 252.6 885.2 251.3L885.2 251.3Q885.2 250.0 886.0 249.3Q886.7 248.5 888.1 248.5L888.1 248.5L890.1 248.5L890.1 244.4Q890.1 242.6 891.1 241.6Q892.0 240.6 893.7 240.6L893.7 240.6Q895.4 240.6 896.4 241.6Q897.4 242.6 897.4 244.4L897.4 244.4L897.4 248.5L900.7 248.5Q902.1 248.5 902.9 249.3Q903.7 250.0 903.7 251.3L903.7 251.3Q903.7 252.6 902.9 253.4Q902.1 254.1 900.7 254.1L900.7 254.1L897.4 254.1L897.4 270.3Q897.4 272.1 898.0 272.9Q898.7 273.7 900.3 273.9L900.3 273.9L900.8 273.9Q903.8 274.2 903.8 276.6L903.8 276.6Q903.8 278.2 902.4 279.1Q901.1 279.9 898.5 279.9L898.5 279.9L898.3 279.9Q890.1 279.9 890.1 271.9Z M929.3 280.1L929.3 280.1Q924.8 280.1 921.9 277.5Q918.9 274.9 918.9 270.7L918.9 270.7Q918.9 266.6 922.0 264.2Q925.1 261.8 930.7 261.4L930.7 261.4L939.0 260.9L939.0 258.7Q939.0 256.3 937.4 254.9Q935.9 253.6 933.2 253.6L933.2 253.6Q931.0 253.6 929.5 254.4Q928.0 255.2 926.7 257.2L926.7 257.2Q925.6 258.7 923.7 258.7L923.7 258.7Q922.4 258.7 921.5 257.9Q920.6 257.1 920.6 255.8L920.6 255.8Q920.6 254.8 921.1 253.8L921.1 253.8Q922.3 251.1 925.7 249.5Q929.0 247.9 933.5 247.9L933.5 247.9Q939.2 247.9 942.7 250.7Q946.2 253.5 946.2 258.2L946.2 258.2L946.2 276.5Q946.2 278.2 945.2 279.2Q944.2 280.2 942.6 280.2L942.6 280.2Q941.1 280.2 940.2 279.3Q939.2 278.4 939.2 276.8L939.2 276.8L939.2 274.6L939.0 274.6Q937.7 277.1 935.0 278.6Q932.4 280.1 929.3 280.1ZM931.5 274.6L931.5 274.6Q934.6 274.6 936.8 272.7Q939.0 270.8 939.0 268.1L939.0 268.1L939.0 265.7L931.8 266.1Q929.1 266.3 927.7 267.4Q926.2 268.6 926.2 270.4L926.2 270.4Q926.2 272.3 927.7 273.4Q929.1 274.6 931.5 274.6Z M979.7 280.3L979.7 280.3Q973.5 280.3 969.4 278.0Q965.2 275.7 964.0 272.0L964.0 272.0Q963.6 270.9 963.6 269.8L963.6 269.8Q963.6 268.2 964.5 267.3Q965.4 266.3 966.9 266.3L966.9 266.3Q968.2 266.3 969.0 266.9Q969.8 267.4 970.4 268.7L970.4 268.7Q971.4 271.4 973.9 272.7Q976.4 274.0 979.9 274.0L979.9 274.0Q983.7 274.0 986.1 272.3Q988.6 270.6 988.6 268.0L988.6 268.0Q988.6 265.7 986.8 264.2Q985.0 262.8 981.0 261.9L981.0 261.9L976.4 261.0Q964.0 258.4 964.0 249.1L964.0 249.1Q964.0 243.5 968.4 240.1Q972.8 236.6 979.7 236.6L979.7 236.6Q985.3 236.6 989.4 239.0Q993.4 241.4 994.7 245.5L994.7 245.5Q995.0 246.2 995.0 247.3L995.0 247.3Q995.0 248.6 994.1 249.5Q993.1 250.4 991.7 250.4L991.7 250.4Q989.2 250.4 988.0 248.0L988.0 248.0Q986.0 242.9 979.6 242.9L979.6 242.9Q976.1 242.9 973.9 244.4Q971.6 246.0 971.6 248.6L971.6 248.6Q971.6 250.8 973.4 252.2Q975.1 253.7 979.0 254.5L979.0 254.5L983.5 255.4Q990.2 256.8 993.2 259.6Q996.2 262.4 996.2 267.1L996.2 267.1Q996.2 273.2 991.7 276.7Q987.3 280.3 979.7 280.3ZM1007.6 279.2Q1006.6 280.2 1005.0 280.2Q1003.3 280.2 1002.3 279.2Q1001.3 278.1 1001.3 276.3L1001.3 276.3L1001.3 240.5Q1001.3 238.7 1002.3 237.7Q1003.3 236.7 1004.9 236.7L1004.9 236.7Q1006.6 236.7 1007.6 237.7Q1008.5 238.7 1008.5 240.5L1008.5 240.5L1008.5 253.9L1008.7 253.9Q1009.9 251.0 1012.5 249.5Q1015.0 247.9 1018.5 247.9L1018.5 247.9Q1023.6 247.9 1026.5 251.1Q1029.4 254.2 1029.4 259.6L1029.4 259.6L1029.4 276.3Q1029.4 278.1 1028.3 279.2Q1027.3 280.2 1025.7 280.2Q1024.1 280.2 1023.1 279.2Q1022.1 278.1 1022.1 276.3L1022.1 276.3L1022.1 261.1Q1022.1 257.8 1020.4 255.9Q1018.8 254.1 1015.7 254.1L1015.7 254.1Q1012.4 254.1 1010.5 256.2Q1008.6 258.3 1008.6 261.7L1008.6 261.7L1008.6 276.3Q1008.6 278.1 1007.6 279.2ZM1049.0 280.2L1049.0 280.2Q1041.9 280.2 1037.9 276.0Q1033.9 271.7 1033.9 264.2L1033.9 264.2Q1033.9 256.7 1037.9 252.3Q1041.9 247.9 1048.6 247.9L1048.6 247.9Q1054.9 247.9 1058.9 251.9Q1062.9 256.0 1062.9 262.4L1062.9 262.4Q1062.9 264.0 1062.0 264.9Q1061.1 265.8 1059.5 265.8L1059.5 265.8L1041.2 265.8L1041.2 266.0Q1041.2 269.9 1043.3 272.3Q1045.4 274.6 1048.9 274.6L1048.9 274.6Q1051.4 274.6 1053.2 273.6Q1054.9 272.7 1056.7 270.4L1056.7 270.4Q1057.7 269.3 1059.2 269.3L1059.2 269.3Q1060.4 269.3 1061.2 270.0Q1062.1 270.8 1062.1 272.1L1062.1 272.1Q1062.1 272.9 1061.6 273.9L1061.6 273.9Q1060.0 276.9 1056.7 278.5Q1053.4 280.2 1049.0 280.2ZM1041.2 261.0L1041.2 261.0L1055.7 261.0Q1055.6 257.6 1053.6 255.6Q1051.7 253.5 1048.6 253.5Q1045.5 253.5 1043.5 255.6Q1041.4 257.7 1041.2 261.0ZM1074.1 279.2Q1073.1 280.2 1071.4 280.2Q1069.8 280.2 1068.8 279.2Q1067.8 278.1 1067.8 276.3L1067.8 276.3L1067.8 240.6Q1067.8 238.7 1068.8 237.7Q1069.8 236.7 1071.4 236.7Q1073.1 236.7 1074.1 237.7Q1075.1 238.7 1075.1 240.6L1075.1 240.6L1075.1 276.3Q1075.1 278.1 1074.1 279.2ZM1087.8 279.2Q1086.8 280.2 1085.1 280.2Q1083.5 280.2 1082.5 279.2Q1081.5 278.1 1081.5 276.3L1081.5 276.3L1081.5 240.6Q1081.5 238.7 1082.5 237.7Q1083.5 236.7 1085.1 236.7Q1086.8 236.7 1087.8 237.7Q1088.8 238.7 1088.8 240.6L1088.8 240.6L1088.8 276.3Q1088.8 278.1 1087.8 279.2Z "/><defs><clipPath id="satori_bc-id-0-1"><rect x="0" y="441" width="1200" height="189"/></clipPath></defs><mask id="satori_om-id-0-1"><rect x="0" y="442" width="1200" height="188" fill="#fff"/><path width="1200" height="189" fill="none" stroke="#000" stroke-width="2" d="M0,441 A0,0 0 0 1 0,441 h1200 A0,0 0 0 1 1200,441"/></mask><path width="1200" height="189" clip-path="url(#satori_bc-id-0-1)" fill="none" stroke="#dbdbdb" stroke-width="2" d="M0,441 A0,0 0 0 1 0,441 h1200 A0,0 0 0 1 1200,441"/><mask id="satori_om-id-0-1-0"><rect x="40" y="482" width="292" height="108" fill="#fff"/></mask><clipPath id="satori_cp-id-0-1-0-0"><rect x="40" y="504" width="64" height="64"/></clipPath><mask id="satori_om-id-0-1-0-0"><rect x="40" y="504" width="64" height="64" fill="#fff"/></mask><image x="40" y="504" width="64" height="64" href="data:image/svg+xml;utf8,%3Csvg  xmlns=%22http://www.w3.org/2000/svg%22 width=%2264%22 height=%2264%22 viewBox=%220 0 128 128%22%3E%3Cpath fill=%22%23224d67%22 d=%22M22.5 14.8c2.9 1.3 99 44 99 44c2.7 1.2 2.9 3.1 2 12.4c-1 10.5-1.9 37.8-40.2 42.9c-24.6 3.2-55.9-4.3-70.9-27.2C-6 58.8 11 23.4 14.8 17.7c2.4-3.5 4.8-4.2 7.7-2.9%22%3E%3C/path%3E%3Cpath fill=%22%23f0f4c3%22 d=%22M121.5 58.8c-.3-.2-92-40.8-98.9-43.9C9.6 31.5-3.8 76 27.9 96.2c33.6 21.5 78.7-10.2 93.6-37.4%22%3E%3C/path%3E%3Cpath fill=%22%23f0f4c3%22 d=%22M117.7 57c-.3-.2-86.7-38.4-93.2-41.3c-12.2 15.5-23.9 59.1 5.7 78c31.4 20.2 73.6-11.2 87.5-36.7%22%3E%3C/path%3E%3Cpath fill=%22%23cb2a42%22 d=%22M56.2 37.6L19.5 48.2c-2.5.8-4.4 2.8-5 5.3c-1.9 8.5.8 23.3 8.9 29.8c3.5 2.7 8.6 1.8 10.8-2.1L58.5 41c1.3-1.7.5-4.2-2.3-3.4m14.3 2.9s14.6 30.1 16 33s6.3 4.7 9.9 2.8c10.7-5.6 15.5-12.4 19.2-20.2c-8.9-3.9-42.4-18.8-42.4-18.8c-2.4-1.1-4 .6-2.7 3.2m-8.6 1.9C60.3 45.1 39.5 81 37.6 84.1c-1.9 3.2-.7 7.5 2.7 9.2c12.3 6.5 30.9.4 39.6-7c2.2-1.9 4.5-5.1 3.2-8.2S68.9 44.6 67.8 42.3c-1.2-2.7-4.1-2.8-5.9.1%22%3E%3C/path%3E%3Cpath fill=%22%23f0f4c3%22 d=%22M52.2 42.2c-1.4.4-10.1 3-11.1 3.4c-1.4.5-2.2 1.7-1.9 2.5c.3.9 1.7 1.1 3.1.6c.8-.3 7.1-3.9 9.5-5.2c-3.1 2.4-10.2 9.4-11.1 10.3c-1.4 1.5-1.7 3.4-.8 4.3c1 .9 2.9.5 4.3-1c1.2-1.3 8.5-12.8 9.1-13.9s.4-1.4-1.1-1m10.1 16.4c0-2.2 1.4-10.3 1.8-12.3c.4-1.6 1.5-1.8 1.8.5s1.7 9.7 1.7 11.8s-1.2 3.3-2.7 3.3c-1.4 0-2.6-1.1-2.6-3.3M79.9 49c-1.2-1.8-3.3-4.9-4.1-6.1c-.7-1.2.1-2.1 1.8-.9s4 2.9 5.4 4c1.6 1.3 1.9 3 .8 4s-2.7.8-3.9-1%22%3E%3C/path%3E%3Cellipse cx=%2287.3%22 cy=%22103.12%22 fill=%22%23cb2a42%22 rx=%223.4%22 ry=%222.3%22 transform=%22rotate(-27.098 87.298 103.126)%22%3E%3C/ellipse%3E%3Cellipse cx=%2298.89%22 cy=%22103.82%22 fill=%22%23cb2a42%22 rx=%223.4%22 ry=%222.3%22 transform=%22rotate(-30.642 98.887 103.818)%22%3E%3C/ellipse%3E%3Cellipse cx=%22102.02%22 cy=%2293.8%22 fill=%22%23cb2a42%22 rx=%223.4%22 ry=%222.3%22 transform=%22rotate(-37.16 102.017 93.797)%22%3E%3C/ellipse%3E%3Cpath fill=%22%23cb2a42%22 d=%22M57.6 30.3c-8.3-3.7-24.4-10.7-29.6-13c-3.6 2.2-9.7 11.4-11.2 21.2c-.6 3.6 1.7 5.9 5.3 4.9c0 0 33.7-9.3 35.3-9.7c1.6-.5 2-2.6.2-3.4%22%3E%3C/path%3E%3C/svg%3E" preserveAspectRatio="none" clip-path="url(#satori_cp-id-0-1-0-0)" mask="url(#satori_om-id-0-1-0-0)"/><mask id="satori_om-id-0-1-0-0-0"><rect x="40" y="504" width="0" height="64" fill="#fff"/></mask><mask id="satori_om-id-0-1-0-0-1"><rect x="40" y="504" width="0" height="64" fill="#fff"/></mask><mask id="satori_om-id-0-1-0-0-2"><rect x="40" y="504" width="0" height="64" fill="#fff"/></mask><mask id="satori_om-id-0-1-0-0-3"><rect x="40" y="504" width="0" height="64" fill="#fff"/></mask><mask id="satori_om-id-0-1-0-0-4"><rect x="40" y="504" width="0" height="64" fill="#fff"/></mask><mask id="satori_om-id-0-1-0-0-5"><rect x="40" y="504" width="0" height="64" fill="#fff"/></mask><mask id="satori_om-id-0-1-0-0-6"><rect x="40" y="504" width="0" height="64" fill="#fff"/></mask><mask id="satori_om-id-0-1-0-0-7"><rect x="40" y="504" width="0" height="64" fill="#fff"/></mask><mask id="satori_om-id-0-1-0-0-8"><rect x="40" y="504" width="0" height="64" fill="#fff"/></mask><mask id="satori_om-id-0-1-0-1"><rect x="116" y="512" width="216" height="48" fill="#fff"/></mask><path fill="#545454" d="M121.1 553.5L121.1 553.5Q119.4 553.5 118.4 552.6Q117.5 551.7 117.5 550.2L117.5 550.2Q117.5 549.3 117.9 547.9L117.9 547.9L127.2 522.8Q127.9 520.7 129.2 519.7Q130.5 518.8 132.5 518.8L132.5 518.8Q134.6 518.8 135.9 519.7Q137.2 520.7 137.9 522.8L137.9 522.8L147.2 547.9Q147.6 549.2 147.6 550.2L147.6 550.2Q147.6 551.6 146.6 552.6Q145.6 553.5 144.1 553.5L144.1 553.5Q142.6 553.5 141.7 552.8Q140.9 552.1 140.4 550.4L140.4 550.4L138.6 545.0L126.4 545.0L124.6 550.3Q124.2 552.0 123.3 552.8Q122.5 553.5 121.1 553.5ZM132.4 525.7L128.0 539.6L137 539.6L132.5 525.7L132.4 525.7ZM159.1 552.6Q158.2 553.6 156.6 553.6Q155.0 553.6 154.1 552.6Q153.2 551.7 153.2 550.0L153.2 550.0L153.2 533.1L151.9 533.1Q150.8 533.1 150.1 532.4Q149.4 531.7 149.4 530.6Q149.4 529.4 150.1 528.7Q150.8 528.1 151.9 528.1L151.9 528.1L153.2 528.1L153.2 526.2Q153.2 522.5 155.0 520.7Q156.7 519.0 160.3 518.9L160.3 518.9Q163.0 518.9 164.2 519.7Q165.5 520.4 165.5 521.7L165.5 521.7Q165.5 523.1 164.1 523.5L164.1 523.5Q163.5 523.7 162.8 523.7L162.8 523.7Q161.2 523.7 160.5 524.4Q159.9 525.1 159.9 526.5L159.9 526.5L159.9 528.1L162.7 528.1Q163.8 528.1 164.5 528.7Q165.2 529.4 165.2 530.6Q165.2 531.7 164.5 532.4Q163.8 533.1 162.7 533.1L162.7 533.1L160.0 533.1L160.0 550.0Q160.0 551.7 159.1 552.6ZM170.3 546.6L170.3 546.6L170.3 533.1L168.9 533.1Q167.7 533.1 167.0 532.4Q166.3 531.7 166.3 530.5Q166.3 529.3 167.0 528.6Q167.7 527.9 168.9 527.9L168.9 527.9L170.3 527.9L170.3 525.1Q170.3 523.5 171.2 522.5Q172.1 521.6 173.7 521.6Q175.3 521.6 176.2 522.5Q177.1 523.5 177.1 525.1L177.1 525.1L177.1 527.9L179.5 527.9Q180.7 527.9 181.4 528.6Q182.1 529.3 182.1 530.5Q182.1 531.7 181.4 532.4Q180.7 533.1 179.5 533.1L179.5 533.1L177.1 533.1L177.1 545.1Q177.1 546.5 177.6 547.1Q178.1 547.7 179.2 547.8L179.2 547.8L179.6 547.8Q180.9 548.0 181.6 548.5Q182.2 549.1 182.2 550.3L182.2 550.3Q182.2 551.8 180.9 552.6Q179.6 553.3 177.4 553.3L177.4 553.3L177.1 553.3Q170.3 553.3 170.3 546.6ZM197.0 553.6L197.0 553.6Q191.2 553.6 187.9 550.2Q184.6 546.7 184.6 540.6L184.6 540.6Q184.6 534.5 187.9 531.0Q191.1 527.4 196.7 527.4L196.7 527.4Q202.0 527.4 205.3 530.7Q208.6 533.9 208.6 539.1L208.6 539.1Q208.6 540.5 207.9 541.3Q207.1 542.1 205.6 542.1L205.6 542.1L191.3 542.1L191.3 542.4Q191.3 545.2 192.9 546.9Q194.4 548.5 197.0 548.5L197.0 548.5Q198.9 548.5 200.3 547.8Q201.6 547.2 203.0 545.5L203.0 545.5Q204.0 544.5 205.3 544.5L205.3 544.5Q206.4 544.5 207.2 545.2Q207.9 545.9 207.9 547.0L207.9 547.0Q207.9 547.8 207.5 548.7L207.5 548.7Q206.2 551 203.4 552.3Q200.7 553.6 197.0 553.6ZM191.4 537.9L191.4 537.9L202.0 537.9Q201.9 535.4 200.5 533.9Q199.0 532.5 196.8 532.5Q194.5 532.5 193.1 534.0Q191.6 535.5 191.4 537.9ZM215.6 553.6L215.6 553.6Q214.0 553.6 213.1 552.6Q212.1 551.7 212.1 550.0L212.1 550.0L212.1 530.9Q212.1 529.3 213.0 528.3Q213.9 527.4 215.4 527.4L215.4 527.4Q216.9 527.4 217.8 528.3Q218.7 529.3 218.7 530.9L218.7 530.9L218.7 532.5L218.8 532.5Q219.3 530.2 220.7 528.9Q222.1 527.5 224.0 527.5L224.0 527.5Q225.4 527.5 226.2 528.2L226.2 528.2Q227.2 528.9 227.2 530.7L227.2 530.7Q227.2 532.3 226.2 533.2L226.2 533.2Q225.2 534.0 223.2 534.1L223.2 534.1Q221.0 534.1 220.0 535.3Q219.0 536.5 219.0 538.8L219.0 538.8L219.0 550.0Q219.0 551.7 218.1 552.6Q217.2 553.6 215.6 553.6ZM242.6 553.6L242.6 553.6Q237.5 553.6 234.1 551.8Q230.8 550.0 229.7 547.1L229.7 547.1Q229.4 546.1 229.4 545.2L229.4 545.2Q229.4 543.8 230.2 543.0Q231.1 542.1 232.5 542.1L232.5 542.1Q233.6 542.1 234.3 542.6Q235.1 543.1 235.7 544.2L235.7 544.2Q236.5 546.1 238.4 547.0Q240.2 547.9 242.7 547.9L242.7 547.9Q245.6 547.9 247.3 546.7Q249.1 545.5 249.1 543.6L249.1 543.6Q249.1 541.9 247.8 540.9Q246.4 539.9 243.3 539.3L243.3 539.3L239.7 538.6Q229.6 536.6 229.6 528.9L229.6 528.9Q229.6 525.9 231.3 523.5Q232.9 521.2 235.9 519.9Q238.8 518.7 242.5 518.7L242.5 518.7Q247.2 518.7 250.5 520.5Q253.8 522.4 254.9 525.7L254.9 525.7Q255.1 526.4 255.1 527.2L255.1 527.2Q255.1 528.5 254.3 529.3Q253.5 530.1 252.1 530.1L252.1 530.1Q250.9 530.1 250.1 529.6Q249.4 529.1 248.8 528.0L248.8 528.0Q247.2 524.4 242.5 524.4L242.5 524.4Q239.9 524.4 238.3 525.5Q236.7 526.6 236.7 528.5L236.7 528.5Q236.7 530.1 238.1 531.1Q239.4 532.1 242.4 532.7L242.4 532.7L245.9 533.4Q251.3 534.5 253.7 536.7Q256.2 539.0 256.2 542.8L256.2 542.8Q256.2 547.8 252.5 550.7Q248.9 553.6 242.6 553.6ZM266.0 552.6Q265.0 553.6 263.5 553.6Q261.9 553.6 261.0 552.6Q260.1 551.7 260.1 550.0L260.1 550.0L260.1 522.2Q260.1 520.6 261.0 519.7Q261.9 518.7 263.4 518.7L263.4 518.7Q265.0 518.7 265.9 519.7Q266.8 520.6 266.8 522.2L266.8 522.2L266.8 532.4L266.9 532.4Q267.9 530.0 270.0 528.7Q272 527.5 274.8 527.5L274.8 527.5Q279.0 527.5 281.3 530.0Q283.6 532.5 283.6 536.9L283.6 536.9L283.6 550.0Q283.6 551.7 282.7 552.6Q281.7 553.6 280.2 553.6Q278.6 553.6 277.7 552.6Q276.8 551.7 276.8 550.0L276.8 550.0L276.8 538.3Q276.8 535.9 275.6 534.5Q274.3 533.1 272.0 533.1L272.0 533.1Q269.7 533.1 268.3 534.7Q266.9 536.2 266.9 538.7L266.9 538.7L266.9 550.0Q266.9 551.7 266.0 552.6ZM294.1 523.8Q293.0 524.8 291.5 524.8Q290.0 524.8 288.9 523.8Q287.8 522.8 287.8 521.3L287.8 521.3Q287.8 519.8 288.9 518.8Q290.0 517.7 291.5 517.7Q293.0 517.7 294.1 518.8Q295.2 519.8 295.2 521.3L295.2 521.3Q295.2 522.8 294.1 523.8ZM294.0 552.6Q293.1 553.6 291.5 553.6Q289.9 553.6 289.0 552.6Q288.1 551.7 288.1 550.0L288.1 550.0L288.1 531.0Q288.1 529.3 289.0 528.4Q289.9 527.4 291.5 527.4Q293.1 527.4 294.0 528.4Q294.9 529.3 294.9 531.0L294.9 531.0L294.9 550.0Q294.9 551.7 294.0 552.6ZM307.2 552.6Q306.3 553.6 304.7 553.6Q303.1 553.6 302.2 552.6Q301.3 551.7 301.3 550.0L301.3 550.0L301.3 533.1L300.0 533.1Q298.9 533.1 298.2 532.4Q297.5 531.7 297.5 530.6Q297.5 529.4 298.2 528.7Q298.9 528.1 300.0 528.1L300.0 528.1L301.3 528.1L301.3 526.2Q301.3 522.5 303.1 520.7Q304.9 519.0 308.5 518.9L308.5 518.9Q311.1 518.9 312.4 519.7Q313.6 520.4 313.6 521.7L313.6 521.7Q313.6 523.1 312.2 523.5L312.2 523.5Q311.6 523.7 310.9 523.7L310.9 523.7Q309.4 523.7 308.7 524.4Q308.0 525.1 308.0 526.5L308.0 526.5L308.0 528.1L310.9 528.1Q312.0 528.1 312.7 528.7Q313.4 529.4 313.4 530.6Q313.4 531.7 312.7 532.4Q312.0 533.1 310.9 533.1L310.9 533.1L308.1 533.1L308.1 550.0Q308.1 551.7 307.2 552.6ZM318.4 546.6L318.4 546.6L318.4 533.1L317.1 533.1Q315.9 533.1 315.1 532.4Q314.4 531.7 314.4 530.5Q314.4 529.3 315.1 528.6Q315.9 527.9 317.1 527.9L317.1 527.9L318.4 527.9L318.4 525.1Q318.4 523.5 319.3 522.5Q320.2 521.6 321.8 521.6Q323.4 521.6 324.3 522.5Q325.2 523.5 325.2 525.1L325.2 525.1L325.2 527.9L327.6 527.9Q328.9 527.9 329.6 528.6Q330.3 529.3 330.3 530.5Q330.3 531.7 329.6 532.4Q328.9 533.1 327.6 533.1L327.6 533.1L325.2 533.1L325.2 545.1Q325.2 546.5 325.7 547.1Q326.2 547.7 327.3 547.8L327.3 547.8L327.8 547.8Q329.1 548.0 329.7 548.5Q330.4 549.1 330.4 550.3L330.4 550.3Q330.4 551.8 329.0 552.6Q327.7 553.3 325.5 553.3L325.5 553.3L325.3 553.3Q318.4 553.3 318.4 546.6Z "/><mask id="satori_om-id-0-1-1"><rect x="924" y="524" width="236" height="36" fill="#fff"/></mask><path fill="#8e8e8e" d="M927.9 552.6Q927.5 552.9 927.0 552.9Q926.4 552.9 926.1 552.6Q925.8 552.2 925.8 551.7L925.8 551.7L925.8 532.6Q925.8 532.0 926.1 531.6Q926.5 531.3 927.1 531.3Q927.6 531.3 928.0 531.6Q928.3 532.0 928.3 532.6L928.3 532.6L928.3 540.0L928.4 540.0Q929.1 538.7 930.4 537.9Q931.7 537.2 933.3 537.2L933.3 537.2Q936.2 537.2 937.9 539.3Q939.7 541.5 939.7 545.0L939.7 545.0Q939.7 548.6 937.9 550.8Q936.2 552.9 933.2 552.9L933.2 552.9Q931.6 552.9 930.3 552.2Q929.0 551.4 928.3 550.1L928.3 550.1L928.2 550.1L928.2 551.7Q928.2 552.2 927.9 552.6ZM932.7 550.7L932.7 550.7Q934.8 550.7 935.9 549.2Q937.1 547.7 937.1 545.0L937.1 545.0Q937.1 542.5 935.9 540.9Q934.8 539.4 932.7 539.4L932.7 539.4Q930.8 539.4 929.6 541.0Q928.3 542.5 928.3 545.0L928.3 545.0Q928.3 547.6 929.6 549.1Q930.8 550.7 932.7 550.7ZM943.8 558.4L943.8 558.4Q942.9 558.4 942.4 558.0Q941.9 557.7 941.9 557.1L941.9 557.1Q941.9 556.7 942.1 556.4Q942.4 556.2 942.9 556.2L942.9 556.2Q943.1 556.2 943.3 556.2Q943.5 556.2 943.7 556.2L943.7 556.2Q945.4 556.2 946.2 553.7L946.2 553.7L946.6 552.7L941.3 539.0Q941.2 538.6 941.2 538.3L941.2 538.3Q941.2 537.8 941.6 537.5Q941.9 537.2 942.5 537.2L942.5 537.2Q943.4 537.2 943.7 538.1L943.7 538.1L947.9 550.1L948.0 550.1L952.2 538.1Q952.3 537.6 952.6 537.4Q952.9 537.2 953.4 537.2L953.4 537.2Q953.9 537.2 954.3 537.5Q954.6 537.8 954.6 538.3L954.6 538.3Q954.6 538.6 954.5 539.0L954.5 539.0L948.9 553.7Q947.9 556.4 946.8 557.4Q945.7 558.4 943.8 558.4Z M965.7 552.5Q965.3 552.9 964.7 552.9Q964.1 552.9 963.8 552.5Q963.4 552.1 963.4 551.5L963.4 551.5L963.4 532.9Q963.4 532.3 963.8 531.9Q964.1 531.5 964.7 531.5L964.7 531.5L970.9 531.5Q973.9 531.5 975.8 533.4Q977.7 535.3 977.7 538.3L977.7 538.3Q977.7 541.3 975.8 543.2Q973.9 545.1 970.9 545.1L970.9 545.1L966.0 545.1L966.0 551.5Q966.0 552.1 965.7 552.5ZM966.0 533.9L966.0 542.8L970.3 542.8Q972.5 542.8 973.8 541.6Q975.0 540.4 975.0 538.3Q975.0 536.2 973.8 535.0Q972.5 533.9 970.3 533.9L970.3 533.9L966.0 533.9ZM984.8 552.9L984.8 552.9Q982.5 552.9 981.1 551.7Q979.7 550.4 979.7 548.4L979.7 548.4Q979.7 546.4 981.2 545.2Q982.6 544.1 985.2 543.9L985.2 543.9L989.6 543.7L989.6 542.4Q989.6 541.0 988.7 540.2Q987.9 539.4 986.3 539.4L986.3 539.4Q985.0 539.4 984.1 539.9Q983.3 540.4 982.6 541.5L982.6 541.5Q982.3 542.1 981.6 542.1L981.6 542.1Q981.1 542.1 980.8 541.8Q980.5 541.5 980.5 541.0Q980.5 540.5 980.8 539.9L980.8 539.9Q981.4 538.7 982.9 537.9Q984.5 537.2 986.3 537.2L986.3 537.2Q989.0 537.2 990.6 538.5Q992.2 539.9 992.2 542.1L992.2 542.1L992.2 551.6Q992.2 552.2 991.8 552.6Q991.5 552.9 991.0 552.9L991.0 552.9Q990.4 552.9 990.1 552.6Q989.7 552.2 989.7 551.6L989.7 551.6L989.7 550.0L989.7 550.0Q989.0 551.3 987.7 552.1Q986.3 552.9 984.8 552.9ZM985.3 550.8L985.3 550.8Q987.1 550.8 988.4 549.6Q989.6 548.5 989.6 546.9L989.6 546.9L989.6 545.6L985.5 545.9Q984.0 546.0 983.1 546.6Q982.3 547.3 982.3 548.4Q982.3 549.4 983.1 550.1Q984.0 550.8 985.3 550.8ZM996.2 549.1L996.2 549.1L996.2 539.5L994.9 539.5Q994.4 539.5 994.1 539.3Q993.8 539.0 993.8 538.5L993.8 538.5Q993.8 538.0 994.1 537.7Q994.4 537.4 994.9 537.4L994.9 537.4L996.2 537.4L996.2 534.8Q996.2 534.2 996.6 533.8Q996.9 533.5 997.5 533.5Q998.0 533.5 998.4 533.8Q998.8 534.2 998.8 534.8L998.8 534.8L998.8 537.4L1000.7 537.4Q1001.3 537.4 1001.6 537.7Q1001.9 538.0 1001.9 538.5L1001.9 538.5Q1001.9 539.0 1001.6 539.3Q1001.3 539.5 1000.7 539.5L1000.7 539.5L998.8 539.5L998.8 548.6Q998.8 549.6 999.2 550.0Q999.6 550.5 1000.5 550.6L1000.5 550.6L1000.7 550.6Q1001.9 550.7 1001.9 551.6L1001.9 551.6Q1001.9 552.2 1001.5 552.5Q1001.1 552.8 1000.1 552.8L1000.1 552.8L999.9 552.8Q996.2 552.8 996.2 549.1ZM1006.6 552.5Q1006.3 552.9 1005.7 552.9Q1005.2 552.9 1004.8 552.5Q1004.4 552.2 1004.4 551.6L1004.4 551.6L1004.4 538.5Q1004.4 537.9 1004.8 537.5Q1005.1 537.2 1005.6 537.2Q1006.2 537.2 1006.5 537.5Q1006.8 537.9 1006.8 538.5L1006.8 538.5L1006.8 539.9L1006.9 539.9Q1007.2 538.7 1008.2 537.9Q1009.2 537.2 1010.4 537.2L1010.4 537.2Q1011.2 537.2 1011.6 537.5L1011.6 537.5Q1011.9 537.8 1011.9 538.4L1011.9 538.4Q1011.9 539.0 1011.5 539.3L1011.5 539.3Q1011.1 539.6 1010.3 539.6L1010.3 539.6Q1008.6 539.6 1007.8 540.6Q1007.0 541.6 1007.0 543.2L1007.0 543.2L1007.0 551.6Q1007.0 552.2 1006.6 552.5ZM1015.1 534.9L1015.1 534.9Q1014.4 534.9 1014.0 534.4Q1013.5 533.9 1013.5 533.3L1013.5 533.3Q1013.5 532.6 1014.0 532.2Q1014.4 531.7 1015.1 531.7L1015.1 531.7Q1015.7 531.7 1016.2 532.2Q1016.7 532.6 1016.7 533.3L1016.7 533.3Q1016.7 533.9 1016.2 534.4Q1015.7 534.9 1015.1 534.9ZM1016.0 552.5Q1015.6 552.9 1015.1 552.9Q1014.5 552.9 1014.2 552.5Q1013.8 552.2 1013.8 551.6L1013.8 551.6L1013.8 538.5Q1013.8 537.9 1014.2 537.5Q1014.5 537.2 1015.1 537.2Q1015.6 537.2 1016.0 537.5Q1016.4 537.9 1016.4 538.5L1016.4 538.5L1016.4 551.6Q1016.4 552.2 1016.0 552.5ZM1026.1 552.9L1026.1 552.9Q1022.9 552.9 1021.0 550.8Q1019.1 548.7 1019.1 545.1Q1019.1 541.5 1021.0 539.3Q1022.9 537.2 1026.1 537.2L1026.1 537.2Q1028.2 537.2 1029.9 538.2Q1031.6 539.3 1032.0 540.9L1032.0 540.9Q1032.1 541.2 1032.1 541.4L1032.1 541.4Q1032.1 542.0 1031.8 542.3Q1031.5 542.6 1031.0 542.6L1031.0 542.6Q1030.6 542.6 1030.3 542.4Q1030.1 542.2 1029.8 541.7L1029.8 541.7Q1028.6 539.4 1026.1 539.4L1026.1 539.4Q1024.1 539.4 1022.9 541.0Q1021.6 542.5 1021.6 545.0L1021.6 545.0Q1021.6 547.6 1022.9 549.2Q1024.1 550.7 1026.1 550.7L1026.1 550.7Q1027.4 550.7 1028.3 550.1Q1029.2 549.6 1029.8 548.4L1029.8 548.4Q1030.1 547.9 1030.3 547.7Q1030.6 547.5 1031.0 547.5L1031.0 547.5Q1031.5 547.5 1031.8 547.8Q1032.1 548.2 1032.1 548.7L1032.1 548.7Q1032.1 548.9 1032.0 549.3L1032.0 549.3Q1031.4 550.9 1029.8 551.9Q1028.2 552.9 1026.1 552.9ZM1041.2 552.9L1041.2 552.9Q1037.8 552.9 1036.0 550.9Q1034.1 548.8 1034.1 545.1L1034.1 545.1Q1034.1 541.5 1036.0 539.3Q1037.8 537.2 1041.0 537.2L1041.0 537.2Q1043.9 537.2 1045.8 539.1Q1047.6 541.1 1047.6 544.3L1047.6 544.3Q1047.6 544.9 1047.3 545.3Q1046.9 545.7 1046.2 545.7L1046.2 545.7L1036.7 545.7Q1036.7 548.0 1037.9 549.4Q1039.1 550.7 1041.1 550.7L1041.1 550.7Q1042.5 550.7 1043.4 550.2Q1044.3 549.6 1045.2 548.3L1045.2 548.3Q1045.6 547.8 1046.2 547.8L1046.2 547.8Q1046.7 547.8 1047.0 548.1Q1047.3 548.4 1047.3 548.9L1047.3 548.9Q1047.3 549.2 1047.1 549.7L1047.1 549.7Q1046.4 551.2 1044.8 552.1Q1043.3 552.9 1041.2 552.9ZM1036.7 543.7L1036.7 543.7L1045.0 543.7Q1045.0 541.8 1043.8 540.6Q1042.7 539.4 1041.0 539.4L1041.0 539.4Q1039.2 539.4 1038.0 540.6Q1036.8 541.8 1036.7 543.7Z M1059.0 552.5Q1058.7 552.9 1058.1 552.9Q1057.5 552.9 1057.1 552.5Q1056.7 552.1 1056.7 551.5L1056.7 551.5L1056.7 532.7Q1056.7 532.1 1057.1 531.7Q1057.5 531.3 1058.1 531.3Q1058.7 531.3 1059.0 531.7Q1059.4 532.1 1059.4 532.7L1059.4 532.7L1059.4 541.8L1059.5 541.8L1068.9 531.8Q1069.4 531.3 1070.0 531.3L1070.0 531.3Q1070.5 531.3 1070.9 531.7Q1071.2 532.0 1071.2 532.5L1071.2 532.5Q1071.2 533.0 1070.9 533.3L1070.9 533.3L1063.6 540.9L1071.7 550.6Q1072.1 551.1 1072.1 551.6L1072.1 551.6Q1072.1 552.2 1071.7 552.5Q1071.3 552.9 1070.8 552.9L1070.8 552.9Q1070.1 552.9 1069.6 552.2L1069.6 552.2L1061.7 542.8L1059.4 545.3L1059.4 551.5Q1059.4 552.1 1059.0 552.5ZM1081.2 552.9L1081.2 552.9Q1077.8 552.9 1075.9 550.9Q1074.1 548.8 1074.1 545.1L1074.1 545.1Q1074.1 541.5 1075.9 539.3Q1077.8 537.2 1081.0 537.2L1081.0 537.2Q1083.9 537.2 1085.8 539.1Q1087.6 541.1 1087.6 544.3L1087.6 544.3Q1087.6 544.9 1087.2 545.3Q1086.9 545.7 1086.2 545.7L1086.2 545.7L1076.7 545.7Q1076.7 548.0 1077.9 549.4Q1079.1 550.7 1081.1 550.7L1081.1 550.7Q1082.5 550.7 1083.4 550.2Q1084.3 549.6 1085.2 548.3L1085.2 548.3Q1085.6 547.8 1086.2 547.8L1086.2 547.8Q1086.7 547.8 1087.0 548.1Q1087.3 548.4 1087.3 548.9L1087.3 548.9Q1087.3 549.2 1087.1 549.7L1087.1 549.7Q1086.4 551.2 1084.8 552.1Q1083.3 552.9 1081.2 552.9ZM1076.7 543.7L1076.7 543.7L1085.0 543.7Q1084.9 541.8 1083.8 540.6Q1082.7 539.4 1080.9 539.4L1080.9 539.4Q1079.1 539.4 1078.0 540.6Q1076.8 541.8 1076.7 543.7ZM1092.4 552.5Q1092.0 552.9 1091.4 552.9Q1090.9 552.9 1090.5 552.5Q1090.2 552.2 1090.2 551.6L1090.2 551.6L1090.2 538.5Q1090.2 537.9 1090.5 537.5Q1090.8 537.2 1091.4 537.2Q1091.9 537.2 1092.2 537.5Q1092.6 537.9 1092.6 538.5L1092.6 538.5L1092.6 539.9L1092.6 539.9Q1093.3 538.6 1094.5 537.9Q1095.8 537.2 1097.5 537.2L1097.5 537.2Q1100.0 537.2 1101.3 538.7Q1102.7 540.2 1102.7 542.8L1102.7 542.8L1102.7 551.6Q1102.7 552.2 1102.4 552.5Q1102.0 552.9 1101.5 552.9Q1100.9 552.9 1100.6 552.5Q1100.2 552.2 1100.2 551.6L1100.2 551.6L1100.2 543.2Q1100.2 541.4 1099.3 540.4Q1098.4 539.4 1096.7 539.4L1096.7 539.4Q1094.9 539.4 1093.8 540.6Q1092.7 541.8 1092.7 543.7L1092.7 543.7L1092.7 551.6Q1092.7 552.2 1092.4 552.5ZM1108.2 552.5Q1107.8 552.9 1107.3 552.9Q1106.7 552.9 1106.3 552.5Q1106.0 552.2 1106.0 551.6L1106.0 551.6L1106.0 538.5Q1106.0 537.9 1106.3 537.5Q1106.7 537.2 1107.2 537.2Q1107.7 537.2 1108.0 537.5Q1108.4 537.9 1108.4 538.5L1108.4 538.5L1108.4 539.9L1108.4 539.9Q1109.0 538.6 1110.1 537.9Q1111.3 537.2 1112.8 537.2L1112.8 537.2Q1114.3 537.2 1115.4 537.9Q1116.5 538.7 1117.0 540.1L1117.0 540.1L1117.1 540.1Q1117.7 538.7 1119.0 537.9Q1120.3 537.2 1121.9 537.2L1121.9 537.2Q1124.1 537.2 1125.5 538.5Q1126.8 539.9 1126.8 542.1L1126.8 542.1L1126.8 551.6Q1126.8 552.2 1126.5 552.5Q1126.1 552.9 1125.6 552.9Q1125.0 552.9 1124.6 552.5Q1124.3 552.2 1124.3 551.6L1124.3 551.6L1124.3 542.7Q1124.3 541.2 1123.5 540.3Q1122.6 539.4 1121.1 539.4Q1119.6 539.4 1118.6 540.4Q1117.7 541.4 1117.7 543.0L1117.7 543.0L1117.7 551.6Q1117.7 552.2 1117.3 552.5Q1117.0 552.9 1116.4 552.9Q1115.8 552.9 1115.5 552.5Q1115.1 552.2 1115.1 551.6L1115.1 551.6L1115.1 542.5Q1115.1 541.1 1114.3 540.2Q1113.4 539.4 1112.0 539.4L1112.0 539.4Q1110.5 539.4 1109.5 540.5Q1108.5 541.5 1108.5 543.1L1108.5 543.1L1108.5 551.6Q1108.5 552.2 1108.2 552.5ZM1136.4 552.9L1136.4 552.9Q1133.2 552.9 1131.3 550.8Q1129.3 548.7 1129.3 545.0Q1129.3 541.4 1131.3 539.3Q1133.2 537.2 1136.4 537.2L1136.4 537.2Q1139.6 537.2 1141.5 539.3Q1143.4 541.4 1143.4 545.0L1143.4 545.0Q1143.4 548.7 1141.5 550.8Q1139.6 552.9 1136.4 552.9ZM1133.1 549.2Q1134.3 550.7 1136.4 550.7Q1138.4 550.7 1139.6 549.2Q1140.8 547.7 1140.8 545.0Q1140.8 542.4 1139.6 540.9Q1138.4 539.4 1136.4 539.4Q1134.3 539.4 1133.1 540.9Q1131.9 542.4 1131.9 545.0Q1131.9 547.7 1133.1 549.2ZM1152.5 535.6L1152.5 535.6Q1152.1 535.6 1151.9 535.4Q1151.6 535.2 1151.6 534.8Q1151.6 534.5 1151.8 534.2L1151.8 534.2L1154.0 531.1Q1154.3 530.6 1154.6 530.5Q1154.8 530.3 1155.1 530.3L1155.1 530.3Q1155.6 530.3 1155.9 530.6Q1156.2 530.9 1156.2 531.3L1156.2 531.3Q1156.2 531.7 1155.9 532.1L1155.9 532.1L1153.4 535.1Q1153.0 535.6 1152.5 535.6ZM1152.4 552.9L1152.4 552.9Q1149.0 552.9 1147.1 550.9Q1145.3 548.8 1145.3 545.1L1145.3 545.1Q1145.3 541.5 1147.1 539.3Q1149.0 537.2 1152.2 537.2L1152.2 537.2Q1155.1 537.2 1156.9 539.1Q1158.8 541.1 1158.8 544.3L1158.8 544.3Q1158.8 544.9 1158.4 545.3Q1158.1 545.7 1157.4 545.7L1157.4 545.7L1147.9 545.7Q1147.9 548.0 1149.1 549.4Q1150.2 550.7 1152.3 550.7L1152.3 550.7Q1153.6 550.7 1154.6 550.2Q1155.5 549.6 1156.4 548.3L1156.4 548.3Q1156.8 547.8 1157.3 547.8L1157.3 547.8Q1157.9 547.8 1158.2 548.1Q1158.5 548.4 1158.5 548.9L1158.5 548.9Q1158.5 549.2 1158.3 549.7L1158.3 549.7Q1157.6 551.2 1156.0 552.1Q1154.5 552.9 1152.4 552.9ZM1147.9 543.7L1147.9 543.7L1156.2 543.7Q1156.1 541.8 1155.0 540.6Q1153.9 539.4 1152.1 539.4L1152.1 539.4Q1150.3 539.4 1149.2 540.6Q1148.0 541.8 1147.9 543.7Z "/></svg>