<svg width="1200" height="630" viewBox="0 0 1200 630" xmlns="http://www.w3.org/2000/svg"><mask id="satori_om-id"><rect x="0" y="0" width="1200" height="630" fill="#fff"/></mask><mask id="satori_om-id-0"><rect x="0" y="0" width="1200" height="630" fill="#fff"/></mask><rect x="0" y="0" width="1200" height="630" fill="#f2f2f2"/><mask id="satori_om-id-0-0"><rect x="0" y="0" width="1200" height="441" fill="#fff"/></mask><mask id="satori_om-id-0-0-0"><rect x="40" y="136" width="1120" height="36" fill="#fff"/></mask><path fill="#8e8e8e" d="M49.1 164.5Q48.6 164.9 47.9 164.9Q47.1 164.9 46.7 164.5Q46.2 164.1 46.0 163.3L46.0 163.3L41.1 145.8Q41.0 145.2 41.0 144.8L41.0 144.8Q41.0 144.1 41.4 143.7Q41.8 143.3 42.6 143.3L42.6 143.3Q43.9 143.3 44.2 144.7L44.2 144.7L48.0 160.1L48.1 160.1L52.2 144.9Q52.5 144.1 52.9 143.7Q53.3 143.3 54.1 143.3L54.1 143.3Q54.8 143.3 55.3 143.7Q55.7 144.1 55.9 144.9L55.9 144.9L60.1 160.1L60.2 160.1L64.0 144.7Q64.3 143.3 65.6 143.3L65.6 143.3Q66.3 143.3 66.8 143.7Q67.2 144.1 67.2 144.8L67.2 144.8Q67.2 145.2 67.1 145.8L67.1 145.8L62.2 163.3Q61.9 164.1 61.5 164.5Q61.0 164.9 60.3 164.9L60.3 164.9Q59.5 164.9 59.1 164.5Q58.6 164.2 58.4 163.3L58.4 163.3L54.2 148.7L54.0 148.7L49.8 163.3Q49.6 164.1 49.1 164.5ZM76.4 165.0L76.4 165.0Q72.9 165.0 71.0 162.9Q69.0 160.8 69.0 157.0L69.0 157.0Q69.0 153.4 71.0 151.2Q72.9 149.0 76.2 149.0L76.2 149.0Q79.3 149.0 81.2 151.0Q83.1 153.0 83.1 156.1L83.1 156.1Q83.1 156.9 82.7 157.3Q82.3 157.8 81.6 157.8L81.6 157.8L72.2 157.8L72.2 157.8Q72.2 159.9 73.3 161.2Q74.5 162.4 76.3 162.4L76.3 162.4Q77.6 162.4 78.5 161.9Q79.4 161.4 80.3 160.2L80.3 160.2Q80.8 159.6 81.4 159.6L81.4 159.6Q82.0 159.6 82.4 160.0Q82.8 160.3 82.8 160.9L82.8 160.9Q82.8 161.3 82.5 161.8L82.5 161.8Q81.8 163.3 80.2 164.1Q78.6 165.0 76.4 165.0ZM72.3 155.5L72.3 155.5L80.0 155.5Q79.9 153.7 78.9 152.6Q77.8 151.5 76.2 151.5L76.2 151.5Q74.5 151.5 73.5 152.6Q72.4 153.7 72.3 155.5ZM91.4 164.9L91.4 164.9Q88.4 164.9 86.7 162.8Q84.9 160.6 84.9 157.0Q84.9 153.3 86.6 151.2Q88.4 149.0 91.3 149.0L91.3 149.0Q93.0 149.0 94.2 149.8Q95.5 150.5 96.2 151.8L96.2 151.8L96.2 151.8L96.2 144.9Q96.2 144.1 96.7 143.7Q97.1 143.2 97.8 143.2L97.8 143.2Q98.5 143.2 99.0 143.7Q99.4 144.2 99.4 144.9L99.4 144.9L99.4 163.4Q99.4 164.1 99.0 164.5Q98.5 164.9 97.8 164.9L97.8 164.9Q97.1 164.9 96.7 164.5Q96.2 164.1 96.2 163.4L96.2 163.4L96.2 161.9L96.2 161.9Q95.6 163.3 94.3 164.1Q93.1 164.9 91.4 164.9ZM92.2 162.2L92.2 162.2Q94.0 162.2 95.1 160.8Q96.3 159.4 96.3 157.0L96.3 157.0Q96.3 154.6 95.1 153.1Q94.0 151.7 92.2 151.7L92.2 151.7Q90.3 151.7 89.2 153.1Q88.1 154.5 88.1 157.0L88.1 157.0Q88.1 159.4 89.2 160.8Q90.3 162.2 92.2 162.2ZM104.2 164.9L104.2 164.9Q103.5 164.9 103.1 164.5Q102.6 164.0 102.6 163.3L102.6 163.3L102.6 150.6Q102.6 149.8 103.0 149.4Q103.5 149.0 104.1 149.0Q104.8 149.0 105.3 149.4Q105.7 149.9 105.7 150.6L105.7 150.6L105.7 151.8L105.8 151.8Q107.1 149.0 110.6 149.0L110.6 149.0Q113.1 149.0 114.5 150.5Q115.9 152.0 115.9 154.7L115.9 154.7L115.9 163.3Q115.9 164.0 115.5 164.5Q115.0 164.9 114.3 164.9L114.3 164.9Q113.6 164.9 113.2 164.5Q112.7 164.0 112.7 163.3L112.7 163.3L112.7 155.3Q112.7 153.5 111.9 152.6Q111.1 151.7 109.5 151.7L109.5 151.7Q107.8 151.7 106.8 152.8Q105.8 153.9 105.8 155.7L105.8 155.7L105.8 163.3Q105.8 164.0 105.4 164.5Q104.9 164.9 104.2 164.9ZM125.6 165.0L125.6 165.0Q122.2 165.0 120.2 162.9Q118.3 160.8 118.3 157.0L118.3 157.0Q118.3 153.4 120.2 151.2Q122.2 149.0 125.4 149.0L125.4 149.0Q128.5 149.0 130.4 151.0Q132.4 153.0 132.4 156.1L132.4 156.1Q132.4 156.9 131.9 157.3Q131.5 157.8 130.8 157.8L130.8 157.8L121.5 157.8L121.5 157.8Q121.5 159.9 122.6 161.2Q123.7 162.4 125.6 162.4L125.6 162.4Q126.9 162.4 127.8 161.9Q128.7 161.4 129.6 160.2L129.6 160.2Q130.0 159.6 130.7 159.6L130.7 159.6Q131.3 159.6 131.6 160.0Q132.0 160.3 132.0 160.9L132.0 160.9Q132.0 161.3 131.8 161.8L131.8 161.8Q131.0 163.3 129.4 164.1Q127.8 165.0 125.6 165.0ZM121.5 155.5L121.5 155.5L129.2 155.5Q129.1 153.7 128.1 152.6Q127.1 151.5 125.4 151.5L125.4 151.5Q123.8 151.5 122.7 152.6Q121.6 153.7 121.5 155.5ZM140.5 165.0L140.5 165.0Q138.2 165.0 136.7 164.1Q135.1 163.3 134.5 161.8L134.5 161.8Q134.4 161.5 134.4 161.2L134.4 161.2Q134.4 160.6 134.7 160.2Q135.1 159.9 135.7 159.9L135.7 159.9Q136.5 159.9 137.1 160.7L137.1 160.7Q137.7 161.7 138.5 162.1Q139.3 162.5 140.6 162.5L140.6 162.5Q142.0 162.5 142.8 162.0Q143.7 161.4 143.7 160.5L143.7 160.5Q143.7 159.7 143.2 159.3Q142.6 158.8 141.4 158.5L141.4 158.5L139.0 158.0Q134.5 156.9 134.5 153.6L134.5 153.6Q134.5 151.5 136.2 150.2Q137.9 149.0 140.6 149.0L140.6 149.0Q142.7 149.0 144.2 149.9Q145.8 150.8 146.1 152.2L146.1 152.2Q146.2 152.6 146.2 152.7L146.2 152.7Q146.2 153.2 145.8 153.5Q145.5 153.9 144.9 153.9L144.9 153.9Q144.1 153.9 143.7 153.2L143.7 153.2Q143.1 152.3 142.4 151.8Q141.6 151.4 140.5 151.4L140.5 151.4Q139.2 151.4 138.4 152.0Q137.6 152.5 137.6 153.4L137.6 153.4Q137.6 154.9 140.0 155.5L140.0 155.5L142.4 156.0Q144.8 156.6 145.8 157.5Q146.9 158.5 146.9 160.2L146.9 160.2Q146.9 162.3 145.1 163.6Q143.3 165.0 140.5 165.0ZM155.1 164.9L155.1 164.9Q152.2 164.9 150.4 162.8Q148.6 160.6 148.6 157.0Q148.6 153.3 150.4 151.2Q152.1 149.0 155.1 149.0L155.1 149.0Q156.7 149.0 158.0 149.8Q159.2 150.5 159.9 151.8L159.9 151.8L160.0 151.8L160.0 144.9Q160.0 144.1 160.4 143.7Q160.8 143.2 161.6 143.2L161.6 143.2Q162.3 143.2 162.7 143.7Q163.1 144.2 163.1 144.9L163.1 144.9L163.1 163.4Q163.1 164.1 162.7 164.5Q162.3 164.9 161.6 164.9L161.6 164.9Q160.9 164.9 160.4 164.5Q160.0 164.1 160.0 163.4L160.0 163.4L160.0 161.9L159.9 161.9Q159.3 163.3 158.1 164.1Q156.8 164.9 155.1 164.9ZM155.9 162.2L155.9 162.2Q157.8 162.2 158.9 160.8Q160.0 159.4 160.0 157.0L160.0 157.0Q160.0 154.6 158.9 153.1Q157.8 151.7 155.9 151.7L155.9 151.7Q154.1 151.7 153.0 153.1Q151.9 154.5 151.9 157.0L151.9 157.0Q151.9 159.4 153.0 160.8Q154.1 162.2 155.9 162.2ZM170.9 164.9L170.9 164.9Q168.6 164.9 167.2 163.6Q165.7 162.3 165.7 160.3L165.7 160.3Q165.7 158.3 167.2 157.1Q168.7 155.9 171.5 155.7L171.5 155.7L175.7 155.5L175.7 154.3Q175.7 153.0 174.9 152.3Q174.1 151.6 172.6 151.6L172.6 151.6Q171.5 151.6 170.7 152.0Q169.9 152.5 169.2 153.5L169.2 153.5Q168.7 154.2 167.9 154.2L167.9 154.2Q167.3 154.2 166.9 153.8Q166.5 153.4 166.5 152.9L166.5 152.9Q166.5 152.3 166.8 151.8L166.8 151.8Q167.4 150.5 169.0 149.8Q170.6 149.0 172.7 149.0L172.7 149.0Q175.5 149.0 177.2 150.4Q178.9 151.7 178.9 154.0L178.9 154.0L178.9 163.3Q178.9 164.1 178.4 164.5Q178.0 164.9 177.3 164.9L177.3 164.9Q176.7 164.9 176.3 164.5Q175.8 164.1 175.8 163.4L175.8 163.4L175.8 162.1L175.7 162.1Q175.1 163.4 173.7 164.2Q172.4 164.9 170.9 164.9ZM171.7 162.4L171.7 162.4Q173.4 162.4 174.6 161.4Q175.7 160.4 175.7 158.9L175.7 158.9L175.7 157.7L171.9 157.9Q170.5 158.0 169.7 158.6Q168.9 159.2 168.9 160.2L168.9 160.2Q168.9 161.2 169.7 161.8Q170.5 162.4 171.7 162.4ZM183.8 170.4L183.8 170.4Q182.7 170.4 182.1 170.0Q181.5 169.6 181.5 168.9L181.5 168.9Q181.5 168.4 181.9 168.1Q182.2 167.8 182.8 167.8L182.8 167.8Q182.9 167.8 183.2 167.8Q183.4 167.8 183.6 167.8L183.6 167.8Q185.2 167.8 185.9 165.7L185.9 165.7L186.2 164.8L181.1 151.3Q180.9 150.9 180.9 150.4L180.9 150.4Q180.9 149.8 181.4 149.4Q181.8 149.0 182.5 149.0L182.5 149.0Q183.1 149.0 183.5 149.3Q183.8 149.5 184.0 150.2L184.0 150.2L188.0 161.8L188.0 161.8L191.9 150.2Q192.1 149.5 192.5 149.3Q192.9 149.0 193.5 149.0L193.5 149.0Q194.1 149.0 194.6 149.4Q195.0 149.8 195.0 150.4L195.0 150.4Q195.0 150.8 194.8 151.3L194.8 151.3L189.5 165.4Q188.5 168.2 187.2 169.3Q186.0 170.4 183.8 170.4ZM199.5 161.1L199.5 161.1Q200.1 161.1 200.5 161.5Q200.9 161.8 200.9 162.4L200.9 162.4Q200.9 162.8 200.8 163.3L200.8 163.3L199.6 168.3Q199.3 169.4 198.2 169.4L198.2 169.4Q197.6 169.4 197.3 169.1Q197.0 168.7 197.0 168.2L197.0 168.2Q197.0 168.1 197.0 167.8L197.0 167.8L198.0 162.4Q198.2 161.1 199.5 161.1Z M224.3 164.7L212.6 164.7Q211.9 164.7 211.5 164.3Q211.1 163.9 211.1 163.3L211.1 163.3Q211.1 162.8 211.3 162.5Q211.4 162.1 212.0 161.6L212.0 161.6L218.6 154.9Q220.7 152.8 221.3 151.7Q222.0 150.6 222.0 149.3L222.0 149.3Q222.0 147.8 221.0 146.8Q219.9 145.8 218.3 145.8L218.3 145.8Q215.2 145.8 214.1 149.0L214.1 149.0Q213.9 149.5 213.5 149.8Q213.2 150.0 212.6 150.0L212.6 150.0Q211.9 150.0 211.6 149.6Q211.2 149.3 211.2 148.6L211.2 148.6Q211.2 148.3 211.3 148.0L211.3 148.0Q211.4 147.1 212.0 146.3Q212.5 145.4 213.4 144.7Q214.3 144.0 215.6 143.6Q216.9 143.1 218.4 143.1L218.4 143.1Q221.4 143.1 223.3 144.8Q225.3 146.5 225.3 149.1L225.3 149.1Q225.3 150.9 224.3 152.5Q223.3 154.0 220.6 156.8L220.6 156.8L215.5 161.8L215.5 161.9L224.3 161.9Q225.0 161.9 225.4 162.3Q225.8 162.7 225.8 163.3L225.8 163.3Q225.8 163.9 225.4 164.3Q225.0 164.7 224.3 164.7L224.3 164.7ZM236.1 165.1L236.1 165.1Q232.6 165.1 230.4 163.3Q228.1 161.6 228.1 159.0L228.1 159.0Q228.1 156.9 229.4 155.5Q230.7 154.0 232.8 153.5L232.8 153.5L232.8 153.5Q231.0 152.9 230.0 151.7Q228.9 150.4 228.9 148.7L228.9 148.7Q228.9 146.3 231.0 144.7Q233.0 143.1 236.1 143.1L236.1 143.1Q239.3 143.1 241.3 144.7Q243.3 146.3 243.3 148.8L243.3 148.8Q243.3 150.4 242.3 151.7Q241.3 152.9 239.5 153.5L239.5 153.5L239.5 153.5Q241.6 154 242.9 155.5Q244.1 157.0 244.1 159.0L244.1 159.0Q244.1 160.7 243.1 162.1Q242.1 163.5 240.3 164.3Q238.5 165.1 236.1 165.1ZM236.1 152.4L236.1 152.4Q237.9 152.4 239.0 151.4Q240.1 150.5 240.1 149.0L240.1 149.0Q240.1 147.6 239.0 146.7Q237.9 145.7 236.1 145.7L236.1 145.7Q234.4 145.7 233.3 146.7Q232.2 147.6 232.2 149.0L232.2 149.0Q232.2 150.5 233.3 151.4Q234.4 152.4 236.1 152.4ZM232.8 161.4Q234.1 162.4 236.1 162.4Q238.2 162.4 239.5 161.4Q240.7 160.3 240.7 158.7L240.7 158.7Q240.7 157.1 239.5 156.0Q238.2 155.0 236.1 155.0Q234.1 155.0 232.8 156.0Q231.5 157.1 231.5 158.7L231.5 158.7Q231.5 160.3 232.8 161.4Z M256.0 164.5Q255.6 164.9 254.9 164.9Q254.2 164.9 253.8 164.5Q253.4 164.1 253.4 163.3L253.4 163.3L253.4 145.4Q253.4 144.4 254.0 143.9Q254.6 143.3 255.6 143.3L255.6 143.3Q256.4 143.3 256.9 143.7Q257.5 144.1 257.8 145.0L257.8 145.0L264.1 160.2L264.2 160.2L270.4 145.0Q270.8 144.1 271.4 143.7Q271.9 143.3 272.7 143.3L272.7 143.3Q273.7 143.3 274.3 143.8Q274.8 144.4 274.8 145.4L274.8 145.4L274.8 163.3Q274.8 164.1 274.4 164.5Q274.0 164.9 273.3 164.9L273.3 164.9Q272.6 164.9 272.2 164.5Q271.8 164.1 271.8 163.3L271.8 163.3L271.8 149.1L271.7 149.1L265.8 163.3Q265.3 164.5 264.1 164.5L264.1 164.5Q262.9 164.5 262.4 163.3L262.4 163.3L256.5 149.1L256.4 149.1L256.4 163.3Q256.4 164.1 256.0 164.5ZM282.9 164.9L282.9 164.9Q280.6 164.9 279.2 163.6Q277.7 162.3 277.7 160.3L277.7 160.3Q277.7 158.3 279.2 157.1Q280.7 155.9 283.4 155.7L283.4 155.7L287.7 155.5L287.7 154.3Q287.7 153.0 286.9 152.3Q286.0 151.6 284.6 151.6L284.6 151.6Q283.4 151.6 282.6 152.0Q281.8 152.5 281.2 153.5L281.2 153.5Q280.7 154.2 279.9 154.2L279.9 154.2Q279.3 154.2 278.9 153.8Q278.5 153.4 278.5 152.9L278.5 152.9Q278.5 152.3 278.8 151.8L278.8 151.8Q279.4 150.5 281.0 149.8Q282.6 149.0 284.7 149.0L284.7 149.0Q287.5 149.0 289.2 150.4Q290.8 151.7 290.8 154.0L290.8 154.0L290.8 163.3Q290.8 164.1 290.4 164.5Q290.0 164.9 289.3 164.9L289.3 164.9Q288.6 164.9 288.2 164.5Q287.8 164.1 287.8 163.4L287.8 163.4L287.8 162.1L287.7 162.1Q287.1 163.4 285.7 164.2Q284.4 164.9 282.9 164.9ZM283.7 162.4L283.7 162.4Q285.4 162.4 286.5 161.4Q287.7 160.4 287.7 158.9L287.7 158.9L287.7 157.7L283.9 157.9Q282.4 158.0 281.7 158.6Q280.9 159.2 280.9 160.2L280.9 160.2Q280.9 161.2 281.7 161.8Q282.5 162.4 283.7 162.4ZM295.8 170.4L295.8 170.4Q294.7 170.4 294.1 170.0Q293.5 169.6 293.5 168.9L293.5 168.9Q293.5 168.4 293.9 168.1Q294.2 167.8 294.8 167.8L294.8 167.8Q294.9 167.8 295.1 167.8Q295.4 167.8 295.6 167.8L295.6 167.8Q297.2 167.8 297.9 165.7L297.9 165.7L298.2 164.8L293.1 151.3Q292.9 150.9 292.9 150.4L292.9 150.4Q292.9 149.8 293.3 149.4Q293.8 149.0 294.5 149.0L294.5 149.0Q295.1 149.0 295.4 149.3Q295.8 149.5 296.0 150.2L296.0 150.2L299.9 161.8L300.0 161.8L303.9 150.2Q304.1 149.5 304.5 149.3Q304.8 149.0 305.4 149.0L305.4 149.0Q306.1 149.0 306.5 149.4Q307.0 149.8 307.0 150.4L307.0 150.4Q307.0 150.8 306.8 151.3L306.8 151.3L301.5 165.4Q300.4 168.2 299.2 169.3Q297.9 170.4 295.8 170.4Z M328.4 164.7L316.7 164.7Q316.0 164.7 315.6 164.3Q315.2 163.9 315.2 163.3L315.2 163.3Q315.2 162.8 315.4 162.5Q315.5 162.1 316.1 161.6L316.1 161.6L322.7 154.9Q324.8 152.8 325.4 151.7Q326.1 150.6 326.1 149.3L326.1 149.3Q326.1 147.8 325.1 146.8Q324.0 145.8 322.4 145.8L322.4 145.8Q319.3 145.8 318.2 149.0L318.2 149.0Q318.0 149.5 317.6 149.8Q317.3 150.0 316.7 150.0L316.7 150.0Q316.0 150.0 315.6 149.6Q315.3 149.3 315.3 148.6L315.3 148.6Q315.3 148.3 315.3 148.0L315.3 148.0Q315.5 147.1 316.1 146.3Q316.6 145.4 317.5 144.7Q318.3 144.0 319.6 143.6Q320.9 143.1 322.5 143.1L322.5 143.1Q325.5 143.1 327.4 144.8Q329.4 146.5 329.4 149.1L329.4 149.1Q329.4 150.9 328.4 152.5Q327.4 154.0 324.7 156.8L324.7 156.8L319.6 161.8L319.6 161.9L328.4 161.9Q329.1 161.9 329.5 162.3Q329.8 162.7 329.8 163.3L329.8 163.3Q329.8 163.9 329.5 164.3Q329.1 164.7 328.4 164.7L328.4 164.7ZM346.3 162.1Q344.1 165.1 340.3 165.1Q336.5 165.1 334.4 162.1Q332.2 159.2 332.2 154.1L332.2 154.1Q332.2 149.0 334.4 146.1Q336.6 143.1 340.3 143.1L340.3 143.1Q344.1 143.1 346.3 146.1Q348.4 149.0 348.4 154.1L348.4 154.1Q348.4 159.1 346.3 162.1ZM340.3 162.3L340.3 162.3Q342.6 162.3 343.9 160.1Q345.1 157.9 345.1 154.1L345.1 154.1Q345.1 150.3 343.8 148.1Q342.6 145.9 340.3 145.9Q338.1 145.9 336.8 148.1Q335.6 150.3 335.6 154.1L335.6 154.1Q335.6 157.9 336.8 160.1Q338.1 162.3 340.3 162.3ZM364.5 164.7L352.8 164.7Q352.1 164.7 351.7 164.3Q351.3 163.9 351.3 163.3L351.3 163.3Q351.3 162.8 351.4 162.5Q351.6 162.1 352.2 161.6L352.2 161.6L358.8 154.9Q360.8 152.8 361.5 151.7Q362.2 150.6 362.2 149.3L362.2 149.3Q362.2 147.8 361.2 146.8Q360.1 145.8 358.5 145.8L358.5 145.8Q355.4 145.8 354.3 149.0L354.3 149.0Q354.0 149.5 353.7 149.8Q353.4 150.0 352.8 150.0L352.8 150.0Q352.1 150.0 351.7 149.6Q351.4 149.3 351.4 148.6L351.4 148.6Q351.4 148.3 351.4 148.0L351.4 148.0Q351.6 147.1 352.2 146.3Q352.7 145.4 353.6 144.7Q354.4 144.0 355.7 143.6Q357.0 143.1 358.5 143.1L358.5 143.1Q361.6 143.1 363.5 144.8Q365.4 146.5 365.4 149.1L365.4 149.1Q365.4 150.9 364.5 152.5Q363.5 154.0 360.8 156.8L360.8 156.8L355.7 161.8L355.7 161.9L364.5 161.9Q365.2 161.9 365.5 162.3Q365.9 162.7 365.9 163.3L365.9 163.3Q365.9 163.9 365.5 164.3Q365.2 164.7 364.5 164.7L364.5 164.7ZM376.3 165.1L376.3 165.1Q373.9 165.1 372.0 164.0Q370.1 162.9 369.3 161.2L369.3 161.2Q369.0 160.5 369.0 159.8L369.0 159.8Q369.0 159.1 369.4 158.7Q369.8 158.3 370.5 158.3L370.5 158.3Q371.0 158.3 371.4 158.6Q371.7 158.8 371.9 159.4L371.9 159.4Q372.5 160.8 373.6 161.5Q374.7 162.3 376.3 162.3L376.3 162.3Q378.3 162.3 379.6 161.0Q380.8 159.8 380.8 157.8L380.8 157.8Q380.8 155.8 379.5 154.6Q378.3 153.4 376.3 153.4L376.3 153.4Q374.2 153.4 372.8 154.7L372.8 154.7Q372.2 155.5 371.8 155.6Q371.4 155.8 370.8 155.8L370.8 155.8Q370.1 155.8 369.7 155.4Q369.3 154.9 369.3 154.2L369.3 154.2L369.3 153.9L370 145.8Q370.1 144.6 370.7 144.0Q371.3 143.5 372.5 143.5L372.5 143.5L381.5 143.5Q382.2 143.5 382.6 143.9Q383.0 144.3 383.0 144.9Q383.0 145.5 382.6 145.9Q382.2 146.3 381.5 146.3L381.5 146.3L372.8 146.3L372.2 152.9L372.3 152.9Q373.0 151.9 374.2 151.3Q375.5 150.8 377.1 150.8L377.1 150.8Q380.1 150.8 382.1 152.7Q384.0 154.6 384.0 157.7L384.0 157.7Q384.0 161.0 381.9 163.0Q379.7 165.1 376.3 165.1Z "/><mask id="satori_om-id-0-0-1"><rect x="40" y="217" width="1120" height="83" fill="#fff"/></mask><path fill="#224d67" d="M45.6 280.1L45.6 280.1Q43.8 280.1 42.8 279.1Q41.8 278.2 41.8 276.6L41.8 276.6Q41.8 275.6 42.3 274.3L42.3 274.3L54.5 240.9Q55.3 238.8 56.6 237.8Q58.0 236.8 60.0 236.8L60.0 236.8Q62.1 236.8 63.4 237.8Q64.8 238.7 65.5 240.9L65.5 240.9L77.9 274.3Q78.3 275.7 78.3 276.6L78.3 276.6Q78.3 278.1 77.3 279.1Q76.2 280.1 74.6 280.1L74.6 280.1Q73.0 280.1 72.1 279.3Q71.2 278.6 70.7 276.9L70.7 276.9L67.9 268.8L52.1 268.8L49.3 276.8Q48.8 278.6 47.9 279.3Q47.0 280.1 45.6 280.1ZM59.9 244.8L53.9 262.8L66.1 262.8L60.1 244.8L59.9 244.8Z M114.2 280.3L114.2 280.3Q105.0 280.3 99.7 274.4Q94.4 268.6 94.4 258.4L94.4 258.4Q94.4 248.3 99.7 242.5Q105.0 236.6 114.0 236.6L114.0 236.6Q119.9 236.6 124.3 239.2Q128.7 241.8 130.8 246.4L130.8 246.4Q131.5 247.9 131.5 249.3L131.5 249.3Q131.5 250.8 130.6 251.7Q129.7 252.6 128.2 252.6L128.2 252.6Q125.6 252.6 124.5 249.9L124.5 249.9Q123.0 246.6 120.3 244.8Q117.5 243.0 114.1 243.0L114.1 243.0Q108.6 243.0 105.4 247.2Q102.1 251.4 102.1 258.4L102.1 258.4Q102.1 265.5 105.4 269.7Q108.6 273.9 114.1 273.9L114.1 273.9Q121.7 273.9 124.6 267.3L124.6 267.3Q125.2 266.0 125.9 265.4Q126.7 264.9 127.9 264.9L127.9 264.9Q129.5 264.9 130.5 265.8Q131.5 266.7 131.5 268.2L131.5 268.2Q131.5 269.6 130.8 271.1L130.8 271.1Q128.7 275.4 124.4 277.8Q120.0 280.3 114.2 280.3ZM162.0 275.9Q157.9 280.2 151.0 280.2Q144.1 280.2 140.0 275.9Q136.0 271.6 136.0 264.1L136.0 264.1Q136.0 256.6 140.1 252.2Q144.2 247.9 151.0 247.9L151.0 247.9Q157.9 247.9 161.9 252.2Q166.0 256.6 166.0 264.1L166.0 264.1Q166.0 271.6 162.0 275.9ZM145.4 271.7Q147.5 274.4 151.0 274.4Q154.5 274.4 156.6 271.7Q158.6 269.0 158.6 264.1L158.6 264.1Q158.6 259.2 156.6 256.4Q154.5 253.7 151.0 253.7L151.0 253.7Q147.5 253.7 145.5 256.4Q143.4 259.2 143.4 264.1L143.4 264.1Q143.4 269.0 145.4 271.7ZM177.0 279.2Q176.0 280.2 174.4 280.2Q172.7 280.2 171.7 279.2Q170.7 278.1 170.7 276.3L170.7 276.3L170.7 251.6Q170.7 249.9 171.7 248.9Q172.6 247.9 174.2 247.9Q175.8 247.9 176.8 248.9Q177.8 249.9 177.8 251.6L177.8 251.6L177.8 253.8L178.0 253.8Q180.6 247.9 187.6 247.9L187.6 247.9Q192.7 247.9 195.6 251.0Q198.4 254.1 198.4 259.5L198.4 259.5L198.4 276.3Q198.4 278.1 197.4 279.2Q196.4 280.2 194.7 280.2Q193.1 280.2 192.1 279.2Q191.1 278.1 191.1 276.3L191.1 276.3L191.1 261.0Q191.1 257.6 189.5 255.9Q187.9 254.1 184.9 254.1L184.9 254.1Q181.7 254.1 179.9 256.2Q178.0 258.2 178.0 261.6L178.0 261.6L178.0 276.3Q178.0 278.1 177.0 279.2ZM206.2 271.9L206.2 271.9L206.2 254.1L204.3 254.1Q202.9 254.1 202.1 253.4Q201.3 252.6 201.3 251.3L201.3 251.3Q201.3 250.0 202.1 249.3Q202.9 248.5 204.3 248.5L204.3 248.5L206.2 248.5L206.2 244.4Q206.2 242.6 207.2 241.6Q208.2 240.6 209.9 240.6L209.9 240.6Q211.6 240.6 212.5 241.6Q213.5 242.6 213.5 244.4L213.5 244.4L213.5 248.5L216.9 248.5Q218.3 248.5 219.0 249.3Q219.8 250.0 219.8 251.3L219.8 251.3Q219.8 252.6 219.0 253.4Q218.2 254.1 216.9 254.1L216.9 254.1L213.5 254.1L213.5 270.3Q213.5 272.1 214.2 272.9Q214.9 273.7 216.5 273.9L216.5 273.9L217.0 273.9Q219.9 274.2 219.9 276.6L219.9 276.6Q219.9 278.2 218.6 279.1Q217.2 279.9 214.7 279.9L214.7 279.9L214.4 279.9Q206.2 279.9 206.2 271.9ZM230.6 279.1Q229.6 280.2 228.0 280.2Q226.3 280.2 225.3 279.1Q224.3 278.1 224.3 276.3L224.3 276.3L224.3 251.6Q224.3 249.9 225.3 248.9Q226.2 247.9 227.8 247.9L227.8 247.9Q229.3 247.9 230.3 248.9Q231.3 249.9 231.3 251.6L231.3 251.6L231.3 254.0L231.4 254.0Q232.1 251.3 233.9 249.6Q235.7 248.0 238.1 248.0L238.1 248.0Q239.8 248.0 240.7 248.8L240.7 248.8Q241.7 249.6 241.7 251.4L241.7 251.4Q241.7 253.1 240.6 254.0L240.6 254.0Q239.5 254.9 237.4 255.0L237.4 255.0Q231.6 255.0 231.6 261.4L231.6 261.4L231.6 276.3Q231.6 278.1 230.6 279.1ZM254.1 280.1L254.1 280.1Q249.5 280.1 246.6 277.5Q243.7 274.9 243.7 270.7L243.7 270.7Q243.7 266.6 246.8 264.2Q249.8 261.8 255.5 261.4L255.5 261.4L263.7 260.9L263.7 258.7Q263.7 256.3 262.2 254.9Q260.7 253.6 257.9 253.6L257.9 253.6Q255.8 253.6 254.3 254.4Q252.8 255.2 251.4 257.2L251.4 257.2Q250.3 258.7 248.5 258.7L248.5 258.7Q247.1 258.7 246.3 257.9Q245.4 257.1 245.4 255.8L245.4 255.8Q245.4 254.8 245.9 253.8L245.9 253.8Q247.1 251.1 250.4 249.5Q253.8 247.9 258.2 247.9L258.2 247.9Q264.0 247.9 267.5 250.7Q270.9 253.5 270.9 258.2L270.9 258.2L270.9 276.5Q270.9 278.2 270.0 279.2Q269.0 280.2 267.4 280.2L267.4 280.2Q265.9 280.2 264.9 279.3Q264.0 278.4 263.9 276.8L263.9 276.8L263.9 274.6L263.8 274.6Q262.5 277.1 259.8 278.6Q257.1 280.1 254.1 280.1ZM256.3 274.6L256.3 274.6Q259.4 274.6 261.6 272.7Q263.7 270.8 263.7 268.1L263.7 268.1L263.7 265.7L256.5 266.1Q253.9 266.3 252.4 267.4Q251.0 268.6 251.0 270.4L251.0 270.4Q251.0 272.3 252.4 273.4Q253.9 274.6 256.3 274.6ZM290.5 280.2L290.5 280.2Q283.6 280.2 279.6 275.9Q275.5 271.5 275.5 264.1L275.5 264.1Q275.5 256.7 279.6 252.3Q283.6 247.9 290.4 247.9L290.4 247.9Q294.9 247.9 298.5 250.0Q302.1 252.1 303.2 255.4L303.2 255.4Q303.6 256.4 303.6 257.1L303.6 257.1Q303.6 258.5 302.7 259.3Q301.8 260.1 300.4 260.1L300.4 260.1Q299.3 260.1 298.6 259.6Q297.9 259.1 297.2 258.0L297.2 258.0Q294.9 253.8 290.6 253.8L290.6 253.8Q287.1 253.8 285.0 256.6Q282.9 259.3 282.9 264.1L282.9 264.1Q282.9 268.9 285.0 271.6Q287.1 274.3 290.6 274.3L290.6 274.3Q294.9 274.3 297.2 270.3L297.2 270.3Q298.0 269.1 298.7 268.6Q299.4 268.1 300.6 268.1L300.6 268.1Q301.9 268.1 302.8 268.9Q303.6 269.7 303.6 271.1L303.6 271.1Q303.6 271.9 303.2 272.9L303.2 272.9Q301.9 276.1 298.4 278.2Q294.8 280.2 290.5 280.2ZM310.6 271.9L310.6 271.9L310.6 254.1L308.6 254.1Q307.2 254.1 306.5 253.4Q305.7 252.6 305.7 251.3L305.7 251.3Q305.7 250.0 306.4 249.3Q307.2 248.5 308.6 248.5L308.6 248.5L310.6 248.5L310.6 244.4Q310.6 242.6 311.5 241.6Q312.5 240.6 314.2 240.6L314.2 240.6Q315.9 240.6 316.9 241.6Q317.9 242.6 317.9 244.4L317.9 244.4L317.9 248.5L321.2 248.5Q322.6 248.5 323.4 249.3Q324.2 250.0 324.2 251.3L324.2 251.3Q324.2 252.6 323.4 253.4Q322.6 254.1 321.2 254.1L321.2 254.1L317.9 254.1L317.9 270.3Q317.9 272.1 318.5 272.9Q319.2 273.7 320.8 273.9L320.8 273.9L321.3 273.9Q324.2 274.2 324.2 276.6L324.2 276.6Q324.2 278.2 322.9 279.1Q321.5 279.9 319.0 279.9L319.0 279.9L318.7 279.9Q310.6 279.9 310.6 271.9ZM333.8 272.1L333.8 272.1Q335.3 272.1 336.2 272.9Q337.1 273.7 337.1 275.1L337.1 275.1Q337.1 276.0 336.8 276.8L336.8 276.8L334.3 286.8Q334.0 288.1 333.3 288.7Q332.6 289.3 331.3 289.3Q330.0 289.3 329.3 288.5Q328.5 287.8 328.6 286.6L328.6 286.6Q328.6 286.2 328.7 286.0L328.7 286.0L330.4 275.2Q330.8 272.1 333.8 272.1Z M361.2 280.1L361.2 280.1Q359.5 280.1 358.5 279.1Q357.5 278.1 357.5 276.3L357.5 276.3L357.5 240.7Q357.5 238.9 358.6 237.8Q359.7 236.8 361.5 236.8L361.5 236.8Q362.7 236.8 363.6 237.3Q364.5 237.8 365.4 239.1L365.4 239.1L385.1 266.9L385.4 266.9L385.4 240.6Q385.4 238.8 386.3 237.8Q387.3 236.8 389.0 236.8L389.0 236.8Q390.7 236.8 391.7 237.8Q392.6 238.8 392.6 240.6L392.6 240.6L392.6 276.3Q392.6 278.1 391.6 279.1Q390.6 280.1 388.8 280.1L388.8 280.1Q387.5 280.1 386.6 279.6Q385.8 279.1 384.9 277.8L384.9 277.8L365.1 249.9L364.8 249.9L364.8 276.3Q364.8 278.1 363.9 279.1Q362.9 280.1 361.2 280.1ZM424.1 275.9Q420.0 280.2 413.1 280.2Q406.2 280.2 402.1 275.9Q398.1 271.6 398.1 264.1L398.1 264.1Q398.1 256.6 402.2 252.2Q406.3 247.9 413.1 247.9L413.1 247.9Q420.0 247.9 424.0 252.2Q428.1 256.6 428.1 264.1L428.1 264.1Q428.1 271.6 424.1 275.9ZM407.5 271.7Q409.6 274.4 413.1 274.4Q416.6 274.4 418.7 271.7Q420.7 269.0 420.7 264.1L420.7 264.1Q420.7 259.2 418.7 256.4Q416.6 253.7 413.1 253.7L413.1 253.7Q409.6 253.7 407.5 256.4Q405.5 259.2 405.5 264.1L405.5 264.1Q405.5 269.0 407.5 271.7ZM434.8 271.9L434.8 271.9L434.8 254.1L432.9 254.1Q431.5 254.1 430.7 253.4Q429.9 252.6 429.9 251.3L429.9 251.3Q429.9 250.0 430.7 249.3Q431.5 248.5 432.9 248.5L432.9 248.5L434.8 248.5L434.8 244.4Q434.8 242.6 435.8 241.6Q436.8 240.6 438.5 240.6L438.5 240.6Q440.2 240.6 441.1 241.6Q442.1 242.6 442.1 244.4L442.1 244.4L442.1 248.5L445.5 248.5Q446.9 248.5 447.7 249.3Q448.4 250.0 448.4 251.3L448.4 251.3Q448.4 252.6 447.6 253.4Q446.8 254.1 445.5 254.1L445.5 254.1L442.1 254.1L442.1 270.3Q442.1 272.1 442.8 272.9Q443.5 273.7 445.1 273.9L445.1 273.9L445.6 273.9Q448.5 274.2 448.5 276.6L448.5 276.6Q448.5 278.2 447.2 279.1Q445.8 279.9 443.3 279.9L443.3 279.9L443.0 279.9Q434.8 279.9 434.8 271.9Z M478.1 280.1L478.1 280.1Q476.3 280.1 475.3 279.2Q474.3 278.3 473.7 276.3L473.7 276.3L464.3 242.6Q464.0 241.3 464.0 240.2L464.0 240.2Q464.0 238.7 465.0 237.7Q466.0 236.8 467.7 236.8L467.7 236.8Q470.6 236.8 471.3 240.0L471.3 240.0L478.4 269.3L478.6 269.3L486.4 240.4Q486.9 238.5 487.8 237.7Q488.8 236.8 490.5 236.8L490.5 236.8Q493.6 236.8 494.5 240.3L494.5 240.3L502.3 269.3L502.5 269.3L509.6 240.0Q510.3 236.8 513.3 236.8L513.3 236.8Q515.0 236.8 516.0 237.7Q517.0 238.7 517.0 240.2L517.0 240.2Q517.0 241.2 516.6 242.6L516.6 242.6L507.2 276.3Q506.7 278.3 505.6 279.2Q504.6 280.1 502.9 280.1L502.9 280.1Q501.1 280.1 500.0 279.2Q499.0 278.3 498.4 276.3L498.4 276.3L490.6 249.0L490.3 249.0L482.5 276.3Q482.0 278.3 480.9 279.2Q479.9 280.1 478.1 280.1ZM546.7 275.9Q542.6 280.2 535.7 280.2Q528.8 280.2 524.7 275.9Q520.7 271.6 520.7 264.1L520.7 264.1Q520.7 256.6 524.8 252.2Q528.9 247.9 535.7 247.9L535.7 247.9Q542.6 247.9 546.6 252.2Q550.7 256.6 550.7 264.1L550.7 264.1Q550.7 271.6 546.7 275.9ZM530.1 271.7Q532.2 274.4 535.7 274.4Q539.2 274.4 541.3 271.7Q543.3 269.0 543.3 264.1L543.3 264.1Q543.3 259.2 541.3 256.4Q539.2 253.7 535.7 253.7L535.7 253.7Q532.2 253.7 530.2 256.4Q528.1 259.2 528.1 264.1L528.1 264.1Q528.1 269.0 530.1 271.7ZM561.7 279.1Q560.7 280.2 559.1 280.2Q557.4 280.2 556.4 279.1Q555.4 278.1 555.4 276.3L555.4 276.3L555.4 251.6Q555.4 249.9 556.4 248.9Q557.3 247.9 558.9 247.9L558.9 247.9Q560.4 247.9 561.4 248.9Q562.4 249.9 562.4 251.6L562.4 251.6L562.4 254.0L562.5 254.0Q563.2 251.3 565.0 249.6Q566.8 248.0 569.2 248.0L569.2 248.0Q570.9 248.0 571.7 248.8L571.7 248.8Q572.8 249.6 572.8 251.4L572.8 251.4Q572.8 253.1 571.7 254.0L571.7 254.0Q570.6 254.9 568.5 255.0L568.5 255.0Q562.7 255.0 562.7 261.4L562.7 261.4L562.7 276.3Q562.7 278.1 561.7 279.1ZM578.1 271.9L578.1 271.9L578.1 254.1L576.1 254.1Q574.8 254.1 574.0 253.4Q573.2 252.6 573.2 251.3L573.2 251.3Q573.2 250.0 574.0 249.3Q574.7 248.5 576.1 248.5L576.1 248.5L578.1 248.5L578.1 244.4Q578.1 242.6 579.0 241.6Q580.0 240.6 581.7 240.6L581.7 240.6Q583.4 240.6 584.4 241.6Q585.4 242.6 585.4 244.4L585.4 244.4L585.4 248.5L588.7 248.5Q590.1 248.5 590.9 249.3Q591.7 250.0 591.7 251.3L591.7 251.3Q591.7 252.6 590.9 253.4Q590.1 254.1 588.7 254.1L588.7 254.1L585.4 254.1L585.4 270.3Q585.4 272.1 586.0 272.9Q586.7 273.7 588.3 273.9L588.3 273.9L588.8 273.9Q591.7 274.2 591.7 276.6L591.7 276.6Q591.7 278.2 590.4 279.1Q589.1 279.9 586.5 279.9L586.5 279.9L586.2 279.9Q578.1 279.9 578.1 271.9ZM602.7 279.2Q601.7 280.2 600.0 280.2Q598.4 280.2 597.4 279.2Q596.4 278.1 596.4 276.3L596.4 276.3L596.4 240.5Q596.4 238.7 597.3 237.7Q598.3 236.7 600.0 236.7L600.0 236.7Q601.7 236.7 602.6 237.7Q603.6 238.7 603.6 240.5L603.6 240.5L603.6 253.9L603.7 253.9Q605.0 251.0 607.5 249.5Q610.0 247.9 613.5 247.9L613.5 247.9Q618.6 247.9 621.5 251.1Q624.4 254.2 624.4 259.6L624.4 259.6L624.4 276.3Q624.4 278.1 623.4 279.2Q622.4 280.2 620.8 280.2Q619.1 280.2 618.1 279.2Q617.1 278.1 617.1 276.3L617.1 276.3L617.1 261.1Q617.1 257.8 615.5 255.9Q613.9 254.1 610.7 254.1L610.7 254.1Q607.5 254.1 605.6 256.2Q603.7 258.3 603.7 261.7L603.7 261.7L603.7 276.3Q603.7 278.1 602.7 279.2Z M646.8 280.1L646.8 280.1Q645.0 280.1 644.0 279.0Q643.0 278.0 643.0 276.2L643.0 276.2L643.0 241.2Q643.0 239.4 644.0 238.3Q645.0 237.3 646.8 237.3L646.8 237.3L659.4 237.3Q665.8 237.3 669.7 241.2Q673.7 245.1 673.7 251.5L673.7 251.5Q673.7 257.8 669.6 261.7Q665.5 265.6 659.1 265.6L659.1 265.6L650.5 265.6L650.5 276.2Q650.5 278.0 649.6 279.1Q648.6 280.1 646.8 280.1ZM650.5 243.5L650.5 259.5L657.4 259.5Q661.5 259.5 663.7 257.4Q666.0 255.3 666.0 251.5L666.0 251.5Q666.0 247.6 663.7 245.6Q661.5 243.5 657.4 243.5L657.4 243.5L650.5 243.5ZM689.3 280.1L689.3 280.1Q684.2 280.1 681.3 277.0Q678.3 274.0 678.3 268.6L678.3 268.6L678.3 251.7Q678.3 250.0 679.3 248.9Q680.3 247.9 681.9 247.9Q683.6 247.9 684.6 248.9Q685.6 250.0 685.6 251.8L685.6 251.8L685.6 267.1Q685.6 270.5 687.2 272.2Q688.8 274.0 691.9 274.0L691.9 274.0Q695.0 274.0 696.8 271.9Q698.7 269.9 698.7 266.5L698.7 266.5L698.7 251.7Q698.7 250.0 699.7 248.9Q700.7 247.9 702.3 247.9L702.3 247.9Q704.0 247.9 705.0 248.9Q706.0 250.0 706.0 251.8L706.0 251.8L706.0 276.5Q706.0 278.2 705.0 279.2Q704.1 280.2 702.5 280.2L702.5 280.2Q700.9 280.2 699.9 279.2Q698.9 278.2 698.9 276.5L698.9 276.5L698.9 274.2L698.8 274.2Q696.2 280.1 689.3 280.1ZM718.3 279.2Q717.3 280.2 715.7 280.2Q714.1 280.2 713.1 279.2Q712.1 278.3 712.1 276.5L712.1 276.5L712.1 240.6Q712.1 238.7 713.1 237.7Q714.2 236.7 715.8 236.7Q717.4 236.7 718.4 237.7Q719.4 238.7 719.4 240.6L719.4 240.6L719.4 253.9L719.6 253.9Q720.9 251.1 723.5 249.5Q726.0 248.0 729.3 248.0L729.3 248.0Q735.2 248.0 738.7 252.3Q742.1 256.6 742.1 264.1L742.1 264.1Q742.1 271.5 738.7 275.8Q735.2 280.1 729.3 280.1L729.3 280.1Q725.9 280.1 723.4 278.6Q720.8 277.0 719.4 274.3L719.4 274.3L719.3 274.3L719.3 276.5Q719.3 278.2 718.3 279.2ZM727.1 274.1L727.1 274.1Q730.6 274.1 732.6 271.4Q734.7 268.7 734.7 264.1Q734.7 259.4 732.6 256.7Q730.6 254.0 727.1 254.0L727.1 254.0Q723.7 254.0 721.5 256.8Q719.4 259.5 719.4 264.1L719.4 264.1Q719.4 268.6 721.5 271.3Q723.7 274.1 727.1 274.1ZM753.3 279.2Q752.3 280.2 750.7 280.2Q749.0 280.2 748.0 279.2Q747.0 278.1 747.0 276.3L747.0 276.3L747.0 240.6Q747.0 238.7 748.0 237.7Q749.0 236.7 750.7 236.7Q752.3 236.7 753.3 237.7Q754.3 238.7 754.3 240.6L754.3 240.6L754.3 276.3Q754.3 278.1 753.3 279.2ZM767.2 243.0Q766.0 244.2 764.3 244.2Q762.6 244.2 761.5 243.0Q760.3 241.8 760.3 240.2L760.3 240.2Q760.3 238.5 761.5 237.4Q762.6 236.2 764.3 236.2L764.3 236.2Q766.1 236.2 767.2 237.4Q768.4 238.5 768.4 240.2L768.4 240.2Q768.4 241.8 767.2 243.0ZM767.0 279.1Q766.0 280.2 764.3 280.2Q762.7 280.2 761.7 279.1Q760.7 278.1 760.7 276.3L760.7 276.3L760.7 251.7Q760.7 250.0 761.7 248.9Q762.7 247.9 764.3 247.9Q766.0 247.9 767.0 248.9Q768.0 250.0 768.0 251.8L768.0 251.8L768.0 276.3Q768.0 278.1 767.0 279.1ZM786.1 280.2L786.1 280.2Q781.3 280.2 777.9 278.5Q774.6 276.8 773.4 274.0L773.4 274.0Q773.2 273.2 773.2 272.5L773.2 272.5Q773.2 271.2 774.0 270.4Q774.9 269.6 776.2 269.6L776.2 269.6Q778.0 269.6 779.4 271.4L779.4 271.4Q780.6 273.3 782.2 274.1Q783.8 274.9 786.4 274.9L786.4 274.9Q788.9 274.9 790.5 273.9Q792.0 272.8 792.0 271.1L792.0 271.1Q792.0 269.7 791.0 268.8Q790.0 268.0 787.7 267.4L787.7 267.4L782.6 266.3Q773.6 264.3 773.6 257.4L773.6 257.4Q773.6 253.1 777.0 250.5Q780.5 247.9 786.2 247.9L786.2 247.9Q790.6 247.9 793.8 249.8Q797.1 251.6 797.8 254.4L797.8 254.4Q797.9 255.0 797.9 255.5L797.9 255.5Q797.9 256.6 797.2 257.4Q796.5 258.1 795.1 258.1L795.1 258.1Q793.3 258.1 792.3 256.7L792.3 256.7Q791.2 255.0 789.7 254.1Q788.2 253.2 786.0 253.2L786.0 253.2Q783.6 253.2 782.1 254.3Q780.7 255.3 780.7 257.0L780.7 257.0Q780.7 259.8 785.2 260.8L785.2 260.8L790.2 261.9Q795.1 263.0 797.2 264.9Q799.3 266.9 799.3 270.3L799.3 270.3Q799.3 274.8 795.7 277.5Q792.1 280.2 786.1 280.2ZM810.4 279.2Q809.5 280.2 807.8 280.2Q806.2 280.2 805.2 279.2Q804.2 278.1 804.2 276.3L804.2 276.3L804.2 240.5Q804.2 238.7 805.1 237.7Q806.1 236.7 807.8 236.7L807.8 236.7Q809.5 236.7 810.4 237.7Q811.4 238.7 811.4 240.5L811.4 240.5L811.4 253.9L811.5 253.9Q812.8 251.0 815.3 249.5Q817.8 247.9 821.3 247.9L821.3 247.9Q826.4 247.9 829.3 251.1Q832.2 254.2 832.2 259.6L832.2 259.6L832.2 276.3Q832.2 278.1 831.2 279.2Q830.2 280.2 828.5 280.2Q826.9 280.2 825.9 279.2Q824.9 278.1 824.9 276.3L824.9 276.3L824.9 261.1Q824.9 257.8 823.3 255.9Q821.6 254.1 818.5 254.1L818.5 254.1Q815.2 254.1 813.3 256.2Q811.4 258.3 811.4 261.7L811.4 261.7L811.4 276.3Q811.4 278.1 810.4 279.2ZM844.7 243.0Q843.5 244.2 841.8 244.2Q840.1 244.2 839.0 243.0Q837.8 241.8 837.8 240.2L837.8 240.2Q837.8 238.5 839.0 237.4Q840.1 236.2 841.8 236.2L841.8 236.2Q843.6 236.2 844.7 237.4Q845.9 238.5 845.9 240.2L845.9 240.2Q845.9 241.8 844.7 243.0ZM844.5 279.1Q843.5 280.2 841.8 280.2Q840.2 280.2 839.2 279.1Q838.2 278.1 838.2 276.3L838.2 276.3L838.2 251.7Q838.2 250.0 839.2 248.9Q840.2 247.9 841.8 247.9Q843.5 247.9 844.5 248.9Q845.5 250.0 845.5 251.8L845.5 251.8L845.5 276.3Q845.5 278.1 844.5 279.1ZM857.9 279.2Q856.9 280.2 855.2 280.2Q853.6 280.2 852.6 279.2Q851.6 278.1 851.6 276.3L851.6 276.3L851.6 251.6Q851.6 249.9 852.5 248.9Q853.5 247.9 855.1 247.9Q856.7 247.9 857.7 248.9Q858.7 249.9 858.7 251.6L858.7 251.6L858.7 253.8L858.8 253.8Q861.5 247.9 868.5 247.9L868.5 247.9Q873.6 247.9 876.4 251.0Q879.3 254.1 879.3 259.5L879.3 259.5L879.3 276.3Q879.3 278.1 878.3 279.2Q877.3 280.2 875.6 280.2Q874.0 280.2 873.0 279.2Q872.0 278.1 872.0 276.3L872.0 276.3L872.0 261.0Q872.0 257.6 870.4 255.9Q868.8 254.1 865.8 254.1L865.8 254.1Q862.6 254.1 860.8 256.2Q858.9 258.2 858.9 261.6L858.9 261.6L858.9 276.3Q858.9 278.1 857.9 279.2ZM898.5 291.3L898.5 291.3Q894.1 291.2 890.8 289.7Q887.5 288.2 885.9 285.6L885.9 285.6Q885.3 284.6 885.3 283.4L885.3 283.4Q885.3 282.2 886.1 281.4Q886.9 280.6 888.3 280.6L888.3 280.6Q889.7 280.6 891.0 281.8L891.0 281.8Q892.9 283.7 894.6 284.6Q896.4 285.4 898.5 285.5L898.5 285.5Q902.2 285.5 904.3 283.6Q906.5 281.7 906.5 278.6L906.5 278.6L906.5 273.7L906.3 273.7Q905.1 276.2 902.5 277.7Q899.9 279.3 896.6 279.3L896.6 279.3Q890.7 279.3 887.3 275.0Q883.8 270.8 883.8 263.7L883.8 263.7Q883.8 256.4 887.3 252.2Q890.7 248.0 896.7 248.0L896.7 248.0Q900.0 248.0 902.5 249.5Q905.0 251.1 906.4 253.8L906.4 253.8L906.5 253.8L906.5 251.6Q906.5 249.9 907.5 248.9Q908.5 247.9 910.1 247.9Q911.8 247.9 912.8 248.9Q913.8 249.9 913.8 251.6L913.8 251.6L913.8 278.6Q913.8 284.5 909.7 287.9Q905.6 291.3 898.5 291.3ZM898.8 273.6L898.8 273.6Q902.3 273.6 904.4 270.9Q906.5 268.3 906.5 263.7L906.5 263.7Q906.5 259.2 904.4 256.5Q902.3 253.8 898.8 253.8L898.8 253.8Q895.4 253.8 893.3 256.5Q891.3 259.2 891.3 263.7L891.3 263.7Q891.3 268.3 893.3 271.0Q895.4 273.6 898.8 273.6Z "/><defs><clipPath id="satori_bc-id-0-1"><rect x="0" y="441" width="1200" height="189"/></clipPath></defs><mask id="satori_om-id-0-1"><rect x="0" y="442" width="1200" height="188" fill="#fff"/><path width="1200" height="189" fill="none" stroke="#000" stroke-width="2" d="M0,441 A0,0 0 0 1 0,441 h1200 A0,0 0 0 1 1200,441"/></mask><path width="1200" height="189" clip-path="url(#satori_bc-id-0-1)" fill="none" stroke="#dbdbdb" stroke-width="2" d="M0,441 A0,0 0 0 1 0,441 h1200 A0,0 0 0 1 1200,441"/><mask id="satori_om-id-0-1-0"><rect x="40" y="482" width="292" height="108" fill="#fff"/></mask><clipPath id="satori_cp-id-0-1-0-0"><rect x="40" y="504" width="64" height="64"/></clipPath><mask id="satori_om-id-0-1-0-0"><rect x="40" y="504" width="64" height="64" fill="#fff"/></mask><image x="40" y="504" width="64" height="64" href="data:image/svg+xml;utf8,%3Csvg  xmlns=%22http://www.w3.org/2000/svg%22 width=%2264%22 height=%2264%22 viewBox=%220 0 128 128%22%3E%3Cpath fill=%22%23224d67%22 d=%22M22.5 14.8c2.9 1.3 99 44 99 44c2.7 1.2 2.9 3.1 2 12.4c-1 10.5-1.9 37.8-40.2 42.9c-24.6 3.2-55.9-4.3-70.9-27.2C-6 58.8 11 23.4 14.8 17.7c2.4-3.5 4.8-4.2 7.7-2.9%22%3E%3C/path%3E%3Cpath fill=%22%23f0f4c3%22 d=%22M121.5 58.8c-.3-.2-92-40.8-98.9-43.9C9.6 31.5-3.8 76 27.9 96.2c33.6 21.5 78.7-10.2 93.6-37.4%22%3E%3C/path%3E%3Cpath fill=%22%23f0f4c3%22 d=%22M117.7 57c-.3-.2-86.7-38.4-93.2-41.3c-12.2 15.5-23.9 59.1 5.7 78c31.4 20.2 73.6-11.2 87.5-36.7%22%3E%3C/path%3E%3Cpath fill=%22%23cb2a42%22 d=%22M56.2 37.6L19.5 48.2c-2.5.8-4.4 2.8-5 5.3c-1.9 8.5.8 23.3 8.9 29.8c3.5 2.7 8.6 1.8 10.8-2.1L58.5 41c1.3-1.7.5-4.2-2.3-3.4m14.3 2.9s14.6 30.1 16 33s6.3 4.7 9.9 2.8c10.7-5.6 15.5-12.4 19.2-20.2c-8.9-3.9-42.4-18.8-42.4-18.8c-2.4-1.1-4 .6-2.7 3.2m-8.6 1.9C60.3 45.1 39.5 81 37.6 84.1c-1.9 3.2-.7 7.5 2.7 9.2c12.3 6.5 30.9.4 39.6-7c2.2-1.9 4.5-5.1 3.2-8.2S68.9 44.6 67.8 42.3c-1.2-2.7-4.1-2.8-5.9.1%22%3E%3C/path%3E%3Cpath fill=%22%23f0f4c3%22 d=%22M52.2 42.2c-1.4.4-10.1 3-11.1 3.4c-1.4.5-2.2 1.7-1.9 2.5c.3.9 1.7 1.1 3.1.6c.8-.3 7.1-3.9 9.5-5.2c-3.1 2.4-10.2 9.4-11.1 10.3c-1.4 1.5-1.7 3.4-.8 4.3c1 .9 2.9.5 4.3-1c1.2-1.3 8.5-12.8 9.1-13.9s.4-1.4-1.1-1m10.1 16.4c0-2.2 1.4-10.3 1.8-12.3c.4-1.6 1.5-1.8 1.8.5s1.7 9.7 1.7 11.8s-1.2 3.3-2.7 3.3c-1.4 0-2.6-1.1-2.6-3.3M79.9 49c-1.2-1.8-3.3-4.9-4.1-6.1c-.7-1.2.1-2.1 1.8-.9s4 2.9 5.4 4c1.6 1.3 1.9 3 .8 4s-2.7.8-3.9-1%22%3E%3C/path%3E%3Cellipse cx=%2287.3%22 cy=%22103.12%22 fill=%22%23cb2a42%22 rx=%223.4%22 ry=%222.3%22 transform=%22rotate(-27.098 87.298 103.126)%22%3E%3C/ellipse%3E%3Cellipse cx=%2298.89%22 cy=%22103.82%22 fill=%22%23cb2a42%22 rx=%223.4%22 ry=%222.3%22 transform=%22rotate(-30.642 98.887 103.818)%22%3E%3C/ellipse%3E%3Cellipse cx=%22102.02%22 cy=%2293.8%22 fill=%22%23cb2a42%22 rx=%223.4%22 ry=%222.3%22 transform=%22rotate(-37.16 102.017 93.797)%22%3E%3C/ellipse%3E%3Cpath fill=%22%23cb2a42%22 d=%22M57.6 30.3c-8.3-3.7-24.4-10.7-29.6-13c-3.6 2.2-9.7 11.4-11.2 21.2c-.6 3.6 1.7 5.9 5.3 4.9c0 0 33.7-9.3 35.3-9.7c1.6-.5 2-2.6.2-3.4%22%3E%3C/path%3E%3C/svg%3E" preserveAspectRatio="none" clip-path="url(#satori_cp-id-0-1-0-0)" mask="url(#satori_om-id-0-1-0-0)"/><mask id="satori_om-id-0-1-0-0-0"><rect x="40" y="504" width="0" height="64" fill="#fff"/></mask><mask id="satori_om-id-0-1-0-0-1"><rect x="40" y="504" width="0" height="64" fill="#fff"/></mask><mask id="satori_om-id-0-1-0-0-2"><rect x="40" y="504" width="0" height="64" fill="#fff"/></mask><mask id="satori_om-id-0-1-0-0-3"><rect x="40" y="504" width="0" height="64" fill="#fff"/></mask><mask id="satori_om-id-0-1-0-0-4"><rect x="40" y="504" width="0" height="64" fill="#fff"/></mask><mask id="satori_om-id-0-1-0-0-5"><rect x="40" y="504" width="0" height="64" fill="#fff"/></mask><mask id="satori_om-id-0-1-0-0-6"><rect x="40" y="504" width="0" height="64" fill="#fff"/></mask><mask id="satori_om-id-0-1-0-0-7"><rect x="40" y="504" width="0" height="64" fill="#fff"/></mask><mask id="satori_om-id-0-1-0-0-8"><rect x="40" y="504" width="0" height="64" fill="#fff"/></mask><mask id="satori_om-id-0-1-0-1"><rect x="116" y="512" width="216" height="48" fill="#fff"/></mask><path fill="#545454" d="M121.1 553.5L121.1 553.5Q119.4 553.5 118.4 552.6Q117.5 551.7 117.5 550.2L117.5 550.2Q117.5 549.3 117.9 547.9L117.9 547.9L127.2 522.8Q127.9 520.7 129.2 519.7Q130.5 518.8 132.5 518.8L132.5 518.8Q134.6 518.8 135.9 519.7Q137.2 520.7 137.9 522.8L137.9 522.8L147.2 547.9Q147.6 549.2 147.6 550.2L147.6 550.2Q147.6 551.6 146.6 552.6Q145.6 553.5 144.1 553.5L144.1 553.5Q142.6 553.5 141.7 552.8Q140.9 552.1 140.4 550.4L140.4 550.4L138.6 545.0L126.4 545.0L124.6 550.3Q124.2 552.0 123.3 552.8Q122.5 553.5 121.1 553.5ZM132.4 525.7L128.0 539.6L137 539.6L132.5 525.7L132.4 525.7ZM159.1 552.6Q158.2 553.6 156.6 553.6Q155.0 553.6 154.1 552.6Q153.2 551.7 153.2 550.0L153.2 550.0L153.2 533.1L151.9 533.1Q150.8 533.1 150.1 532.4Q149.4 531.7 149.4 530.6Q149.4 529.4 150.1 528.7Q150.8 528.1 151.9 528.1L151.9 528.1L153.2 528.1L153.2 526.2Q153.2 522.5 155.0 520.7Q156.7 519.0 160.3 518.9L160.3 518.9Q163.0 518.9 164.2 519.7Q165.5 520.4 165.5 521.7L165.5 521.7Q165.5 523.1 164.1 523.5L164.1 523.5Q163.5 523.7 162.8 523.7L162.8 523.7Q161.2 523.7 160.5 524.4Q159.9 525.1 159.9 526.5L159.9 526.5L159.9 528.1L162.7 528.1Q163.8 528.1 164.5 528.7Q165.2 529.4 165.2 530.6Q165.2 531.7 164.5 532.4Q163.8 533.1 162.7 533.1L162.7 533.1L160.0 533.1L160.0 550.0Q160.0 551.7 159.1 552.6ZM170.3 546.6L170.3 546.6L170.3 533.1L168.9 533.1Q167.7 533.1 167.0 532.4Q166.3 531.7 166.3 530.5Q166.3 529.3 167.0 528.6Q167.7 527.9 168.9 527.9L168.9 527.9L170.3 527.9L170.3 525.1Q170.3 523.5 171.2 522.5Q172.1 521.6 173.7 521.6Q175.3 521.6 176.2 522.5Q177.1 523.5 177.1 525.1L177.1 525.1L177.1 527.9L179.5 527.9Q180.7 527.9 181.4 528.6Q182.1 529.3 182.1 530.5Q182.1 531.7 181.4 532.4Q180.7 533.1 179.5 533.1L179.5 533.1L177.1 533.1L177.1 545.1Q177.1 546.5 177.6 547.1Q178.1 547.7 179.2 547.8L179.2 547.8L179.6 547.8Q180.9 548.0 181.6 548.5Q182.2 549.1 182.2 550.3L182.2 550.3Q182.2 551.8 180.9 552.6Q179.6 553.3 177.4 553.3L177.4 553.3L177.1 553.3Q170.3 553.3 170.3 546.6ZM197.0 553.6L197.0 553.6Q191.2 553.6 187.9 550.2Q184.6 546.7 184.6 540.6L184.6 540.6Q184.6 534.5 187.9 531.0Q191.1 527.4 196.7 527.4L196.7 527.4Q202.0 527.4 205.3 530.7Q208.6 533.9 208.6 539.1L208.6 539.1Q208.6 540.5 207.9 541.3Q207.1 542.1 205.6 542.1L205.6 542.1L191.3 542.1L191.3 542.4Q191.3 545.2 192.9 546.9Q194.4 548.5 197.0 548.5L197.0 548.5Q198.9 548.5 200.3 547.8Q201.6 547.2 203.0 545.5L203.0 545.5Q204.0 544.5 205.3 544.5L205.3 544.5Q206.4 544.5 207.2 545.2Q207.9 545.9 207.9 547.0L207.9 547.0Q207.9 547.8 207.5 548.7L207.5 548.7Q206.2 551 203.4 552.3Q200.7 553.6 197.0 553.6ZM191.4 537.9L191.4 537.9L202.0 537.9Q201.9 535.4 200.5 533.9Q199.0 532.5 196.8 532.5Q194.5 532.5 193.1 534.0Q191.6 535.5 191.4 537.9ZM215.6 553.6L215.6 553.6Q214.0 553.6 213.1 552.6Q212.1 551.7 212.1 550.0L212.1 550.0L212.1 530.9Q212.1 529.3 213.0 528.3Q213.9 527.4 215.4 527.4L215.4 527.4Q216.9 527.4 217.8 528.3Q218.7 529.3 218.7 530.9L218.7 530.9L218.7 532.5L218.8 532.5Q219.3 530.2 220.7 528.9Q222.1 527.5 224.0 527.5L224.0 527.5Q225.4 527.5 226.2 528.2L226.2 528.2Q227.2 528.9 227.2 530.7L227.2 530.7Q227.2 532.3 226.2 533.2L226.2 533.2Q225.2 534.0 223.2 534.1L223.2 534.1Q221.0 534.1 220.0 535.3Q219.0 536.5 219.0 538.8L219.0 538.8L219.0 550.0Q219.0 551.7 218.1 552.6Q217.2 553.6 215.6 553.6ZM242.6 553.6L242.6 553.6Q237.5 553.6 234.1 551.8Q230.8 550.0 229.7 547.1L229.7 547.1Q229.4 546.1 229.4 545.2L229.4 545.2Q229.4 543.8 230.2 543.0Q231.1 542.1 232.5 542.1L232.5 542.1Q233.6 542.1 234.3 542.6Q235.1 543.1 235.7 544.2L235.7 544.2Q236.5 546.1 238.4 547.0Q240.2 547.9 242.7 547.9L242.7 547.9Q245.6 547.9 247.3 546.7Q249.1 545.5 249.1 543.6L249.1 543.6Q249.1 541.9 247.8 540.9Q246.4 539.9 243.3 539.3L243.3 539.3L239.7 538.6Q229.6 536.6 229.6 528.9L229.6 528.9Q229.6 525.9 231.3 523.5Q232.9 521.2 235.9 519.9Q238.8 518.7 242.5 518.7L242.5 518.7Q247.2 518.7 250.5 520.5Q253.8 522.4 254.9 525.7L254.9 525.7Q255.1 526.4 255.1 527.2L255.1 527.2Q255.1 528.5 254.3 529.3Q253.5 530.1 252.1 530.1L252.1 530.1Q250.9 530.1 250.1 529.6Q249.4 529.1 248.8 528.0L248.8 528.0Q247.2 524.4 242.5 524.4L242.5 524.4Q239.9 524.4 238.3 525.5Q236.7 526.6 236.7 528.5L236.7 528.5Q236.7 530.1 238.1 531.1Q239.4 532.1 242.4 532.7L242.4 532.7L245.9 533.4Q251.3 534.5 253.7 536.7Q256.2 539.0 256.2 542.8L256.2 542.8Q256.2 547.8 252.5 550.7Q248.9 553.6 242.6 553.6ZM266.0 552.6Q265.0 553.6 263.5 553.6Q261.9 553.6 261.0 552.6Q260.1 551.7 260.1 550.0L260.1 550.0L260.1 522.2Q260.1 520.6 261.0 519.7Q261.9 518.7 263.4 518.7L263.4 518.7Q265.0 518.7 265.9 519.7Q266.8 520.6 266.8 522.2L266.8 522.2L266.8 532.4L266.9 532.4Q267.9 530.0 270.0 528.7Q272 527.5 274.8 527.5L274.8 527.5Q279.0 527.5 281.3 530.0Q283.6 532.5 283.6 536.9L283.6 536.9L283.6 550.0Q283.6 551.7 282.7 552.6Q281.7 553.6 280.2 553.6Q278.6 553.6 277.7 552.6Q276.8 551.7 276.8 550.0L276.8 550.0L276.8 538.3Q276.8 535.9 275.6 534.5Q274.3 533.1 272.0 533.1L272.0 533.1Q269.7 533.1 268.3 534.7Q266.9 536.2 266.9 538.7L266.9 538.7L266.9 550.0Q266.9 551.7 266.0 552.6ZM294.1 523.8Q293.0 524.8 291.5 524.8Q290.0 524.8 288.9 523.8Q287.8 522.8 287.8 521.3L287.8 521.3Q287.8 519.8 288.9 518.8Q290.0 517.7 291.5 517.7Q293.0 517.7 294.1 518.8Q295.2 519.8 295.2 521.3L295.2 521.3Q295.2 522.8 294.1 523.8ZM294.0 552.6Q293.1 553.6 291.5 553.6Q289.9 553.6 289.0 552.6Q288.1 551.7 288.1 550.0L288.1 550.0L288.1 531.0Q288.1 529.3 289.0 528.4Q289.9 527.4 291.5 527.4Q293.1 527.4 294.0 528.4Q294.9 529.3 294.9 531.0L294.9 531.0L294.9 550.0Q294.9 551.7 294.0 552.6ZM307.2 552.6Q306.3 553.6 304.7 553.6Q303.1 553.6 302.2 552.6Q301.3 551.7 301.3 550.0L301.3 550.0L301.3 533.1L300.0 533.1Q298.9 533.1 298.2 532.4Q297.5 531.7 297.5 530.6Q297.5 529.4 298.2 528.7Q298.9 528.1 300.0 528.1L300.0 528.1L301.3 528.1L301.3 526.2Q301.3 522.5 303.1 520.7Q304.9 519.0 308.5 518.9L308.5 518.9Q311.1 518.9 312.4 519.7Q313.6 520.4 313.6 521.7L313.6 521.7Q313.6 523.1 312.2 523.5L312.2 523.5Q311.6 523.7 310.9 523.7L310.9 523.7Q309.4 523.7 308.7 524.4Q308.0 525.1 308.0 526.5L308.0 526.5L308.0 528.1L310.9 528.1Q312.0 528.1 312.7 528.7Q313.4 529.4 313.4 530.6Q313.4 531.7 312.7 532.4Q312.0 533.1 310.9 533.1L310.9 533.1L308.1 533.1L308.1 550.0Q308.1 551.7 307.2 552.6ZM318.4 546.6L318.4 546.6L318.4 533.1L317.1 533.1Q315.9 533.1 315.1 532.4Q314.4 531.7 314.4 530.5Q314.4 529.3 315.1 528.6Q315.9 527.9 317.1 527.9L317.1 527.9L318.4 527.9L318.4 525.1Q318.4 523.5 319.3 522.5Q320.2 521.6 321.8 521.6Q323.4 521.6 324.3 522.5Q325.2 523.5 325.2 525.1L325.2 525.1L325.2 527.9L327.6 527.9Q328.9 527.9 329.6 528.6Q330.3 529.3 330.3 530.5Q330.3 531.7 329.6 532.4Q328.9 533.1 327.6 533.1L327.6 533.1L325.2 533.1L325.2 545.1Q325.2 546.5 325.7 547.1Q326.2 547.7 327.3 547.8L327.3 547.8L327.8 547.8Q329.1 548.0 329.7 548.5Q330.4 549.1 330.4 550.3L330.4 550.3Q330.4 551.8 329.0 552.6Q327.7 553.3 325.5 553.3L325.5 553.3L325.3 553.3Q318.4 553.3 318.4 546.6Z "/><mask id="satori_om-id-0-1-1"><rect x="924" y="524" width="236" height="36" fill="#fff"/></mask><path fill="#8e8e8e" d="M927.9 552.6Q927.5 552.9 927.0 552.9Q926.4 552.9 926.1 552.6Q925.8 552.2 925.8 551.7L925.8 551.7L925.8 532.6Q925.8 532.0 926.1 531.6Q926.5 531.3 927.1 531.3Q927.6 531.3 928.0 531.6Q928.3 532.0 928.3 532.6L928.3 532.6L928.3 540.0L928.4 540.0Q929.1 538.7 930.4 537.9Q931.7 537.2 933.3 537.2L933.3 537.2Q936.2 537.2 937.9 539.3Q939.7 541.5 939.7 545.0L939.7 545.0Q939.7 548.6 937.9 550.8Q936.2 552.9 933.2 552.9L933.2 552.9Q931.6 552.9 930.3 552.2Q929.0 551.4 928.3 550.1L928.3 550.1L928.2 550.1L928.2 551.7Q928.2 552.2 927.9 552.6ZM932.7 550.7L932.7 550.7Q934.8 550.7 935.9 549.2Q937.1 547.7 937.1 545.0L937.1 545.0Q937.1 542.5 935.9 540.9Q934.8 539.4 932.7 539.4L932.7 539.4Q930.8 539.4 929.6 541.0Q928.3 542.5 928.3 545.0L928.3 545.0Q928.3 547.6 929.6 549.1Q930.8 550.7 932.7 550.7ZM943.8 558.4L943.8 558.4Q942.9 558.4 942.4 558.0Q941.9 557.7 941.9 557.1L941.9 557.1Q941.9 556.7 942.1 556.4Q942.4 556.2 942.9 556.2L942.9 556.2Q943.1 556.2 943.3 556.2Q943.5 556.2 943.7 556.2L943.7 556.2Q945.4 556.2 946.2 553.7L946.2 553.7L946.6 552.7L941.3 539.0Q941.2 538.6 941.2 538.3L941.2 538.3Q941.2 537.8 941.6 537.5Q941.9 537.2 942.5 537.2L942.5 537.2Q943.4 537.2 943.7 538.1L943.7 538.1L947.9 550.1L948.0 550.1L952.2 538.1Q952.3 537.6 952.6 537.4Q952.9 537.2 953.4 537.2L953.4 537.2Q953.9 537.2 954.3 537.5Q954.6 537.8 954.6 538.3L954.6 538.3Q954.6 538.6 954.5 539.0L954.5 539.0L948.9 553.7Q947.9 556.4 946.8 557.4Q945.7 558.4 943.8 558.4Z M965.7 552.5Q965.3 552.9 964.7 552.9Q964.1 552.9 963.8 552.5Q963.4 552.1 963.4 551.5L963.4 551.5L963.4 532.9Q963.4 532.3 963.8 531.9Q964.1 531.5 964.7 531.5L964.7 531.5L970.9 531.5Q973.9 531.5 975.8 533.4Q977.7 535.3 977.7 538.3L977.7 538.3Q977.7 541.3 975.8 543.2Q973.9 545.1 970.9 545.1L970.9 545.1L966.0 545.1L966.0 551.5Q966.0 552.1 965.7 552.5ZM966.0 533.9L966.0 542.8L970.3 542.8Q972.5 542.8 973.8 541.6Q975.0 540.4 975.0 538.3Q975.0 536.2 973.8 535.0Q972.5 533.9 970.3 533.9L970.3 533.9L966.0 533.9ZM984.8 552.9L984.8 552.9Q982.5 552.9 981.1 551.7Q979.7 550.4 979.7 548.4L979.7 548.4Q979.7 546.4 981.2 545.2Q982.6 544.1 985.2 543.9L985.2 543.9L989.6 543.7L989.6 542.4Q989.6 541.0 988.7 540.2Q987.9 539.4 986.3 539.4L986.3 539.4Q985.0 539.4 984.1 539.9Q983.3 540.4 982.6 541.5L982.6 541.5Q982.3 542.1 981.6 542.1L981.6 542.1Q981.1 542.1 980.8 541.8Q980.5 541.5 980.5 541.0Q980.5 540.5 980.8 539.9L980.8 539.9Q981.4 538.7 982.9 537.9Q984.5 537.2 986.3 537.2L986.3 537.2Q989.0 537.2 990.6 538.5Q992.2 539.9 992.2 542.1L992.2 542.1L992.2 551.6Q992.2 552.2 991.8 552.6Q991.5 552.9 991.0 552.9L991.0 552.9Q990.4 552.9 990.1 552.6Q989.7 552.2 989.7 551.6L989.7 551.6L989.7 550.0L989.7 550.0Q989.0 551.3 987.7 552.1Q986.3 552.9 984.8 552.9ZM985.3 550.8L985.3 550.8Q987.1 550.8 988.4 549.6Q989.6 548.5 989.6 546.9L989.6 546.9L989.6 545.6L985.5 545.9Q984.0 546.0 983.1 546.6Q982.3 547.3 982.3 548.4Q982.3 549.4 983.1 550.1Q984.0 550.8 985.3 550.8ZM996.2 549.1L996.2 549.1L996.2 539.5L994.9 539.5Q994.4 539.5 994.1 539.3Q993.8 539.0 993.8 538.5L993.8 538.5Q993.8 538.0 994.1 537.7Q994.4 537.4 994.9 537.4L994.9 537.4L996.2 537.4L996.2 534.8Q996.2 534.2 996.6 533.8Q996.9 533.5 997.5 533.5Q998.0 533.5 998.4 533.8Q998.8 534.2 998.8 534.8L998.8 534.8L998.8 537.4L1000.7 537.4Q1001.3 537.4 1001.6 537.7Q1001.9 538.0 1001.9 538.5L1001.9 538.5Q1001.9 539.0 1001.6 539.3Q1001.3 539.5 1000.7 539.5L1000.7 539.5L998.8 539.5L998.8 548.6Q998.8 549.6 999.2 550.0Q999.6 550.5 1000.5 550.6L1000.5 550.6L1000.7 550.6Q1001.9 550.7 1001.9 551.6L1001.9 551.6Q1001.9 552.2 1001.5 552.5Q1001.1 552.8 1000.1 552.8L1000.1 552.8L999.9 552.8Q996.2 552.8 996.2 549.1ZM1006.6 552.5Q1006.3 552.9 1005.7 552.9Q1005.2 552.9 1004.8 552.5Q1004.4 552.2 1004.4 551.6L1004.4 551.6L1004.4 538.5Q1004.4 537.9 1004.8 537.5Q1005.1 537.2 1005.6 537.2Q1006.2 537.2 1006.5 537.5Q1006.8 537.9 1006.8 538.5L1006.8 538.5L1006.8 539.9L1006.9 539.9Q1007.2 538.7 1008.2 537.9Q1009.2 537.2 1010.4 537.2L1010.4 537.2Q1011.2 537.2 1011.6 537.5L1011.6 537.5Q1011.9 537.8 1011.9 538.4L1011.9 538.4Q1011.9 539.0 1011.5 539.3L1011.5 539.3Q1011.1 539.6 1010.3 539.6L1010.3 539.6Q1008.6 539.6 1007.8 540.6Q1007.0 541.6 1007.0 543.2L1007.0 543.2L1007.0 551.6Q1007.0 552.2 1006.6 552.5ZM1015.1 534.9L1015.1 534.9Q1014.4 534.9 1014.0 534.4Q1013.5 533.9 1013.5 533.3L1013.5 533.3Q1013.5 532.6 1014.0 532.2Q1014.4 531.7 1015.1 531.7L1015.1 531.7Q1015.7 531.7 1016.2 532.2Q1016.7 532.6 1016.7 533.3L1016.7 533.3Q1016.7 533.9 1016.2 534.4Q1015.7 534.9 1015.1 534.9ZM1016.0 552.5Q1015.6 552.9 1015.1 552.9Q1014.5 552.9 1014.2 552.5Q1013.8 552.2 1013.8 551.6L1013.8 551.6L1013.8 538.5Q1013.8 537.9 1014.2 537.5Q1014.5 537.2 1015.1 537.2Q1015.6 537.2 1016.0 537.5Q1016.4 537.9 1016.4 538.5L1016.4 538.5L1016.4 551.6Q1016.4 552.2 1016.0 552.5ZM1026.1 552.9L1026.1 552.9Q1022.9 552.9 1021.0 550.8Q1019.1 548.7 1019.1 545.1Q1019.1 541.5 1021.0 539.3Q1022.9 537.2 1026.1 537.2L1026.1 537.2Q1028.2 537.2 1029.9 538.2Q1031.6 539.3 1032.0 540.9L1032.0 540.9Q1032.1 541.2 1032.1 541.4L1032.1 541.4Q1032.1 542.0 1031.8 542.3Q1031.5 542.6 1031.0 542.6L1031.0 542.6Q1030.6 542.6 1030.3 542.4Q1030.1 542.2 1029.8 541.7L1029.8 541.7Q1028.6 539.4 1026.1 539.4L1026.1 539.4Q1024.1 539.4 1022.9 541.0Q1021.6 542.5 1021.6 545.0L1021.6 545.0Q1021.6 547.6 1022.9 549.2Q1024.1 550.7 1026.1 550.7L1026.1 550.7Q1027.4 550.7 1028.3 550.1Q1029.2 549.6 1029.8 548.4L1029.8 548.4Q1030.1 547.9 1030.3 547.7Q1030.6 547.5 1031.0 547.5L1031.0 547.5Q1031.5 547.5 1031.8 547.8Q1032.1 548.2 1032.1 548.7L1032.1 548.7Q1032.1 548.9 1032.0 549.3L1032.0 549.3Q1031.4 550.9 1029.8 551.9Q1028.2 552.9 1026.1 552.9ZM1041.2 552.9L1041.2 552.9Q1037.8 552.9 1036.0 550.9Q1034.1 548.8 1034.1 545.1L1034.1 545.1Q1034.1 541.5 1036.0 539.3Q1037.8 537.2 1041.0 537.2L1041.0 537.2Q1043.9 537.2 1045.8 539.1Q1047.6 541.1 1047.6 544.3L1047.6 544.3Q1047.6 544.9 1047.3 545.3Q1046.9 545.7 1046.2 545.7L1046.2 545.7L1036.7 545.7Q1036.7 548.0 1037.9 549.4Q1039.1 550.7 1041.1 550.7L1041.1 550.7Q1042.5 550.7 1043.4 550.2Q1044.3 549.6 1045.2 548.3L1045.2 548.3Q1045.6 547.8 1046.2 547.8L1046.2 547.8Q1046.7 547.8 1047.0 548.1Q1047.3 548.4 1047.3 548.9L1047.3 548.9Q1047.3 549.2 1047.1 549.7L1047.1 549.7Q1046.4 551.2 1044.8 552.1Q1043.3 552.9 1041.2 552.9ZM1036.7 543.7L1036.7 543.7L1045.0 543.7Q1045.0 541.8 1043.8 540.6Q1042.7 539.4 1041.0 539.4L1041.0 539.4Q1039.2 539.4 1038.0 540.6Q1036.8 541.8 1036.7 543.7Z M1059.0 552.5Q1058.7 552.9 1058.1 552.9Q1057.5 552.9 1057.1 552.5Q1056.7 552.1 1056.7 551.5L1056.7 551.5L1056.7 532.7Q1056.7 532.1 1057.1 531.7Q1057.5 531.3 1058.1 531.3Q1058.7 531.3 1059.0 531.7Q1059.4 532.1 1059.4 532.7L1059.4 532.7L1059.4 541.8L1059.5 541.8L1068.9 531.8Q1069.4 531.3 1070.0 531.3L1070.0 531.3Q1070.5 531.3 1070.9 531.7Q1071.2 532.0 1071.2 532.5L1071.2 532.5Q1071.2 533.0 1070.9 533.3L1070.9 533.3L1063.6 540.9L1071.7 550.6Q1072.1 551.1 1072.1 551.6L1072.1 551.6Q1072.1 552.2 1071.7 552.5Q1071.3 552.9 1070.8 552.9L1070.8 552.9Q1070.1 552.9 1069.6 552.2L1069.6 552.2L1061.7 542.8L1059.4 545.3L1059.4 551.5Q1059.4 552.1 1059.0 552.5ZM1081.2 552.9L1081.2 552.9Q1077.8 552.9 1075.9 550.9Q1074.1 548.8 1074.1 545.1L1074.1 545.1Q1074.1 541.5 1075.9 539.3Q1077.8 537.2 1081.0 537.2L1081.0 537.2Q1083.9 537.2 1085.8 539.1Q1087.6 541.1 1087.6 544.3L1087.6 544.3Q1087.6 544.9 1087.2 545.3Q1086.9 545.7 1086.2 545.7L1086.2 545.7L1076.7 545.7Q1076.7 548.0 1077.9 549.4Q1079.1 550.7 1081.1 550.7L1081.1 550.7Q1082.5 550.7 1083.4 550.2Q1084.3 549.6 1085.2 548.3L1085.2 548.3Q1085.6 547.8 1086.2 547.8L1086.2 547.8Q1086.7 547.8 1087.0 548.1Q1087.3 548.4 1087.3 548.9L1087.3 548.9Q1087.3 549.2 1087.1 549.7L1087.1 549.7Q1086.4 551.2 1084.8 552.1Q1083.3 552.9 1081.2 552.9ZM1076.7 543.7L1076.7 543.7L1085.0 543.7Q1084.9 541.8 1083.8 540.6Q1082.7 539.4 1080.9 539.4L1080.9 539.4Q1079.1 539.4 1078.0 540.6Q1076.8 541.8 1076.7 543.7ZM1092.4 552.5Q1092.0 552.9 1091.4 552.9Q1090.9 552.9 1090.5 552.5Q1090.2 552.2 1090.2 551.6L1090.2 551.6L1090.2 538.5Q1090.2 537.9 1090.5 537.5Q1090.8 537.2 1091.4 537.2Q1091.9 537.2 1092.2 537.5Q1092.6 537.9 1092.6 538.5L1092.6 538.5L1092.6 539.9L1092.6 539.9Q1093.3 538.6 1094.5 537.9Q1095.8 537.2 1097.5 537.2L1097.5 537.2Q1100.0 537.2 1101.3 538.7Q1102.7 540.2 1102.7 542.8L1102.7 542.8L1102.7 551.6Q1102.7 552.2 1102.4 552.5Q1102.0 552.9 1101.5 552.9Q1100.9 552.9 1100.6 552.5Q1100.2 552.2 1100.2 551.6L1100.2 551.6L1100.2 543.2Q1100.2 541.4 1099.3 540.4Q1098.4 539.4 1096.7 539.4L1096.7 539.4Q1094.9 539.4 1093.8 540.6Q1092.7 541.8 1092.7 543.7L1092.7 543.7L1092.7 551.6Q1092.7 552.2 1092.4 552.5ZM1108.2 552.5Q1107.8 552.9 1107.3 552.9Q1106.7 552.9 1106.3 552.5Q1106.0 552.2 1106.0 551.6L1106.0 551.6L1106.0 538.5Q1106.0 537.9 1106.3 537.5Q1106.7 537.2 1107.2 537.2Q1107.7 537.2 1108.0 537.5Q1108.4 537.9 1108.4 538.5L1108.4 538.5L1108.4 539.9L1108.4 539.9Q1109.0 538.6 1110.1 537.9Q1111.3 537.2 1112.8 537.2L1112.8 537.2Q1114.3 537.2 1115.4 537.9Q1116.5 538.7 1117.0 540.1L1117.0 540.1L1117.1 540.1Q1117.7 538.7 1119.0 537.9Q1120.3 537.2 1121.9 537.2L1121.9 537.2Q1124.1 537.2 1125.5 538.5Q1126.8 539.9 1126.8 542.1L1126.8 542.1L1126.8 551.6Q1126.8 552.2 1126.5 552.5Q1126.1 552.9 1125.6 552.9Q1125.0 552.9 1124.6 552.5Q1124.3 552.2 1124.3 551.6L1124.3 551.6L1124.3 542.7Q1124.3 541.2 1123.5 540.3Q1122.6 539.4 1121.1 539.4Q1119.6 539.4 1118.6 540.4Q1117.7 541.4 1117.7 543.0L1117.7 543.0L1117.7 551.6Q1117.7 552.2 1117.3 552.5Q1117.0 552.9 1116.4 552.9Q1115.8 552.9 1115.5 552.5Q1115.1 552.2 1115.1 551.6L1115.1 551.6L1115.1 542.5Q1115.1 541.1 1114.3 540.2Q1113.4 539.4 1112.0 539.4L1112.0 539.4Q1110.5 539.4 1109.5 540.5Q1108.5 541.5 1108.5 543.1L1108.5 543.1L1108.5 551.6Q1108.5 552.2 1108.2 552.5ZM1136.4 552.9L1136.4 552.9Q1133.2 552.9 1131.3 550.8Q1129.3 548.7 1129.3 545.0Q1129.3 541.4 1131.3 539.3Q1133.2 537.2 1136.4 537.2L1136.4 537.2Q1139.6 537.2 1141.5 539.3Q1143.4 541.4 1143.4 545.0L1143.4 545.0Q1143.4 548.7 1141.5 550.8Q1139.6 552.9 1136.4 552.9ZM1133.1 549.2Q1134.3 550.7 1136.4 550.7Q1138.4 550.7 1139.6 549.2Q1140.8 547.7 1140.8 545.0Q1140.8 542.4 1139.6 540.9Q1138.4 539.4 1136.4 539.4Q1134.3 539.4 1133.1 540.9Q1131.9 542.4 1131.9 545.0Q1131.9 547.7 1133.1 549.2ZM1152.5 535.6L1152.5 535.6Q1152.1 535.6 1151.9 535.4Q1151.6 535.2 1151.6 534.8Q1151.6 534.5 1151.8 534.2L1151.8 534.2L1154.0 531.1Q1154.3 530.6 1154.6 530.5Q1154.8 530.3 1155.1 530.3L1155.1 530.3Q1155.6 530.3 1155.9 530.6Q1156.2 530.9 1156.2 531.3L1156.2 531.3Q1156.2 531.7 1155.9 532.1L1155.9 532.1L1153.4 535.1Q1153.0 535.6 1152.5 535.6ZM1152.4 552.9L1152.4 552.9Q1149.0 552.9 1147.1 550.9Q1145.3 548.8 1145.3 545.1L1145.3 545.1Q1145.3 541.5 1147.1 539.3Q1149.0 537.2 1152.2 537.2L1152.2 537.2Q1155.1 537.2 1156.9 539.1Q1158.8 541.1 1158.8 544.3L1158.8 544.3Q1158.8 544.9 1158.4 545.3Q1158.1 545.7 1157.4 545.7L1157.4 545.7L1147.9 545.7Q1147.9 548.0 1149.1 549.4Q1150.2 550.7 1152.3 550.7L1152.3 550.7Q1153.6 550.7 1154.6 550.2Q1155.5 549.6 1156.4 548.3L1156.4 548.3Q1156.8 547.8 1157.3 547.8L1157.3 547.8Q1157.9 547.8 1158.2 548.1Q1158.5 548.4 1158.5 548.9L1158.5 548.9Q1158.5 549.2 1158.3 549.7L1158.3 549.7Q1157.6 551.2 1156.0 552.1Q1154.5 552.9 1152.4 552.9ZM1147.9 543.7L1147.9 543.7L1156.2 543.7Q1156.1 541.8 1155.0 540.6Q1153.9 539.4 1152.1 539.4L1152.1 539.4Q1150.3 539.4 1149.2 540.6Q1148.0 541.8 1147.9 543.7Z "/></svg>