<svg width="1200" height="630" viewBox="0 0 1200 630" xmlns="http://www.w3.org/2000/svg"><mask id="satori_om-id"><rect x="0" y="0" width="1200" height="630" fill="#fff"/></mask><mask id="satori_om-id-0"><rect x="0" y="0" width="1200" height="630" fill="#fff"/></mask><rect x="0" y="0" width="1200" height="630" fill="#f2f2f2"/><mask id="satori_om-id-0-0"><rect x="0" y="0" width="1200" height="441" fill="#fff"/></mask><mask id="satori_om-id-0-0-0"><rect x="40" y="95" width="1120" height="36" fill="#fff"/></mask><path fill="#8e8e8e" d="M50.0 123.4Q49.6 123.9 48.8 123.9Q48.1 123.9 47.6 123.4Q47.2 123.0 47.2 122.2L47.2 122.2L47.2 105.4L42.0 105.4Q41.3 105.4 40.9 105.0Q40.5 104.6 40.5 103.9Q40.5 103.3 40.9 102.9Q41.3 102.5 42.0 102.5L42.0 102.5L55.6 102.5Q56.3 102.5 56.8 102.9Q57.2 103.3 57.2 103.9Q57.2 104.6 56.8 105.0Q56.3 105.4 55.6 105.4L55.6 105.4L50.5 105.4L50.5 122.2Q50.5 123.0 50.0 123.4ZM62.1 123.5Q61.6 123.9 60.9 123.9Q60.2 123.9 59.8 123.5Q59.3 123.0 59.3 122.3L59.3 122.3L59.3 103.9Q59.3 103.1 59.8 102.7Q60.2 102.2 60.9 102.2L60.9 102.2Q61.6 102.2 62.1 102.7Q62.5 103.1 62.5 103.9L62.5 103.9L62.5 110.8L62.5 110.8Q63.2 109.5 64.4 108.7Q65.7 108.0 67.4 108.0L67.4 108.0Q69.9 108.0 71.4 109.5Q72.8 111.1 72.8 113.7L72.8 113.7L72.8 122.3Q72.8 123.0 72.4 123.5Q71.9 123.9 71.2 123.9L71.2 123.9Q70.5 123.9 70.1 123.5Q69.6 123.0 69.6 122.3L69.6 122.3L69.6 114.3Q69.6 112.6 68.8 111.7Q67.9 110.7 66.3 110.7L66.3 110.7Q64.5 110.7 63.5 111.8Q62.5 112.9 62.5 114.8L62.5 114.8L62.5 122.3Q62.5 123.0 62.1 123.5ZM81.2 123.9L81.2 123.9Q78.7 123.9 77.2 122.4Q75.8 120.9 75.8 118.2L75.8 118.2L75.8 109.7Q75.8 108.9 76.2 108.4Q76.7 108.0 77.4 108.0L77.4 108.0Q78.1 108.0 78.5 108.4Q79.0 108.9 79.0 109.7L79.0 109.7L79.0 117.6Q79.0 119.4 79.8 120.3Q80.6 121.2 82.3 121.2L82.3 121.2Q84.0 121.2 84.9 120.1Q85.9 119.0 85.9 117.2L85.9 117.2L85.9 109.7Q85.9 108.9 86.4 108.4Q86.8 108.0 87.5 108.0L87.5 108.0Q88.2 108.0 88.7 108.4Q89.1 108.9 89.1 109.7L89.1 109.7L89.1 122.3Q89.1 123.1 88.7 123.5Q88.3 123.9 87.6 123.9Q86.9 123.9 86.5 123.5Q86.1 123.1 86.1 122.3L86.1 122.3L86.1 121.1L86.0 121.1Q84.6 123.9 81.2 123.9ZM93.8 123.9L93.8 123.9Q93.1 123.9 92.6 123.5Q92.2 123.0 92.2 122.3L92.2 122.3L92.2 109.6Q92.2 108.9 92.6 108.4Q93.0 108.0 93.7 108.0L93.7 108.0Q94.4 108.0 94.8 108.4Q95.2 108.9 95.2 109.6L95.2 109.6L95.2 110.9L95.3 110.9Q95.6 109.6 96.6 108.8Q97.5 108.0 98.7 108.0L98.7 108.0Q99.5 108.0 99.9 108.4L99.9 108.4Q100.3 108.7 100.3 109.5L100.3 109.5Q100.3 110.2 99.9 110.6L99.9 110.6Q99.4 111.0 98.4 111.0L98.4 111.0Q96.9 111.0 96.1 112.0Q95.4 112.9 95.4 114.4L95.4 114.4L95.4 122.3Q95.4 123.0 94.9 123.5Q94.5 123.9 93.8 123.9ZM107.7 124.0L107.7 124.0Q105.5 124.0 103.9 123.1Q102.3 122.3 101.7 120.8L101.7 120.8Q101.6 120.5 101.6 120.2L101.6 120.2Q101.6 119.6 102.0 119.2Q102.4 118.9 103.0 118.9L103.0 118.9Q103.8 118.9 104.4 119.7L104.4 119.7Q105.0 120.7 105.8 121.1Q106.5 121.5 107.9 121.5L107.9 121.5Q109.3 121.5 110.1 121.0Q110.9 120.4 110.9 119.5L110.9 119.5Q110.9 118.7 110.4 118.3Q109.9 117.8 108.7 117.5L108.7 117.5L106.2 117.0Q101.8 115.9 101.8 112.6L101.8 112.6Q101.8 110.5 103.4 109.2Q105.1 108.0 107.9 108.0L107.9 108.0Q109.9 108.0 111.5 108.9Q113.0 109.8 113.4 111.2L113.4 111.2Q113.4 111.6 113.4 111.7L113.4 111.7Q113.4 112.2 113.1 112.5Q112.8 112.9 112.2 112.9L112.2 112.9Q111.3 112.9 110.9 112.2L110.9 112.2Q110.4 111.3 109.6 110.8Q108.9 110.4 107.7 110.4L107.7 110.4Q106.5 110.4 105.7 111.0Q104.9 111.5 104.9 112.4L104.9 112.4Q104.9 113.9 107.2 114.5L107.2 114.5L109.6 115.0Q112.1 115.6 113.1 116.5Q114.1 117.5 114.1 119.2L114.1 119.2Q114.1 121.3 112.3 122.6Q110.6 124.0 107.7 124.0ZM122.3 123.9L122.3 123.9Q119.4 123.9 117.6 121.8Q115.9 119.6 115.9 116.0Q115.9 112.3 117.6 110.2Q119.4 108.0 122.3 108.0L122.3 108.0Q123.9 108.0 125.2 108.8Q126.5 109.5 127.1 110.8L127.1 110.8L127.2 110.8L127.2 103.9Q127.2 103.1 127.6 102.7Q128.1 102.2 128.8 102.2L128.8 102.2Q129.5 102.2 129.9 102.7Q130.4 103.2 130.4 103.9L130.4 103.9L130.4 122.4Q130.4 123.1 129.9 123.5Q129.5 123.9 128.8 123.9L128.8 123.9Q128.1 123.9 127.7 123.5Q127.2 123.1 127.2 122.4L127.2 122.4L127.2 120.9L127.2 120.9Q126.5 122.3 125.3 123.1Q124.1 123.9 122.3 123.9ZM123.2 121.2L123.2 121.2Q125.0 121.2 126.1 119.8Q127.2 118.4 127.2 116.0L127.2 116.0Q127.2 113.6 126.1 112.1Q125.0 110.7 123.2 110.7L123.2 110.7Q121.3 110.7 120.2 112.1Q119.1 113.5 119.1 116.0L119.1 116.0Q119.1 118.4 120.2 119.8Q121.3 121.2 123.2 121.2ZM138.1 123.9L138.1 123.9Q135.9 123.9 134.4 122.6Q133.0 121.3 133.0 119.3L133.0 119.3Q133.0 117.3 134.5 116.1Q136.0 114.9 138.7 114.7L138.7 114.7L142.9 114.5L142.9 113.3Q142.9 112.0 142.1 111.3Q141.3 110.6 139.9 110.6L139.9 110.6Q138.7 110.6 137.9 111.0Q137.1 111.5 136.4 112.5L136.4 112.5Q136.0 113.2 135.2 113.2L135.2 113.2Q134.6 113.2 134.2 112.8Q133.8 112.4 133.8 111.9L133.8 111.9Q133.8 111.3 134.1 110.8L134.1 110.8Q134.7 109.5 136.3 108.8Q137.9 108.0 140.0 108.0L140.0 108.0Q142.8 108.0 144.4 109.4Q146.1 110.7 146.1 113.0L146.1 113.0L146.1 122.3Q146.1 123.1 145.7 123.5Q145.2 123.9 144.6 123.9L144.6 123.9Q143.9 123.9 143.5 123.5Q143.1 123.1 143.1 122.4L143.1 122.4L143.1 121.1L143.0 121.1Q142.3 122.4 141.0 123.2Q139.7 123.9 138.1 123.9ZM139.0 121.4L139.0 121.4Q140.7 121.4 141.8 120.4Q142.9 119.4 142.9 117.9L142.9 117.9L142.9 116.7L139.1 116.9Q137.7 117.0 137.0 117.6Q136.2 118.2 136.2 119.2L136.2 119.2Q136.2 120.2 137.0 120.8Q137.7 121.4 139.0 121.4ZM151.1 129.4L151.1 129.4Q150.0 129.4 149.4 129.0Q148.8 128.6 148.8 127.9L148.8 127.9Q148.8 127.4 149.1 127.1Q149.5 126.8 150.0 126.8L150.0 126.8Q150.2 126.8 150.4 126.8Q150.7 126.8 150.8 126.8L150.8 126.8Q152.4 126.8 153.2 124.7L153.2 124.7L153.5 123.8L148.3 110.3Q148.1 109.9 148.1 109.4L148.1 109.4Q148.1 108.8 148.6 108.4Q149.1 108.0 149.8 108.0L149.8 108.0Q150.4 108.0 150.7 108.3Q151.1 108.5 151.3 109.2L151.3 109.2L155.2 120.8L155.3 120.8L159.2 109.2Q159.4 108.5 159.7 108.3Q160.1 108.0 160.7 108.0L160.7 108.0Q161.4 108.0 161.8 108.4Q162.2 108.8 162.2 109.4L162.2 109.4Q162.2 109.8 162.1 110.3L162.1 110.3L156.7 124.4Q155.7 127.2 154.5 128.3Q153.2 129.4 151.1 129.4ZM166.7 120.1L166.7 120.1Q167.4 120.1 167.8 120.5Q168.2 120.8 168.2 121.4L168.2 121.4Q168.2 121.8 168.1 122.3L168.1 122.3L166.8 127.3Q166.5 128.4 165.4 128.4L165.4 128.4Q164.9 128.4 164.5 128.1Q164.2 127.7 164.2 127.2L164.2 127.2Q164.2 127.1 164.3 126.8L164.3 126.8L165.2 121.4Q165.4 120.1 166.7 120.1Z M191.6 123.7L179.9 123.7Q179.1 123.7 178.7 123.3Q178.3 122.9 178.3 122.3L178.3 122.3Q178.3 121.8 178.5 121.5Q178.7 121.1 179.2 120.6L179.2 120.6L185.8 113.9Q187.9 111.8 188.6 110.7Q189.3 109.6 189.3 108.3L189.3 108.3Q189.3 106.8 188.2 105.8Q187.2 104.8 185.6 104.8L185.6 104.8Q182.5 104.8 181.3 108.0L181.3 108.0Q181.1 108.5 180.8 108.8Q180.4 109.0 179.9 109.0L179.9 109.0Q179.2 109.0 178.8 108.6Q178.4 108.3 178.4 107.6L178.4 107.6Q178.4 107.3 178.5 107.0L178.5 107.0Q178.7 106.1 179.2 105.3Q179.8 104.4 180.6 103.7Q181.5 103.0 182.8 102.6Q184.1 102.1 185.6 102.1L185.6 102.1Q188.6 102.1 190.6 103.8Q192.5 105.5 192.5 108.1L192.5 108.1Q192.5 109.9 191.5 111.5Q190.5 113.0 187.8 115.8L187.8 115.8L182.8 120.8L182.8 120.9L191.6 120.9Q192.2 120.9 192.6 121.3Q193.0 121.7 193.0 122.3L193.0 122.3Q193.0 122.9 192.6 123.3Q192.2 123.7 191.6 123.7L191.6 123.7ZM208.9 123.7L197.3 123.7Q196.5 123.7 196.1 123.3Q195.7 122.9 195.7 122.3L195.7 122.3Q195.7 121.8 195.9 121.5Q196.1 121.1 196.6 120.6L196.6 120.6L203.2 113.9Q205.3 111.8 206.0 110.7Q206.6 109.6 206.6 108.3L206.6 108.3Q206.6 106.8 205.6 105.8Q204.6 104.8 203.0 104.8L203.0 104.8Q199.8 104.8 198.7 108.0L198.7 108.0Q198.5 108.5 198.1 108.8Q197.8 109.0 197.2 109.0L197.2 109.0Q196.6 109.0 196.2 108.6Q195.8 108.3 195.8 107.6L195.8 107.6Q195.8 107.3 195.9 107.0L195.9 107.0Q196.0 106.1 196.6 105.3Q197.1 104.4 198.0 103.7Q198.9 103.0 200.2 102.6Q201.5 102.1 203.0 102.1L203.0 102.1Q206.0 102.1 207.9 103.8Q209.9 105.5 209.9 108.1L209.9 108.1Q209.9 109.9 208.9 111.5Q207.9 113.0 205.2 115.8L205.2 115.8L200.2 120.8L200.2 120.9L208.9 120.9Q209.6 120.9 210.0 121.3Q210.4 121.7 210.4 122.3L210.4 122.3Q210.4 122.9 210.0 123.3Q209.6 123.7 208.9 123.7L208.9 123.7Z M222.1 123.5Q221.7 123.9 221.0 123.9Q220.3 123.9 219.9 123.5Q219.5 123.1 219.5 122.3L219.5 122.3L219.5 104.4Q219.5 103.4 220.1 102.9Q220.6 102.3 221.6 102.3L221.6 102.3Q222.5 102.3 223.0 102.7Q223.5 103.1 223.9 104.0L223.9 104.0L230.2 119.2L230.3 119.2L236.5 104.0Q236.9 103.1 237.4 102.7Q238.0 102.3 238.8 102.3L238.8 102.3Q239.8 102.3 240.3 102.8Q240.9 103.4 240.9 104.4L240.9 104.4L240.9 122.3Q240.9 123.1 240.5 123.5Q240.1 123.9 239.4 123.9L239.4 123.9Q238.7 123.9 238.3 123.5Q237.9 123.1 237.9 122.3L237.9 122.3L237.9 108.1L237.8 108.1L231.9 122.3Q231.4 123.5 230.2 123.5L230.2 123.5Q229.0 123.5 228.5 122.3L228.5 122.3L222.6 108.1L222.5 108.1L222.5 122.3Q222.5 123.1 222.1 123.5ZM248.9 123.9L248.9 123.9Q246.7 123.9 245.2 122.6Q243.8 121.3 243.8 119.3L243.8 119.3Q243.8 117.3 245.3 116.1Q246.8 114.9 249.5 114.7L249.5 114.7L253.8 114.5L253.8 113.3Q253.8 112.0 252.9 111.3Q252.1 110.6 250.7 110.6L250.7 110.6Q249.5 110.6 248.7 111.0Q247.9 111.5 247.2 112.5L247.2 112.5Q246.8 113.2 246.0 113.2L246.0 113.2Q245.4 113.2 245.0 112.8Q244.6 112.4 244.6 111.9L244.6 111.9Q244.6 111.3 244.9 110.8L244.9 110.8Q245.5 109.5 247.1 108.8Q248.7 108.0 250.8 108.0L250.8 108.0Q253.6 108.0 255.2 109.4Q256.9 110.7 256.9 113.0L256.9 113.0L256.9 122.3Q256.9 123.1 256.5 123.5Q256.0 123.9 255.4 123.9L255.4 123.9Q254.7 123.9 254.3 123.5Q253.9 123.1 253.9 122.4L253.9 122.4L253.9 121.1L253.8 121.1Q253.1 122.4 251.8 123.2Q250.5 123.9 248.9 123.9ZM249.8 121.4L249.8 121.4Q251.5 121.4 252.6 120.4Q253.8 119.4 253.8 117.9L253.8 117.9L253.8 116.7L249.9 116.9Q248.5 117.0 247.8 117.6Q247.0 118.2 247.0 119.2L247.0 119.2Q247.0 120.2 247.8 120.8Q248.5 121.4 249.8 121.4ZM261.9 129.4L261.9 129.4Q260.8 129.4 260.2 129.0Q259.6 128.6 259.6 127.9L259.6 127.9Q259.6 127.4 259.9 127.1Q260.3 126.8 260.8 126.8L260.8 126.8Q261.0 126.8 261.2 126.8Q261.5 126.8 261.6 126.8L261.6 126.8Q263.2 126.8 264.0 124.7L264.0 124.7L264.3 123.8L259.1 110.3Q259.0 109.9 259.0 109.4L259.0 109.4Q259.0 108.8 259.4 108.4Q259.9 108.0 260.6 108.0L260.6 108.0Q261.2 108.0 261.5 108.3Q261.9 108.5 262.1 109.2L262.1 109.2L266.0 120.8L266.1 120.8L270.0 109.2Q270.2 108.5 270.5 108.3Q270.9 108.0 271.5 108.0L271.5 108.0Q272.2 108.0 272.6 108.4Q273.0 108.8 273.0 109.4L273.0 109.4Q273.0 109.8 272.9 110.3L272.9 110.3L267.5 124.4Q266.5 127.2 265.3 128.3Q264.0 129.4 261.9 129.4Z M294.5 123.7L282.8 123.7Q282.1 123.7 281.7 123.3Q281.2 122.9 281.2 122.3L281.2 122.3Q281.2 121.8 281.4 121.5Q281.6 121.1 282.2 120.6L282.2 120.6L288.8 113.9Q290.8 111.8 291.5 110.7Q292.2 109.6 292.2 108.3L292.2 108.3Q292.2 106.8 291.1 105.8Q290.1 104.8 288.5 104.8L288.5 104.8Q285.4 104.8 284.3 108.0L284.3 108.0Q284.0 108.5 283.7 108.8Q283.4 109.0 282.8 109.0L282.8 109.0Q282.1 109.0 281.7 108.6Q281.3 108.3 281.3 107.6L281.3 107.6Q281.3 107.3 281.4 107.0L281.4 107.0Q281.6 106.1 282.1 105.3Q282.7 104.4 283.6 103.7Q284.4 103.0 285.7 102.6Q287.0 102.1 288.5 102.1L288.5 102.1Q291.6 102.1 293.5 103.8Q295.4 105.5 295.4 108.1L295.4 108.1Q295.4 109.9 294.4 111.5Q293.5 113.0 290.7 115.8L290.7 115.8L285.7 120.8L285.7 120.9L294.5 120.9Q295.1 120.9 295.5 121.3Q295.9 121.7 295.9 122.3L295.9 122.3Q295.9 122.9 295.5 123.3Q295.1 123.7 294.5 123.7L294.5 123.7ZM312.3 121.1Q310.2 124.1 306.4 124.1Q302.6 124.1 300.5 121.1Q298.3 118.2 298.3 113.1L298.3 113.1Q298.3 108.0 300.5 105.1Q302.6 102.1 306.4 102.1L306.4 102.1Q310.2 102.1 312.3 105.1Q314.5 108.0 314.5 113.1L314.5 113.1Q314.5 118.1 312.3 121.1ZM306.4 121.3L306.4 121.3Q308.7 121.3 309.9 119.1Q311.2 116.9 311.2 113.1L311.2 113.1Q311.2 109.3 309.9 107.1Q308.7 104.9 306.4 104.9Q304.2 104.9 302.9 107.1Q301.6 109.3 301.6 113.1L301.6 113.1Q301.6 116.9 302.9 119.1Q304.1 121.3 306.4 121.3ZM330.6 123.7L318.9 123.7Q318.2 123.7 317.7 123.3Q317.3 122.9 317.3 122.3L317.3 122.3Q317.3 121.8 317.5 121.5Q317.7 121.1 318.2 120.6L318.2 120.6L324.9 113.9Q326.9 111.8 327.6 110.7Q328.3 109.6 328.3 108.3L328.3 108.3Q328.3 106.8 327.2 105.8Q326.2 104.8 324.6 104.8L324.6 104.8Q321.5 104.8 320.4 108.0L320.4 108.0Q320.1 108.5 319.8 108.8Q319.4 109.0 318.9 109.0L318.9 109.0Q318.2 109.0 317.8 108.6Q317.4 108.3 317.4 107.6L317.4 107.6Q317.4 107.3 317.5 107.0L317.5 107.0Q317.7 106.1 318.2 105.3Q318.8 104.4 319.7 103.7Q320.5 103.0 321.8 102.6Q323.1 102.1 324.6 102.1L324.6 102.1Q327.7 102.1 329.6 103.8Q331.5 105.5 331.5 108.1L331.5 108.1Q331.5 109.9 330.5 111.5Q329.6 113.0 326.8 115.8L326.8 115.8L321.8 120.8L321.8 120.9L330.6 120.9Q331.2 120.9 331.6 121.3Q332.0 121.7 332.0 122.3L332.0 122.3Q332.0 122.9 331.6 123.3Q331.2 123.7 330.6 123.7L330.6 123.7ZM342.3 124.1L342.3 124.1Q340.0 124.1 338.1 123.0Q336.2 121.9 335.4 120.2L335.4 120.2Q335.1 119.5 335.1 118.8L335.1 118.8Q335.1 118.1 335.5 117.7Q335.9 117.3 336.5 117.3L336.5 117.3Q337.1 117.3 337.4 117.6Q337.8 117.8 338.0 118.4L338.0 118.4Q338.5 119.8 339.7 120.5Q340.8 121.3 342.4 121.3L342.4 121.3Q344.4 121.3 345.6 120.0Q346.9 118.8 346.9 116.8L346.9 116.8Q346.9 114.8 345.6 113.6Q344.4 112.4 342.4 112.4L342.4 112.4Q340.3 112.4 338.9 113.7L338.9 113.7Q338.2 114.5 337.9 114.6Q337.5 114.8 336.9 114.8L336.9 114.8Q336.2 114.8 335.8 114.4Q335.3 113.9 335.4 113.2L335.4 113.2L335.4 112.9L336.1 104.8Q336.2 103.6 336.8 103.0Q337.4 102.5 338.6 102.5L338.6 102.5L347.6 102.5Q348.2 102.5 348.6 102.9Q349.0 103.3 349.0 103.9Q349.0 104.5 348.6 104.9Q348.2 105.3 347.6 105.3L347.6 105.3L338.9 105.3L338.3 111.9L338.4 111.9Q339.1 110.9 340.3 110.3Q341.6 109.8 343.1 109.8L343.1 109.8Q346.2 109.8 348.1 111.7Q350.1 113.6 350.1 116.7L350.1 116.7Q350.1 120.0 347.9 122.0Q345.8 124.1 342.3 124.1Z "/><mask id="satori_om-id-0-0-1"><rect x="40" y="176" width="1120" height="165" fill="#fff"/></mask><path fill="#224d67" d="M56.1 239.1L56.1 239.1Q54.4 239.1 53.3 238.2Q52.3 237.3 51.7 235.3L51.7 235.3L42.4 201.6Q42.0 200.3 42.0 199.2L42.0 199.2Q42.0 197.7 43.0 196.7Q44.0 195.8 45.7 195.8L45.7 195.8Q48.7 195.8 49.4 199.0L49.4 199.0L56.4 228.3L56.7 228.3L64.4 199.4Q64.9 197.5 65.9 196.7Q66.9 195.8 68.5 195.8L68.5 195.8Q71.6 195.8 72.6 199.3L72.6 199.3L80.3 228.3L80.6 228.3L87.6 199.0Q88.3 195.8 91.3 195.8L91.3 195.8Q93.0 195.8 94.0 196.7Q95.0 197.7 95.0 199.2L95.0 199.2Q95.0 200.2 94.6 201.6L94.6 201.6L85.2 235.3Q84.7 237.3 83.7 238.2Q82.7 239.1 80.9 239.1L80.9 239.1Q79.1 239.1 78.1 238.2Q77.0 237.3 76.5 235.3L76.5 235.3L68.7 208.0L68.4 208.0L60.5 235.3Q60.0 237.3 59.0 238.2Q57.9 239.1 56.1 239.1ZM124.7 234.9Q120.6 239.2 113.7 239.2Q106.9 239.2 102.8 234.9Q98.7 230.6 98.7 223.1L98.7 223.1Q98.7 215.6 102.8 211.2Q106.9 206.9 113.7 206.9L113.7 206.9Q120.6 206.9 124.7 211.2Q128.8 215.6 128.8 223.1L128.8 223.1Q128.8 230.6 124.7 234.9ZM108.2 230.7Q110.2 233.4 113.7 233.4Q117.3 233.4 119.3 230.7Q121.4 228.0 121.4 223.1L121.4 223.1Q121.4 218.2 119.3 215.4Q117.3 212.7 113.7 212.7L113.7 212.7Q110.3 212.7 108.2 215.4Q106.1 218.2 106.1 223.1L106.1 223.1Q106.1 228.0 108.2 230.7ZM139.8 238.1Q138.8 239.2 137.1 239.2Q135.4 239.2 134.4 238.1Q133.5 237.1 133.5 235.3L133.5 235.3L133.5 210.6Q133.5 208.9 134.4 207.9Q135.4 206.9 136.9 206.9L136.9 206.9Q138.5 206.9 139.4 207.9Q140.4 208.9 140.4 210.6L140.4 210.6L140.4 213.0L140.5 213.0Q141.2 210.3 143.0 208.6Q144.9 207.0 147.2 207.0L147.2 207.0Q148.9 207.0 149.8 207.8L149.8 207.8Q150.8 208.6 150.8 210.4L150.8 210.4Q150.8 212.1 149.7 213.0L149.7 213.0Q148.7 213.9 146.5 214.0L146.5 214.0Q140.8 214.0 140.8 220.4L140.8 220.4L140.8 235.3Q140.8 237.1 139.8 238.1ZM160.6 238.2Q159.6 239.2 157.9 239.2Q156.3 239.2 155.3 238.2Q154.3 237.1 154.3 235.3L154.3 235.3L154.3 199.6Q154.3 197.7 155.3 196.7Q156.3 195.7 157.9 195.7Q159.6 195.7 160.6 196.7Q161.6 197.7 161.6 199.6L161.6 199.6L161.6 220.4L161.7 220.4L173.9 208.3Q175.2 206.9 176.7 206.9L176.7 206.9Q178.0 206.9 179.0 207.8Q179.9 208.7 179.9 210.0L179.9 210.0Q179.9 211.5 178.6 212.7L178.6 212.7L169.7 221.1L179.5 233.3Q180.4 234.7 180.4 235.9L180.4 235.9Q180.4 237.3 179.5 238.3Q178.5 239.2 177.0 239.2L177.0 239.2Q175.9 239.2 175.2 238.7Q174.4 238.3 173.7 237.1L173.7 237.1L164.3 225.3L161.6 227.9L161.6 235.3Q161.6 237.1 160.6 238.2ZM191.9 202.0Q190.7 203.2 189.0 203.2Q187.3 203.2 186.1 202.0Q185.0 200.8 185.0 199.2L185.0 199.2Q185.0 197.5 186.1 196.4Q187.3 195.2 189.0 195.2L189.0 195.2Q190.7 195.2 191.9 196.4Q193.1 197.5 193.1 199.2L193.1 199.2Q193.1 200.8 191.9 202.0ZM191.7 238.1Q190.7 239.2 189.0 239.2Q187.3 239.2 186.4 238.1Q185.4 237.1 185.4 235.3L185.4 235.3L185.4 210.7Q185.4 209.0 186.4 207.9Q187.3 206.9 189.0 206.9Q190.7 206.9 191.7 207.9Q192.7 209.0 192.7 210.8L192.7 210.8L192.7 235.3Q192.7 237.1 191.7 238.1ZM205.1 238.2Q204.1 239.2 202.4 239.2Q200.8 239.2 199.8 238.2Q198.8 237.1 198.8 235.3L198.8 235.3L198.8 210.6Q198.8 208.9 199.7 207.9Q200.7 206.9 202.3 206.9Q203.9 206.9 204.9 207.9Q205.9 208.9 205.9 210.6L205.9 210.6L205.9 212.8L206.0 212.8Q208.7 206.9 215.7 206.9L215.7 206.9Q220.8 206.9 223.6 210.0Q226.4 213.1 226.4 218.5L226.4 218.5L226.4 235.3Q226.4 237.1 225.4 238.2Q224.5 239.2 222.8 239.2Q221.2 239.2 220.2 238.2Q219.2 237.1 219.2 235.3L219.2 235.3L219.2 220.0Q219.2 216.6 217.6 214.9Q216.0 213.1 212.9 213.1L212.9 213.1Q209.8 213.1 207.9 215.2Q206.1 217.2 206.1 220.6L206.1 220.6L206.1 235.3Q206.1 237.1 205.1 238.2ZM245.7 250.3L245.7 250.3Q241.3 250.2 238.0 248.7Q234.7 247.2 233.1 244.6L233.1 244.6Q232.5 243.6 232.5 242.4L232.5 242.4Q232.5 241.2 233.3 240.4Q234.1 239.6 235.5 239.6L235.5 239.6Q236.9 239.6 238.2 240.8L238.2 240.8Q240.0 242.7 241.8 243.6Q243.6 244.4 245.7 244.5L245.7 244.5Q249.4 244.5 251.5 242.6Q253.6 240.7 253.6 237.6L253.6 237.6L253.6 232.7L253.5 232.7Q252.3 235.2 249.6 236.7Q247.0 238.3 243.8 238.3L243.8 238.3Q237.9 238.3 234.4 234.0Q231.0 229.8 231.0 222.7L231.0 222.7Q231.0 215.4 234.4 211.2Q237.9 207.0 243.9 207.0L243.9 207.0Q247.2 207.0 249.7 208.5Q252.2 210.1 253.5 212.8L253.5 212.8L253.7 212.8L253.7 210.6Q253.7 208.9 254.7 207.9Q255.7 206.9 257.3 206.9Q258.9 206.9 259.9 207.9Q261.0 208.9 261.0 210.6L261.0 210.6L261.0 237.6Q261.0 243.5 256.9 246.9Q252.8 250.3 245.7 250.3ZM246.0 232.6L246.0 232.6Q249.5 232.6 251.6 229.9Q253.7 227.3 253.7 222.7L253.7 222.7Q253.7 218.2 251.6 215.5Q249.5 212.8 246.0 212.8L246.0 212.8Q242.5 212.8 240.5 215.5Q238.5 218.2 238.5 222.7L238.5 222.7Q238.5 227.3 240.5 230.0Q242.5 232.6 246.0 232.6Z M283.4 239.1L283.4 239.1Q281.7 239.1 280.7 238.0Q279.6 237.0 279.6 235.2L279.6 235.2L279.6 199.7Q279.6 197.9 280.7 196.8Q281.7 195.8 283.4 195.8L283.4 195.8Q285.2 195.8 286.2 196.8Q287.2 197.9 287.2 199.7L287.2 199.7L287.2 213.9L307.8 213.9L307.8 199.7Q307.8 197.9 308.8 196.8Q309.8 195.8 311.5 195.8L311.5 195.8Q313.3 195.8 314.3 196.8Q315.3 197.9 315.3 199.7L315.3 199.7L315.3 235.2Q315.3 237.0 314.3 238.1Q313.3 239.1 311.5 239.1L311.5 239.1Q309.8 239.1 308.8 238.1Q307.8 237.0 307.8 235.2L307.8 235.2L307.8 220.2L287.2 220.2L287.2 235.2Q287.2 237.0 286.2 238.1Q285.2 239.1 283.4 239.1ZM346.7 234.9Q342.6 239.2 335.8 239.2Q328.9 239.2 324.8 234.9Q320.7 230.6 320.7 223.1L320.7 223.1Q320.7 215.6 324.8 211.2Q328.9 206.9 335.8 206.9L335.8 206.9Q342.6 206.9 346.7 211.2Q350.8 215.6 350.8 223.1L350.8 223.1Q350.8 230.6 346.7 234.9ZM330.2 230.7Q332.2 233.4 335.8 233.4Q339.3 233.4 341.3 230.7Q343.4 228.0 343.4 223.1L343.4 223.1Q343.4 218.2 341.3 215.4Q339.3 212.7 335.8 212.7L335.8 212.7Q332.3 212.7 330.2 215.4Q328.1 218.2 328.1 223.1L328.1 223.1Q328.1 228.0 330.2 230.7ZM366.3 239.1L366.3 239.1Q361.3 239.1 358.3 236.0Q355.3 233.0 355.3 227.6L355.3 227.6L355.3 210.7Q355.3 209.0 356.3 207.9Q357.3 206.9 359.0 206.9Q360.6 206.9 361.6 207.9Q362.6 209.0 362.6 210.8L362.6 210.8L362.6 226.1Q362.6 229.5 364.2 231.2Q365.8 233.0 368.9 233.0L368.9 233.0Q372.0 233.0 373.9 230.9Q375.7 228.9 375.7 225.5L375.7 225.5L375.7 210.7Q375.7 209.0 376.7 207.9Q377.7 206.9 379.4 206.9L379.4 206.9Q381.0 206.9 382.0 207.9Q383.0 209.0 383.0 210.8L383.0 210.8L383.0 235.5Q383.0 237.2 382.1 238.2Q381.1 239.2 379.5 239.2L379.5 239.2Q377.9 239.2 376.9 238.2Q376.0 237.2 376.0 235.5L376.0 235.5L376.0 233.2L375.8 233.2Q373.3 239.1 366.3 239.1ZM395.3 238.1Q394.3 239.2 392.6 239.2Q390.9 239.2 389.9 238.1Q389.0 237.1 389.0 235.3L389.0 235.3L389.0 210.6Q389.0 208.9 389.9 207.9Q390.9 206.9 392.4 206.9L392.4 206.9Q394.0 206.9 394.9 207.9Q395.9 208.9 395.9 210.6L395.9 210.6L395.9 213.0L396.0 213.0Q396.7 210.3 398.5 208.6Q400.4 207.0 402.7 207.0L402.7 207.0Q404.4 207.0 405.3 207.8L405.3 207.8Q406.3 208.6 406.3 210.4L406.3 210.4Q406.3 212.1 405.2 213.0L405.2 213.0Q404.2 213.9 402.0 214.0L402.0 214.0Q396.3 214.0 396.3 220.4L396.3 220.4L396.3 235.3Q396.3 237.1 395.3 238.1ZM421.6 239.2L421.6 239.2Q416.7 239.2 413.4 237.5Q410.0 235.8 408.9 233.0L408.9 233.0Q408.6 232.2 408.6 231.5L408.6 231.5Q408.6 230.2 409.5 229.4Q410.3 228.6 411.7 228.6L411.7 228.6Q413.5 228.6 414.8 230.4L414.8 230.4Q416.1 232.3 417.7 233.1Q419.3 233.9 421.8 233.9L421.8 233.9Q424.4 233.9 425.9 232.9Q427.5 231.8 427.5 230.1L427.5 230.1Q427.5 228.7 426.5 227.8Q425.5 227.0 423.1 226.4L423.1 226.4L418.1 225.3Q409.0 223.3 409.0 216.4L409.0 216.4Q409.0 212.1 412.5 209.5Q415.9 206.9 421.7 206.9L421.7 206.9Q426.1 206.9 429.3 208.8Q432.5 210.6 433.3 213.4L433.3 213.4Q433.4 214.0 433.4 214.5L433.4 214.5Q433.4 215.6 432.7 216.4Q431.9 217.1 430.6 217.1L430.6 217.1Q428.7 217.1 427.8 215.7L427.8 215.7Q426.7 214.0 425.2 213.1Q423.7 212.2 421.5 212.2L421.5 212.2Q419.1 212.2 417.6 213.3Q416.1 214.3 416.1 216.0L416.1 216.0Q416.1 218.8 420.7 219.8L420.7 219.8L425.6 220.9Q430.6 222.0 432.7 223.9Q434.8 225.9 434.8 229.3L434.8 229.3Q434.8 233.8 431.2 236.5Q427.5 239.2 421.6 239.2Z M464.5 239.1L464.5 239.1Q462.8 239.1 461.8 238.2Q460.7 237.3 460.2 235.3L460.2 235.3L450.8 201.6Q450.4 200.3 450.4 199.2L450.4 199.2Q450.4 197.7 451.4 196.7Q452.4 195.8 454.1 195.8L454.1 195.8Q457.1 195.8 457.8 199.0L457.8 199.0L464.9 228.3L465.1 228.3L472.9 199.4Q473.3 197.5 474.3 196.7Q475.3 195.8 477.0 195.8L477.0 195.8Q480.1 195.8 481.0 199.3L481.0 199.3L488.8 228.3L489.0 228.3L496.1 199.0Q496.8 195.8 499.7 195.8L499.7 195.8Q501.4 195.8 502.4 196.7Q503.4 197.7 503.4 199.2L503.4 199.2Q503.4 200.2 503.1 201.6L503.1 201.6L493.7 235.3Q493.1 237.3 492.1 238.2Q491.1 239.1 489.4 239.1L489.4 239.1Q487.5 239.1 486.5 238.2Q485.5 237.3 484.9 235.3L484.9 235.3L477.1 208.0L476.8 208.0L469.0 235.3Q468.4 237.3 467.4 238.2Q466.3 239.1 464.5 239.1ZM515.1 202.0Q513.9 203.2 512.2 203.2Q510.5 203.2 509.4 202.0Q508.2 200.8 508.2 199.2L508.2 199.2Q508.2 197.5 509.4 196.4Q510.5 195.2 512.2 195.2L512.2 195.2Q514.0 195.2 515.1 196.4Q516.3 197.5 516.3 199.2L516.3 199.2Q516.3 200.8 515.1 202.0ZM514.9 238.1Q513.9 239.2 512.2 239.2Q510.6 239.2 509.6 238.1Q508.6 237.1 508.6 235.3L508.6 235.3L508.6 210.7Q508.6 209.0 509.6 207.9Q510.6 206.9 512.2 206.9Q513.9 206.9 514.9 207.9Q515.9 209.0 515.9 210.8L515.9 210.8L515.9 235.3Q515.9 237.1 514.9 238.1ZM524.0 230.9L524.0 230.9L524.0 213.1L522.1 213.1Q520.7 213.1 519.9 212.4Q519.2 211.6 519.2 210.3L519.2 210.3Q519.2 209.0 519.9 208.3Q520.7 207.5 522.1 207.5L522.1 207.5L524.0 207.5L524.0 203.4Q524.0 201.6 525.0 200.6Q526.0 199.6 527.7 199.6L527.7 199.6Q529.4 199.6 530.4 200.6Q531.3 201.6 531.3 203.4L531.3 203.4L531.3 207.5L534.7 207.5Q536.1 207.5 536.9 208.3Q537.6 209.0 537.6 210.3L537.6 210.3Q537.6 211.6 536.8 212.4Q536.1 213.1 534.7 213.1L534.7 213.1L531.3 213.1L531.3 229.3Q531.3 231.1 532.0 231.9Q532.7 232.7 534.3 232.9L534.3 232.9L534.8 232.9Q537.7 233.2 537.7 235.6L537.7 235.6Q537.7 237.2 536.4 238.1Q535.0 238.9 532.5 238.9L532.5 238.9L532.2 238.9Q524.0 238.9 524.0 230.9ZM548.7 238.2Q547.7 239.2 546.0 239.2Q544.4 239.2 543.4 238.2Q542.4 237.1 542.4 235.3L542.4 235.3L542.4 199.5Q542.4 197.7 543.3 196.7Q544.3 195.7 546.0 195.7L546.0 195.7Q547.7 195.7 548.6 196.7Q549.6 197.7 549.6 199.5L549.6 199.5L549.6 212.9L549.7 212.9Q551.0 210.0 553.5 208.5Q556.0 206.9 559.5 206.9L559.5 206.9Q564.6 206.9 567.5 210.1Q570.4 213.2 570.4 218.6L570.4 218.6L570.4 235.3Q570.4 237.1 569.4 238.2Q568.4 239.2 566.7 239.2Q565.1 239.2 564.1 238.2Q563.1 237.1 563.1 235.3L563.1 235.3L563.1 220.1Q563.1 216.8 561.5 214.9Q559.8 213.1 556.7 213.1L556.7 213.1Q553.4 213.1 551.5 215.2Q549.6 217.3 549.6 220.7L549.6 220.7L549.6 235.3Q549.6 237.1 548.7 238.2ZM600.9 234.9Q596.8 239.2 590.0 239.2Q583.1 239.2 579.0 234.9Q574.9 230.6 574.9 223.1L574.9 223.1Q574.9 215.6 579.0 211.2Q583.1 206.9 590.0 206.9L590.0 206.9Q596.8 206.9 600.9 211.2Q605.0 215.6 605.0 223.1L605.0 223.1Q605.0 230.6 600.9 234.9ZM584.4 230.7Q586.4 233.4 590.0 233.4Q593.5 233.4 595.5 230.7Q597.6 228.0 597.6 223.1L597.6 223.1Q597.6 218.2 595.5 215.4Q593.5 212.7 590.0 212.7L590.0 212.7Q586.5 212.7 584.4 215.4Q582.3 218.2 582.3 223.1L582.3 223.1Q582.3 228.0 584.4 230.7ZM620.5 239.1L620.5 239.1Q615.5 239.1 612.5 236.0Q609.5 233.0 609.5 227.6L609.5 227.6L609.5 210.7Q609.5 209.0 610.5 207.9Q611.5 206.9 613.2 206.9Q614.8 206.9 615.8 207.9Q616.8 209.0 616.8 210.8L616.8 210.8L616.8 226.1Q616.8 229.5 618.4 231.2Q620.0 233.0 623.1 233.0L623.1 233.0Q626.2 233.0 628.1 230.9Q629.9 228.9 629.9 225.5L629.9 225.5L629.9 210.7Q629.9 209.0 630.9 207.9Q631.9 206.9 633.6 206.9L633.6 206.9Q635.2 206.9 636.2 207.9Q637.2 209.0 637.2 210.8L637.2 210.8L637.2 235.5Q637.2 237.2 636.3 238.2Q635.3 239.2 633.7 239.2L633.7 239.2Q632.1 239.2 631.2 238.2Q630.2 237.2 630.2 235.5L630.2 235.5L630.2 233.2L630.0 233.2Q627.5 239.1 620.5 239.1ZM645.2 230.9L645.2 230.9L645.2 213.1L643.2 213.1Q641.9 213.1 641.1 212.4Q640.3 211.6 640.3 210.3L640.3 210.3Q640.3 209.0 641.1 208.3Q641.8 207.5 643.2 207.5L643.2 207.5L645.2 207.5L645.2 203.4Q645.2 201.6 646.2 200.6Q647.1 199.6 648.8 199.6L648.8 199.6Q650.5 199.6 651.5 200.6Q652.5 201.6 652.5 203.4L652.5 203.4L652.5 207.5L655.8 207.5Q657.2 207.5 658.0 208.3Q658.8 209.0 658.8 210.3L658.8 210.3Q658.8 211.6 658.0 212.4Q657.2 213.1 655.8 213.1L655.8 213.1L652.5 213.1L652.5 229.3Q652.5 231.1 653.2 231.9Q653.8 232.7 655.4 232.9L655.4 232.9L655.9 232.9Q658.9 233.2 658.9 235.6L658.9 235.6Q658.9 237.2 657.5 238.1Q656.2 238.9 653.7 238.9L653.7 238.9L653.4 238.9Q645.2 238.9 645.2 230.9Z M700.4 238.6L679.8 238.6Q678.1 238.6 677.0 237.5Q676.0 236.5 676.0 234.7L676.0 234.7L676.0 200.2Q676.0 198.4 677.0 197.3Q678.1 196.3 679.8 196.3L679.8 196.3L700.4 196.3Q702.0 196.3 702.9 197.2Q703.9 198.0 703.9 199.5Q703.9 201.0 702.9 201.8Q702.0 202.7 700.4 202.7L700.4 202.7L683.6 202.7L683.6 214.1L699.5 214.1Q701.0 214.1 701.9 214.9Q702.8 215.7 702.8 217.1Q702.8 218.5 701.9 219.3Q701.0 220.1 699.5 220.1L699.5 220.1L683.6 220.1L683.6 232.2L700.4 232.2Q702.0 232.2 702.9 233.1Q703.9 233.9 703.9 235.4Q703.9 236.8 702.9 237.7Q702.0 238.6 700.4 238.6L700.4 238.6ZM712.9 239.2L712.9 239.2Q711.2 239.2 710.2 238.2Q709.2 237.1 709.2 235.3L709.2 235.3L709.2 210.6Q709.2 208.9 710.2 207.9Q711.1 206.9 712.7 206.9Q714.3 206.9 715.3 207.9Q716.2 208.9 716.2 210.6L716.2 210.6L716.2 212.9L716.4 212.9Q717.4 210.2 719.7 208.5Q722.1 206.9 725.2 206.9L725.2 206.9Q728.5 206.9 730.8 208.6Q733.0 210.2 733.9 213.2L733.9 213.2L734.1 213.2Q735.2 210.3 737.8 208.6Q740.4 206.9 743.7 206.9L743.7 206.9Q748.3 206.9 751.1 209.8Q753.9 212.6 753.9 217.3L753.9 217.3L753.9 235.3Q753.9 237.1 752.9 238.1Q751.9 239.2 750.2 239.2L750.2 239.2Q748.6 239.2 747.6 238.1Q746.6 237.1 746.6 235.3L746.6 235.3L746.6 219.1Q746.6 216.2 745.1 214.6Q743.7 213.1 741.0 213.1L741.0 213.1Q738.4 213.1 736.7 214.8Q735.1 216.6 735.1 219.4L735.1 219.4L735.1 235.3Q735.1 237.1 734.1 238.2Q733.2 239.2 731.6 239.2L731.6 239.2Q729.9 239.2 728.9 238.2Q728.0 237.1 728.0 235.3L728.0 235.3L728.0 218.7Q728.0 216.1 726.5 214.6Q725.0 213.1 722.5 213.1L722.5 213.1Q719.9 213.1 718.2 214.9Q716.5 216.8 716.5 219.6L716.5 219.6L716.5 235.3Q716.5 237.1 715.5 238.1Q714.5 239.2 712.9 239.2ZM766.0 248.6Q765.0 249.6 763.3 249.6Q761.7 249.6 760.7 248.6Q759.7 247.6 759.7 245.8L759.7 245.8L759.7 210.7Q759.7 208.9 760.7 207.9Q761.7 206.9 763.3 206.9L763.3 206.9Q764.9 206.9 765.8 207.9Q766.8 208.9 766.8 210.7L766.8 210.7L766.8 212.9L767.0 212.9Q768.3 210.1 770.9 208.6Q773.4 207.0 776.8 207.0L776.8 207.0Q782.7 207.0 786.2 211.3Q789.6 215.6 789.6 223.1L789.6 223.1Q789.6 230.5 786.2 234.8Q782.7 239.1 776.9 239.1L776.9 239.1Q773.5 239.1 771.0 237.6Q768.4 236.1 767.1 233.4L767.1 233.4L767.0 233.4L767.0 245.8Q767.0 247.6 766.0 248.6ZM774.5 233.1L774.5 233.1Q778.1 233.1 780.1 230.4Q782.2 227.7 782.2 223.1L782.2 223.1Q782.2 218.5 780.1 215.7Q778.0 213.0 774.5 213.0L774.5 213.0Q771.1 213.0 769.1 215.8Q767.0 218.5 766.9 223.1L766.9 223.1Q767.0 227.6 769.1 230.4Q771.1 233.1 774.5 233.1ZM800.8 238.2Q799.8 239.2 798.2 239.2Q796.6 239.2 795.6 238.2Q794.5 237.1 794.5 235.3L794.5 235.3L794.5 199.6Q794.5 197.7 795.6 196.7Q796.6 195.7 798.2 195.7Q799.8 195.7 800.8 196.7Q801.8 197.7 801.8 199.6L801.8 199.6L801.8 235.3Q801.8 237.1 800.8 238.2ZM832.7 234.9Q828.7 239.2 821.8 239.2Q814.9 239.2 810.8 234.9Q806.8 230.6 806.8 223.1L806.8 223.1Q806.8 215.6 810.9 211.2Q815.0 206.9 821.8 206.9L821.8 206.9Q828.6 206.9 832.7 211.2Q836.8 215.6 836.8 223.1L836.8 223.1Q836.8 230.6 832.7 234.9ZM816.2 230.7Q818.3 233.4 821.8 233.4Q825.3 233.4 827.4 230.7Q829.4 228.0 829.4 223.1L829.4 223.1Q829.4 218.2 827.4 215.4Q825.3 212.7 821.8 212.7L821.8 212.7Q818.3 212.7 816.2 215.4Q814.2 218.2 814.2 223.1L814.2 223.1Q814.2 228.0 816.2 230.7ZM846.0 250.1L846.0 250.1Q843.5 250.1 842.2 249.2Q840.9 248.3 840.9 246.7L840.9 246.7Q840.9 245.6 841.6 244.9Q842.4 244.2 843.6 244.2L843.6 244.2Q843.9 244.2 844.4 244.2Q844.9 244.2 845.2 244.2L845.2 244.2Q848.2 244.2 849.6 240.7L849.6 240.7L850.2 239.1L840.0 212.4Q839.6 211.2 839.6 210.3L839.6 210.3Q839.6 208.8 840.7 207.9Q841.7 206.9 843.3 206.9L843.3 206.9Q844.7 206.9 845.5 207.6Q846.4 208.3 846.8 209.8L846.8 209.8L854.2 232.4L854.4 232.4L861.8 209.8Q862.2 208.3 863.1 207.6Q863.9 206.9 865.3 206.9L865.3 206.9Q866.8 206.9 867.8 207.8Q868.8 208.8 868.8 210.2L868.8 210.2Q868.8 211.2 868.4 212.3L868.4 212.3L858.2 239.7Q856.1 245.5 853.4 247.8Q850.6 250.1 846.0 250.1ZM876.5 239.2L876.5 239.2Q874.8 239.2 873.8 238.2Q872.8 237.1 872.8 235.3L872.8 235.3L872.8 210.6Q872.8 208.9 873.8 207.9Q874.7 206.9 876.3 206.9Q877.9 206.9 878.9 207.9Q879.8 208.9 879.8 210.6L879.8 210.6L879.8 212.9L880.0 212.9Q881.0 210.2 883.3 208.5Q885.7 206.9 888.8 206.9L888.8 206.9Q892.1 206.9 894.4 208.6Q896.6 210.2 897.5 213.2L897.5 213.2L897.7 213.2Q898.8 210.3 901.4 208.6Q904.0 206.9 907.3 206.9L907.3 206.9Q911.9 206.9 914.7 209.8Q917.5 212.6 917.5 217.3L917.5 217.3L917.5 235.3Q917.5 237.1 916.5 238.1Q915.5 239.2 913.8 239.2L913.8 239.2Q912.2 239.2 911.2 238.1Q910.2 237.1 910.2 235.3L910.2 235.3L910.2 219.1Q910.2 216.2 908.7 214.6Q907.3 213.1 904.6 213.1L904.6 213.1Q902.0 213.1 900.3 214.8Q898.7 216.6 898.7 219.4L898.7 219.4L898.7 235.3Q898.7 237.1 897.7 238.2Q896.8 239.2 895.1 239.2L895.1 239.2Q893.5 239.2 892.5 238.2Q891.6 237.1 891.6 235.3L891.6 235.3L891.6 218.7Q891.6 216.1 890.1 214.6Q888.6 213.1 886.1 213.1L886.1 213.1Q883.5 213.1 881.8 214.9Q880.1 216.8 880.1 219.6L880.1 219.6L880.1 235.3Q880.1 237.1 879.1 238.1Q878.1 239.2 876.5 239.2ZM937.1 239.2L937.1 239.2Q930.0 239.2 926.0 235.0Q922.0 230.7 922.0 223.2L922.0 223.2Q922.0 215.7 926.0 211.3Q930.0 206.9 936.7 206.9L936.7 206.9Q943.0 206.9 947.0 210.9Q951.0 215.0 951.0 221.4L951.0 221.4Q951.0 223.0 950.1 223.9Q949.2 224.8 947.6 224.8L947.6 224.8L929.3 224.8L929.3 225.0Q929.3 228.9 931.4 231.3Q933.5 233.6 937.0 233.6L937.0 233.6Q939.5 233.6 941.3 232.6Q943.0 231.7 944.8 229.4L944.8 229.4Q945.9 228.3 947.3 228.3L947.3 228.3Q948.5 228.3 949.4 229.0Q950.2 229.8 950.2 231.1L950.2 231.1Q950.2 231.9 949.7 232.9L949.7 232.9Q948.1 235.9 944.8 237.5Q941.5 239.2 937.1 239.2ZM929.3 220.0L929.3 220.0L943.8 220.0Q943.7 216.6 941.8 214.6Q939.8 212.5 936.7 212.5Q933.6 212.5 931.6 214.6Q929.5 216.7 929.3 220.0ZM962.0 238.2Q960.9 239.2 959.3 239.2Q957.7 239.2 956.7 238.2Q955.7 237.1 955.7 235.3L955.7 235.3L955.7 210.6Q955.7 208.9 956.6 207.9Q957.5 206.9 959.2 206.9Q960.8 206.9 961.8 207.9Q962.8 208.9 962.8 210.6L962.8 210.6L962.8 212.8L962.9 212.8Q965.5 206.9 972.6 206.9L972.6 206.9Q977.7 206.9 980.5 210.0Q983.3 213.1 983.3 218.5L983.3 218.5L983.3 235.3Q983.3 237.1 982.3 238.2Q981.3 239.2 979.7 239.2Q978.1 239.2 977.0 238.2Q976.0 237.1 976.0 235.3L976.0 235.3L976.0 220.0Q976.0 216.6 974.5 214.9Q972.9 213.1 969.8 213.1L969.8 213.1Q966.7 213.1 964.8 215.2Q963.0 217.2 963.0 220.6L963.0 220.6L963.0 235.3Q963.0 237.1 962.0 238.2ZM991.2 230.9L991.2 230.9L991.2 213.1L989.2 213.1Q987.9 213.1 987.1 212.4Q986.3 211.6 986.3 210.3L986.3 210.3Q986.3 209.0 987.1 208.3Q987.8 207.5 989.2 207.5L989.2 207.5L991.2 207.5L991.2 203.4Q991.2 201.6 992.2 200.6Q993.1 199.6 994.8 199.6L994.8 199.6Q996.5 199.6 997.5 200.6Q998.5 201.6 998.5 203.4L998.5 203.4L998.5 207.5L1001.8 207.5Q1003.2 207.5 1004.0 208.3Q1004.8 209.0 1004.8 210.3L1004.8 210.3Q1004.8 211.6 1004.0 212.4Q1003.2 213.1 1001.8 213.1L1001.8 213.1L998.5 213.1L998.5 229.3Q998.5 231.1 999.2 231.9Q999.8 232.7 1001.4 232.9L1001.4 232.9L1001.9 232.9Q1004.9 233.2 1004.9 235.6L1004.9 235.6Q1004.9 237.2 1003.5 238.1Q1002.2 238.9 999.6 238.9L999.6 238.9L999.4 238.9Q991.2 238.9 991.2 230.9Z M47.5 321.6L47.5 321.6Q45.7 321.6 44.7 320.5Q43.7 319.5 43.7 317.7L43.7 317.7L43.7 282.7Q43.7 280.9 44.7 279.8Q45.7 278.8 47.5 278.8L47.5 278.8L60.2 278.8Q66.5 278.8 70.4 282.7Q74.4 286.6 74.4 293.0L74.4 293.0Q74.4 299.3 70.3 303.2Q66.3 307.1 59.8 307.1L59.8 307.1L51.3 307.1L51.3 317.7Q51.3 319.5 50.3 320.6Q49.3 321.6 47.5 321.6ZM51.3 285.0L51.3 301.0L58.1 301.0Q62.2 301.0 64.5 298.9Q66.7 296.8 66.7 293.0L66.7 293.0Q66.7 289.1 64.5 287.1Q62.2 285.0 58.2 285.0L58.2 285.0L51.3 285.0ZM85.5 320.6Q84.5 321.7 82.8 321.7Q81.1 321.7 80.2 320.6Q79.2 319.6 79.2 317.8L79.2 317.8L79.2 293.1Q79.2 291.4 80.1 290.4Q81.1 289.4 82.7 289.4L82.7 289.4Q84.2 289.4 85.1 290.4Q86.1 291.4 86.1 293.1L86.1 293.1L86.1 295.5L86.3 295.5Q86.9 292.8 88.7 291.1Q90.6 289.5 92.9 289.5L92.9 289.5Q94.6 289.5 95.5 290.3L95.5 290.3Q96.5 291.1 96.5 292.9L96.5 292.9Q96.5 294.6 95.4 295.5L95.4 295.5Q94.4 296.4 92.2 296.5L92.2 296.5Q86.5 296.5 86.5 302.9L86.5 302.9L86.5 317.8Q86.5 319.6 85.5 320.6ZM124.5 317.4Q120.4 321.7 113.5 321.7Q106.7 321.7 102.6 317.4Q98.5 313.1 98.5 305.6L98.5 305.6Q98.5 298.1 102.6 293.7Q106.7 289.4 113.5 289.4L113.5 289.4Q120.4 289.4 124.5 293.7Q128.6 298.1 128.6 305.6L128.6 305.6Q128.6 313.1 124.5 317.4ZM108.0 313.2Q110.0 315.9 113.5 315.9Q117.1 315.9 119.1 313.2Q121.2 310.5 121.2 305.6L121.2 305.6Q121.2 300.7 119.1 297.9Q117.1 295.2 113.5 295.2L113.5 295.2Q110.0 295.2 108.0 297.9Q105.9 300.7 105.9 305.6L105.9 305.6Q105.9 310.5 108.0 313.2ZM157.9 317.4Q153.9 321.7 147.0 321.7Q140.1 321.7 136.0 317.4Q132.0 313.1 132.0 305.6L132.0 305.6Q132.0 298.1 136.1 293.7Q140.2 289.4 147.0 289.4L147.0 289.4Q153.8 289.4 157.9 293.7Q162.0 298.1 162.0 305.6L162.0 305.6Q162.0 313.1 157.9 317.4ZM141.4 313.2Q143.5 315.9 147.0 315.9Q150.5 315.9 152.6 313.2Q154.6 310.5 154.6 305.6L154.6 305.6Q154.6 300.7 152.6 297.9Q150.5 295.2 147.0 295.2L147.0 295.2Q143.5 295.2 141.4 297.9Q139.4 300.7 139.4 305.6L139.4 305.6Q139.4 310.5 141.4 313.2ZM175.0 320.7Q174.1 321.7 172.4 321.7Q170.7 321.7 169.7 320.7Q168.7 319.7 168.7 317.9L168.7 317.9L168.7 295.6L166.8 295.6Q165.5 295.6 164.8 294.9Q164.0 294.2 164.0 292.9L164.0 292.9Q164.0 291.6 164.8 290.9Q165.5 290.1 166.8 290.1L166.8 290.1L168.7 290.1L168.7 287.4Q168.7 278.5 177.3 278.5L177.3 278.5Q180.1 278.5 181.5 279.3Q182.9 280.1 182.9 281.5L182.9 281.5Q182.9 283.2 181.3 283.6L181.3 283.6Q180.6 283.8 179.7 283.8L179.7 283.8Q177.7 283.9 176.8 284.8Q175.9 285.7 175.9 287.7L175.9 287.7L175.9 290.1L179.8 290.1Q181.1 290.1 181.8 290.9Q182.6 291.6 182.6 292.9L182.6 292.9Q182.6 294.2 181.8 294.9Q181.1 295.6 179.8 295.6L179.8 295.6L176.0 295.6L176.0 317.9Q176.0 319.7 175.0 320.7Z "/><defs><clipPath id="satori_bc-id-0-1"><rect x="0" y="441" width="1200" height="189"/></clipPath></defs><mask id="satori_om-id-0-1"><rect x="0" y="442" width="1200" height="188" fill="#fff"/><path width="1200" height="189" fill="none" stroke="#000" stroke-width="2" d="M0,441 A0,0 0 0 1 0,441 h1200 A0,0 0 0 1 1200,441"/></mask><path width="1200" height="189" clip-path="url(#satori_bc-id-0-1)" fill="none" stroke="#dbdbdb" stroke-width="2" d="M0,441 A0,0 0 0 1 0,441 h1200 A0,0 0 0 1 1200,441"/><mask id="satori_om-id-0-1-0"><rect x="40" y="482" width="292" height="108" fill="#fff"/></mask><clipPath id="satori_cp-id-0-1-0-0"><rect x="40" y="504" width="64" height="64"/></clipPath><mask id="satori_om-id-0-1-0-0"><rect x="40" y="504" width="64" height="64" fill="#fff"/></mask><image x="40" y="504" width="64" height="64" href="data:image/svg+xml;utf8,%3Csvg  xmlns=%22http://www.w3.org/2000/svg%22 width=%2264%22 height=%2264%22 viewBox=%220 0 128 128%22%3E%3Cpath fill=%22%23224d67%22 d=%22M22.5 14.8c2.9 1.3 99 44 99 44c2.7 1.2 2.9 3.1 2 12.4c-1 10.5-1.9 37.8-40.2 42.9c-24.6 3.2-55.9-4.3-70.9-27.2C-6 58.8 11 23.4 14.8 17.7c2.4-3.5 4.8-4.2 7.7-2.9%22%3E%3C/path%3E%3Cpath fill=%22%23f0f4c3%22 d=%22M121.5 58.8c-.3-.2-92-40.8-98.9-43.9C9.6 31.5-3.8 76 27.9 96.2c33.6 21.5 78.7-10.2 93.6-37.4%22%3E%3C/path%3E%3Cpath fill=%22%23f0f4c3%22 d=%22M117.7 57c-.3-.2-86.7-38.4-93.2-41.3c-12.2 15.5-23.9 59.1 5.7 78c31.4 20.2 73.6-11.2 87.5-36.7%22%3E%3C/path%3E%3Cpath fill=%22%23cb2a42%22 d=%22M56.2 37.6L19.5 48.2c-2.5.8-4.4 2.8-5 5.3c-1.9 8.5.8 23.3 8.9 29.8c3.5 2.7 8.6 1.8 10.8-2.1L58.5 41c1.3-1.7.5-4.2-2.3-3.4m14.3 2.9s14.6 30.1 16 33s6.3 4.7 9.9 2.8c10.7-5.6 15.5-12.4 19.2-20.2c-8.9-3.9-42.4-18.8-42.4-18.8c-2.4-1.1-4 .6-2.7 3.2m-8.6 1.9C60.3 45.1 39.5 81 37.6 84.1c-1.9 3.2-.7 7.5 2.7 9.2c12.3 6.5 30.9.4 39.6-7c2.2-1.9 4.5-5.1 3.2-8.2S68.9 44.6 67.8 42.3c-1.2-2.7-4.1-2.8-5.9.1%22%3E%3C/path%3E%3Cpath fill=%22%23f0f4c3%22 d=%22M52.2 42.2c-1.4.4-10.1 3-11.1 3.4c-1.4.5-2.2 1.7-1.9 2.5c.3.9 1.7 1.1 3.1.6c.8-.3 7.1-3.9 9.5-5.2c-3.1 2.4-10.2 9.4-11.1 10.3c-1.4 1.5-1.7 3.4-.8 4.3c1 .9 2.9.5 4.3-1c1.2-1.3 8.5-12.8 9.1-13.9s.4-1.4-1.1-1m10.1 16.4c0-2.2 1.4-10.3 1.8-12.3c.4-1.6 1.5-1.8 1.8.5s1.7 9.7 1.7 11.8s-1.2 3.3-2.7 3.3c-1.4 0-2.6-1.1-2.6-3.3M79.9 49c-1.2-1.8-3.3-4.9-4.1-6.1c-.7-1.2.1-2.1 1.8-.9s4 2.9 5.4 4c1.6 1.3 1.9 3 .8 4s-2.7.8-3.9-1%22%3E%3C/path%3E%3Cellipse cx=%2287.3%22 cy=%22103.12%22 fill=%22%23cb2a42%22 rx=%223.4%22 ry=%222.3%22 transform=%22rotate(-27.098 87.298 103.126)%22%3E%3C/ellipse%3E%3Cellipse cx=%2298.89%22 cy=%22103.82%22 fill=%22%23cb2a42%22 rx=%223.4%22 ry=%222.3%22 transform=%22rotate(-30.642 98.887 103.818)%22%3E%3C/ellipse%3E%3Cellipse cx=%22102.02%22 cy=%2293.8%22 fill=%22%23cb2a42%22 rx=%223.4%22 ry=%222.3%22 transform=%22rotate(-37.16 102.017 93.797)%22%3E%3C/ellipse%3E%3Cpath fill=%22%23cb2a42%22 d=%22M57.6 30.3c-8.3-3.7-24.4-10.7-29.6-13c-3.6 2.2-9.7 11.4-11.2 21.2c-.6 3.6 1.7 5.9 5.3 4.9c0 0 33.7-9.3 35.3-9.7c1.6-.5 2-2.6.2-3.4%22%3E%3C/path%3E%3C/svg%3E" preserveAspectRatio="none" clip-path="url(#satori_cp-id-0-1-0-0)" mask="url(#satori_om-id-0-1-0-0)"/><mask id="satori_om-id-0-1-0-0-0"><rect x="40" y="504" width="0" height="64" fill="#fff"/></mask><mask id="satori_om-id-0-1-0-0-1"><rect x="40" y="504" width="0" height="64" fill="#fff"/></mask><mask id="satori_om-id-0-1-0-0-2"><rect x="40" y="504" width="0" height="64" fill="#fff"/></mask><mask id="satori_om-id-0-1-0-0-3"><rect x="40" y="504" width="0" height="64" fill="#fff"/></mask><mask id="satori_om-id-0-1-0-0-4"><rect x="40" y="504" width="0" height="64" fill="#fff"/></mask><mask id="satori_om-id-0-1-0-0-5"><rect x="40" y="504" width="0" height="64" fill="#fff"/></mask><mask id="satori_om-id-0-1-0-0-6"><rect x="40" y="504" width="0" height="64" fill="#fff"/></mask><mask id="satori_om-id-0-1-0-0-7"><rect x="40" y="504" width="0" height="64" fill="#fff"/></mask><mask id="satori_om-id-0-1-0-0-8"><rect x="40" y="504" width="0" height="64" fill="#fff"/></mask><mask id="satori_om-id-0-1-0-1"><rect x="116" y="512" width="216" height="48" fill="#fff"/></mask><path fill="#545454" d="M121.1 553.5L121.1 553.5Q119.4 553.5 118.4 552.6Q117.5 551.7 117.5 550.2L117.5 550.2Q117.5 549.3 117.9 547.9L117.9 547.9L127.2 522.8Q127.9 520.7 129.2 519.7Q130.5 518.8 132.5 518.8L132.5 518.8Q134.6 518.8 135.9 519.7Q137.2 520.7 137.9 522.8L137.9 522.8L147.2 547.9Q147.6 549.2 147.6 550.2L147.6 550.2Q147.6 551.6 146.6 552.6Q145.6 553.5 144.1 553.5L144.1 553.5Q142.6 553.5 141.7 552.8Q140.9 552.1 140.4 550.4L140.4 550.4L138.6 545.0L126.4 545.0L124.6 550.3Q124.2 552.0 123.3 552.8Q122.5 553.5 121.1 553.5ZM132.4 525.7L128.0 539.6L137 539.6L132.5 525.7L132.4 525.7ZM159.1 552.6Q158.2 553.6 156.6 553.6Q155.0 553.6 154.1 552.6Q153.2 551.7 153.2 550.0L153.2 550.0L153.2 533.1L151.9 533.1Q150.8 533.1 150.1 532.4Q149.4 531.7 149.4 530.6Q149.4 529.4 150.1 528.7Q150.8 528.1 151.9 528.1L151.9 528.1L153.2 528.1L153.2 526.2Q153.2 522.5 155.0 520.7Q156.7 519.0 160.3 518.9L160.3 518.9Q163.0 518.9 164.2 519.7Q165.5 520.4 165.5 521.7L165.5 521.7Q165.5 523.1 164.1 523.5L164.1 523.5Q163.5 523.7 162.8 523.7L162.8 523.7Q161.2 523.7 160.5 524.4Q159.9 525.1 159.9 526.5L159.9 526.5L159.9 528.1L162.7 528.1Q163.8 528.1 164.5 528.7Q165.2 529.4 165.2 530.6Q165.2 531.7 164.5 532.4Q163.8 533.1 162.7 533.1L162.7 533.1L160.0 533.1L160.0 550.0Q160.0 551.7 159.1 552.6ZM170.3 546.6L170.3 546.6L170.3 533.1L168.9 533.1Q167.7 533.1 167.0 532.4Q166.3 531.7 166.3 530.5Q166.3 529.3 167.0 528.6Q167.7 527.9 168.9 527.9L168.9 527.9L170.3 527.9L170.3 525.1Q170.3 523.5 171.2 522.5Q172.1 521.6 173.7 521.6Q175.3 521.6 176.2 522.5Q177.1 523.5 177.1 525.1L177.1 525.1L177.1 527.9L179.5 527.9Q180.7 527.9 181.4 528.6Q182.1 529.3 182.1 530.5Q182.1 531.7 181.4 532.4Q180.7 533.1 179.5 533.1L179.5 533.1L177.1 533.1L177.1 545.1Q177.1 546.5 177.6 547.1Q178.1 547.7 179.2 547.8L179.2 547.8L179.6 547.8Q180.9 548.0 181.6 548.5Q182.2 549.1 182.2 550.3L182.2 550.3Q182.2 551.8 180.9 552.6Q179.6 553.3 177.4 553.3L177.4 553.3L177.1 553.3Q170.3 553.3 170.3 546.6ZM197.0 553.6L197.0 553.6Q191.2 553.6 187.9 550.2Q184.6 546.7 184.6 540.6L184.6 540.6Q184.6 534.5 187.9 531.0Q191.1 527.4 196.7 527.4L196.7 527.4Q202.0 527.4 205.3 530.7Q208.6 533.9 208.6 539.1L208.6 539.1Q208.6 540.5 207.9 541.3Q207.1 542.1 205.6 542.1L205.6 542.1L191.3 542.1L191.3 542.4Q191.3 545.2 192.9 546.9Q194.4 548.5 197.0 548.5L197.0 548.5Q198.9 548.5 200.3 547.8Q201.6 547.2 203.0 545.5L203.0 545.5Q204.0 544.5 205.3 544.5L205.3 544.5Q206.4 544.5 207.2 545.2Q207.9 545.9 207.9 547.0L207.9 547.0Q207.9 547.8 207.5 548.7L207.5 548.7Q206.2 551 203.4 552.3Q200.7 553.6 197.0 553.6ZM191.4 537.9L191.4 537.9L202.0 537.9Q201.9 535.4 200.5 533.9Q199.0 532.5 196.8 532.5Q194.5 532.5 193.1 534.0Q191.6 535.5 191.4 537.9ZM215.6 553.6L215.6 553.6Q214.0 553.6 213.1 552.6Q212.1 551.7 212.1 550.0L212.1 550.0L212.1 530.9Q212.1 529.3 213.0 528.3Q213.9 527.4 215.4 527.4L215.4 527.4Q216.9 527.4 217.8 528.3Q218.7 529.3 218.7 530.9L218.7 530.9L218.7 532.5L218.8 532.5Q219.3 530.2 220.7 528.9Q222.1 527.5 224.0 527.5L224.0 527.5Q225.4 527.5 226.2 528.2L226.2 528.2Q227.2 528.9 227.2 530.7L227.2 530.7Q227.2 532.3 226.2 533.2L226.2 533.2Q225.2 534.0 223.2 534.1L223.2 534.1Q221.0 534.1 220.0 535.3Q219.0 536.5 219.0 538.8L219.0 538.8L219.0 550.0Q219.0 551.7 218.1 552.6Q217.2 553.6 215.6 553.6ZM242.6 553.6L242.6 553.6Q237.5 553.6 234.1 551.8Q230.8 550.0 229.7 547.1L229.7 547.1Q229.4 546.1 229.4 545.2L229.4 545.2Q229.4 543.8 230.2 543.0Q231.1 542.1 232.5 542.1L232.5 542.1Q233.6 542.1 234.3 542.6Q235.1 543.1 235.7 544.2L235.7 544.2Q236.5 546.1 238.4 547.0Q240.2 547.9 242.7 547.9L242.7 547.9Q245.6 547.9 247.3 546.7Q249.1 545.5 249.1 543.6L249.1 543.6Q249.1 541.9 247.8 540.9Q246.4 539.9 243.3 539.3L243.3 539.3L239.7 538.6Q229.6 536.6 229.6 528.9L229.6 528.9Q229.6 525.9 231.3 523.5Q232.9 521.2 235.9 519.9Q238.8 518.7 242.5 518.7L242.5 518.7Q247.2 518.7 250.5 520.5Q253.8 522.4 254.9 525.7L254.9 525.7Q255.1 526.4 255.1 527.2L255.1 527.2Q255.1 528.5 254.3 529.3Q253.5 530.1 252.1 530.1L252.1 530.1Q250.9 530.1 250.1 529.6Q249.4 529.1 248.8 528.0L248.8 528.0Q247.2 524.4 242.5 524.4L242.5 524.4Q239.9 524.4 238.3 525.5Q236.7 526.6 236.7 528.5L236.7 528.5Q236.7 530.1 238.1 531.1Q239.4 532.1 242.4 532.7L242.4 532.7L245.9 533.4Q251.3 534.5 253.7 536.7Q256.2 539.0 256.2 542.8L256.2 542.8Q256.2 547.8 252.5 550.7Q248.9 553.6 242.6 553.6ZM266.0 552.6Q265.0 553.6 263.5 553.6Q261.9 553.6 261.0 552.6Q260.1 551.7 260.1 550.0L260.1 550.0L260.1 522.2Q260.1 520.6 261.0 519.7Q261.9 518.7 263.4 518.7L263.4 518.7Q265.0 518.7 265.9 519.7Q266.8 520.6 266.8 522.2L266.8 522.2L266.8 532.4L266.9 532.4Q267.9 530.0 270.0 528.7Q272 527.5 274.8 527.5L274.8 527.5Q279.0 527.5 281.3 530.0Q283.6 532.5 283.6 536.9L283.6 536.9L283.6 550.0Q283.6 551.7 282.7 552.6Q281.7 553.6 280.2 553.6Q278.6 553.6 277.7 552.6Q276.8 551.7 276.8 550.0L276.8 550.0L276.8 538.3Q276.8 535.9 275.6 534.5Q274.3 533.1 272.0 533.1L272.0 533.1Q269.7 533.1 268.3 534.7Q266.9 536.2 266.9 538.7L266.9 538.7L266.9 550.0Q266.9 551.7 266.0 552.6ZM294.1 523.8Q293.0 524.8 291.5 524.8Q290.0 524.8 288.9 523.8Q287.8 522.8 287.8 521.3L287.8 521.3Q287.8 519.8 288.9 518.8Q290.0 517.7 291.5 517.7Q293.0 517.7 294.1 518.8Q295.2 519.8 295.2 521.3L295.2 521.3Q295.2 522.8 294.1 523.8ZM294.0 552.6Q293.1 553.6 291.5 553.6Q289.9 553.6 289.0 552.6Q288.1 551.7 288.1 550.0L288.1 550.0L288.1 531.0Q288.1 529.3 289.0 528.4Q289.9 527.4 291.5 527.4Q293.1 527.4 294.0 528.4Q294.9 529.3 294.9 531.0L294.9 531.0L294.9 550.0Q294.9 551.7 294.0 552.6ZM307.2 552.6Q306.3 553.6 304.7 553.6Q303.1 553.6 302.2 552.6Q301.3 551.7 301.3 550.0L301.3 550.0L301.3 533.1L300.0 533.1Q298.9 533.1 298.2 532.4Q297.5 531.7 297.5 530.6Q297.5 529.4 298.2 528.7Q298.9 528.1 300.0 528.1L300.0 528.1L301.3 528.1L301.3 526.2Q301.3 522.5 303.1 520.7Q304.9 519.0 308.5 518.9L308.5 518.9Q311.1 518.9 312.4 519.7Q313.6 520.4 313.6 521.7L313.6 521.7Q313.6 523.1 312.2 523.5L312.2 523.5Q311.6 523.7 310.9 523.7L310.9 523.7Q309.4 523.7 308.7 524.4Q308.0 525.1 308.0 526.5L308.0 526.5L308.0 528.1L310.9 528.1Q312.0 528.1 312.7 528.7Q313.4 529.4 313.4 530.6Q313.4 531.7 312.7 532.4Q312.0 533.1 310.9 533.1L310.9 533.1L308.1 533.1L308.1 550.0Q308.1 551.7 307.2 552.6ZM318.4 546.6L318.4 546.6L318.4 533.1L317.1 533.1Q315.9 533.1 315.1 532.4Q314.4 531.7 314.4 530.5Q314.4 529.3 315.1 528.6Q315.9 527.9 317.1 527.9L317.1 527.9L318.4 527.9L318.4 525.1Q318.4 523.5 319.3 522.5Q320.2 521.6 321.8 521.6Q323.4 521.6 324.3 522.5Q325.2 523.5 325.2 525.1L325.2 525.1L325.2 527.9L327.6 527.9Q328.9 527.9 329.6 528.6Q330.3 529.3 330.3 530.5Q330.3 531.7 329.6 532.4Q328.9 533.1 327.6 533.1L327.6 533.1L325.2 533.1L325.2 545.1Q325.2 546.5 325.7 547.1Q326.2 547.7 327.3 547.8L327.3 547.8L327.8 547.8Q329.1 548.0 329.7 548.5Q330.4 549.1 330.4 550.3L330.4 550.3Q330.4 551.8 329.0 552.6Q327.7 553.3 325.5 553.3L325.5 553.3L325.3 553.3Q318.4 553.3 318.4 546.6Z "/><mask id="satori_om-id-0-1-1"><rect x="924" y="524" width="236" height="36" fill="#fff"/></mask><path fill="#8e8e8e" d="M927.9 552.6Q927.5 552.9 927.0 552.9Q926.4 552.9 926.1 552.6Q925.8 552.2 925.8 551.7L925.8 551.7L925.8 532.6Q925.8 532.0 926.1 531.6Q926.5 531.3 927.1 531.3Q927.6 531.3 928.0 531.6Q928.3 532.0 928.3 532.6L928.3 532.6L928.3 540.0L928.4 540.0Q929.1 538.7 930.4 537.9Q931.7 537.2 933.3 537.2L933.3 537.2Q936.2 537.2 937.9 539.3Q939.7 541.5 939.7 545.0L939.7 545.0Q939.7 548.6 937.9 550.8Q936.2 552.9 933.2 552.9L933.2 552.9Q931.6 552.9 930.3 552.2Q929.0 551.4 928.3 550.1L928.3 550.1L928.2 550.1L928.2 551.7Q928.2 552.2 927.9 552.6ZM932.7 550.7L932.7 550.7Q934.8 550.7 935.9 549.2Q937.1 547.7 937.1 545.0L937.1 545.0Q937.1 542.5 935.9 540.9Q934.8 539.4 932.7 539.4L932.7 539.4Q930.8 539.4 929.6 541.0Q928.3 542.5 928.3 545.0L928.3 545.0Q928.3 547.6 929.6 549.1Q930.8 550.7 932.7 550.7ZM943.8 558.4L943.8 558.4Q942.9 558.4 942.4 558.0Q941.9 557.7 941.9 557.1L941.9 557.1Q941.9 556.7 942.1 556.4Q942.4 556.2 942.9 556.2L942.9 556.2Q943.1 556.2 943.3 556.2Q943.5 556.2 943.7 556.2L943.7 556.2Q945.4 556.2 946.2 553.7L946.2 553.7L946.6 552.7L941.3 539.0Q941.2 538.6 941.2 538.3L941.2 538.3Q941.2 537.8 941.6 537.5Q941.9 537.2 942.5 537.2L942.5 537.2Q943.4 537.2 943.7 538.1L943.7 538.1L947.9 550.1L948.0 550.1L952.2 538.1Q952.3 537.6 952.6 537.4Q952.9 537.2 953.4 537.2L953.4 537.2Q953.9 537.2 954.3 537.5Q954.6 537.8 954.6 538.3L954.6 538.3Q954.6 538.6 954.5 539.0L954.5 539.0L948.9 553.7Q947.9 556.4 946.8 557.4Q945.7 558.4 943.8 558.4Z M965.7 552.5Q965.3 552.9 964.7 552.9Q964.1 552.9 963.8 552.5Q963.4 552.1 963.4 551.5L963.4 551.5L963.4 532.9Q963.4 532.3 963.8 531.9Q964.1 531.5 964.7 531.5L964.7 531.5L970.9 531.5Q973.9 531.5 975.8 533.4Q977.7 535.3 977.7 538.3L977.7 538.3Q977.7 541.3 975.8 543.2Q973.9 545.1 970.9 545.1L970.9 545.1L966.0 545.1L966.0 551.5Q966.0 552.1 965.7 552.5ZM966.0 533.9L966.0 542.8L970.3 542.8Q972.5 542.8 973.8 541.6Q975.0 540.4 975.0 538.3Q975.0 536.2 973.8 535.0Q972.5 533.9 970.3 533.9L970.3 533.9L966.0 533.9ZM984.8 552.9L984.8 552.9Q982.5 552.9 981.1 551.7Q979.7 550.4 979.7 548.4L979.7 548.4Q979.7 546.4 981.2 545.2Q982.6 544.1 985.2 543.9L985.2 543.9L989.6 543.7L989.6 542.4Q989.6 541.0 988.7 540.2Q987.9 539.4 986.3 539.4L986.3 539.4Q985.0 539.4 984.1 539.9Q983.3 540.4 982.6 541.5L982.6 541.5Q982.3 542.1 981.6 542.1L981.6 542.1Q981.1 542.1 980.8 541.8Q980.5 541.5 980.5 541.0Q980.5 540.5 980.8 539.9L980.8 539.9Q981.4 538.7 982.9 537.9Q984.5 537.2 986.3 537.2L986.3 537.2Q989.0 537.2 990.6 538.5Q992.2 539.9 992.2 542.1L992.2 542.1L992.2 551.6Q992.2 552.2 991.8 552.6Q991.5 552.9 991.0 552.9L991.0 552.9Q990.4 552.9 990.1 552.6Q989.7 552.2 989.7 551.6L989.7 551.6L989.7 550.0L989.7 550.0Q989.0 551.3 987.7 552.1Q986.3 552.9 984.8 552.9ZM985.3 550.8L985.3 550.8Q987.1 550.8 988.4 549.6Q989.6 548.5 989.6 546.9L989.6 546.9L989.6 545.6L985.5 545.9Q984.0 546.0 983.1 546.6Q982.3 547.3 982.3 548.4Q982.3 549.4 983.1 550.1Q984.0 550.8 985.3 550.8ZM996.2 549.1L996.2 549.1L996.2 539.5L994.9 539.5Q994.4 539.5 994.1 539.3Q993.8 539.0 993.8 538.5L993.8 538.5Q993.8 538.0 994.1 537.7Q994.4 537.4 994.9 537.4L994.9 537.4L996.2 537.4L996.2 534.8Q996.2 534.2 996.6 533.8Q996.9 533.5 997.5 533.5Q998.0 533.5 998.4 533.8Q998.8 534.2 998.8 534.8L998.8 534.8L998.8 537.4L1000.7 537.4Q1001.3 537.4 1001.6 537.7Q1001.9 538.0 1001.9 538.5L1001.9 538.5Q1001.9 539.0 1001.6 539.3Q1001.3 539.5 1000.7 539.5L1000.7 539.5L998.8 539.5L998.8 548.6Q998.8 549.6 999.2 550.0Q999.6 550.5 1000.5 550.6L1000.5 550.6L1000.7 550.6Q1001.9 550.7 1001.9 551.6L1001.9 551.6Q1001.9 552.2 1001.5 552.5Q1001.1 552.8 1000.1 552.8L1000.1 552.8L999.9 552.8Q996.2 552.8 996.2 549.1ZM1006.6 552.5Q1006.3 552.9 1005.7 552.9Q1005.2 552.9 1004.8 552.5Q1004.4 552.2 1004.4 551.6L1004.4 551.6L1004.4 538.5Q1004.4 537.9 1004.8 537.5Q1005.1 537.2 1005.6 537.2Q1006.2 537.2 1006.5 537.5Q1006.8 537.9 1006.8 538.5L1006.8 538.5L1006.8 539.9L1006.9 539.9Q1007.2 538.7 1008.2 537.9Q1009.2 537.2 1010.4 537.2L1010.4 537.2Q1011.2 537.2 1011.6 537.5L1011.6 537.5Q1011.9 537.8 1011.9 538.4L1011.9 538.4Q1011.9 539.0 1011.5 539.3L1011.5 539.3Q1011.1 539.6 1010.3 539.6L1010.3 539.6Q1008.6 539.6 1007.8 540.6Q1007.0 541.6 1007.0 543.2L1007.0 543.2L1007.0 551.6Q1007.0 552.2 1006.6 552.5ZM1015.1 534.9L1015.1 534.9Q1014.4 534.9 1014.0 534.4Q1013.5 533.9 1013.5 533.3L1013.5 533.3Q1013.5 532.6 1014.0 532.2Q1014.4 531.7 1015.1 531.7L1015.1 531.7Q1015.7 531.7 1016.2 532.2Q1016.7 532.6 1016.7 533.3L1016.7 533.3Q1016.7 533.9 1016.2 534.4Q1015.7 534.9 1015.1 534.9ZM1016.0 552.5Q1015.6 552.9 1015.1 552.9Q1014.5 552.9 1014.2 552.5Q1013.8 552.2 1013.8 551.6L1013.8 551.6L1013.8 538.5Q1013.8 537.9 1014.2 537.5Q1014.5 537.2 1015.1 537.2Q1015.6 537.2 1016.0 537.5Q1016.4 537.9 1016.4 538.5L1016.4 538.5L1016.4 551.6Q1016.4 552.2 1016.0 552.5ZM1026.1 552.9L1026.1 552.9Q1022.9 552.9 1021.0 550.8Q1019.1 548.7 1019.1 545.1Q1019.1 541.5 1021.0 539.3Q1022.9 537.2 1026.1 537.2L1026.1 537.2Q1028.2 537.2 1029.9 538.2Q1031.6 539.3 1032.0 540.9L1032.0 540.9Q1032.1 541.2 1032.1 541.4L1032.1 541.4Q1032.1 542.0 1031.8 542.3Q1031.5 542.6 1031.0 542.6L1031.0 542.6Q1030.6 542.6 1030.3 542.4Q1030.1 542.2 1029.8 541.7L1029.8 541.7Q1028.6 539.4 1026.1 539.4L1026.1 539.4Q1024.1 539.4 1022.9 541.0Q1021.6 542.5 1021.6 545.0L1021.6 545.0Q1021.6 547.6 1022.9 549.2Q1024.1 550.7 1026.1 550.7L1026.1 550.7Q1027.4 550.7 1028.3 550.1Q1029.2 549.6 1029.8 548.4L1029.8 548.4Q1030.1 547.9 1030.3 547.7Q1030.6 547.5 1031.0 547.5L1031.0 547.5Q1031.5 547.5 1031.8 547.8Q1032.1 548.2 1032.1 548.7L1032.1 548.7Q1032.1 548.9 1032.0 549.3L1032.0 549.3Q1031.4 550.9 1029.8 551.9Q1028.2 552.9 1026.1 552.9ZM1041.2 552.9L1041.2 552.9Q1037.8 552.9 1036.0 550.9Q1034.1 548.8 1034.1 545.1L1034.1 545.1Q1034.1 541.5 1036.0 539.3Q1037.8 537.2 1041.0 537.2L1041.0 537.2Q1043.9 537.2 1045.8 539.1Q1047.6 541.1 1047.6 544.3L1047.6 544.3Q1047.6 544.9 1047.3 545.3Q1046.9 545.7 1046.2 545.7L1046.2 545.7L1036.7 545.7Q1036.7 548.0 1037.9 549.4Q1039.1 550.7 1041.1 550.7L1041.1 550.7Q1042.5 550.7 1043.4 550.2Q1044.3 549.6 1045.2 548.3L1045.2 548.3Q1045.6 547.8 1046.2 547.8L1046.2 547.8Q1046.7 547.8 1047.0 548.1Q1047.3 548.4 1047.3 548.9L1047.3 548.9Q1047.3 549.2 1047.1 549.7L1047.1 549.7Q1046.4 551.2 1044.8 552.1Q1043.3 552.9 1041.2 552.9ZM1036.7 543.7L1036.7 543.7L1045.0 543.7Q1045.0 541.8 1043.8 540.6Q1042.7 539.4 1041.0 539.4L1041.0 539.4Q1039.2 539.4 1038.0 540.6Q1036.8 541.8 1036.7 543.7Z M1059.0 552.5Q1058.7 552.9 1058.1 552.9Q1057.5 552.9 1057.1 552.5Q1056.7 552.1 1056.7 551.5L1056.7 551.5L1056.7 532.7Q1056.7 532.1 1057.1 531.7Q1057.5 531.3 1058.1 531.3Q1058.7 531.3 1059.0 531.7Q1059.4 532.1 1059.4 532.7L1059.4 532.7L1059.4 541.8L1059.5 541.8L1068.9 531.8Q1069.4 531.3 1070.0 531.3L1070.0 531.3Q1070.5 531.3 1070.9 531.7Q1071.2 532.0 1071.2 532.5L1071.2 532.5Q1071.2 533.0 1070.9 533.3L1070.9 533.3L1063.6 540.9L1071.7 550.6Q1072.1 551.1 1072.1 551.6L1072.1 551.6Q1072.1 552.2 1071.7 552.5Q1071.3 552.9 1070.8 552.9L1070.8 552.9Q1070.1 552.9 1069.6 552.2L1069.6 552.2L1061.7 542.8L1059.4 545.3L1059.4 551.5Q1059.4 552.1 1059.0 552.5ZM1081.2 552.9L1081.2 552.9Q1077.8 552.9 1075.9 550.9Q1074.1 548.8 1074.1 545.1L1074.1 545.1Q1074.1 541.5 1075.9 539.3Q1077.8 537.2 1081.0 537.2L1081.0 537.2Q1083.9 537.2 1085.8 539.1Q1087.6 541.1 1087.6 544.3L1087.6 544.3Q1087.6 544.9 1087.2 545.3Q1086.9 545.7 1086.2 545.7L1086.2 545.7L1076.7 545.7Q1076.7 548.0 1077.9 549.4Q1079.1 550.7 1081.1 550.7L1081.1 550.7Q1082.5 550.7 1083.4 550.2Q1084.3 549.6 1085.2 548.3L1085.2 548.3Q1085.6 547.8 1086.2 547.8L1086.2 547.8Q1086.7 547.8 1087.0 548.1Q1087.3 548.4 1087.3 548.9L1087.3 548.9Q1087.3 549.2 1087.1 549.7L1087.1 549.7Q1086.4 551.2 1084.8 552.1Q1083.3 552.9 1081.2 552.9ZM1076.7 543.7L1076.7 543.7L1085.0 543.7Q1084.9 541.8 1083.8 540.6Q1082.7 539.4 1080.9 539.4L1080.9 539.4Q1079.1 539.4 1078.0 540.6Q1076.8 541.8 1076.7 543.7ZM1092.4 552.5Q1092.0 552.9 1091.4 552.9Q1090.9 552.9 1090.5 552.5Q1090.2 552.2 1090.2 551.6L1090.2 551.6L1090.2 538.5Q1090.2 537.9 1090.5 537.5Q1090.8 537.2 1091.4 537.2Q1091.9 537.2 1092.2 537.5Q1092.6 537.9 1092.6 538.5L1092.6 538.5L1092.6 539.9L1092.6 539.9Q1093.3 538.6 1094.5 537.9Q1095.8 537.2 1097.5 537.2L1097.5 537.2Q1100.0 537.2 1101.3 538.7Q1102.7 540.2 1102.7 542.8L1102.7 542.8L1102.7 551.6Q1102.7 552.2 1102.4 552.5Q1102.0 552.9 1101.5 552.9Q1100.9 552.9 1100.6 552.5Q1100.2 552.2 1100.2 551.6L1100.2 551.6L1100.2 543.2Q1100.2 541.4 1099.3 540.4Q1098.4 539.4 1096.7 539.4L1096.7 539.4Q1094.9 539.4 1093.8 540.6Q1092.7 541.8 1092.7 543.7L1092.7 543.7L1092.7 551.6Q1092.7 552.2 1092.4 552.5ZM1108.2 552.5Q1107.8 552.9 1107.3 552.9Q1106.7 552.9 1106.3 552.5Q1106.0 552.2 1106.0 551.6L1106.0 551.6L1106.0 538.5Q1106.0 537.9 1106.3 537.5Q1106.7 537.2 1107.2 537.2Q1107.7 537.2 1108.0 537.5Q1108.4 537.9 1108.4 538.5L1108.4 538.5L1108.4 539.9L1108.4 539.9Q1109.0 538.6 1110.1 537.9Q1111.3 537.2 1112.8 537.2L1112.8 537.2Q1114.3 537.2 1115.4 537.9Q1116.5 538.7 1117.0 540.1L1117.0 540.1L1117.1 540.1Q1117.7 538.7 1119.0 537.9Q1120.3 537.2 1121.9 537.2L1121.9 537.2Q1124.1 537.2 1125.5 538.5Q1126.8 539.9 1126.8 542.1L1126.8 542.1L1126.8 551.6Q1126.8 552.2 1126.5 552.5Q1126.1 552.9 1125.6 552.9Q1125.0 552.9 1124.6 552.5Q1124.3 552.2 1124.3 551.6L1124.3 551.6L1124.3 542.7Q1124.3 541.2 1123.5 540.3Q1122.6 539.4 1121.1 539.4Q1119.6 539.4 1118.6 540.4Q1117.7 541.4 1117.7 543.0L1117.7 543.0L1117.7 551.6Q1117.7 552.2 1117.3 552.5Q1117.0 552.9 1116.4 552.9Q1115.8 552.9 1115.5 552.5Q1115.1 552.2 1115.1 551.6L1115.1 551.6L1115.1 542.5Q1115.1 541.1 1114.3 540.2Q1113.4 539.4 1112.0 539.4L1112.0 539.4Q1110.5 539.4 1109.5 540.5Q1108.5 541.5 1108.5 543.1L1108.5 543.1L1108.5 551.6Q1108.5 552.2 1108.2 552.5ZM1136.4 552.9L1136.4 552.9Q1133.2 552.9 1131.3 550.8Q1129.3 548.7 1129.3 545.0Q1129.3 541.4 1131.3 539.3Q1133.2 537.2 1136.4 537.2L1136.4 537.2Q1139.6 537.2 1141.5 539.3Q1143.4 541.4 1143.4 545.0L1143.4 545.0Q1143.4 548.7 1141.5 550.8Q1139.6 552.9 1136.4 552.9ZM1133.1 549.2Q1134.3 550.7 1136.4 550.7Q1138.4 550.7 1139.6 549.2Q1140.8 547.7 1140.8 545.0Q1140.8 542.4 1139.6 540.9Q1138.4 539.4 1136.4 539.4Q1134.3 539.4 1133.1 540.9Q1131.9 542.4 1131.9 545.0Q1131.9 547.7 1133.1 549.2ZM1152.5 535.6L1152.5 535.6Q1152.1 535.6 1151.9 535.4Q1151.6 535.2 1151.6 534.8Q1151.6 534.5 1151.8 534.2L1151.8 534.2L1154.0 531.1Q1154.3 530.6 1154.6 530.5Q1154.8 530.3 1155.1 530.3L1155.1 530.3Q1155.6 530.3 1155.9 530.6Q1156.2 530.9 1156.2 531.3L1156.2 531.3Q1156.2 531.7 1155.9 532.1L1155.9 532.1L1153.4 535.1Q1153.0 535.6 1152.5 535.6ZM1152.4 552.9L1152.4 552.9Q1149.0 552.9 1147.1 550.9Q1145.3 548.8 1145.3 545.1L1145.3 545.1Q1145.3 541.5 1147.1 539.3Q1149.0 537.2 1152.2 537.2L1152.2 537.2Q1155.1 537.2 1156.9 539.1Q1158.8 541.1 1158.8 544.3L1158.8 544.3Q1158.8 544.9 1158.4 545.3Q1158.1 545.7 1157.4 545.7L1157.4 545.7L1147.9 545.7Q1147.9 548.0 1149.1 549.4Q1150.2 550.7 1152.3 550.7L1152.3 550.7Q1153.6 550.7 1154.6 550.2Q1155.5 549.6 1156.4 548.3L1156.4 548.3Q1156.8 547.8 1157.3 547.8L1157.3 547.8Q1157.9 547.8 1158.2 548.1Q1158.5 548.4 1158.5 548.9L1158.5 548.9Q1158.5 549.2 1158.3 549.7L1158.3 549.7Q1157.6 551.2 1156.0 552.1Q1154.5 552.9 1152.4 552.9ZM1147.9 543.7L1147.9 543.7L1156.2 543.7Q1156.1 541.8 1155.0 540.6Q1153.9 539.4 1152.1 539.4L1152.1 539.4Q1150.3 539.4 1149.2 540.6Q1148.0 541.8 1147.9 543.7Z "/></svg>