<svg width="1200" height="630" viewBox="0 0 1200 630" xmlns="http://www.w3.org/2000/svg"><mask id="satori_om-id"><rect x="0" y="0" width="1200" height="630" fill="#fff"/></mask><mask id="satori_om-id-0"><rect x="0" y="0" width="1200" height="630" fill="#fff"/></mask><rect x="0" y="0" width="1200" height="630" fill="#f2f2f2"/><mask id="satori_om-id-0-0"><rect x="0" y="0" width="1200" height="441" fill="#fff"/></mask><mask id="satori_om-id-0-0-0"><rect x="40" y="136" width="1120" height="36" fill="#fff"/></mask><path fill="#8e8e8e" d="M44.8 164.4Q44.4 164.9 43.6 164.9Q42.8 164.9 42.4 164.4Q41.9 164.0 41.9 163.2L41.9 163.2L41.9 145.2Q41.9 144.4 42.4 144.0Q42.8 143.5 43.6 143.5L43.6 143.5L53.8 143.5Q54.5 143.5 55.0 143.9Q55.4 144.3 55.4 144.9Q55.4 145.6 55.0 146.0Q54.5 146.4 53.8 146.4L53.8 146.4L45.2 146.4L45.2 153.0L53.1 153.0Q53.7 153.0 54.1 153.4Q54.5 153.8 54.5 154.4Q54.5 155.1 54.1 155.4Q53.7 155.8 53.1 155.8L53.1 155.8L45.2 155.8L45.2 163.2Q45.2 164.0 44.8 164.4ZM59.2 164.9L59.2 164.9Q58.5 164.9 58.1 164.5Q57.6 164.0 57.6 163.3L57.6 163.3L57.6 150.6Q57.6 149.9 58.0 149.4Q58.5 149.0 59.1 149.0L59.1 149.0Q59.8 149.0 60.2 149.4Q60.6 149.9 60.6 150.6L60.6 150.6L60.6 151.9L60.7 151.9Q61.0 150.6 62.0 149.8Q62.9 149.0 64.1 149.0L64.1 149.0Q64.9 149.0 65.3 149.4L65.3 149.4Q65.8 149.7 65.8 150.5L65.8 150.5Q65.8 151.2 65.3 151.6L65.3 151.6Q64.8 152.0 63.8 152.0L63.8 152.0Q62.3 152.0 61.5 153.0Q60.8 153.9 60.8 155.4L60.8 155.4L60.8 163.3Q60.8 164.0 60.3 164.5Q59.9 164.9 59.2 164.9ZM70.5 146.4Q69.9 146.9 69.2 146.9Q68.4 146.9 67.9 146.4Q67.3 145.9 67.3 145.1L67.3 145.1Q67.3 144.3 67.9 143.8Q68.4 143.3 69.2 143.3L69.2 143.3Q69.9 143.3 70.5 143.8Q71.0 144.3 71.0 145.1L71.0 145.1Q71.0 145.9 70.5 146.4ZM70.3 164.5Q69.9 164.9 69.2 164.9Q68.4 164.9 68.0 164.5Q67.6 164.0 67.6 163.3L67.6 163.3L67.6 150.7Q67.6 149.9 68.0 149.4Q68.4 149.0 69.2 149.0Q69.9 149.0 70.3 149.4Q70.7 149.9 70.7 150.7L70.7 150.7L70.7 163.3Q70.7 164.0 70.3 164.5ZM79.8 164.9L79.8 164.9Q76.8 164.9 75.1 162.8Q73.3 160.6 73.3 157.0Q73.3 153.3 75.0 151.2Q76.8 149.0 79.7 149.0L79.7 149.0Q81.4 149.0 82.6 149.8Q83.9 150.5 84.6 151.8L84.6 151.8L84.6 151.8L84.6 144.9Q84.6 144.1 85.1 143.7Q85.5 143.2 86.2 143.2L86.2 143.2Q86.9 143.2 87.4 143.7Q87.8 144.2 87.8 144.9L87.8 144.9L87.8 163.4Q87.8 164.1 87.4 164.5Q86.9 164.9 86.2 164.9L86.2 164.9Q85.5 164.9 85.1 164.5Q84.6 164.1 84.6 163.4L84.6 163.4L84.6 161.9L84.6 161.9Q84.0 163.3 82.7 164.1Q81.5 164.9 79.8 164.9ZM80.6 162.2L80.6 162.2Q82.4 162.2 83.5 160.8Q84.6 159.4 84.6 157.0L84.6 157.0Q84.6 154.6 83.5 153.1Q82.4 151.7 80.6 151.7L80.6 151.7Q78.7 151.7 77.6 153.1Q76.5 154.5 76.5 157.0L76.5 157.0Q76.5 159.4 77.6 160.8Q78.7 162.2 80.6 162.2ZM95.5 164.9L95.5 164.9Q93.3 164.9 91.8 163.6Q90.4 162.3 90.4 160.3L90.4 160.3Q90.4 158.3 91.9 157.1Q93.4 155.9 96.1 155.7L96.1 155.7L100.4 155.5L100.4 154.3Q100.4 153.0 99.5 152.3Q98.7 151.6 97.3 151.6L97.3 151.6Q96.1 151.6 95.3 152.0Q94.5 152.5 93.9 153.5L93.9 153.5Q93.4 154.2 92.6 154.2L92.6 154.2Q92.0 154.2 91.6 153.8Q91.2 153.4 91.2 152.9L91.2 152.9Q91.2 152.3 91.5 151.8L91.5 151.8Q92.1 150.5 93.7 149.8Q95.3 149.0 97.4 149.0L97.4 149.0Q100.2 149.0 101.9 150.4Q103.5 151.7 103.5 154.0L103.5 154.0L103.5 163.3Q103.5 164.1 103.1 164.5Q102.7 164.9 102.0 164.9L102.0 164.9Q101.3 164.9 100.9 164.5Q100.5 164.1 100.5 163.4L100.5 163.4L100.5 162.1L100.4 162.1Q99.8 163.4 98.4 164.2Q97.1 164.9 95.5 164.9ZM96.4 162.4L96.4 162.4Q98.1 162.4 99.2 161.4Q100.4 160.4 100.4 158.9L100.4 158.9L100.4 157.7L96.6 157.9Q95.1 158.0 94.4 158.6Q93.6 159.2 93.6 160.2L93.6 160.2Q93.6 161.2 94.4 161.8Q95.2 162.4 96.4 162.4ZM108.5 170.4L108.5 170.4Q107.4 170.4 106.8 170.0Q106.2 169.6 106.2 168.9L106.2 168.9Q106.2 168.4 106.5 168.1Q106.9 167.8 107.4 167.8L107.4 167.8Q107.6 167.8 107.8 167.8Q108.1 167.8 108.3 167.8L108.3 167.8Q109.9 167.8 110.6 165.7L110.6 165.7L110.9 164.8L105.7 151.3Q105.6 150.9 105.6 150.4L105.6 150.4Q105.6 149.8 106.0 149.4Q106.5 149.0 107.2 149.0L107.2 149.0Q107.8 149.0 108.1 149.3Q108.5 149.5 108.7 150.2L108.7 150.2L112.6 161.8L112.7 161.8L116.6 150.2Q116.8 149.5 117.2 149.3Q117.5 149.0 118.1 149.0L118.1 149.0Q118.8 149.0 119.2 149.4Q119.7 149.8 119.7 150.4L119.7 150.4Q119.7 150.8 119.5 151.3L119.5 151.3L114.2 165.4Q113.1 168.2 111.9 169.3Q110.6 170.4 108.5 170.4ZM124.1 161.1L124.1 161.1Q124.8 161.1 125.2 161.5Q125.6 161.8 125.6 162.4L125.6 162.4Q125.6 162.8 125.5 163.3L125.5 163.3L124.2 168.3Q123.9 169.4 122.9 169.4L122.9 169.4Q122.3 169.4 122.0 169.1Q121.6 168.7 121.6 168.2L121.6 168.2Q121.6 168.1 121.7 167.8L121.7 167.8L122.6 162.4Q122.8 161.1 124.1 161.1Z M149.0 164.7L137.3 164.7Q136.6 164.7 136.2 164.3Q135.7 163.9 135.7 163.3L135.7 163.3Q135.7 162.8 135.9 162.5Q136.1 162.1 136.7 161.6L136.7 161.6L143.3 154.9Q145.3 152.8 146.0 151.7Q146.7 150.6 146.7 149.3L146.7 149.3Q146.7 147.8 145.6 146.8Q144.6 145.8 143.0 145.8L143.0 145.8Q139.9 145.8 138.8 149.0L138.8 149.0Q138.5 149.5 138.2 149.8Q137.9 150.0 137.3 150.0L137.3 150.0Q136.6 150.0 136.2 149.6Q135.8 149.3 135.8 148.6L135.8 148.6Q135.8 148.3 135.9 148.0L135.9 148.0Q136.1 147.1 136.6 146.3Q137.2 145.4 138.1 144.7Q138.9 144.0 140.2 143.6Q141.5 143.1 143.0 143.1L143.0 143.1Q146.1 143.1 148.0 144.8Q149.9 146.5 149.9 149.1L149.9 149.1Q149.9 150.9 148.9 152.5Q148.0 154.0 145.2 156.8L145.2 156.8L140.2 161.8L140.2 161.9L149.0 161.9Q149.6 161.9 150.0 162.3Q150.4 162.7 150.4 163.3L150.4 163.3Q150.4 163.9 150.0 164.3Q149.6 164.7 149.0 164.7L149.0 164.7ZM166.8 162.1Q164.7 165.1 160.9 165.1Q157.1 165.1 155.0 162.1Q152.8 159.2 152.8 154.1L152.8 154.1Q152.8 149.0 155.0 146.1Q157.1 143.1 160.9 143.1L160.9 143.1Q164.7 143.1 166.8 146.1Q169.0 149.0 169.0 154.1L169.0 154.1Q169.0 159.1 166.8 162.1ZM160.9 162.3L160.9 162.3Q163.2 162.3 164.4 160.1Q165.7 157.9 165.7 154.1L165.7 154.1Q165.7 150.3 164.4 148.1Q163.2 145.9 160.9 145.9Q158.7 145.9 157.4 148.1Q156.1 150.3 156.1 154.1L156.1 154.1Q156.1 157.9 157.4 160.1Q158.6 162.3 160.9 162.3Z M185.7 164.7L179.9 164.7Q179.2 164.7 178.7 164.2Q178.3 163.8 178.3 163.0L178.3 163.0L178.3 145.2Q178.3 144.4 178.7 144.0Q179.2 143.5 179.9 143.5L179.9 143.5L185.7 143.5Q190.5 143.5 193.1 146.3Q195.7 149.1 195.7 154.1L195.7 154.1Q195.7 159.1 193.1 161.9Q190.5 164.7 185.7 164.7L185.7 164.7ZM181.6 146.4L181.6 161.8L185.4 161.8Q188.8 161.8 190.6 159.8Q192.4 157.8 192.4 154.1L192.4 154.1Q192.4 150.4 190.6 148.4Q188.8 146.4 185.4 146.4L185.4 146.4L181.6 146.4ZM205.2 165.0L205.2 165.0Q201.7 165.0 199.7 162.9Q197.8 160.8 197.8 157.0L197.8 157.0Q197.8 153.4 199.7 151.2Q201.7 149.0 204.9 149.0L204.9 149.0Q208.0 149.0 209.9 151.0Q211.9 153.0 211.9 156.1L211.9 156.1Q211.9 156.9 211.5 157.3Q211.0 157.8 210.3 157.8L210.3 157.8L201.0 157.8L201.0 157.8Q201.0 159.9 202.1 161.2Q203.2 162.4 205.1 162.4L205.1 162.4Q206.4 162.4 207.3 161.9Q208.2 161.4 209.1 160.2L209.1 160.2Q209.5 159.6 210.2 159.6L210.2 159.6Q210.8 159.6 211.1 160.0Q211.5 160.3 211.5 160.9L211.5 160.9Q211.5 161.3 211.3 161.8L211.3 161.8Q210.5 163.3 208.9 164.1Q207.3 165.0 205.2 165.0ZM201.0 155.5L201.0 155.5L208.7 155.5Q208.6 153.7 207.6 152.6Q206.6 151.5 204.9 151.5L204.9 151.5Q203.3 151.5 202.2 152.6Q201.1 153.7 201.0 155.5ZM220.9 165.0L220.9 165.0Q217.6 165.0 215.6 162.8Q213.6 160.7 213.6 157.0L213.6 157.0Q213.6 153.3 215.6 151.2Q217.6 149.0 220.9 149.0L220.9 149.0Q223.1 149.0 224.8 150.0Q226.6 151.1 227.1 152.7L227.1 152.7Q227.2 153.1 227.2 153.4L227.2 153.4Q227.2 154.0 226.8 154.4Q226.5 154.7 225.9 154.7L225.9 154.7Q225.4 154.7 225.1 154.5Q224.7 154.3 224.4 153.8L224.4 153.8Q223.8 152.7 223.0 152.1Q222.2 151.6 220.9 151.6L220.9 151.6Q219.1 151.6 218.0 153.1Q216.9 154.5 216.9 157.0L216.9 157.0Q216.9 159.4 218.0 160.9Q219.1 162.3 220.9 162.3L220.9 162.3Q223.3 162.3 224.4 160.2L224.4 160.2Q224.8 159.6 225.1 159.4Q225.4 159.2 225.9 159.2L225.9 159.2Q226.5 159.2 226.9 159.6Q227.3 159.9 227.3 160.5L227.3 160.5Q227.3 160.9 227.1 161.3L227.1 161.3Q226.5 162.9 224.8 163.9Q223.0 165.0 220.9 165.0ZM236.5 165.0L236.5 165.0Q233.0 165.0 231.1 162.9Q229.1 160.8 229.1 157.0L229.1 157.0Q229.1 153.4 231.1 151.2Q233.0 149.0 236.3 149.0L236.3 149.0Q239.4 149.0 241.3 151.0Q243.2 153.0 243.2 156.1L243.2 156.1Q243.2 156.9 242.8 157.3Q242.4 157.8 241.6 157.8L241.6 157.8L232.3 157.8L232.3 157.8Q232.3 159.9 233.4 161.2Q234.5 162.4 236.4 162.4L236.4 162.4Q237.7 162.4 238.6 161.9Q239.5 161.4 240.4 160.2L240.4 160.2Q240.9 159.6 241.5 159.6L241.5 159.6Q242.1 159.6 242.5 160.0Q242.8 160.3 242.8 160.9L242.8 160.9Q242.8 161.3 242.6 161.8L242.6 161.8Q241.9 163.3 240.3 164.1Q238.6 165.0 236.5 165.0ZM232.3 155.5L232.3 155.5L240.0 155.5Q240.0 153.7 238.9 152.6Q237.9 151.5 236.3 151.5L236.3 151.5Q234.6 151.5 233.5 152.6Q232.5 153.7 232.3 155.5ZM248.4 164.5Q247.9 164.9 247.2 164.9Q246.5 164.9 246.1 164.5Q245.6 164.0 245.6 163.3L245.6 163.3L245.6 150.6Q245.6 149.9 246.1 149.4Q246.5 149.0 247.2 149.0Q247.8 149.0 248.2 149.4Q248.7 149.8 248.7 150.6L248.7 150.6L248.7 151.8L248.7 151.8Q249.3 150.5 250.4 149.8Q251.6 149.0 253.1 149.0L253.1 149.0Q254.7 149.0 255.8 149.8Q257.0 150.6 257.4 152.0L257.4 152.0L257.5 152.0Q258.1 150.6 259.4 149.8Q260.7 149.0 262.3 149.0L262.3 149.0Q264.6 149.0 266.0 150.4Q267.3 151.8 267.3 154.1L267.3 154.1L267.3 163.3Q267.3 164.0 266.9 164.5Q266.5 164.9 265.7 164.9Q265.0 164.9 264.6 164.5Q264.2 164.0 264.2 163.3L264.2 163.3L264.2 154.8Q264.2 153.3 263.4 152.5Q262.6 151.7 261.2 151.7Q259.8 151.7 258.9 152.6Q258.0 153.6 258.0 155.0L258.0 155.0L258.0 163.3Q258.0 164.0 257.6 164.5Q257.2 164.9 256.5 164.9Q255.8 164.9 255.4 164.5Q254.9 164.0 254.9 163.3L254.9 163.3L254.9 154.6Q254.9 153.3 254.1 152.5Q253.4 151.7 252.0 151.7L252.0 151.7Q250.6 151.7 249.7 152.7Q248.8 153.6 248.8 155.1L248.8 155.1L248.8 163.3Q248.8 164.0 248.4 164.5ZM272.0 164.9L272.0 164.9Q271.3 164.9 270.9 164.5Q270.5 164.1 270.5 163.4L270.5 163.4L270.5 144.9Q270.5 144.2 270.9 143.7Q271.4 143.2 272.1 143.2Q272.8 143.2 273.2 143.7Q273.7 144.2 273.7 144.9L273.7 144.9L273.7 151.9L273.7 151.9Q274.4 150.5 275.7 149.8Q277.0 149.0 278.6 149.0L278.6 149.0Q281.5 149.0 283.3 151.2Q285.0 153.3 285.0 157.0L285.0 157.0Q285.0 160.6 283.3 162.8Q281.5 164.9 278.6 164.9L278.6 164.9Q276.9 164.9 275.6 164.2Q274.4 163.4 273.6 162.0L273.6 162.0L273.6 162.0L273.6 163.4Q273.6 164.1 273.2 164.5Q272.7 164.9 272.0 164.9ZM277.7 162.2L277.7 162.2Q279.6 162.2 280.7 160.8Q281.8 159.4 281.8 157.0L281.8 157.0Q281.8 154.5 280.7 153.1Q279.6 151.7 277.7 151.7L277.7 151.7Q275.9 151.7 274.8 153.1Q273.7 154.6 273.7 157.0L273.7 157.0Q273.7 159.3 274.8 160.8Q275.9 162.2 277.7 162.2ZM294.2 165.0L294.2 165.0Q290.7 165.0 288.7 162.9Q286.8 160.8 286.8 157.0L286.8 157.0Q286.8 153.4 288.7 151.2Q290.7 149.0 293.9 149.0L293.9 149.0Q297.0 149.0 298.9 151.0Q300.9 153.0 300.9 156.1L300.9 156.1Q300.9 156.9 300.5 157.3Q300.0 157.8 299.3 157.8L299.3 157.8L290.0 157.8L290.0 157.8Q290.0 159.9 291.1 161.2Q292.2 162.4 294.1 162.4L294.1 162.4Q295.4 162.4 296.3 161.9Q297.2 161.4 298.1 160.2L298.1 160.2Q298.5 159.6 299.2 159.6L299.2 159.6Q299.8 159.6 300.1 160.0Q300.5 160.3 300.5 160.9L300.5 160.9Q300.5 161.3 300.3 161.8L300.3 161.8Q299.5 163.3 297.9 164.1Q296.3 165.0 294.2 165.0ZM290.0 155.5L290.0 155.5L297.7 155.5Q297.7 153.7 296.6 152.6Q295.6 151.5 293.9 151.5L293.9 151.5Q292.3 151.5 291.2 152.6Q290.1 153.7 290.0 155.5ZM304.9 164.9L304.9 164.9Q304.2 164.9 303.8 164.5Q303.3 164.0 303.3 163.3L303.3 163.3L303.3 150.6Q303.3 149.9 303.7 149.4Q304.2 149.0 304.8 149.0L304.8 149.0Q305.5 149.0 305.9 149.4Q306.3 149.9 306.3 150.6L306.3 150.6L306.3 151.9L306.4 151.9Q306.7 150.6 307.7 149.8Q308.6 149.0 309.8 149.0L309.8 149.0Q310.6 149.0 311.0 149.4L311.0 149.4Q311.5 149.7 311.5 150.5L311.5 150.5Q311.5 151.2 311.0 151.6L311.0 151.6Q310.5 152.0 309.5 152.0L309.5 152.0Q308.0 152.0 307.2 153.0Q306.5 153.9 306.5 155.4L306.5 155.4L306.5 163.3Q306.5 164.0 306.0 164.5Q305.6 164.9 304.9 164.9Z M332.5 164.7L320.8 164.7Q320.1 164.7 319.7 164.3Q319.3 163.9 319.3 163.3L319.3 163.3Q319.3 162.8 319.4 162.5Q319.6 162.1 320.2 161.6L320.2 161.6L326.8 154.9Q328.8 152.8 329.5 151.7Q330.2 150.6 330.2 149.3L330.2 149.3Q330.2 147.8 329.2 146.8Q328.1 145.8 326.5 145.8L326.5 145.8Q323.4 145.8 322.3 149.0L322.3 149.0Q322.0 149.5 321.7 149.8Q321.4 150.0 320.8 150.0L320.8 150.0Q320.1 150.0 319.7 149.6Q319.3 149.3 319.3 148.6L319.3 148.6Q319.3 148.3 319.4 148.0L319.4 148.0Q319.6 147.1 320.2 146.3Q320.7 145.4 321.6 144.7Q322.4 144.0 323.7 143.6Q325.0 143.1 326.5 143.1L326.5 143.1Q329.6 143.1 331.5 144.8Q333.4 146.5 333.4 149.1L333.4 149.1Q333.4 150.9 332.5 152.5Q331.5 154.0 328.8 156.8L328.8 156.8L323.7 161.8L323.7 161.9L332.5 161.9Q333.1 161.9 333.5 162.3Q333.9 162.7 333.9 163.3L333.9 163.3Q333.9 163.9 333.5 164.3Q333.1 164.7 332.5 164.7L332.5 164.7ZM350.4 162.1Q348.2 165.1 344.4 165.1Q340.6 165.1 338.5 162.1Q336.3 159.2 336.3 154.1L336.3 154.1Q336.3 149.0 338.5 146.1Q340.6 143.1 344.4 143.1L344.4 143.1Q348.2 143.1 350.3 146.1Q352.5 149.0 352.5 154.1L352.5 154.1Q352.5 159.1 350.4 162.1ZM344.4 162.3L344.4 162.3Q346.7 162.3 347.9 160.1Q349.2 157.9 349.2 154.1L349.2 154.1Q349.2 150.3 347.9 148.1Q346.7 145.9 344.4 145.9Q342.2 145.9 340.9 148.1Q339.6 150.3 339.6 154.1L339.6 154.1Q339.6 157.9 340.9 160.1Q342.1 162.3 344.4 162.3ZM368.6 164.7L356.9 164.7Q356.2 164.7 355.8 164.3Q355.4 163.9 355.4 163.3L355.4 163.3Q355.4 162.8 355.5 162.5Q355.7 162.1 356.3 161.6L356.3 161.6L362.9 154.9Q364.9 152.8 365.6 151.7Q366.3 150.6 366.3 149.3L366.3 149.3Q366.3 147.8 365.3 146.8Q364.2 145.8 362.6 145.8L362.6 145.8Q359.5 145.8 358.4 149.0L358.4 149.0Q358.1 149.5 357.8 149.8Q357.5 150.0 356.9 150.0L356.9 150.0Q356.2 150.0 355.8 149.6Q355.4 149.3 355.4 148.6L355.4 148.6Q355.4 148.3 355.5 148.0L355.5 148.0Q355.7 147.1 356.3 146.3Q356.8 145.4 357.7 144.7Q358.5 144.0 359.8 143.6Q361.1 143.1 362.6 143.1L362.6 143.1Q365.7 143.1 367.6 144.8Q369.5 146.5 369.5 149.1L369.5 149.1Q369.5 150.9 368.5 152.5Q367.6 154.0 364.8 156.8L364.8 156.8L359.8 161.8L359.8 161.9L368.6 161.9Q369.2 161.9 369.6 162.3Q370.0 162.7 370.0 163.3L370.0 163.3Q370.0 163.9 369.6 164.3Q369.2 164.7 368.6 164.7L368.6 164.7ZM384.4 164.9L384.4 164.9Q383.7 164.9 383.3 164.5Q382.8 164.0 382.8 163.3L382.8 163.3L382.8 160.5L374.1 160.5Q373.3 160.5 372.7 160.0Q372.2 159.4 372.2 158.6L372.2 158.6Q372.2 157.6 372.9 156.3L372.9 156.3Q374.8 153.0 379.8 145.7L379.8 145.7Q380.8 144.3 381.5 143.8Q382.2 143.2 383.3 143.2L383.3 143.2Q384.6 143.2 385.3 143.9Q386.0 144.5 386.0 145.7L386.0 145.7L386.0 157.7L387.7 157.7Q388.3 157.7 388.7 158.1Q389.1 158.5 389.1 159.1Q389.1 159.7 388.7 160.1Q388.3 160.5 387.7 160.5L387.7 160.5L386.0 160.5L386.0 163.3Q386.0 164.0 385.5 164.5Q385.1 164.9 384.4 164.9ZM375.3 157.8L382.9 157.8L382.9 146.1L382.8 146.1Q377.4 153.9 375.3 157.7L375.3 157.7L375.3 157.8Z "/><mask id="satori_om-id-0-0-1"><rect x="40" y="217" width="1120" height="83" fill="#fff"/></mask><path fill="#224d67" d="M62.4 280.3L62.4 280.3Q53.1 280.3 47.7 274.4Q42.3 268.5 42.3 258.5Q42.3 248.4 47.7 242.5Q53.1 236.6 62.4 236.6L62.4 236.6Q71.6 236.6 77.0 242.5Q82.4 248.4 82.4 258.5Q82.4 268.5 77.0 274.4Q71.6 280.3 62.4 280.3ZM53.4 269.7Q56.7 273.8 62.4 273.8Q68.0 273.8 71.3 269.7Q74.7 265.5 74.7 258.5Q74.7 251.4 71.3 247.2Q68.0 243.0 62.4 243.0Q56.7 243.0 53.4 247.2Q50.0 251.4 50.0 258.5L50.0 258.5Q50.0 265.5 53.4 269.7ZM94.0 279.2Q92.9 280.2 91.3 280.2Q89.7 280.2 88.7 279.2Q87.7 278.1 87.7 276.3L87.7 276.3L87.7 251.6Q87.7 249.9 88.6 248.9Q89.5 247.9 91.2 247.9Q92.8 247.9 93.8 248.9Q94.8 249.9 94.8 251.6L94.8 251.6L94.8 253.8L94.9 253.8Q97.5 247.9 104.6 247.9L104.6 247.9Q109.7 247.9 112.5 251.0Q115.3 254.1 115.3 259.5L115.3 259.5L115.3 276.3Q115.3 278.1 114.3 279.2Q113.3 280.2 111.7 280.2Q110.0 280.2 109.0 279.2Q108.0 278.1 108.0 276.3L108.0 276.3L108.0 261.0Q108.0 257.6 106.5 255.9Q104.9 254.1 101.8 254.1L101.8 254.1Q98.7 254.1 96.8 256.2Q95.0 258.2 95.0 261.6L95.0 261.6L95.0 276.3Q95.0 278.1 94.0 279.2Z M149.3 279.6L137.7 279.6Q135.9 279.6 134.9 278.5Q133.9 277.5 133.9 275.7L133.9 275.7L133.9 241.2Q133.9 239.4 134.9 238.3Q135.9 237.3 137.7 237.3L137.7 237.3L149.3 237.3Q158.8 237.3 164.1 242.8Q169.4 248.3 169.4 258.3L169.4 258.3Q169.4 268.4 164.1 274.0Q158.8 279.6 149.3 279.6L149.3 279.6ZM141.5 243.7L141.5 273.2L148.5 273.2Q154.9 273.2 158.3 269.4Q161.7 265.6 161.7 258.4L161.7 258.4Q161.7 251.3 158.3 247.5Q154.9 243.7 148.5 243.7L148.5 243.7L141.5 243.7ZM188.5 280.2L188.5 280.2Q181.4 280.2 177.4 276.0Q173.4 271.7 173.4 264.2L173.4 264.2Q173.4 256.7 177.4 252.3Q181.4 247.9 188.1 247.9L188.1 247.9Q194.4 247.9 198.4 251.9Q202.4 256.0 202.4 262.4L202.4 262.4Q202.4 264.0 201.5 264.9Q200.6 265.8 199.0 265.8L199.0 265.8L180.7 265.8L180.7 266.0Q180.7 269.9 182.8 272.3Q184.9 274.6 188.4 274.6L188.4 274.6Q190.9 274.6 192.7 273.6Q194.4 272.7 196.2 270.4L196.2 270.4Q197.2 269.3 198.6 269.3L198.6 269.3Q199.9 269.3 200.7 270.0Q201.6 270.8 201.6 272.1L201.6 272.1Q201.6 272.9 201.1 273.9L201.1 273.9Q199.5 276.9 196.2 278.5Q192.9 280.2 188.5 280.2ZM180.7 261.0L180.7 261.0L195.2 261.0Q195.1 257.6 193.1 255.6Q191.2 253.5 188.1 253.5Q185.0 253.5 183.0 255.6Q180.9 257.7 180.7 261.0ZM215.4 279.2Q214.4 280.2 212.7 280.2Q211.1 280.2 210.1 279.2Q209.1 278.2 209.1 276.4L209.1 276.4L209.1 254.1L207.1 254.1Q205.9 254.1 205.1 253.4Q204.3 252.7 204.3 251.4L204.3 251.4Q204.3 250.1 205.1 249.4Q205.9 248.6 207.1 248.6L207.1 248.6L209.1 248.6L209.1 245.9Q209.1 237.0 217.6 237.0L217.6 237.0Q220.4 237.0 221.8 237.8Q223.2 238.6 223.2 240.0L223.2 240.0Q223.2 241.7 221.6 242.1L221.6 242.1Q221.0 242.3 220 242.3L220 242.3Q218.0 242.4 217.1 243.3Q216.3 244.2 216.3 246.2L216.3 246.2L216.3 248.6L220.2 248.6Q221.4 248.6 222.2 249.4Q223.0 250.1 223.0 251.4L223.0 251.4Q223.0 252.7 222.2 253.4Q221.4 254.1 220.2 254.1L220.2 254.1L216.4 254.1L216.4 276.4Q216.4 278.2 215.4 279.2ZM236.4 280.1L236.4 280.1Q231.8 280.1 228.9 277.5Q226.0 274.9 226.0 270.7L226.0 270.7Q226.0 266.6 229.1 264.2Q232.1 261.8 237.8 261.4L237.8 261.4L246.0 260.9L246.0 258.7Q246.0 256.3 244.5 254.9Q243.0 253.6 240.2 253.6L240.2 253.6Q238.1 253.6 236.6 254.4Q235.1 255.2 233.7 257.2L233.7 257.2Q232.6 258.7 230.8 258.7L230.8 258.7Q229.4 258.7 228.6 257.9Q227.7 257.1 227.7 255.8L227.7 255.8Q227.7 254.8 228.2 253.8L228.2 253.8Q229.4 251.1 232.7 249.5Q236.1 247.9 240.5 247.9L240.5 247.9Q246.3 247.9 249.8 250.7Q253.3 253.5 253.3 258.2L253.3 258.2L253.3 276.5Q253.3 278.2 252.3 279.2Q251.3 280.2 249.7 280.2L249.7 280.2Q248.2 280.2 247.2 279.3Q246.3 278.4 246.2 276.8L246.2 276.8L246.2 274.6L246.1 274.6Q244.8 277.1 242.1 278.6Q239.4 280.1 236.4 280.1ZM238.6 274.6L238.6 274.6Q241.7 274.6 243.9 272.7Q246.0 270.8 246.0 268.1L246.0 268.1L246.0 265.7L238.8 266.1Q236.2 266.3 234.8 267.4Q233.3 268.6 233.3 270.4L233.3 270.4Q233.3 272.3 234.8 273.4Q236.2 274.6 238.6 274.6ZM262.7 280.2L262.7 280.2Q261.1 280.2 260.1 279.2Q259.1 278.1 259.1 276.3L259.1 276.3L259.1 251.6Q259.1 249.9 260.1 248.9Q261.0 247.9 262.6 247.9Q264.2 247.9 265.1 248.9Q266.1 249.9 266.1 251.6L266.1 251.6L266.1 253.9L266.3 253.9Q267.3 251.2 269.6 249.5Q272.0 247.9 275.1 247.9L275.1 247.9Q278.4 247.9 280.7 249.6Q282.9 251.2 283.8 254.2L283.8 254.2L284.0 254.2Q285.1 251.3 287.7 249.6Q290.3 247.9 293.6 247.9L293.6 247.9Q298.2 247.9 301.0 250.8Q303.8 253.6 303.8 258.3L303.8 258.3L303.8 276.3Q303.8 278.1 302.8 279.1Q301.8 280.2 300.1 280.2L300.1 280.2Q298.5 280.2 297.5 279.1Q296.5 278.1 296.5 276.3L296.5 276.3L296.5 260.1Q296.5 257.2 295.0 255.6Q293.6 254.1 290.9 254.1L290.9 254.1Q288.3 254.1 286.6 255.8Q285.0 257.6 285.0 260.4L285.0 260.4L285.0 276.3Q285.0 278.1 284.0 279.2Q283.1 280.2 281.4 280.2L281.4 280.2Q279.8 280.2 278.8 279.2Q277.9 278.1 277.9 276.3L277.9 276.3L277.9 259.7Q277.9 257.1 276.4 255.6Q274.9 254.1 272.4 254.1L272.4 254.1Q269.7 254.1 268.1 255.9Q266.4 257.8 266.4 260.6L266.4 260.6L266.4 276.3Q266.4 278.1 265.4 279.1Q264.4 280.2 262.7 280.2ZM318.7 280.1L318.7 280.1Q314.2 280.1 311.2 277.5Q308.3 274.9 308.3 270.7L308.3 270.7Q308.3 266.6 311.4 264.2Q314.5 261.8 320.1 261.4L320.1 261.4L328.4 260.9L328.4 258.7Q328.4 256.3 326.8 254.9Q325.3 253.6 322.6 253.6L322.6 253.6Q320.4 253.6 318.9 254.4Q317.4 255.2 316.1 257.2L316.1 257.2Q315.0 258.7 313.1 258.7L313.1 258.7Q311.8 258.7 310.9 257.9Q310.0 257.1 310.0 255.8L310.0 255.8Q310.0 254.8 310.5 253.8L310.5 253.8Q311.7 251.1 315.1 249.5Q318.4 247.9 322.9 247.9L322.9 247.9Q328.6 247.9 332.1 250.7Q335.6 253.5 335.6 258.2L335.6 258.2L335.6 276.5Q335.6 278.2 334.6 279.2Q333.6 280.2 332.0 280.2L332.0 280.2Q330.5 280.2 329.6 279.3Q328.6 278.4 328.5 276.8L328.5 276.8L328.5 274.6L328.4 274.6Q327.1 277.1 324.4 278.6Q321.7 280.1 318.7 280.1ZM320.9 274.6L320.9 274.6Q324.0 274.6 326.2 272.7Q328.4 270.8 328.4 268.1L328.4 268.1L328.4 265.7L321.2 266.1Q318.5 266.3 317.1 267.4Q315.6 268.6 315.6 270.4L315.6 270.4Q315.6 272.3 317.1 273.4Q318.5 274.6 320.9 274.6ZM343.5 271.9L343.5 271.9L343.5 254.1L341.5 254.1Q340.1 254.1 339.4 253.4Q338.6 252.6 338.6 251.3L338.6 251.3Q338.6 250.0 339.3 249.3Q340.1 248.5 341.5 248.5L341.5 248.5L343.5 248.5L343.5 244.4Q343.5 242.6 344.4 241.6Q345.4 240.6 347.1 240.6L347.1 240.6Q348.8 240.6 349.8 241.6Q350.8 242.6 350.8 244.4L350.8 244.4L350.8 248.5L354.1 248.5Q355.5 248.5 356.3 249.3Q357.1 250.0 357.1 251.3L357.1 251.3Q357.1 252.6 356.3 253.4Q355.5 254.1 354.1 254.1L354.1 254.1L350.8 254.1L350.8 270.3Q350.8 272.1 351.4 272.9Q352.1 273.7 353.7 273.9L353.7 273.9L354.2 273.9Q357.1 274.2 357.1 276.6L357.1 276.6Q357.1 278.2 355.8 279.1Q354.4 279.9 351.9 279.9L351.9 279.9L351.6 279.9Q343.5 279.9 343.5 271.9ZM368.3 243.0Q367.1 244.2 365.4 244.2Q363.7 244.2 362.5 243.0Q361.3 241.8 361.3 240.2L361.3 240.2Q361.3 238.5 362.5 237.4Q363.7 236.2 365.4 236.2L365.4 236.2Q367.1 236.2 368.3 237.4Q369.4 238.5 369.4 240.2L369.4 240.2Q369.4 241.8 368.3 243.0ZM368.0 279.1Q367.0 280.2 365.4 280.2Q363.7 280.2 362.7 279.1Q361.7 278.1 361.7 276.3L361.7 276.3L361.7 251.7Q361.7 250.0 362.7 248.9Q363.7 247.9 365.4 247.9Q367.0 247.9 368.0 248.9Q369.0 250.0 369.0 251.8L369.0 251.8L369.0 276.3Q369.0 278.1 368.0 279.1ZM399.9 275.9Q395.8 280.2 388.9 280.2Q382.0 280.2 377.9 275.9Q373.9 271.6 373.9 264.1L373.9 264.1Q373.9 256.6 378.0 252.2Q382.1 247.9 388.9 247.9L388.9 247.9Q395.8 247.9 399.8 252.2Q403.9 256.6 403.9 264.1L403.9 264.1Q403.9 271.6 399.9 275.9ZM383.3 271.7Q385.4 274.4 388.9 274.4Q392.4 274.4 394.5 271.7Q396.5 269.0 396.5 264.1L396.5 264.1Q396.5 259.2 394.5 256.4Q392.4 253.7 388.9 253.7L388.9 253.7Q385.4 253.7 383.3 256.4Q381.3 259.2 381.3 264.1L381.3 264.1Q381.3 269.0 383.3 271.7ZM414.9 279.2Q413.9 280.2 412.2 280.2Q410.6 280.2 409.6 279.2Q408.6 278.1 408.6 276.3L408.6 276.3L408.6 251.6Q408.6 249.9 409.6 248.9Q410.5 247.9 412.1 247.9Q413.7 247.9 414.7 248.9Q415.7 249.9 415.7 251.6L415.7 251.6L415.7 253.8L415.8 253.8Q418.5 247.9 425.5 247.9L425.5 247.9Q430.6 247.9 433.4 251.0Q436.3 254.1 436.3 259.5L436.3 259.5L436.3 276.3Q436.3 278.1 435.3 279.2Q434.3 280.2 432.6 280.2Q431.0 280.2 430.0 279.2Q429.0 278.1 429.0 276.3L429.0 276.3L429.0 261.0Q429.0 257.6 427.4 255.9Q425.8 254.1 422.8 254.1L422.8 254.1Q419.6 254.1 417.8 256.2Q415.9 258.2 415.9 261.6L415.9 261.6L415.9 276.3Q415.9 278.1 414.9 279.2Z M463.2 280.1L463.2 280.1Q458.7 280.1 455.8 277.5Q452.9 274.9 452.9 270.7L452.9 270.7Q452.9 266.6 455.9 264.2Q459.0 261.8 464.7 261.4L464.7 261.4L472.9 260.9L472.9 258.7Q472.9 256.3 471.4 254.9Q469.8 253.6 467.1 253.6L467.1 253.6Q464.9 253.6 463.4 254.4Q461.9 255.2 460.6 257.2L460.6 257.2Q459.5 258.7 457.6 258.7L457.6 258.7Q456.3 258.7 455.4 257.9Q454.6 257.1 454.6 255.8L454.6 255.8Q454.6 254.8 455.0 253.8L455.0 253.8Q456.2 251.1 459.6 249.5Q462.9 247.9 467.4 247.9L467.4 247.9Q473.2 247.9 476.6 250.7Q480.1 253.5 480.1 258.2L480.1 258.2L480.1 276.5Q480.1 278.2 479.1 279.2Q478.1 280.2 476.6 280.2L476.6 280.2Q475.0 280.2 474.1 279.3Q473.2 278.4 473.1 276.8L473.1 276.8L473.1 274.6L472.9 274.6Q471.6 277.1 468.9 278.6Q466.3 280.1 463.2 280.1ZM465.4 274.6L465.4 274.6Q468.6 274.6 470.7 272.7Q472.9 270.8 472.9 268.1L472.9 268.1L472.9 265.7L465.7 266.1Q463.0 266.3 461.6 267.4Q460.1 268.6 460.1 270.4L460.1 270.4Q460.1 272.3 461.6 273.4Q463.0 274.6 465.4 274.6ZM492.2 279.2Q491.2 280.2 489.6 280.2Q487.9 280.2 487.0 279.2Q486.0 278.1 486.0 276.3L486.0 276.3L486.0 251.6Q486.0 249.9 486.9 248.9Q487.8 247.9 489.4 247.9Q491.1 247.9 492.1 248.9Q493.0 249.9 493.0 251.6L493.0 251.6L493.0 253.8L493.2 253.8Q495.8 247.9 502.9 247.9L502.9 247.9Q508.0 247.9 510.8 251.0Q513.6 254.1 513.6 259.5L513.6 259.5L513.6 276.3Q513.6 278.1 512.6 279.2Q511.6 280.2 510.0 280.2Q508.3 280.2 507.3 279.2Q506.3 278.1 506.3 276.3L506.3 276.3L506.3 261.0Q506.3 257.6 504.8 255.9Q503.2 254.1 500.1 254.1L500.1 254.1Q497.0 254.1 495.1 256.2Q493.3 258.2 493.3 261.6L493.3 261.6L493.3 276.3Q493.3 278.1 492.2 279.2ZM531.0 280.1L531.0 280.1Q525.2 280.1 521.7 275.7Q518.2 271.4 518.2 264.0L518.2 264.0Q518.2 256.7 521.7 252.3Q525.2 248.0 531.0 248.0L531.0 248.0Q534.3 248.0 536.9 249.5Q539.4 251.1 540.7 253.7L540.7 253.7L540.8 253.7L540.8 240.6Q540.8 238.7 541.8 237.7Q542.8 236.7 544.5 236.7Q546.1 236.7 547.1 237.7Q548.1 238.7 548.1 240.6L548.1 240.6L548.1 276.5Q548.1 278.2 547.1 279.2Q546.1 280.2 544.5 280.2L544.5 280.2Q542.9 280.2 541.9 279.2Q540.8 278.2 540.8 276.5L540.8 276.5L540.8 274.1L540.7 274.1Q539.5 276.9 537.0 278.5Q534.6 280.1 531.0 280.1ZM533.2 274.1L533.2 274.1Q536.7 274.1 538.8 271.4Q540.9 268.7 540.9 264.1L540.9 264.1Q540.9 259.5 538.8 256.7Q536.7 254.0 533.2 254.0L533.2 254.0Q529.7 254.0 527.7 256.7Q525.6 259.4 525.6 264.1L525.6 264.1Q525.6 268.7 527.7 271.4Q529.7 274.1 533.2 274.1Z M570.8 280.1L570.8 280.1Q569.0 280.1 568.0 279.0Q567.0 278.0 567.0 276.2L567.0 276.2L567.0 241.2Q567.0 239.4 568.0 238.3Q569.0 237.3 570.8 237.3L570.8 237.3L583.4 237.3Q589.8 237.3 593.7 241.2Q597.7 245.1 597.7 251.5L597.7 251.5Q597.7 257.8 593.6 261.7Q589.6 265.6 583.1 265.6L583.1 265.6L574.6 265.6L574.6 276.2Q574.6 278.0 573.6 279.1Q572.6 280.1 570.8 280.1ZM574.6 243.5L574.6 259.5L581.4 259.5Q585.5 259.5 587.7 257.4Q590.0 255.3 590.0 251.5L590.0 251.5Q590.0 247.6 587.7 245.6Q585.5 243.5 581.4 243.5L581.4 243.5L574.6 243.5ZM613.3 280.1L613.3 280.1Q608.2 280.1 605.3 277.0Q602.3 274.0 602.3 268.6L602.3 268.6L602.3 251.7Q602.3 250.0 603.3 248.9Q604.3 247.9 605.9 247.9Q607.6 247.9 608.6 248.9Q609.6 250.0 609.6 251.8L609.6 251.8L609.6 267.1Q609.6 270.5 611.2 272.2Q612.8 274.0 615.9 274.0L615.9 274.0Q619.0 274.0 620.8 271.9Q622.7 269.9 622.7 266.5L622.7 266.5L622.7 251.7Q622.7 250.0 623.7 248.9Q624.7 247.9 626.3 247.9L626.3 247.9Q628.0 247.9 629.0 248.9Q630.0 250.0 630.0 251.8L630.0 251.8L630.0 276.5Q630.0 278.2 629.0 279.2Q628.1 280.2 626.5 280.2L626.5 280.2Q624.9 280.2 623.9 279.2Q622.9 278.2 622.9 276.5L622.9 276.5L622.9 274.2L622.8 274.2Q620.2 280.1 613.3 280.1ZM642.3 279.2Q641.3 280.2 639.7 280.2Q638.1 280.2 637.1 279.2Q636.1 278.3 636.1 276.5L636.1 276.5L636.1 240.6Q636.1 238.7 637.1 237.7Q638.2 236.7 639.8 236.7Q641.4 236.7 642.4 237.7Q643.4 238.7 643.4 240.6L643.4 240.6L643.4 253.9L643.6 253.9Q645.0 251.1 647.5 249.5Q650.0 248.0 653.3 248.0L653.3 248.0Q659.2 248.0 662.7 252.3Q666.1 256.6 666.1 264.1L666.1 264.1Q666.1 271.5 662.7 275.8Q659.2 280.1 653.3 280.1L653.3 280.1Q649.9 280.1 647.4 278.6Q644.8 277.0 643.4 274.3L643.4 274.3L643.3 274.3L643.3 276.5Q643.3 278.2 642.3 279.2ZM651.1 274.1L651.1 274.1Q654.6 274.1 656.6 271.4Q658.7 268.7 658.7 264.1Q658.7 259.4 656.6 256.7Q654.6 254.0 651.1 254.0L651.1 254.0Q647.7 254.0 645.5 256.8Q643.4 259.5 643.4 264.1L643.4 264.1Q643.4 268.6 645.5 271.3Q647.7 274.1 651.1 274.1ZM677.3 279.2Q676.3 280.2 674.7 280.2Q673.0 280.2 672.0 279.2Q671.0 278.1 671.0 276.3L671.0 276.3L671.0 240.6Q671.0 238.7 672.0 237.7Q673.0 236.7 674.7 236.7Q676.3 236.7 677.3 237.7Q678.3 238.7 678.3 240.6L678.3 240.6L678.3 276.3Q678.3 278.1 677.3 279.2ZM691.2 243.0Q690.0 244.2 688.3 244.2Q686.6 244.2 685.5 243.0Q684.3 241.8 684.3 240.2L684.3 240.2Q684.3 238.5 685.5 237.4Q686.6 236.2 688.3 236.2L688.3 236.2Q690.1 236.2 691.2 237.4Q692.4 238.5 692.4 240.2L692.4 240.2Q692.4 241.8 691.2 243.0ZM691.0 279.1Q690.0 280.2 688.3 280.2Q686.7 280.2 685.7 279.1Q684.7 278.1 684.7 276.3L684.7 276.3L684.7 251.7Q684.7 250.0 685.7 248.9Q686.7 247.9 688.3 247.9Q690.0 247.9 691.0 248.9Q692.0 250.0 692.0 251.8L692.0 251.8L692.0 276.3Q692.0 278.1 691.0 279.1ZM711.8 280.2L711.8 280.2Q705.0 280.2 700.9 275.9Q696.8 271.5 696.8 264.1L696.8 264.1Q696.8 256.7 700.9 252.3Q704.9 247.9 711.7 247.9L711.7 247.9Q716.3 247.9 719.8 250.0Q723.4 252.1 724.5 255.4L724.5 255.4Q724.9 256.4 724.9 257.1L724.9 257.1Q724.9 258.5 724.0 259.3Q723.1 260.1 721.7 260.1L721.7 260.1Q720.7 260.1 719.9 259.6Q719.2 259.1 718.5 258.0L718.5 258.0Q716.3 253.8 711.9 253.8L711.9 253.8Q708.4 253.8 706.3 256.6Q704.2 259.3 704.2 264.1L704.2 264.1Q704.2 268.9 706.3 271.6Q708.4 274.3 711.9 274.3L711.9 274.3Q716.3 274.3 718.5 270.3L718.5 270.3Q719.3 269.1 720.0 268.6Q720.7 268.1 721.9 268.1L721.9 268.1Q723.2 268.1 724.1 268.9Q725.0 269.7 725.0 271.1L725.0 271.1Q725.0 271.9 724.5 272.9L724.5 272.9Q723.2 276.1 719.7 278.2Q716.1 280.2 711.8 280.2Z M744.4 280.1L744.4 280.1Q742.7 280.1 741.7 279.1Q740.6 278.2 740.6 276.6L740.6 276.6Q740.6 275.6 741.1 274.3L741.1 274.3L753.4 240.9Q754.2 238.8 755.5 237.8Q756.8 236.8 758.9 236.8L758.9 236.8Q761.0 236.8 762.3 237.8Q763.6 238.7 764.4 240.9L764.4 240.9L776.7 274.3Q777.2 275.7 777.2 276.6L777.2 276.6Q777.2 278.1 776.2 279.1Q775.1 280.1 773.4 280.1L773.4 280.1Q771.9 280.1 771.0 279.3Q770.1 278.6 769.6 276.9L769.6 276.9L766.8 268.8L751.0 268.8L748.2 276.8Q747.7 278.6 746.8 279.3Q745.9 280.1 744.4 280.1ZM758.7 244.8L752.8 262.8L765.0 262.8L758.9 244.8L758.7 244.8ZM795.6 280.2L795.6 280.2Q788.8 280.2 784.7 275.9Q780.7 271.5 780.7 264.1L780.7 264.1Q780.7 256.7 784.7 252.3Q788.8 247.9 795.6 247.9L795.6 247.9Q800.1 247.9 803.7 250.0Q807.2 252.1 808.3 255.4L808.3 255.4Q808.7 256.4 808.7 257.1L808.7 257.1Q808.7 258.5 807.8 259.3Q806.9 260.1 805.6 260.1L805.6 260.1Q804.5 260.1 803.8 259.6Q803.0 259.1 802.4 258.0L802.4 258.0Q800.1 253.8 795.8 253.8L795.8 253.8Q792.3 253.8 790.2 256.6Q788.1 259.3 788.1 264.1L788.1 264.1Q788.1 268.9 790.2 271.6Q792.2 274.3 795.7 274.3L795.7 274.3Q800.1 274.3 802.4 270.3L802.4 270.3Q803.1 269.1 803.8 268.6Q804.6 268.1 805.7 268.1L805.7 268.1Q807.1 268.1 807.9 268.9Q808.8 269.7 808.8 271.1L808.8 271.1Q808.8 271.9 808.4 272.9L808.4 272.9Q807.1 276.1 803.5 278.2Q800.0 280.2 795.6 280.2ZM827.4 280.2L827.4 280.2Q820.5 280.2 816.5 275.9Q812.4 271.5 812.4 264.1L812.4 264.1Q812.4 256.7 816.5 252.3Q820.5 247.9 827.3 247.9L827.3 247.9Q831.8 247.9 835.4 250.0Q839.0 252.1 840.1 255.4L840.1 255.4Q840.4 256.4 840.4 257.1L840.4 257.1Q840.4 258.5 839.6 259.3Q838.7 260.1 837.3 260.1L837.3 260.1Q836.2 260.1 835.5 259.6Q834.8 259.1 834.1 258.0L834.1 258.0Q831.8 253.8 827.5 253.8L827.5 253.8Q824.0 253.8 821.9 256.6Q819.8 259.3 819.8 264.1L819.8 264.1Q819.8 268.9 821.9 271.6Q824.0 274.3 827.5 274.3L827.5 274.3Q831.8 274.3 834.1 270.3L834.1 270.3Q834.9 269.1 835.6 268.6Q836.3 268.1 837.5 268.1L837.5 268.1Q838.8 268.1 839.7 268.9Q840.5 269.7 840.5 271.1L840.5 271.1Q840.5 271.9 840.1 272.9L840.1 272.9Q838.8 276.1 835.2 278.2Q831.7 280.2 827.4 280.2ZM856.3 280.1L856.3 280.1Q851.2 280.1 848.3 277.0Q845.3 274.0 845.3 268.6L845.3 268.6L845.3 251.7Q845.3 250.0 846.3 248.9Q847.3 247.9 848.9 247.9Q850.6 247.9 851.6 248.9Q852.6 250.0 852.6 251.8L852.6 251.8L852.6 267.1Q852.6 270.5 854.2 272.2Q855.8 274.0 858.8 274.0L858.8 274.0Q862.0 274.0 863.8 271.9Q865.7 269.9 865.7 266.5L865.7 266.5L865.7 251.7Q865.7 250.0 866.7 248.9Q867.7 247.9 869.3 247.9L869.3 247.9Q870.9 247.9 872.0 248.9Q873.0 250.0 873.0 251.8L873.0 251.8L873.0 276.5Q873.0 278.2 872.0 279.2Q871.1 280.2 869.5 280.2L869.5 280.2Q867.9 280.2 866.9 279.2Q865.9 278.2 865.9 276.5L865.9 276.5L865.9 274.2L865.8 274.2Q863.2 280.1 856.3 280.1ZM890.9 280.2L890.9 280.2Q886.1 280.2 882.7 278.5Q879.4 276.8 878.2 274.0L878.2 274.0Q877.9 273.2 877.9 272.5L877.9 272.5Q877.9 271.2 878.8 270.4Q879.6 269.6 881.0 269.6L881.0 269.6Q882.8 269.6 884.2 271.4L884.2 271.4Q885.4 273.3 887.0 274.1Q888.6 274.9 891.2 274.9L891.2 274.9Q893.7 274.9 895.3 273.9Q896.8 272.8 896.8 271.1L896.8 271.1Q896.8 269.7 895.8 268.8Q894.8 268.0 892.5 267.4L892.5 267.4L887.4 266.3Q878.4 264.3 878.4 257.4L878.4 257.4Q878.4 253.1 881.8 250.5Q885.3 247.9 891.0 247.9L891.0 247.9Q895.4 247.9 898.6 249.8Q901.9 251.6 902.6 254.4L902.6 254.4Q902.7 255.0 902.7 255.5L902.7 255.5Q902.7 256.6 902.0 257.4Q901.3 258.1 899.9 258.1L899.9 258.1Q898.1 258.1 897.1 256.7L897.1 256.7Q896.0 255.0 894.5 254.1Q893.0 253.2 890.8 253.2L890.8 253.2Q888.4 253.2 886.9 254.3Q885.4 255.3 885.4 257.0L885.4 257.0Q885.4 259.8 890.0 260.8L890.0 260.8L895.0 261.9Q899.9 263.0 902.0 264.9Q904.1 266.9 904.1 270.3L904.1 270.3Q904.1 274.8 900.5 277.5Q896.8 280.2 890.9 280.2ZM917.9 280.1L917.9 280.1Q913.3 280.1 910.4 277.5Q907.5 274.9 907.5 270.7L907.5 270.7Q907.5 266.6 910.5 264.2Q913.6 261.8 919.3 261.4L919.3 261.4L927.5 260.9L927.5 258.7Q927.5 256.3 926.0 254.9Q924.4 253.6 921.7 253.6L921.7 253.6Q919.6 253.6 918.1 254.4Q916.6 255.2 915.2 257.2L915.2 257.2Q914.1 258.7 912.3 258.7L912.3 258.7Q910.9 258.7 910.0 257.9Q909.2 257.1 909.2 255.8L909.2 255.8Q909.2 254.8 909.7 253.8L909.7 253.8Q910.8 251.1 914.2 249.5Q917.6 247.9 922.0 247.9L922.0 247.9Q927.8 247.9 931.3 250.7Q934.7 253.5 934.7 258.2L934.7 258.2L934.7 276.5Q934.7 278.2 933.7 279.2Q932.8 280.2 931.2 280.2L931.2 280.2Q929.7 280.2 928.7 279.3Q927.8 278.4 927.7 276.8L927.7 276.8L927.7 274.6L927.5 274.6Q926.2 277.1 923.6 278.6Q920.9 280.1 917.9 280.1ZM920.1 274.6L920.1 274.6Q923.2 274.6 925.4 272.7Q927.5 270.8 927.5 268.1L927.5 268.1L927.5 265.7L920.3 266.1Q917.7 266.3 916.2 267.4Q914.8 268.6 914.8 270.4L914.8 270.4Q914.8 272.3 916.2 273.4Q917.7 274.6 920.1 274.6ZM942.6 271.9L942.6 271.9L942.6 254.1L940.6 254.1Q939.3 254.1 938.5 253.4Q937.7 252.6 937.7 251.3L937.7 251.3Q937.7 250.0 938.5 249.3Q939.3 248.5 940.6 248.5L940.6 248.5L942.6 248.5L942.6 244.4Q942.6 242.6 943.6 241.6Q944.6 240.6 946.3 240.6L946.3 240.6Q947.9 240.6 948.9 241.6Q949.9 242.6 949.9 244.4L949.9 244.4L949.9 248.5L953.3 248.5Q954.6 248.5 955.4 249.3Q956.2 250.0 956.2 251.3L956.2 251.3Q956.2 252.6 955.4 253.4Q954.6 254.1 953.3 254.1L953.3 254.1L949.9 254.1L949.9 270.3Q949.9 272.1 950.6 272.9Q951.3 273.7 952.8 273.9L952.8 273.9L953.4 273.9Q956.3 274.2 956.3 276.6L956.3 276.6Q956.3 278.2 954.9 279.1Q953.6 279.9 951.1 279.9L951.1 279.9L950.8 279.9Q942.6 279.9 942.6 271.9ZM967.4 243.0Q966.2 244.2 964.5 244.2Q962.8 244.2 961.7 243.0Q960.5 241.8 960.5 240.2L960.5 240.2Q960.5 238.5 961.7 237.4Q962.8 236.2 964.5 236.2L964.5 236.2Q966.3 236.2 967.4 237.4Q968.6 238.5 968.6 240.2L968.6 240.2Q968.6 241.8 967.4 243.0ZM967.2 279.1Q966.2 280.2 964.5 280.2Q962.9 280.2 961.9 279.1Q960.9 278.1 960.9 276.3L960.9 276.3L960.9 251.7Q960.9 250.0 961.9 248.9Q962.9 247.9 964.5 247.9Q966.2 247.9 967.2 248.9Q968.2 250.0 968.2 251.8L968.2 251.8L968.2 276.3Q968.2 278.1 967.2 279.1ZM999.0 275.9Q994.9 280.2 988.0 280.2Q981.2 280.2 977.1 275.9Q973.0 271.6 973.0 264.1L973.0 264.1Q973.0 256.6 977.1 252.2Q981.2 247.9 988.0 247.9L988.0 247.9Q994.9 247.9 999.0 252.2Q1003.1 256.6 1003.1 264.1L1003.1 264.1Q1003.1 271.6 999.0 275.9ZM982.5 271.7Q984.5 274.4 988.0 274.4Q991.6 274.4 993.6 271.7Q995.7 269.0 995.7 264.1L995.7 264.1Q995.7 259.2 993.6 256.4Q991.6 253.7 988.0 253.7L988.0 253.7Q984.6 253.7 982.5 256.4Q980.4 259.2 980.4 264.1L980.4 264.1Q980.4 269.0 982.5 271.7ZM1014.0 279.2Q1013.0 280.2 1011.4 280.2Q1009.8 280.2 1008.8 279.2Q1007.8 278.1 1007.8 276.3L1007.8 276.3L1007.8 251.6Q1007.8 249.9 1008.7 248.9Q1009.6 247.9 1011.3 247.9Q1012.9 247.9 1013.9 248.9Q1014.9 249.9 1014.9 251.6L1014.9 251.6L1014.9 253.8L1015 253.8Q1017.6 247.9 1024.7 247.9L1024.7 247.9Q1029.8 247.9 1032.6 251.0Q1035.4 254.1 1035.4 259.5L1035.4 259.5L1035.4 276.3Q1035.4 278.1 1034.4 279.2Q1033.4 280.2 1031.8 280.2Q1030.1 280.2 1029.1 279.2Q1028.1 278.1 1028.1 276.3L1028.1 276.3L1028.1 261.0Q1028.1 257.6 1026.6 255.9Q1025.0 254.1 1021.9 254.1L1021.9 254.1Q1018.8 254.1 1016.9 256.2Q1015.1 258.2 1015.1 261.6L1015.1 261.6L1015.1 276.3Q1015.1 278.1 1014.0 279.2ZM1053.2 280.2L1053.2 280.2Q1048.4 280.2 1045.1 278.5Q1041.7 276.8 1040.6 274.0L1040.6 274.0Q1040.3 273.2 1040.3 272.5L1040.3 272.5Q1040.3 271.2 1041.1 270.4Q1042.0 269.6 1043.3 269.6L1043.3 269.6Q1045.1 269.6 1046.5 271.4L1046.5 271.4Q1047.8 273.3 1049.4 274.1Q1050.9 274.9 1053.5 274.9L1053.5 274.9Q1056.1 274.9 1057.6 273.9Q1059.2 272.8 1059.2 271.1L1059.2 271.1Q1059.2 269.7 1058.2 268.8Q1057.2 268.0 1054.8 267.4L1054.8 267.4L1049.7 266.3Q1040.7 264.3 1040.7 257.4L1040.7 257.4Q1040.7 253.1 1044.2 250.5Q1047.6 247.9 1053.3 247.9L1053.3 247.9Q1057.7 247.9 1061.0 249.8Q1064.2 251.6 1064.9 254.4L1064.9 254.4Q1065.1 255.0 1065.1 255.5L1065.1 255.5Q1065.1 256.6 1064.3 257.4Q1063.6 258.1 1062.3 258.1L1062.3 258.1Q1060.4 258.1 1059.5 256.7L1059.5 256.7Q1058.3 255.0 1056.9 254.1Q1055.4 253.2 1053.2 253.2L1053.2 253.2Q1050.8 253.2 1049.3 254.3Q1047.8 255.3 1047.8 257.0L1047.8 257.0Q1047.8 259.8 1052.4 260.8L1052.4 260.8L1057.3 261.9Q1062.2 263.0 1064.4 264.9Q1066.5 266.9 1066.5 270.3L1066.5 270.3Q1066.5 274.8 1062.8 277.5Q1059.2 280.2 1053.2 280.2Z "/><defs><clipPath id="satori_bc-id-0-1"><rect x="0" y="441" width="1200" height="189"/></clipPath></defs><mask id="satori_om-id-0-1"><rect x="0" y="442" width="1200" height="188" fill="#fff"/><path width="1200" height="189" fill="none" stroke="#000" stroke-width="2" d="M0,441 A0,0 0 0 1 0,441 h1200 A0,0 0 0 1 1200,441"/></mask><path width="1200" height="189" clip-path="url(#satori_bc-id-0-1)" fill="none" stroke="#dbdbdb" stroke-width="2" d="M0,441 A0,0 0 0 1 0,441 h1200 A0,0 0 0 1 1200,441"/><mask id="satori_om-id-0-1-0"><rect x="40" y="482" width="292" height="108" fill="#fff"/></mask><clipPath id="satori_cp-id-0-1-0-0"><rect x="40" y="504" width="64" height="64"/></clipPath><mask id="satori_om-id-0-1-0-0"><rect x="40" y="504" width="64" height="64" fill="#fff"/></mask><image x="40" y="504" width="64" height="64" href="data:image/svg+xml;utf8,%3Csvg  xmlns=%22http://www.w3.org/2000/svg%22 width=%2264%22 height=%2264%22 viewBox=%220 0 128 128%22%3E%3Cpath fill=%22%23224d67%22 d=%22M22.5 14.8c2.9 1.3 99 44 99 44c2.7 1.2 2.9 3.1 2 12.4c-1 10.5-1.9 37.8-40.2 42.9c-24.6 3.2-55.9-4.3-70.9-27.2C-6 58.8 11 23.4 14.8 17.7c2.4-3.5 4.8-4.2 7.7-2.9%22%3E%3C/path%3E%3Cpath fill=%22%23f0f4c3%22 d=%22M121.5 58.8c-.3-.2-92-40.8-98.9-43.9C9.6 31.5-3.8 76 27.9 96.2c33.6 21.5 78.7-10.2 93.6-37.4%22%3E%3C/path%3E%3Cpath fill=%22%23f0f4c3%22 d=%22M117.7 57c-.3-.2-86.7-38.4-93.2-41.3c-12.2 15.5-23.9 59.1 5.7 78c31.4 20.2 73.6-11.2 87.5-36.7%22%3E%3C/path%3E%3Cpath fill=%22%23cb2a42%22 d=%22M56.2 37.6L19.5 48.2c-2.5.8-4.4 2.8-5 5.3c-1.9 8.5.8 23.3 8.9 29.8c3.5 2.7 8.6 1.8 10.8-2.1L58.5 41c1.3-1.7.5-4.2-2.3-3.4m14.3 2.9s14.6 30.1 16 33s6.3 4.7 9.9 2.8c10.7-5.6 15.5-12.4 19.2-20.2c-8.9-3.9-42.4-18.8-42.4-18.8c-2.4-1.1-4 .6-2.7 3.2m-8.6 1.9C60.3 45.1 39.5 81 37.6 84.1c-1.9 3.2-.7 7.5 2.7 9.2c12.3 6.5 30.9.4 39.6-7c2.2-1.9 4.5-5.1 3.2-8.2S68.9 44.6 67.8 42.3c-1.2-2.7-4.1-2.8-5.9.1%22%3E%3C/path%3E%3Cpath fill=%22%23f0f4c3%22 d=%22M52.2 42.2c-1.4.4-10.1 3-11.1 3.4c-1.4.5-2.2 1.7-1.9 2.5c.3.9 1.7 1.1 3.1.6c.8-.3 7.1-3.9 9.5-5.2c-3.1 2.4-10.2 9.4-11.1 10.3c-1.4 1.5-1.7 3.4-.8 4.3c1 .9 2.9.5 4.3-1c1.2-1.3 8.5-12.8 9.1-13.9s.4-1.4-1.1-1m10.1 16.4c0-2.2 1.4-10.3 1.8-12.3c.4-1.6 1.5-1.8 1.8.5s1.7 9.7 1.7 11.8s-1.2 3.3-2.7 3.3c-1.4 0-2.6-1.1-2.6-3.3M79.9 49c-1.2-1.8-3.3-4.9-4.1-6.1c-.7-1.2.1-2.1 1.8-.9s4 2.9 5.4 4c1.6 1.3 1.9 3 .8 4s-2.7.8-3.9-1%22%3E%3C/path%3E%3Cellipse cx=%2287.3%22 cy=%22103.12%22 fill=%22%23cb2a42%22 rx=%223.4%22 ry=%222.3%22 transform=%22rotate(-27.098 87.298 103.126)%22%3E%3C/ellipse%3E%3Cellipse cx=%2298.89%22 cy=%22103.82%22 fill=%22%23cb2a42%22 rx=%223.4%22 ry=%222.3%22 transform=%22rotate(-30.642 98.887 103.818)%22%3E%3C/ellipse%3E%3Cellipse cx=%22102.02%22 cy=%2293.8%22 fill=%22%23cb2a42%22 rx=%223.4%22 ry=%222.3%22 transform=%22rotate(-37.16 102.017 93.797)%22%3E%3C/ellipse%3E%3Cpath fill=%22%23cb2a42%22 d=%22M57.6 30.3c-8.3-3.7-24.4-10.7-29.6-13c-3.6 2.2-9.7 11.4-11.2 21.2c-.6 3.6 1.7 5.9 5.3 4.9c0 0 33.7-9.3 35.3-9.7c1.6-.5 2-2.6.2-3.4%22%3E%3C/path%3E%3C/svg%3E" preserveAspectRatio="none" clip-path="url(#satori_cp-id-0-1-0-0)" mask="url(#satori_om-id-0-1-0-0)"/><mask id="satori_om-id-0-1-0-0-0"><rect x="40" y="504" width="0" height="64" fill="#fff"/></mask><mask id="satori_om-id-0-1-0-0-1"><rect x="40" y="504" width="0" height="64" fill="#fff"/></mask><mask id="satori_om-id-0-1-0-0-2"><rect x="40" y="504" width="0" height="64" fill="#fff"/></mask><mask id="satori_om-id-0-1-0-0-3"><rect x="40" y="504" width="0" height="64" fill="#fff"/></mask><mask id="satori_om-id-0-1-0-0-4"><rect x="40" y="504" width="0" height="64" fill="#fff"/></mask><mask id="satori_om-id-0-1-0-0-5"><rect x="40" y="504" width="0" height="64" fill="#fff"/></mask><mask id="satori_om-id-0-1-0-0-6"><rect x="40" y="504" width="0" height="64" fill="#fff"/></mask><mask id="satori_om-id-0-1-0-0-7"><rect x="40" y="504" width="0" height="64" fill="#fff"/></mask><mask id="satori_om-id-0-1-0-0-8"><rect x="40" y="504" width="0" height="64" fill="#fff"/></mask><mask id="satori_om-id-0-1-0-1"><rect x="116" y="512" width="216" height="48" fill="#fff"/></mask><path fill="#545454" d="M121.1 553.5L121.1 553.5Q119.4 553.5 118.4 552.6Q117.5 551.7 117.5 550.2L117.5 550.2Q117.5 549.3 117.9 547.9L117.9 547.9L127.2 522.8Q127.9 520.7 129.2 519.7Q130.5 518.8 132.5 518.8L132.5 518.8Q134.6 518.8 135.9 519.7Q137.2 520.7 137.9 522.8L137.9 522.8L147.2 547.9Q147.6 549.2 147.6 550.2L147.6 550.2Q147.6 551.6 146.6 552.6Q145.6 553.5 144.1 553.5L144.1 553.5Q142.6 553.5 141.7 552.8Q140.9 552.1 140.4 550.4L140.4 550.4L138.6 545.0L126.4 545.0L124.6 550.3Q124.2 552.0 123.3 552.8Q122.5 553.5 121.1 553.5ZM132.4 525.7L128.0 539.6L137 539.6L132.5 525.7L132.4 525.7ZM159.1 552.6Q158.2 553.6 156.6 553.6Q155.0 553.6 154.1 552.6Q153.2 551.7 153.2 550.0L153.2 550.0L153.2 533.1L151.9 533.1Q150.8 533.1 150.1 532.4Q149.4 531.7 149.4 530.6Q149.4 529.4 150.1 528.7Q150.8 528.1 151.9 528.1L151.9 528.1L153.2 528.1L153.2 526.2Q153.2 522.5 155.0 520.7Q156.7 519.0 160.3 518.9L160.3 518.9Q163.0 518.9 164.2 519.7Q165.5 520.4 165.5 521.7L165.5 521.7Q165.5 523.1 164.1 523.5L164.1 523.5Q163.5 523.7 162.8 523.7L162.8 523.7Q161.2 523.7 160.5 524.4Q159.9 525.1 159.9 526.5L159.9 526.5L159.9 528.1L162.7 528.1Q163.8 528.1 164.5 528.7Q165.2 529.4 165.2 530.6Q165.2 531.7 164.5 532.4Q163.8 533.1 162.7 533.1L162.7 533.1L160.0 533.1L160.0 550.0Q160.0 551.7 159.1 552.6ZM170.3 546.6L170.3 546.6L170.3 533.1L168.9 533.1Q167.7 533.1 167.0 532.4Q166.3 531.7 166.3 530.5Q166.3 529.3 167.0 528.6Q167.7 527.9 168.9 527.9L168.9 527.9L170.3 527.9L170.3 525.1Q170.3 523.5 171.2 522.5Q172.1 521.6 173.7 521.6Q175.3 521.6 176.2 522.5Q177.1 523.5 177.1 525.1L177.1 525.1L177.1 527.9L179.5 527.9Q180.7 527.9 181.4 528.6Q182.1 529.3 182.1 530.5Q182.1 531.7 181.4 532.4Q180.7 533.1 179.5 533.1L179.5 533.1L177.1 533.1L177.1 545.1Q177.1 546.5 177.6 547.1Q178.1 547.7 179.2 547.8L179.2 547.8L179.6 547.8Q180.9 548.0 181.6 548.5Q182.2 549.1 182.2 550.3L182.2 550.3Q182.2 551.8 180.9 552.6Q179.6 553.3 177.4 553.3L177.4 553.3L177.1 553.3Q170.3 553.3 170.3 546.6ZM197.0 553.6L197.0 553.6Q191.2 553.6 187.9 550.2Q184.6 546.7 184.6 540.6L184.6 540.6Q184.6 534.5 187.9 531.0Q191.1 527.4 196.7 527.4L196.7 527.4Q202.0 527.4 205.3 530.7Q208.6 533.9 208.6 539.1L208.6 539.1Q208.6 540.5 207.9 541.3Q207.1 542.1 205.6 542.1L205.6 542.1L191.3 542.1L191.3 542.4Q191.3 545.2 192.9 546.9Q194.4 548.5 197.0 548.5L197.0 548.5Q198.9 548.5 200.3 547.8Q201.6 547.2 203.0 545.5L203.0 545.5Q204.0 544.5 205.3 544.5L205.3 544.5Q206.4 544.5 207.2 545.2Q207.9 545.9 207.9 547.0L207.9 547.0Q207.9 547.8 207.5 548.7L207.5 548.7Q206.2 551 203.4 552.3Q200.7 553.6 197.0 553.6ZM191.4 537.9L191.4 537.9L202.0 537.9Q201.9 535.4 200.5 533.9Q199.0 532.5 196.8 532.5Q194.5 532.5 193.1 534.0Q191.6 535.5 191.4 537.9ZM215.6 553.6L215.6 553.6Q214.0 553.6 213.1 552.6Q212.1 551.7 212.1 550.0L212.1 550.0L212.1 530.9Q212.1 529.3 213.0 528.3Q213.9 527.4 215.4 527.4L215.4 527.4Q216.9 527.4 217.8 528.3Q218.7 529.3 218.7 530.9L218.7 530.9L218.7 532.5L218.8 532.5Q219.3 530.2 220.7 528.9Q222.1 527.5 224.0 527.5L224.0 527.5Q225.4 527.5 226.2 528.2L226.2 528.2Q227.2 528.9 227.2 530.7L227.2 530.7Q227.2 532.3 226.2 533.2L226.2 533.2Q225.2 534.0 223.2 534.1L223.2 534.1Q221.0 534.1 220.0 535.3Q219.0 536.5 219.0 538.8L219.0 538.8L219.0 550.0Q219.0 551.7 218.1 552.6Q217.2 553.6 215.6 553.6ZM242.6 553.6L242.6 553.6Q237.5 553.6 234.1 551.8Q230.8 550.0 229.7 547.1L229.7 547.1Q229.4 546.1 229.4 545.2L229.4 545.2Q229.4 543.8 230.2 543.0Q231.1 542.1 232.5 542.1L232.5 542.1Q233.6 542.1 234.3 542.6Q235.1 543.1 235.7 544.2L235.7 544.2Q236.5 546.1 238.4 547.0Q240.2 547.9 242.7 547.9L242.7 547.9Q245.6 547.9 247.3 546.7Q249.1 545.5 249.1 543.6L249.1 543.6Q249.1 541.9 247.8 540.9Q246.4 539.9 243.3 539.3L243.3 539.3L239.7 538.6Q229.6 536.6 229.6 528.9L229.6 528.9Q229.6 525.9 231.3 523.5Q232.9 521.2 235.9 519.9Q238.8 518.7 242.5 518.7L242.5 518.7Q247.2 518.7 250.5 520.5Q253.8 522.4 254.9 525.7L254.9 525.7Q255.1 526.4 255.1 527.2L255.1 527.2Q255.1 528.5 254.3 529.3Q253.5 530.1 252.1 530.1L252.1 530.1Q250.9 530.1 250.1 529.6Q249.4 529.1 248.8 528.0L248.8 528.0Q247.2 524.4 242.5 524.4L242.5 524.4Q239.9 524.4 238.3 525.5Q236.7 526.6 236.7 528.5L236.7 528.5Q236.7 530.1 238.1 531.1Q239.4 532.1 242.4 532.7L242.4 532.7L245.9 533.4Q251.3 534.5 253.7 536.7Q256.2 539.0 256.2 542.8L256.2 542.8Q256.2 547.8 252.5 550.7Q248.9 553.6 242.6 553.6ZM266.0 552.6Q265.0 553.6 263.5 553.6Q261.9 553.6 261.0 552.6Q260.1 551.7 260.1 550.0L260.1 550.0L260.1 522.2Q260.1 520.6 261.0 519.7Q261.9 518.7 263.4 518.7L263.4 518.7Q265.0 518.7 265.9 519.7Q266.8 520.6 266.8 522.2L266.8 522.2L266.8 532.4L266.9 532.4Q267.9 530.0 270.0 528.7Q272 527.5 274.8 527.5L274.8 527.5Q279.0 527.5 281.3 530.0Q283.6 532.5 283.6 536.9L283.6 536.9L283.6 550.0Q283.6 551.7 282.7 552.6Q281.7 553.6 280.2 553.6Q278.6 553.6 277.7 552.6Q276.8 551.7 276.8 550.0L276.8 550.0L276.8 538.3Q276.8 535.9 275.6 534.5Q274.3 533.1 272.0 533.1L272.0 533.1Q269.7 533.1 268.3 534.7Q266.9 536.2 266.9 538.7L266.9 538.7L266.9 550.0Q266.9 551.7 266.0 552.6ZM294.1 523.8Q293.0 524.8 291.5 524.8Q290.0 524.8 288.9 523.8Q287.8 522.8 287.8 521.3L287.8 521.3Q287.8 519.8 288.9 518.8Q290.0 517.7 291.5 517.7Q293.0 517.7 294.1 518.8Q295.2 519.8 295.2 521.3L295.2 521.3Q295.2 522.8 294.1 523.8ZM294.0 552.6Q293.1 553.6 291.5 553.6Q289.9 553.6 289.0 552.6Q288.1 551.7 288.1 550.0L288.1 550.0L288.1 531.0Q288.1 529.3 289.0 528.4Q289.9 527.4 291.5 527.4Q293.1 527.4 294.0 528.4Q294.9 529.3 294.9 531.0L294.9 531.0L294.9 550.0Q294.9 551.7 294.0 552.6ZM307.2 552.6Q306.3 553.6 304.7 553.6Q303.1 553.6 302.2 552.6Q301.3 551.7 301.3 550.0L301.3 550.0L301.3 533.1L300.0 533.1Q298.9 533.1 298.2 532.4Q297.5 531.7 297.5 530.6Q297.5 529.4 298.2 528.7Q298.9 528.1 300.0 528.1L300.0 528.1L301.3 528.1L301.3 526.2Q301.3 522.5 303.1 520.7Q304.9 519.0 308.5 518.9L308.5 518.9Q311.1 518.9 312.4 519.7Q313.6 520.4 313.6 521.7L313.6 521.7Q313.6 523.1 312.2 523.5L312.2 523.5Q311.6 523.7 310.9 523.7L310.9 523.7Q309.4 523.7 308.7 524.4Q308.0 525.1 308.0 526.5L308.0 526.5L308.0 528.1L310.9 528.1Q312.0 528.1 312.7 528.7Q313.4 529.4 313.4 530.6Q313.4 531.7 312.7 532.4Q312.0 533.1 310.9 533.1L310.9 533.1L308.1 533.1L308.1 550.0Q308.1 551.7 307.2 552.6ZM318.4 546.6L318.4 546.6L318.4 533.1L317.1 533.1Q315.9 533.1 315.1 532.4Q314.4 531.7 314.4 530.5Q314.4 529.3 315.1 528.6Q315.9 527.9 317.1 527.9L317.1 527.9L318.4 527.9L318.4 525.1Q318.4 523.5 319.3 522.5Q320.2 521.6 321.8 521.6Q323.4 521.6 324.3 522.5Q325.2 523.5 325.2 525.1L325.2 525.1L325.2 527.9L327.6 527.9Q328.9 527.9 329.6 528.6Q330.3 529.3 330.3 530.5Q330.3 531.7 329.6 532.4Q328.9 533.1 327.6 533.1L327.6 533.1L325.2 533.1L325.2 545.1Q325.2 546.5 325.7 547.1Q326.2 547.7 327.3 547.8L327.3 547.8L327.8 547.8Q329.1 548.0 329.7 548.5Q330.4 549.1 330.4 550.3L330.4 550.3Q330.4 551.8 329.0 552.6Q327.7 553.3 325.5 553.3L325.5 553.3L325.3 553.3Q318.4 553.3 318.4 546.6Z "/><mask id="satori_om-id-0-1-1"><rect x="924" y="524" width="236" height="36" fill="#fff"/></mask><path fill="#8e8e8e" d="M927.9 552.6Q927.5 552.9 927.0 552.9Q926.4 552.9 926.1 552.6Q925.8 552.2 925.8 551.7L925.8 551.7L925.8 532.6Q925.8 532.0 926.1 531.6Q926.5 531.3 927.1 531.3Q927.6 531.3 928.0 531.6Q928.3 532.0 928.3 532.6L928.3 532.6L928.3 540.0L928.4 540.0Q929.1 538.7 930.4 537.9Q931.7 537.2 933.3 537.2L933.3 537.2Q936.2 537.2 937.9 539.3Q939.7 541.5 939.7 545.0L939.7 545.0Q939.7 548.6 937.9 550.8Q936.2 552.9 933.2 552.9L933.2 552.9Q931.6 552.9 930.3 552.2Q929.0 551.4 928.3 550.1L928.3 550.1L928.2 550.1L928.2 551.7Q928.2 552.2 927.9 552.6ZM932.7 550.7L932.7 550.7Q934.8 550.7 935.9 549.2Q937.1 547.7 937.1 545.0L937.1 545.0Q937.1 542.5 935.9 540.9Q934.8 539.4 932.7 539.4L932.7 539.4Q930.8 539.4 929.6 541.0Q928.3 542.5 928.3 545.0L928.3 545.0Q928.3 547.6 929.6 549.1Q930.8 550.7 932.7 550.7ZM943.8 558.4L943.8 558.4Q942.9 558.4 942.4 558.0Q941.9 557.7 941.9 557.1L941.9 557.1Q941.9 556.7 942.1 556.4Q942.4 556.2 942.9 556.2L942.9 556.2Q943.1 556.2 943.3 556.2Q943.5 556.2 943.7 556.2L943.7 556.2Q945.4 556.2 946.2 553.7L946.2 553.7L946.6 552.7L941.3 539.0Q941.2 538.6 941.2 538.3L941.2 538.3Q941.2 537.8 941.6 537.5Q941.9 537.2 942.5 537.2L942.5 537.2Q943.4 537.2 943.7 538.1L943.7 538.1L947.9 550.1L948.0 550.1L952.2 538.1Q952.3 537.6 952.6 537.4Q952.9 537.2 953.4 537.2L953.4 537.2Q953.9 537.2 954.3 537.5Q954.6 537.8 954.6 538.3L954.6 538.3Q954.6 538.6 954.5 539.0L954.5 539.0L948.9 553.7Q947.9 556.4 946.8 557.4Q945.7 558.4 943.8 558.4Z M965.7 552.5Q965.3 552.9 964.7 552.9Q964.1 552.9 963.8 552.5Q963.4 552.1 963.4 551.5L963.4 551.5L963.4 532.9Q963.4 532.3 963.8 531.9Q964.1 531.5 964.7 531.5L964.7 531.5L970.9 531.5Q973.9 531.5 975.8 533.4Q977.7 535.3 977.7 538.3L977.7 538.3Q977.7 541.3 975.8 543.2Q973.9 545.1 970.9 545.1L970.9 545.1L966.0 545.1L966.0 551.5Q966.0 552.1 965.7 552.5ZM966.0 533.9L966.0 542.8L970.3 542.8Q972.5 542.8 973.8 541.6Q975.0 540.4 975.0 538.3Q975.0 536.2 973.8 535.0Q972.5 533.9 970.3 533.9L970.3 533.9L966.0 533.9ZM984.8 552.9L984.8 552.9Q982.5 552.9 981.1 551.7Q979.7 550.4 979.7 548.4L979.7 548.4Q979.7 546.4 981.2 545.2Q982.6 544.1 985.2 543.9L985.2 543.9L989.6 543.7L989.6 542.4Q989.6 541.0 988.7 540.2Q987.9 539.4 986.3 539.4L986.3 539.4Q985.0 539.4 984.1 539.9Q983.3 540.4 982.6 541.5L982.6 541.5Q982.3 542.1 981.6 542.1L981.6 542.1Q981.1 542.1 980.8 541.8Q980.5 541.5 980.5 541.0Q980.5 540.5 980.8 539.9L980.8 539.9Q981.4 538.7 982.9 537.9Q984.5 537.2 986.3 537.2L986.3 537.2Q989.0 537.2 990.6 538.5Q992.2 539.9 992.2 542.1L992.2 542.1L992.2 551.6Q992.2 552.2 991.8 552.6Q991.5 552.9 991.0 552.9L991.0 552.9Q990.4 552.9 990.1 552.6Q989.7 552.2 989.7 551.6L989.7 551.6L989.7 550.0L989.7 550.0Q989.0 551.3 987.7 552.1Q986.3 552.9 984.8 552.9ZM985.3 550.8L985.3 550.8Q987.1 550.8 988.4 549.6Q989.6 548.5 989.6 546.9L989.6 546.9L989.6 545.6L985.5 545.9Q984.0 546.0 983.1 546.6Q982.3 547.3 982.3 548.4Q982.3 549.4 983.1 550.1Q984.0 550.8 985.3 550.8ZM996.2 549.1L996.2 549.1L996.2 539.5L994.9 539.5Q994.4 539.5 994.1 539.3Q993.8 539.0 993.8 538.5L993.8 538.5Q993.8 538.0 994.1 537.7Q994.4 537.4 994.9 537.4L994.9 537.4L996.2 537.4L996.2 534.8Q996.2 534.2 996.6 533.8Q996.9 533.5 997.5 533.5Q998.0 533.5 998.4 533.8Q998.8 534.2 998.8 534.8L998.8 534.8L998.8 537.4L1000.7 537.4Q1001.3 537.4 1001.6 537.7Q1001.9 538.0 1001.9 538.5L1001.9 538.5Q1001.9 539.0 1001.6 539.3Q1001.3 539.5 1000.7 539.5L1000.7 539.5L998.8 539.5L998.8 548.6Q998.8 549.6 999.2 550.0Q999.6 550.5 1000.5 550.6L1000.5 550.6L1000.7 550.6Q1001.9 550.7 1001.9 551.6L1001.9 551.6Q1001.9 552.2 1001.5 552.5Q1001.1 552.8 1000.1 552.8L1000.1 552.8L999.9 552.8Q996.2 552.8 996.2 549.1ZM1006.6 552.5Q1006.3 552.9 1005.7 552.9Q1005.2 552.9 1004.8 552.5Q1004.4 552.2 1004.4 551.6L1004.4 551.6L1004.4 538.5Q1004.4 537.9 1004.8 537.5Q1005.1 537.2 1005.6 537.2Q1006.2 537.2 1006.5 537.5Q1006.8 537.9 1006.8 538.5L1006.8 538.5L1006.8 539.9L1006.9 539.9Q1007.2 538.7 1008.2 537.9Q1009.2 537.2 1010.4 537.2L1010.4 537.2Q1011.2 537.2 1011.6 537.5L1011.6 537.5Q1011.9 537.8 1011.9 538.4L1011.9 538.4Q1011.9 539.0 1011.5 539.3L1011.5 539.3Q1011.1 539.6 1010.3 539.6L1010.3 539.6Q1008.6 539.6 1007.8 540.6Q1007.0 541.6 1007.0 543.2L1007.0 543.2L1007.0 551.6Q1007.0 552.2 1006.6 552.5ZM1015.1 534.9L1015.1 534.9Q1014.4 534.9 1014.0 534.4Q1013.5 533.9 1013.5 533.3L1013.5 533.3Q1013.5 532.6 1014.0 532.2Q1014.4 531.7 1015.1 531.7L1015.1 531.7Q1015.7 531.7 1016.2 532.2Q1016.7 532.6 1016.7 533.3L1016.7 533.3Q1016.7 533.9 1016.2 534.4Q1015.7 534.9 1015.1 534.9ZM1016.0 552.5Q1015.6 552.9 1015.1 552.9Q1014.5 552.9 1014.2 552.5Q1013.8 552.2 1013.8 551.6L1013.8 551.6L1013.8 538.5Q1013.8 537.9 1014.2 537.5Q1014.5 537.2 1015.1 537.2Q1015.6 537.2 1016.0 537.5Q1016.4 537.9 1016.4 538.5L1016.4 538.5L1016.4 551.6Q1016.4 552.2 1016.0 552.5ZM1026.1 552.9L1026.1 552.9Q1022.9 552.9 1021.0 550.8Q1019.1 548.7 1019.1 545.1Q1019.1 541.5 1021.0 539.3Q1022.9 537.2 1026.1 537.2L1026.1 537.2Q1028.2 537.2 1029.9 538.2Q1031.6 539.3 1032.0 540.9L1032.0 540.9Q1032.1 541.2 1032.1 541.4L1032.1 541.4Q1032.1 542.0 1031.8 542.3Q1031.5 542.6 1031.0 542.6L1031.0 542.6Q1030.6 542.6 1030.3 542.4Q1030.1 542.2 1029.8 541.7L1029.8 541.7Q1028.6 539.4 1026.1 539.4L1026.1 539.4Q1024.1 539.4 1022.9 541.0Q1021.6 542.5 1021.6 545.0L1021.6 545.0Q1021.6 547.6 1022.9 549.2Q1024.1 550.7 1026.1 550.7L1026.1 550.7Q1027.4 550.7 1028.3 550.1Q1029.2 549.6 1029.8 548.4L1029.8 548.4Q1030.1 547.9 1030.3 547.7Q1030.6 547.5 1031.0 547.5L1031.0 547.5Q1031.5 547.5 1031.8 547.8Q1032.1 548.2 1032.1 548.7L1032.1 548.7Q1032.1 548.9 1032.0 549.3L1032.0 549.3Q1031.4 550.9 1029.8 551.9Q1028.2 552.9 1026.1 552.9ZM1041.2 552.9L1041.2 552.9Q1037.8 552.9 1036.0 550.9Q1034.1 548.8 1034.1 545.1L1034.1 545.1Q1034.1 541.5 1036.0 539.3Q1037.8 537.2 1041.0 537.2L1041.0 537.2Q1043.9 537.2 1045.8 539.1Q1047.6 541.1 1047.6 544.3L1047.6 544.3Q1047.6 544.9 1047.3 545.3Q1046.9 545.7 1046.2 545.7L1046.2 545.7L1036.7 545.7Q1036.7 548.0 1037.9 549.4Q1039.1 550.7 1041.1 550.7L1041.1 550.7Q1042.5 550.7 1043.4 550.2Q1044.3 549.6 1045.2 548.3L1045.2 548.3Q1045.6 547.8 1046.2 547.8L1046.2 547.8Q1046.7 547.8 1047.0 548.1Q1047.3 548.4 1047.3 548.9L1047.3 548.9Q1047.3 549.2 1047.1 549.7L1047.1 549.7Q1046.4 551.2 1044.8 552.1Q1043.3 552.9 1041.2 552.9ZM1036.7 543.7L1036.7 543.7L1045.0 543.7Q1045.0 541.8 1043.8 540.6Q1042.7 539.4 1041.0 539.4L1041.0 539.4Q1039.2 539.4 1038.0 540.6Q1036.8 541.8 1036.7 543.7Z M1059.0 552.5Q1058.7 552.9 1058.1 552.9Q1057.5 552.9 1057.1 552.5Q1056.7 552.1 1056.7 551.5L1056.7 551.5L1056.7 532.7Q1056.7 532.1 1057.1 531.7Q1057.5 531.3 1058.1 531.3Q1058.7 531.3 1059.0 531.7Q1059.4 532.1 1059.4 532.7L1059.4 532.7L1059.4 541.8L1059.5 541.8L1068.9 531.8Q1069.4 531.3 1070.0 531.3L1070.0 531.3Q1070.5 531.3 1070.9 531.7Q1071.2 532.0 1071.2 532.5L1071.2 532.5Q1071.2 533.0 1070.9 533.3L1070.9 533.3L1063.6 540.9L1071.7 550.6Q1072.1 551.1 1072.1 551.6L1072.1 551.6Q1072.1 552.2 1071.7 552.5Q1071.3 552.9 1070.8 552.9L1070.8 552.9Q1070.1 552.9 1069.6 552.2L1069.6 552.2L1061.7 542.8L1059.4 545.3L1059.4 551.5Q1059.4 552.1 1059.0 552.5ZM1081.2 552.9L1081.2 552.9Q1077.8 552.9 1075.9 550.9Q1074.1 548.8 1074.1 545.1L1074.1 545.1Q1074.1 541.5 1075.9 539.3Q1077.8 537.2 1081.0 537.2L1081.0 537.2Q1083.9 537.2 1085.8 539.1Q1087.6 541.1 1087.6 544.3L1087.6 544.3Q1087.6 544.9 1087.2 545.3Q1086.9 545.7 1086.2 545.7L1086.2 545.7L1076.7 545.7Q1076.7 548.0 1077.9 549.4Q1079.1 550.7 1081.1 550.7L1081.1 550.7Q1082.5 550.7 1083.4 550.2Q1084.3 549.6 1085.2 548.3L1085.2 548.3Q1085.6 547.8 1086.2 547.8L1086.2 547.8Q1086.7 547.8 1087.0 548.1Q1087.3 548.4 1087.3 548.9L1087.3 548.9Q1087.3 549.2 1087.1 549.7L1087.1 549.7Q1086.4 551.2 1084.8 552.1Q1083.3 552.9 1081.2 552.9ZM1076.7 543.7L1076.7 543.7L1085.0 543.7Q1084.9 541.8 1083.8 540.6Q1082.7 539.4 1080.9 539.4L1080.9 539.4Q1079.1 539.4 1078.0 540.6Q1076.8 541.8 1076.7 543.7ZM1092.4 552.5Q1092.0 552.9 1091.4 552.9Q1090.9 552.9 1090.5 552.5Q1090.2 552.2 1090.2 551.6L1090.2 551.6L1090.2 538.5Q1090.2 537.9 1090.5 537.5Q1090.8 537.2 1091.4 537.2Q1091.9 537.2 1092.2 537.5Q1092.6 537.9 1092.6 538.5L1092.6 538.5L1092.6 539.9L1092.6 539.9Q1093.3 538.6 1094.5 537.9Q1095.8 537.2 1097.5 537.2L1097.5 537.2Q1100.0 537.2 1101.3 538.7Q1102.7 540.2 1102.7 542.8L1102.7 542.8L1102.7 551.6Q1102.7 552.2 1102.4 552.5Q1102.0 552.9 1101.5 552.9Q1100.9 552.9 1100.6 552.5Q1100.2 552.2 1100.2 551.6L1100.2 551.6L1100.2 543.2Q1100.2 541.4 1099.3 540.4Q1098.4 539.4 1096.7 539.4L1096.7 539.4Q1094.9 539.4 1093.8 540.6Q1092.7 541.8 1092.7 543.7L1092.7 543.7L1092.7 551.6Q1092.7 552.2 1092.4 552.5ZM1108.2 552.5Q1107.8 552.9 1107.3 552.9Q1106.7 552.9 1106.3 552.5Q1106.0 552.2 1106.0 551.6L1106.0 551.6L1106.0 538.5Q1106.0 537.9 1106.3 537.5Q1106.7 537.2 1107.2 537.2Q1107.7 537.2 1108.0 537.5Q1108.4 537.9 1108.4 538.5L1108.4 538.5L1108.4 539.9L1108.4 539.9Q1109.0 538.6 1110.1 537.9Q1111.3 537.2 1112.8 537.2L1112.8 537.2Q1114.3 537.2 1115.4 537.9Q1116.5 538.7 1117.0 540.1L1117.0 540.1L1117.1 540.1Q1117.7 538.7 1119.0 537.9Q1120.3 537.2 1121.9 537.2L1121.9 537.2Q1124.1 537.2 1125.5 538.5Q1126.8 539.9 1126.8 542.1L1126.8 542.1L1126.8 551.6Q1126.8 552.2 1126.5 552.5Q1126.1 552.9 1125.6 552.9Q1125.0 552.9 1124.6 552.5Q1124.3 552.2 1124.3 551.6L1124.3 551.6L1124.3 542.7Q1124.3 541.2 1123.5 540.3Q1122.6 539.4 1121.1 539.4Q1119.6 539.4 1118.6 540.4Q1117.7 541.4 1117.7 543.0L1117.7 543.0L1117.7 551.6Q1117.7 552.2 1117.3 552.5Q1117.0 552.9 1116.4 552.9Q1115.8 552.9 1115.5 552.5Q1115.1 552.2 1115.1 551.6L1115.1 551.6L1115.1 542.5Q1115.1 541.1 1114.3 540.2Q1113.4 539.4 1112.0 539.4L1112.0 539.4Q1110.5 539.4 1109.5 540.5Q1108.5 541.5 1108.5 543.1L1108.5 543.1L1108.5 551.6Q1108.5 552.2 1108.2 552.5ZM1136.4 552.9L1136.4 552.9Q1133.2 552.9 1131.3 550.8Q1129.3 548.7 1129.3 545.0Q1129.3 541.4 1131.3 539.3Q1133.2 537.2 1136.4 537.2L1136.4 537.2Q1139.6 537.2 1141.5 539.3Q1143.4 541.4 1143.4 545.0L1143.4 545.0Q1143.4 548.7 1141.5 550.8Q1139.6 552.9 1136.4 552.9ZM1133.1 549.2Q1134.3 550.7 1136.4 550.7Q1138.4 550.7 1139.6 549.2Q1140.8 547.7 1140.8 545.0Q1140.8 542.4 1139.6 540.9Q1138.4 539.4 1136.4 539.4Q1134.3 539.4 1133.1 540.9Q1131.9 542.4 1131.9 545.0Q1131.9 547.7 1133.1 549.2ZM1152.5 535.6L1152.5 535.6Q1152.1 535.6 1151.9 535.4Q1151.6 535.2 1151.6 534.8Q1151.6 534.5 1151.8 534.2L1151.8 534.2L1154.0 531.1Q1154.3 530.6 1154.6 530.5Q1154.8 530.3 1155.1 530.3L1155.1 530.3Q1155.6 530.3 1155.9 530.6Q1156.2 530.9 1156.2 531.3L1156.2 531.3Q1156.2 531.7 1155.9 532.1L1155.9 532.1L1153.4 535.1Q1153.0 535.6 1152.5 535.6ZM1152.4 552.9L1152.4 552.9Q1149.0 552.9 1147.1 550.9Q1145.3 548.8 1145.3 545.1L1145.3 545.1Q1145.3 541.5 1147.1 539.3Q1149.0 537.2 1152.2 537.2L1152.2 537.2Q1155.1 537.2 1156.9 539.1Q1158.8 541.1 1158.8 544.3L1158.8 544.3Q1158.8 544.9 1158.4 545.3Q1158.1 545.7 1157.4 545.7L1157.4 545.7L1147.9 545.7Q1147.9 548.0 1149.1 549.4Q1150.2 550.7 1152.3 550.7L1152.3 550.7Q1153.6 550.7 1154.6 550.2Q1155.5 549.6 1156.4 548.3L1156.4 548.3Q1156.8 547.8 1157.3 547.8L1157.3 547.8Q1157.9 547.8 1158.2 548.1Q1158.5 548.4 1158.5 548.9L1158.5 548.9Q1158.5 549.2 1158.3 549.7L1158.3 549.7Q1157.6 551.2 1156.0 552.1Q1154.5 552.9 1152.4 552.9ZM1147.9 543.7L1147.9 543.7L1156.2 543.7Q1156.1 541.8 1155.0 540.6Q1153.9 539.4 1152.1 539.4L1152.1 539.4Q1150.3 539.4 1149.2 540.6Q1148.0 541.8 1147.9 543.7Z "/></svg>